<?xml version="1.0" encoding="UTF-8" standalone="no"?>
<!-- Created with Inkscape (http://www.inkscape.org/) -->

<svg
   xmlns:dc="http://purl.org/dc/elements/1.1/"
   xmlns:cc="http://creativecommons.org/ns#"
   xmlns:rdf="http://www.w3.org/1999/02/22-rdf-syntax-ns#"
   xmlns:svg="http://www.w3.org/2000/svg"
   xmlns="http://www.w3.org/2000/svg"
   version="1.1"
   width="100"
   height="100"
   viewBox="0 0 100 100"
   id="Capa_1"
   xml:space="preserve"><metadata
   id="metadata9"><rdf:RDF><cc:Work
       rdf:about=""><dc:format>image/svg+xml</dc:format><dc:type
         rdf:resource="http://purl.org/dc/dcmitype/StillImage" /><dc:title></dc:title></cc:Work></rdf:RDF></metadata><defs
   id="defs7" />
<path
   d="M 52.189522,23.25022 96.54778,67.609644 c 0.634424,0.634424 0.95222,1.364654 0.95222,2.189522 0,0.824868 -0.317796,1.555098 -0.95222,2.189521 l -4.759931,4.758763 c -0.634424,0.635592 -1.363485,0.95222 -2.189522,0.95222 -0.826036,0 -1.555097,-0.316628 -2.189521,-0.95222 L 49.998832,39.33748 12.587689,76.74745 c -0.634424,0.635592 -1.364654,0.95222 -2.188353,0.95222 -0.826036,0 -1.556266,-0.316628 -2.19069,-0.95222 L 3.451052,71.988687 C 2.815459,71.354264 2.5,70.624034 2.5,69.799166 2.5,68.974298 2.816628,68.244068 3.451052,67.609644 L 47.80931,23.25139 c 0.634424,-0.63443 1.364654,-0.95106 2.189522,-0.95106 0.824867,0 1.555097,0.31546 2.19069,0.94989 z"
   id="path3" />
</svg>