<?xml version="1.0" encoding="UTF-8" standalone="no"?>
<!-- Created with Inkscape (http://www.inkscape.org/) -->

<svg
   xmlns:dc="http://purl.org/dc/elements/1.1/"
   xmlns:cc="http://creativecommons.org/ns#"
   xmlns:rdf="http://www.w3.org/1999/02/22-rdf-syntax-ns#"
   xmlns:svg="http://www.w3.org/2000/svg"
   xmlns="http://www.w3.org/2000/svg"
   version="1.1"
   width="100"
   height="100"
   viewBox="0 0 100 100"
   id="Capa_1"
   xml:space="preserve"><metadata
   id="metadata13"><rdf:RDF><cc:Work
       rdf:about=""><dc:format>image/svg+xml</dc:format><dc:type
         rdf:resource="http://purl.org/dc/dcmitype/StillImage" /><dc:title></dc:title></cc:Work></rdf:RDF></metadata><defs
   id="defs11" />
<g
   transform="matrix(0.75913762,0,0,0.75913762,-31.986863,-5.4170463)"
   id="g3">
	<path
   d="m 154.604,41.389 -25.42,-25.42 c -2.717,-2.716 -6.302,-4.482 -10.756,-5.296 v 41.47 h 41.471 c -0.815,-4.455 -2.581,-8.039 -5.295,-10.754 z"
   id="path5" />
	<path
   d="m 115.822,62.571 c -2.174,0 -4.021,-0.76 -5.541,-2.281 C 108.76,58.77 108,56.923 108,54.75 V 10.429 H 63.679 c -2.172,0 -4.019,0.76 -5.54,2.281 -1.521,1.52 -2.281,3.367 -2.281,5.54 v 109.5 c 0,2.173 0.76,4.02 2.281,5.54 1.521,1.52 3.368,2.281 5.54,2.281 h 88.644 c 2.172,0 4.018,-0.761 5.538,-2.281 1.521,-1.521 2.281,-3.367 2.281,-5.54 V 62.571 h -44.32 z"
   id="path7" />
</g>
</svg>