<?xml version="1.0" encoding="UTF-8" standalone="no"?>
<!-- Created with Inkscape (http://www.inkscape.org/) -->

<svg
   xmlns:dc="http://purl.org/dc/elements/1.1/"
   xmlns:cc="http://creativecommons.org/ns#"
   xmlns:rdf="http://www.w3.org/1999/02/22-rdf-syntax-ns#"
   xmlns:svg="http://www.w3.org/2000/svg"
   xmlns="http://www.w3.org/2000/svg"
   version="1.1"
   width="100"
   height="100"
   viewBox="0 0 100 100"
   id="Capa_1"
   xml:space="preserve"><metadata
   id="metadata9"><rdf:RDF><cc:Work
       rdf:about=""><dc:format>image/svg+xml</dc:format><dc:type
         rdf:resource="http://purl.org/dc/dcmitype/StillImage" /><dc:title></dc:title></cc:Work></rdf:RDF></metadata><defs
   id="defs7" />
<path style="fill:#fff"
   d="M 75.679405,5.320321 C 73.800105,3.439196 71.572815,2.5 69.000275,2.5 H 31.000639 c -2.573451,0 -4.799829,0.940107 -6.680043,2.820321 -1.880214,1.879303 -2.820321,4.1065915 -2.820321,6.679132 v 76.000183 c 0,2.573451 0.940107,4.799829 2.820321,6.680043 C 26.20081,96.559893 28.427188,97.5 31.000639,97.5 h 37.999636 c 2.57254,0 4.79983,-0.941018 6.67913,-2.820321 1.88022,-1.880214 2.82032,-4.106592 2.82032,-6.680043 V 11.999453 c 0,-2.5725405 -0.93919,-4.798918 -2.82032,-6.679132 z m -31.616562,6.679132 h 11.875232 c 0.79162,0 1.18697,0.396267 1.18697,1.187888 0,0.791621 -0.39535,1.187887 -1.18697,1.187887 H 44.062843 c -0.791621,0 -1.187887,-0.396266 -1.187887,-1.187887 0,-0.791621 0.396266,-1.187888 1.187887,-1.187888 z m 10.131662,80.194226 c -1.1633,1.161469 -2.5607,1.74357 -4.19405,1.74357 -1.63243,0 -3.02984,-0.58119 -4.19313,-1.74357 -1.163291,-1.163291 -1.744482,-2.561609 -1.744482,-4.194043 0,-1.632434 0.582101,-3.030752 1.744482,-4.193133 1.16238,-1.16238 2.5607,-1.745392 4.19313,-1.745392 1.63335,0 3.03075,0.583012 4.19405,1.745392 1.16329,1.162381 1.74357,2.560699 1.74357,4.193133 0,1.633344 -0.58119,3.030752 -1.74357,4.194043 z m 17.18154,-16.06836 c 0,0.643135 -0.23502,1.20064 -0.70599,1.669783 -0.47096,0.470053 -1.02664,0.704169 -1.66887,0.704169 H 31.000639 c -0.643135,0 -1.199729,-0.235027 -1.669783,-0.704169 -0.470053,-0.469143 -0.70508,-1.026648 -0.70508,-1.669783 V 23.875592 c 0,-0.643135 0.235027,-1.19973 0.70508,-1.669783 0.470054,-0.469143 1.026648,-0.70508 1.669783,-0.70508 h 37.999636 c 0.64405,0 1.19973,0.235026 1.67069,0.70508 0.47006,0.470053 0.70417,1.026648 0.70417,1.669783 v 52.249727 z"
   id="path3" />
</svg>