<?xml version="1.0" encoding="UTF-8" standalone="no"?>
<!-- Created with Inkscape (http://www.inkscape.org/) -->

<svg
   xmlns:dc="http://purl.org/dc/elements/1.1/"
   xmlns:cc="http://creativecommons.org/ns#"
   xmlns:rdf="http://www.w3.org/1999/02/22-rdf-syntax-ns#"
   xmlns:svg="http://www.w3.org/2000/svg"
   xmlns="http://www.w3.org/2000/svg"
   version="1.1"
   width="100"
   height="100"
   viewBox="0 0 100 100"
   id="Capa_1"
   xml:space="preserve"><metadata
   id="metadata9"><rdf:RDF><cc:Work
       rdf:about=""><dc:format>image/svg+xml</dc:format><dc:type
         rdf:resource="http://purl.org/dc/dcmitype/StillImage" /><dc:title></dc:title></cc:Work></rdf:RDF></metadata><defs
   id="defs7" />
<path
   d="M 92.248535,4.0984229 C 91.183385,3.0325741 89.889095,2.5 88.366355,2.5 c -0.60896,0 -1.14223,0.076382 -1.59842,0.2284462 L 39.266529,17.3441 c -1.141531,0.380511 -2.074236,1.056039 -2.797416,2.026585 -0.723179,0.971247 -1.084769,2.046205 -1.084769,3.226277 v 55.20901 c -3.31177,-1.484901 -6.965508,-2.227001 -10.961916,-2.227001 -1.712646,0 -3.549326,0.199716 -5.509338,0.599146 -1.960714,0.39873 -3.930537,1.007686 -5.90947,1.826169 -1.979634,0.818482 -3.615898,1.970524 -4.910193,3.454023 -1.294295,1.4842 -1.941092,3.178626 -1.941092,5.081877 0,1.903953 0.646797,3.596978 1.941092,5.081878 1.294295,1.482799 2.930559,2.63484 4.910193,3.453323 1.979634,0.818482 3.949457,1.427438 5.90947,1.826168 1.960012,0.39943 3.796692,0.598445 5.509338,0.598445 1.712646,0 3.548625,-0.199015 5.509339,-0.598445 1.960713,-0.39873 3.929836,-1.007686 5.90947,-1.826168 1.978933,-0.818483 3.615196,-1.970524 4.909491,-3.453323 1.294996,-1.4849 1.941793,-3.177925 1.941793,-5.081878 V 46.061755 L 86.540185,32.53087 v 30.658747 c -3.31247,-1.4842 -6.96551,-2.227 -10.96262,-2.227 -1.71264,0 -3.54932,0.199014 -5.50934,0.598445 -1.96001,0.398729 -3.92913,1.007686 -5.90876,1.826168 -1.97964,0.818482 -3.615902,1.970524 -4.910898,3.455425 -1.293594,1.482798 -1.941793,3.177925 -1.941793,5.080476 0,1.903952 0.648199,3.596977 1.941793,5.081878 1.294996,1.484199 2.931258,2.636241 4.910898,3.454023 1.97893,0.818482 3.94875,1.427438 5.90876,1.826869 1.96002,0.39943 3.7967,0.598445 5.50934,0.598445 1.71265,0 3.54933,-0.199015 5.50934,-0.598445 1.96001,-0.399431 3.92914,-1.008387 5.90947,-1.826869 1.97893,-0.817782 3.6152,-1.969824 4.91019,-3.454023 1.295,-1.484901 1.9411,-3.177926 1.9411,-5.081878 V 7.979206 c -7e-4,-1.5220406 -0.53188,-2.815635 -1.59913,-3.8807831 z"
   id="path3" />
</svg>