<?xml version="1.0" encoding="UTF-8" standalone="no"?>
<!-- Created with Inkscape (http://www.inkscape.org/) -->

<svg
   xmlns:dc="http://purl.org/dc/elements/1.1/"
   xmlns:cc="http://creativecommons.org/ns#"
   xmlns:rdf="http://www.w3.org/1999/02/22-rdf-syntax-ns#"
   xmlns:svg="http://www.w3.org/2000/svg"
   xmlns="http://www.w3.org/2000/svg"
   version="1.1"
   width="100"
   height="100"
   viewBox="0 0 100 100"
   id="Capa_1"
   xml:space="preserve"><metadata
   id="metadata15"><rdf:RDF><cc:Work
       rdf:about=""><dc:format>image/svg+xml</dc:format><dc:type
         rdf:resource="http://purl.org/dc/dcmitype/StillImage" /><dc:title></dc:title></cc:Work></rdf:RDF></metadata><defs
   id="defs13" />
<g
   transform="matrix(0.60730039,0,0,0.60730039,-15.588442,5.6670715)"
   id="g3">
	<path
   d="m 182.384,14.258 c -2.553,-2.553 -5.62,-3.829 -9.206,-3.829 H 42.821 c -3.585,0 -6.653,1.276 -9.207,3.829 -2.553,2.553 -3.829,5.621 -3.829,9.206 v 99.071 c 0,3.585 1.276,6.654 3.829,9.207 2.554,2.553 5.622,3.829 9.207,3.829 H 173.18 c 3.584,0 6.652,-1.276 9.205,-3.829 2.553,-2.553 3.83,-5.622 3.83,-9.207 V 23.464 c 0,-3.585 -1.277,-6.653 -3.831,-9.206 z m -6.6,108.276 c 0,0.707 -0.257,1.317 -0.773,1.834 -0.516,0.515 -1.127,0.772 -1.833,0.772 H 42.821 c -0.706,0 -1.317,-0.257 -1.833,-0.772 -0.516,-0.517 -0.774,-1.127 -0.774,-1.834 V 23.463 c 0,-0.706 0.257,-1.316 0.774,-1.833 0.516,-0.515 1.127,-0.773 1.833,-0.773 H 173.18 c 0.705,0 1.316,0.258 1.831,0.773 0.515,0.517 0.773,1.127 0.773,1.833 v 99.071 z"
   id="path5" />
	<path
   d="m 66.286,62.571 c 4.346,0 8.039,-1.52 11.081,-4.562 3.041,-3.042 4.562,-6.735 4.562,-11.08 0,-4.346 -1.522,-8.039 -4.562,-11.081 -3.042,-3.041 -6.735,-4.562 -11.081,-4.562 -4.345,0 -8.038,1.521 -11.08,4.562 -3.041,3.042 -4.562,6.735 -4.562,11.081 0,4.345 1.52,8.039 4.562,11.08 3.042,3.041 6.735,4.562 11.08,4.562 z"
   id="path7" />
	<polygon
   points="50.643,114.714 165.357,114.714 165.357,78.214 131.465,44.321 89.75,86.035 76.714,73 50.643,99.071 "
   id="polygon9" />
</g>
</svg>