<?xml version="1.0" encoding="UTF-8" standalone="no"?>
<!-- Created with Inkscape (http://www.inkscape.org/) -->

<svg
   xmlns:dc="http://purl.org/dc/elements/1.1/"
   xmlns:cc="http://creativecommons.org/ns#"
   xmlns:rdf="http://www.w3.org/1999/02/22-rdf-syntax-ns#"
   xmlns:svg="http://www.w3.org/2000/svg"
   xmlns="http://www.w3.org/2000/svg"
   version="1.1"
   width="100"
   height="100"
   viewBox="0 0 100 100"
   id="Capa_1"
   xml:space="preserve"><metadata
   id="metadata27"><rdf:RDF><cc:Work
       rdf:about=""><dc:format>image/svg+xml</dc:format><dc:type
         rdf:resource="http://purl.org/dc/dcmitype/StillImage" /><dc:title></dc:title></cc:Work></rdf:RDF></metadata><defs
   id="defs25" />
<g
   transform="matrix(0.82813929,0,0,0.82813929,-39.439458,-10.454583)"
   id="g3">
	<path
   d="m 50.643,130.357 h 52.143 V 78.214 H 50.643 v 52.143 z M 61.071,88.643 h 31.286 v 31.205 H 61.071 V 88.643 z"
   id="path5" />
	<rect
   width="10.428"
   height="10.429"
   x="71.5"
   y="99.070999"
   id="rect7" />
	<rect
   width="10.43"
   height="10.429"
   x="134.07001"
   y="119.929"
   id="rect9" />
	<rect
   width="10.431"
   height="10.429"
   x="154.927"
   y="119.929"
   id="rect11" />
	<polygon
   points="165.357,78.214 165.357,78.213 154.928,78.213 154.928,88.643 144.5,88.643 144.5,78.213 113.213,78.213 113.213,130.357 123.643,130.357 123.643,99.071 134.07,99.071 134.07,109.5 165.357,109.5 "
   id="polygon13" />
	<path
   d="m 50.643,67.787 h 52.143 V 15.643 H 50.643 V 67.787 z M 61.071,26.071 H 92.357 V 57.357 H 61.071 V 26.071 z"
   id="path15" />
	<rect
   width="10.428"
   height="10.429"
   x="71.5"
   y="36.5"
   id="rect17" />
	<path
   d="m 113.213,15.643 v 52.144 h 52.145 V 15.643 h -52.145 z m 41.715,41.714 H 123.643 V 26.071 h 31.285 v 31.286 z"
   id="path19" />
	<rect
   width="10.43"
   height="10.429"
   x="134.07001"
   y="36.5"
   id="rect21" />
</g>
</svg>