<?xml version="1.0" encoding="UTF-8" standalone="no"?>
<!-- Created with Inkscape (http://www.inkscape.org/) -->

<svg
   xmlns:dc="http://purl.org/dc/elements/1.1/"
   xmlns:cc="http://creativecommons.org/ns#"
   xmlns:rdf="http://www.w3.org/1999/02/22-rdf-syntax-ns#"
   xmlns:svg="http://www.w3.org/2000/svg"
   xmlns="http://www.w3.org/2000/svg"
   version="1.1"
   width="48"
   height="48"
   id="svg4252">
  <defs
     id="defs4254">
    <clipPath
       id="clipPath152">
      <path
         d="m 421.92,64.881 141.379,0 0,-29.24 -141.379,0 0,29.24 z"
         id="path154" />
    </clipPath>
  </defs>
  <metadata
     id="metadata4257">
    <rdf:RDF>
      <cc:Work
         rdf:about="">
        <dc:format>image/svg+xml</dc:format>
        <dc:type
           rdf:resource="http://purl.org/dc/dcmitype/StillImage" />
        <dc:title></dc:title>
      </cc:Work>
    </rdf:RDF>
  </metadata>
  <g
     transform="matrix(0.57704246,0,0,0.57704246,-98.824391,-4.1562701)"
     id="g3163"
     style="fill:#ffffff">
    <path
       d="m 229.25497,62.74134 c -3.76942,-2.0671 -3.84634,-4.9382 -3.64534,-5.9929 0.19604,-1.072 0.93801,-0.603 1.40702,-0.603 2.47655,0 5.08213,-0.737 8.29569,-4.015 3.62301,-3.6975 4.75706,-11.9163 -0.80153,-17.2664 -6.00526,-5.77698 -12.39019,-4.767 -16.49709,0.4218 -0.8462,1.0621 -2.90089,1.8463 -4.6851,1.7818 -2.63288,-0.1018 -0.97523,1.9777 -0.97523,2.4095 0,0.4392 -0.39953,0.7395 -0.63527,0.6725 -0.89334,-0.2581 -0.53353,1.072 -0.53353,1.474 0,0.3971 -0.36478,0.603 -0.5633,0.603 -1.11916,0 -0.81642,1.0001 -0.77671,1.2706 0.0298,0.268 -0.0645,0.7295 -0.43675,0.9355 -0.34989,0.196 -0.76679,1.072 -0.76679,1.7371 0,1.206 1.10676,2.0447 2.94308,3.4195 1.8388,1.3698 2.07206,2.6726 2.10928,3.6155 0.0323,0.9331 0.11663,2.4419 0.53601,3.4444 0.50127,1.2035 0.43427,3.4121 -2.10929,3.5113 -3.10437,0.1266 -8.63318,2.6131 -9.0997,2.7793 -1.75691,0.6254 -4.0672,0.8487 -5.88367,0.3896 -0.97523,-0.6849 -1.9058,-1.4368 -2.78426,-2.2433 -0.35982,-1.2507 0.26801,-2.5956 0.90576,-3.5014 1.03479,1.0398 2.57332,0.9703 3.44185,1.0075 0.86853,0.032 5.12185,-0.6402 5.72485,-0.8412 0.60301,-0.2035 0.87101,-0.134 1.24324,0 1.61547,0.5906 3.84386,0.7668 4.74714,-2.3426 0.90078,-3.1118 -1.23828,-2.2408 -1.50876,-2.1068 -0.26553,0.134 -0.63279,0.099 -0.49879,-0.1662 0.39208,-0.7916 -0.201,-0.7048 -0.536,-0.737 -0.86109,-0.087 -2.01003,0.8337 -2.37729,1.1712 -0.37223,0.3375 -0.72957,0.3028 -0.86605,0.2333 -1.15887,-0.5732 -4.5908,0.2556 -5.65537,-1.608 0.0968,-0.5013 -0.87597,-8.0625 -1.37476,-9.3727 -0.10918,-0.273 -0.20596,-0.732 0.134,-1.2333 0.8735,-1.3103 3.27312,0.1017 4.58336,0.069 1.56335,-0.042 1.81647,-0.6949 2.2408,-1.2234 0.41442,-0.5137 0.71964,-0.2258 0.93802,-0.3673 0.28537,-0.1861 0.0174,-0.5534 0.11663,-0.7519 0.10174,-0.2035 0.21837,-0.1042 0.48389,-0.3375 0.27297,-0.2332 -0.0347,-0.7345 0.10423,-0.9355 0.38215,-0.5832 1.43431,-0.1166 0.80152,-1.6403 -0.34741,-0.8362 0.13401,-1.742 0.60549,-2.345 0.75935,-0.9752 3.68009,-5.09207 -1.47153,-9.3702 -4.92829,-4.07712 -9.90868,-3.74956 -13.12224,-0.26552 -3.2086,3.48156 -1.60554,8.56622 -1.26806,9.90372 0.33253,1.34 -0.6303,2.556 -1.7445,3.0796 -0.87845,0.4144 -2.88104,1.7544 -4.39476,3.0721 0.23575,-10.92365 6.86387,-20.52214 17.02566,-24.61416 0.43426,0.54594 0.91816,1.05713 1.43431,1.53606 -1.12164,0.82634 -3.59571,3.03737 -3.59571,3.03737 0,0 0.33997,0.0496 0.65264,0.12656 0.21589,0.0521 0.67745,0.19604 0.67745,0.19604 0,0 2.17381,-1.85617 3.19619,-2.5907 0.79905,0.60301 1.66262,1.10924 2.58574,1.51372 -0.49134,0.83627 -1.73458,3.16889 -1.73458,3.16889 0,0 0.2953,0.16626 0.54842,0.33749 0.25063,0.1737 0.41441,0.3226 0.41441,0.3226 0,0 1.35242,-2.54852 1.86361,-3.40216 1.13654,0.38464 2.32518,0.60053 3.52871,0.66257 0,0.33004 0,4.27812 0,4.66028 -0.67249,-0.0174 -2.38473,-0.0869 -3.07955,-0.15882 l -0.43675,-0.0422 0.24319,0.36479 c 0.18859,0.268 0.32756,0.53104 0.45163,0.77919 l 0.0521,0.10422 0.11415,0.005 c 0.50622,0.0447 2.0671,0.0993 2.65521,0.11167 0,0.37719 0,8.49919 0,8.49919 l 1.17624,0 c 0,0 0,-1.6329 0,-1.948 1.72713,-0.082 3.17137,-0.201 4.90595,-0.34989 l 0.0695,-0.005 1.52862,-1.35738 -0.83131,0.0769 c -1.83632,0.23823 -3.44434,0.34741 -4.91588,0.4293 0,0 -0.49878,0.0273 -0.75686,0.0447 0,-0.3896 0,-5.03995 0,-5.38984 2.13162,-0.0471 4.27069,-0.34493 6.36012,-0.89583 0.57075,1.40702 1.64276,4.80669 1.64276,4.80669 l 1.10924,-0.34741 c 0,0 -1.06705,-3.37734 -1.63532,-4.78188 1.7718,-0.54593 3.47164,-1.27301 5.09455,-2.16388 1.29783,1.60306 2.42443,3.35253 3.35252,5.21118 -0.83627,0.3896 -2.36736,0.93057 -2.36736,0.93057 1.22586,0.12904 2.15891,0.42186 2.15891,0.42186 0,0 0.42434,-0.18612 0.70475,-0.30771 0.10671,0.2407 0.3226,0.73949 0.3226,0.73949 l 1.52117,0.67745 -0.17123,-0.42682 c 0,0 -0.50871,-1.20601 -0.6303,-1.48891 1.61794,-0.79408 3.20611,-1.70976 4.72976,-2.73462 2.89593,4.42205 4.42206,9.55883 4.42206,14.86423 0,8.8193 -4.21609,16.6683 -10.73751,21.6413 z M 209.82473,14.08136 c -1.6651,0.73204 -3.2756,1.61298 -4.78436,2.63288 -0.45908,-0.402 -0.87101,-0.83379 -1.25068,-1.28046 1.93806,-0.67993 3.96794,-1.13157 6.03504,-1.35242 z m -1.63284,4.60569 c -0.76927,-0.32508 -1.49387,-0.73701 -2.17629,-1.21843 1.52862,-1.01494 3.17386,-1.8785 4.89603,-2.58077 -0.97524,1.21346 -1.88595,2.48151 -2.71974,3.7992 z m 4.01012,-3.56098 c 0,0.8859 0,4.10443 0,4.47417 -0.98516,-0.0471 -1.95046,-0.22333 -2.89592,-0.51119 0.87597,-1.36483 1.84376,-2.68748 2.89592,-3.96298 z m 1.17624,5.64545 c 1.21594,-0.0521 2.41451,-0.27545 3.57338,-0.66257 0.8586,1.44424 1.63532,2.95548 2.31773,4.51139 -1.92565,0.49382 -3.9059,0.77175 -5.89111,0.81642 0,-0.37967 0,-4.32776 0,-4.66524 z m 0,-5.69756 c 1.03976,1.26309 2.02243,2.60063 2.92819,4.01509 -0.95539,0.29034 -1.93558,0.46652 -2.92819,0.51367 0,-0.36726 0,-3.64038 0,-4.52876 z m 6.23356,2.39466 c -0.68738,0.4839 -1.41446,0.89583 -2.18125,1.21843 -0.82138,-1.30032 -1.73954,-2.57333 -2.73463,-3.80913 1.71969,0.70475 3.3699,1.5708 4.91588,2.5907 z m 2.21599,-2.02491 c -0.38463,0.4566 -0.80897,0.88093 -1.2482,1.27798 -1.50628,-1.02239 -3.09941,-1.90332 -4.75954,-2.63041 2.0671,0.22582 4.07464,0.67249 6.00774,1.35243 z m 3.35501,6.86634 c -1.52613,0.82387 -3.13167,1.49139 -4.77691,1.99514 -0.68986,-1.57824 -1.48395,-3.13415 -2.3624,-4.62058 0.90575,-0.40448 1.77924,-0.91071 2.58077,-1.51372 1.66509,1.2085 3.19619,2.60311 4.55854,4.13916 z m -2.2011,-6.43456 c 2.2681,0.9132 4.39972,2.14155 6.35267,3.64534 -0.97524,0.80153 -2.02492,1.5435 -3.12671,2.20607 -1.38964,-1.5981 -2.953,-3.04978 -4.66276,-4.32032 0.52112,-0.47148 0.99757,-0.98267 1.4368,-1.53109 z m 11.93607,9.40493 c -1.45665,0.97276 -2.9927,1.86114 -4.57591,2.64033 -0.9256,-1.87602 -2.0671,-3.65278 -3.38478,-5.29554 1.16879,-0.70724 2.27555,-1.50132 3.30537,-2.36489 1.75692,1.47402 3.32275,3.16393 4.65532,5.0201 z M 212.79261,12.75127 c -15.63601,0 -28.34383,12.71527 -28.34383,28.34877 0,15.6311 12.70782,28.3513 28.34383,28.3513 15.63105,0 28.35377,-12.7202 28.35377,-28.3513 0,-15.6335 -12.72272,-28.34877 -28.35377,-28.34877"
       id="path94"
       style="fill:#ffffff;fill-opacity:1;fill-rule:nonzero;stroke:none" />
    <path
       d="m 181.88041,20.28514 -0.44667,0.3896 c -1.66013,1.4765 -5.45933,5.36006 -4.87369,9.62579 0.002,0.01 0.0571,0.29778 0.0571,0.29778 0,0.007 0.18363,0.84371 0.18363,0.84371 l 0.53353,-0.48638 c 2.33014,-2.12913 4.0672,-5.73477 4.78684,-9.89627 l 0.19852,-1.17127 -0.43923,0.39704"
       id="path98"
       style="fill:#ffffff;fill-opacity:1;fill-rule:nonzero;stroke:none" />
    <path
       d="m 174.15794,27.65027 -0.18611,0.51367 c -0.26304,0.7122 -0.74198,2.20855 -1.00005,4.2012 -0.35734,2.8116 -0.2829,6.7869 2.16636,9.7648 -0.002,0 0.27545,0.3523 0.27545,0.3523 l 0.27544,0.3574 0.3623,-1.8091 c 0.40697,-3.1912 -0.12159,-9.88382 -1.30031,-12.879 l -0.39952,-1.01494 -0.19356,0.51367"
       id="path102"
       style="fill:#ffffff;fill-opacity:1;fill-rule:nonzero;stroke:none" />
    <path
       d="m 171.34391,39.16444 -0.0298,0.5236 c -0.21341,2.8711 -0.062,9.9385 5.6653,13.6905 0.002,0 0.67249,0.4417 0.67249,0.4417 l -0.0273,-0.809 c -0.0993,-2.68 -3.22597,-10.6903 -5.57844,-13.5589 l -0.66753,-0.809 -0.0347,0.5211"
       id="path106"
       style="fill:#ffffff;fill-opacity:1;fill-rule:nonzero;stroke:none" />
    <path
       d="m 172.32659,51.82024 0.10422,0.4814 c 0.83379,4.0622 4.69254,10.6407 10.63825,12.554 l 0.80897,0.2655 -0.29034,-0.8065 c -1.11171,-3.0374 -6.84153,-10.1196 -10.52905,-12.4522 l -0.82883,-0.5261 0.0968,0.4839"
       id="path110"
       style="fill:#ffffff;fill-opacity:1;fill-rule:nonzero;stroke:none" />
    <path
       d="m 184.285,26.40703 -0.47645,0.28289 c -4.42454,2.70485 -6.50156,5.97797 -6.34275,10.02032 0,0 0.0372,0.9232 0.0372,0.9232 l 0.65015,-0.5385 c 2.39466,-1.9803 5.39233,-7.05249 6.27575,-9.92609 0.002,0 0.32011,-1.04719 0.32011,-1.04719 l -0.46404,0.28537"
       id="path114"
       style="fill:#ffffff;fill-opacity:1;fill-rule:nonzero;stroke:none" />
    <path
       d="m 181.67445,35.25364 -0.335,0.3152 c -1.13157,1.0844 -4.80421,4.9928 -4.4841,9.8243 0.0447,0.737 0.21838,1.5311 0.50623,2.3648 l 0.25808,0.7693 0.47397,-0.6601 c 1.75691,-2.4691 4.07712,-8.9806 3.95553,-12.0105 l -0.0347,-0.9182 -0.33997,0.3152"
       id="path118"
       style="fill:#ffffff;fill-opacity:1;fill-rule:nonzero;stroke:none" />
    <path
       d="m 181.86304,43.63864 -0.24567,0.3673 c -1.85121,2.7495 -2.79418,5.571 -2.73463,8.1666 0.0546,1.9232 0.66009,3.7645 1.82143,5.4718 l 0.3896,0.5732 0.3226,-0.608 c 0.79904,-1.5013 1.43679,-6.375 1.34001,-10.2337 -0.0273,-1.3599 -0.16874,-2.4865 -0.39456,-3.2533 l -0.24318,-0.8536 -0.2556,0.3697"
       id="path122"
       style="fill:#ffffff;fill-opacity:1;fill-rule:nonzero;stroke:none" />
    <path
       d="m 184.01203,52.60434 -0.11415,0.3822 c -0.55834,1.7866 -0.8189,3.5311 -0.77175,5.1838 0.10422,3.7471 1.76187,6.6778 4.93573,8.7101 l 0.53601,0.3375 0.11911,-0.7196 c 0,-0.012 0.0422,-0.5782 0.0422,-0.5782 -0.0868,-3.0423 -2.35743,-10.7177 -4.13668,-13.0577 l -0.48141,-0.6477 -0.12904,0.3896"
       id="path126"
       style="fill:#ffffff;fill-opacity:1;fill-rule:nonzero;stroke:none" />
    <path
       d="m 178.3244,64.42624 0,0 z m -0.55338,0.062 0.23078,0.3847 c 2.38226,3.9977 6.43457,9.1568 13.99822,7.8341 l 0.64023,-0.1067 -0.3623,-0.536 c -1.41198,-2.1043 -10.60351,-7.2882 -13.85181,-7.8168 l -0.89086,-0.1464 0.23574,0.3871"
       id="path130"
       style="fill:#ffffff;fill-opacity:1;fill-rule:nonzero;stroke:none" />
    <path
       d="m 188.97009,74.63774 -1.18864,0.3251 1.14149,0.469 c 4.81414,1.9703 10.84669,2.551 14.34563,1.3723 1.31272,-0.4467 2.11673,-1.1639 3.08948,-2.1193 6.15663,0.6378 11.93111,5.7621 15.29604,9.9435 l 0.17371,0.2084 0.26304,-0.087 c 0.37223,-0.1266 0.96035,-0.5782 1.20105,-0.8363 l 0.24567,-0.2606 -0.21837,-0.2804 c -3.50638,-4.5858 -8.99548,-7.4247 -9.24364,-7.5413 -4.93821,-2.417 -13.6632,-4.2905 -25.10546,-1.1936"
       id="path134"
       style="fill:#ffffff;fill-opacity:1;fill-rule:nonzero;stroke:none" />
    <path
       d="m 189.22321,61.83804 0.0695,0.4119 c 0.71964,4.5263 2.56092,10.4795 10.22383,9.8219 l 0.48886,-0.042 -0.11911,-0.4765 c -0.5236,-2.0621 -7.54132,-8.0525 -9.98809,-9.7424 l -0.73453,-0.3797 0.0596,0.407"
       id="path138"
       style="fill:#ffffff;fill-opacity:1;fill-rule:nonzero;stroke:none" />
    <path
       d="m 243.3847,19.8881 0.19356,1.17127 c 0.71467,4.1615 2.45918,7.76714 4.78435,9.89628 l 0.52857,0.48637 c 0,0 0.19604,-0.83627 0.19604,-0.84371 0,0 0.0521,-0.28786 0.0546,-0.29778 0.58564,-4.26572 -3.21852,-8.14929 -4.87369,-9.62579 l -0.44171,-0.3896 -0.44171,-0.39704"
       id="path142"
       style="fill:#ffffff;fill-opacity:1;fill-rule:nonzero;stroke:none" />
    <path
       d="m 251.35284,27.13659 -0.39952,1.01494 c -1.17624,2.99518 -1.71225,9.68781 -1.3028,12.87901 l 0.35982,1.8091 0.28289,-0.3574 c 0,0 0.27545,-0.3573 0.27297,-0.3524 2.43685,-2.9778 2.5237,-6.9531 2.1614,-9.7647 -0.25312,-1.99266 -0.73453,-3.48901 -0.99261,-4.2012 l -0.19604,-0.51368 -0.18611,-0.51367"
       id="path146"
       style="fill:#ffffff;fill-opacity:1;fill-rule:nonzero;stroke:none" />
    <path
       d="m 254.32319,38.643368 -0.67249,0.808973 c -2.34255,2.868629 -5.47918,10.878952 -5.571,13.558986 l -0.0397,0.808973 0.68242,-0.44171 c 5.72236,-3.752047 5.87374,-10.819395 5.67025,-13.690505 l -0.0347,-0.523599 -0.0347,-0.521118"
       id="path158"
       style="fill:#ffffff;fill-opacity:1;fill-rule:nonzero;stroke:none" />
    <path
       d="m 253.47453,51.33634 -0.82883,0.5261 c -3.68504,2.3326 -9.41982,9.4148 -10.53154,12.4522 l -0.30026,0.8065 0.8189,-0.2655 c 5.94819,-1.9133 9.8119,-8.4918 10.63825,-12.554 l 0.10422,-0.4814 0.0993,-0.4839"
       id="path162"
       style="fill:#ffffff;fill-opacity:1;fill-rule:nonzero;stroke:none" />
    <path
       d="m 241.17616,25.98269 0.30274,1.05464 c 0.82387,2.89841 3.72227,8.02021 6.07723,10.05011 l 0.64023,0.546 0.0521,-0.9207 c 0.23823,-4.03493 -1.76932,-7.35271 -6.14174,-10.14193 l -0.46405,-0.29282 -0.46652,-0.2953"
       id="path166"
       style="fill:#ffffff;fill-opacity:1;fill-rule:nonzero;stroke:none" />
    <path
       d="m 243.68993,34.93844 -0.0422,0.9182 c -0.11415,3.0299 2.20607,9.5414 3.96546,12.0105 l 0.47149,0.6601 0.26056,-0.7693 c 0.28537,-0.8338 0.4566,-1.6279 0.50126,-2.3649 0.31764,-4.8315 -3.35748,-8.7399 -4.48905,-9.8243 l -0.32756,-0.3151 -0.33997,-0.3152"
       id="path170"
       style="fill:#ffffff;fill-opacity:1;fill-rule:nonzero;stroke:none" />
    <path
       d="m 243.58571,43.26894 -0.24567,0.8536 c -0.22334,0.7668 -0.36478,1.8934 -0.39456,3.2533 -0.0918,3.8588 0.54345,8.7324 1.3425,10.2338 l 0.32011,0.6079 0.3896,-0.5732 c 1.16383,-1.7073 1.76684,-3.5486 1.81895,-5.4717 0.067,-2.5957 -0.88342,-5.4172 -2.73215,-8.1667 l -0.24815,-0.3673 -0.25063,-0.3697"
       id="path174"
       style="fill:#ffffff;fill-opacity:1;fill-rule:nonzero;stroke:none" />
    <path
       d="m 241.56327,52.21474 -0.49382,0.6477 c -1.76684,2.34 -4.03742,10.0154 -4.12924,13.0577 0,0 0.0472,0.5658 0.0472,0.5782 l 0.11663,0.7196 0.53353,-0.3375 c 3.17385,-2.0323 4.8315,-4.963 4.94317,-8.7101 0.0397,-1.6527 -0.22085,-3.3972 -0.77919,-5.1838 l -0.11912,-0.3822 -0.11911,-0.3896"
       id="path178"
       style="fill:#ffffff;fill-opacity:1;fill-rule:nonzero;stroke:none" />
    <path
       d="m 247.37994,64.42624 0,0 z m 0.77919,-0.3251 -0.88341,0.1464 c -3.24582,0.5286 -12.44231,5.7125 -13.85181,7.8168 l -0.35982,0.536 0.63527,0.1067 c 7.56861,1.3227 11.61348,-3.8364 14.00318,-7.8341 l 0.23078,-0.3847 0.22581,-0.3871"
       id="path182"
       style="fill:#ffffff;fill-opacity:1;fill-rule:nonzero;stroke:none" />
    <path
       d="m 211.62879,75.83134 c -0.24567,0.1166 -5.73726,2.9555 -9.24612,7.5413 l -0.21837,0.2804 0.24815,0.2606 c 0.23575,0.2581 0.82635,0.7097 1.19857,0.8363 l 0.2556,0.087 0.18611,-0.2084 c 3.35997,-4.1814 9.12949,-9.3057 15.2886,-9.9435 0.97772,0.9554 1.76932,1.6726 3.087,2.1193 3.5039,1.1787 9.53398,0.598 14.35059,-1.3723 l 1.13902,-0.469 -1.18865,-0.3251 c -11.43977,-3.0969 -20.16229,-1.2234 -25.1005,1.1936"
       id="path186"
       style="fill:#ffffff;fill-opacity:1;fill-rule:nonzero;stroke:none" />
    <path
       d="m 236.53821,61.43114 -0.72956,0.3797 c -2.45174,1.6899 -9.47194,7.6803 -9.99306,9.7424 l -0.11911,0.4764 0.49134,0.042 c 7.65795,0.6576 9.50171,-5.2955 10.22135,-9.8218 l 0.067,-0.4119 0.062,-0.407"
       id="path190"
       style="fill:#ffffff;fill-opacity:1;fill-rule:nonzero;stroke:none" />
  </g>
</svg>
