<?xml version="1.0" encoding="UTF-8" standalone="no"?>
<!-- Created with Inkscape (http://www.inkscape.org/) -->

<svg
   xmlns:dc="http://purl.org/dc/elements/1.1/"
   xmlns:cc="http://creativecommons.org/ns#"
   xmlns:rdf="http://www.w3.org/1999/02/22-rdf-syntax-ns#"
   xmlns:svg="http://www.w3.org/2000/svg"
   xmlns="http://www.w3.org/2000/svg"
   version="1.1"
   width="100"
   height="100"
   viewBox="0 0 100 100"
   id="Capa_1"
   xml:space="preserve"><metadata
   id="metadata9"><rdf:RDF><cc:Work
       rdf:about=""><dc:format>image/svg+xml</dc:format><dc:type
         rdf:resource="http://purl.org/dc/dcmitype/StillImage" /><dc:title></dc:title></cc:Work></rdf:RDF></metadata><defs
   id="defs7" />
<path fill="#79a403"    d="M 91.13955,26.163269 C 86.89774,20.950632 81.13658,16.833098 73.85671,13.811317 66.576849,10.789536 58.624178,9.278646 50.000651,9.278646 c -6.432672,0 -12.582295,0.892089 -18.44887,2.676918 -5.866576,1.784829 -10.920445,4.196918 -15.16161,7.236267 C 12.148356,22.23118 8.773904,25.845084 6.264212,30.032893 3.754521,34.220701 2.5,38.612173 2.5,43.20666 c 0,5.30113 1.598733,10.268459 4.7975,14.898082 3.198767,4.629623 7.572021,8.517466 13.121062,11.662877 -0.38911,1.413287 -0.848494,2.756301 -1.378802,4.02839 -0.530308,1.272089 -1.00726,2.315788 -1.431507,3.128493 -0.424246,0.812706 -0.99815,1.713904 -1.723013,2.703596 -0.724213,0.989692 -1.272089,1.687877 -1.64298,2.093904 -0.37089,0.406678 -0.980582,1.078836 -1.829075,2.014521 -0.847843,0.936986 -1.395719,1.546678 -1.64298,1.829726 -0.03579,0.01692 -0.176986,0.176335 -0.424246,0.476952 -0.24726,0.299965 -0.370891,0.449623 -0.370891,0.449623 l -0.318184,0.476301 c -0.176987,0.26548 -0.25637,0.433357 -0.238802,0.50298 0.01757,0.06962 -0.01757,0.24726 -0.106061,0.529657 -0.08849,0.283048 -0.07938,0.495172 0.02668,0.637021 v 0.05271 c 0.141849,0.63637 0.450924,1.148459 0.927876,1.536918 0.476952,0.388459 1.01637,0.547877 1.616952,0.476302 2.297569,-0.283048 4.312089,-0.670206 6.043562,-1.165377 9.259897,-2.369144 17.388904,-6.644144 24.38637,-12.830206 2.65024,0.283048 5.212637,0.424247 7.686541,0.424247 8.623527,0 16.576199,-1.51089 23.85606,-4.533973 7.27986,-3.02113 13.04103,-7.138664 17.28219,-12.35065 C 95.37942,55.038064 97.5,49.356283 97.5,43.20666 97.5,37.057036 95.37942,31.375256 91.13955,26.163269 z"
   id="path3" />
</svg>