<?xml version="1.0" encoding="UTF-8" standalone="no"?>
<!-- Created with Inkscape (http://www.inkscape.org/) -->

<svg
   xmlns:dc="http://purl.org/dc/elements/1.1/"
   xmlns:cc="http://creativecommons.org/ns#"
   xmlns:rdf="http://www.w3.org/1999/02/22-rdf-syntax-ns#"
   xmlns:svg="http://www.w3.org/2000/svg"
   xmlns="http://www.w3.org/2000/svg"
   version="1.1"
   width="100"
   height="100"
   viewBox="0 0 100 100"
   id="Capa_1"
   xml:space="preserve"><metadata
   id="metadata9"><rdf:RDF><cc:Work
       rdf:about=""><dc:format>image/svg+xml</dc:format><dc:type
         rdf:resource="http://purl.org/dc/dcmitype/StillImage" /><dc:title></dc:title></cc:Work></rdf:RDF></metadata><defs
   id="defs7" />
<path fill="#a6d81d"    d="m 86.44591,34.519335 c -2.84412,-3.039328 -6.72283,-4.541099 -11.63612,-4.505962 -2.72244,-2.120567 -5.86783,-3.180526 -9.43616,-3.180526 -0.77757,0 -1.537562,0.0527 -2.279989,0.158766 -2.014507,-1.166019 -4.117506,-1.819953 -6.308347,-1.961151 v -8.959219 c 0,-3.710831 -1.341703,-6.900467 -4.028363,-9.5689074 C 50.070922,3.8345457 46.872177,2.5 43.161346,2.5 39.520789,2.5 36.357831,3.8430045 33.671822,6.5290135 30.985813,9.215673 29.642809,12.396199 29.642809,16.071893 v 19.826885 c -2.120568,-0.776912 -4.382333,-1.166019 -6.785947,-1.166019 -4.311409,0 -7.651352,1.440606 -10.019178,4.320518 -2.367826,2.880562 -3.551414,6.529579 -3.551414,10.947048 0,1.342354 0.309073,2.57149 0.92787,3.684153 0.618797,1.112664 1.493312,2.085431 2.624195,2.915699 1.130882,0.830269 2.244197,1.545367 3.339943,2.147246 1.095746,0.601229 2.367826,1.254512 3.816891,1.961151 1.449066,0.706639 2.544161,1.290299 3.286587,1.749029 1.943583,1.236293 4.222917,3.004192 6.838652,5.300443 0.106061,0.07157 0.406675,0.319484 0.901193,0.742427 0.495167,0.424894 0.875165,0.759994 1.139992,1.007904 0.264827,0.247909 0.644824,0.610338 1.139341,1.087287 0.494517,0.476298 0.892083,0.901192 1.192698,1.271429 0.299963,0.370888 0.618146,0.769755 0.953897,1.193348 0.335751,0.423593 0.58301,0.838727 0.742427,1.245403 0.159416,0.406675 0.238799,0.786672 0.238799,1.139992 v 15.268217 c 0,1.873309 0.662393,3.472031 1.987829,4.797467 C 39.74202,96.836957 41.341393,97.5 43.214702,97.5 H 77.14183 c 1.87331,0 3.47268,-0.663043 4.79812,-1.98848 1.32479,-1.324785 1.98848,-2.924158 1.98848,-4.797467 V 75.445836 c 0,-2.085431 1.04304,-6.025952 3.12847,-11.821563 2.43875,-6.679886 3.65683,-12.370737 3.65683,-17.069951 -6.5e-4,-4.983562 -1.42109,-8.995007 -4.26782,-12.034987 z M 76.13588,89.706149 c -0.67215,0.670852 -1.46728,1.007904 -2.38604,1.007904 -0.91877,0 -1.7139,-0.337052 -2.3854,-1.007904 -0.6715,-0.670851 -1.00725,-1.466634 -1.00725,-2.385394 0,-0.918761 0.33575,-1.714543 1.00725,-2.385395 0.6715,-0.671502 1.46663,-1.007904 2.3854,-1.007904 0.91876,0 1.71389,0.336402 2.38604,1.007904 0.67085,0.670852 1.0066,1.466634 1.0066,2.385395 0,0.91876 -0.33575,1.714543 -1.0066,2.385394 z M 82.23276,56.33535 c -1.13089,3.481141 -2.26242,6.900467 -3.3933,10.258629 -1.13088,3.35686 -1.69633,6.308347 -1.69633,8.851857 V 77.14216 H 43.215353 v -1.696324 c 0,-2.508373 -1.007254,-4.98226 -3.02176,-7.421011 -0.883625,-1.059958 -2.756934,-2.846076 -5.619277,-5.354449 -2.862343,-2.544161 -5.424723,-4.524182 -7.686488,-5.93746 -0.742427,-0.460031 -1.890878,-1.113314 -3.446004,-1.962452 -4.912638,-2.332039 -7.368957,-3.922302 -7.368957,-4.770789 0,-2.509024 0.538764,-4.550209 1.616941,-6.122904 1.077527,-1.572694 2.800529,-2.358716 5.168355,-2.358716 1.51999,0 3.013302,0.264827 4.479935,0.795131 1.466634,0.529654 2.668441,1.112664 3.60477,1.749029 0.936329,0.636366 1.908446,1.219376 2.915699,1.74968 1.007905,0.530305 1.864851,0.795132 2.57149,0.795132 V 16.071893 c 0,-1.766597 0.680611,-3.339292 2.041184,-4.718084 1.360573,-1.378141 2.941727,-2.067212 4.744762,-2.067212 1.838173,0 3.428436,0.671503 4.77144,2.014507 1.343005,1.343005 2.014507,2.933268 2.014507,4.77144 v 17.5469 c 0.601229,-0.530304 1.439956,-0.972116 2.518133,-1.325436 1.077527,-0.353319 2.058753,-0.530304 2.941727,-0.530304 2.43875,0 4.541099,0.936329 6.307696,2.809638 1.130883,-0.636366 2.350904,-0.954548 3.658124,-0.954548 1.30787,0 2.60663,0.309724 3.89628,0.92787 1.28965,0.618797 2.21752,1.458175 2.78296,2.518134 1.05996,-0.176335 2.04899,-0.264827 2.9684,-0.264827 5.90102,0 8.85316,3.339292 8.85316,10.019177 10e-4,2.862344 -0.56479,6.035062 -1.69567,9.516202 z"
   id="path3"  />
</svg>