<?xml version="1.0" encoding="UTF-8" standalone="no"?>
<!-- Created with Inkscape (http://www.inkscape.org/) -->

<svg
   xmlns:dc="http://purl.org/dc/elements/1.1/"
   xmlns:cc="http://creativecommons.org/ns#"
   xmlns:rdf="http://www.w3.org/1999/02/22-rdf-syntax-ns#"
   xmlns:svg="http://www.w3.org/2000/svg"
   xmlns="http://www.w3.org/2000/svg"
   version="1.1"
   width="100"
   height="100"
   viewBox="0 0 100 100"
   id="Capa_1"
   xml:space="preserve"><metadata
   id="metadata15"><rdf:RDF><cc:Work
       rdf:about=""><dc:format>image/svg+xml</dc:format><dc:type
         rdf:resource="http://purl.org/dc/dcmitype/StillImage" /><dc:title></dc:title></cc:Work></rdf:RDF></metadata><defs
   id="defs13" />
<g
   transform="matrix(0.65360826,0,0,0.65360826,-20.590019,2.286597)"
   id="g3">
	<path fill="#79a403"    d="m 148.412,89.048 c -1.087,-0.434 -2.038,-0.243 -2.852,0.57 l -5.215,5.215 c -0.488,0.488 -0.734,1.086 -0.734,1.792 v 10.266 c 0,3.586 -1.274,6.654 -3.827,9.207 -2.554,2.553 -5.622,3.829 -9.207,3.829 H 58.791 c -3.585,0 -6.654,-1.276 -9.207,-3.829 -2.553,-2.553 -3.829,-5.621 -3.829,-9.207 V 39.106 c 0,-3.585 1.276,-6.654 3.829,-9.207 2.553,-2.553 5.622,-3.829 9.207,-3.829 h 67.787 c 1.195,0 2.417,0.163 3.666,0.489 0.979,0.326 1.847,0.109 2.607,-0.652 l 3.991,-3.992 c 0.652,-0.651 0.896,-1.439 0.733,-2.362 -0.163,-0.869 -0.652,-1.494 -1.467,-1.874 -2.933,-1.356 -6.11,-2.037 -9.532,-2.037 H 58.791 c -6.463,0 -11.99,2.295 -16.58,6.885 -4.589,4.59 -6.884,10.116 -6.884,16.58 v 67.786 c 0,6.463 2.295,11.989 6.884,16.579 4.59,4.591 10.117,6.886 16.58,6.886 h 67.785 c 6.463,0 11.99,-2.295 16.58,-6.886 4.59,-4.59 6.885,-10.116 6.885,-16.579 v -15.48 c 0,-1.142 -0.544,-1.929 -1.629,-2.365 z"
   id="path5"  />
	<path fill="#79a403"    d="M 87.469,86.036 V 109.5 h 23.465 l 54.75,-54.75 -23.465,-23.464 -54.75,54.75 z m 20.205,15.643 0,0 -4.563,-0.001 v -7.82 H 95.29 v -4.562 l 9.451,-9.451 12.384,12.385 -9.451,9.449 z m 35.767,-55.973 -28.517,28.516 c -0.923,0.925 -1.819,0.951 -2.688,0.082 -0.869,-0.869 -0.842,-1.765 0.082,-2.688 L 140.834,43.1 c 0.923,-0.924 1.818,-0.951 2.688,-0.082 0.871,0.869 0.841,1.765 -0.081,2.688 z"
   id="path7"  />
	<path fill="#79a403"    d="M 178.393,30.96 166.01,18.576 c -1.521,-1.521 -3.367,-2.281 -5.541,-2.281 -2.172,0 -4.019,0.76 -5.539,2.281 l -7.496,7.495 23.465,23.465 7.494,-7.496 c 1.521,-1.52 2.281,-3.367 2.281,-5.54 0,-2.173 -0.76,-4.019 -2.281,-5.54 z"
   id="path9"  />
</g>
</svg>