<?xml version="1.0" encoding="UTF-8" standalone="no"?>
<!-- Created with Inkscape (http://www.inkscape.org/) -->

<svg
   xmlns:dc="http://purl.org/dc/elements/1.1/"
   xmlns:cc="http://creativecommons.org/ns#"
   xmlns:rdf="http://www.w3.org/1999/02/22-rdf-syntax-ns#"
   xmlns:svg="http://www.w3.org/2000/svg"
   xmlns="http://www.w3.org/2000/svg"
   version="1.1"
   width="48"
   height="48"
   viewBox="0 0 38.400002 38.399998"
   id="svg2985"
   style="fill-rule:evenodd">
  <metadata
     id="metadata2997">
    <rdf:RDF>
      <cc:Work
         rdf:about="">
        <dc:format>image/svg+xml</dc:format>
        <dc:type
           rdf:resource="http://purl.org/dc/dcmitype/StillImage" />
        <dc:title></dc:title>
      </cc:Work>
    </rdf:RDF>
  </metadata>
  <defs
     id="defs2995" />
  <g
     transform="matrix(1.2489836,0,0,1.2488201,-1391.9953,-111.00794)"
     id="g2987"
     style="fill:#000000">
    <g
       id="g2989"
       style="fill:#000000">
      <path
         d="m 1115.38,94.011 c -1.17,-1.1712 -1.17,-3.071 0,-4.2423 1.17,-1.1713 3.07,-1.1713 4.24,0 l 10.25,10.2533 10.26,-10.2533 c 1.17,-1.1713 3.07,-1.1713 4.24,0 1.17,1.1713 1.17,3.0711 0,4.2423 l -10.25,10.254 10.25,10.254 c 1.17,1.171 1.17,3.071 0,4.242 -1.17,1.171 -3.07,1.171 -4.24,0 l -10.26,-10.254 -10.25,10.254 c -1.17,1.171 -3.07,1.171 -4.24,0 -1.17,-1.171 -1.17,-3.071 0,-4.242 l 10.25,-10.254 -10.25,-10.254 z"
         id="path2991"
         style="fill:#000000;stroke:none" />
    </g>
  </g>
</svg>
