<?xml version="1.0" encoding="UTF-8" standalone="no"?>
<!-- Created with Inkscape (http://www.inkscape.org/) -->

<svg
   xmlns:dc="http://purl.org/dc/elements/1.1/"
   xmlns:cc="http://creativecommons.org/ns#"
   xmlns:rdf="http://www.w3.org/1999/02/22-rdf-syntax-ns#"
   xmlns:svg="http://www.w3.org/2000/svg"
   xmlns="http://www.w3.org/2000/svg"
   version="1.1"
   width="31"
   height="31"
   viewBox="0 0 30.999999 30.999999"
   id="Capa_1"
   xml:space="preserve"><metadata
   id="metadata53"><rdf:RDF><cc:Work
       rdf:about=""><dc:format>image/svg+xml</dc:format><dc:type
         rdf:resource="http://purl.org/dc/dcmitype/StillImage" /><dc:title></dc:title></cc:Work></rdf:RDF></metadata><defs
   id="defs51" />
<g
   transform="matrix(0.26408965,0,0,0.26408965,3.5264386,3.526628)"
   id="g3"
   style="fill:#ffffff">
	<g
   id="g5"
   style="fill:#ffffff">
		<path
   d="m 82.287,45.907 c -0.937,-4.071 -4.267,-7.074 -8.275,-7.521 -9.489,-1.06 -19.098,-1.065 -28.66,-1.06 -9.566,-0.005 -19.173,0 -28.665,1.06 -4.006,0.448 -7.334,3.451 -8.27,7.521 -1.334,5.797 -1.35,12.125 -1.35,18.094 0,5.969 0,12.296 1.334,18.093 0.936,4.07 4.264,7.073 8.272,7.521 9.49,1.061 19.097,1.065 28.662,1.061 9.566,0.005 19.171,0 28.664,-1.061 4.006,-0.448 7.336,-3.451 8.272,-7.521 1.333,-5.797 1.34,-12.124 1.34,-18.093 C 83.61,58.031 83.62,51.704 82.287,45.907 z M 28.9,50.4 H 23.36 V 79.838 H 18.214 V 50.4 H 12.775 V 45.578 H 28.9 V 50.4 z m 13.977,29.439 h -4.629 v -2.785 c -1.839,2.108 -3.585,3.136 -5.286,3.136 -1.491,0 -2.517,-0.604 -2.98,-1.897 -0.252,-0.772 -0.408,-1.994 -0.408,-3.796 V 54.311 h 4.625 v 18.795 c 0,1.084 0,1.647 0.042,1.799 0.111,0.718 0.462,1.082 1.082,1.082 0.928,0 1.898,-0.715 2.924,-2.166 v -19.51 h 4.629 l 0.001,25.528 0,0 z M 60.45,72.177 c 0,2.361 -0.159,4.062 -0.468,5.144 -0.618,1.899 -1.855,2.869 -3.695,2.869 -1.646,0 -3.234,-0.914 -4.781,-2.824 V 79.84 H 46.881 V 45.578 h 4.625 v 11.189 c 1.494,-1.839 3.08,-2.769 4.781,-2.769 1.84,0 3.078,0.969 3.695,2.88 0.311,1.027 0.468,2.715 0.468,5.132 v 10.167 z m 17.457,-4.259 h -9.251 v 4.525 c 0,2.363 0.773,3.543 2.363,3.543 1.139,0 1.802,-0.619 2.066,-1.855 0.043,-0.251 0.104,-1.279 0.104,-3.134 h 4.719 v 0.675 c 0,1.491 -0.057,2.518 -0.099,2.98 -0.155,1.024 -0.519,1.953 -1.08,2.771 -1.281,1.854 -3.179,2.768 -5.595,2.768 -2.42,0 -4.262,-0.871 -5.599,-2.614 -0.981,-1.278 -1.485,-3.29 -1.485,-6.003 v -8.941 c 0,-2.729 0.447,-4.725 1.43,-6.015 1.336,-1.747 3.177,-2.617 5.54,-2.617 2.321,0 4.161,0.87 5.457,2.617 0.969,1.29 1.432,3.286 1.432,6.015 v 5.285 h -0.002 z"
   id="path7"
   style="fill:#ffffff" />
		<path
   d="m 70.978,58.163 c -1.546,0 -2.321,1.181 -2.321,3.541 v 2.362 h 4.625 v -2.362 c -10e-4,-2.36 -0.774,-3.541 -2.304,-3.541 z"
   id="path9"
   style="fill:#ffffff" />
		<path
   d="m 53.812,58.163 c -0.762,0 -1.534,0.36 -2.307,1.125 v 15.559 c 0.772,0.774 1.545,1.14 2.307,1.14 1.334,0 2.012,-1.14 2.012,-3.445 V 61.646 c 0,-2.302 -0.678,-3.483 -2.012,-3.483 z"
   id="path11"
   style="fill:#ffffff" />
		<path
   d="m 56.396,34.973 c 1.705,0 3.479,-1.036 5.34,-3.168 v 2.814 h 4.675 V 8.82 h -4.675 v 19.718 c -1.036,1.464 -2.018,2.188 -2.953,2.188 -0.626,0 -0.994,-0.37 -1.096,-1.095 C 57.63,29.478 57.63,28.909 57.63,27.814 V 8.82 h -4.66 v 20.4 c 0,1.822 0.156,3.055 0.414,3.836 0.47,1.307 1.507,1.917 3.012,1.917 z"
   id="path13"
   style="fill:#ffffff" />
		<path
   d="m 23.851,20.598 v 14.021 h 5.184 V 20.598 L 35.271,0 H 30.029 L 26.492,13.595 22.812,0 h -5.455 c 1.093,3.209 2.23,6.434 3.323,9.646 1.663,4.828 2.701,8.468 3.171,10.952 z"
   id="path15"
   style="fill:#ffffff" />
		<path
   d="m 42.219,34.973 c 2.342,0 4.162,-0.881 5.453,-2.641 0.981,-1.291 1.451,-3.325 1.451,-6.067 v -9.034 c 0,-2.758 -0.469,-4.774 -1.451,-6.077 -1.291,-1.765 -3.11,-2.646 -5.453,-2.646 -2.33,0 -4.149,0.881 -5.443,2.646 -0.993,1.303 -1.463,3.319 -1.463,6.077 v 9.034 c 0,2.742 0.47,4.776 1.463,6.067 1.293,1.76 3.113,2.641 5.443,2.641 z M 39.988,16.294 c 0,-2.387 0.724,-3.577 2.231,-3.577 1.507,0 2.229,1.189 2.229,3.577 v 10.852 c 0,2.387 -0.722,3.581 -2.229,3.581 -1.507,0 -2.231,-1.194 -2.231,-3.581 V 16.294 z"
   id="path17"
   style="fill:#ffffff" />
	</g>
</g>
<g
   transform="translate(-7.067,-59.676567)"
   id="g19">
</g>
<g
   transform="translate(-7.067,-59.676567)"
   id="g21">
</g>
<g
   transform="translate(-7.067,-59.676567)"
   id="g23">
</g>
<g
   transform="translate(-7.067,-59.676567)"
   id="g25">
</g>
<g
   transform="translate(-7.067,-59.676567)"
   id="g27">
</g>
<g
   transform="translate(-7.067,-59.676567)"
   id="g29">
</g>
<g
   transform="translate(-7.067,-59.676567)"
   id="g31">
</g>
<g
   transform="translate(-7.067,-59.676567)"
   id="g33">
</g>
<g
   transform="translate(-7.067,-59.676567)"
   id="g35">
</g>
<g
   transform="translate(-7.067,-59.676567)"
   id="g37">
</g>
<g
   transform="translate(-7.067,-59.676567)"
   id="g39">
</g>
<g
   transform="translate(-7.067,-59.676567)"
   id="g41">
</g>
<g
   transform="translate(-7.067,-59.676567)"
   id="g43">
</g>
<g
   transform="translate(-7.067,-59.676567)"
   id="g45">
</g>
<g
   transform="translate(-7.067,-59.676567)"
   id="g47">
</g>
</svg>