<?xml version="1.0" encoding="UTF-8" standalone="no"?>
<!-- Created with Inkscape (http://www.inkscape.org/) -->

<svg
   xmlns:dc="http://purl.org/dc/elements/1.1/"
   xmlns:cc="http://creativecommons.org/ns#"
   xmlns:rdf="http://www.w3.org/1999/02/22-rdf-syntax-ns#"
   xmlns:svg="http://www.w3.org/2000/svg"
   xmlns="http://www.w3.org/2000/svg"
   xmlns:sodipodi="http://sodipodi.sourceforge.net/DTD/sodipodi-0.dtd"
   xmlns:inkscape="http://www.inkscape.org/namespaces/inkscape"
   width="23"
   height="18.879999"
   id="svg4527"
   version="1.1"
   inkscape:version="0.48.4 r9939"
   sodipodi:docname="hint.svg"
   inkscape:export-filename="C:\Users\Witold\Documents\IT\e-books\geogebra\grafiki_szablony\againNew.png"
   inkscape:export-xdpi="128"
   inkscape:export-ydpi="128">
  <defs
     id="defs4529" />
  <sodipodi:namedview
     id="base"
     pagecolor="#ffffff"
     bordercolor="#666666"
     borderopacity="1.0"
     inkscape:pageopacity="0.0"
     inkscape:pageshadow="2"
     inkscape:zoom="7.9999996"
     inkscape:cx="14.949516"
     inkscape:cy="-4.8685026"
     inkscape:document-units="px"
     inkscape:current-layer="layer1"
     showgrid="false"
     fit-margin-top="0"
     fit-margin-left="0"
     fit-margin-right="0"
     fit-margin-bottom="0"
     inkscape:showpageshadow="false"
     showborder="true"
     inkscape:window-width="1366"
     inkscape:window-height="746"
     inkscape:window-x="-8"
     inkscape:window-y="-8"
     inkscape:window-maximized="1" />
  <metadata
     id="metadata4532">
    <rdf:RDF>
      <cc:Work
         rdf:about="">
        <dc:format>image/svg+xml</dc:format>
        <dc:type
           rdf:resource="http://purl.org/dc/dcmitype/StillImage" />
        <dc:title />
      </cc:Work>
    </rdf:RDF>
  </metadata>
  <g
     inkscape:label="Layer 1"
     inkscape:groupmode="layer"
     id="layer1"
     transform="translate(-160.21875,-149.02625)">
    <g
       transform="matrix(0.96107299,0,0,1.0405037,0.04419418,-0.79549516)"
       style="font-size:19.85822105px;font-style:normal;font-variant:normal;font-weight:900;font-stretch:normal;text-align:start;line-height:125%;letter-spacing:0px;word-spacing:0px;writing-mode:lr-tb;text-anchor:start;fill:#0096ff;fill-opacity:1;stroke:#0069b2;stroke-width:0.99999994;stroke-miterlimit:4;stroke-opacity:1;font-family:Arial Black;-inkscape-font-specification:'Arial Black, Heavy'"
       id="text4005"
       inkscape:export-filename="C:\Users\Witold\Documents\IT\e-books\geogebra\grafiki_szablony\pcss\hint.png"
       inkscape:export-xdpi="125.64655"
       inkscape:export-ydpi="125.64655">
      <path
         d="m 176.57353,154.51718 -3.68463,0 0,-0.36846 c 0,-0.62703 0.0711,-1.13609 0.21332,-1.52718 0.14221,-0.39109 0.35392,-0.74824 0.63512,-1.07146 0.28119,-0.3232 0.91307,-0.89206 1.89564,-1.70656 0.5236,-0.42663 0.7854,-0.81772 0.78541,-1.17327 -10e-6,-0.35552 -0.10505,-0.63187 -0.31513,-0.82904 -0.2101,-0.19715 -0.52846,-0.29573 -0.9551,-0.29574 -0.45897,1e-5 -0.83874,0.15192 -1.13932,0.45573 -0.3006,0.30383 -0.49291,0.8339 -0.57694,1.59021 l -3.7622,-0.46543 c 0.12928,-1.38334 0.63188,-2.49681 1.50779,-3.3404 0.8759,-0.84358 2.21885,-1.26537 4.02885,-1.26538 1.4092,1e-5 2.54691,0.29413 3.41313,0.88237 1.17649,0.79512 1.76473,1.85525 1.76475,3.18042 -2e-5,0.54947 -0.15193,1.07954 -0.45573,1.59021 -0.30384,0.51068 -0.9244,1.13448 -1.86171,1.8714 -0.6529,0.51715 -1.065,0.93248 -1.23629,1.24599 -0.17131,0.31352 -0.25697,0.72238 -0.25696,1.22659 z m -3.81068,1.65892 3.99241,0 -0.046,3.01379 -3.94643,0 z"
         style="line-height:125%;fill:#0096ff;stroke:#0069b2;font-family:Arial Black;-inkscape-font-specification:'Arial Black, Heavy'"
         id="path6312"
         inkscape:connector-curvature="0"
         sodipodi:nodetypes="ccsccccccsccscccccccccccc" />
    </g>
    <path
       style="fill:none;stroke:#0069b2;stroke-width:1.5;stroke-linecap:butt;stroke-linejoin:miter;stroke-opacity:1;stroke-miterlimit:4;stroke-dasharray:none"
       d="m 15.644738,1.2907172 4.772971,0 0,16.7937868 -10.076272,0"
       id="path6309"
       inkscape:connector-curvature="0"
       transform="translate(160.21875,149.02625)"
       sodipodi:nodetypes="cccc"
       inkscape:export-xdpi="125.64655"
       inkscape:export-ydpi="125.64655"
       inkscape:export-filename="C:\Users\Witold\Documents\IT\e-books\geogebra\grafiki_szablony\pcss\hint.png" />
  </g>
</svg>
