<?xml version="1.0" encoding="UTF-8" standalone="no"?>
<!-- Created with Inkscape (http://www.inkscape.org/) -->

<svg
   xmlns:dc="http://purl.org/dc/elements/1.1/"
   xmlns:cc="http://creativecommons.org/ns#"
   xmlns:rdf="http://www.w3.org/1999/02/22-rdf-syntax-ns#"
   xmlns:svg="http://www.w3.org/2000/svg"
   xmlns="http://www.w3.org/2000/svg"
   xmlns:sodipodi="http://sodipodi.sourceforge.net/DTD/sodipodi-0.dtd"
   xmlns:inkscape="http://www.inkscape.org/namespaces/inkscape"
   width="26"
   height="18.875"
   id="svg3982"
   version="1.1"
   inkscape:version="0.48.4 r9939"
   sodipodi:docname="new.svg"
   inkscape:export-filename="C:\Users\Witold\Documents\IT\e-books\geogebra\grafiki_szablony\new4.png"
   inkscape:export-xdpi="128"
   inkscape:export-ydpi="128">
  <defs
     id="defs3984" />
  <sodipodi:namedview
     id="base"
     pagecolor="#ffffff"
     bordercolor="#666666"
     borderopacity="1.0"
     inkscape:pageopacity="0.0"
     inkscape:pageshadow="2"
     inkscape:zoom="2.8"
     inkscape:cx="18.887364"
     inkscape:cy="9.6212306"
     inkscape:document-units="px"
     inkscape:current-layer="layer1"
     showgrid="false"
     fit-margin-top="0"
     fit-margin-left="0"
     fit-margin-right="0"
     fit-margin-bottom="0"
     showborder="true"
     inkscape:showpageshadow="false"
     inkscape:window-width="1366"
     inkscape:window-height="746"
     inkscape:window-x="-8"
     inkscape:window-y="-8"
     inkscape:window-maximized="1" />
  <metadata
     id="metadata3987">
    <rdf:RDF>
      <cc:Work
         rdf:about="">
        <dc:format>image/svg+xml</dc:format>
        <dc:type
           rdf:resource="http://purl.org/dc/dcmitype/StillImage" />
        <dc:title></dc:title>
      </cc:Work>
    </rdf:RDF>
  </metadata>
  <g
     inkscape:label="Layer 1"
     inkscape:groupmode="layer"
     id="layer1"
     transform="translate(-123.46875,-140.0625)">
    <path
       style="color:#000000;fill:#0096ff;fill-opacity:1;fill-rule:nonzero;stroke:#0069b2;stroke-width:1.06664311999999990;stroke-linecap:square;stroke-linejoin:miter;stroke-miterlimit:4;stroke-opacity:1;stroke-dasharray:none;stroke-dashoffset:0;marker:none;visibility:visible;display:inline;overflow:visible;enable-background:accumulate"
       d="m 162.1099,153.45423 c -4.59183,0 -8.32433,3.7325 -8.32433,8.32433 0,4.59184 3.7325,8.32433 8.32433,8.32433 2.26855,0 4.31737,-0.92295 5.81998,-2.39853 l -2.99817,-2.99817 c -0.73659,0.70942 -1.72386,1.16399 -2.82181,1.16399 -2.2516,0 -4.09162,-1.84002 -4.09162,-4.09162 0,-2.25159 1.84002,-4.05635 4.09162,-4.05635 0.85783,0 1.63276,0.28756 2.29272,0.74073 l -1.90472,1.65781 8.18324,1.69309 -0.6349,-8.28906 -2.39854,2.08108 c -1.47249,-1.32405 -3.40493,-2.15163 -5.5378,-2.15163 z"
       id="path3765"
       inkscape:connector-curvature="0" />
    <path
       style="color:#000000;fill:#0096ff;fill-opacity:1;fill-rule:nonzero;stroke:#0069b2;stroke-width:0.85199338;stroke-linecap:round;stroke-linejoin:miter;stroke-miterlimit:4;stroke-opacity:1;stroke-dasharray:none;stroke-dashoffset:0;marker:none;visibility:visible;display:inline;overflow:visible;enable-background:accumulate"
       d="m 139.23119,141.63775 0.0892,2.93733 c -3.27066,0.14093 -7.80819,1.27508 -9.75523,4.50112 -1.94704,3.22604 -0.96909,8.93531 -0.96909,8.93531 l 0.42564,-0.79657 c 0,0 1.37624,-3.44069 3.47087,-5.12203 2.49473,-2.0025 6.74667,-2.0462 6.73854,-2.04213 l 0,3.11591 8.28031,-5.75096 z"
       id="path3945"
       inkscape:connector-curvature="0"
       sodipodi:nodetypes="cczccscccc"
       inkscape:export-xdpi="126.48649"
       inkscape:export-ydpi="126.48649" />
    <path
       sodipodi:type="arc"
       style="color:#000000;fill:#0096ff;fill-opacity:1;fill-rule:nonzero;stroke:#0069b2;stroke-width:1;stroke-linecap:square;stroke-linejoin:miter;stroke-miterlimit:4;stroke-opacity:1;stroke-dasharray:none;stroke-dashoffset:0;marker:none;visibility:visible;display:inline;overflow:visible;enable-background:accumulate"
       id="path5127"
       sodipodi:cx="7.9017859"
       sodipodi:cy="-4.2946429"
       sodipodi:rx="4.6875"
       sodipodi:ry="4.6875"
       d="m 12.589286,-4.2946429 c 0,2.5888347 -2.098665,4.68749997 -4.6875001,4.68749997 -2.5888348,0 -4.6875,-2.09866527 -4.6875,-4.68749997 0,-2.5888348 2.0986652,-4.6875 4.6875,-4.6875 2.5888351,0 4.6875001,2.0986652 4.6875001,4.6875 z"
       transform="matrix(0.71600688,0,0,0.71600688,154.50744,143.79823)" />
  </g>
</svg>
