<?xml version="1.0" encoding="utf-8"?>
<!-- Generator: Adobe Illustrator 18.1.1, SVG Export Plug-In . SVG Version: 6.00 Build 0)  -->
<svg version="1.1" id="Layer_1" xmlns="http://www.w3.org/2000/svg" xmlns:xlink="http://www.w3.org/1999/xlink" x="0px" y="0px"
	 width="40.4px" height="40.4px" viewBox="0 0 40.4 40.4" enable-background="new 0 0 40.4 40.4" xml:space="preserve">
<g>
	<path id="path3071_10_" fill="#585858" d="M20.2,40.4C9,40.4,0,31.3,0,20.2C0,9,9.1,0,20.2,0c11.1,0,20.2,9.1,20.2,20.2
		C40.5,31.3,31.4,40.4,20.2,40.4z M20.2,3.9C11.2,3.9,4,11.2,4,20.1c0,8.9,7.3,16.2,16.2,16.2c9,0,16.2-7.3,16.2-16.2
		C36.4,11.2,29.2,3.9,20.2,3.9z"/>
	<g>
		<path fill="#585858" d="M20.3,16.1c2,0,3.6-1.5,3.6-3.6c0-2-1.6-3.6-3.6-3.6c-2,0-3.6,1.6-3.6,3.6C16.8,14.5,18.4,16.1,20.3,16.1z
			"/>
		<path fill="#585858" d="M28.3,21.3c0-0.1,0-0.3-0.1-0.4c-0.3-2-2-3.9-4.4-3.9h-3.6h-3.6c-2.4,0-4.1,2-4.4,4c0,0,0,0,0,0
			c0,0.1,0,0.2,0,0.3c0,0,0,8.5,0,8.5c0,1,0.8,1.8,1.8,1.8h12.4c1,0,1.8-0.8,1.8-1.8V21.3z M27.1,29.7c0,0.3-0.3,0.6-0.6,0.6H14.1
			c-0.3,0-0.6-0.3-0.6-0.6v-8.2h13.6V29.7z"/>
		<rect x="15.2" y="23.6" fill="#585858" width="10.4" height="1.2"/>
		<rect x="15.2" y="26.7" fill="#585858" width="10.4" height="1.2"/>
	</g>
</g>
</svg>
