<?xml version="1.0" encoding="UTF-8" standalone="no"?>
<!-- Created with Inkscape (http://www.inkscape.org/) -->

<svg
   xmlns:dc="http://purl.org/dc/elements/1.1/"
   xmlns:cc="http://creativecommons.org/ns#"
   xmlns:rdf="http://www.w3.org/1999/02/22-rdf-syntax-ns#"
   xmlns:svg="http://www.w3.org/2000/svg"
   xmlns="http://www.w3.org/2000/svg"
   version="1.1"
   width="40"
   height="40"
   id="svg3315">
  <defs
     id="defs3317" />
  <metadata
     id="metadata3320">
    <rdf:RDF>
      <cc:Work
         rdf:about="">
        <dc:format>image/svg+xml</dc:format>
        <dc:type
           rdf:resource="http://purl.org/dc/dcmitype/StillImage" />
        <dc:title></dc:title>
      </cc:Work>
    </rdf:RDF>
  </metadata>
  <g
     transform="matrix(0.99007899,0,0,0.99009901,-3.3893587,0.67796536)"
     id="g3264">
    <path
       d="m 23.623322,39.715255 c -11.2,0 -20.2000005,-9.1 -20.2000005,-20.2 0,-11.2 9.1000005,-20.20000003 20.2000005,-20.20000003 11.1,0 20.2,9.10000003 20.2,20.20000003 0.1,11.1 -9,20.2 -20.2,20.2 z m 0,-36.5 c -9,0 -16.2000005,7.3 -16.2000005,16.2 0,8.9 7.3000005,16.2 16.2000005,16.2 9,0 16.2,-7.3 16.2,-16.2 0,-8.9 -7.2,-16.2 -16.2,-16.2 z"
       id="path157"
       style="fill:#585858" />
    <g
       transform="translate(-39.176678,-860.68475)"
       id="g159">
      <path
         d="m 50.7,880.8 -0.6,-0.7 c 1.5,-1.2 2.3,-2.3 2.3,-3.1 0,-0.1 0,-0.2 0,-0.4 -0.1,0.1 -0.2,0.1 -0.4,0.1 -0.1,0 -0.2,0 -0.3,0 -0.4,0 -0.6,-0.1 -0.8,-0.3 -0.2,-0.2 -0.3,-0.5 -0.3,-0.9 0,-0.3 0.1,-0.6 0.4,-0.9 0.3,-0.3 0.6,-0.4 0.9,-0.4 0.5,0 0.9,0.2 1.3,0.6 0.4,0.4 0.5,0.9 0.5,1.5 0,0.4 -0.1,0.8 -0.3,1.3 -0.2,0.5 -0.4,0.9 -0.7,1.3 -0.4,0.5 -1,1.1 -2,1.9 z m 3.9,0 -0.6,-0.7 c 1.5,-1.2 2.3,-2.3 2.3,-3.1 0,-0.1 0,-0.2 0,-0.4 -0.1,0.1 -0.2,0.1 -0.4,0.1 -0.1,0 -0.2,0 -0.3,0 -0.3,0 -0.6,-0.1 -0.8,-0.3 -0.2,-0.2 -0.3,-0.5 -0.3,-0.9 0,-0.3 0.1,-0.6 0.4,-0.9 0.3,-0.3 0.6,-0.4 0.9,-0.4 0.5,0 0.9,0.2 1.3,0.6 0.4,0.4 0.5,0.9 0.5,1.5 0,0.4 -0.1,0.8 -0.3,1.3 -0.2,0.5 -0.4,0.9 -0.7,1.3 -0.3,0.4 -1,1.1 -2,1.9 z"
         id="path161"
         style="fill:#585858" />
    </g>
    <g
       transform="translate(-39.176678,-860.68475)"
       id="g163">
      <path
         d="m 74,879.7 0.6,0.7 c -1.5,1.2 -2.3,2.3 -2.3,3.1 0,0.1 0,0.2 0,0.4 0.1,-0.1 0.2,-0.1 0.4,-0.1 0.1,0 0.2,0 0.3,0 0.4,0 0.6,0.1 0.8,0.3 0.2,0.2 0.3,0.5 0.3,0.9 0,0.3 -0.1,0.6 -0.4,0.9 -0.3,0.3 -0.6,0.4 -0.9,0.4 -0.5,0 -0.9,-0.2 -1.3,-0.6 -0.4,-0.4 -0.5,-0.9 -0.5,-1.5 0,-0.4 0.1,-0.8 0.3,-1.3 0.2,-0.5 0.4,-0.9 0.7,-1.3 0.4,-0.5 1.1,-1.1 2,-1.9 z m -3.9,0 0.6,0.7 c -1.5,1.2 -2.3,2.3 -2.3,3.1 0,0.1 0,0.2 0,0.4 0.1,-0.1 0.2,-0.1 0.4,-0.1 0.1,0 0.2,0 0.3,0 0.3,0 0.6,0.1 0.8,0.3 0.2,0.2 0.3,0.5 0.3,0.9 0,0.3 -0.1,0.6 -0.4,0.9 -0.3,0.3 -0.6,0.4 -0.9,0.4 -0.5,0 -0.9,-0.2 -1.3,-0.6 -0.4,-0.4 -0.5,-0.9 -0.5,-1.5 0,-0.4 0.1,-0.8 0.3,-1.3 0.2,-0.5 0.4,-0.9 0.7,-1.3 0.4,-0.5 1,-1.1 2,-1.9 z"
         id="path165"
         style="fill:#585858" />
    </g>
    <g
       transform="translate(-39.176678,-860.68475)"
       id="g167">
      <path
         d="m 58.3,880.8 v -1.2 h 1.2 v 1.2 h -1.2 z"
         id="path169"
         style="fill:#585858" />
      <path
         d="m 61.7,880.8 v -1.2 H 63 v 1.2 h -1.3 z"
         id="path171"
         style="fill:#585858" />
      <path
         d="m 65.2,880.8 v -1.2 h 1.2 v 1.2 h -1.2 z"
         id="path173"
         style="fill:#585858" />
    </g>
  </g>
</svg>
