<?xml version="1.0" encoding="UTF-8" standalone="no"?>
<!-- Created with Inkscape (http://www.inkscape.org/) -->

<svg
   xmlns:dc="http://purl.org/dc/elements/1.1/"
   xmlns:cc="http://creativecommons.org/ns#"
   xmlns:rdf="http://www.w3.org/1999/02/22-rdf-syntax-ns#"
   xmlns:svg="http://www.w3.org/2000/svg"
   xmlns="http://www.w3.org/2000/svg"
   version="1.1"
   width="40"
   height="40"
   id="svg3315">
  <defs
     id="defs3317" />
  <metadata
     id="metadata3320">
    <rdf:RDF>
      <cc:Work
         rdf:about="">
        <dc:format>image/svg+xml</dc:format>
        <dc:type
           rdf:resource="http://purl.org/dc/dcmitype/StillImage" />
        <dc:title></dc:title>
      </cc:Work>
    </rdf:RDF>
  </metadata>
  <g
     transform="matrix(0.99009901,0,0,0.99009901,-6.6101696,-4.4067813)"
     id="g3014">
    <path
       d="m 26.876272,44.850848 c -11.2,0 -20.1999998,-9.1 -20.1999998,-20.2 0,-11.1 9.0999998,-20.1999996 20.1999998,-20.1999996 11.1,0 20.2,9.0999996 20.2,20.1999996 0,11.1 -9,20.2 -20.2,20.2 z m 0,-36.4999996 c -9,0 -16.2,7.2999996 -16.2,16.1999996 0,9 7.3,16.2 16.2,16.2 9,0 16.2,-7.3 16.2,-16.2 0.1,-8.9 -7.2,-16.1999996 -16.2,-16.1999996 z"
       id="path288"
       style="fill:#585858" />
    <g
       transform="translate(-35.923728,-218.14915)"
       id="g290">
      <path
         d="m 61.4,251.9 c 0,-1.3 0.6,-1.9 1.7,-1.9 0.5,0 1,0.2 1.3,0.5 0.3,0.3 0.4,0.8 0.4,1.4 0,0.6 -0.2,1.1 -0.5,1.4 -0.3,0.3 -0.7,0.5 -1.3,0.5 -0.5,0 -0.9,-0.1 -1.2,-0.4 -0.3,-0.3 -0.4,-0.9 -0.4,-1.5 z m 2.5,-4.3 h -1.5 l -0.7,-15 h 2.9 l -0.7,15 z"
         id="path292"
         style="fill:#585858" />
    </g>
  </g>
</svg>
