<?xml version="1.0" encoding="UTF-8" standalone="no"?>
<!-- Created with Inkscape (http://www.inkscape.org/) -->

<svg
   xmlns:dc="http://purl.org/dc/elements/1.1/"
   xmlns:cc="http://creativecommons.org/ns#"
   xmlns:rdf="http://www.w3.org/1999/02/22-rdf-syntax-ns#"
   xmlns:svg="http://www.w3.org/2000/svg"
   xmlns="http://www.w3.org/2000/svg"
   version="1.1"
   width="40"
   height="40"
   id="svg3315">
  <defs
     id="defs3317" />
  <metadata
     id="metadata3320">
    <rdf:RDF>
      <cc:Work
         rdf:about="">
        <dc:format>image/svg+xml</dc:format>
        <dc:type
           rdf:resource="http://purl.org/dc/dcmitype/StillImage" />
        <dc:title></dc:title>
      </cc:Work>
    </rdf:RDF>
  </metadata>
  <g
     transform="matrix(0.99025341,0,0,0.99025341,-7.8885207e-8,-0.03508776)"
     id="g3023">
    <path
       d="M 20.196851,40.429134 C 9.0000001,40.429134 0,31.322835 0,20.232284 0,9.1417324 9.1062993,0.03543307 20.196851,0.03543307 c 11.090551,0 20.19685,9.10629933 20.19685,20.19685093 0,11.090551 -9,20.19685 -20.19685,20.19685 z m 0,-36.4960631 c -9,0 -16.1929139,7.2992131 -16.1929139,16.1929141 0,9 7.2992129,16.192913 16.1929139,16.192913 9,0 16.192913,-7.299213 16.192913,-16.192913 C 36.496063,11.232284 29.196851,3.9330709 20.196851,3.9330709 z"
       id="path3025"
       style="fill:#585858;fill-opacity:1;fill-rule:nonzero;stroke:none" />
    <path
       d="m 23.385827,12.614173 -6.271654,0 0,0 0,0 0,0 0,0.318898 c 0.07087,0 0.389764,0.212598 0.389764,0.992126 l 0,17.007874 c 0,1.488189 1.204725,2.692914 2.692914,2.692914 1.488189,0 2.692913,-1.204725 2.692913,-2.692914 l 0,-17.007874 c 0,-0.992126 0.425197,-0.992126 0.425197,-0.992126 l 0.07087,-0.318898 z m -1.098425,7.618111 -4.181103,0 0,-6.909449 4.181103,0 0,6.909449 z"
       id="path3027"
       style="fill:#585858;fill-opacity:1;fill-rule:nonzero;stroke:none" />
    <path
       d="m 20.30315,19.629922 c 0,0.496063 -0.389764,0.885826 -0.885827,0.885826 -0.531496,0 -0.92126,-0.389763 -0.92126,-0.885826 0,-0.496063 0.389764,-0.885827 0.92126,-0.885827 0.496063,0 0.885827,0.389764 0.885827,0.885827 z"
       id="path3029"
       style="fill:#585858;fill-opacity:1;fill-rule:nonzero;stroke:none" />
    <path
       d="m 22.606299,10.027559 c 0,0.602362 -0.496063,1.098425 -1.098425,1.098425 -0.602362,0 -1.098425,-0.496063 -1.098425,-1.098425 0,-0.602362 0.496063,-1.098425 1.098425,-1.098425 0.602362,0 1.098425,0.496063 1.098425,1.098425 z"
       id="path3031"
       style="fill:#585858;fill-opacity:1;fill-rule:nonzero;stroke:none" />
    <path
       d="m 22.003937,16.830709 c 0,0.496063 -0.389763,0.885827 -0.92126,0.885827 -0.496063,0 -0.885826,-0.389764 -0.885826,-0.885827 0,-0.496063 0.389763,-0.885827 0.885826,-0.885827 0.531497,0 0.92126,0.389764 0.92126,0.885827 z"
       id="path3033"
       style="fill:#585858;fill-opacity:1;fill-rule:nonzero;stroke:none" />
    <path
       d="m 20.799213,6.944882 c 0,0.3543307 -0.318898,0.6732283 -0.708662,0.6732283 -0.389763,0 -0.673228,-0.3188976 -0.673228,-0.6732283 0,-0.3897638 0.283465,-0.7086614 0.673228,-0.7086614 0.389764,0 0.708662,0.3188976 0.708662,0.7086614 z"
       id="path3035"
       style="fill:#585858;fill-opacity:1;fill-rule:nonzero;stroke:none" />
    <path
       d="m 19.417323,15.236221 c 0,0.389763 -0.318898,0.708661 -0.708661,0.708661 C 18.318898,15.944882 18,15.625984 18,15.236221 c 0,-0.389764 0.318898,-0.708662 0.708662,-0.708662 0.389763,0 0.708661,0.318898 0.708661,0.708662 z"
       id="path3037"
       style="fill:#585858;fill-opacity:1;fill-rule:nonzero;stroke:none" />
    <path
       d="m 20.409449,12.933071 c 0,0.531496 -0.46063,0.992126 -0.992126,0.992126 -0.566929,0 -1.027559,-0.46063 -1.027559,-0.992126 0,-0.566929 0.46063,-0.992126 1.027559,-0.992126 0.531496,0 0.992126,0.425197 0.992126,0.992126 z"
       id="path3039"
       style="fill:#585858;fill-opacity:1;fill-rule:nonzero;stroke:none" />
  </g>
</svg>
