<?xml version="1.0" encoding="UTF-8" standalone="no"?>
<!-- Created with Inkscape (http://www.inkscape.org/) -->

<svg
   xmlns:dc="http://purl.org/dc/elements/1.1/"
   xmlns:cc="http://creativecommons.org/ns#"
   xmlns:rdf="http://www.w3.org/1999/02/22-rdf-syntax-ns#"
   xmlns:svg="http://www.w3.org/2000/svg"
   xmlns="http://www.w3.org/2000/svg"
   version="1.1"
   width="40"
   height="40"
   viewBox="0 0 39.999998 39.999998"
   id="Layer_1"
   xml:space="preserve"><metadata
   id="metadata12"><rdf:RDF><cc:Work
       rdf:about=""><dc:format>image/svg+xml</dc:format><dc:type
         rdf:resource="http://purl.org/dc/dcmitype/StillImage" /><dc:title></dc:title></cc:Work></rdf:RDF></metadata><defs
   id="defs10" />
<g
   transform="scale(0.99007895,0.99009899)"
   id="g3">
	<path
   d="M 20.2,40.4 C 9,40.4 0,31.3 0,20.2 0,9 9.1,0 20.2,0 c 11.1,0 20.2,9.1 20.2,20.2 0.1,11.1 -9,20.2 -20.2,20.2 z m 0,-36.5 C 11.2,3.9 4,11.2 4,20.1 4,29 11.3,36.3 20.2,36.3 29.2,36.3 36.4,29 36.4,20.1 36.4,11.2 29.2,3.9 20.2,3.9 z"
   id="path3071_6_"
   style="fill:#585858" />
	<path
   d="m 27.4,11.9 h -1.5 v -1.5 c 0,-0.4 -0.3,-0.7 -0.7,-0.7 -0.4,0 -0.7,0.3 -0.7,0.7 v 1.5 h -3 v -1.5 c 0,-0.4 -0.3,-0.7 -0.7,-0.7 -0.4,0 -0.7,0.3 -0.7,0.7 v 1.5 h -3 V 10.4 C 17.1,10 16.8,9.7 16.4,9.7 16,9.7 15.7,10 15.7,10.4 v 1.5 H 14 c -1.2,0 -2.2,1 -2.2,2.2 v 13.4 c 0,1.2 1,2.2 2.2,2.2 h 13.4 c 1.2,0 2.2,-1 2.2,-2.2 V 14.1 c 0,-1.2 -1,-2.2 -2.2,-2.2 z M 14,13 h 1.8 v 1.2 c 0,0.4 0.3,0.7 0.7,0.7 0.4,0 0.7,-0.3 0.7,-0.7 V 13 h 3 v 1.2 c 0,0.4 0.3,0.7 0.7,0.7 0.4,0 0.7,-0.3 0.7,-0.7 V 13 h 3 v 1.2 c 0,0.4 0.3,0.7 0.7,0.7 0.4,0 0.7,-0.3 0.7,-0.7 V 13 h 1.5 c 0.6,0 1.1,0.5 1.1,1.1 v 3.3 H 12.8 V 14.1 C 12.8,13.5 13.4,13 14,13 z m 4.3,10 V 18.5 H 23 V 23 h -4.7 z m 4.7,1.1 v 4.5 H 18.2 V 24.1 H 23 z M 17.2,23 h -4.3 v -4.5 h 4.3 V 23 z m -4.4,4.5 v -3.4 h 4.3 v 4.5 H 14 c -0.6,0 -1.2,-0.5 -1.2,-1.1 z m 14.6,1.1 h -3.2 v -4.5 h 4.3 v 3.4 c 0,0.6 -0.5,1.1 -1.1,1.1 z"
   id="path6"
   style="fill:#585858" />
</g>
</svg>