<?xml version="1.0" encoding="UTF-8" standalone="no"?>
<!-- Created with Inkscape (http://www.inkscape.org/) -->

<svg
   xmlns:dc="http://purl.org/dc/elements/1.1/"
   xmlns:cc="http://creativecommons.org/ns#"
   xmlns:rdf="http://www.w3.org/1999/02/22-rdf-syntax-ns#"
   xmlns:svg="http://www.w3.org/2000/svg"
   xmlns="http://www.w3.org/2000/svg"
   version="1.1"
   width="40"
   height="40"
   viewBox="0 0 39.999998 39.999998"
   id="Layer_1"
   xml:space="preserve"><metadata
   id="metadata17"><rdf:RDF><cc:Work
       rdf:about=""><dc:format>image/svg+xml</dc:format><dc:type
         rdf:resource="http://purl.org/dc/dcmitype/StillImage" /><dc:title></dc:title></cc:Work></rdf:RDF></metadata><defs
   id="defs15" />
<g
   transform="matrix(0.99009896,0,0,0.99009896,0.84433855,4.6082342)"
   id="g3054_1_">
	<g
   transform="translate(-0.85278197,-4.6543168)"
   id="g3023_1_">
		<path
   d="M 20.2,40.4 C 9,40.4 0,31.3 0,20.2 0,9.1 9.1,0 20.2,0 c 11.1,0 20.2,9.1 20.2,20.2 0,11.1 -9,20.2 -20.2,20.2 z m 0,-36.5 C 11.2,3.9 4,11.2 4,20.1 c 0,9 7.3,16.2 16.2,16.2 9,0 16.2,-7.3 16.2,-16.2 C 36.5,11.2 29.2,3.9 20.2,3.9 z"
   id="path3025_1_"
   style="fill:#bf4f4f" />
		<path
   d="m 23.4,12.6 h -6.3 l 0,0 0,0 0,0 v 0.3 c 0.1,0 0.4,0.2 0.4,1 v 17 c 0,1.5 1.2,2.7 2.7,2.7 1.5,0 2.7,-1.2 2.7,-2.7 v -17 c 0,-1 0.4,-1 0.4,-1 l 0.1,-0.3 z m -1.1,7.6 h -4.2 v -6.9 h 4.2 v 6.9 z"
   id="path3027_1_"
   style="fill:#bf4f4f" />
		<path
   d="m 20.3,19.6 c 0,0.5 -0.4,0.9 -0.9,0.9 -0.5,0 -0.9,-0.4 -0.9,-0.9 0,-0.5 0.4,-0.9 0.9,-0.9 0.5,0 0.9,0.4 0.9,0.9 z"
   id="path3029_1_"
   style="fill:#bf4f4f" />
		<path
   d="m 22.6,10 c 0,0.6 -0.5,1.1 -1.1,1.1 -0.6,0 -1.1,-0.5 -1.1,-1.1 0,-0.6 0.5,-1.1 1.1,-1.1 0.6,0 1.1,0.5 1.1,1.1 z"
   id="path3031_1_"
   style="fill:#bf4f4f" />
		<path
   d="m 22,16.8 c 0,0.5 -0.4,0.9 -0.9,0.9 -0.5,0 -0.9,-0.4 -0.9,-0.9 0,-0.5 0.4,-0.9 0.9,-0.9 0.5,0 0.9,0.4 0.9,0.9 z"
   id="path3033_1_"
   style="fill:#bf4f4f" />
		<path
   d="m 20.8,6.9 c 0,0.4 -0.3,0.7 -0.7,0.7 -0.4,0 -0.7,-0.3 -0.7,-0.7 0,-0.4 0.3,-0.7 0.7,-0.7 0.4,0 0.7,0.4 0.7,0.7 z"
   id="path3035_1_"
   style="fill:#bf4f4f" />
		<path
   d="m 19.4,15.2 c 0,0.4 -0.3,0.7 -0.7,0.7 -0.4,0 -0.7,-0.3 -0.7,-0.7 0,-0.4 0.3,-0.7 0.7,-0.7 0.4,0 0.7,0.3 0.7,0.7 z"
   id="path3037_1_"
   style="fill:#bf4f4f" />
		<path
   d="m 20.4,12.9 c 0,0.5 -0.5,1 -1,1 -0.6,0 -1,-0.5 -1,-1 0,-0.6 0.5,-1 1,-1 0.5,0 1,0.5 1,1 z"
   id="path3039_1_"
   style="fill:#bf4f4f" />
	</g>
</g>
</svg>