<?xml version="1.0" encoding="UTF-8" standalone="no"?>
<!-- Created with Inkscape (http://www.inkscape.org/) -->

<svg
   xmlns:dc="http://purl.org/dc/elements/1.1/"
   xmlns:cc="http://creativecommons.org/ns#"
   xmlns:rdf="http://www.w3.org/1999/02/22-rdf-syntax-ns#"
   xmlns:svg="http://www.w3.org/2000/svg"
   xmlns="http://www.w3.org/2000/svg"
   version="1.1"
   width="40"
   height="40"
   viewBox="0 0 39.999998 39.999998"
   id="Layer_1"
   xml:space="preserve"><metadata
   id="metadata37"><rdf:RDF><cc:Work
       rdf:about=""><dc:format>image/svg+xml</dc:format><dc:type
         rdf:resource="http://purl.org/dc/dcmitype/StillImage" /><dc:title></dc:title></cc:Work></rdf:RDF></metadata><defs
   id="defs35" />
<g
   transform="scale(0.99007895,0.99009896)"
   id="g3">
	<path
   d="M 20.2,40.4 C 9,40.4 0,31.3 0,20.2 0,9 9.1,0 20.2,0 c 11.1,0 20.2,9.1 20.2,20.2 0.1,11.1 -9,20.2 -20.2,20.2 z m 0,-36.5 C 11.2,3.9 4,11.2 4,20.1 4,29 11.3,36.3 20.2,36.3 29.2,36.3 36.4,29 36.4,20.1 36.4,11.2 29.2,3.9 20.2,3.9 z"
   id="path3071_8_"
   style="fill:#585858" />
	<g
   id="g6">
		<g
   id="g8">
			<g
   id="g10">
				<path
   d="m 22.2,29.4 h -7.4 c -1.2,0 -2.1,-0.9 -2.1,-2.1 v -14 c 0,-1.2 0.9,-2.1 2.1,-2.1 H 26 c 1.2,0 2.1,0.9 2.1,2.1 v 11 L 26.7,24 V 13.3 c 0,-0.4 -0.3,-0.7 -0.7,-0.7 H 14.8 c -0.4,0 -0.7,0.3 -0.7,0.7 v 14 c 0,0.4 0.3,0.7 0.7,0.7 h 6.5 l 0.9,1.4 z"
   id="path12"
   style="fill:#585858" />
			</g>
		</g>
		<g
   id="g14">
			<g
   id="g16">
				<rect
   width="8.8999996"
   height="1.4"
   x="15.9"
   y="15.6"
   id="rect18"
   style="fill:#585858" />
			</g>
		</g>
		<g
   id="g20">
			<g
   id="g22">
				<rect
   width="8.8999996"
   height="1.4"
   x="15.9"
   y="19.200001"
   id="rect24"
   style="fill:#585858" />
			</g>
		</g>
		<g
   id="g26">
			<g
   id="g28">
				<rect
   width="6.9000001"
   height="1.4"
   x="15.9"
   y="22.799999"
   id="rect30"
   style="fill:#585858" />
			</g>
		</g>
	</g>
	<path
   d="m 24.1,27.9 c 0,-0.1 0,-0.1 0,-0.1 0,-1.7 0,-3.3 0,-5 0,-0.5 0.5,-0.8 0.9,-0.5 0.2,0.1 0.3,0.3 0.3,0.6 0,1 0,2 0,3 0,0.2 0.1,0.3 0.3,0.2 0.1,0 0.1,-0.1 0.2,-0.2 0,-0.1 0,-0.3 0,-0.3 0,-0.4 0.3,-0.7 0.6,-0.7 0.4,0 0.6,0.2 0.6,0.5 0,0.1 0,0.4 0,0.4 0,0.1 0.1,0.2 0.2,0.2 0.1,0 0.2,-0.1 0.2,-0.2 0,-0.1 0,0 0,0 0,-0.2 0,-0.4 0.2,-0.6 0.2,-0.2 0.3,-0.2 0.5,-0.2 0.3,0 0.6,0.2 0.6,0.6 0,0.1 0,0.6 0,0.6 0,0.1 0.1,0.2 0.2,0.2 0.1,0 0.2,-0.1 0.2,-0.2 0,-0.1 0,0 0,0 0,-0.4 0.3,-0.7 0.7,-0.7 0.3,0 0.6,0.3 0.6,0.6 0,0.1 0,0.1 0,0.2 0,1.8 0,0.9 0,2.8 0,0.4 -0.1,0.9 -0.3,1.3 -0.3,0.8 -1,1.3 -1.8,1.5 C 27.7,32.1 27,32.1 26.5,32 25.9,31.9 25.3,31.7 24.8,31.3 24.5,31.1 24.2,30.8 24,30.4 23.3,29.4 22.7,28.5 22.1,27.5 21.9,27.2 21.9,27 22,26.7 c 0.2,-0.4 0.7,-0.5 1,-0.3 0.1,0.1 0.3,0.2 0.3,0.3 0.2,0.5 0.4,0.8 0.8,1.2 -0.1,0 -0.1,0 0,0 l 0,0 z"
   id="path92_1_"
   style="fill:#585858" />
</g>
</svg>