<?xml version="1.0" encoding="UTF-8" standalone="no"?>
<!-- Created with Inkscape (http://www.inkscape.org/) -->

<svg
   xmlns:dc="http://purl.org/dc/elements/1.1/"
   xmlns:cc="http://creativecommons.org/ns#"
   xmlns:rdf="http://www.w3.org/1999/02/22-rdf-syntax-ns#"
   xmlns:svg="http://www.w3.org/2000/svg"
   xmlns="http://www.w3.org/2000/svg"
   version="1.1"
   width="40"
   height="40"
   id="svg3315">
  <defs
     id="defs3317" />
  <metadata
     id="metadata3320">
    <rdf:RDF>
      <cc:Work
         rdf:about="">
        <dc:format>image/svg+xml</dc:format>
        <dc:type
           rdf:resource="http://purl.org/dc/dcmitype/StillImage" />
        <dc:title></dc:title>
      </cc:Work>
    </rdf:RDF>
  </metadata>
  <g
     transform="matrix(0.99023082,0,0,0.99025341,-18.310186,-26.786958)"
     id="g3208"
     style="fill:#ffffff">
    <g
       transform="translate(18.490826,27.015176)"
       id="g3177"
       style="fill:#ffffff">
      <path
         d="M 20.196851,40.429134 C 9.0000001,40.429134 0,31.322835 0,20.232284 0,9.0354332 9.1062993,0.03543307 20.196851,0.03543307 c 11.090551,0 20.19685,9.10629933 20.19685,20.19685093 0.1063,11.090551 -9,20.19685 -20.19685,20.19685 z m 0,-36.4960631 c -9,0 -16.1929139,7.2992131 -16.1929139,16.1929141 0,8.8937 7.2992129,16.192913 16.1929139,16.192913 9,0 16.192913,-7.299213 16.192913,-16.192913 0,-8.893701 -7.192913,-16.1929141 -16.192913,-16.1929141 z"
         id="path3179"
         style="fill:#ffffff;fill-opacity:1;fill-rule:nonzero;stroke:none" />
      <path
         d="m 20.196851,26.53937 -1.807087,0 c -0.389764,0 -0.602362,-0.318897 -0.602362,-0.602362 -0.07087,-0.708661 -0.389764,-1.311023 -0.779528,-1.913386 -0.425197,-0.602362 -0.81496,-1.098425 -1.204724,-1.700787 -0.708662,-1.098425 -0.992126,-2.19685 -0.992126,-3.507874 0,-2.30315 1.488189,-4.393701 3.685039,-4.996063 2.30315,-0.673229 4.216536,-0.106299 5.811024,1.594488 0.708661,0.814961 1.204724,1.807087 1.27559,2.905512 0.212599,1.807087 -0.389763,3.401575 -1.488189,4.818898 -0.496063,0.708661 -0.992126,1.381889 -1.311023,2.19685 -0.07087,0.177165 -0.07087,0.496063 -0.177166,0.779528 C 22.5,26.53937 22.287402,26.716536 21.897638,26.716536 21.507874,26.53937 20.905512,26.53937 20.196851,26.53937 l 0,0 z m -1.204725,-1.311023 2.30315,0 c 0.106299,0 0.106299,-0.106299 0.212598,-0.106299 0.177166,-0.885827 0.708662,-1.594489 1.204725,-2.409449 0.389763,-0.566929 0.885826,-1.098425 1.098425,-1.771654 0.389764,-1.027559 0.602362,-2.019685 0.389764,-3.11811 -0.496063,-1.807087 -2.30315,-3.188977 -4.393701,-2.976378 -1.204725,0.07087 -2.196851,0.566929 -2.905512,1.594488 -0.992126,1.275591 -0.992126,2.692914 -0.496063,4.074803 0.177165,0.708662 0.602362,1.311024 0.992126,1.807087 0.708661,0.92126 1.311024,1.807087 1.594488,2.905512 z"
         id="path3181"
         style="fill:#ffffff;fill-opacity:1;fill-rule:nonzero;stroke:none" />
      <path
         d="m 20.30315,27.744095 1.488189,0 c 0.425197,0 0.496063,0.177165 0.496063,0.602362 l 0,1.984252 c 0,0.389764 -0.177166,0.496063 -0.496063,0.602362 l -0.177165,0 c -0.212599,0 -0.425197,0 -0.602363,0.212599 -0.106299,0.177165 -0.318897,0.283464 -0.496063,0.177165 l -0.318897,0 c -0.283465,0 -0.602363,-0.106299 -0.779528,-0.283465 -0.106299,-0.106299 -0.212598,-0.212598 -0.425197,-0.212598 l -0.283464,0 c -0.318898,0 -0.496063,-0.212598 -0.496063,-0.602362 l 0,-1.984252 c 0,-0.318898 0.177165,-0.496063 0.496063,-0.496063 l 1.594488,0 0,0 z"
         id="path3183"
         style="fill:#ffffff;fill-opacity:1;fill-rule:nonzero;stroke:none" />
      <path
         d="M 21.188977,7.7244095 20.30315,11.834646 19.417323,7.7244095 c -0.106299,-0.496063 0.177165,-0.992126 0.673228,-1.0984252 0.496063,-0.1062992 0.992126,0.2125985 1.098426,0.7086615 l 0,0.3897637 z"
         id="path3185"
         style="fill:#ffffff;fill-opacity:1;fill-rule:nonzero;stroke:none" />
      <path
         d="m 13.606299,9.425197 1.984252,3.720472 -3.401574,-2.515748 c -0.389764,-0.283464 -0.496063,-0.8858264 -0.177166,-1.3110232 0.283465,-0.3897638 0.885827,-0.496063 1.275591,-0.1771654 0.212598,0 0.318897,0.070866 0.318897,0.2834646 z"
         id="path3187"
         style="fill:#ffffff;fill-opacity:1;fill-rule:nonzero;stroke:none" />
      <path
         d="m 26.787402,9.425197 -1.984252,3.720472 3.401575,-2.515748 C 28.594489,10.346457 28.700788,9.7440946 28.417323,9.3188978 28.098426,8.929134 27.496063,8.8228348 27.1063,9.1417324 c -0.212599,0 -0.318898,0.070866 -0.318898,0.2834646 z"
         id="path3189"
         style="fill:#ffffff;fill-opacity:1;fill-rule:nonzero;stroke:none" />
      <path
         d="M 9.9921261,15.236221 13.5,17.64567 9.2834647,17.043307 c -0.496063,-0.106299 -0.8858268,-0.602362 -0.7795276,-1.098425 0.1062992,-0.531496 0.6023622,-0.92126 1.0984252,-0.814961 0.2125985,0 0.2834646,0.1063 0.3897638,0.1063 z"
         id="path3191"
         style="fill:#ffffff;fill-opacity:1;fill-rule:nonzero;stroke:none" />
      <path
         d="m 30.295276,15.236221 -3.507874,2.409449 4.216535,-0.602363 c 0.496063,-0.106299 0.885827,-0.602362 0.779528,-1.098425 -0.07087,-0.531496 -0.566929,-0.92126 -1.098425,-0.814961 -0.177166,0 -0.283465,0.1063 -0.389764,0.1063 z"
         id="path3193"
         style="fill:#ffffff;fill-opacity:1;fill-rule:nonzero;stroke:none" />
    </g>
  </g>
</svg>
