<?xml version="1.0" encoding="UTF-8" standalone="no"?>
<!-- Created with Inkscape (http://www.inkscape.org/) -->

<svg
   xmlns:dc="http://purl.org/dc/elements/1.1/"
   xmlns:cc="http://creativecommons.org/ns#"
   xmlns:rdf="http://www.w3.org/1999/02/22-rdf-syntax-ns#"
   xmlns:svg="http://www.w3.org/2000/svg"
   xmlns="http://www.w3.org/2000/svg"
   version="1.1"
   width="40"
   height="40"
   id="svg3315">
  <defs
     id="defs3317" />
  <metadata
     id="metadata3320">
    <rdf:RDF>
      <cc:Work
         rdf:about="">
        <dc:format>image/svg+xml</dc:format>
        <dc:type
           rdf:resource="http://purl.org/dc/dcmitype/StillImage" />
        <dc:title></dc:title>
      </cc:Work>
    </rdf:RDF>
  </metadata>
  <g
     transform="matrix(0.99023082,0,0,0.99025341,-11.02108,-9.6656435)"
     id="g3236">
    <g
       transform="translate(11.129809,9.7253447)"
       id="g3223">
      <path
         d="M 20.196851,40.429134 C 9.0000001,40.429134 0,31.322835 0,20.232284 0,9.0354332 9.1062993,0.03543307 20.196851,0.03543307 c 11.090551,0 20.19685,9.10629933 20.19685,20.19685093 0.1063,11.090551 -9,20.19685 -20.19685,20.19685 z m 0,-36.4960631 c -9,0 -16.1929139,7.2992131 -16.1929139,16.1929141 0,8.8937 7.2992129,16.192913 16.1929139,16.192913 9,0 16.192913,-7.299213 16.192913,-16.192913 0,-8.893701 -7.192913,-16.1929141 -16.192913,-16.1929141 z"
         id="path3225"
         style="fill:#585858;fill-opacity:1;fill-rule:nonzero;stroke:none" />
      <path
         d="m 28.700788,11.232284 -7.299213,0 c -0.496063,0 -0.885827,0.389763 -1.204724,0.779527 -0.283465,-0.389764 -0.708662,-0.779527 -1.204725,-0.779527 l -7.299212,0 c -0.708662,0 -2.0905517,0.389763 -2.0905517,2.090551 l 0,13.322835 c 0,0.566929 0.4960627,1.098425 1.0984257,1.098425 l 7.582677,0 c 1.027559,0 1.417323,1.700787 1.417323,1.700787 l 0,0.177166 0.885826,0 0.212599,0 0,-0.177166 c 0,0 0.389764,-1.700787 1.417323,-1.700787 l 7.582677,0 c 0.602362,0 1.098425,-0.531496 1.098425,-1.098425 l 0,-13.322835 c 0,-1.700788 -1.38189,-2.090551 -2.19685,-2.090551 z m 0.708661,14.88189 c 0,0 0,0.106299 -0.106299,0.106299 l -0.106299,0 -7.086615,0 c -0.496062,0 -0.921259,0.318897 -1.204724,0.496063 l 0,-13.677166 c 0,-0.212598 0.177165,-0.425197 0.389764,-0.425197 l 7.901575,0 c 0.106299,0 0.212598,0.1063 0.212598,0.212599 l 0,13.287402 z m -9.92126,-13.074804 0,13.783465 C 19.204725,26.64567 18.814961,26.326772 18.283465,26.326772 l -7.086614,0 -0.1063,0 -0.106299,-0.106299 0,-13.393701 c 0,-0.106299 0.106299,-0.212599 0.212599,-0.212599 l 7.901574,0 c 0.318898,0 0.389764,0.212599 0.389764,0.425197 z"
         id="path3227"
         style="fill:#585858;fill-opacity:1;fill-rule:nonzero;stroke:none" />
    </g>
  </g>
</svg>
