<?xml version="1.0" encoding="UTF-8" standalone="no"?>
<!-- Created with Inkscape (http://www.inkscape.org/) -->

<svg
   xmlns:dc="http://purl.org/dc/elements/1.1/"
   xmlns:cc="http://creativecommons.org/ns#"
   xmlns:rdf="http://www.w3.org/1999/02/22-rdf-syntax-ns#"
   xmlns:svg="http://www.w3.org/2000/svg"
   xmlns="http://www.w3.org/2000/svg"
   version="1.1"
   width="40"
   height="40"
   id="svg3315">
  <defs
     id="defs3317" />
  <metadata
     id="metadata3320">
    <rdf:RDF>
      <cc:Work
         rdf:about="">
        <dc:format>image/svg+xml</dc:format>
        <dc:type
           rdf:resource="http://purl.org/dc/dcmitype/StillImage" />
        <dc:title></dc:title>
      </cc:Work>
    </rdf:RDF>
  </metadata>
  <g
     transform="matrix(0.99009901,0,0,0.99009901,-407.157,-453.34304)"
     id="layer1">
    <g
       id="g3334">
      <path
         d="m 431.42857,498.27647 c -11.2,0 -20.2,-9.1 -20.2,-20.2 0,-11.1 9.1,-20.2 20.2,-20.2 11.1,0 20.2,9.1 20.2,20.2 0,11.1 -9,20.2 -20.2,20.2 z m 0,-36.5 c -9,0 -16.2,7.3 -16.2,16.2 0,9 7.3,16.2 16.2,16.2 9,0 16.2,-7.3 16.2,-16.2 0.1,-8.9 -7.2,-16.2 -16.2,-16.2 z"
         id="path310"
         style="fill:#585858" />
      <path
         d="m 431.42857,471.17647 c 5,0 8.1,4.7 9.2,6.6 -1,1.9 -4.2,6.5 -9.2,6.5 -5,0 -8.1,-4.7 -9.2,-6.5 1.1,-1.9 4.3,-6.6 9.2,-6.6 m 0,-1.9 c -7.5,0 -11.3,8.5 -11.3,8.5 0,0 3.8,8.4 11.3,8.4 7.5,0 11.3,-8.5 11.3,-8.5 0,0 -3.7,-8.4 -11.3,-8.4 l 0,0 z"
         id="path312"
         style="fill:#585858" />
      <path
         d="m 431.42857,475.87647 c 1,0 1.9,0.8 1.9,1.9 0,1.1 -0.8,1.9 -1.9,1.9 -1.1,0 -1.8,-0.9 -1.8,-1.9 0,-1 0.8,-1.9 1.8,-1.9 m 0,-1.9 c -2.1,0 -3.8,1.7 -3.8,3.8 0,2.1 1.7,3.8 3.8,3.8 2.1,0 3.8,-1.7 3.8,-3.8 0,-2.1 -1.7,-3.8 -3.8,-3.8 l 0,0 z"
         id="path314"
         style="fill:#585858" />
    </g>
  </g>
</svg>
