<?xml version="1.0" encoding="UTF-8" standalone="no"?>
<!-- Created with Inkscape (http://www.inkscape.org/) -->

<svg
   xmlns:dc="http://purl.org/dc/elements/1.1/"
   xmlns:cc="http://creativecommons.org/ns#"
   xmlns:rdf="http://www.w3.org/1999/02/22-rdf-syntax-ns#"
   xmlns:svg="http://www.w3.org/2000/svg"
   xmlns="http://www.w3.org/2000/svg"
   version="1.1"
   width="40"
   height="40"
   id="svg3315">
  <defs
     id="defs3317" />
  <metadata
     id="metadata3320">
    <rdf:RDF>
      <cc:Work
         rdf:about="">
        <dc:format>image/svg+xml</dc:format>
        <dc:type
           rdf:resource="http://purl.org/dc/dcmitype/StillImage" />
        <dc:title></dc:title>
      </cc:Work>
    </rdf:RDF>
  </metadata>
  <g
     transform="matrix(0.99023082,0,0,0.99025341,-7.6307976,6.269045)"
     id="g3100">
    <g
       transform="translate(7.7060797,-6.3661813)"
       id="g3069">
      <path
         d="M 20.196851,40.429134 C 9.0000001,40.429134 0,31.322835 0,20.232284 0,9.0354332 9.1062993,0.03543307 20.196851,0.03543307 c 11.090551,0 20.19685,9.10629933 20.19685,20.19685093 0.1063,11.090551 -9,20.19685 -20.19685,20.19685 z m 0,-36.4960631 c -9,0 -16.1929139,7.2992131 -16.1929139,16.1929141 0,8.8937 7.2992129,16.192913 16.1929139,16.192913 9,0 16.192913,-7.299213 16.192913,-16.192913 0,-8.893701 -7.192913,-16.1929141 -16.192913,-16.1929141 z"
         id="path3071"
         style="fill:#585858;fill-opacity:1;fill-rule:nonzero;stroke:none" />
      <path
         d="m 23.598425,31.429134 c -2.692913,0.814961 -3.082677,0.496063 -4.5,0.496063 -0.212598,0 -0.389763,0 -0.496063,-0.212598 -0.106299,-0.177166 0,-0.283465 0.1063,-0.496063 0.106299,-0.07087 0.177165,-0.283465 0.177165,-0.496063 0,-0.602362 -0.07087,-1.275591 -0.177165,-1.877953 -0.1063,-0.425197 -0.318898,-0.602362 -0.814961,-0.708661 -0.779528,-0.1063 -1.488189,0 -2.19685,0.212598 -0.496063,0.07087 -0.992126,0.283465 -1.488189,0.07087 -0.496063,-0.07087 -0.814961,-0.496063 -0.814961,-0.992126 l 0,-0.779527 c 0,-0.531496 -0.177165,-0.602363 -0.708661,-0.814961 -0.602363,-0.212598 -0.885827,-0.708661 -0.779528,-1.311024 0,-0.106299 0.106299,-0.283464 0.106299,-0.389763 0.177166,-0.496063 0.07087,-0.885827 -0.496063,-1.204725 -0.318897,-0.106299 -0.602362,-0.283464 -0.81496,-0.496063 -0.389764,-0.389764 -0.389764,-0.81496 -0.1063,-1.311023 0.212599,-0.283465 0.496063,-0.602363 0.814961,-0.779528 0.779528,-0.602362 0.885827,-1.417323 0.779528,-2.30315 -0.1063,-0.602362 -0.177166,-1.098425 -0.177166,-1.700787 -0.212598,-2.905512 0.992126,-5.208662 3.295276,-6.8031498 1.38189,-0.992126 2.976378,-1.488189 4.677165,-1.5944882 2.515748,-0.2125985 4.818898,0.496063 6.80315,2.090551 1.523622,1.204725 2.515748,2.905512 2.728346,4.818898 0.177166,1.38189 -0.106299,2.586614 -0.602362,3.897638 -0.425197,1.098425 -0.81496,2.090551 -1.204724,3.188976 -0.496063,1.311024 -0.496063,2.586614 -0.425197,4.003937 l 0.318898,2.976378 c 0.212598,0.531496 -1.311024,1.700788 -4.003938,2.515748 z"
         id="path3073"
         style="fill:#585858;fill-opacity:1;fill-rule:nonzero;stroke:none" />
      <path
         d="m 20.515748,14.031496 c 0.389764,0 0.673229,-0.318897 0.673229,-0.708661 0,-0.389764 -0.283465,-0.708662 -0.673229,-0.708662 l -0.106299,0 c 0,-0.07087 -0.106299,-0.177165 -0.106299,-0.177165 l 0.106299,-0.212598 c 0.283465,-0.283465 0.283465,-0.708662 0,-0.992126 -0.318898,-0.318898 -0.708661,-0.318898 -0.992126,0 l -0.106299,0.106299 c -0.106299,0 -0.106299,-0.106299 -0.212599,-0.106299 l 0,-0.1063 c 0,-0.389763 -0.283464,-0.708661 -0.708661,-0.708661 -0.389764,0 -0.673228,0.318898 -0.673228,0.708661 l 0,0.1063 c -0.1063,0 -0.212599,0.106299 -0.212599,0.106299 l -0.106299,-0.106299 c -0.283465,-0.318898 -0.708661,-0.318898 -0.992126,0 -0.318898,0.283464 -0.318898,0.708661 0,0.992126 l 0.106299,0.106299 c 0,0.106299 -0.106299,0.212598 -0.106299,0.212598 l -0.106299,0 c -0.389764,0 -0.708662,0.283465 -0.708662,0.673229 0,0.425196 0.318898,0.708661 0.708662,0.708661 l 0.106299,0 c 0,0.106299 0.106299,0.212598 0.106299,0.212598 l -0.106299,0.1063 c -0.318898,0.283464 -0.318898,0.673228 0,0.992126 0.283465,0.283464 0.708661,0.283464 0.992126,0 l 0,0 c 0.106299,0 0.106299,0.106299 0.212598,0.106299 l 0,0.07087 c 0,0.425197 0.283465,0.708661 0.673229,0.708661 0.425197,0 0.708661,-0.283464 0.708661,-0.708661 l 0,-0.07087 c 0.106299,0 0.212599,-0.106299 0.212599,-0.106299 l 0.106299,0.106299 c 0.283464,0.283464 0.673228,0.283464 0.992126,0 0.283464,-0.318898 0.283464,-0.708662 0,-1.027559 l -0.106299,-0.07087 c 0,-0.1063 0.106299,-0.1063 0.106299,-0.212599 l 0.212598,0 0,0 z m -0.425197,0.602362 c 0.1063,0.1063 0.1063,0.212599 0,0.283465 -0.106299,0.106299 -0.177165,0.106299 -0.283464,0 l -0.389764,-0.389764 c -0.212598,0.212599 -0.531496,0.318898 -0.814961,0.318898 l 0,0.496063 c 0,0.07087 -0.106299,0.177165 -0.212598,0.177165 -0.106299,0 -0.177165,-0.106299 -0.177165,-0.177165 l 0,-0.496063 c -0.318898,0 -0.496063,-0.212599 -0.814961,-0.318898 l -0.389764,0.389764 c -0.106299,0.106299 -0.212598,0.106299 -0.318897,0 -0.1063,-0.07087 -0.1063,-0.177165 0,-0.283465 l 0.425196,-0.389763 c -0.212598,-0.212599 -0.318897,-0.531496 -0.318897,-0.814961 l -0.496063,0 c -0.106299,0 -0.212599,-0.106299 -0.212599,-0.212598 0,-0.07087 0.1063,-0.177166 0.212599,-0.177166 l 0.496063,0 c 0,-0.318897 0.212598,-0.496063 0.318897,-0.81496 l -0.425196,-0.389764 c -0.1063,-0.106299 -0.1063,-0.212599 0,-0.318898 0.106299,-0.07087 0.212598,-0.07087 0.318897,0 l 0.389764,0.425197 c 0.212598,-0.212598 0.496063,-0.318898 0.814961,-0.318898 l 0,-0.496063 c 0,-0.106299 0.07087,-0.212598 0.177165,-0.212598 0.106299,0 0.212598,0.106299 0.212598,0.212598 l 0,0.496063 c 0.283465,0 0.496063,0.212599 0.814961,0.318898 l 0.389764,-0.425197 c 0.106299,-0.07087 0.177165,-0.07087 0.283464,0 0.1063,0.106299 0.1063,0.212599 0,0.318898 l -0.389763,0.389764 c 0.212598,0.212598 0.283464,0.496063 0.283464,0.81496 l 0.531496,0 c 0.07087,0 0.177166,0.106299 0.177166,0.177166 0,0.106299 -0.1063,0.212598 -0.177166,0.212598 l -0.531496,0 c 0,0.283465 -0.177165,0.496063 -0.283464,0.814961 l 0.389763,0.389763 z"
         id="path3075"
         style="fill:#ffffff;fill-opacity:1;fill-rule:nonzero;stroke:none" />
      <path
         d="m 18.389764,12.330709 c -0.496063,0 -0.992126,0.389764 -0.992126,0.992126 0,0.602362 0.389764,0.992126 0.992126,0.992126 0.496063,0 1.027559,-0.389764 1.027559,-0.992126 0,-0.602362 -0.531496,-0.992126 -1.027559,-0.992126 z m 0,1.38189 c -0.283465,0 -0.496063,-0.177166 -0.496063,-0.496063 0,-0.283465 0.212598,-0.496063 0.496063,-0.496063 0.318898,0 0.496063,0.212598 0.496063,0.496063 -0.07087,0.318897 -0.283465,0.496063 -0.496063,0.496063 z"
         id="path3077"
         style="fill:#ffffff;fill-opacity:1;fill-rule:nonzero;stroke:none" />
      <path
         d="m 24.696851,17.043307 c 0.318897,0 0.602362,-0.318897 0.602362,-0.602362 0,-0.318898 -0.283465,-0.602362 -0.602362,-0.602362 l -0.1063,0 c 0,-0.106299 0,-0.106299 -0.106299,-0.212599 l 0.106299,-0.106299 c 0.212599,-0.177165 0.212599,-0.602362 0,-0.779527 -0.177165,-0.212599 -0.602362,-0.212599 -0.779527,0 l -0.106299,0.106299 c -0.1063,0 -0.1063,-0.106299 -0.212599,-0.106299 l 0,-0.1063 c 0,-0.318897 -0.283464,-0.602362 -0.602362,-0.602362 -0.283465,0 -0.602362,0.283465 -0.602362,0.602362 l 0,0.1063 c -0.07087,0 -0.07087,0 -0.177166,0.106299 l -0.106299,-0.106299 c -0.212598,-0.212599 -0.602362,-0.212599 -0.81496,0 -0.177166,0.177165 -0.177166,0.602362 0,0.779527 l 0.106299,0.106299 c 0,0.1063 -0.106299,0.1063 -0.106299,0.212599 l -0.1063,0 c -0.283464,0 -0.566929,0.283464 -0.566929,0.602362 0,0.283465 0.283465,0.602362 0.566929,0.602362 l 0.318898,0 c 0,0.07087 0,0.07087 0.106299,0.177166 l -0.106299,0.106299 c -0.212598,0.212598 -0.212598,0.602362 0,0.814961 0.212599,0.177165 0.602362,0.177165 0.814961,0 l 0.07087,-0.1063 c 0.106299,0 0.106299,0.1063 0.212598,0.1063 l 0,0.07087 c 0,0.318897 0.283465,0.602362 0.602362,0.602362 0.283465,0 0.602363,-0.283465 0.602363,-0.602362 l 0,-0.07087 c 0.106299,0 0.106299,0 0.212598,-0.1063 l 0.07087,0.1063 c 0.212599,0.177165 0.602362,0.177165 0.814961,0 0.212598,-0.212599 0.212598,-0.602363 0,-0.814961 l -0.106299,-0.106299 c 0,-0.1063 0,-0.1063 0.106299,-0.177166 l -0.106299,0 0,0 z m -0.389764,0.496063 c 0.106299,0.1063 0.106299,0.177166 0,0.283465 -0.106299,0.106299 -0.212599,0.106299 -0.318898,0 L 23.704725,17.53937 c -0.212599,0.1063 -0.389764,0.177166 -0.602363,0.177166 l 0,0.425197 c 0,0.07087 -0.106299,0.177165 -0.212598,0.177165 -0.106299,0 -0.177165,-0.106299 -0.177165,-0.177165 l 0,-0.425197 c -0.212599,0 -0.425197,-0.07087 -0.602363,-0.177166 l -0.318897,0.283465 c -0.106299,0.106299 -0.177165,0.106299 -0.283465,0 -0.106299,-0.106299 -0.106299,-0.177165 0,-0.283465 l 0.283465,-0.318897 C 21.68504,17.043307 21.614174,16.830709 21.614174,16.61811 l -0.425197,0 c -0.1063,0 -0.177166,-0.106299 -0.177166,-0.177165 0,-0.106299 0.07087,-0.212598 0.177166,-0.212598 l 0.425197,0 c 0,-0.212599 0.07087,-0.389764 0.177165,-0.602363 L 21.507874,15.34252 c -0.106299,-0.106299 -0.106299,-0.212599 0,-0.318898 0.1063,-0.106299 0.177166,-0.106299 0.283465,0 l 0.318897,0.318898 C 22.287402,15.236221 22.5,15.129921 22.712599,15.129921 l 0,-0.389763 c 0,-0.1063 0.07087,-0.212599 0.177165,-0.212599 0.106299,0 0.212598,0.106299 0.212598,0.212599 l 0,0.389763 c 0.212599,0 0.389764,0.1063 0.602363,0.212599 l 0.283464,-0.318898 c 0.106299,-0.106299 0.212599,-0.106299 0.318898,0 0.106299,0.106299 0.106299,0.212599 0,0.318898 l -0.318898,0.283464 c 0.106299,0.212599 0.212599,0.389764 0.212599,0.602363 l 0.389763,0 c 0.1063,0 0.212599,0.106299 0.212599,0.212598 0,0.07087 -0.106299,0.177165 -0.212599,0.177165 l -0.389763,0 c 0,0.212599 -0.1063,0.425197 -0.212599,0.602363 l 0.318898,0.318897 z"
         id="path3079"
         style="fill:#ffffff;fill-opacity:1;fill-rule:nonzero;stroke:none" />
      <path
         d="m 22.996063,15.732284 c -0.389764,0 -0.779527,0.283464 -0.779527,0.779527 0,0.425197 0.283464,0.814961 0.779527,0.814961 0.496063,0 0.814961,-0.283465 0.814961,-0.814961 0,-0.389764 -0.425197,-0.779527 -0.814961,-0.779527 z m 0,1.098425 c -0.212598,0 -0.389764,-0.212599 -0.389764,-0.389764 0,-0.212598 0.177166,-0.425197 0.389764,-0.425197 0.212599,0 0.389764,0.212599 0.389764,0.425197 0,0.283465 -0.177165,0.389764 -0.389764,0.389764 z"
         id="path3081"
         style="fill:#ffffff;fill-opacity:1;fill-rule:nonzero;stroke:none" />
      <path
         d="m 25.192914,12.543307 c 0.318897,0 0.602362,-0.318897 0.602362,-0.602362 0,-0.318898 -0.283465,-0.602362 -0.602362,-0.602362 l -0.1063,0 c 0,-0.106299 0,-0.106299 -0.07087,-0.212599 l 0.07087,-0.106299 c 0.212599,-0.177165 0.212599,-0.602362 0,-0.779527 -0.177165,-0.212599 -0.602362,-0.212599 -0.779527,0 l -0.106299,0.106299 c -0.1063,0 -0.1063,-0.106299 -0.212599,-0.106299 l 0,-0.1063 c 0,-0.3188972 -0.283464,-0.6023618 -0.602362,-0.6023618 -0.283465,0 -0.602362,0.2834646 -0.602362,0.6023618 l 0,0.1063 c -0.07087,0 -0.07087,0 -0.177166,0.106299 L 22.5,10.240158 c -0.212598,-0.212599 -0.602362,-0.212599 -0.81496,0 -0.177166,0.177165 -0.177166,0.602362 0,0.779527 l 0.106299,0.106299 c 0,0.1063 -0.106299,0.1063 -0.106299,0.212599 l -0.07087,0 c -0.318898,0 -0.602363,0.283464 -0.602363,0.602362 0,0.283465 0.283465,0.602362 0.602363,0.602362 l 0.07087,0 c 0,0.07087 0,0.07087 0.106299,0.177166 l -0.106299,0.106299 c -0.177166,0.212598 -0.177166,0.602362 0,0.81496 0.212598,0.177166 0.602362,0.177166 0.81496,0 l 0.106299,-0.106299 c 0.1063,0 0.1063,0.106299 0.177166,0.106299 l 0,0.07087 c 0,0.318897 0.318897,0.602362 0.602362,0.602362 0.318898,0 0.602362,-0.283465 0.602362,-0.602362 l 0,-0.07087 c 0.106299,0 0.106299,0 0.212599,-0.106299 l 0.106299,0.106299 c 0.177165,0.177166 0.602362,0.177166 0.779527,0 0.212599,-0.212598 0.212599,-0.602362 0,-0.81496 l -0.07087,-0.106299 c 0,-0.1063 0,-0.1063 0.07087,-0.177166 l 0.1063,0 0,0 z M 24.80315,13.03937 c 0.106299,0.106299 0.106299,0.177166 0,0.283465 -0.106299,0.106299 -0.212599,0.106299 -0.318898,0 L 24.200788,13.03937 c -0.212599,0.106299 -0.389764,0.177166 -0.602363,0.177166 l 0,0.425196 c 0,0.07087 -0.106299,0.177166 -0.212598,0.177166 -0.07087,0 -0.177165,-0.106299 -0.177165,-0.177166 l 0,-0.425196 c -0.212599,0 -0.425197,-0.07087 -0.602363,-0.177166 l -0.318897,0.283465 c -0.07087,0.106299 -0.177166,0.106299 -0.283465,0 -0.106299,-0.106299 -0.106299,-0.177166 0,-0.283465 l 0.283465,-0.318897 c -0.07087,-0.177166 -0.177166,-0.389764 -0.177166,-0.602363 l -0.425196,0 c -0.07087,0 -0.177166,-0.106299 -0.177166,-0.177165 0,-0.106299 0.1063,-0.212598 0.177166,-0.212598 l 0.425196,0 c 0,-0.212599 0.1063,-0.389764 0.177166,-0.602363 L 22.003937,10.84252 c -0.106299,-0.106299 -0.106299,-0.212599 0,-0.318898 0.106299,-0.106299 0.212599,-0.106299 0.283465,0 l 0.318897,0.318898 c 0.177166,-0.106299 0.389764,-0.212599 0.602363,-0.212599 l 0,-0.389763 c 0,-0.1063 0.106299,-0.212599 0.177165,-0.212599 0.106299,0 0.212598,0.106299 0.212598,0.212599 l 0,0.389763 c 0.212599,0 0.389764,0.1063 0.602363,0.212599 l 0.283464,-0.318898 c 0.106299,-0.106299 0.212599,-0.106299 0.318898,0 0.106299,0.106299 0.106299,0.212599 0,0.318898 l -0.318898,0.283464 c 0.106299,0.212599 0.212599,0.389764 0.212599,0.602363 l 0.389763,0 c 0.1063,0 0.212599,0.106299 0.212599,0.212598 0,0.07087 -0.106299,0.177165 -0.212599,0.177165 l -0.389763,0 c 0,0.212599 -0.1063,0.425197 -0.212599,0.602363 l 0.318898,0.318897 z"
         id="path3083"
         style="fill:#ffffff;fill-opacity:1;fill-rule:nonzero;stroke:none" />
      <path
         d="m 23.492126,11.232284 c -0.389764,0 -0.779527,0.283464 -0.779527,0.779527 0,0.531496 0.283464,0.814961 0.779527,0.814961 0.425197,0 0.814961,-0.283465 0.814961,-0.814961 0,-0.496063 -0.389764,-0.779527 -0.814961,-0.779527 z m 0,1.098425 c -0.177165,0 -0.389764,-0.212599 -0.389764,-0.389764 0,-0.212598 0.212599,-0.425197 0.389764,-0.425197 0.212599,0 0.425197,0.212599 0.425197,0.425197 0,0.177165 -0.212598,0.389764 -0.425197,0.389764 z"
         id="path3085"
         style="fill:#ffffff;fill-opacity:1;fill-rule:nonzero;stroke:none" />
    </g>
  </g>
</svg>
