<?xml version="1.0" encoding="UTF-8" standalone="no"?>
<!-- Created with Inkscape (http://www.inkscape.org/) -->

<svg
   xmlns:dc="http://purl.org/dc/elements/1.1/"
   xmlns:cc="http://creativecommons.org/ns#"
   xmlns:rdf="http://www.w3.org/1999/02/22-rdf-syntax-ns#"
   xmlns:svg="http://www.w3.org/2000/svg"
   xmlns="http://www.w3.org/2000/svg"
   version="1.1"
   width="40"
   height="40"
   id="svg3315">
  <defs
     id="defs3317" />
  <metadata
     id="metadata3320">
    <rdf:RDF>
      <cc:Work
         rdf:about="">
        <dc:format>image/svg+xml</dc:format>
        <dc:type
           rdf:resource="http://purl.org/dc/dcmitype/StillImage" />
        <dc:title></dc:title>
      </cc:Work>
    </rdf:RDF>
  </metadata>
  <g
     transform="matrix(0.99007901,0,0,0.99009902,6.6104396,2.0338976)"
     id="g3444">
    <path
       d="m 13.523321,38.345763 c -11.1999999,0 -20.1999999,-9.1 -20.1999999,-20.2 0,-11.1999996 9.1,-20.1999996 20.1999999,-20.1999996 11.1,0 20.2,9.1 20.2,20.1999996 0.1,11.1 -9,20.2 -20.2,20.2 z m 0,-36.4999996 c -8.9999999,0 -16.1999999,7.3 -16.1999999,16.1999996 0,8.9 7.3,16.2 16.1999999,16.2 9,0 16.2,-7.3 16.2,-16.2 0,-8.8999996 -7.2,-16.1999996 -16.2,-16.1999996 z"
       id="path37"
       style="fill:#585858" />
    <path
       d="m 12.123321,14.245763 c 0.1,0 0.1,0 0.2,0 3.1,0 6.1,0 9.2,0 0.9,0 1.5,0.9 1,1.7 -0.2,0.4 -0.6,0.6 -1.1,0.6 -1.8,0 -3.7,0 -5.5,0 -0.3,0 -0.5,0.2 -0.4,0.5 0,0.2 0.2,0.2 0.3,0.3 0.1,0 0.1,0 0.2,0 2.3,0 -1.3,0 1,0 0.7,0 1.2,0.4 1.2,1.1 0,0.6 -0.4,1.1 -1,1.2 -0.2,0 -0.4,0 -0.6,0 -2.2,0 1.6,0 -0.7,0 -0.1,0 -0.2,0 -0.2,0 -0.2,0 -0.3,0.2 -0.3,0.4 0,0.2 0.1,0.3 0.3,0.4 0.1,0 0.2,0 0.2,0 2,0 -2,0 0,0 0.4,0 0.8,0 1.1,0.3 0.3,0.3 0.5,0.8 0.3,1.2 -0.1,0.4 -0.5,0.8 -1,0.8 -0.1,0 -0.3,0 -0.4,0 -2.2,0 1.5,0 -0.7,0 -0.1,0 -0.2,0 -0.3,0 -0.2,0 -0.3,0.2 -0.3,0.4 0,0.2 0.2,0.3 0.3,0.3 0.1,0 0.1,0 0.2,0 1.6,0 -1.9,0 -0.3,0 0.8,0 1.3,0.5 1.3,1.2 0,0.6 -0.5,1.1 -1.1,1.1 -0.1,0 -0.2,0 -0.3,0 -3.3,0 -1.6,0 -4.9999999,0 -0.8,0 -1.6,-0.1 -2.4,-0.5 -1.5,-0.6 -2.4,-1.8 -2.8,-3.3 -0.3,-1.1 -0.3,-2.3 -0.1,-3.4 0.2,-1.1 0.5,-2.2 1.2,-3.1 0.4,-0.6 1,-1.1 1.6,-1.5 1.8,-1.2 3.4999999,-2.3 5.2999999,-3.5 0.5,-0.3 1,-0.4 1.5,-0.2 0.7,0.3 1,1.2 0.6,1.9 -0.1,0.2 -0.4,0.5 -0.6,0.6 -0.6,0.5 -1.2,0.9 -1.9,1.4 0.1,0 0,0 0,0.1 0,0 0,0 0,0 z"
       id="path39"
       style="fill:#585858" />
  </g>
</svg>
