<?xml version="1.0" encoding="utf-8"?>
<!-- Generator: Adobe Illustrator 18.1.1, SVG Export Plug-In . SVG Version: 6.00 Build 0)  -->
<svg version="1.1" id="Layer_1" xmlns="http://www.w3.org/2000/svg" xmlns:xlink="http://www.w3.org/1999/xlink" x="0px" y="0px"
	 width="40.4px" height="40.4px" viewBox="0 0 40.4 40.4" enable-background="new 0 0 40.4 40.4" xml:space="preserve">
<g>
	<g>
		<path id="path3117_1_" fill="#585858" d="M20.2,40.4C9,40.4,0,31.3,0,20.2C0,9,9.1,0,20.2,0c11.1,0,20.2,9.1,20.2,20.2
			C40.5,31.3,31.4,40.4,20.2,40.4z M20.2,3.9C11.2,3.9,4,11.2,4,20.1c0,8.9,7.3,16.2,16.2,16.2c9,0,16.2-7.3,16.2-16.2
			C36.4,11.2,29.2,3.9,20.2,3.9z"/>
		<g>
			<path fill="#585858" d="M21,11.2v-0.5c0-0.2-0.2-0.4-0.4-0.4s-0.4,0.2-0.4,0.4v0.6c-1.7,0.6-1.6,4.5-1.6,9.1h4.1
				C22.7,16,22.9,11.6,21,11.2z"/>
			<path fill="#585858" d="M18.6,26L18.6,26l0,2.1c0,0.6,0.6,0.6,0.6,0.6h2.9c0,0,0.6,0,0.6-0.6h0V27v-1v-5.1l-4.1,0L18.6,26z"/>
		</g>
		<g>
			<path fill="#585858" d="M29.9,28.2v-1.9h-4.5v1.9c0,0.6,0.6,0.6,0.6,0.6h3.3C29.3,28.7,29.9,28.7,29.9,28.2L29.9,28.2z"/>
			<g>
				<rect x="27" y="16.2" fill="#585858" width="1.4" height="9.4"/>
				<polygon fill="#585858" points="27.7,11.7 26.5,13.3 28.8,13.3 				"/>
				<rect x="25.4" y="16.2" fill="#585858" width="1.1" height="9.4"/>
				<rect x="28.9" y="16.2" fill="#585858" width="1" height="9.4"/>
			</g>
		</g>
		<g>
			<path fill="#585858" d="M15.6,28.2v-1.9h-4.5v1.9c0,0.6,0.6,0.6,0.6,0.6H15C15,28.7,15.6,28.7,15.6,28.2L15.6,28.2z"/>
			<g>
				<polygon fill="#585858" points="13.3,11.7 12.2,13.3 14.5,13.3 				"/>
				<rect x="11.1" y="16.2" fill="#585858" width="4.5" height="9.4"/>
			</g>
		</g>
	</g>
</g>
</svg>
