<?xml version="1.0" encoding="UTF-8" standalone="no"?>
<!-- Created with Inkscape (http://www.inkscape.org/) -->

<svg
   xmlns:dc="http://purl.org/dc/elements/1.1/"
   xmlns:cc="http://creativecommons.org/ns#"
   xmlns:rdf="http://www.w3.org/1999/02/22-rdf-syntax-ns#"
   xmlns:svg="http://www.w3.org/2000/svg"
   xmlns="http://www.w3.org/2000/svg"
   version="1.1"
   width="40"
   height="40"
   id="svg3315">
  <defs
     id="defs3317" />
  <metadata
     id="metadata3320">
    <rdf:RDF>
      <cc:Work
         rdf:about="">
        <dc:format>image/svg+xml</dc:format>
        <dc:type
           rdf:resource="http://purl.org/dc/dcmitype/StillImage" />
        <dc:title></dc:title>
      </cc:Work>
    </rdf:RDF>
  </metadata>
  <g
     transform="matrix(0.990079,0,0,0.99009901,0.3393795,-1.1864415)"
     id="g3457">
    <path
       d="m 19.85722,41.598306 c -11.2000003,0 -20.20000031,-9.1 -20.20000031,-20.2 0,-11.2 9.10000001,-20.2000001 20.20000031,-20.2000001 11.1,0 20.2,9.1000001 20.2,20.2000001 0.1,11.1 -9,20.2 -20.2,20.2 z m 0,-36.5000001 c -9,0 -16.2000003,7.3000001 -16.2000003,16.2000001 0,8.9 7.3000003,16.2 16.2000003,16.2 9,0 16.2,-7.3 16.2,-16.2 0,-8.9 -7.2,-16.2000001 -16.2,-16.2000001 z"
       id="path28"
       style="fill:#585858" />
    <path
       d="m 18.45722,12.398306 v 13.6 l -3.3,-3.3 c -0.3,-0.3 -0.6,-0.4 -1,-0.4 -0.7,0 -1.4,0.6 -1.4,1.4 0,0.4 0.1,0.7 0.4,1 l 5.6,5.6 c 0.2,0.2 0.5,0.5 1,0.5 0.5,0 0.8,-0.2 1,-0.5 l 5.6,-5.6 c 0.3,-0.3 0.4,-0.6 0.4,-1 0,-0.8 -0.7,-1.4 -1.4,-1.4 -0.4,0 -0.7,0.1 -1,0.4 l -3.3,3.3 v -13.6 c 0,-0.8 -0.6,-1.4 -1.4,-1.4 -0.8,0 -1.2,0.6 -1.2,1.4 z"
       id="path30"
       style="fill:#585858" />
  </g>
</svg>
