<?xml version="1.0" encoding="UTF-8" standalone="no"?>
<!-- Created with Inkscape (http://www.inkscape.org/) -->

<svg
   xmlns:dc="http://purl.org/dc/elements/1.1/"
   xmlns:cc="http://creativecommons.org/ns#"
   xmlns:rdf="http://www.w3.org/1999/02/22-rdf-syntax-ns#"
   xmlns:svg="http://www.w3.org/2000/svg"
   xmlns="http://www.w3.org/2000/svg"
   version="1.1"
   width="40.400002"
   height="40.400002"
   id="svg3315">
  <defs
     id="defs3317" />
  <metadata
     id="metadata3320">
    <rdf:RDF>
      <cc:Work
         rdf:about="">
        <dc:format>image/svg+xml</dc:format>
        <dc:type
           rdf:resource="http://purl.org/dc/dcmitype/StillImage" />
        <dc:title></dc:title>
      </cc:Work>
    </rdf:RDF>
  </metadata>
  <g
     transform="translate(7.3610174,-3.766102)"
     id="g3426">
    <path
       d="m 12.838575,44.166103 c -11.1999996,0 -20.1999996,-9.1 -20.1999996,-20.2 0,-11.2 9.1,-20.2000004 20.1999996,-20.2000004 11.1,0 20.2,9.1000004 20.2,20.2000004 0.1,11.1 -9,20.2 -20.2,20.2 z m 0,-36.5000004 c -8.9999996,0 -16.1999996,7.3000004 -16.1999996,16.2000004 0,8.9 7.3,16.2 16.1999996,16.2 9,0 16.2,-7.3 16.2,-16.2 0,-8.9 -7.2,-16.2000004 -16.2,-16.2000004 z"
       id="path46"
       style="fill:#585858" />
    <path
       d="m 12.138575,24.166103 c 0.9,0 1.6,-0.7 1.6,-1.6 0,-0.9 -0.7,-1.6 -1.6,-1.6 h -0.3 c -0.1,-0.2 -0.1,-0.3 -0.2,-0.5 l 0.2,-0.2 c 0.6,-0.6 0.6,-1.7 0,-2.3 -0.6,-0.6 -1.7,-0.6 -2.2999996,0 l -0.2,0.2 c -0.2,-0.1 -0.3,-0.1 -0.5,-0.2 v -0.3 c 0,-0.9 -0.7,-1.6 -1.6,-1.6 -0.9,0 -1.6,0.7 -1.6,1.6 v 0.3 c -0.2,0.1 -0.3,0.1 -0.5,0.2 l -0.2,-0.2 c -0.6,-0.6 -1.7,-0.6 -2.3,0 -0.6,0.6 -0.6,1.7 0,2.3 l 0.2,0.2 c -0.1,0.2 -0.2,0.3 -0.2,0.5 h -0.3 c -0.9,0 -1.60000004,0.7 -1.60000004,1.6 0,0.9 0.70000004,1.6 1.60000004,1.6 h 0.3 c 0.1,0.2 0.1,0.3 0.2,0.5 l -0.2,0.2 c -0.6,0.6 -0.6,1.7 0,2.3 0.6,0.6 1.7,0.6 2.3,0 l 0.2,-0.2 c 0.2,0.1 0.3,0.1 0.5,0.2 v 0.3 c 0,0.9 0.7,1.6 1.6,1.6 0.9,0 1.6,-0.7 1.6,-1.6 v -0.3 c 0.2,-0.1 0.3,-0.1 0.5,-0.2 l 0.2,0.2 c 0.5999996,0.6 1.6999996,0.6 2.2999996,0 0.6,-0.6 0.6,-1.7 0,-2.3 l -0.2,-0.2 c 0.1,-0.2 0.1,-0.3 0.2,-0.5 h 0.3 l 0,0 z m -1.1,1.5 c 0.2,0.2 0.2,0.6 0,0.8 -0.2,0.2 -0.6,0.2 -0.8,0 l -0.7999996,-0.8 c -0.5,0.4 -1.1,0.6 -1.7,0.7 v 1.1 c 0,0.3 -0.2,0.5 -0.5,0.5 -0.3,0 -0.5,-0.2 -0.5,-0.5 v -1.1 c -0.6,-0.1 -1.2,-0.3 -1.7,-0.7 l -0.8,0.8 c -0.2,0.2 -0.6,0.2 -0.8,0 -0.2,-0.2 -0.2,-0.6 0,-0.8 l 0.8,-0.8 c -0.4,-0.5 -0.6,-1.1 -0.7,-1.7 h -1.1 c -0.3,0 -0.5,-0.2 -0.5,-0.5 0,-0.3 0.2,-0.5 0.5,-0.5 h 1.1 c 0.1,-0.6 0.3,-1.2 0.7,-1.7 l -0.8,-0.8 c -0.2,-0.2 -0.2,-0.6 0,-0.8 0.2,-0.2 0.6,-0.2 0.8,0 l 0.8,0.8 c 0.5,-0.4 1.1,-0.6 1.7,-0.7 v -1.1 c 0,-0.3 0.2,-0.5 0.5,-0.5 0.3,0 0.5,0.2 0.5,0.5 v 1.1 c 0.6,0.1 1.2,0.3 1.7,0.7 l 0.7999996,-0.8 c 0.2,-0.2 0.6,-0.2 0.8,0 0.2,0.2 0.2,0.6 0,0.8 l -0.8,0.8 c 0.4,0.5 0.6,1.1 0.7,1.7 h 1.1 c 0.3,0 0.5,0.2 0.5,0.5 0,0.3 -0.2,0.5 -0.5,0.5 h -1.1 c -0.1,0.6 -0.3,1.2 -0.7,1.7 l 0.8,0.8 z"
       id="path48"
       style="fill:#585858" />
    <path
       d="m 7.1385754,20.366103 c -1.2,0 -2.2,1 -2.2,2.2 0,1.2 1,2.2 2.2,2.2 1.2,0 2.2,-1 2.2,-2.2 0,-1.2 -1,-2.2 -2.2,-2.2 z m 0,3.3 c -0.6,0 -1.1,-0.5 -1.1,-1.1 0,-0.6 0.5,-1.1 1.1,-1.1 0.6,0 1.1,0.5 1.1,1.1 0,0.6 -0.5,1.1 -1.1,1.1 z"
       id="path50"
       style="fill:#585858" />
    <path
       d="m 21.538575,31.066103 c 0.7,0 1.3,-0.6 1.3,-1.3 0,-0.7 -0.6,-1.3 -1.3,-1.3 h -0.2 c 0,-0.1 -0.1,-0.3 -0.2,-0.4 l 0.2,-0.2 c 0.5,-0.5 0.5,-1.3 0,-1.8 -0.5,-0.5 -1.3,-0.5 -1.8,0 l -0.2,0.2 c -0.1,-0.1 -0.3,-0.1 -0.4,-0.2 v -0.2 c 0,-0.7 -0.6,-1.3 -1.3,-1.3 -0.7,0 -1.3,0.6 -1.3,1.3 v 0.2 c -0.1,0 -0.3,0.1 -0.4,0.2 l -0.2,-0.2 c -0.5,-0.5 -1.3,-0.5 -1.8,0 -0.5,0.5 -0.5,1.3 0,1.8 l 0.2,0.2 c -0.1,0.1 -0.1,0.3 -0.2,0.4 h -0.2 c -0.7,0 -1.3,0.6 -1.3,1.3 0,0.7 0.6,1.3 1.3,1.3 h 0.2 c 0,0.1 0.1,0.3 0.2,0.4 l -0.2,0.2 c -0.5,0.5 -0.5,1.3 0,1.8 0.5,0.5 1.3,0.5 1.8,0 l 0.2,-0.2 c 0.1,0.1 0.3,0.1 0.4,0.2 v 0.2 c 0,0.7 0.6,1.3 1.3,1.3 0.7,0 1.3,-0.6 1.3,-1.3 v -0.2 c 0.1,0 0.3,-0.1 0.4,-0.2 l 0.2,0.2 c 0.5,0.5 1.3,0.5 1.8,0 0.5,-0.5 0.5,-1.3 0,-1.8 l -0.2,-0.2 c 0.1,-0.1 0.1,-0.2 0.2,-0.4 h 0.2 l 0,0 z m -0.8,1.2 c 0.2,0.2 0.2,0.4 0,0.6 -0.2,0.2 -0.4,0.2 -0.6,0 l -0.6,-0.6 c -0.4,0.3 -0.9,0.5 -1.4,0.6 v 0.9 c 0,0.2 -0.2,0.4 -0.4,0.4 -0.2,0 -0.4,-0.2 -0.4,-0.4 v -0.9 c -0.5,-0.1 -1,-0.3 -1.4,-0.6 l -0.6,0.6 c -0.2,0.2 -0.4,0.2 -0.6,0 -0.2,-0.2 -0.2,-0.4 0,-0.6 l 0.6,-0.6 c -0.3,-0.4 -0.5,-0.9 -0.6,-1.4 h -0.9 c -0.2,0 -0.4,-0.2 -0.4,-0.4 0,-0.2 0.2,-0.4 0.4,-0.4 h 0.9 c 0.1,-0.5 0.3,-1 0.6,-1.4 l -0.6,-0.6 c -0.2,-0.2 -0.2,-0.4 0,-0.6 0.2,-0.2 0.4,-0.2 0.6,0 l 0.6,0.6 c 0.4,-0.3 0.9,-0.5 1.4,-0.6 v -0.9 c 0,-0.2 0.2,-0.4 0.4,-0.4 0.2,0 0.4,0.2 0.4,0.4 v 0.9 c 0.5,0.1 1,0.3 1.4,0.6 l 0.6,-0.6 c 0.2,-0.2 0.4,-0.2 0.6,0 0.2,0.2 0.2,0.4 0,0.6 l -0.6,0.6 c 0.3,0.4 0.5,0.9 0.6,1.4 h 0.9 c 0.2,0 0.4,0.2 0.4,0.4 0,0.2 -0.2,0.4 -0.4,0.4 h -0.9 c -0.1,0.5 -0.3,1 -0.6,1.4 l 0.6,0.6 z"
       id="path52"
       style="fill:#585858" />
    <path
       d="m 17.738575,28.166103 c -0.9,0 -1.7,0.8 -1.7,1.7 0,0.9 0.8,1.7 1.7,1.7 0.9,0 1.7,-0.8 1.7,-1.7 0,-1 -0.8,-1.7 -1.7,-1.7 z m 0,2.5 c -0.5,0 -0.9,-0.4 -0.9,-0.9 0,-0.5 0.4,-0.9 0.9,-0.9 0.5,0 0.9,0.4 0.9,0.9 -0.1,0.5 -0.5,0.9 -0.9,0.9 z"
       id="path54"
       style="fill:#585858" />
    <path
       d="m 22.638575,20.866103 c 0.7,0 1.3,-0.6 1.3,-1.3 0,-0.7 -0.6,-1.3 -1.3,-1.3 h -0.2 c 0,-0.1 -0.1,-0.3 -0.2,-0.4 l 0.2,-0.2 c 0.5,-0.5 0.5,-1.3 0,-1.8 -0.5,-0.5 -1.3,-0.5 -1.8,0 l -0.2,0.2 c -0.1,-0.1 -0.3,-0.1 -0.4,-0.2 v -0.2 c 0,-0.7 -0.6,-1.3 -1.3,-1.3 -0.7,0 -1.3,0.6 -1.3,1.3 v 0.2 c -0.1,0 -0.3,0.1 -0.4,0.2 l -0.2,-0.2 c -0.5,-0.5 -1.3,-0.5 -1.8,0 -0.5,0.5 -0.5,1.3 0,1.8 l 0.2,0.2 c -0.1,0.1 -0.1,0.3 -0.2,0.4 h -0.2 c -0.7,0 -1.3,0.6 -1.3,1.3 0,0.7 0.6,1.3 1.3,1.3 h 0.2 c 0,0.1 0.1,0.3 0.2,0.4 l -0.2,0.2 c -0.5,0.5 -0.5,1.3 0,1.8 0.5,0.5 1.3,0.5 1.8,0 l 0.2,-0.2 c 0.1,0.1 0.3,0.1 0.4,0.2 v 0.2 c 0,0.7 0.6,1.3 1.3,1.3 0.7,0 1.3,-0.6 1.3,-1.3 v -0.2 c 0.1,0 0.3,-0.1 0.4,-0.2 l 0.2,0.2 c 0.5,0.5 1.3,0.5 1.8,0 0.5,-0.5 0.5,-1.3 0,-1.8 l -0.2,-0.2 c 0.1,-0.1 0.1,-0.2 0.2,-0.4 h 0.2 l 0,0 z m -0.8,1.2 c 0.2,0.2 0.2,0.4 0,0.6 -0.2,0.2 -0.4,0.2 -0.6,0 l -0.6,-0.6 c -0.4,0.3 -0.9,0.5 -1.4,0.6 v 0.9 c 0,0.2 -0.2,0.4 -0.4,0.4 -0.2,0 -0.4,-0.2 -0.4,-0.4 v -0.9 c -0.5,-0.1 -1,-0.3 -1.4,-0.6 l -0.6,0.6 c -0.2,0.2 -0.4,0.2 -0.6,0 -0.2,-0.2 -0.2,-0.4 0,-0.6 l 0.6,-0.6 c -0.3,-0.4 -0.5,-0.9 -0.6,-1.4 h -0.8 c -0.2,0 -0.4,-0.2 -0.4,-0.4 0,-0.2 0.2,-0.4 0.4,-0.4 h 0.9 c 0.1,-0.5 0.3,-1 0.6,-1.4 l -0.6,-0.6 c -0.2,-0.2 -0.2,-0.4 0,-0.6 0.2,-0.2 0.4,-0.2 0.6,0 l 0.6,0.6 c 0.4,-0.3 0.9,-0.5 1.4,-0.6 v -0.9 c 0,-0.2 0.2,-0.4 0.4,-0.4 0.2,0 0.4,0.2 0.4,0.4 v 0.9 c 0.5,0.1 1,0.3 1.4,0.6 l 0.6,-0.6 c 0.2,-0.2 0.4,-0.2 0.6,0 0.2,0.2 0.2,0.4 0,0.6 l -0.6,0.6 c 0.3,0.4 0.5,0.9 0.6,1.4 h 0.9 c 0.2,0 0.4,0.2 0.4,0.4 0,0.2 -0.2,0.4 -0.4,0.4 h -0.9 c -0.1,0.5 -0.3,1 -0.6,1.4 l 0.5,0.6 z"
       id="path56"
       style="fill:#585858" />
    <path
       d="m 18.838575,17.866103 c -0.9,0 -1.7,0.8 -1.7,1.7 0,0.9 0.8,1.7 1.7,1.7 0.9,0 1.7,-0.8 1.7,-1.7 0,-0.9 -0.8,-1.7 -1.7,-1.7 z m 0,2.6 c -0.5,0 -0.9,-0.4 -0.9,-0.9 0,-0.5 0.4,-0.9 0.9,-0.9 0.5,0 0.9,0.4 0.9,0.9 0,0.5 -0.4,0.9 -0.9,0.9 z"
       id="path58"
       style="fill:#585858" />
  </g>
</svg>
