<?xml version="1.0" encoding="UTF-8" standalone="no"?>
<!-- Created with Inkscape (http://www.inkscape.org/) -->

<svg
   xmlns:dc="http://purl.org/dc/elements/1.1/"
   xmlns:cc="http://creativecommons.org/ns#"
   xmlns:rdf="http://www.w3.org/1999/02/22-rdf-syntax-ns#"
   xmlns:svg="http://www.w3.org/2000/svg"
   xmlns="http://www.w3.org/2000/svg"
   version="1.1"
   width="40"
   height="40"
   viewBox="0 0 39.999998 39.999998"
   id="Layer_1"
   xml:space="preserve"><metadata
   id="metadata23"><rdf:RDF><cc:Work
       rdf:about=""><dc:format>image/svg+xml</dc:format><dc:type
         rdf:resource="http://purl.org/dc/dcmitype/StillImage" /><dc:title></dc:title></cc:Work></rdf:RDF></metadata><defs
   id="defs21" />
<g
   transform="matrix(0.99024766,0,0,0.99024766,-0.00297072,-0.00300373)"
   id="g3">
	<path
   d="M 20.2,40.397 C 9.003,40.397 0.003,31.291 0.003,20.2 0.003,9.003 9.109,0.003 20.2,0.003 c 11.09,0 20.196,9.106 20.196,20.197 0.107,11.091 -9,20.197 -20.196,20.197 z m 0,-36.496 c -9,0 -16.193,7.299 -16.193,16.192 0,8.893 7.299,16.194 16.193,16.194 9,0 16.192,-7.3 16.192,-16.193 C 36.392,11.201 29.2,3.901 20.2,3.901 z"
   id="path3225_7_"
   style="fill:#585858" />
	<path
   d="m 28.776,21.55 c 1.88,0 3.433,-1.471 3.433,-3.433 0,-1.88 -1.553,-3.434 -3.433,-3.434 -1.882,0 -3.435,1.553 -3.435,3.434 0.083,1.962 1.637,3.433 3.435,3.433 z"
   id="path146_1_"
   style="fill:#585858" />
	<g
   id="g7">
		<g
   id="g9">
			<g
   id="g11">
				<path
   d="m 28.014,12.841 c 0,-0.462 -0.376,-0.835 -0.835,-0.835 h -15.2 c -0.459,0 -0.833,0.374 -0.833,0.835 v 13.346 c 0,0.46 0.374,0.834 0.833,0.834 h 11.209 l -0.053,1.668 H 11.979 c -1.379,0 -2.502,-1.123 -2.502,-2.502 V 12.84 c 0,-1.382 1.123,-2.502 2.502,-2.502 h 15.2 c 1.38,0 2.502,1.121 2.502,2.503 l -0.057,0.44 -1.567,-0.103 -0.043,-0.337 z"
   id="path13"
   style="fill:#585858" />
			</g>
		</g>
	</g>
	<g
   id="g15">
		<path
   d="m 32.209,22.368 h -3.433 l -3.904,0.033 c 0,0 -7.467,-0.215 -7.702,-0.215 -0.049,0 -0.097,0.01 -0.145,0.014 l -3.017,-5.239 c -0.17,-0.293 -0.544,-0.395 -0.837,-0.226 -0.294,0.169 -0.395,0.544 -0.227,0.837 l 3.023,5.251 c -0.157,0.231 -0.248,0.511 -0.248,0.812 0,0.678 0.467,1.243 1.095,1.401 l 6.523,0.456 c 1.228,0.29 1.199,1.047 1.199,3.018 v 3.844 L 24.522,28.51 v 4.567 h 2.528 c 3.72,-2.099 6.469,-5.714 7.402,-10.005 -0.633,-0.428 -1.386,-0.704 -2.243,-0.704 z"
   id="path17"
   style="fill:#585858" />
	</g>
</g>
</svg>