<?xml version="1.0" encoding="UTF-8" standalone="no"?>
<!-- Created with Inkscape (http://www.inkscape.org/) -->

<svg
   xmlns:dc="http://purl.org/dc/elements/1.1/"
   xmlns:cc="http://creativecommons.org/ns#"
   xmlns:rdf="http://www.w3.org/1999/02/22-rdf-syntax-ns#"
   xmlns:svg="http://www.w3.org/2000/svg"
   xmlns="http://www.w3.org/2000/svg"
   version="1.1"
   width="40"
   height="40"
   id="svg3315">
  <defs
     id="defs3317" />
  <metadata
     id="metadata3320">
    <rdf:RDF>
      <cc:Work
         rdf:about="">
        <dc:format>image/svg+xml</dc:format>
        <dc:type
           rdf:resource="http://purl.org/dc/dcmitype/StillImage" />
        <dc:title></dc:title>
      </cc:Work>
    </rdf:RDF>
  </metadata>
  <g
     transform="matrix(0.99023082,0,0,0.99025341,-4.2405157,-4.5801046)"
     id="g3166">
    <g
       transform="translate(4.2823508,4.5897513)"
       id="g3147">
      <path
         d="M 20.196851,40.429134 C 9.0000001,40.429134 0,31.322835 0,20.232284 0,9.0354332 9.1062993,0.03543307 20.196851,0.03543307 c 11.090551,0 20.19685,9.10629933 20.19685,20.19685093 0.1063,11.090551 -9,20.19685 -20.19685,20.19685 z m 0,-36.4960631 c -9,0 -16.1929139,7.2992131 -16.1929139,16.1929141 0,8.8937 7.2992129,16.192913 16.1929139,16.192913 9,0 16.192913,-7.299213 16.192913,-16.192913 0,-8.893701 -7.192913,-16.1929141 -16.192913,-16.1929141 z"
         id="path3149"
         style="fill:#585858;fill-opacity:1;fill-rule:nonzero;stroke:none" />
      <path
         d="m 17.114173,11.940945 0.992126,0 0,11.586614 -0.992126,0 z"
         id="path3151"
         style="fill:#585858;fill-opacity:1;fill-rule:nonzero;stroke:none" />
      <path
         d="m 22.287402,11.940945 0,5.775591 1.098425,-1.594489 0.92126,1.594489 0,-5.775591 z"
         id="path3153"
         style="fill:#585858;fill-opacity:1;fill-rule:nonzero;stroke:none" />
      <path
         d="m 15.413386,11.338583 c -1.311024,0 -2.30315,0.992126 -2.30315,2.303149 l 0,12.188977 c 0,1.311024 0.992126,2.30315 2.30315,2.30315 l 12.188977,0 0,-16.795276 -12.188977,0 z m 10.700788,15.200787 -7.72441,0 -0.885827,0 -2.090551,0 c -0.425197,0 -0.814961,-0.318897 -0.814961,-0.81496 0,-0.496063 0.318898,-0.779528 0.814961,-0.779528 l 2.19685,0 0.779528,0 7.61811,0 0,1.594488 z m 0,-3.011811 -10.700788,0 c -0.318898,0 -0.496063,0 -0.814961,0.1063 l 0,-1.488189 c 0.389764,-0.425197 1.204725,-0.602363 2.905512,-0.602363 l 0,-1.027559 c -1.098425,0 -2.090551,0.1063 -2.905512,0.425197 l 0,-1.807086 c 0.389764,-0.389764 1.204725,-0.602363 2.905512,-0.602363 l 0,-0.992126 c -1.098425,0 -2.090551,0.1063 -2.905512,0.389764 l 0,-1.700787 c 0.389764,-0.389764 1.204725,-0.602363 2.905512,-0.602363 l 0,-0.992126 c -1.098425,0 -2.090551,0.1063 -2.905512,0.389764 l 0,-1.594488 c 0,-0.389764 0.318898,-0.814961 0.814961,-0.814961 l 10.700788,0 0,10.913386 z"
         id="path3155"
         style="fill:#585858;fill-opacity:1;fill-rule:nonzero;stroke:none" />
    </g>
  </g>
</svg>
