<?xml version="1.0" encoding="UTF-8" standalone="no"?>
<!-- Created with Inkscape (http://www.inkscape.org/) -->

<svg
   xmlns:dc="http://purl.org/dc/elements/1.1/"
   xmlns:cc="http://creativecommons.org/ns#"
   xmlns:rdf="http://www.w3.org/1999/02/22-rdf-syntax-ns#"
   xmlns:svg="http://www.w3.org/2000/svg"
   xmlns="http://www.w3.org/2000/svg"
   version="1.1"
   width="40"
   height="40"
   id="svg3315">
  <defs
     id="defs3317" />
  <metadata
     id="metadata3320">
    <rdf:RDF>
      <cc:Work
         rdf:about="">
        <dc:format>image/svg+xml</dc:format>
        <dc:type
           rdf:resource="http://purl.org/dc/dcmitype/StillImage" />
        <dc:title></dc:title>
      </cc:Work>
    </rdf:RDF>
  </metadata>
  <g
     transform="matrix(0.99007901,0,0,0.99009901,-4.4062875,-7.2881366)"
     id="g3363">
    <path
       d="m 24.65044,47.761018 c -11.2,0 -20.1999998,-9.1 -20.1999998,-20.2 0,-11.2 9.0999998,-20.2 20.1999998,-20.2 11.1,0 20.2,9.1 20.2,20.2 0.1,11.1 -9,20.2 -20.2,20.2 z m 0,-36.5 c -9,0 -16.1999998,7.3 -16.1999998,16.2 0,8.9 7.2999998,16.2 16.1999998,16.2 9,0 16.2,-7.3 16.2,-16.2 0,-8.9 -7.2,-16.2 -16.2,-16.2 z"
       id="path90"
       style="fill:#585858" />
    <path
       d="m 19.05044,29.761018 c 0,-0.1 0,-0.1 0,-0.2 0,-3.1 0,-6.1 0,-9.2 0,-0.9 0.9,-1.5 1.7,-1 0.4,0.2 0.6,0.6 0.6,1.1 0,1.8 0,3.7 0,5.5 0,0.3 0.2,0.5 0.5,0.4 0.2,0 0.2,-0.2 0.3,-0.3 0,-0.1 0,-0.1 0,-0.2 0,-2.3 0,-4.7 0,-7 0,-0.7 0.4,-1.2 1.1,-1.2 0.6,0 1.1,0.4 1.2,1 0,0.2 0,0.4 0,0.6 0,2.2 0,4.4 0,6.7 0,0.1 0,0.2 0,0.2 0,0.2 0.2,0.3 0.4,0.3 0.2,0 0.3,-0.1 0.4,-0.3 0,-0.1 0,-0.2 0,-0.2 0,-2 0,-4 0,-6 0,-0.4 0,-0.8 0.3,-1.1 0.3,-0.3 0.8,-0.5 1.2,-0.3 0.4,0.1 0.8,0.5 0.8,1 0,0.1 0,0.3 0,0.4 0,2.2 0,4.5 0,6.7 0,0.1 0,0.2 0,0.3 0,0.2 0.2,0.3 0.4,0.3 0.2,0 0.3,-0.2 0.3,-0.3 0,-0.1 0,-0.1 0,-0.2 0,-1.6 0,-3.1 0,-4.7 0,-0.8 0.5,-1.3 1.2,-1.3 0.6,0 1.1,0.5 1.1,1.1 0,0.1 0,0.2 0,0.3 0,3.3 0,6.6 0,10 0,0.8 -0.1,1.6 -0.5,2.4 -0.6,1.5 -1.8,2.4 -3.3,2.8 -1.1,0.3 -2.3,0.3 -3.4,0.1 -1.1,-0.2 -2.2,-0.5 -3.1,-1.2 -0.6,-0.4 -1.1,-1 -1.5,-1.6 -1.2,-1.8 -2.3,-3.5 -3.5,-5.3 -0.3,-0.5 -0.4,-1 -0.2,-1.5 0.3,-0.7 1.2,-1 1.9,-0.6 0.2,0.1 0.5,0.4 0.6,0.6 0.5,0.6 0.9,1.2 1.4,1.9 0,-0.1 0,-0.1 0.1,0 0,0 0,0 0,0 z"
       id="path92"
       style="fill:#585858" />
  </g>
</svg>
