<?xml version="1.0" encoding="UTF-8" standalone="no"?>
<!-- Created with Inkscape (http://www.inkscape.org/) -->

<svg
   xmlns:dc="http://purl.org/dc/elements/1.1/"
   xmlns:cc="http://creativecommons.org/ns#"
   xmlns:rdf="http://www.w3.org/1999/02/22-rdf-syntax-ns#"
   xmlns:svg="http://www.w3.org/2000/svg"
   xmlns="http://www.w3.org/2000/svg"
   version="1.1"
   width="40"
   height="40"
   id="svg3315">
  <defs
     id="defs3317" />
  <metadata
     id="metadata3320">
    <rdf:RDF>
      <cc:Work
         rdf:about="">
        <dc:format>image/svg+xml</dc:format>
        <dc:type
           rdf:resource="http://purl.org/dc/dcmitype/StillImage" />
        <dc:title></dc:title>
      </cc:Work>
    </rdf:RDF>
  </metadata>
  <g
     transform="matrix(0.99007901,0,0,0.99009902,-8.9824664,3.2203383)"
     id="g3331">
    <path
       d="m 29.272474,37.147458 c -11.2,0 -20.1999997,-9.1 -20.1999997,-20.2 0,-11.1999997 9.0999997,-20.1999997 20.1999997,-20.1999997 11.1,0 20.2,9.1 20.2,20.1999997 0.1,11.1 -9,20.2 -20.2,20.2 z m 0,-36.49999973 c -9,0 -16.2,7.30000003 -16.2,16.19999973 0,8.9 7.3,16.2 16.2,16.2 9,0 16.2,-7.3 16.2,-16.2 0,-8.8999997 -7.2,-16.19999973 -16.2,-16.19999973 z"
       id="path108"
       style="fill:#585858" />
    <path
       d="m 38.272474,24.847458 c -0.8,-0.1 -1.5,-0.3 -2.2,-0.4 -1.3,-0.2 -2.6,-0.5 -3.9,-0.7 -0.1,0 -0.2,0 -0.3,0 -1.3,0.3 -2.5,0.4 -3.8,0.3 -1.8,-0.2 -3.4,-0.8 -4.8,-1.9 -1.4,-1.1 -2.4,-2.5 -2.8,-4.3 -0.5,-2.1 0,-4 1.3,-5.7 1.3,-1.7 3,-2.6999997 5,-3.1999997 1.1,-0.3 2.2,-0.4 3.3,-0.3 2.5,0.2 4.7,1.1 6.4,2.9999997 1,1.1 1.6,2.3 1.8,3.8 0.3,2.1 -0.3,3.9 -1.7,5.5 -0.3,0.4 -0.4,0.4 -0.1,0.8 0.6,1 1.1,1.9 1.7,2.9 0,0.1 0,0.1 0.1,0.2 z m -3.8,-3.7 c 0.4,-0.4 0.8,-0.8 1.1,-1.2 1.3,-1.7 1.7,-3.5 1,-5.5 -0.6,-1.6 -1.7,-2.7 -3.1,-3.5 -1.8,-0.9999997 -3.8,-1.2999997 -5.9,-0.9 -1.8,0.3 -3.4,1.1 -4.6,2.5 -0.8,0.9 -1.3,2.1 -1.4,3.3 -0.1,1.7 0.4,3.1 1.6,4.3 1.5,1.6 3.3,2.3 5.4,2.5 1.1,0.1 2.2,0 3.3,-0.3 0.1,0 0.3,-0.1 0.4,0 0.9,0.2 1.7,0.3 2.6,0.5 0.3,0.1 0.5,0.1 0.9,0.2 -0.6,-0.7 -0.9,-1.3 -1.3,-1.9 z"
       id="path110"
       style="fill:#585858" />
    <path
       d="m 26.972474,13.447458 c 0.6,-0.3 1.1,-0.5 1.8,-0.6 0.6,-0.1 1.1,-0.1 1.7,0 0.7,0.2 1.3,0.5 1.4,1.3 0.2,0.8 -0.1,1.5 -0.7,2 -0.2,0.1 -0.4,0.3 -0.6,0.4 -0.5,0.3 -0.6,0.3 -0.6,1 -0.5,0 -1,0 -1.5,0 -0.1,-0.7 0.1,-1.3 0.7,-1.8 0.2,-0.1 0.4,-0.2 0.5,-0.4 0,0 0.1,-0.1 0.1,-0.1 0.2,-0.2 0.3,-0.4 0.2,-0.7 -0.1,-0.3 -0.4,-0.3 -0.6,-0.3 -0.3,0 -0.7,0.1 -1,0.2 -0.3,0.1 -0.5,0.2 -0.8,0.3 -0.2,-0.4 -0.4,-0.8 -0.6,-1.3 z"
       id="path112"
       style="fill:#585858" />
    <path
       d="m 29.172474,20.247458 c -0.8,0 -1.2,-0.5 -1,-1.3 0.1,-0.5 0.6,-0.6 1.1,-0.6 0.5,0 0.8,0.3 0.9,0.6 0.2,0.7 -0.2,1.3 -1,1.3 z"
       id="path114"
       style="fill:#585858" />
    <path
       d="m 29.272474,37.147458 c -11.2,0 -20.1999997,-9.1 -20.1999997,-20.2 0,-11.1999997 9.0999997,-20.1999997 20.1999997,-20.1999997 11.1,0 20.2,9.1 20.2,20.1999997 0.1,11.1 -9,20.2 -20.2,20.2 z m 0,-36.49999973 c -9,0 -16.2,7.30000003 -16.2,16.19999973 0,8.9 7.3,16.2 16.2,16.2 9,0 16.2,-7.3 16.2,-16.2 0,-8.8999997 -7.2,-16.19999973 -16.2,-16.19999973 z"
       id="path120"
       style="fill:#585858" />
    <path
       d="m 38.272474,24.847458 c -0.8,-0.1 -1.5,-0.3 -2.2,-0.4 -1.3,-0.2 -2.6,-0.5 -3.9,-0.7 -0.1,0 -0.2,0 -0.3,0 -1.3,0.3 -2.5,0.4 -3.8,0.3 -1.8,-0.2 -3.4,-0.8 -4.8,-1.9 -1.4,-1.1 -2.4,-2.5 -2.8,-4.3 -0.5,-2.1 0,-4 1.3,-5.7 1.3,-1.7 3,-2.6999997 5,-3.1999997 1.1,-0.3 2.2,-0.4 3.3,-0.3 2.5,0.2 4.7,1.1 6.4,2.9999997 1,1.1 1.6,2.3 1.8,3.8 0.3,2.1 -0.3,3.9 -1.7,5.5 -0.3,0.4 -0.4,0.4 -0.1,0.8 0.6,1 1.1,1.9 1.7,2.9 0,0.1 0,0.1 0.1,0.2 z m -3.8,-3.7 c 0.4,-0.4 0.8,-0.8 1.1,-1.2 1.3,-1.7 1.7,-3.5 1,-5.5 -0.6,-1.6 -1.7,-2.7 -3.1,-3.5 -1.8,-0.9999997 -3.8,-1.2999997 -5.9,-0.9 -1.8,0.3 -3.4,1.1 -4.6,2.5 -0.8,0.9 -1.3,2.1 -1.4,3.3 -0.1,1.7 0.4,3.1 1.6,4.3 1.5,1.6 3.3,2.3 5.4,2.5 1.1,0.1 2.2,0 3.3,-0.3 0.1,0 0.3,-0.1 0.4,0 0.9,0.2 1.7,0.3 2.6,0.5 0.3,0.1 0.5,0.1 0.9,0.2 -0.6,-0.7 -0.9,-1.3 -1.3,-1.9 z"
       id="path122"
       style="fill:#585858" />
    <path
       d="m 26.972474,13.447458 c 0.6,-0.3 1.1,-0.5 1.8,-0.6 0.6,-0.1 1.1,-0.1 1.7,0 0.7,0.2 1.3,0.5 1.4,1.3 0.2,0.8 -0.1,1.5 -0.7,2 -0.2,0.1 -0.4,0.3 -0.6,0.4 -0.5,0.3 -0.6,0.3 -0.6,1 -0.5,0 -1,0 -1.5,0 -0.1,-0.7 0.1,-1.3 0.7,-1.8 0.2,-0.1 0.4,-0.2 0.5,-0.4 0,0 0.1,-0.1 0.1,-0.1 0.2,-0.2 0.3,-0.4 0.2,-0.7 -0.1,-0.3 -0.4,-0.3 -0.6,-0.3 -0.3,0 -0.7,0.1 -1,0.2 -0.3,0.1 -0.5,0.2 -0.8,0.3 -0.2,-0.4 -0.4,-0.8 -0.6,-1.3 z"
       id="path124"
       style="fill:#585858" />
    <path
       d="m 29.172474,20.247458 c -0.8,0 -1.2,-0.5 -1,-1.3 0.1,-0.5 0.6,-0.6 1.1,-0.6 0.5,0 0.8,0.3 0.9,0.6 0.2,0.7 -0.2,1.3 -1,1.3 z"
       id="path126"
       style="fill:#585858" />
  </g>
</svg>
