<?xml version="1.0" encoding="UTF-8" standalone="no"?>
<!-- Created with Inkscape (http://www.inkscape.org/) -->

<svg
   xmlns:dc="http://purl.org/dc/elements/1.1/"
   xmlns:cc="http://creativecommons.org/ns#"
   xmlns:rdf="http://www.w3.org/1999/02/22-rdf-syntax-ns#"
   xmlns:svg="http://www.w3.org/2000/svg"
   xmlns="http://www.w3.org/2000/svg"
   version="1.1"
   width="40"
   height="40"
   viewBox="0 0 39.999998 39.999998"
   id="Layer_1"
   xml:space="preserve"><metadata
   id="metadata16"><rdf:RDF><cc:Work
       rdf:about=""><dc:format>image/svg+xml</dc:format><dc:type
         rdf:resource="http://purl.org/dc/dcmitype/StillImage" /><dc:title></dc:title></cc:Work></rdf:RDF></metadata><defs
   id="defs14" />
<g
   transform="scale(0.99007895,0.99009896)"
   id="g3">
	<path
   d="M 20.2,40.4 C 9,40.4 0,31.3 0,20.2 0,9 9.1,0 20.2,0 c 11.1,0 20.2,9.1 20.2,20.2 0.1,11.1 -9,20.2 -20.2,20.2 z m 0,-36.5 C 11.2,3.9 4,11.2 4,20.1 4,29 11.3,36.3 20.2,36.3 29.2,36.3 36.4,29 36.4,20.1 36.4,11.2 29.2,3.9 20.2,3.9 z"
   id="path3071_5_"
   style="fill:#585858" />
	<g
   id="g6">
		<path
   d="m 20.9,25.2 c 1.7,-1.7 3.9,-3.9 5,-5 2.1,-2.1 3.6,-7.3 2.6,-8.3 -1,-1 -6.3,0.6 -8.3,2.6 -1.1,1.1 -3.3,3.3 -5,5 l -3.1,-0.1 -3.7,3.7 4.8,2.7 1.6,-1.6 1.3,1.3 -1.6,1.6 2.7,4.8 3.7,-3.7 0,-3 z m 1,-6.5 c -1,-1 -1,-2.6 0,-3.6 1,-1 2.6,-1 3.6,0 1,1 1,2.6 0,3.6 -1,1 -2.6,1 -3.6,0 z"
   id="path8"
   style="fill:#585858" />
		<circle
   cx="23.6"
   cy="16.799999"
   r="1.5"
   id="circle10"
   style="fill:#585858" />
	</g>
</g>
</svg>