<?xml version="1.0" encoding="UTF-8" standalone="no"?>
<!-- Created with Inkscape (http://www.inkscape.org/) -->

<svg
   xmlns:dc="http://purl.org/dc/elements/1.1/"
   xmlns:cc="http://creativecommons.org/ns#"
   xmlns:rdf="http://www.w3.org/1999/02/22-rdf-syntax-ns#"
   xmlns:svg="http://www.w3.org/2000/svg"
   xmlns="http://www.w3.org/2000/svg"
   version="1.1"
   width="40"
   height="40"
   id="svg3315">
  <defs
     id="defs3317" />
  <metadata
     id="metadata3320">
    <rdf:RDF>
      <cc:Work
         rdf:about="">
        <dc:format>image/svg+xml</dc:format>
        <dc:type
           rdf:resource="http://purl.org/dc/dcmitype/StillImage" />
        <dc:title></dc:title>
      </cc:Work>
    </rdf:RDF>
  </metadata>
  <g
     transform="matrix(0.99007901,0,0,0.990099,0.16989142,-6.7796619)"
     id="g3480">
    <path
       d="m 20.028406,47.247459 c -11.1999999,0 -20.19999986,-9.1 -20.19999986,-20.2 0,-11.2 9.09999996,-20.2000004 20.19999986,-20.2000004 11.1,0 20.2,9.1000004 20.2,20.2000004 0.1,11.1 -9,20.2 -20.2,20.2 z m 0,-36.5 c -9,0 -16.1999999,7.3 -16.1999999,16.2 0,8.9 7.2999999,16.2 16.1999999,16.2 9,0 16.2,-7.3 16.2,-16.2 0,-8.9 -7.2,-16.2 -16.2,-16.2 z"
       id="path9"
       style="fill:#585858" />
    <path
       d="m 12.028406,36.847459 c 0,-6.1 0,-12.1 0,-18.2 1.3,0 2.6,0 3.8,0 0.5,0 0.7,-0.1 0.9,-0.7 0.4,-1.6 1.9,-2.8 3.5,-2.8 1.6,0 3.2,1.2 3.5,2.8 0.1,0.5 0.3,0.6 0.8,0.6 1.2,0 2.5,0 3.7,0 0,6.1 0,12.1 0,18.2 -5.4,0.1 -10.8,0.1 -16.2,0.1 z m 1.9,-16.5 c 0,4.9 0,9.8 0,14.7 4.1,0 8.1,0 12.2,0 0,-4.9 0,-9.8 0,-14.7 -4.1,0 -8.1,0 -12.2,0 z"
       id="path11"
       style="fill:#585858" />
    <path
       d="m 20.228406,26.747459 c 0.2,0.4 0.5,0.8 0.7,1.2 1.1,-0.7 2.1,-1.4 3.2,-2.1 0.2,0.4 0.5,0.7 0.7,1.1 -1.5,1 -2.9,2 -4.4,3 -0.5,-0.9 -0.9,-1.7 -1.4,-2.5 0.4,-0.3 0.7,-0.5 1.2,-0.7 z"
       id="path13"
       style="fill:#585858" />
    <path
       d="m 19.028406,23.047459 c 0.4,-0.2 0.8,-0.4 1.1,-0.6 0.2,0.4 0.4,0.7 0.7,1.1 1.1,-0.7 2.1,-1.4 3.2,-2.1 0.2,0.4 0.5,0.7 0.7,1.1 -1.5,1 -2.9,2 -4.4,3 -0.4,-0.8 -0.8,-1.6 -1.3,-2.5 z"
       id="path15"
       style="fill:#585858" />
    <path
       d="m 15.528406,22.447459 c 0.7,0 1.4,0 2.1,0 0,0.7 0,1.3 0,2 -0.7,0 -1.4,0 -2.1,0 0,-0.6 0,-1.3 0,-2 z"
       id="path17"
       style="fill:#585858" />
    <path
       d="m 17.528406,30.647459 c 0,0.7 0,1.3 0,2 -0.7,0 -1.4,0 -2.1,0 0,-0.7 0,-1.3 0,-2 0.7,0 1.3,0 2.1,0 z"
       id="path19"
       style="fill:#585858" />
    <path
       d="m 15.428406,28.647459 c 0,-0.7 0,-1.3 0,-2 0.7,0 1.3,0 2.1,0 0,0.6 0,1.3 0,2 -0.7,0 -1.4,0 -2.1,0 z"
       id="path21"
       style="fill:#585858" />
  </g>
</svg>
