<?xml version="1.0" encoding="UTF-8" standalone="no"?>
<!-- Created with Inkscape (http://www.inkscape.org/) -->

<svg
   xmlns:dc="http://purl.org/dc/elements/1.1/"
   xmlns:cc="http://creativecommons.org/ns#"
   xmlns:rdf="http://www.w3.org/1999/02/22-rdf-syntax-ns#"
   xmlns:svg="http://www.w3.org/2000/svg"
   xmlns="http://www.w3.org/2000/svg"
   version="1.1"
   width="40"
   height="40"
   viewBox="0 0 39.999998 39.999998"
   id="Layer_1"
   xml:space="preserve"><metadata
   id="metadata12"><rdf:RDF><cc:Work
       rdf:about=""><dc:format>image/svg+xml</dc:format><dc:type
         rdf:resource="http://purl.org/dc/dcmitype/StillImage" /><dc:title></dc:title></cc:Work></rdf:RDF></metadata><defs
   id="defs10" />
<g
   transform="scale(0.99007895,0.99009896)"
   id="g3">
	<path
   d="M 20.2,40.4 C 9,40.4 0,31.3 0,20.2 0,9 9.1,0 20.2,0 c 11.1,0 20.2,9.1 20.2,20.2 0.1,11.1 -9,20.2 -20.2,20.2 z m 0,-36.5 C 11.2,3.9 4,11.2 4,20.1 4,29 11.3,36.3 20.2,36.3 29.2,36.3 36.4,29 36.4,20.1 36.4,11.2 29.2,3.9 20.2,3.9 z"
   id="path3071_4_"
   style="fill:#585858" />
	<path
   d="m 20.6,12.5 c -5.9,0 -10.2,2.9 -10.2,6.7 0,3.8 2.5,4.1 2.9,4.1 0.4,0 1.9,-0.3 1.9,-0.1 0,0.2 -0.6,0.5 -0.2,1.4 0.6,1.5 2,2 2.9,2 0.9,0 1.9,-0.4 2.1,-0.5 0.2,-0.1 1,-0.7 1.6,-0.6 0.6,0.1 0.4,0.7 1.2,1.1 0.9,0.5 1.7,0.7 3.6,-0.1 1.9,-0.8 1.5,-1.9 1.7,-1.9 0.2,0 2.2,-0.9 2.2,-3.1 -0.1,-4.7 -3.8,-9 -9.7,-9 z m 7.6,9.8 c -0.2,0 -0.3,0 -0.5,-0.1 -0.3,-0.1 -0.5,-0.4 -0.6,-0.7 -0.2,0.1 -0.5,0.2 -0.9,0.2 0,0 -0.1,0 -0.1,0 -0.7,0 -1.3,-0.5 -1.6,-1 -0.1,0.3 -0.2,0.6 -0.3,0.8 -0.1,0.1 -0.2,0.3 -0.4,0.4 0.1,0.2 0.1,0.3 0.1,0.5 0,0 0.1,0.1 0.1,0.1 0.3,0.4 0.8,0.6 1.4,0.4 0.6,-0.1 0.8,-0.5 0.8,-0.6 0,-0.2 0.1,-0.3 0.3,-0.3 0.2,0 0.3,0.1 0.3,0.3 0,0.4 -0.5,1 -1.3,1.2 -0.2,0.1 -0.4,0.1 -0.6,0.1 -0.5,0 -0.9,-0.1 -1.2,-0.4 -0.2,0.3 -0.5,0.6 -0.7,0.8 -0.4,0.2 -0.8,0.4 -1.2,0.4 -0.3,0 -0.5,0 -0.8,-0.1 -0.2,-0.1 -0.2,-0.2 -0.2,-0.4 0.1,-0.2 0.2,-0.2 0.4,-0.2 0.5,0.2 1,0.1 1.4,-0.1 0.6,-0.4 0.7,-0.8 0.5,-1.1 -0.4,0.2 -0.9,0.4 -1.3,0.4 -0.1,0 -0.2,0 -0.3,0 -0.8,0 -1.6,-0.3 -2.4,-0.8 0,0 0,0 -0.1,-0.1 -0.2,0.1 -0.4,0.2 -0.5,0.3 -0.1,0 -0.1,0 -0.2,0.1 -0.3,0.1 -0.6,0.2 -1,0.2 -0.3,0 -0.6,0 -1,-0.2 -0.2,0 -0.3,-0.2 -0.2,-0.4 0,-0.1 0.1,-0.2 0.2,-0.2 0.3,-0.4 0.2,-1.2 0.1,-1.9 -0.7,0.4 -1.5,0.6 -2,0.7 -0.1,0 -0.3,0.1 -0.4,0.1 -0.1,0.3 -0.6,0.9 -1,1.2 -0.1,0 -0.1,0.1 -0.2,0.1 -0.1,0 -0.2,0 -0.3,-0.1 -0.1,-0.1 -0.1,-0.3 0.1,-0.4 0.3,-0.2 0.6,-0.7 0.7,-0.9 -0.1,0 -0.1,-0.1 -0.2,-0.1 -0.4,-0.2 -0.9,-0.4 -0.8,-1.2 0,-0.5 0.6,-1.5 1.5,-1.5 0.9,0 1.4,0.4 1.7,0.6 0.1,0.1 0.2,0.3 0,0.4 -0.1,0.1 -0.3,0.2 -0.4,0 -0.2,-0.2 -0.7,-0.5 -1.3,-0.5 -0.5,0 -0.8,0.7 -0.8,0.9 0,0.4 0.1,0.5 0.5,0.6 0.1,0.1 0.3,0.1 0.5,0.3 0.1,0 0.2,-0.1 0.3,-0.1 0.6,-0.1 1.4,-0.3 2.1,-0.8 0,0 0,0 0,0 -0.1,-0.3 -0.1,-0.6 -0.1,-0.9 0,-0.2 0.1,-0.4 0.1,-0.5 0,0 0,0 -0.1,0 -0.3,0 -0.6,-0.1 -0.9,-0.2 -0.4,-0.3 -0.6,-0.7 -0.7,-1.3 -0.1,-1.1 1.1,-1.7 1.6,-1.8 0.2,0 0.3,0 0.4,0.2 0,0.2 0,0.3 -0.2,0.4 -0.4,0.1 -1.2,0.6 -1.1,1.1 0,0.4 0.2,0.7 0.4,0.8 0.4,0.3 1,0.1 1.3,0 0,0 0.1,-0.1 0.1,-0.1 0.1,-0.1 0.2,-0.2 0.3,-0.4 0.4,-0.5 1,-1.3 2.2,-1 0.5,-0.5 1.1,-0.4 1.5,-0.4 0.1,0 0.2,0 0.2,0 0,-0.1 0.1,-0.2 0.1,-0.2 0.2,-0.3 0.4,-0.7 0.8,-0.8 0.3,-0.1 0.6,0 1,0.3 0.1,0.1 0.2,0.3 0.1,0.4 -0.1,0.1 -0.3,0.2 -0.4,0.1 -0.2,-0.2 -0.4,-0.2 -0.5,-0.2 -0.2,0 -0.3,0.3 -0.4,0.5 -0.1,0.3 -0.3,0.5 -0.6,0.6 -0.1,0 -0.2,0 -0.4,0 -0.4,0 -0.7,0 -1,0.3 -0.2,0.2 -0.2,0.4 -0.1,0.6 0,0.1 0.1,0.2 0.3,0.2 0.2,0 0.3,0.1 0.4,0.3 0,0.2 -0.1,0.3 -0.3,0.4 -0.1,0 -0.1,0 -0.2,0 -0.3,0 -0.6,-0.2 -0.8,-0.5 -0.1,-0.2 -0.2,-0.5 -0.1,-0.8 -0.6,-0.1 -0.9,0.2 -1.4,0.8 -0.1,0.1 -0.2,0.3 -0.3,0.4 0,0 0,0.1 -0.1,0.1 0,0.1 -0.1,0.1 -0.1,0.1 -0.1,0.1 -0.2,0.1 -0.2,0.2 -0.2,0.2 -0.3,0.2 -0.3,0.6 0,0.2 0,0.7 0.1,1.1 0.1,0.8 0.3,1.7 0,2.4 0.6,0.1 0.9,0 1.2,-0.1 0.1,0 0.1,-0.1 0.2,-0.1 0.4,-0.1 1.6,-1.1 1.9,-1.4 -0.4,-0.4 -0.5,-1 -0.5,-1.3 0,-0.2 0.1,-0.3 0.3,-0.3 0.2,0 0.3,0.1 0.3,0.3 0,0.1 0.1,0.7 0.5,1 0.2,0.2 0.4,0.2 0.7,0.2 1,-0.1 1.1,-1.7 1.1,-1.8 0,-0.2 0.2,-0.3 0.3,-0.3 0.2,0 0.3,0.2 0.3,0.3 0,0.8 -0.4,2.2 -1.6,2.3 -0.1,0 -0.1,0 -0.2,0 -0.2,0 -0.4,0 -0.6,-0.1 -0.2,0.2 -0.6,0.6 -1.1,0.9 0.7,0.4 1.4,0.6 2.1,0.6 0.7,0 1.6,-0.5 1.7,-0.8 0.2,-0.4 0.8,-2.3 0.8,-3 0,-0.9 0.4,-1.8 0.8,-2 0.2,-0.1 0.3,0 0.4,0.2 0.1,0.2 0,0.3 -0.2,0.4 -0.1,0.1 -0.3,0.4 -0.4,0.9 0.5,0 0.7,0.4 0.9,0.7 0.1,0.2 0.2,0.4 0.3,0.4 0.4,0.1 0.7,-0.2 0.7,-0.3 0.1,-0.1 0.1,-0.2 0.1,-0.2 0,0 0,0 0,0 -0.2,-0.1 -0.2,-0.2 -0.2,-0.4 0.1,-0.2 0.2,-0.2 0.4,-0.2 0.3,0.1 0.5,0.5 0.4,0.8 -0.1,0.5 -0.6,0.9 -1.3,0.9 -0.1,0 -0.2,0 -0.2,0 -0.4,-0.1 -0.6,-0.4 -0.8,-0.7 -0.2,-0.4 -0.3,-0.4 -0.4,-0.4 0,0.4 -0.1,1 -0.3,1.5 0.1,0.4 0.6,1.3 1.4,1.2 0.6,0 1,-0.3 1.1,-0.9 0,-0.2 0.2,-0.3 0.4,-0.3 0.2,0 0.3,0.2 0.3,0.4 0,0.3 -0.1,0.5 -0.3,0.7 0,0 0,0 0,0.1 0,0.1 0.1,0.5 0.3,0.6 0.5,0.2 0.8,-0.1 0.9,-0.2 0.1,-0.2 0.1,-0.4 0.1,-0.4 -0.1,-0.1 -0.1,-0.3 0,-0.4 0.1,-0.1 0.3,-0.1 0.4,0 0.3,0.3 0.3,0.7 0,1.2 -0.1,0 -0.5,0.3 -1,0.3 z"
   id="path6"
   style="fill:#585858" />
</g>
</svg>