<?xml version="1.0" encoding="UTF-8" standalone="no"?>
<!-- Created with Inkscape (http://www.inkscape.org/) -->

<svg
   xmlns:dc="http://purl.org/dc/elements/1.1/"
   xmlns:cc="http://creativecommons.org/ns#"
   xmlns:rdf="http://www.w3.org/1999/02/22-rdf-syntax-ns#"
   xmlns:svg="http://www.w3.org/2000/svg"
   xmlns="http://www.w3.org/2000/svg"
   version="1.1"
   width="40"
   height="40"
   id="svg3315">
  <defs
     id="defs3317" />
  <metadata
     id="metadata3320">
    <rdf:RDF>
      <cc:Work
         rdf:about="">
        <dc:format>image/svg+xml</dc:format>
        <dc:type
           rdf:resource="http://purl.org/dc/dcmitype/StillImage" />
        <dc:title></dc:title>
      </cc:Work>
    </rdf:RDF>
  </metadata>
  <g
     transform="matrix(0.990099,0,0,0.99009901,2.7118637,8.6440673)"
     id="g2998">
    <path
       d="m 17.461018,31.669492 c -11.2000004,0 -20.2000004,-9.1 -20.2000004,-20.2 0,-11.10000004 9.1,-20.2 20.2000004,-20.2 11.1,0 20.2,9.09999996 20.2,20.2 0,11.1 -9,20.2 -20.2,20.2 z m 0,-36.5 c -9.0000004,0 -16.2000004,7.3 -16.2000004,16.2 0,9 7.3,16.2 16.2000004,16.2 9,0 16.2,-7.3 16.2,-16.2 0.1,-8.9 -7.2,-16.2 -16.2,-16.2 z"
       id="path299"
       style="fill:#585858" />
    <g
       transform="translate(-45.688982,-140.33051)"
       id="g301">
      <path
         d="m 61.2,156.2 v -0.8 c 0,-1.1 0.2,-2 0.5,-2.7 0.3,-0.7 1,-1.5 1.9,-2.3 1.3,-1.1 2.1,-1.9 2.4,-2.5 0.3,-0.5 0.5,-1.2 0.5,-2 0,-1 -0.3,-1.7 -0.9,-2.2 -0.6,-0.5 -1.5,-0.8 -2.7,-0.8 -0.7,0 -1.5,0.1 -2.2,0.3 -0.7,0.2 -1.5,0.5 -2.4,1 l -0.8,-1.9 c 1.8,-0.9 3.7,-1.4 5.6,-1.4 1.8,0 3.2,0.4 4.2,1.3 1,0.9 1.5,2.1 1.5,3.8 0,0.7 -0.1,1.3 -0.3,1.8 -0.2,0.5 -0.5,1 -0.8,1.5 -0.4,0.5 -1.1,1.2 -2.3,2.3 -1,0.8 -1.6,1.5 -1.9,2 -0.3,0.5 -0.5,1.3 -0.5,2.2 v 0.5 h -1.8 z m -0.7,4.2 c 0,-1.3 0.6,-1.9 1.7,-1.9 0.5,0 1,0.2 1.3,0.5 0.3,0.3 0.4,0.8 0.4,1.4 0,0.6 -0.2,1.1 -0.5,1.4 -0.3,0.3 -0.7,0.5 -1.3,0.5 -0.5,0 -0.9,-0.1 -1.2,-0.4 -0.2,-0.3 -0.4,-0.8 -0.4,-1.5 z"
         id="path303"
         style="fill:#585858" />
    </g>
  </g>
</svg>
