<?xml version="1.0" encoding="UTF-8" standalone="no"?>
<!-- Created with Inkscape (http://www.inkscape.org/) -->

<svg
   xmlns:dc="http://purl.org/dc/elements/1.1/"
   xmlns:cc="http://creativecommons.org/ns#"
   xmlns:rdf="http://www.w3.org/1999/02/22-rdf-syntax-ns#"
   xmlns:svg="http://www.w3.org/2000/svg"
   xmlns="http://www.w3.org/2000/svg"
   version="1.1"
   width="40"
   height="40"
   id="svg3315">
  <defs
     id="defs3317" />
  <metadata
     id="metadata3320">
    <rdf:RDF>
      <cc:Work
         rdf:about="">
        <dc:format>image/svg+xml</dc:format>
        <dc:type
           rdf:resource="http://purl.org/dc/dcmitype/StillImage" />
        <dc:title></dc:title>
      </cc:Work>
    </rdf:RDF>
  </metadata>
  <g
     transform="matrix(0.99023082,0,0,0.99025341,2.6692512e-8,-0.03508776)"
     id="g3115">
    <path
       d="M 20.196851,40.429134 C 9.0000001,40.429134 0,31.322835 0,20.232284 0,9.0354332 9.1062993,0.03543307 20.196851,0.03543307 c 11.090551,0 20.19685,9.10629933 20.19685,20.19685093 0.1063,11.090551 -9,20.19685 -20.19685,20.19685 z m 0,-36.4960631 c -9,0 -16.1929139,7.2992131 -16.1929139,16.1929141 0,8.8937 7.2992129,16.192913 16.1929139,16.192913 9,0 16.192913,-7.299213 16.192913,-16.192913 0,-8.893701 -7.192913,-16.1929141 -16.192913,-16.1929141 z"
       id="path3117"
       style="fill:#585858;fill-opacity:1;fill-rule:nonzero;stroke:none" />
    <path
       d="m 23.988189,24.34252 c 0,0.389764 -0.283464,0.779528 -0.779527,0.779528 l -5.102363,0 c -0.389763,0 -0.81496,-0.283465 -0.81496,-0.779528 l 0,0 c 0,-0.425197 0.318897,-0.814961 0.81496,-0.814961 l 5.102363,0 c 0.496063,0 0.779527,0.318898 0.779527,0.814961 l 0,0 z"
       id="path3119"
       style="fill:#585858;fill-opacity:1;fill-rule:nonzero;stroke:none" />
    <path
       d="m 23.988189,18.212599 c 0,0.425197 -0.283464,0.81496 -0.779527,0.81496 l -6.094489,0 c -0.425196,0 -0.81496,-0.283464 -0.81496,-0.81496 l 0,0 c 0,-0.389764 0.283464,-0.779528 0.81496,-0.779528 l 6.094489,0 c 0.496063,0 0.779527,0.389764 0.779527,0.779528 l 0,0 z"
       id="path3121"
       style="fill:#585858;fill-opacity:1;fill-rule:nonzero;stroke:none" />
    <path
       d="m 23.988189,15.413386 c 0,0.425197 -0.283464,0.814961 -0.779527,0.814961 l -6.094489,0 c -0.425196,0 -0.81496,-0.283465 -0.81496,-0.814961 l 0,0 c 0,-0.389764 0.283464,-0.779528 0.81496,-0.779528 l 6.094489,0 c 0.496063,0 0.779527,0.283465 0.779527,0.779528 l 0,0 z"
       id="path3123"
       style="fill:#585858;fill-opacity:1;fill-rule:nonzero;stroke:none" />
    <path
       d="m 23.988189,21.22441 c 0,0.389764 -0.283464,0.81496 -0.779527,0.81496 l -3.011811,0 c -0.389764,0 -0.779528,-0.318897 -0.779528,-0.81496 l 0,0 c 0,-0.389764 0.283465,-0.779528 0.779528,-0.779528 l 3.011811,0 c 0.496063,0.07087 0.779527,0.389764 0.779527,0.779528 l 0,0 z"
       id="path3125"
       style="fill:#585858;fill-opacity:1;fill-rule:nonzero;stroke:none" />
    <path
       d="m 17.716536,22.818898 -2.30315,-2.30315 -5.208661,5.208662 2.303149,2.303149 5.208662,-5.208661 z m -6.519685,6.519685 0.992126,-0.992126 -2.3031501,-2.30315 -0.992126,0.992126 c -0.2834646,0.283465 0,0.602363 0,0.602363 l 1.5944881,1.594488 c 0,0.106299 0.425197,0.389764 0.708662,0.106299 z M 18,22.535433 18.496063,19.736221 15.696851,20.232284 18,22.535433 z"
       id="path3127"
       style="fill:#585858;fill-opacity:1;fill-rule:nonzero;stroke:none" />
    <path
       d="m 25.511811,10.629921 -10.594488,0 c -1.311024,0 -2.30315,0.992126 -2.30315,2.30315 l 0,9.283465 0.283465,-0.283465 1.204724,-0.992126 0,-7.901575 c 0,-0.425197 0.283465,-0.81496 0.814961,-0.81496 l 10.594488,0 c 0.389764,0 0.779528,0.318897 0.779528,0.81496 l 0,13.677166 c 0,0.425197 -0.283465,0.81496 -0.779528,0.81496 l -10.594488,0 c -0.212598,0 -0.531496,-0.106299 -0.602362,-0.318897 l -1.098425,1.133858 c 0.389763,0.496063 0.992126,0.673228 1.700787,0.673228 l 10.594488,0 c 1.275591,0 2.30315,-0.992126 2.30315,-2.303149 l 0,-13.677166 c 0,-1.417323 -1.027559,-2.409449 -2.30315,-2.409449 z"
       id="path3129"
       style="fill:#585858;fill-opacity:1;fill-rule:nonzero;stroke:none" />
  </g>
</svg>
