<?xml version="1.0" encoding="UTF-8" standalone="no"?>
<!-- Created with Inkscape (http://www.inkscape.org/) -->

<svg
   xmlns:dc="http://purl.org/dc/elements/1.1/"
   xmlns:cc="http://creativecommons.org/ns#"
   xmlns:rdf="http://www.w3.org/1999/02/22-rdf-syntax-ns#"
   xmlns:svg="http://www.w3.org/2000/svg"
   xmlns="http://www.w3.org/2000/svg"
   version="1.1"
   width="40"
   height="40"
   viewBox="0 0 39.999998 39.999998"
   id="Layer_1"
   xml:space="preserve"><metadata
   id="metadata38"><rdf:RDF><cc:Work
       rdf:about=""><dc:format>image/svg+xml</dc:format><dc:type
         rdf:resource="http://purl.org/dc/dcmitype/StillImage" /><dc:title></dc:title></cc:Work></rdf:RDF></metadata><defs
   id="defs36" />
<g
   transform="matrix(0.99024766,0,0,0.99024603,-0.00297072,-0.00297081)"
   id="g3">
	<g
   id="g5">
		<path
   d="M 20.2,40.397 C 9.003,40.397 0.003,31.291 0.003,20.2 0.003,9.003 9.109,0.003 20.2,0.003 c 11.09,0 20.196,9.106 20.196,20.197 0.107,11.091 -9,20.197 -20.196,20.197 z m 0,-36.496 c -9,0 -16.193,7.299 -16.193,16.192 0,8.893 7.299,16.194 16.193,16.194 9,0 16.192,-7.3 16.192,-16.193 C 36.392,11.201 29.2,3.901 20.2,3.901 z"
   id="path3071_11_"
   style="fill:#585858" />
		<g
   id="g8">
			<rect
   width="6.777"
   height="1.059"
   x="11.565"
   y="16.063999"
   id="rect10"
   style="fill:#585858" />
			<rect
   width="6.777"
   height="1.058"
   x="11.565"
   y="18.82"
   id="rect12"
   style="fill:#585858" />
			<rect
   width="6.777"
   height="1.061"
   x="11.565"
   y="21.573"
   id="rect14"
   style="fill:#585858" />
			<path
   d="M 19.261,25.454 H 10.79 c -0.293,0 -0.53,-0.238 -0.53,-0.529 v -10.59 c 0,-0.292 0.237,-0.53 0.53,-0.53 h 8.471 c 0.287,0 0.52,0.231 0.526,0.517 0,0.004 -10e-4,0.008 -10e-4,0.013 v 10.59 c 0,0.004 10e-4,0.008 10e-4,0.012 -0.007,0.286 -0.239,0.517 -0.526,0.517 z m 3.728,0 h -1.614 c -0.288,0 -0.521,-0.231 -0.527,-0.518 0,-0.004 0.001,-0.008 0.001,-0.012 v -10.59 c 0,-0.004 -0.001,-0.008 -0.001,-0.013 0.007,-0.286 0.239,-0.517 0.527,-0.517 h 8.471 c 0.292,0 0.529,0.238 0.529,0.53 v 10.59 c 0,0.291 -0.237,0.529 -0.529,0.529 h -1.96 l -0.375,1.059 h 2.335 c 0.876,0 1.588,-0.713 1.588,-1.588 v -10.59 c 0,-0.876 -0.712,-1.589 -1.588,-1.589 h -8.471 c -0.408,0 -0.776,0.159 -1.058,0.412 -0.281,-0.253 -0.649,-0.412 -1.057,-0.412 h -8.47 c -0.877,0 -1.589,0.713 -1.589,1.589 v 10.59 c 0,0.875 0.712,1.588 1.589,1.588 h 8.471 c 0.407,0 0.775,-0.158 1.057,-0.412 0.281,0.254 0.649,0.412 1.058,0.412 h 1.198 l 0.415,-1.058 z"
   id="path16"
   style="fill:#585858" />
			<rect
   width="6.777"
   height="1.059"
   x="22.15"
   y="16.063999"
   id="rect18"
   style="fill:#585858" />
			<rect
   width="3.7739999"
   height="1.058"
   x="22.15"
   y="18.82"
   id="rect20"
   style="fill:#585858" />
			<rect
   width="1.772"
   height="1.061"
   x="22.15"
   y="21.573"
   id="rect22"
   style="fill:#585858" />
		</g>
	</g>
	<g
   id="g24">
		<path
   d="m 25.098,31.507 0.534,-1.438 -3.335,-1.241 -0.534,1.438 c -0.153,0.41 0.274,0.598 0.274,0.598 L 24.5,31.78 c 0,0 0.444,0.137 0.598,-0.273 l 0,0 z"
   id="path26"
   style="fill:#585858" />
		<g
   id="g28">
			<polygon
   points="28.385,20.2 27.984,18.651 26.668,19.562 "
   id="polygon30"
   style="fill:#585858" />
			
				<rect
   width="7.447"
   height="3.5550001"
   x="21.712"
   y="23.719999"
   transform="matrix(0.3486,-0.9373,0.9373,0.3486,-7.3291,40.4499)"
   id="rect32"
   style="fill:#585858" />
		</g>
	</g>
</g>
</svg>