<?xml version="1.0" encoding="UTF-8" standalone="no"?>
<!-- Created with Inkscape (http://www.inkscape.org/) -->

<svg
   xmlns:dc="http://purl.org/dc/elements/1.1/"
   xmlns:cc="http://creativecommons.org/ns#"
   xmlns:rdf="http://www.w3.org/1999/02/22-rdf-syntax-ns#"
   xmlns:svg="http://www.w3.org/2000/svg"
   xmlns="http://www.w3.org/2000/svg"
   version="1.1"
   width="40"
   height="40"
   viewBox="0 0 39.999998 39.999998"
   id="Layer_1"
   xml:space="preserve"><metadata
   id="metadata25"><rdf:RDF><cc:Work
       rdf:about=""><dc:format>image/svg+xml</dc:format><dc:type
         rdf:resource="http://purl.org/dc/dcmitype/StillImage" /><dc:title></dc:title></cc:Work></rdf:RDF></metadata><defs
   id="defs23" />
<g
   transform="scale(0.99007895,0.99009896)"
   id="g3">
	<path
   d="M 20.2,0 C 9.1,0 0,9 0,20.2 0,31.3 9,40.4 20.2,40.4 31.4,40.4 40.5,31.3 40.4,20.2 40.4,9.1 31.3,0 20.2,0 z m 0,36.3 C 11.3,36.3 4,29 4,20.1 4,11.2 11.2,3.9 20.2,3.9 c 9,0 16.2,7.3 16.2,16.2 0,8.9 -7.2,16.2 -16.2,16.2 z"
   id="path5"
   style="fill:#585858" />
	<path
   d="m 24.3,17.9 c 1.5,-1 2.9,-2 4.4,-3 -0.2,-0.4 -0.5,-0.7 -0.7,-1.1 -1.1,0.7 -2.1,1.4 -3.2,2.1 -0.3,-0.4 -0.5,-0.7 -0.7,-1.1 -0.3,0.2 -0.7,0.4 -1.1,0.6 0.5,0.9 0.9,1.7 1.3,2.5 z"
   id="path7"
   style="fill:#585858" />
	<path
   d="m 19.7,18.3 c -0.8,1 -1.5,2.1 -2.3,3.1 -0.3,-0.3 -0.8,-0.6 -1.1,-0.9 -0.4,0.4 -0.6,0.7 -0.9,1.1 0.8,0.6 1.4,1.2 2.2,1.8 1.1,-1.5 2,-2.9 3.1,-4.4 -0.3,-0.2 -0.6,-0.4 -1,-0.7 z"
   id="path9"
   style="fill:#585858" />
	<path
   d="m 19.1,15 c -0.3,-0.3 -0.7,-0.5 -1,-0.8 -0.8,1 -1.5,2.1 -2.3,3.1 -0.4,-0.3 -0.7,-0.5 -1,-0.8 -0.2,0.3 -0.5,0.6 -0.8,0.9 0.8,0.7 1.4,1.3 2.1,1.9 1,-1.4 2,-2.8 3,-4.3 z"
   id="path11"
   style="fill:#585858" />
	<path
   d="m 12.4,17.5 c -0.7,0.2 -1.3,0.5 -2,0.7 0.2,0.7 0.5,1.3 0.7,1.9 0.7,-0.2 1.3,-0.5 2,-0.7 -0.2,-0.7 -0.4,-1.3 -0.7,-1.9 z"
   id="path13"
   style="fill:#585858" />
	<path
   d="m 13.3,25.9 c 0.2,0.7 0.5,1.2 0.7,1.9 0.7,-0.2 1.3,-0.5 2,-0.7 -0.2,-0.7 -0.5,-1.2 -0.7,-1.9 -0.8,0.2 -1.4,0.5 -2,0.7 z"
   id="path15"
   style="fill:#585858" />
	<path
   d="m 13.8,21.4 c -0.7,0.3 -1.3,0.5 -2,0.7 0.2,0.7 0.5,1.2 0.7,1.9 0.7,-0.2 1.3,-0.5 2,-0.7 C 14.3,22.6 14,22 13.8,21.4 z"
   id="path17"
   style="fill:#585858" />
	<path
   d="m 28.6,10.9 c -0.5,0 -0.7,-0.1 -0.8,-0.6 -0.3,-1.6 -1.9,-2.8 -3.5,-2.8 -1.5,0 -3,1.1 -3.5,2.6 -1.1,0.4 -2.2,0.8 -3.3,1.3 -0.5,0.2 -0.7,0.2 -1,-0.3 -0.8,-1.4 -2.8,-1.9 -4.3,-1.4 -1.5,0.6 -2.5,2.2 -2.3,3.9 0,0.6 -0.1,0.8 -0.6,1 -1.1,0.4 -2.3,0.9 -3.6,1.3 2.2,5.7 4.3,11.3 6.4,17 3.3,-1.2 6.5,-2.5 9.8,-3.7 3.4,0 6.7,0 10.1,0 0,-6.1 0.1,-12.1 0.1,-18.2 -1,-0.1 -2.3,-0.1 -3.5,-0.1 z M 8.2,16.8 c 3.8,-1.4 7.6,-2.9 11.4,-4.3 1.7,4.6 3.5,9.2 5.2,13.8 C 21,27.7 17.2,29.2 13.4,30.6 11.7,26 10,21.4 8.2,16.8 z m 21.9,10.6 c -1.2,0 -2.3,0 -3.5,0 0.3,-0.1 0.5,-0.2 0.8,-0.3 -0.7,-1.8 -1.4,-3.6 -2.1,-5.4 1.2,-0.8 2.3,-1.6 3.5,-2.3 C 28.6,19 28.3,18.7 28.1,18.3 27,19 26,19.7 24.9,20.4 24.8,20.3 24.8,20.2 24.7,20.1 23.8,17.7 22.9,15.3 22,12.8 c 2.7,0 5.4,0 8.2,0.1 -0.1,4.7 -0.1,9.6 -0.1,14.5 z"
   id="path19"
   style="fill:#585858" />
</g>
</svg>