<?xml version="1.0" encoding="UTF-8" standalone="no"?>
<!-- Created with Inkscape (http://www.inkscape.org/) -->

<svg
   xmlns:dc="http://purl.org/dc/elements/1.1/"
   xmlns:cc="http://creativecommons.org/ns#"
   xmlns:rdf="http://www.w3.org/1999/02/22-rdf-syntax-ns#"
   xmlns:svg="http://www.w3.org/2000/svg"
   xmlns="http://www.w3.org/2000/svg"
   version="1.1"
   width="40"
   height="40"
   viewBox="-277 400.5 39.999998 39.999998"
   id="Layer_1"
   xml:space="preserve"><metadata
   id="metadata32"><rdf:RDF><cc:Work
       rdf:about=""><dc:format>image/svg+xml</dc:format><dc:type
         rdf:resource="http://purl.org/dc/dcmitype/StillImage" /><dc:title></dc:title></cc:Work></rdf:RDF></metadata><defs
   id="defs30">
	
	
	
</defs>
<path
   d="m -257.00041,440.5 c -11.08888,0 -19.99959,-9.0099 -19.99959,-20 0,-11.08911 9.00972,-20 19.99959,-20 10.98988,0 19.9996,9.0099 19.9996,20 0.099,10.9901 -8.91071,20 -19.9996,20 z m 0,-36.13861 c -8.91071,0 -16.03927,7.22772 -16.03927,16.0396 0,8.81188 7.22757,16.0396 16.03927,16.0396 8.91072,0 16.03928,-7.22772 16.03928,-16.0396 0,-8.81188 -7.12856,-16.0396 -16.03928,-16.0396 z"
   id="path3225_12_"
   style="fill:#585858;fill-opacity:1" /><path
   d="m -253.5,411.1 c 0,-0.2 -0.1,-0.4 -0.3,-0.5 -0.2,-0.1 -0.4,-0.2 -0.6,-0.1 l -13,1.9 c -0.2,0 -0.1,-0.2 -0.1,0 l 2,12.3 c 0,0.2 0.2,0.4 0.3,0.5 0.1,0.1 0.3,0.1 0.5,0.1 7.1,-0.9 12.1,-7.3 11.2,-14.2 z m -5.9,8.3 c 0.2,-1.1 1.3,-2 2.4,-1.8 0.2,0 0.5,0.1 0.7,0.3 -0.6,1.3 -1.6,2.5 -2.7,3.4 -0.3,-0.5 -0.5,-1.2 -0.4,-1.9 z m -4.6,4.3 -1.7,-10.1 10.8,-1.6 c 0.1,1.1 0,2.2 -0.3,3.2 -0.4,-0.2 -0.8,-0.3 -1.2,-0.4 -2.7,-0.5 -5.3,1.4 -5.7,4.1 -0.2,1.4 0.1,2.8 0.9,3.8 -0.9,0.5 -1.8,0.8 -2.8,1 z"
   id="path6"
   style="fill:#585858;fill-opacity:1" /><g
   transform="translate(0,-0.40000151)"
   id="g8"
   style="fill:#585858;fill-opacity:1">
		<g
   id="g10"
   style="fill:#585858;fill-opacity:1">
			<path
   d="m -253.9,423.8 c -0.3,0 -0.5,-0.1 -0.7,-0.3 -0.2,-0.2 -0.3,-0.4 -0.3,-0.7 0,-0.3 0.1,-0.5 0.3,-0.7 0.4,-0.4 1,-0.4 1.4,0 0.2,0.2 0.3,0.4 0.3,0.7 0,0.3 -0.1,0.5 -0.3,0.7 -0.2,0.2 -0.4,0.3 -0.7,0.3 z"
   id="path12"
   style="fill:#585858;fill-opacity:1" />
		</g>
		<g
   id="g14"
   style="fill:#585858;fill-opacity:1">
			<path
   d="m -248.8,427.4 c -0.5,-0.3 -0.6,-0.9 -0.3,-1.4 l 0,0 c 0.3,-0.4 0.9,-0.6 1.4,-0.3 l 0,0 c 0.5,0.3 0.6,0.9 0.3,1.4 l 0,0 c -0.2,0.3 -0.5,0.4 -0.8,0.4 l 0,0 c -0.3,0.1 -0.5,0 -0.6,-0.1 z m -2.8,-1.9 c -0.5,-0.3 -0.6,-0.9 -0.3,-1.4 l 0,0 c 0.3,-0.5 0.9,-0.6 1.4,-0.3 l 0,0 c 0.5,0.3 0.6,0.9 0.3,1.4 l 0,0 c -0.2,0.3 -0.5,0.4 -0.8,0.4 l 0,0 c -0.3,0.1 -0.5,0 -0.6,-0.1 z"
   id="path16"
   style="fill:#585858;fill-opacity:1" />
		</g>
		<g
   id="g18"
   style="fill:#585858;fill-opacity:1">
			<path
   d="m -245.5,429.5 c -0.3,0 -0.5,-0.1 -0.7,-0.3 -0.2,-0.2 -0.3,-0.4 -0.3,-0.7 0,-0.3 0.1,-0.5 0.3,-0.7 0.4,-0.4 1,-0.4 1.4,0 0.2,0.2 0.3,0.4 0.3,0.7 0,0.3 -0.1,0.5 -0.3,0.7 -0.2,0.2 -0.4,0.3 -0.7,0.3 z"
   id="path20"
   style="fill:#585858;fill-opacity:1" />
		</g>
	</g>
<path
   d="m -255.5,410.7 c 0,0 0.8,-0.2 1.3,-1.2 0.5,-1 0.6,-2.4 0.6,-2.4 0,0 0.6,1.4 0.1,2.9 -0.5,1.5 -0.5,1.5 -0.5,1.5 l -1.5,-0.8 z"
   id="path22"
   style="fill:#585858;fill-opacity:1" />
<path
   d="m -256.9,410.7 c 0,0 0.8,-0.2 1.3,-1.2 0.6,-1 0.6,-2.4 0.6,-2.4 0,0 0.6,1.4 0.1,2.9 -0.5,1.5 -0.5,1.5 -0.5,1.5 l -1.5,-0.8 z"
   id="path24"
   style="fill:#585858;fill-opacity:1" />
<path
   d="m -258.7,411.2 c 0,0 0.8,-0.2 1.3,-1.2 0.6,-1 0.6,-2.4 0.6,-2.4 0,0 0.6,1.4 0.1,2.9 -0.5,1.5 -0.5,1.5 -0.5,1.5 l -1.5,-0.8 z"
   id="path26"
   style="fill:#585858;fill-opacity:1" />
</svg>