<?xml version="1.0" encoding="UTF-8" standalone="no"?>
<!-- Created with Inkscape (http://www.inkscape.org/) -->

<svg
   xmlns:dc="http://purl.org/dc/elements/1.1/"
   xmlns:cc="http://creativecommons.org/ns#"
   xmlns:rdf="http://www.w3.org/1999/02/22-rdf-syntax-ns#"
   xmlns:svg="http://www.w3.org/2000/svg"
   xmlns="http://www.w3.org/2000/svg"
   version="1.1"
   width="100"
   height="100"
   viewBox="0 0 100 100"
   id="Capa_1"
   xml:space="preserve"><metadata
   id="metadata21"><rdf:RDF><cc:Work
       rdf:about=""><dc:format>image/svg+xml</dc:format><dc:type
         rdf:resource="http://purl.org/dc/dcmitype/StillImage" /><dc:title></dc:title></cc:Work></rdf:RDF></metadata><defs
   id="defs19" />
<g
   transform="matrix(0.60730815,0,0,0.60730815,-15.58928,5.6671124)"
   id="g3">
	<path fill="#687b8c"    d="m 61.072,41.714 c 5.758,0 10.673,-2.036 14.746,-6.11 4.074,-4.074 6.111,-8.99 6.111,-14.747 0,-5.757 -2.037,-10.673 -6.111,-14.747 -4.073,-4.074 -8.988,-6.111 -14.746,-6.111 -5.758,0 -10.673,2.037 -14.747,6.111 -4.073,4.074 -6.11,8.989 -6.11,14.747 0,5.758 2.037,10.673 6.11,14.747 4.074,4.073 8.989,6.11 14.747,6.11 z"
   id="path5" />
	<path fill="#687b8c"    d="m 85.88,74.264 c 6.11,6.109 13.483,9.165 22.12,9.165 8.637,0 16.01,-3.056 22.12,-9.165 6.11,-6.112 9.165,-13.485 9.165,-22.121 0,-8.636 -3.055,-16.009 -9.165,-22.12 -6.11,-6.111 -13.483,-9.166 -22.12,-9.166 -8.637,0 -16.01,3.056 -22.12,9.166 -6.11,6.11 -9.166,13.483 -9.166,22.12 0,8.637 3.056,16.01 9.166,22.121 z"
   id="path7" />
	<path fill="#687b8c"    d="m 154.93,41.714 c 5.756,0 10.672,-2.036 14.746,-6.11 4.073,-4.074 6.109,-8.99 6.109,-14.747 0,-5.757 -2.036,-10.673 -6.109,-14.747 -4.074,-4.074 -8.99,-6.111 -14.746,-6.111 -5.759,0 -10.674,2.037 -14.748,6.111 -4.072,4.074 -6.109,8.989 -6.109,14.747 0,5.758 2.037,10.673 6.109,14.747 4.074,4.073 8.989,6.11 14.748,6.11 z"
   id="path9" />
	<path fill="#687b8c"    d="m 176.111,41.715 c -0.325,0 -1.506,0.57 -3.543,1.711 -2.036,1.141 -4.685,2.295 -7.943,3.463 -3.258,1.167 -6.491,1.751 -9.695,1.751 -3.64,0 -7.25,-0.624 -10.836,-1.874 0.271,2.009 0.407,3.802 0.407,5.377 0,7.55 -2.2,14.502 -6.601,20.857 8.8,0.272 15.996,3.748 21.592,10.43 h 10.917 c 4.454,0 8.202,-1.102 11.243,-3.301 3.041,-2.199 4.562,-5.418 4.562,-9.654 0.001,-19.174 -3.366,-28.761 -10.103,-28.76 z"
   id="path11" />
	<path fill="#687b8c"    d="m 163.934,107.585 c -0.57,-3.178 -1.291,-6.125 -2.16,-8.84 -0.869,-2.716 -2.037,-5.363 -3.502,-7.943 -1.467,-2.579 -3.151,-4.78 -5.053,-6.6 -1.902,-1.82 -4.224,-3.272 -6.966,-4.359 -2.743,-1.086 -5.772,-1.629 -9.084,-1.629 -0.544,0 -1.711,0.584 -3.504,1.752 -1.793,1.167 -3.774,2.472 -5.947,3.91 -2.173,1.438 -5.077,2.742 -8.718,3.91 -3.641,1.168 -7.307,1.752 -10.999,1.752 -3.693,0 -7.36,-0.584 -10.999,-1.752 -3.64,-1.168 -6.545,-2.472 -8.718,-3.91 -2.173,-1.438 -4.155,-2.743 -5.947,-3.91 -1.793,-1.168 -2.96,-1.752 -3.504,-1.752 -3.313,0 -6.341,0.543 -9.084,1.629 -2.743,1.087 -5.065,2.539 -6.966,4.359 -1.902,1.819 -3.585,4.021 -5.052,6.6 -1.466,2.58 -2.634,5.226 -3.503,7.943 -0.869,2.715 -1.588,5.662 -2.159,8.84 -0.571,3.178 -0.951,6.137 -1.141,8.881 -0.19,2.743 -0.285,5.554 -0.285,8.433 0,6.517 1.982,11.664 5.947,15.438 3.966,3.774 9.235,5.662 15.806,5.662 h 71.208 c 6.572,0 11.84,-1.888 15.807,-5.662 3.965,-3.774 5.947,-8.921 5.947,-15.438 0,-2.879 -0.096,-5.689 -0.283,-8.433 -0.192,-2.744 -0.572,-5.703 -1.141,-8.881 z"
   id="path13" />
	<path fill="#687b8c"    d="m 78.099,73 c -4.4,-6.355 -6.599,-13.307 -6.598,-20.857 0,-1.575 0.136,-3.367 0.407,-5.377 -3.585,1.249 -7.197,1.874 -10.836,1.874 -3.205,0 -6.436,-0.584 -9.695,-1.751 -3.258,-1.168 -5.907,-2.322 -7.943,-3.463 -2.037,-1.141 -3.219,-1.711 -3.545,-1.711 -6.735,0 -10.103,9.587 -10.103,28.76 0,4.236 1.521,7.455 4.562,9.654 3.042,2.199 6.79,3.3 11.243,3.3 H 56.509 C 62.104,76.748 69.3,73.272 78.099,73 z"
   id="path15" />
</g>
</svg>