<?xml version="1.0" encoding="UTF-8" standalone="no"?>
<!-- Created with Inkscape (http://www.inkscape.org/) -->

<svg
   xmlns:dc="http://purl.org/dc/elements/1.1/"
   xmlns:cc="http://creativecommons.org/ns#"
   xmlns:rdf="http://www.w3.org/1999/02/22-rdf-syntax-ns#"
   xmlns:svg="http://www.w3.org/2000/svg"
   xmlns="http://www.w3.org/2000/svg"
   version="1.1"
   width="100"
   height="100"
   viewBox="0 0 100 100"
   id="Layer_1"
   xml:space="preserve"><metadata
     id="metadata9"><rdf:RDF><cc:Work
         rdf:about=""><dc:format>image/svg+xml</dc:format><dc:type
           rdf:resource="http://purl.org/dc/dcmitype/StillImage" /><dc:title></dc:title></cc:Work></rdf:RDF></metadata><defs
     id="defs7" /><g
     transform="matrix(0.65068493,0,0,0.65068493,-20.273972,2.5000001)"
     id="g3"
     >
     <path fill="#687b8c" d="M 53.25,46.929 H 37.607 c -0.706,0 -1.317,0.257 -1.833,0.773 C 35.258,48.219 35,48.83 35,49.536 v 15.643 c 0,0.706 0.258,1.318 0.774,1.833 0.516,0.515 1.127,0.774 1.833,0.774 H 53.25 c 0.706,0 1.317,-0.258 1.833,-0.774 0.516,-0.516 0.774,-1.127 0.774,-1.833 V 49.536 c 0,-0.706 -0.258,-1.317 -0.774,-1.834 -0.516,-0.515 -1.127,-0.773 -1.833,-0.773 z"
       id="path5"/>
     <path fill="#687b8c" d="M 53.25,109.5 H 37.607 c -0.706,0 -1.317,0.257 -1.833,0.773 C 35.258,110.789 35,111.4 35,112.107 v 15.643 c 0,0.706 0.258,1.316 0.774,1.833 0.516,0.517 1.127,0.774 1.833,0.774 H 53.25 c 0.706,0 1.317,-0.258 1.833,-0.774 0.516,-0.516 0.774,-1.127 0.774,-1.833 v -15.643 c 0,-0.707 -0.258,-1.317 -0.774,-1.834 -0.516,-0.515 -1.127,-0.773 -1.833,-0.773 z"
       id="path7"/>
     <path fill="#687b8c" d="M 53.25,78.214 H 37.607 c -0.706,0 -1.317,0.259 -1.833,0.774 C 35.258,79.503 35,80.115 35,80.821 v 15.643 c 0,0.707 0.258,1.317 0.774,1.834 0.516,0.515 1.127,0.772 1.833,0.772 H 53.25 c 0.706,0 1.317,-0.256 1.833,-0.772 0.516,-0.516 0.774,-1.127 0.774,-1.834 V 80.821 c 0,-0.706 -0.258,-1.317 -0.774,-1.833 -0.516,-0.516 -1.127,-0.774 -1.833,-0.774 z"
       id="path9"/>
     <path fill="#687b8c" d="M 53.25,15.643 H 37.607 c -0.706,0 -1.317,0.258 -1.833,0.774 C 35.258,16.933 35,17.544 35,18.25 v 15.643 c 0,0.706 0.258,1.317 0.774,1.833 0.516,0.516 1.127,0.774 1.833,0.774 H 53.25 c 0.706,0 1.317,-0.257 1.833,-0.774 0.516,-0.516 0.774,-1.127 0.774,-1.833 V 18.25 c 0,-0.706 -0.258,-1.317 -0.774,-1.833 -0.516,-0.515 -1.127,-0.774 -1.833,-0.774 z"
       id="path11"/>
     <path fill="#687b8c" d="m 178.393,109.5 h -109.5 c -0.706,0 -1.317,0.257 -1.833,0.773 -0.516,0.516 -0.774,1.127 -0.774,1.834 v 15.643 c 0,0.706 0.258,1.316 0.774,1.833 0.516,0.517 1.126,0.774 1.833,0.774 h 109.5 c 0.707,0 1.317,-0.258 1.834,-0.774 0.516,-0.517 0.773,-1.127 0.773,-1.833 v -15.643 c 0,-0.707 -0.258,-1.317 -0.773,-1.834 -0.517,-0.515 -1.127,-0.773 -1.834,-0.773 z"
       id="path13" />
     <path fill="#687b8c" d="m 178.393,78.214 h -109.5 c -0.706,0 -1.317,0.259 -1.833,0.774 -0.516,0.515 -0.774,1.127 -0.774,1.833 v 15.643 c 0,0.707 0.258,1.317 0.774,1.834 0.516,0.515 1.126,0.772 1.833,0.772 h 109.5 c 0.707,0 1.317,-0.256 1.834,-0.772 C 180.743,97.781 181,97.171 181,96.464 V 80.821 c 0,-0.706 -0.258,-1.317 -0.773,-1.833 -0.517,-0.515 -1.127,-0.774 -1.834,-0.774 z"
       id="path15" />
     <path fill="#687b8c" d="m 180.227,16.417 c -0.517,-0.515 -1.127,-0.774 -1.834,-0.774 h -109.5 c -0.706,0 -1.317,0.258 -1.833,0.774 -0.516,0.516 -0.774,1.127 -0.774,1.833 v 15.643 c 0,0.706 0.258,1.317 0.774,1.833 0.516,0.516 1.126,0.774 1.833,0.774 h 109.5 c 0.707,0 1.317,-0.257 1.834,-0.774 C 180.743,35.21 181,34.599 181,33.893 V 18.25 c 0,-0.706 -0.258,-1.317 -0.773,-1.833 z"
       id="path17"/>
     <path fill="#687b8c" d="m 178.393,46.929 h -109.5 c -0.706,0 -1.317,0.257 -1.833,0.773 -0.516,0.517 -0.774,1.128 -0.774,1.834 v 15.643 c 0,0.706 0.258,1.317 0.774,1.833 0.516,0.515 1.126,0.774 1.833,0.774 h 109.5 c 0.707,0 1.317,-0.258 1.834,-0.774 C 180.743,66.496 181,65.885 181,65.179 V 49.536 c 0,-0.706 -0.258,-1.317 -0.773,-1.834 -0.517,-0.515 -1.127,-0.773 -1.834,-0.773 z"
       id="path19" />
    </g>
    </svg>