<?xml version="1.0" encoding="UTF-8" standalone="no"?>
<svg
   xmlns:dc="http://purl.org/dc/elements/1.1/"
   xmlns:cc="http://creativecommons.org/ns#"
   xmlns:rdf="http://www.w3.org/1999/02/22-rdf-syntax-ns#"
   xmlns:svg="http://www.w3.org/2000/svg"
   xmlns="http://www.w3.org/2000/svg"
   xmlns:sodipodi="http://sodipodi.sourceforge.net/DTD/sodipodi-0.dtd"
   xmlns:inkscape="http://www.inkscape.org/namespaces/inkscape"
   width="55.805206"
   height="55.624825"
   viewBox="0 0 55.805206 55.624825"
   version="1.1"
   id="svg2"
   inkscape:version="0.91 r13725"
   sodipodi:docname="1260-facebook@2x.svg">
  <metadata
     id="metadata17">
    <rdf:RDF>
      <cc:Work
         rdf:about="">
        <dc:format>image/svg+xml</dc:format>
        <dc:type
           rdf:resource="http://purl.org/dc/dcmitype/StillImage" />
        <dc:title>1260-facebook@2x</dc:title>
      </cc:Work>
    </rdf:RDF>
  </metadata>
  <sodipodi:namedview
     pagecolor="#ffffff"
     bordercolor="#666666"
     borderopacity="1"
     objecttolerance="10"
     gridtolerance="10"
     guidetolerance="10"
     inkscape:pageopacity="0"
     inkscape:pageshadow="2"
     inkscape:window-width="1920"
     inkscape:window-height="1018"
     id="namedview15"
     showgrid="false"
     inkscape:zoom="5.7543862"
     inkscape:cx="19.477799"
     inkscape:cy="-2.1929864"
     inkscape:window-x="-8"
     inkscape:window-y="-8"
     inkscape:window-maximized="1"
     inkscape:current-layer="svg2"
     fit-margin-top="0"
     fit-margin-left="0"
     fit-margin-right="0"
     fit-margin-bottom="0" />
  <!-- Generator: Sketch 3.0.4 (8053) - http://www.bohemiancoding.com/sketch -->
  <title
     id="title4">1260-facebook@2x</title>
  <desc
     id="desc6">Created with Sketch.</desc>
  <defs
     id="defs8" />
  <path
     style="fill:#707070;fill-opacity:1"
     d="M 24.430543,55.503386 C 12.591714,53.877663 3.1269312,45.185191 0.62160823,33.637221 -2.3585067,19.900757 5.6425253,5.799407 18.928631,1.372169 22.30498,0.247091 23.921591,0 27.906153,0 c 3.984562,0 5.601172,0.247091 8.977522,1.372169 6.925046,2.307586 12.970972,7.6480104 16.132754,14.250217 6.066971,12.668612 1.972383,27.582816 -9.730704,35.443304 -2.690605,1.807171 -6.450005,3.35968 -9.905487,4.090646 -1.973832,0.417541 -7.013287,0.61296 -8.949695,0.34705 z m 7.20863,-1.932985 c 9.488661,-1.241883 17.922666,-8.279136 21.007921,-17.528809 0.944632,-2.832033 1.219131,-4.690624 1.219131,-8.254573 0,-3.563949 -0.274499,-5.42254 -1.219131,-8.254573 C 50.485522,13.051998 45.417565,7.283128 39.288055,4.325815 32.126688,0.870659 23.685618,0.870659 16.524251,4.325815 13.934242,5.57542 11.852282,7.081035 9.5586309,9.3631584 5.7342357,13.168328 3.4902455,17.300964 2.3382775,22.660495 c -0.5674569,2.640092 -0.5674569,7.612956 0,10.253048 1.0621291,4.941554 3.2295072,9.130588 6.5480644,12.655877 5.9601111,6.331396 13.9750361,9.149827 22.7528311,8.000981 z"
     id="path4145"
     inkscape:connector-curvature="0" />
  <path
     style="fill:#000000;fill-opacity:1"
     d="m 24.082982,37.172689 0,-7.29878 -2.519817,0 -2.519817,0 0,-2.780488 0,-2.780488 2.506277,0 2.506277,0 0.06337,-3.258384 c 0.07847,-4.034802 0.296264,-4.750922 1.946982,-6.40164 1.586462,-1.586462 2.419183,-1.861221 5.900114,-1.946764 1.516272,-0.03726 3.021646,-0.01807 3.345275,0.04264 l 0.588416,0.110388 0,2.404503 0,2.404504 -2.231804,0.06954 c -3.46835,0.108064 -3.729145,0.38686 -3.824872,4.088882 l -0.06429,2.486336 2.886703,0 c 2.420007,0 2.886703,0.04118 2.886703,0.254696 0,0.267847 -0.456276,3.774079 -0.617024,4.741493 l -0.09385,0.564787 -2.511942,0 -2.511943,0 0,7.29878 0,7.29878 -2.867378,0 -2.867378,0 0,-7.29878 z"
     id="path4147"
     inkscape:connector-curvature="0" />
</svg>
