<?xml version="1.0" encoding="UTF-8" standalone="no"?>
<svg
   xmlns:dc="http://purl.org/dc/elements/1.1/"
   xmlns:cc="http://creativecommons.org/ns#"
   xmlns:rdf="http://www.w3.org/1999/02/22-rdf-syntax-ns#"
   xmlns:svg="http://www.w3.org/2000/svg"
   xmlns="http://www.w3.org/2000/svg"
   xmlns:sodipodi="http://sodipodi.sourceforge.net/DTD/sodipodi-0.dtd"
   xmlns:inkscape="http://www.inkscape.org/namespaces/inkscape"
   width="55.824009"
   height="55.80188"
   viewBox="0 0 55.824009 55.80188"
   version="1.1"
   id="svg2"
   inkscape:version="0.91 r13725"
   sodipodi:docname="1266-googleplus@2x.svg">
  <metadata
     id="metadata17">
    <rdf:RDF>
      <cc:Work
         rdf:about="">
        <dc:format>image/svg+xml</dc:format>
        <dc:type
           rdf:resource="http://purl.org/dc/dcmitype/StillImage" />
        <dc:title>1266-googleplus@2x</dc:title>
      </cc:Work>
    </rdf:RDF>
  </metadata>
  <sodipodi:namedview
     pagecolor="#ffffff"
     bordercolor="#666666"
     borderopacity="1"
     objecttolerance="10"
     gridtolerance="10"
     guidetolerance="10"
     inkscape:pageopacity="0"
     inkscape:pageshadow="2"
     inkscape:window-width="1920"
     inkscape:window-height="1018"
     id="namedview15"
     showgrid="false"
     inkscape:zoom="5.7543862"
     inkscape:cx="78.997242"
     inkscape:cy="-7.109264"
     inkscape:window-x="-8"
     inkscape:window-y="-8"
     inkscape:window-maximized="1"
     inkscape:current-layer="svg2"
     fit-margin-top="0"
     fit-margin-left="0"
     fit-margin-right="0"
     fit-margin-bottom="0" />
  <!-- Generator: Sketch 3.0.4 (8053) - http://www.bohemiancoding.com/sketch -->
  <title
     id="title4">1266-googleplus@2x</title>
  <desc
     id="desc6">Created with Sketch.</desc>
  <defs
     id="defs8" />
  <path
     style="fill:#000000;fill-opacity:1"
     d="m 19.042341,43.727195 c -2.569642,-0.374201 -5.018692,-1.503556 -6.053855,-2.791679 -0.807113,-1.004345 -0.952859,-1.44075 -0.952859,-2.853143 0,-1.254085 0.01535,-1.327681 0.467778,-2.243113 1.451392,-2.936691 4.868173,-4.748558 8.963366,-4.753137 0.799493,-8.6e-4 1.443856,-0.05225 1.443856,-0.115067 0,-0.0624 -0.130685,-0.269763 -0.290411,-0.460805 -0.159726,-0.191044 -0.420339,-0.596187 -0.579141,-0.900319 -0.361813,-0.69293 -0.398434,-1.896526 -0.0814,-2.675156 0.117513,-0.288603 0.213659,-0.538844 0.213659,-0.55609 0,-0.01725 -0.511494,-0.03937 -1.136653,-0.04916 -4.009309,-0.06279 -6.989023,-3.060358 -6.996359,-7.038271 -0.0035,-1.880938 0.7414,-3.469442 2.289574,-4.882732 1.003393,-0.915974 1.891191,-1.444664 3.230831,-1.923983 l 1.07659,-0.385201 5.529661,-0.03743 5.529661,-0.03743 -0.991259,0.740031 -0.991258,0.740031 -1.504756,0.03468 -1.504755,0.03468 0.647819,0.43556 c 0.777453,0.522716 1.556902,1.609896 1.944105,2.711646 0.418138,1.189772 0.484998,3.137906 0.145699,4.245335 -0.370337,1.208739 -1.075537,2.192547 -2.551014,3.558867 -0.712347,0.659648 -1.366182,1.340861 -1.452965,1.513806 -0.25832,0.514793 -0.324778,1.114894 -0.182136,1.644627 0.139211,0.516989 1.133294,1.579489 3.199312,3.419502 1.670531,1.487788 2.185774,2.59337 2.288628,4.910819 0.07463,1.681546 -0.05949,2.393265 -0.674348,3.578516 -1.070373,2.063331 -3.403058,3.589537 -6.243361,4.084845 -1.15377,0.2012 -3.57138,0.226345 -4.784014,0.04976 z m 5.404303,-1.63707 c 2.495427,-0.668019 3.820521,-2.14574 3.962326,-4.418711 0.117199,-1.878528 -0.364469,-2.826024 -2.177313,-4.283035 -1.320846,-1.061584 -1.815665,-1.293983 -3.111194,-1.461219 -0.872631,-0.112645 -1.26087,-0.101635 -2.238151,0.06348 -1.38794,0.234491 -2.146396,0.529477 -3.300407,1.283625 -1.562858,1.02133 -2.37257,2.499409 -2.259059,4.123774 0.162987,2.332395 1.740031,4.107137 4.269984,4.805272 0.875084,0.241477 3.782192,0.173689 4.853814,-0.113182 z M 24.082682,25.141279 c 2.420204,-1.126997 3.081878,-4.9945 1.442914,-8.433889 -0.604895,-1.269381 -1.993431,-2.669164 -3.045054,-3.069717 -3.00355,-1.144024 -5.409512,1.16517 -5.182831,4.974378 0.265865,4.46767 3.835449,7.902709 6.784971,6.529228 z"
     id="path4145"
     inkscape:connector-curvature="0" />
  <path
     style="fill:#000000;fill-opacity:1"
     d="m 37.902152,22.912899 0,-3.010594 -3.010593,0 -3.010593,0 0,-0.92161 0,-0.92161 3.010593,0 3.010593,0 0,-3.010593 0,-3.010593 0.919426,0 0.919425,0 0.0329,2.979872 0.0329,2.979873 2.979873,0.0329 2.979873,0.0329 0,0.919426 0,0.919425 -3.010593,0 -3.010593,0 0,3.010594 0,3.010593 -0.92161,0 -0.921611,0 0,-3.010593 z"
     id="path4147"
     inkscape:connector-curvature="0" />
  <path
     style="fill:#707070;fill-opacity:1"
     d="M 25.798339,55.769391 C 21.97103,55.418418 18.231996,54.335492 15.006156,52.643681 1.5609579,45.592263 -3.8172404,29.171679 2.8737965,15.601459 6.9968768,7.2393593 14.714521,1.628024 24.01656,0.22900244 c 2.011942,-0.30259497 5.846581,-0.30583796 7.802966,-0.0066 3.769735,0.5766003 7.176356,1.77432436 10.269761,3.61071696 6.474974,3.8438532 11.052294,9.9376766 12.887711,17.1575106 0.6364,2.503353 0.84701,4.218789 0.84701,6.898963 0,2.663098 -0.20825,4.370761 -0.839182,6.881356 -2.733112,10.87556 -11.782819,19.054013 -22.980978,20.768499 -1.206545,0.184727 -5.118032,0.329665 -6.205509,0.229942 z m 5.713983,-2.087738 c 2.783374,-0.374203 5.465875,-1.208441 8.082385,-2.51356 2.664368,-1.32899 4.484969,-2.65314 6.736513,-4.899562 4.972909,-4.961595 7.60695,-11.325628 7.60695,-18.378937 0,-12.952906 -9.371285,-23.8333305 -22.180085,-25.7519353 C 29.940816,1.8654536 26.54039,1.8112502 24.815288,2.0269895 17.247205,2.9734453 10.475272,7.129658 6.2786413,13.403689 4.1404069,16.600384 2.7405237,20.245507 2.1311852,24.203153 c -0.2847309,1.849323 -0.2830786,5.541888 0.0033,7.372882 0.4697068,3.003132 1.129697,5.130685 2.401507,7.741525 2.5445049,5.223499 6.6632958,9.362148 11.8619228,11.919115 4.731311,2.327114 9.841899,3.153828 15.114407,2.444978 z"
     id="path4149"
     inkscape:connector-curvature="0" />
</svg>
