<?xml version="1.0" encoding="UTF-8" standalone="no"?>
<svg
   xmlns:dc="http://purl.org/dc/elements/1.1/"
   xmlns:cc="http://creativecommons.org/ns#"
   xmlns:rdf="http://www.w3.org/1999/02/22-rdf-syntax-ns#"
   xmlns:svg="http://www.w3.org/2000/svg"
   xmlns="http://www.w3.org/2000/svg"
   xmlns:sodipodi="http://sodipodi.sourceforge.net/DTD/sodipodi-0.dtd"
   xmlns:inkscape="http://www.inkscape.org/namespaces/inkscape"
   width="55.830917"
   height="55.908367"
   viewBox="0 0 55.830917 55.908367"
   version="1.1"
   id="svg2"
   inkscape:version="0.91 r13725"
   sodipodi:docname="1272-pinterest@2x.svg">
  <metadata
     id="metadata17">
    <rdf:RDF>
      <cc:Work
         rdf:about="">
        <dc:format>image/svg+xml</dc:format>
        <dc:type
           rdf:resource="http://purl.org/dc/dcmitype/StillImage" />
        <dc:title>1272-pinterest@2x</dc:title>
      </cc:Work>
    </rdf:RDF>
  </metadata>
  <sodipodi:namedview
     pagecolor="#ffffff"
     bordercolor="#666666"
     borderopacity="1"
     objecttolerance="10"
     gridtolerance="10"
     guidetolerance="10"
     inkscape:pageopacity="0"
     inkscape:pageshadow="2"
     inkscape:window-width="1920"
     inkscape:window-height="1018"
     id="namedview15"
     showgrid="false"
     inkscape:zoom="11.508772"
     inkscape:cx="14.601499"
     inkscape:cy="23.025783"
     inkscape:window-x="-8"
     inkscape:window-y="-8"
     inkscape:window-maximized="1"
     inkscape:current-layer="svg2"
     fit-margin-top="0"
     fit-margin-left="0"
     fit-margin-right="0"
     fit-margin-bottom="0" />
  <!-- Generator: Sketch 3.0.4 (8053) - http://www.bohemiancoding.com/sketch -->
  <title
     id="title4">1272-pinterest@2x</title>
  <desc
     id="desc6">Created with Sketch.</desc>
  <defs
     id="defs8" />
  <path
     style="fill:#000000;fill-opacity:1"
     d="m 19.979071,45.780108 c -0.225485,-0.149142 -0.512437,-3.569892 -0.424463,-5.060026 0.09761,-1.653379 0.215402,-2.248287 1.625434,-8.209317 1.299305,-5.492922 1.390113,-5.931201 1.296221,-6.256097 -0.542678,-1.877829 -0.651663,-3.038311 -0.408179,-4.346323 0.304195,-1.634154 1.273652,-3.082854 2.44865,-3.65912 0.460354,-0.225775 0.598623,-0.250907 1.380497,-0.250923 0.753036,-1.5e-5 0.925013,0.02864 1.289684,0.214909 0.887143,0.453135 1.375308,1.33203 1.431431,2.577157 0.05219,1.15799 -0.05531,1.622987 -1.443725,6.244501 -0.332344,1.10625 -0.392632,1.421616 -0.398657,2.085366 -0.0061,0.672327 0.02513,0.851177 0.222699,1.275127 0.67577,1.450114 2.276107,2.204763 3.953299,1.864203 1.089417,-0.221211 1.859746,-0.653636 2.721945,-1.527964 1.497105,-1.518167 2.460583,-3.74544 2.914692,-6.73789 0.204328,-1.346474 0.206521,-3.605419 0.0044,-4.518293 -0.744884,-3.363967 -3.09465,-5.445363 -6.762291,-5.989955 -5.489449,-0.815105 -10.291252,2.148203 -11.677423,7.206419 -0.21879,0.798379 -0.238391,0.999371 -0.241498,2.476372 -0.0032,1.527968 0.0084,1.64277 0.23584,2.32123 0.146753,0.437861 0.414468,0.968195 0.69259,1.371993 0.817303,1.18662 0.789759,1.059679 0.488349,2.250655 -0.307644,1.215609 -0.441779,1.507527 -0.725413,1.578715 -0.271837,0.06823 -0.493737,-0.0025 -1.159385,-0.369367 -3.018087,-1.663537 -4.369887,-6.34798 -3.104798,-10.759171 0.294552,-1.027061 1.192372,-2.846634 1.881607,-3.813373 0.71048,-0.996537 2.007077,-2.28979 3.039512,-3.031675 0.963737,-0.692519 2.743143,-1.591646 3.900111,-1.970711 1.817512,-0.595483 4.424282,-0.9393649 6.256098,-0.8252959 3.533761,0.2200509 6.449741,1.4221929 8.708428,3.5901339 2.455237,2.356595 3.629993,5.07486 3.628923,8.396957 -0.0016,5.016857 -1.932754,9.515494 -5.109937,11.903719 -1.638258,1.231447 -3.306557,1.844661 -5.453561,2.004556 -2.134687,0.158979 -4.35373,-0.758906 -5.431459,-2.246668 -0.197399,-0.272502 -0.24669,-0.302491 -0.285692,-0.173817 -0.02592,0.08553 -0.383764,1.465373 -0.795201,3.066325 -0.411436,1.600953 -0.886026,3.262729 -1.054646,3.692836 -0.567321,1.447106 -1.605024,3.248841 -2.795293,4.85339 -0.626663,0.844778 -0.673506,0.887351 -0.848777,0.771422 z"
     id="path4145"
     inkscape:connector-curvature="0" />
  <path
     style="fill:#707070;fill-opacity:1"
     d="M 25.81034,55.829175 C 15.952765,55.084473 7.226722,49.188838 2.8688701,40.329076 1.3941054,37.330794 0.62760302,34.833798 0.16159312,31.509716 c -0.2154575,-1.536874 -0.2154575,-5.588125 0,-7.124999 C 0.62801702,21.057682 1.3956165,18.55835 2.8702113,15.565357 6.5323839,8.1322279 13.195307,2.7830305 21.271028,0.7926215 c 6.177564,-1.52257306 12.891712,-0.8335837 18.63002,1.911767 2.980575,1.4259822 5.41894,3.1609999 7.808717,5.5562912 5.275001,5.2871733 8.121153,12.1865473 8.121153,19.6865373 0,6.455798 -2.10031,12.447502 -6.137327,17.508383 -0.942311,1.181298 -2.999648,3.250687 -4.159166,4.183529 -5.629203,4.528742 -12.630413,6.725944 -19.724085,6.190046 z m 4.878434,-1.993081 c 4.23603,-0.471128 8.126496,-1.879488 11.629088,-4.209763 5.462061,-3.633909 9.413545,-9.300398 10.905646,-15.638861 0.94304,-4.006047 0.94304,-8.07446 0,-12.080507 C 51.840632,16.032485 48.401722,10.795685 43.508437,7.1127717 37.172398,2.3439746 28.948021,0.7491171 21.205873,2.7878957 12.468931,5.0886386 5.4557779,11.925956 2.9128199,20.622303 c -0.73787,2.52335 -0.997295,4.42877 -0.997295,7.324914 0,2.89807 0.259344,4.801287 0.9988734,7.330311 3.2978592,11.277939 13.8723357,19.008232 25.5586747,18.684238 0.795449,-0.02205 1.792514,-0.07861 2.215701,-0.125672 z"
     id="path4147"
     inkscape:connector-curvature="0" />
</svg>
