<?xml version="1.0" encoding="UTF-8" standalone="no"?>
<svg
   xmlns:dc="http://purl.org/dc/elements/1.1/"
   xmlns:cc="http://creativecommons.org/ns#"
   xmlns:rdf="http://www.w3.org/1999/02/22-rdf-syntax-ns#"
   xmlns:svg="http://www.w3.org/2000/svg"
   xmlns="http://www.w3.org/2000/svg"
   xmlns:sodipodi="http://sodipodi.sourceforge.net/DTD/sodipodi-0.dtd"
   xmlns:inkscape="http://www.inkscape.org/namespaces/inkscape"
   width="55.594585"
   height="55.688839"
   viewBox="0 0 55.594585 55.688839"
   version="1.1"
   id="svg2"
   inkscape:version="0.91 r13725"
   sodipodi:docname="1282-twitter@2x.svg">
  <metadata
     id="metadata17">
    <rdf:RDF>
      <cc:Work
         rdf:about="">
        <dc:format>image/svg+xml</dc:format>
        <dc:type
           rdf:resource="http://purl.org/dc/dcmitype/StillImage" />
        <dc:title>1282-twitter@2x</dc:title>
      </cc:Work>
    </rdf:RDF>
  </metadata>
  <sodipodi:namedview
     pagecolor="#ffffff"
     bordercolor="#666666"
     borderopacity="1"
     objecttolerance="10"
     gridtolerance="10"
     guidetolerance="10"
     inkscape:pageopacity="0"
     inkscape:pageshadow="2"
     inkscape:window-width="1920"
     inkscape:window-height="1018"
     id="namedview15"
     showgrid="false"
     inkscape:zoom="11.508772"
     inkscape:cx="27.478394"
     inkscape:cy="21.995349"
     inkscape:window-x="-8"
     inkscape:window-y="-8"
     inkscape:window-maximized="1"
     inkscape:current-layer="svg2"
     fit-margin-top="0"
     fit-margin-left="0"
     fit-margin-right="0"
     fit-margin-bottom="0" />
  <!-- Generator: Sketch 3.0.4 (8053) - http://www.bohemiancoding.com/sketch -->
  <title
     id="title4">1282-twitter@2x</title>
  <desc
     id="desc6">Created with Sketch.</desc>
  <defs
     id="defs8" />
  <path
     style="fill:#000000;fill-opacity:1"
     d="M 19.227616,40.353588 C 17.211741,40.040122 15.55156,39.52419 13.811272,38.670354 l -1.474576,-0.723469 1.105932,-0.02311 c 2.520628,-0.05267 5.860081,-1.152423 7.577816,-2.495532 l 0.57358,-0.448485 -0.696461,-0.149782 C 18.51884,34.318406 16.893954,33.242391 15.94597,31.550985 l -0.568691,-1.014667 1.36742,0 c 1.581371,0 1.76992,-0.292434 0.44581,-0.691439 -1.870813,-0.563748 -3.712394,-2.806574 -4.123013,-5.021337 l -0.170643,-0.920403 0.8794,0.367437 c 0.483671,0.202091 1.181881,0.367437 1.551578,0.367437 l 0.672178,0 -0.882967,-0.92161 c -1.383668,-1.444223 -1.778485,-2.407217 -1.788491,-4.362288 -0.0048,-0.946186 0.139636,-2.071999 0.321064,-2.501805 l 0.329869,-0.781466 0.735707,0.837925 c 2.527131,2.878243 7.86121,5.515549 11.718798,5.794075 l 1.044204,0.07539 0.06302,-1.712061 c 0.07172,-1.948368 0.618194,-3.221355 1.915896,-4.462988 2.315355,-2.215317 5.874759,-2.383099 8.47538,-0.39951 l 0.888805,0.677927 1.810667,-0.646678 c 0.995867,-0.355673 1.810667,-0.586565 1.810667,-0.513093 0,0.373166 -1.112996,1.855666 -1.799281,2.396625 l -0.781228,0.615797 0.644948,0.0027 c 0.354722,0.0015 1.101226,-0.158259 1.658898,-0.355017 0.557673,-0.196758 1.013951,-0.28291 1.013951,-0.191449 0,0.09146 -0.623355,0.796223 -1.385237,1.566137 l -1.385234,1.399842 -0.11106,1.786362 c -0.507294,8.159764 -6.205759,15.170537 -13.830334,17.015337 -2.074626,0.501965 -5.390563,0.683043 -7.240435,0.395393 z"
     id="path4145"
     inkscape:connector-curvature="0" />
  <path
     style="fill:#707070;fill-opacity:1"
     d="M 25.669323,55.630487 C 22.345,55.172631 20.964377,54.889261 19.115981,54.28544 9.2224746,51.053486 1.7175415,42.189591 0.22353722,31.972036 -0.23287488,28.850616 0.03318112,23.76097 0.80717472,20.807061 2.8314395,13.081553 8.3305203,6.3640891 15.593052,2.7452076 22.803893,-0.84791717 32.132846,-0.91913717 39.489435,2.5627757 50.273402,7.6668843 56.490562,18.435249 55.489573,30.275647 54.468159,42.357673 45.585253,52.436272 33.656611,55.047459 31.59234,55.499328 27.09863,55.827345 25.669323,55.630487 Z m 9.09322,-2.662308 C 39.035558,51.708546 42.616299,49.677123 45.713219,46.755646 57.133524,35.982308 56.385742,17.281514 44.142412,7.4723612 41.612459,5.4454047 37.507071,3.3859459 34.271018,2.5203974 32.070712,1.9318807 31.388811,1.8636573 27.758306,1.8688072 24.185838,1.8738747 23.419332,1.9502485 21.317895,2.5105231 11.697623,5.0754311 4.6664647,12.346064 2.2509077,22.226918 c -0.641158,2.622662 -0.574902,8.896057 0.1232913,11.673729 2.482299,9.87551 10.056928,17.246634 19.977327,19.440612 3.205083,0.708828 9.369485,0.523526 12.411017,-0.37308 z"
     id="path4147"
     inkscape:connector-curvature="0" />
</svg>
