<?xml version="1.0" encoding="UTF-8" standalone="no"?>
<!-- Generator: Adobe Illustrator 18.1.1, SVG Export Plug-In . SVG Version: 6.00 Build 0)  -->

<svg
   xmlns:dc="http://purl.org/dc/elements/1.1/"
   xmlns:cc="http://creativecommons.org/ns#"
   xmlns:rdf="http://www.w3.org/1999/02/22-rdf-syntax-ns#"
   xmlns:svg="http://www.w3.org/2000/svg"
   xmlns="http://www.w3.org/2000/svg"
   xmlns:sodipodi="http://sodipodi.sourceforge.net/DTD/sodipodi-0.dtd"
   xmlns:inkscape="http://www.inkscape.org/namespaces/inkscape"
   version="1.1"
   id="Capa_1"
   x="0px"
   y="0px"
   viewBox="0 0 519.085 519.085"
   style="enable-background:new 0 0 519.085 519.085;"
   xml:space="preserve"
   inkscape:version="0.48.5 r10040"
   width="100%"
   height="100%"
   sodipodi:docname="magnifyingglass2.svg"><metadata
   id="metadata43"><rdf:RDF><cc:Work
       rdf:about=""><dc:format>image/svg+xml</dc:format><dc:type
         rdf:resource="http://purl.org/dc/dcmitype/StillImage" /></cc:Work></rdf:RDF></metadata><defs
   id="defs41" /><sodipodi:namedview
   pagecolor="#ffffff"
   bordercolor="#666666"
   borderopacity="1"
   objecttolerance="10"
   gridtolerance="10"
   guidetolerance="10"
   inkscape:pageopacity="0"
   inkscape:pageshadow="2"
   inkscape:window-width="1600"
   inkscape:window-height="848"
   id="namedview39"
   showgrid="false"
   inkscape:zoom="0.80431806"
   inkscape:cx="5.073639"
   inkscape:cy="242.13593"
   inkscape:window-x="-8"
   inkscape:window-y="588"
   inkscape:window-maximized="1"
   inkscape:current-layer="Capa_1" />
<g
   id="g3"
   transform="matrix(-1,0,0,1,519.08517,0)"
   style="fill:#ffffff">
	<g
   id="g5"
   style="fill:#ffffff">
		<path
   style="fill:#ffffff"
   d="M 470.077,49.492 C 437.405,16.82 397.86,0.484 351.442,0.484 c -46.419,0 -86.163,16.336 -119.232,49.008 -29.484,29.883 -45.721,65.742 -48.709,107.578 -2.988,41.836 8.068,79.29 33.17,112.359 l -26.297,25.699 c -1.992,-0.398 -4.184,-0.598 -6.574,-0.598 -20.32,-2.395 -38.449,4.582 -54.387,20.918 L 21.237,423.027 c -12.352,12.75 -19.324,27.094 -20.918,43.029 -1.594,15.938 2.789,28.986 13.148,39.146 10.359,10.16 23.508,14.543 39.445,13.145 15.937,-1.395 30.082,-8.268 42.434,-20.619 L 203.522,389.554 c 13.945,-13.941 20.918,-29.684 20.918,-47.215 0.797,-4.781 0.797,-9.762 0,-14.939 l 25.102,-25.104 c 32.672,25.104 70.125,36.357 112.359,33.77 42.231,-2.59 78.293,-18.824 108.176,-48.711 32.672,-33.067 49.008,-72.811 49.008,-119.229 0,-46.418 -16.336,-85.962 -49.008,-118.634 z m -34.664,202.905 c -23.109,23.31 -51.103,34.964 -83.971,34.964 -32.872,0 -60.963,-11.654 -84.271,-34.964 -23.309,-23.309 -34.963,-51.397 -34.963,-84.27 0,-32.873 11.654,-60.861 34.963,-83.971 23.31,-23.11 51.397,-34.664 84.271,-34.664 32.869,0 60.859,11.555 83.971,34.664 23.106,23.109 34.664,51.1 34.664,83.971 0,32.871 -11.556,60.961 -34.664,84.27 z"
   id="path7"
   inkscape:connector-curvature="0" />
	</g>
</g>
<g
   id="g9">
</g>
<g
   id="g11">
</g>
<g
   id="g13">
</g>
<g
   id="g15">
</g>
<g
   id="g17">
</g>
<g
   id="g19">
</g>
<g
   id="g21">
</g>
<g
   id="g23">
</g>
<g
   id="g25">
</g>
<g
   id="g27">
</g>
<g
   id="g29">
</g>
<g
   id="g31">
</g>
<g
   id="g33">
</g>
<g
   id="g35">
</g>
<g
   id="g37">
</g>
</svg>