<?xml version="1.0" encoding="utf-8"?>
<!-- Generator: Adobe Illustrator 18.1.1, SVG Export Plug-In . SVG Version: 6.00 Build 0)  -->
<svg version="1.1"
	 id="Capa_1" xmlns:dc="http://purl.org/dc/elements/1.1/" xmlns:cc="http://creativecommons.org/ns#" xmlns:rdf="http://www.w3.org/1999/02/22-rdf-syntax-ns#" xmlns:svg="http://www.w3.org/2000/svg" xmlns:sodipodi="http://sodipodi.sourceforge.net/DTD/sodipodi-0.dtd" xmlns:inkscape="http://www.inkscape.org/namespaces/inkscape" sodipodi:docname="magnifyingglass2.svg" inkscape:version="0.48.5 r10040"
	 xmlns="http://www.w3.org/2000/svg" xmlns:xlink="http://www.w3.org/1999/xlink" x="0px" y="0px" width="1920px" height="2000px"
	 viewBox="0 0 1920 2000" enable-background="new 0 0 1920 2000" xml:space="preserve">
<sodipodi:namedview  inkscape:cy="242.13593" inkscape:cx="5.073639" inkscape:zoom="0.80431806" showgrid="false" guidetolerance="10" gridtolerance="10" objecttolerance="10" bordercolor="#666666" pagecolor="#ffffff" borderopacity="1" id="namedview39" inkscape:current-layer="Capa_1" inkscape:window-maximized="1" inkscape:window-y="588" inkscape:window-x="-8" inkscape:window-height="848" inkscape:window-width="1600" inkscape:pageshadow="2" inkscape:pageopacity="0">
	</sodipodi:namedview>
<g id="g3" transform="matrix(-1,0,0,1,519.08517,0)">
	<g id="g5">
		<path id="path7" inkscape:connector-curvature="0" d="M337.8,223.1C217,102.2,70.7,41.8-101,41.8c-171.7,0-318.7,60.4-441,181.3
			C-651.1,333.6-711.1,466.2-722.2,621c-11.1,154.7,29.8,293.3,122.7,415.6l-97.3,95.1c-7.4-1.5-15.5-2.2-24.3-2.2
			c-75.2-8.9-142.2,16.9-201.2,77.4l-400.1,397.9c-45.7,47.2-71.5,100.2-77.4,159.2c-5.9,59,10.3,107.2,48.6,144.8
			c38.3,37.6,87,53.8,145.9,48.6c58.9-5.2,111.3-30.6,157-76.3l400.1-400.1c51.6-51.6,77.4-109.8,77.4-174.6
			c2.9-17.7,2.9-36.1,0-55.3l92.8-92.9c120.8,92.9,259.4,134.5,415.6,124.9c156.2-9.6,289.6-69.6,400.1-180.2
			c120.8-122.3,181.3-269.3,181.3-441S458.7,343.9,337.8,223.1L337.8,223.1z M209.6,973.6c-85.5,86.2-189,129.3-310.6,129.3
			c-121.6,0-225.5-43.1-311.7-129.3C-498.9,887.4-542,783.5-542,661.9s43.1-225.1,129.3-310.6c86.2-85.5,190.1-128.2,311.7-128.2
			c121.6,0,225.1,42.7,310.6,128.2c85.5,85.5,128.2,189,128.2,310.6S295.1,887.4,209.6,973.6L209.6,973.6z"/>
	</g>
</g>
<g id="g9">
</g>
<g id="g11">
</g>
<g id="g13">
</g>
<g id="g15">
</g>
<g id="g17">
</g>
<g id="g19">
</g>
<g id="g21">
</g>
<g id="g23">
</g>
<g id="g25">
</g>
<g id="g27">
</g>
<g id="g29">
</g>
<g id="g31">
</g>
<g id="g33">
</g>
<g id="g35">
</g>
<g id="g37">
</g>
</svg>
