<?xml version="1.0" encoding="utf-8"?>
<!-- Generator: Adobe Illustrator 18.1.1, SVG Export Plug-In . SVG Version: 6.00 Build 0)  -->
<svg version="1.1" xmlns="http://www.w3.org/2000/svg" xmlns:xlink="http://www.w3.org/1999/xlink" x="0px" y="0px"
	 viewBox="0 0 67.9 13.5" enable-background="new 0 0 67.9 13.5" xml:space="preserve">
<g id="Layer_3">
	<path fill="#ffffff" d="M9.7,0h-8C0.7,0,0,0.7,0,1.8v9.9c0,0.9,0.7,1.8,1.8,1.8h8c1.1,0,1.8-0.9,1.8-1.8V1.8C11.5,0.7,10.8,0,9.7,0
		z M10.4,11.9c-2.1,0-3.2-2.1-4.6,0c-1.6-2.1-2.7,0-4.8,0V1.1h9.4V11.9z"/>
</g>
<g id="Layer_2">
	<path fill="#ffffff" d="M7,3.4c-0.1,0-0.2,0-0.3,0c-0.1,0-0.2,0-0.3,0c0,0-0.1,0-0.1,0c0,0-0.1,0-0.1,0v6.5H5.7V6.4
		c-0.3,0-0.5-0.1-0.8-0.1C4.7,6.1,4.5,6,4.3,5.9C4.1,5.7,4,5.6,3.9,5.4C3.8,5.2,3.8,4.9,3.8,4.7c0-0.3,0.1-0.5,0.2-0.8
		c0.1-0.2,0.3-0.4,0.5-0.5C4.7,3.2,5,3.1,5.3,3.1C5.6,3,5.9,3,6.3,3c0.2,0,0.4,0,0.6,0c0.2,0,0.4,0,0.6,0.1v6.8H7V3.4z"/>
</g>
<g id="Layer_4">
	<defs>
		<path id="SVGID_1_"  fill="#ffffff" d="M17.8,9.9V4.4H21v0.5h-2.6v1.9h2.3v0.5h-2.3v2.2h2.8v0.5H17.8z M25.3,9.7c-0.2,0.1-0.3,0.1-0.6,0.1
			c-0.2,0-0.5,0.1-0.9,0.1c-0.3,0-0.6,0-0.8-0.1c-0.2-0.1-0.5-0.2-0.6-0.4C22.2,9.2,22.1,9,22,8.7c-0.1-0.3-0.1-0.6-0.1-0.9
			c0-0.3,0-0.6,0.1-0.9c0.1-0.3,0.2-0.5,0.4-0.7c0.2-0.2,0.3-0.3,0.6-0.4c0.2-0.1,0.5-0.2,0.8-0.2c0.3,0,0.5,0,0.7,0.1
			c0.2,0.1,0.3,0.1,0.4,0.2V3.9l0.5-0.1V9.7z M24.8,6.6c0,0-0.1-0.1-0.2-0.1c-0.1,0-0.2-0.1-0.2-0.1c-0.1,0-0.2-0.1-0.3-0.1
			c-0.1,0-0.2,0-0.3,0c-0.3,0-0.5,0-0.6,0.1c-0.2,0.1-0.3,0.2-0.4,0.4c-0.1,0.1-0.2,0.3-0.2,0.5c0,0.2-0.1,0.4-0.1,0.6
			c0,0.5,0.1,0.9,0.4,1.2c0.3,0.3,0.6,0.4,1.1,0.4c0.3,0,0.5,0,0.6,0c0.2,0,0.3,0,0.3-0.1V6.6z M27.7,10c-0.2-0.3-0.3-0.7-0.5-1
			c-0.2-0.3-0.3-0.7-0.4-1c-0.1-0.4-0.3-0.7-0.4-1.1c-0.1-0.4-0.2-0.7-0.3-1h0.5c0.1,0.3,0.1,0.5,0.2,0.8c0.1,0.3,0.2,0.6,0.3,0.9
			c0.1,0.3,0.2,0.6,0.4,0.9c0.1,0.3,0.3,0.6,0.4,1c0.1-0.3,0.2-0.6,0.3-0.9c0.1-0.3,0.2-0.6,0.2-0.9c0.1-0.3,0.2-0.6,0.2-0.9
			c0.1-0.3,0.1-0.6,0.2-1h0.5c-0.2,0.8-0.4,1.5-0.6,2.2c-0.2,0.7-0.4,1.4-0.7,2c-0.1,0.2-0.2,0.4-0.3,0.6c-0.1,0.2-0.2,0.3-0.4,0.4
			c-0.1,0.1-0.3,0.2-0.4,0.2c-0.2,0.1-0.4,0.1-0.6,0.1c-0.1,0-0.3,0-0.4,0c-0.1,0-0.2-0.1-0.2-0.1l0.1-0.4c0,0,0.1,0,0.2,0.1
			c0.1,0,0.2,0,0.3,0c0.1,0,0.3,0,0.4,0c0.1,0,0.2-0.1,0.3-0.2c0.1-0.1,0.2-0.2,0.3-0.3C27.6,10.3,27.7,10.1,27.7,10z M32,10
			c-0.3,0-0.6,0-0.8-0.1c-0.2-0.1-0.4-0.2-0.6-0.4c-0.2-0.2-0.3-0.4-0.4-0.7c-0.1-0.3-0.1-0.5-0.1-0.9c0-0.3,0-0.6,0.1-0.9
			c0.1-0.3,0.2-0.5,0.4-0.7C30.8,6.1,31,6,31.2,5.9c0.2-0.1,0.5-0.2,0.8-0.2c0.2,0,0.4,0,0.6,0.1c0.2,0,0.3,0.1,0.4,0.1l-0.1,0.4
			c-0.1-0.1-0.2-0.1-0.4-0.1c-0.1,0-0.3,0-0.5,0c-0.4,0-0.8,0.1-1,0.4c-0.2,0.3-0.3,0.7-0.3,1.2c0,0.2,0,0.5,0.1,0.7
			C30.8,8.7,30.9,8.9,31,9c0.1,0.1,0.3,0.3,0.5,0.3c0.2,0.1,0.4,0.1,0.7,0.1c0.2,0,0.4,0,0.6-0.1c0.1,0,0.3-0.1,0.3-0.1l0.1,0.4
			c-0.1,0.1-0.2,0.1-0.4,0.2C32.5,9.9,32.3,10,32,10z M33.2,11.3c-0.1,0-0.1,0-0.2,0s-0.2,0-0.2-0.1l0.1-0.4c0,0,0.1,0,0.1,0
			c0.1,0,0.1,0,0.2,0c0.3,0,0.5-0.1,0.6-0.3c0.1-0.2,0.2-0.4,0.2-0.8v-4h0.5v4c0,0.5-0.1,0.9-0.3,1.1C34,11.2,33.7,11.3,33.2,11.3z
			 M34.6,4.6c0,0.1,0,0.2-0.1,0.3C34.4,5,34.3,5,34.2,5c-0.1,0-0.2,0-0.3-0.1c-0.1-0.1-0.1-0.2-0.1-0.3c0-0.1,0-0.2,0.1-0.3
			c0.1-0.1,0.2-0.1,0.3-0.1c0.1,0,0.2,0,0.3,0.1C34.6,4.4,34.6,4.5,34.6,4.6z M37.1,5.7c0.3,0,0.5,0,0.7,0.1
			c0.2,0.1,0.3,0.2,0.5,0.3c0.1,0.1,0.2,0.3,0.3,0.5c0.1,0.2,0.1,0.4,0.1,0.6v2.6c-0.1,0-0.1,0-0.2,0.1c-0.1,0-0.2,0-0.3,0.1
			c-0.1,0-0.3,0-0.4,0.1c-0.2,0-0.3,0-0.5,0c-0.2,0-0.4,0-0.6-0.1c-0.2,0-0.3-0.1-0.5-0.2c-0.1-0.1-0.2-0.2-0.3-0.4
			c-0.1-0.2-0.1-0.4-0.1-0.6c0-0.2,0-0.4,0.1-0.6C35.7,8,35.9,7.8,36,7.7c0.2-0.1,0.3-0.2,0.5-0.2c0.2,0,0.4-0.1,0.7-0.1
			c0.1,0,0.2,0,0.2,0c0.1,0,0.2,0,0.2,0c0.1,0,0.1,0,0.2,0c0.1,0,0.1,0,0.1,0V7.3c0-0.1,0-0.3,0-0.4c0-0.1-0.1-0.3-0.1-0.4
			c-0.1-0.1-0.2-0.2-0.3-0.3c-0.1-0.1-0.3-0.1-0.5-0.1c-0.3,0-0.5,0-0.7,0.1c-0.1,0-0.3,0.1-0.3,0.1L36,5.9c0.1,0,0.2-0.1,0.4-0.1
			C36.6,5.7,36.8,5.7,37.1,5.7z M37.1,9.5c0.2,0,0.4,0,0.5,0c0.1,0,0.3,0,0.4-0.1V8c-0.1,0-0.1-0.1-0.3-0.1c-0.1,0-0.3,0-0.5,0
			c-0.1,0-0.3,0-0.4,0c-0.1,0-0.3,0.1-0.4,0.1c-0.1,0.1-0.2,0.1-0.3,0.2C36.1,8.4,36,8.5,36,8.7c0,0.2,0,0.3,0.1,0.4
			c0,0.1,0.1,0.2,0.2,0.3c0.1,0.1,0.2,0.1,0.3,0.1C36.8,9.5,36.9,9.5,37.1,9.5z M46.5,7.2c0,0.5-0.1,0.9-0.2,1.2
			C46.2,8.7,46,9,45.8,9.3c-0.2,0.2-0.5,0.4-0.8,0.5c-0.3,0.1-0.6,0.2-1,0.2s-0.7-0.1-1-0.2c-0.3-0.1-0.6-0.3-0.8-0.5
			c-0.2-0.2-0.4-0.5-0.6-0.9c-0.1-0.4-0.2-0.8-0.2-1.2c0-0.5,0.1-0.9,0.2-1.2c0.1-0.4,0.3-0.6,0.6-0.9c0.2-0.2,0.5-0.4,0.8-0.5
			c0.3-0.1,0.6-0.2,1-0.2s0.7,0.1,1,0.2c0.3,0.1,0.6,0.3,0.8,0.5c0.2,0.2,0.4,0.5,0.6,0.9C46.4,6.3,46.5,6.7,46.5,7.2z M45.9,7.2
			c0-0.4,0-0.7-0.1-1c-0.1-0.3-0.2-0.5-0.4-0.7C45.2,5.2,45,5.1,44.8,5c-0.2-0.1-0.5-0.2-0.8-0.2c-0.3,0-0.6,0.1-0.8,0.2
			c-0.2,0.1-0.5,0.3-0.6,0.5s-0.3,0.5-0.4,0.7C42,6.5,42,6.8,42,7.2c0,0.4,0,0.7,0.1,1c0.1,0.3,0.2,0.5,0.4,0.7s0.4,0.4,0.6,0.5
			c0.2,0.1,0.5,0.2,0.8,0.2c0.3,0,0.6-0.1,0.8-0.2c0.2-0.1,0.5-0.3,0.6-0.5c0.2-0.2,0.3-0.5,0.4-0.7C45.9,7.8,45.9,7.5,45.9,7.2z
			 M47.7,6c0.2,0,0.4-0.1,0.6-0.1c0.3-0.1,0.6-0.1,0.9-0.1c0.3,0,0.6,0,0.8,0.1c0.2,0.1,0.4,0.2,0.5,0.4c0.1,0.2,0.2,0.4,0.3,0.6
			c0.1,0.2,0.1,0.5,0.1,0.8v2.3h-0.5V7.8c0-0.3,0-0.5-0.1-0.7c0-0.2-0.1-0.4-0.2-0.5c-0.1-0.1-0.2-0.2-0.4-0.3s-0.3-0.1-0.6-0.1
			c-0.2,0-0.4,0-0.6,0c-0.2,0-0.3,0-0.3,0.1v3.6h-0.5V6z M53.2,9.9c-0.2,0-0.3,0-0.5-0.1c-0.1,0-0.2-0.1-0.3-0.2
			c-0.1-0.1-0.2-0.2-0.2-0.3c0-0.1-0.1-0.3-0.1-0.5v-5l0.5-0.1v5.1c0,0.1,0,0.2,0,0.3c0,0.1,0.1,0.1,0.1,0.2c0,0,0.1,0.1,0.2,0.1
			c0.1,0,0.2,0,0.3,0.1L53.2,9.9z M54.8,4.6c0,0.1,0,0.2-0.1,0.3C54.6,5,54.5,5,54.4,5c-0.1,0-0.2,0-0.3-0.1C54,4.8,54,4.7,54,4.6
			c0-0.1,0-0.2,0.1-0.3c0.1-0.1,0.2-0.1,0.3-0.1c0.1,0,0.2,0,0.3,0.1C54.7,4.4,54.8,4.5,54.8,4.6z M54.6,9.9h-0.5V5.8h0.5V9.9z
			 M56,6c0.2,0,0.4-0.1,0.6-0.1c0.3-0.1,0.6-0.1,0.9-0.1c0.3,0,0.6,0,0.8,0.1c0.2,0.1,0.4,0.2,0.5,0.4c0.1,0.2,0.2,0.4,0.3,0.6
			c0.1,0.2,0.1,0.5,0.1,0.8v2.3h-0.5V7.8c0-0.3,0-0.5-0.1-0.7c0-0.2-0.1-0.4-0.2-0.5c-0.1-0.1-0.2-0.2-0.4-0.3s-0.3-0.1-0.6-0.1
			c-0.2,0-0.4,0-0.6,0c-0.2,0-0.3,0-0.3,0.1v3.6H56V6z M60.2,7.8c0-0.4,0.1-0.7,0.2-0.9c0.1-0.3,0.2-0.5,0.4-0.7
			c0.2-0.2,0.4-0.3,0.6-0.4c0.2-0.1,0.4-0.1,0.7-0.1c0.5,0,0.9,0.2,1.2,0.5c0.3,0.3,0.4,0.8,0.4,1.5c0,0,0,0.1,0,0.1
			c0,0,0,0.1,0,0.1h-2.8c0,0.5,0.1,0.9,0.4,1.1c0.2,0.3,0.6,0.4,1.1,0.4c0.3,0,0.5,0,0.7-0.1c0.2-0.1,0.3-0.1,0.4-0.1l0.1,0.4
			c-0.1,0-0.2,0.1-0.4,0.1c-0.2,0.1-0.4,0.1-0.7,0.1c-0.4,0-0.7-0.1-0.9-0.2c-0.3-0.1-0.5-0.3-0.6-0.4c-0.2-0.2-0.3-0.4-0.4-0.7
			C60.2,8.4,60.2,8.1,60.2,7.8z M63.1,7.5c0-0.4-0.1-0.8-0.3-1c-0.2-0.2-0.5-0.4-0.8-0.4c-0.2,0-0.3,0-0.5,0.1
			c-0.1,0.1-0.3,0.2-0.4,0.3C61,6.7,60.9,6.8,60.9,7c-0.1,0.2-0.1,0.3-0.1,0.5H63.1z"/>
	</defs>
	<use xlink:href="#SVGID_1_"  overflow="visible" fill="#231F20"/>
	<clipPath id="SVGID_2_">
		<use xlink:href="#SVGID_1_"  overflow="visible"/>
	</clipPath>
</g>
</svg>
