<?xml version="1.0" encoding="utf-8"?>
<!-- Generator: Adobe Illustrator 18.1.1, SVG Export Plug-In . SVG Version: 6.00 Build 0)  -->
<svg version="1.1" id="Layer_3" xmlns="http://www.w3.org/2000/svg" xmlns:xlink="http://www.w3.org/1999/xlink" x="0px" y="0px"
	 viewBox="-473 471 51.4 60" enable-background="new -473 471 51.4 60" xml:space="preserve">
<path fill="#ffffff" d="M-441.7,485.7c-0.3,0-0.8-0.1-1.3-0.1c-0.5,0-1-0.1-1.5-0.1c-0.2,0-0.4,0-0.6,0c-0.2,0-0.4,0-0.5,0.1v28.9
	h-2v-15.7c-1.3-0.1-2.4-0.3-3.5-0.7c-1-0.3-1.9-0.8-2.7-1.5c-0.7-0.6-1.3-1.4-1.7-2.3c-0.4-0.9-0.6-2-0.6-3.2c0-1.3,0.3-2.4,0.8-3.4
	c0.5-1,1.3-1.8,2.3-2.4c1-0.6,2.2-1.1,3.5-1.4c1.4-0.3,2.9-0.5,4.5-0.5c0.7,0,1.6,0,2.6,0.1c1,0.1,1.9,0.2,2.7,0.4v30.5h-2V485.7z"
	/>
<path fill="#ffffff" d="M-429.5,471H-465c-4.7,0-7.9,3.2-7.9,7.9v44.2c0,3.9,3.2,7.9,7.9,7.9h35.5c4.7,0,7.9-3.9,7.9-7.9v-44.2
	C-421.6,474.2-424.8,471-429.5,471z M-426.4,523.9c-9.5,0-14.2-9.5-20.5,0c-7.1-9.5-11.8,0-21.3,0v-48.2h41.8V523.9z"/>
</svg>
