<?xml version="1.0" encoding="UTF-8" standalone="no"?>
<!-- Created with Inkscape (http://www.inkscape.org/) -->

<svg
   xmlns:dc="http://purl.org/dc/elements/1.1/"
   xmlns:cc="http://creativecommons.org/ns#"
   xmlns:rdf="http://www.w3.org/1999/02/22-rdf-syntax-ns#"
   xmlns:svg="http://www.w3.org/2000/svg"
   xmlns="http://www.w3.org/2000/svg"
   version="1.1"
   width="100"
   height="100"
   viewBox="0 0 100 100"
   id="Capa_1"
   xml:space="preserve"><metadata
   id="metadata9"><rdf:RDF><cc:Work
       rdf:about=""><dc:format>image/svg+xml</dc:format><dc:type
         rdf:resource="http://purl.org/dc/dcmitype/StillImage" /><dc:title></dc:title></cc:Work></rdf:RDF></metadata><defs
   id="defs7" />
<path
   d="M 97.0224,64.472209 C 96.70486,64.154024 96.29818,63.995257 95.80366,63.995257 H 77.14267 c -0.77692,0 -1.30722,0.353322 -1.59027,1.060617 -0.28305,0.672157 -0.15877,1.290308 0.37024,1.856404 l 5.30113,5.300479 c -2.36785,3.216336 -5.71627,5.92839 -10.04528,8.138117 -4.329004,2.209075 -9.126504,3.666609 -14.393148,4.373904 V 50.423921 h 10.178665 c 0.918763,0 1.714553,-0.336404 2.386713,-1.00726 0.67086,-0.670856 1.00661,-1.466644 1.00661,-2.385411 v -6.785993 c 0,-0.918767 -0.33575,-1.713904 -1.00661,-2.385411 -0.67216,-0.671507 -1.46795,-1.00726 -2.386713,-1.00726 H 56.785342 V 28.21149 c 2.049658,-1.201815 3.693288,-2.836336 4.93024,-4.903562 1.236952,-2.067876 1.856404,-4.338116 1.856404,-6.812671 0,-3.745993 -1.325445,-6.9447602 -3.976335,-9.5950001 -2.65024,-2.6508904 -5.848356,-3.9763356 -9.595,-3.9763356 -3.746644,0 -6.945411,1.3254452 -9.596302,3.9763356 -2.650239,2.6502399 -3.975685,5.8490071 -3.975685,9.5950001 0,2.474555 0.618802,4.744795 1.855754,6.812671 1.236952,2.067226 2.880582,3.701747 4.93024,4.903562 v 8.641096 H 33.035993 c -0.919418,0 -1.714555,0.335753 -2.386061,1.00726 -0.671507,0.671507 -1.007261,1.466644 -1.007261,2.385411 v 6.785993 c 0,0.918767 0.335754,1.714555 1.007261,2.385411 0.672157,0.671507 1.467294,1.00726 2.386061,1.00726 H 43.214658 V 84.724127 C 37.948664,84.016832 33.150514,82.559298 28.821507,80.350223 24.4925,78.140497 21.143425,75.428442 18.775582,72.212106 l 5.30113,-5.300479 c 0.529658,-0.566096 0.653939,-1.184247 0.370891,-1.856404 -0.282398,-0.707295 -0.812706,-1.060617 -1.590274,-1.060617 H 4.196336 c -0.495172,0 -0.90185,0.158768 -1.219384,0.476952 C 2.659418,64.789743 2.5,65.196421 2.5,65.691593 v 18.660993 c 0,0.776267 0.353322,1.307226 1.059966,1.589623 0.283048,0.07027 0.495171,0.105411 0.63637,0.105411 0.495171,0 0.901198,-0.158767 1.219383,-0.475651 l 4.93024,-4.930239 c 4.205377,5.053219 9.833801,9.056233 16.884623,12.007089 7.050822,2.950856 14.640411,4.42726 22.769418,4.42726 8.128356,0 15.717945,-1.476404 22.76877,-4.42726 C 79.81959,89.697963 85.44801,85.6956 89.65339,80.64173 l 4.93089,4.930239 c 0.35332,0.316884 0.7587,0.475651 1.21873,0.475651 0.1412,0 0.35333,-0.03514 0.63702,-0.105411 C 97.14668,85.659812 97.5,85.128853 97.5,84.352586 V 65.691593 c 0,-0.495172 -0.15942,-0.90185 -0.4776,-1.219384 z M 52.385411,18.880668 C 51.714555,19.552175 50.919418,19.888579 50,19.888579 c -0.919418,0 -1.714555,-0.336404 -2.386062,-1.007911 -0.671506,-0.670856 -1.00726,-1.466644 -1.00726,-2.385411 0,-0.918767 0.335754,-1.713904 1.00726,-2.385411 0.672158,-0.671507 1.467295,-1.00726 2.386062,-1.00726 0.918767,0 1.714555,0.335753 2.385411,1.00726 0.671507,0.671507 1.007911,1.466644 1.007911,2.385411 0,0.918767 -0.336404,1.714555 -1.007911,2.385411 z"
   id="path3" />
</svg>