<?xml version="1.0" encoding="UTF-8" standalone="no"?>
<!-- Created with Inkscape (http://www.inkscape.org/) -->

<svg
   xmlns:dc="http://purl.org/dc/elements/1.1/"
   xmlns:cc="http://creativecommons.org/ns#"
   xmlns:rdf="http://www.w3.org/1999/02/22-rdf-syntax-ns#"
   xmlns:svg="http://www.w3.org/2000/svg"
   xmlns="http://www.w3.org/2000/svg"
   version="1.1"
   width="100"
   height="100"
   viewBox="0 0 100 100"
   id="Capa_1"
   xml:space="preserve"><metadata
   id="metadata9"><rdf:RDF><cc:Work
       rdf:about=""><dc:format>image/svg+xml</dc:format><dc:type
         rdf:resource="http://purl.org/dc/dcmitype/StillImage" /><dc:title></dc:title></cc:Work></rdf:RDF></metadata><defs
   id="defs7" />
<path
   d="m 96.55011,28.009876 -4.75883,-4.758821 c -0.63443,-0.6356 -1.36467,-0.952232 -2.19071,-0.952232 -0.82371,0 -1.55395,0.316632 -2.18838,0.952232 L 50.00058,60.661489 12.59015,23.252223 c -0.634432,-0.6356 -1.364671,-0.952232 -2.189549,-0.952232 -0.824878,0 -1.555116,0.316632 -2.189548,0.952232 L 3.452232,28.011044 C 2.816632,28.645476 2.5,29.375715 2.5,30.200593 c 0,0.824878 0.3178,1.555117 0.952232,2.189548 L 47.81104,76.750114 c 0.63443,0.634431 1.36467,0.951063 2.18954,0.951063 0.82488,0 1.55395,-0.316632 2.18838,-0.951063 L 96.55011,32.390141 C 97.18454,31.75571 97.5,31.025471 97.5,30.200593 c 0,-0.824878 -0.31546,-1.555117 -0.94989,-2.190717 z"
   id="path3"
   style="opacity:0.5;fill:#000000;fill-opacity:1" />
</svg>