<?xml version="1.0" encoding="UTF-8" standalone="no"?>
<!-- Created with Inkscape (http://www.inkscape.org/) -->

<svg
   xmlns:dc="http://purl.org/dc/elements/1.1/"
   xmlns:cc="http://creativecommons.org/ns#"
   xmlns:rdf="http://www.w3.org/1999/02/22-rdf-syntax-ns#"
   xmlns:svg="http://www.w3.org/2000/svg"
   xmlns="http://www.w3.org/2000/svg"
   version="1.1"
   width="100"
   height="100"
   viewBox="0 0 100 100"
   id="Capa_1"
   xml:space="preserve"><metadata
   id="metadata9"><rdf:RDF><cc:Work
       rdf:about=""><dc:format>image/svg+xml</dc:format><dc:type
         rdf:resource="http://purl.org/dc/dcmitype/StillImage" /><dc:title></dc:title></cc:Work></rdf:RDF></metadata><defs
   id="defs7" />
<path
   d="M 76.74978,47.810478 32.390356,3.45222 C 31.755932,2.817796 31.025702,2.5 30.200834,2.5 29.375966,2.5 28.645736,2.817796 28.011313,3.45222 L 23.25255,8.212151 c -0.635592,0.634424 -0.95222,1.363485 -0.95222,2.189522 0,0.826036 0.316628,1.555097 0.95222,2.189521 L 60.66252,50.001168 23.25255,87.412311 c -0.635592,0.634424 -0.95222,1.364654 -0.95222,2.188353 0,0.826036 0.316628,1.556266 0.95222,2.19069 l 4.758763,4.757594 C 28.645736,97.184541 29.375966,97.5 30.200834,97.5 c 0.824868,0 1.555098,-0.316628 2.189522,-0.951052 L 76.74861,52.19069 c 0.63443,-0.634424 0.95106,-1.364654 0.95106,-2.189522 0,-0.824867 -0.31546,-1.555097 -0.94989,-2.19069 z"
   id="path3" />
</svg>