<?xml version="1.0" encoding="UTF-8" standalone="no"?>
<!-- Created with Inkscape (http://www.inkscape.org/) -->

<svg
   xmlns:dc="http://purl.org/dc/elements/1.1/"
   xmlns:cc="http://creativecommons.org/ns#"
   xmlns:rdf="http://www.w3.org/1999/02/22-rdf-syntax-ns#"
   xmlns:svg="http://www.w3.org/2000/svg"
   xmlns="http://www.w3.org/2000/svg"
   version="1.1"
   width="100"
   height="100"
   viewBox="0 0 100 100"
   id="Capa_1"
   xml:space="preserve"><metadata
   id="metadata9"><rdf:RDF><cc:Work
       rdf:about=""><dc:format>image/svg+xml</dc:format><dc:type
         rdf:resource="http://purl.org/dc/dcmitype/StillImage" /><dc:title></dc:title></cc:Work></rdf:RDF></metadata><defs
   id="defs7" />
<path
   d="M 92.621835,44.51225 52.926674,4.8170914 C 51.382695,3.2723638 49.532614,2.5 47.377929,2.5 45.263657,2.5 43.434532,3.2723638 41.889805,4.8170914 L 37.316992,9.3899043 C 35.772264,10.853803 34.9999,12.682928 34.9999,14.878028 c 0,2.1951 0.772364,4.024225 2.317092,5.488124 L 55.183144,38.292926 H 12.255582 c -2.113522,0 -3.831134,0.761886 -5.152085,2.286406 -1.320952,1.52452 -1.981802,3.364123 -1.981802,5.51806 v 7.805216 c 0,2.154685 0.66085,3.99354 1.981802,5.51806 1.320951,1.52452 3.038563,2.286406 5.152085,2.286406 H 55.182395 L 37.316243,79.573975 c -1.544727,1.543231 -2.317091,3.393311 -2.317091,5.547997 0,2.154685 0.772364,4.004766 2.317091,5.548745 l 4.572813,4.572813 C 43.474947,96.747843 45.304072,97.5 47.37718,97.5 c 2.114271,0 3.964352,-0.752157 5.548746,-2.25647 L 92.621085,55.548371 c 1.50431,-1.504313 2.25722,-3.352897 2.25722,-5.548745 0,-2.235514 -0.75291,-4.065388 -2.25647,-5.487376 z"
   id="path3" />
</svg>