<?xml version="1.0" encoding="UTF-8" standalone="no"?>
<!-- Created with Inkscape (http://www.inkscape.org/) -->

<svg
   xmlns:dc="http://purl.org/dc/elements/1.1/"
   xmlns:cc="http://creativecommons.org/ns#"
   xmlns:rdf="http://www.w3.org/1999/02/22-rdf-syntax-ns#"
   xmlns:svg="http://www.w3.org/2000/svg"
   xmlns="http://www.w3.org/2000/svg"
   version="1.1"
   width="100"
   height="100"
   viewBox="0 0 100 100"
   id="Capa_1"
   xml:space="preserve"><metadata
   id="metadata9"><rdf:RDF><cc:Work
       rdf:about=""><dc:format>image/svg+xml</dc:format><dc:type
         rdf:resource="http://purl.org/dc/dcmitype/StillImage" /><dc:title></dc:title></cc:Work></rdf:RDF></metadata><defs
   id="defs7" />
<path
   d="m 97.005789,41.805424 c -0.33098,-0.433471 -0.76293,-0.69158 -1.29889,-0.773567 L 84.388829,39.30025 c -0.6187,-1.979088 -1.46439,-3.999169 -2.5363,-6.061003 0.74168,-1.030917 1.85459,-2.483918 3.33871,-4.360521 1.48413,-1.876603 2.53554,-3.246858 3.15424,-4.113041 0.33023,-0.453968 0.49421,-0.927673 0.49421,-1.422635 0,-0.576949 -0.14348,-1.030158 -0.43272,-1.360385 -1.48412,-2.103587 -4.88584,-5.607795 -10.20516,-10.5149 -0.49345,-0.412215 -1.00966,-0.617943 -1.54486,-0.617943 -0.6187,0 -1.11366,0.185231 -1.48489,0.555694 l -8.78177,6.618214 c -1.69137,-0.866183 -3.54672,-1.629122 -5.5668,-2.288818 L 59.091879,4.3553484 c -0.041,-0.5359554 -0.2786,-0.9792953 -0.71131,-1.3300197 -0.43348,-0.3507243 -0.93755,-0.5253274 -1.516015,-0.5253274 H 43.134682 c -1.195651,0 -1.938094,0.5769492 -2.226568,1.7316067 -0.535956,2.0610751 -1.134161,5.89551 -1.793857,11.503304 -1.938094,0.619461 -3.813938,1.402897 -5.628291,2.351068 l -8.535052,-6.618215 c -0.535956,-0.412215 -1.071911,-0.617943 -1.607867,-0.617943 -0.907176,0 -2.855139,1.473498 -5.844647,4.422012 -2.989507,2.948515 -5.019458,5.164455 -6.092128,6.648581 -0.371221,0.535955 -0.556452,1.01042 -0.556452,1.422635 0,0.494962 0.205728,0.989923 0.617943,1.484126 2.762524,3.340232 4.968595,6.184743 6.618215,8.535811 -1.030918,1.896341 -1.834851,3.793441 -2.4118,5.689782 L 4.1701147,40.784376 c -0.453209,0.08275 -0.844927,0.350724 -1.175154,0.804692 -0.330228,0.453209 -0.494962,0.927674 -0.494962,1.421876 v 13.730632 c 0,0.536714 0.164734,1.020289 0.494962,1.453001 0.330227,0.433471 0.762939,0.692339 1.298894,0.774326 l 11.3188333,1.670116 c 0.576949,2.020081 1.421876,4.06066 2.535539,6.121735 -0.741683,1.030917 -1.855347,2.483918 -3.339473,4.360521 -1.484125,1.876603 -2.536299,3.246857 -3.154242,4.11304 -0.330227,0.454727 -0.494961,0.927674 -0.494961,1.422636 0,0.535955 0.144237,1.009661 0.432712,1.421876 1.607866,2.227327 5.009589,5.6913 10.205168,10.391158 0.453968,0.453968 0.969426,0.680193 1.546376,0.680193 0.618702,0 1.13416,-0.185231 1.546375,-0.555693 l 8.721043,-6.618974 c 1.691372,0.866183 3.546719,1.629122 5.5668,2.289577 l 1.731607,11.379564 c 0.04175,0.535955 0.278606,0.979295 0.711317,1.33002 0.432712,0.351483 0.938302,0.525327 1.515251,0.525327 h 13.730632 c 1.197167,0 1.938857,-0.576949 2.228087,-1.731607 0.5352,-2.061834 1.13264,-5.895509 1.79234,-11.503304 1.93809,-0.618702 3.81469,-1.402897 5.62829,-2.351068 l 8.53581,6.680465 c 0.57695,0.370462 1.11366,0.555693 1.60787,0.555693 0.90641,0 2.84451,-1.46287 5.81276,-4.390887 2.96977,-2.927258 5.01035,-5.154586 6.12249,-6.680464 0.37122,-0.412215 0.55721,-0.885921 0.55721,-1.421876 0,-0.535956 -0.20572,-1.052933 -0.6187,-1.546376 -2.96825,-3.628707 -5.17432,-6.473218 -6.61821,-8.535052 0.82443,-1.525879 1.62912,-3.401723 2.41256,-5.628291 l 11.44181,-1.730848 c 0.4942,-0.08275 0.90794,-0.351484 1.2374,-0.805451 0.32947,-0.453968 0.49345,-0.928433 0.49345,-1.422636 V 43.258425 c 7.6e-4,-0.535955 -0.16322,-1.01953 -0.49421,-1.453001 z m -35.80956,19.389288 c -3.09199,3.092752 -6.823943,4.639127 -11.195093,4.639127 -4.371149,0 -8.10234,-1.546375 -11.195091,-4.639127 -3.091992,-3.091992 -4.638368,-6.823183 -4.638368,-11.194332 0,-4.371149 1.545616,-8.10234 4.638368,-11.195092 3.092751,-3.091992 6.824701,-4.638368 11.195091,-4.638368 4.37115,0 8.103103,1.546376 11.195093,4.638368 3.09199,3.092752 4.63837,6.823943 4.63837,11.195092 0,4.371149 -1.54638,8.10234 -4.63837,11.194332 z"
   id="path3" style="fill-opacity:0.5" />
</svg>