<?xml version="1.0" encoding="UTF-8" standalone="no"?>
<!-- Created with Inkscape (http://www.inkscape.org/) -->

<svg
   xmlns:dc="http://purl.org/dc/elements/1.1/"
   xmlns:cc="http://creativecommons.org/ns#"
   xmlns:rdf="http://www.w3.org/1999/02/22-rdf-syntax-ns#"
   xmlns:svg="http://www.w3.org/2000/svg"
   xmlns="http://www.w3.org/2000/svg"
   version="1.1"
   width="100"
   height="100"
   viewBox="0 0 100 100"
   id="Capa_1"
   xml:space="preserve"><metadata
   id="metadata9"><rdf:RDF><cc:Work
       rdf:about=""><dc:format>image/svg+xml</dc:format><dc:type
         rdf:resource="http://purl.org/dc/dcmitype/StillImage" /><dc:title></dc:title></cc:Work></rdf:RDF></metadata><defs
   id="defs7" />
<path
   d="m 88.347074,30.702722 c -0.82442,-1.979072 -1.81358,-3.545173 -2.96823,-4.699821 L 66.081574,6.7056224 C 64.926924,5.5517332 63.360824,4.5618178 61.381744,3.7366352 59.402674,2.9122117 57.588334,2.5 55.939494,2.5 H 16.354259 c -1.648847,0 -3.050974,0.5769446 -4.205622,1.7315929 -1.154648,1.1538892 -1.731593,2.5560164 -1.731593,4.2056224 V 91.562785 c 0,1.649606 0.576945,3.051733 1.731593,4.205622 C 13.303285,96.922296 14.705412,97.5 16.354259,97.5 h 67.292995 c 1.64885,0 3.05022,-0.577704 4.2041,-1.731593 1.15465,-1.154648 1.7316,-2.556016 1.7316,-4.205622 V 36.145738 c 7.6e-4,-1.649606 -0.41146,-3.463945 -1.23588,-5.443016 z M 57.917804,10.911245 c 1.19488,0.412212 2.04056,0.866176 2.53552,1.360374 l 19.35953,19.359528 c 0.49344,0.494958 0.9474,1.339878 1.35961,2.53552 H 57.917804 V 10.911245 z m 23.74962,78.672468 H 18.333331 V 10.417046 h 31.666667 v 25.729452 c 0,1.649606 0.576944,3.050974 1.731593,4.205622 1.154648,1.153889 2.556016,1.731593 4.206383,1.731593 h 25.72945 v 47.5 z"
   id="path3" />
</svg>