<?xml version="1.0" encoding="UTF-8" standalone="no"?>
<!-- Created with Inkscape (http://www.inkscape.org/) -->

<svg
   xmlns:dc="http://purl.org/dc/elements/1.1/"
   xmlns:cc="http://creativecommons.org/ns#"
   xmlns:rdf="http://www.w3.org/1999/02/22-rdf-syntax-ns#"
   xmlns:svg="http://www.w3.org/2000/svg"
   xmlns="http://www.w3.org/2000/svg"
   version="1.1"
   width="100"
   height="100"
   viewBox="0 0 100 100"
   id="Capa_1"
   xml:space="preserve"><metadata
   id="metadata9"><rdf:RDF><cc:Work
       rdf:about=""><dc:format>image/svg+xml</dc:format><dc:type
         rdf:resource="http://purl.org/dc/dcmitype/StillImage" /><dc:title></dc:title></cc:Work></rdf:RDF></metadata><defs
   id="defs7" />
<path
   d="M 95.17343,11.159192 C 93.62299,9.6087545 91.7604,8.8338395 89.58262,8.8338395 H 10.416768 c -2.177172,0 -4.04037,0.774915 -5.591415,2.3253525 C 3.274915,12.710237 2.5,14.573435 2.5,16.750607 V 83.25 c 0,2.177171 0.774915,4.040976 2.325353,5.591414 1.551045,1.550438 3.414243,2.324746 5.591415,2.324746 H 89.58384 c 2.17656,0 4.03976,-0.774308 5.5902,-2.324746 C 96.72448,87.290976 97.5,85.427171 97.5,83.249999 V 16.750607 c 0,-2.177172 -0.77552,-4.04037 -2.32657,-5.591415 z M 21.5,81.666767 c 0,0.857508 -0.31276,1.600237 -0.939494,2.226364 -0.626734,0.627341 -1.368855,0.940708 -2.22697,0.940708 h -6.332929 c -0.857508,0 -1.600236,-0.313367 -2.22697,-0.940708 C 9.14751,83.267004 8.833536,82.524275 8.833536,81.666767 v -6.332928 c 0,-0.857508 0.313974,-1.600237 0.940101,-2.226971 0.626734,-0.626734 1.369462,-0.940101 2.22697,-0.940101 h 6.332321 c 0.858116,0 1.600237,0.313367 2.226971,0.940101 C 21.186633,73.733602 21.5,74.476331 21.5,75.333839 v 6.332928 z m 0,-19 c 0,0.857508 -0.31276,1.600237 -0.939494,2.226364 -0.626734,0.626126 -1.368855,0.940101 -2.22697,0.940101 h -6.332929 c -0.857508,0 -1.600236,-0.313975 -2.22697,-0.940101 C 9.14751,64.267004 8.833536,63.524275 8.833536,62.666767 v -6.334143 c 0,-0.857508 0.313974,-1.599629 0.940101,-2.226363 0.626734,-0.626127 1.369462,-0.940101 2.22697,-0.940101 h 6.332321 c 0.858116,0 1.600237,0.313974 2.226971,0.940101 C 21.186633,54.732995 21.5,55.475116 21.5,56.332624 v 6.334143 z m 0,-19 c 0,0.858116 -0.31276,1.600237 -0.939494,2.226971 -0.626734,0.626734 -1.368855,0.940101 -2.22697,0.940101 h -6.332929 c -0.857508,0 -1.600236,-0.313367 -2.22697,-0.940101 C 9.14751,45.267004 8.833536,44.524883 8.833536,43.666767 v -6.332928 c 0,-0.858116 0.313974,-1.600237 0.940101,-2.226971 0.626734,-0.626734 1.369462,-0.940101 2.22697,-0.940101 h 6.332321 c 0.858116,0 1.600237,0.313367 2.226971,0.940101 C 21.186633,35.73421 21.5,36.476331 21.5,37.333839 v 6.332928 z m 0,-18.999392 c 0,0.857508 -0.31276,1.600236 -0.939494,2.22697 -0.626734,0.626734 -1.368855,0.940101 -2.22697,0.940101 h -6.332929 c -0.857508,0 -1.600236,-0.313367 -2.22697,-0.940101 C 9.14751,26.267004 8.833536,25.52549 8.833536,24.667375 v -6.332929 c 0,-0.858115 0.313974,-1.600236 0.940101,-2.22697 0.626734,-0.626734 1.369462,-0.940101 2.22697,-0.940101 h 6.332321 c 0.858116,0 1.600237,0.313367 2.226971,0.940101 C 21.186633,16.734817 21.5,17.476938 21.5,18.334446 v 6.332929 z m 50.666464,56.999392 c 0,0.857508 -0.313367,1.600237 -0.940101,2.226364 -0.626734,0.627341 -1.369462,0.940708 -2.22697,0.940708 H 31 c -0.857508,0 -1.599629,-0.313367 -2.226363,-0.940708 -0.626734,-0.626127 -0.940101,-1.368855 -0.940101,-2.226364 V 56.333839 c 0,-0.856901 0.313367,-1.599629 0.940101,-2.226971 C 29.400371,53.480742 30.142492,53.167375 31,53.167375 h 37.999393 c 0.857508,0 1.600236,0.313367 2.22697,0.939493 0.626734,0.627342 0.940101,1.37007 0.940101,2.226971 v 25.332928 z m 0,-38 c 0,0.858116 -0.313367,1.600237 -0.940101,2.226971 -0.626734,0.626734 -1.369462,0.940101 -2.22697,0.940101 H 31 c -0.857508,0 -1.599629,-0.313367 -2.226363,-0.940101 -0.626734,-0.626734 -0.940101,-1.368855 -0.940101,-2.226971 V 18.333839 c 0,-0.858116 0.313367,-1.600237 0.940101,-2.226971 C 29.400371,15.480134 30.142492,15.166767 31,15.166767 h 37.999393 c 0.857508,0 1.600236,0.313367 2.22697,0.940101 0.626734,0.627342 0.940101,1.369463 0.940101,2.226971 v 25.332928 z m 18.999396,38 c 0,0.857508 -0.31337,1.600237 -0.9395,2.226364 -0.62734,0.627341 -1.37007,0.940708 -2.22757,0.940708 h -6.33293 c -0.85751,0 -1.60024,-0.313367 -2.22637,-0.940708 -0.62734,-0.626127 -0.9407,-1.368855 -0.9407,-2.226364 v -6.332928 c 0,-0.857508 0.31336,-1.600237 0.9407,-2.226971 0.62613,-0.626734 1.36886,-0.940101 2.22637,-0.940101 h 6.33293 c 0.8575,0 1.60023,0.313367 2.22757,0.940101 0.62613,0.626734 0.9395,1.369463 0.9395,2.226971 v 6.332928 z m 0,-19 c 0,0.857508 -0.31337,1.600237 -0.9395,2.226364 -0.62734,0.626126 -1.37007,0.940101 -2.22757,0.940101 h -6.33293 c -0.85751,0 -1.60024,-0.313975 -2.22637,-0.940101 -0.62734,-0.626127 -0.9407,-1.368855 -0.9407,-2.226364 v -6.334143 c 0,-0.857508 0.31336,-1.599629 0.9407,-2.226363 0.62613,-0.626127 1.36886,-0.940101 2.22637,-0.940101 h 6.33293 c 0.8575,0 1.60023,0.313974 2.22757,0.940101 0.62613,0.626734 0.9395,1.368855 0.9395,2.226363 v 6.334143 z m 0,-19 c 0,0.858116 -0.31337,1.600237 -0.9395,2.226971 -0.62734,0.626734 -1.37007,0.940101 -2.22757,0.940101 h -6.33293 c -0.85751,0 -1.60024,-0.313367 -2.22637,-0.940101 -0.62734,-0.626734 -0.9407,-1.368855 -0.9407,-2.226971 v -6.332928 c 0,-0.858116 0.31336,-1.600237 0.9407,-2.226971 0.62613,-0.626734 1.36886,-0.940101 2.22637,-0.940101 h 6.33293 c 0.8575,0 1.60023,0.313367 2.22757,0.940101 0.62613,0.627342 0.9395,1.369463 0.9395,2.226971 v 6.332928 z m 0,-18.999392 c 0,0.857508 -0.31337,1.599629 -0.9395,2.22697 -0.62734,0.626734 -1.37007,0.940101 -2.22757,0.940101 h -6.33293 c -0.85751,0 -1.60024,-0.31276 -2.22637,-0.940101 -0.62734,-0.627341 -0.9407,-1.368855 -0.9407,-2.22697 v -6.332929 c 0,-0.858115 0.31336,-1.600236 0.9407,-2.22697 0.62613,-0.626734 1.36886,-0.940101 2.22637,-0.940101 h 6.33293 c 0.8575,0 1.60023,0.313367 2.22757,0.940101 0.62613,0.627341 0.9395,1.369462 0.9395,2.22697 v 6.332929 z"
   id="path3" />
</svg>