<?xml version="1.0" encoding="UTF-8" standalone="no"?>
<!-- Created with Inkscape (http://www.inkscape.org/) -->

<svg
   xmlns:dc="http://purl.org/dc/elements/1.1/"
   xmlns:cc="http://creativecommons.org/ns#"
   xmlns:rdf="http://www.w3.org/1999/02/22-rdf-syntax-ns#"
   xmlns:svg="http://www.w3.org/2000/svg"
   xmlns="http://www.w3.org/2000/svg"
   version="1.1"
   width="100"
   height="100"
   viewBox="0 0 100 100"
   id="Capa_1"
   xml:space="preserve"><metadata
   id="metadata9"><rdf:RDF><cc:Work
       rdf:about=""><dc:format>image/svg+xml</dc:format><dc:type
         rdf:resource="http://purl.org/dc/dcmitype/StillImage" /><dc:title></dc:title></cc:Work></rdf:RDF></metadata><defs
   id="defs7" />
<path
   d="m 85.16566,67.949679 c 0.80922,0.865337 1.5346,1.618436 2.17339,2.257913 0.64017,0.639476 1.32745,1.260246 2.06115,1.86231 0.7337,0.601371 1.27064,0.903442 1.60873,0.903442 0.64017,0 1.88171,-0.921455 3.72532,-2.765752 C 96.57854,68.363988 97.5,67.122447 97.5,66.482278 c 0,-0.301378 -0.53625,-1.072491 -1.60874,-2.314724 -1.0718,-1.240848 -2.44497,-2.708248 -4.12022,-4.402203 -1.67456,-1.693954 -3.302,-3.311005 -4.88233,-4.854616 -1.58102,-1.543611 -3.12325,-3.038725 -4.62945,-4.488113 -1.50481,-1.448694 -2.37084,-2.285625 -2.5967,-2.511486 -0.3762,-0.376203 -0.80922,-0.563959 -1.29766,-0.563959 -0.64017,0 -1.8824,0.921456 -3.72531,2.765753 -1.8443,1.842911 -2.76576,3.085145 -2.76576,3.725314 0,0.338098 0.30069,0.874343 0.90275,1.608737 0.60207,0.7337 1.22353,1.420288 1.86301,2.060458 0.63878,0.639476 1.39257,1.36417 2.25791,2.173388 0.86534,0.809218 1.35378,1.269946 1.4674,1.382876 L 72.94632,66.482278 52.906396,46.443735 c 4.930827,-6.622702 7.395894,-13.490665 7.395894,-20.603194 0,-6.133569 -1.929514,-11.129522 -5.785772,-14.986472 -3.857643,-3.8576426 -8.852902,-5.7857712 -14.987164,-5.7857712 -6.020639,0 -11.910334,1.7874854 -17.6677,5.3617632 C 16.104288,14.005032 11.437427,18.6712 7.862456,24.429259 4.287485,30.186625 2.5,36.07632 2.5,42.096959 c 0,6.134262 1.928129,11.128136 5.785772,14.986471 3.857643,3.858336 8.852902,5.787158 14.986471,5.787158 7.112529,0 13.979799,-2.465067 20.603195,-7.395894 L 81.75142,93.351371 c 1.05379,1.053092 2.33205,1.580331 3.83825,1.580331 1.58033,0 3.10523,-0.735086 4.57194,-2.202487 1.46809,-1.468094 2.20249,-2.99092 2.20249,-4.571944 0,-1.506199 -0.52724,-2.785845 -1.58033,-3.838937 L 78.36559,71.90016 83.78347,66.481585 c 0.11224,0.113623 0.57366,0.602757 1.38219,1.468094 z M 46.303092,34.421164 c -2.106877,2.106877 -4.666168,3.160662 -7.676488,3.160662 -1.581023,0 -3.142648,-0.35819 -4.685567,-1.073184 0.714994,1.543611 1.072491,3.105236 1.072491,4.685567 0,3.011013 -1.053092,5.569611 -3.160662,7.676488 -2.10757,2.106877 -4.666861,3.160662 -7.67718,3.160662 -3.01032,0 -5.568918,-1.053092 -7.676488,-3.160662 -2.106877,-2.106877 -3.160662,-4.665475 -3.160662,-7.676488 0,-3.010319 1.053092,-5.56961 3.160662,-7.676487 2.106877,-2.106878 4.666168,-3.160663 7.676488,-3.160663 1.580331,0 3.141955,0.357497 4.684874,1.072492 -0.714994,-1.542919 -1.072491,-3.105237 -1.072491,-4.685568 0,-3.010319 1.053092,-5.56961 3.160662,-7.676488 2.10757,-2.106877 4.666861,-3.160662 7.677181,-3.160662 3.010319,0 5.56961,1.053092 7.676487,3.160662 2.106878,2.10757 3.160663,4.666169 3.160663,7.676488 0,3.01032 -1.053785,5.569611 -3.15997,7.677181 z"
   id="path3" style="fill-opacity:0.5" />
</svg>