<?xml version="1.0" encoding="UTF-8" standalone="no"?>
<!-- Created with Inkscape (http://www.inkscape.org/) -->

<svg
   xmlns:dc="http://purl.org/dc/elements/1.1/"
   xmlns:cc="http://creativecommons.org/ns#"
   xmlns:rdf="http://www.w3.org/1999/02/22-rdf-syntax-ns#"
   xmlns:svg="http://www.w3.org/2000/svg"
   xmlns="http://www.w3.org/2000/svg"
   version="1.1"
   width="100"
   height="100"
   viewBox="0 0 100 100"
   id="Capa_1"
   xml:space="preserve"><metadata
   id="metadata9"><rdf:RDF><cc:Work
       rdf:about=""><dc:format>image/svg+xml</dc:format><dc:type
         rdf:resource="http://purl.org/dc/dcmitype/StillImage" /><dc:title></dc:title></cc:Work></rdf:RDF></metadata><defs
   id="defs7" />
<path
   d="m 97.075738,27.861328 c -0.28305,-2.049699 -0.70665,-4.241902 -1.27211,-6.574655 -0.56546,-2.332103 -1.40421,-4.311527 -2.51755,-5.937622 -1.11335,-1.625445 -2.36008,-2.438818 -3.73761,-2.438818 -0.15877,-0.689089 -0.9279,-0.609704 -2.30673,0.238807 -1.37818,0.84851 -2.02367,1.131564 -1.93452,0.84851 0.0878,-0.283054 -0.38977,0.07028 -1.43219,1.059988 -1.04242,0.989712 -1.56298,1.484243 -1.56298,1.484243 l -1.56428,1.563628 c -1.37753,1.307903 -3.38298,2.306074 -6.01635,2.995164 -2.63338,0.690391 -5.52183,1.113345 -8.667306,1.272766 -3.145475,0.159421 -6.300061,0.265485 -9.463105,0.318191 -3.163695,0.05271 -6.335849,0.212128 -9.516463,0.476962 -3.180613,0.265485 -5.743063,0.715768 -7.686699,1.352151 -3.852784,1.272115 -7.457653,2.960027 -10.815256,5.063084 -3.357604,2.103057 -6.370337,4.559443 -9.03885,7.369158 -2.668514,2.809715 -4.771571,6.070364 -6.30852,9.781297 -1.53695,3.709631 -2.306075,7.598204 -2.306075,11.662465 0,1.873361 0.158769,3.710933 0.476962,5.514018 0.07093,0.353329 0.353329,1.130914 0.84851,2.332753 0.495182,1.20184 0.742446,1.873361 0.742446,2.015213 0,0.67087 -0.547888,1.520031 -1.643664,2.54423 -1.095776,1.02485 -2.2969645,2.014562 -3.6048675,2.968486 -1.307904,0.953924 -2.509093,2.111516 -3.604869,3.472126 -1.095776,1.361261 -1.643664,2.660055 -1.643664,3.896382 0,0.247916 0.02603,0.48542 0.07939,0.716418 0.05336,0.229697 0.106715,0.396926 0.159421,0.502339 0.05271,0.106715 0.150312,0.283054 0.291513,0.529669 0.141852,0.247265 0.247265,0.442475 0.318192,0.583026 0.601245,1.024199 1.078207,1.767296 1.431536,2.226689 0.353329,0.458742 0.900566,0.882998 1.643013,1.272115 0.741796,0.388467 1.643664,0.583026 2.703652,0.583026 1.0254995,0 2.0854875,-0.565457 3.1812635,-1.69572 1.095126,-1.130263 2.023021,-2.368542 2.783037,-3.710932 0.759365,-1.342391 1.555168,-2.580019 2.38546,-3.710933 0.830291,-1.130263 1.528489,-1.695719 2.093947,-1.695719 0.812722,0 2.509093,0.653951 5.089112,1.961855 2.580018,1.308554 4.135187,2.05035 4.665506,2.22734 4.876983,1.661233 9.930957,2.491524 15.161921,2.491524 7.917046,0 15.656451,-1.909799 23.220171,-5.726796 7.7407,-3.852134 14.05768,-8.587265 18.95289,-14.207346 4.8952,-5.620082 8.1552,-12.387344 9.78129,-20.305041 0.705361,-3.463667 1.058691,-6.873977 1.058691,-10.23158 0,-1.343041 -0.1412,-3.039412 -0.42426,-5.088461 z m -27.72625,17.970986 c -0.67217,0.671521 -1.46798,1.007281 -2.386761,1.007281 -6.432153,0 -11.971548,0.918786 -16.619486,2.756358 -4.647287,1.837572 -9.392179,4.94791 -14.234025,9.330363 -0.706008,0.671521 -1.890279,1.837572 -3.551511,3.498805 -1.661233,1.661232 -2.969137,2.915779 -3.92306,3.763639 -0.742447,0.67152 -1.5376,1.007931 -2.386111,1.007931 -0.919437,0 -1.71459,-0.336411 -2.386111,-1.007931 -0.67152,-0.67022 -1.007281,-1.466674 -1.007281,-2.38546 0,-0.848511 0.335761,-1.642363 1.007281,-2.38546 4.311527,-4.771571 8.473394,-8.650384 12.484949,-11.636438 4.011555,-2.986055 8.597676,-5.353946 13.757714,-7.103673 5.159387,-1.749728 10.778817,-2.624267 16.857641,-2.624267 0.918781,0 1.714591,0.335761 2.386761,1.007281 0.67087,0.672172 1.00663,1.467325 1.00663,2.386111 0,0.918786 -0.33511,1.713939 -1.00663,2.38546 z"
   id="path3" style="fill-opacity:0.5" />
</svg>