<?xml version="1.0" encoding="UTF-8" standalone="no"?>
<!-- Created with Inkscape (http://www.inkscape.org/) -->

<svg
   xmlns:dc="http://purl.org/dc/elements/1.1/"
   xmlns:cc="http://creativecommons.org/ns#"
   xmlns:rdf="http://www.w3.org/1999/02/22-rdf-syntax-ns#"
   xmlns:svg="http://www.w3.org/2000/svg"
   xmlns="http://www.w3.org/2000/svg"
   version="1.1"
   width="100"
   height="100"
   viewBox="0 0 100 100"
   id="Layer_1"
   xml:space="preserve"><metadata
     id="metadata9"><rdf:RDF><cc:Work
         rdf:about=""><dc:format>image/svg+xml</dc:format><dc:type
           rdf:resource="http://purl.org/dc/dcmitype/StillImage" /><dc:title></dc:title></cc:Work></rdf:RDF></metadata><defs
     id="defs7" /><path
     d="M 95.61018,38.934823 C 94.35059,37.675218 92.82101,37.045835 91.02147,37.045835 H 62.953345 V 8.9768755 C 62.953345,7.1781541 62.32315,5.648585 61.064356,4.38898 59.804751,3.1302127 58.276011,2.5 56.47564,2.5 H 43.521881 C 41.72316,2.5 40.19359,3.1294182 38.933985,4.38898 37.674389,5.648585 37.044997,7.1781541 37.044997,8.9768755 V 37.045835 H 8.976875 c -1.798721,0 -3.32829,0.629418 -4.587895,1.888988 C 3.129384,40.194411 2.5,41.72316 2.5,43.52271 v 12.955409 c 0,1.799542 0.629418,3.328291 1.88898,4.587058 1.259605,1.259605 2.789174,1.888988 4.587895,1.888988 h 28.068122 v 28.06978 c 0,1.798721 0.629418,3.329128 1.888988,4.587895 C 40.19359,96.870616 41.72316,97.5 43.521881,97.5 h 12.95458 c 1.800379,0 3.329128,-0.629418 4.588716,-1.88816 1.259605,-1.259596 1.888988,-2.789174 1.888988,-4.587895 V 62.954165 H 91.0223 c 1.79955,0 3.32912,-0.629418 4.58872,-1.888988 C 96.86979,59.80641 97.5,58.277661 97.5,56.478119 V 43.52271 c -8.3e-4,-1.79955 -0.62942,-3.32912 -1.88982,-4.587887 z"
     id="path3-1"
     style="fill:#000000;fill-opacity:0.5" /></svg>