<?xml version="1.0" encoding="UTF-8" standalone="no"?>
<!-- Created with Inkscape (http://www.inkscape.org/) -->

<svg
   xmlns:dc="http://purl.org/dc/elements/1.1/"
   xmlns:cc="http://creativecommons.org/ns#"
   xmlns:rdf="http://www.w3.org/1999/02/22-rdf-syntax-ns#"
   xmlns:svg="http://www.w3.org/2000/svg"
   xmlns="http://www.w3.org/2000/svg"
   version="1.1"
   width="100"
   height="100"
   viewBox="0 0 100 100"
   id="Capa_1"
   xml:space="preserve"><metadata
   id="metadata9"><rdf:RDF><cc:Work
       rdf:about=""><dc:format>image/svg+xml</dc:format><dc:type
         rdf:resource="http://purl.org/dc/dcmitype/StillImage" /><dc:title></dc:title></cc:Work></rdf:RDF></metadata><defs
   id="defs7" />
<path
   d="M 95,40.345026 C 95,39.010651 93.990919,38.18148 91.970107,37.856848 L 64.819874,33.908822 52.650495,9.299213 C 51.966047,7.820778 51.081774,7.081892 50.000332,7.081892 c -1.081442,0 -1.965051,0.738886 -2.650163,2.217321 L 35.18013,33.908822 8.0285687,37.856848 C 6.0097437,38.18148 5,39.010651 5,40.345026 c 0,0.757475 0.4507667,1.623159 1.3522997,2.59639 l 19.6876873,19.146635 -4.651064,27.04335 c -0.07236,0.505204 -0.108206,0.866348 -0.108206,1.082107 0,0.757473 0.189203,1.396778 0.567609,1.92057 0.378405,0.523129 0.946013,0.78403 1.703487,0.78403 0.649263,0 1.370224,-0.215094 2.163547,-0.6486 l 24.284309,-12.765529 24.2863,12.765529 c 0.758141,0.432842 1.479098,0.6486 2.16289,0.6486 0.722946,0 1.271966,-0.260237 1.650373,-0.78403 0.377744,-0.523127 0.566943,-1.163097 0.566943,-1.92057 0,-0.468692 -0.0179,-0.829173 -0.05447,-1.082107 L 73.959971,62.088051 93.593224,42.941416 c 0.93871,-0.937382 1.406738,-1.803066 1.406738,-2.59639 z"
   id="path3"
   style="fill:#f8b556;fill-opacity:1" />
</svg>