<?xml version="1.0" encoding="UTF-8" standalone="no"?>
<!-- Created with Inkscape (http://www.inkscape.org/) -->

<svg
   xmlns:dc="http://purl.org/dc/elements/1.1/"
   xmlns:cc="http://creativecommons.org/ns#"
   xmlns:rdf="http://www.w3.org/1999/02/22-rdf-syntax-ns#"
   xmlns:svg="http://www.w3.org/2000/svg"
   xmlns="http://www.w3.org/2000/svg"
   version="1.1"
   width="100"
   height="100"
   viewBox="0 0 100 100"
   id="Layer_1"
   xml:space="preserve"><metadata
     id="metadata9"><rdf:RDF><cc:Work
         rdf:about=""><dc:format>image/svg+xml</dc:format><dc:type
           rdf:resource="http://purl.org/dc/dcmitype/StillImage" /><dc:title></dc:title></cc:Work></rdf:RDF></metadata><defs
     id="defs7" /><path
     d="m 97.158076,89.107606 c -2.130952,-0.799542 -4.090923,-1.312486 -5.879912,-1.540927 -1.788989,-0.153468 -3.102879,-0.590024 -3.94026,-1.313186 -0.494723,-0.305511 -1.161125,-1.38957 -1.998512,-3.254939 -1.561249,-3.121096 -2.797354,-5.95699 -3.710421,-8.506986 -1.484868,-4.034859 -2.723072,-7.155956 -3.712519,-9.36329 C 75.747661,60.066131 73.920832,55.594009 72.437363,51.71191 71.637121,49.618799 69.278426,43.966629 65.357087,34.755399 L 53.654024,7.3522529 53.02616,6.1532871 H 50.000365 45.718143 L 29.732857,47.487145 16.202269,82.655894 c -1.065827,1.978889 -1.979594,3.273857 -2.740596,3.882798 -0.798847,0.569702 -2.892657,1.160426 -6.2800345,1.768672 -2.2080342,0.419728 -3.7300385,0.761702 -4.567425,1.027983 l -0.114216,4.511366 h 1.1989653 c 3.2731574,0 6.4517162,-0.266259 9.5342742,-0.798842 l 2.740591,-0.456182 c 10.771779,0.761002 17.413396,1.141503 19.924847,1.141503 0.07639,-0.380518 0.114216,-0.894144 0.114216,-1.540926 0,-1.142207 -0.019,-2.245875 -0.05747,-3.311698 -0.798842,-0.114215 -1.569655,-0.228431 -2.31174,-0.342647 -0.742084,-0.114216 -1.313185,-0.209519 -1.712608,-0.285216 -0.399432,-0.07496 -0.656593,-0.113526 -0.770815,-0.113526 -2.931195,-0.419036 -4.891166,-1.027986 -5.880614,-1.826829 -0.646781,-0.456181 -0.970524,-1.274646 -0.970524,-2.455392 0,-0.761003 0.437962,-2.358692 1.313189,-4.795866 2.854816,-7.954103 4.833706,-13.16901 5.937368,-15.641921 l 25.691938,0.113525 5.252751,13.016949 2.68243,6.507771 c 0.228431,0.647485 0.341956,1.256427 0.341956,1.826829 0,0.570406 -0.22774,1.084749 -0.684621,1.540931 -0.456882,0.381209 -1.75045,0.818464 -3.882799,1.312486 l -7.479704,1.598388 c -0.152777,1.256428 -0.22705,2.740592 -0.22705,4.453201 l 3.310998,-0.114216 11.41856,-0.627864 c 2.130951,-0.07565 4.701263,-0.114907 7.70814,-0.114907 3.652259,0 7.249159,0.152778 10.789997,0.456881 4.2619,0.30413 7.916263,0.456182 10.961679,0.456182 0.03843,-0.456182 0.05605,-0.950903 0.05605,-1.484164 0,-0.684627 -0.113525,-1.768668 -0.341957,-3.25354 z M 52.740261,56.678754 c -0.532566,0 -1.531819,-0.0099 -2.997065,-0.02893 -1.465251,-0.0177 -3.729339,-0.04625 -6.793678,-0.08481 -3.063635,-0.03843 -5.98502,-0.0757 -8.763456,-0.114216 l 9.705252,-25.691233 c 1.484868,3.006872 3.235317,7.022114 5.252047,12.04642 2.284414,5.556872 4.034859,10.143215 5.253446,13.759033 l -1.656546,0.113524 z"
     id="path3"
     style="fill:#000000;fill-opacity:0.5" /></svg>