<?xml version="1.0" encoding="UTF-8" standalone="no"?>
<!-- Created with Inkscape (http://www.inkscape.org/) -->

<svg
   xmlns:dc="http://purl.org/dc/elements/1.1/"
   xmlns:cc="http://creativecommons.org/ns#"
   xmlns:rdf="http://www.w3.org/1999/02/22-rdf-syntax-ns#"
   xmlns:svg="http://www.w3.org/2000/svg"
   xmlns="http://www.w3.org/2000/svg"
   version="1.1"
   width="100"
   height="100"
   viewBox="0 0 100 100"
   id="Capa_1"
   xml:space="preserve"><metadata
   id="metadata13"><rdf:RDF><cc:Work
       rdf:about=""><dc:format>image/svg+xml</dc:format><dc:type
         rdf:resource="http://purl.org/dc/dcmitype/StillImage" /><dc:title></dc:title></cc:Work></rdf:RDF></metadata><defs
   id="defs11" />
<g
   transform="matrix(0.75914369,0,0,0.75914369,-31.986759,-5.4171098)"
   id="g3">
	<path
   d="m 107.999,73 c 8.638,0 16.011,-3.056 22.12,-9.166 6.111,-6.11 9.166,-13.483 9.166,-22.12 0,-8.636 -3.055,-16.009 -9.166,-22.12 -6.11,-6.11 -13.484,-9.165 -22.12,-9.165 -8.636,0 -16.01,3.055 -22.12,9.165 -6.111,6.111 -9.166,13.484 -9.166,22.12 0,8.637 3.055,16.01 9.166,22.12 6.111,6.11 13.484,9.166 22.12,9.166 z"
   id="path5" style="fill-opacity:0.5" />
	<path
   d="m 165.07,106.037 c -0.191,-2.743 -0.571,-5.703 -1.141,-8.881 -0.57,-3.178 -1.291,-6.124 -2.16,-8.84 -0.869,-2.715 -2.037,-5.363 -3.504,-7.943 -1.466,-2.58 -3.15,-4.78 -5.052,-6.6 -1.902,-1.82 -4.223,-3.272 -6.965,-4.358 -2.744,-1.086 -5.772,-1.63 -9.085,-1.63 -0.489,0 -1.63,0.584 -3.422,1.752 -1.792,1.168 -3.815,2.472 -6.069,3.911 -2.254,1.438 -5.188,2.743 -8.799,3.909 -3.612,1.168 -7.237,1.752 -10.877,1.752 -3.639,0 -7.264,-0.584 -10.876,-1.752 -3.611,-1.166 -6.545,-2.471 -8.799,-3.909 -2.254,-1.439 -4.277,-2.743 -6.069,-3.911 -1.793,-1.168 -2.933,-1.752 -3.422,-1.752 -3.313,0 -6.341,0.544 -9.084,1.63 -2.743,1.086 -5.065,2.539 -6.966,4.358 -1.901,1.82 -3.585,4.02 -5.051,6.6 -1.466,2.58 -2.634,5.229 -3.503,7.943 -0.869,2.716 -1.589,5.662 -2.159,8.84 -0.571,3.178 -0.951,6.137 -1.141,8.881 -0.19,2.744 -0.285,5.554 -0.285,8.433 0,6.517 1.983,11.664 5.948,15.439 3.965,3.774 9.234,5.661 15.806,5.661 h 71.208 c 6.572,0 11.84,-1.887 15.806,-5.661 3.966,-3.775 5.948,-8.921 5.948,-15.439 0,-2.879 -0.095,-5.69 -0.287,-8.433 z"
   id="path7" style="fill-opacity:0.5" />
</g>
</svg>