<?xml version="1.0" encoding="utf-8"?>
<!-- Generator: Adobe Illustrator 18.1.1, SVG Export Plug-In . SVG Version: 6.00 Build 0)  -->
<svg version="1.1" id="Layer_1" xmlns="http://www.w3.org/2000/svg" xmlns:xlink="http://www.w3.org/1999/xlink" x="0px" y="0px"
	 viewBox="0 0 20 20" enable-background="new 0 0 20 20" xml:space="preserve">
<g>
	<path d="M13.8,0.7L6.7,4.3L0,0.5v14.9L6.6,20l6.9-4.4l6.5,3.9V4.7L13.8,0.7z M5.7,15.4C6,15.7,6,15.9,6,16l-0.1,2.6L1,14.8V2l5,3.2
		v9.6c0,0,0.7,0,0.7-0.1L5.7,15.4z M6.9,18.6L7,15.8c0-0.1,0.3-0.2,0.4-0.4L7,14.9V5.2L13,2v2.5c0,0.1-0.3,0.3-0.5,0.6L13,5.6v1.2
		l-0.5-0.3c-0.3,0.5-0.6,0.9-0.8,1.4l0.8,0.4C12.7,8,12.8,7.7,13,7.5v7.3L6.9,18.6z M14,14.8V5.6c0,0,0.5,0,0.5,0l0.3-0.7
		C14.6,4.7,14,4.6,14,4.5V2l5,3.2v9l-1.2-1l1.2-1.4l-0.7-0.6l-1.2,1.4l-1.4-1.2l-0.6,0.7l1.4,1.2l-1.2,1.4l0.7,0.6l1.2-1.4l1.4,1.2
		l0.4-0.5V18L14,14.8z"/>
	<path d="M17.5,10.6l0.9,0c0-0.3,0-0.7-0.1-1l-0.9,0.1C17.5,10.1,17.5,10.4,17.5,10.6z"/>
	<path d="M17.8,7.8c-0.2-0.6-0.6-1.1-1-1.6l-0.7,0.6c0.4,0.4,0.6,0.9,0.9,1.4L17.8,7.8z"/>
	<path d="M9.3,13.6l0.7,0.5c0.3-0.4,0.6-0.9,0.9-1.4L10,12.3C9.8,12.7,9.6,13.2,9.3,13.6z"/>
	<path d="M10.7,10.4c0,0.2-0.1,0.3-0.1,0.5l0.9,0.3c0.1-0.2,0.1-0.3,0.2-0.5c0.1-0.3,0.2-0.7,0.3-1l-0.9-0.3
		C10.9,9.7,10.8,10,10.7,10.4z"/>
	<path d="M3.7,9.3c0-0.1,0-0.2,0-0.2L2.8,9c0,0.1,0,0.2,0,0.3c0,0.6,0.1,1.2,0.2,1.8l0.9-0.2C3.8,10.3,3.7,9.8,3.7,9.3z"/>
	<path d="M4.6,12.4l-0.8,0.5c0.2,0.3,0.4,0.5,0.7,0.7c0.3,0.2,0.6,0.4,0.9,0.6l0.6-0.7c-0.3-0.3-0.7-0.5-1-0.7
		C4.9,12.8,4.7,12.6,4.6,12.4z"/>
	<path d="M4.6,6.7L3.9,6.1C3.6,6.3,3.5,6.6,3.3,6.9l0.8,0.4C4.2,7.1,4.4,6.9,4.6,6.7z"/>
</g>
</svg>
