<?xml version="1.0" encoding="utf-8"?>
<!-- Generator: Adobe Illustrator 18.1.1, SVG Export Plug-In . SVG Version: 6.00 Build 0)  -->
<svg version="1.1" id="Layer_1" xmlns="http://www.w3.org/2000/svg" xmlns:xlink="http://www.w3.org/1999/xlink" x="0px" y="0px"
	 viewBox="0 0 20 20" enable-background="new 0 0 20 20" xml:space="preserve">
<path d="M9.9-0.1c-5.5,0-10,4.5-10,10c0,5.5,4.5,10,10,10c5.5,0,10-4.5,10-10C19.9,4.3,15.4-0.1,9.9-0.1z M17,12.8
	c0,0.7-0.5,0.8-1.1,1.2l-4.1,1.7c0,0-1.4,0.8-1.8,0.8c-0.4,0-1.9-0.8-1.9-0.8l-4.2-1.7C3.1,13.5,3,13.4,3,12.8V6.4
	c0-1.2,0.6-1.2,1.6-0.7l3.7,1.6c0,0,1.1,0.6,1.4,0.6c0.3,0,1.4-0.5,1.4-0.5L15,5.7c1.1-0.5,2-0.5,2,0.7V12.8z"/>
</svg>
