<?xml version="1.0" encoding="UTF-8" standalone="no"?>
<!-- Created with Inkscape (http://www.inkscape.org/) -->

<svg
   xmlns:dc="http://purl.org/dc/elements/1.1/"
   xmlns:cc="http://creativecommons.org/ns#"
   xmlns:rdf="http://www.w3.org/1999/02/22-rdf-syntax-ns#"
   xmlns:svg="http://www.w3.org/2000/svg"
   xmlns="http://www.w3.org/2000/svg"
   xmlns:sodipodi="http://sodipodi.sourceforge.net/DTD/sodipodi-0.dtd"
   xmlns:inkscape="http://www.inkscape.org/namespaces/inkscape"
   version="1.1"
   width="100"
   height="50"
   id="svg3882"
   inkscape:version="0.48.4 r9939"
   sodipodi:docname="arrow-left.svg">
  <sodipodi:namedview
     pagecolor="#ffffff"
     bordercolor="#666666"
     borderopacity="1"
     objecttolerance="10"
     gridtolerance="10"
     guidetolerance="10"
     inkscape:pageopacity="0"
     inkscape:pageshadow="2"
     inkscape:window-width="1763"
     inkscape:window-height="771"
     id="namedview10"
     showgrid="false"
     inkscape:zoom="3.65625"
     inkscape:cx="-30.854447"
     inkscape:cy="39.566952"
     inkscape:window-x="0"
     inkscape:window-y="0"
     inkscape:window-maximized="0"
     inkscape:current-layer="svg3882"
     showborder="true" />
  <defs
     id="defs3884" />
  <metadata
     id="metadata3887">
    <rdf:RDF>
      <cc:Work
         rdf:about="">
        <dc:format>image/svg+xml</dc:format>
        <dc:type
           rdf:resource="http://purl.org/dc/dcmitype/StillImage" />
        <dc:title />
      </cc:Work>
    </rdf:RDF>
  </metadata>
  <path
     inkscape:connector-curvature="0"
     style="fill:none;stroke:none"
     id="path3004"
     d="m 7,7.0000015 36,0 L 43,43 7,43 7,7.0000015 z" />
  <path
     inkscape:connector-curvature="0"
     style="font-size:medium;font-style:normal;font-variant:normal;font-weight:normal;font-stretch:normal;text-indent:0;text-align:start;text-decoration:none;line-height:normal;letter-spacing:normal;word-spacing:normal;text-transform:none;direction:ltr;block-progression:tb;writing-mode:lr-tb;text-anchor:start;baseline-shift:baseline;color:#000000;fill:#3d71b8;fill-opacity:1;fill-rule:nonzero;stroke:none;stroke-width:4.5;marker:none;visibility:visible;display:inline;overflow:visible;enable-background:accumulate;font-family:Sans;-inkscape-font-specification:Sans"
     id="path3006"
     d="m 20.449942,18.231979 a 1.1251124,1.1251124 0 0 1 0.01245,0.01245 1.1251124,1.1251124 0 0 1 0.662498,1.937504 l -3.699998,3.699998 19.425,0 a 1.1251124,1.1251124 0 0 1 0.1125,0 1.1264055,1.1264054 0 0 1 -0.1125,2.25 l -19.425,0 3.699998,3.699997 a 1.126963,1.1269629 0 0 1 -1.587503,1.600005 l -5.625,-5.625 -0.799995,-0.800002 0.799995,-0.800003 5.625023,-5.624977 a 1.1251124,1.1251124 0 0 1 0.912502,-0.350002 z" />
  <path
     inkscape:connector-curvature="0"
     style="fill:none;stroke:none"
     id="path3911"
     d="m 57.000001,7.0000015 36,0 0,35.9999985 -36,0 0,-35.9999985 z" />
  <path
     inkscape:connector-curvature="0"
     style="font-size:medium;font-style:normal;font-variant:normal;font-weight:normal;font-stretch:normal;text-indent:0;text-align:start;text-decoration:none;line-height:normal;letter-spacing:normal;word-spacing:normal;text-transform:none;direction:ltr;block-progression:tb;writing-mode:lr-tb;text-anchor:start;baseline-shift:baseline;color:#000000;fill:#ffffff;fill-opacity:1;fill-rule:nonzero;stroke:none;stroke-width:4.5;marker:none;visibility:visible;display:inline;overflow:visible;enable-background:accumulate;font-family:Sans;-inkscape-font-specification:Sans"
     id="path3913"
     d="m 70.449943,18.231979 a 1.1251124,1.1251124 0 0 1 0.01245,0.01245 1.1251124,1.1251124 0 0 1 0.662497,1.937504 l -3.699997,3.699998 19.425,0 a 1.1251124,1.1251124 0 0 1 0.1125,0 1.1264055,1.1264054 0 0 1 -0.1125,2.25 l -19.425,0 3.699997,3.699997 a 1.1269628,1.1269627 0 0 1 -1.587502,1.600005 l -5.625,-5.625 -0.799995,-0.800002 0.799995,-0.800003 5.625022,-5.624977 a 1.1251124,1.1251124 0 0 1 0.912503,-0.350002 z" />
  <path
     sodipodi:type="arc"
     style="fill:none;stroke:#3d71b8;stroke-width:1.71688032;stroke-miterlimit:4;stroke-opacity:1;stroke-dasharray:none"
     id="path3759"
     sodipodi:cx="28.581196"
     sodipodi:cy="24.341881"
     sodipodi:rx="20.102564"
     sodipodi:ry="20.102564"
     d="m 48.68376,24.341881 a 20.102564,20.102564 0 1 1 -40.205128,0 20.102564,20.102564 0 1 1 40.205128,0 z"
     transform="matrix(0.85873747,0,0,0.85873744,0.45625575,4.0967166)" />
  <path
     transform="matrix(0.85873747,0,0,0.85873744,50.456256,4.0967146)"
     d="m 48.68376,24.341881 a 20.102564,20.102564 0 1 1 -40.205128,0 20.102564,20.102564 0 1 1 40.205128,0 z"
     sodipodi:ry="20.102564"
     sodipodi:rx="20.102564"
     sodipodi:cy="24.341881"
     sodipodi:cx="28.581196"
     id="path3761"
     style="fill:none;stroke:#ffffff;stroke-width:1.71688032;stroke-miterlimit:4;stroke-opacity:1;stroke-dasharray:none"
     sodipodi:type="arc" />
</svg>
