<?xml version="1.0" encoding="UTF-8" standalone="no"?>
<!-- Generator: Adobe Illustrator 16.0.4, SVG Export Plug-In . SVG Version: 6.00 Build 0)  -->

<svg
   xmlns:dc="http://purl.org/dc/elements/1.1/"
   xmlns:cc="http://creativecommons.org/ns#"
   xmlns:rdf="http://www.w3.org/1999/02/22-rdf-syntax-ns#"
   xmlns:svg="http://www.w3.org/2000/svg"
   xmlns="http://www.w3.org/2000/svg"
   xmlns:sodipodi="http://sodipodi.sourceforge.net/DTD/sodipodi-0.dtd"
   xmlns:inkscape="http://www.inkscape.org/namespaces/inkscape"
   version="1.1"
   id="Layer_1"
   x="0px"
   y="0px"
   width="15"
   height="15"
   viewBox="0 0 15 15"
   xml:space="preserve"
   inkscape:version="0.48.4 r9939"
   sodipodi:docname="close.svg"><metadata
   id="metadata42"><rdf:RDF><cc:Work
       rdf:about=""><dc:format>image/svg+xml</dc:format><dc:type
         rdf:resource="http://purl.org/dc/dcmitype/StillImage" /></cc:Work></rdf:RDF></metadata><defs
   id="defs40">
	

		
	</defs><sodipodi:namedview
   pagecolor="#ffffff"
   bordercolor="#666666"
   borderopacity="1"
   objecttolerance="10"
   gridtolerance="10"
   guidetolerance="10"
   inkscape:pageopacity="0"
   inkscape:pageshadow="2"
   inkscape:window-width="1294"
   inkscape:window-height="480"
   id="namedview38"
   showgrid="false"
   inkscape:zoom="5.3636364"
   inkscape:cx="-13.050846"
   inkscape:cy="22"
   inkscape:window-x="0"
   inkscape:window-y="0"
   inkscape:window-maximized="0"
   inkscape:current-layer="Layer_1" />
<path
   d="m 14.192015,0.1386512 -6.6920776,6.692078 -6.692078,-6.692078 c -0.184701,-0.184701 -0.484172,-0.185035 -0.669208,0 -0.185036,0.185036 -0.184701,0.484507 0,0.669208 l 6.692078,6.692078 -6.692078,6.6920778 c -0.185036,0.185036 -0.184701,0.484507 0,0.669208 0.185036,0.185036 0.484172,0.185036 0.669208,0 l 6.692078,-6.6920778 6.6920776,6.6920778 c 0.185036,0.185036 0.484172,0.185036 0.669208,0 0.185036,-0.185036 0.185036,-0.484172 0,-0.669208 L 8.1691454,7.4999372 14.861223,0.8078592 c 0.185036,-0.185036 0.185036,-0.484172 0,-0.669208 -0.184701,-0.184701 -0.484172,-0.185035 -0.669208,0 z"
   id="path6"
   inkscape:connector-curvature="0"
   style="fill:#ffffff;fill-opacity:1" />
<g
   id="g8"
   transform="translate(0,-29)">
</g>
<g
   id="g10"
   transform="translate(0,-29)">
</g>
<g
   id="g12"
   transform="translate(0,-29)">
</g>
<g
   id="g14"
   transform="translate(0,-29)">
</g>
<g
   id="g16"
   transform="translate(0,-29)">
</g>
<g
   id="g18"
   transform="translate(0,-29)">
</g>
<g
   id="g20"
   transform="translate(0,-29)">
</g>
<g
   id="g22"
   transform="translate(0,-29)">
</g>
<g
   id="g24"
   transform="translate(0,-29)">
</g>
<g
   id="g26"
   transform="translate(0,-29)">
</g>
<g
   id="g28"
   transform="translate(0,-29)">
</g>
<g
   id="g30"
   transform="translate(0,-29)">
</g>
<g
   id="g32"
   transform="translate(0,-29)">
</g>
<g
   id="g34"
   transform="translate(0,-29)">
</g>
<g
   id="g36"
   transform="translate(0,-29)">
</g>
</svg>