<?xml version="1.0" encoding="utf-8"?>
<!-- Generator: Adobe Illustrator 19.1.0, SVG Export Plug-In . SVG Version: 6.00 Build 0)  -->
<svg version="1.1"
	 id="Capa_1" xmlns:dc="http://purl.org/dc/elements/1.1/" xmlns:cc="http://creativecommons.org/ns#" xmlns:rdf="http://www.w3.org/1999/02/22-rdf-syntax-ns#" xmlns:svg="http://www.w3.org/2000/svg"
	 xmlns="http://www.w3.org/2000/svg" xmlns:xlink="http://www.w3.org/1999/xlink" x="0px" y="0px" viewBox="-2597.6 -440.1 510 510"
	 style="enable-background:new -2597.6 -440.1 510 510;" xml:space="preserve">
<style type="text/css">
	.st0{fill:#E61919;}
	.st1{fill:#5A86C1;}
	.st2{fill:#B4B4B4;}
</style>
<path class="st1" d="M-2504.4-396.9h153c59.6,0,103.8,8.8,132.7,26.5c28.9,17.7,43.3,45.3,43.3,82.6c0,24.6-6.3,45.6-18.9,63
	c-12.6,17.4-29.2,28.6-49.8,33.6v3c27.2,7.2,46.9,19.2,59.1,36c12.2,16.8,18.3,38.6,18.3,65.4c0,39.8-15,71.1-44.8,94
	c-29.9,22.9-70.6,34.3-122.2,34.3h-170.7V-396.9z M-2385.9-228.6h35.7c17,0,30.1-3.5,39.4-10.5c9.3-7,13.9-17.4,13.9-31.2
	c0-24.6-18.6-36.9-55.8-36.9h-33.3V-228.6z M-2385.9-141.9v92.1h41.7c37,0,55.5-15.6,55.5-46.8c0-14.6-4.9-25.8-14.8-33.6
	c-9.9-7.8-24.3-11.7-43-11.7H-2385.9z"/>
</svg>
