<?xml version="1.0" encoding="utf-8"?>
<!-- Generator: Adobe Illustrator 19.1.0, SVG Export Plug-In . SVG Version: 6.00 Build 0)  -->
<svg version="1.1"
	 id="Capa_1" xmlns:dc="http://purl.org/dc/elements/1.1/" xmlns:cc="http://creativecommons.org/ns#" xmlns:rdf="http://www.w3.org/1999/02/22-rdf-syntax-ns#" xmlns:svg="http://www.w3.org/2000/svg"
	 xmlns="http://www.w3.org/2000/svg" xmlns:xlink="http://www.w3.org/1999/xlink" x="0px" y="0px" viewBox="-2597.6 165.9 510 510"
	 style="enable-background:new -2597.6 165.9 510 510;" xml:space="preserve">
<style type="text/css">
	.st0{fill:#E61919;}
	.st1{fill:#5A86C1;}
	.st2{fill:#B4B4B4;}
</style>
<path class="st1" d="M-2313.5,299.5c-28.2,0-50.2,11.6-66,34.6c-15.8,23.1-23.7,55-23.7,95.5c0,84.4,32.1,126.6,96.3,126.6
	c19.4,0,38.2-2.7,56.4-8.1c18.2-5.4,36.5-11.9,54.9-19.5v100.2c-36.6,16.2-78,24.3-124.2,24.3c-66.2,0-116.9-19.2-152.2-57.6
	c-35.3-38.4-52.9-93.9-52.9-166.5c0-45.4,8.5-85.3,25.6-119.7c17.1-34.4,41.7-60.8,73.8-79.3c32.1-18.5,69.8-27.7,113.2-27.7
	c47.4,0,92.7,10.3,135.9,30.9l-36.3,93.3c-16.2-7.6-32.4-14-48.6-19.2C-2277.5,302.1-2294.9,299.5-2313.5,299.5z"/>
</svg>
