<?xml version="1.0" encoding="utf-8"?>
<!-- Generator: Adobe Illustrator 19.1.0, SVG Export Plug-In . SVG Version: 6.00 Build 0)  -->
<svg version="1.1"
	 id="Capa_1" xmlns:dc="http://purl.org/dc/elements/1.1/" xmlns:cc="http://creativecommons.org/ns#" xmlns:rdf="http://www.w3.org/1999/02/22-rdf-syntax-ns#" xmlns:svg="http://www.w3.org/2000/svg"
	 xmlns="http://www.w3.org/2000/svg" xmlns:xlink="http://www.w3.org/1999/xlink" x="0px" y="0px" viewBox="-1878.2 1307.9 510 510"
	 style="enable-background:new -1878.2 1307.9 510 510;" xml:space="preserve">
<style type="text/css">
	.st0{fill:#E61919;}
	.st1{fill:#5A86C1;}
	.st2{fill:#B4B4B4;}
</style>
<g id="g3_11_">
	<g id="g5_4_">
		<path id="path7_4_" class="st1" d="M-1368.2,1787.3c0,0-1-96.6-6.9-106.6c-8.8-14.9-29.2-25.2-67.2-41
			c-37.8-15.8-49.9-29.2-49.9-57.7c0-17.2,11.5-11.5,16.6-42.9c2.1-13,12.3-0.2,14.3-29.9c0-11.9-5.6-14.8-5.6-14.8s2.8-17.5,3.9-31
			c1.4-16.8-8.5-60.3-61-60.3c-52.5,0-62.3,43.4-61,60.3c1.1,13.5,3.9,31,3.9,31s-5.6,3-5.6,14.8c2,29.7,12.1,16.9,14.3,29.9
			c5.1,31.4,16.6,25.8,16.6,42.9c0,19.4-5.6,31.8-21.1,42.7c82.6,41.4,93.7,49.8,93.7,86.8v75.8H-1368.2z M-1617.5,1654.1
			c-50.4-21.1-66.6-38.9-66.6-76.9c0-22.9,15.4-15.4,22.2-57.3c2.8-17.4,16.4-0.3,19-39.9c0-15.8-7.4-19.7-7.4-19.7
			s3.8-23.4,5.2-41.4c1.8-22.4-11.3-80.3-81.3-80.3c-70,0-83.1,57.9-81.3,80.3c1.5,18,5.2,41.4,5.2,41.4s-7.4,3.9-7.4,19.7
			c2.6,39.6,16.2,22.6,19,39.9c6.8,41.9,22.2,34.4,22.2,57.3c0,38.1-16.1,55.9-66.6,76.9c-15.4,6.4-43,16.4-43,40.3v92.9h354.3
			c0,0,0-55,0-69.7C-1523.9,1695.8-1566.9,1675.2-1617.5,1654.1L-1617.5,1654.1z"/>
	</g>
</g>
</svg>
