<?xml version="1.0" encoding="utf-8"?>
<!-- Generator: Adobe Illustrator 19.1.0, SVG Export Plug-In . SVG Version: 6.00 Build 0)  -->
<svg version="1.1"
	 id="Capa_1" xmlns:dc="http://purl.org/dc/elements/1.1/" xmlns:cc="http://creativecommons.org/ns#" xmlns:rdf="http://www.w3.org/1999/02/22-rdf-syntax-ns#" xmlns:svg="http://www.w3.org/2000/svg"
	 xmlns="http://www.w3.org/2000/svg" xmlns:xlink="http://www.w3.org/1999/xlink" x="0px" y="0px" viewBox="-1878.2 -918.1 510 510"
	 style="enable-background:new -1878.2 -918.1 510 510;" xml:space="preserve">
<style type="text/css">
	.st0{fill:#E61919;}
	.st1{fill:#5A86C1;}
	.st2{fill:#B4B4B4;}
</style>
<g id="Group_5_">
	<path id="path4_4_" class="st1" d="M-1623.2-681.7c44.7,0,79.5-46.4,79.5-94.4v-15c0-48-34.8-82.1-79.5-82.1
		c-44.7,0-79.5,34.1-79.5,82.1v15C-1702.7-728-1667.9-681.7-1623.2-681.7z M-1782.4-666.1c12.8,0,47.8-16.6,47.8-51v-25.5
		c0-34.4-25.2-51-47.8-51c-21.8,0-47.8,16.6-47.8,51v25.5C-1830.2-682.7-1794.5-666.1-1782.4-666.1z M-1496.2-602.4
		c0-0.2-0.1-0.5-0.1-0.7c-0.4-3-0.9-5.9-1.7-8.8c0,0,0,0,0-0.1c-1.7-6.1-4.5-12-8.7-17.8v0c-6.9-9.5-17.3-19.3-34.2-28.8
		c-8.9-5-12.9-7.3-18.4-7.3c-8.8,0-16.5,6.8-29.4,18.7h0l-11.8,10.8c-0.4,0.4-13.1,18.3-22.6,18.3c-9.5,0-22.2-17.9-22.6-18.3
		l-11.8-10.8h0c-12.9-11.9-20.6-18.7-29.4-18.7c-5.5,0-10.5,2.3-18.4,7.3c-16.4,10.3-27.3,19.2-34.2,28.8l0,0c0,0,0,0.1,0,0.1
		c-4.2,5.8-6.9,11.6-8.6,17.7c0,0-0.1,0.1-0.1,0.2c-0.8,2.9-1.3,5.8-1.7,8.7c0,0.3-0.1,0.5-0.1,0.8c-0.3,3.2-0.5,6.4-0.5,9.7
		c0,0.4,0,69.8,0,70.1c0,22.7,8.5,31.9,31.9,31.9h191.2c23.5,0,31.9-8.7,31.9-31.9c0-0.3,0-69.8,0-70.1
		C-1495.7-596-1495.9-599.2-1496.2-602.4L-1496.2-602.4z M-1463.7-666.1c12.8,0,47.8-16.6,47.8-51v-25.5c0-34.4-25.2-51-47.8-51
		c-21.8,0-47.8,16.6-47.8,51v25.5C-1511.4-682.7-1475.8-666.1-1463.7-666.1z M-1841.9-631.6c-29.7,16.9-36.3,43.8-36.3,61.3
		c0,0.3,0,31.6,0,31.9c0,23.1,7.8,31.9,31.9,31.9h63.7c0,0,0-67.7,0-95.6l-15.9-15.9C-1815.3-633-1829.6-638.6-1841.9-631.6z
		 M-1782.6-602.2C-1782.2-601.9-1782.6-609.8-1782.6-602.2L-1782.6-602.2z M-1368.2-570.3c0-17.5-6.6-44.4-36.3-61.3
		c-12.4-7-26.6-1.4-43.4,13.5l-15.9,15.9c0,27.9,0,95.6,0,95.6h63.7c24.1,0,31.9-8.7,31.9-31.9
		C-1368.2-538.7-1368.2-570-1368.2-570.3L-1368.2-570.3z M-1463.8-602.2C-1463.8-609.8-1464.2-601.9-1463.8-602.2L-1463.8-602.2z"/>
</g>
</svg>
