<?xml version="1.0" encoding="UTF-8" standalone="no"?>
<!-- Created with Inkscape (http://www.inkscape.org/) -->
<svg xmlns:dc="http://purl.org/dc/elements/1.1/" xmlns:cc="http://creativecommons.org/ns#" xmlns:rdf="http://www.w3.org/1999/02/22-rdf-syntax-ns#" xmlns:svg="http://www.w3.org/2000/svg" xmlns="http://www.w3.org/2000/svg" version="1.1" width="35.921051" height="42" viewBox="0 0 35.921051 42" id="svg2999" xml:space="preserve" style="fill-rule:evenodd"><metadata id="metadata3011"><rdf:RDF><cc:Work rdf:about=""><dc:format>image/svg+xml</dc:format><dc:type rdf:resource="http://purl.org/dc/dcmitype/StillImage"/><dc:title/></cc:Work></rdf:RDF></metadata>
 <defs id="defs3001">
  <style type="text/css" id="style3003"/>
 </defs>
 <g transform="scale(0.55263158,0.55263158)" id="Layer_x0020_1" style="fill:#FFFFFF">
  <metadata id="CorelCorpID_0Corel-Layer"/>
  <path d="m 10,0 45,0 c 6,0 10,4 10,10 l 0,56 c 0,5 -4,10 -10,10 L 10,76 C 4,76 0,71 0,66 L 0,10 C 0,4 4,0 10,0 z m 23,22 c -5,4 -10,4 -15,4 0,10 -1,17 15,26 15,-9 14,-16 14,-26 -5,0 -10,0 -14,-4 z m 0,45 C 24,55 18,67 6,67 L 6,6 59,6 59,67 C 47,67 41,55 33,67 z" id="path3007" style="fill:#FFFFFF"/>
 </g>
</svg>