<?xml version="1.0" encoding="UTF-8" standalone="no"?>
<!-- Generator: Adobe Illustrator 16.0.4, SVG Export Plug-In . SVG Version: 6.00 Build 0)  -->

<svg
   xmlns:dc="http://purl.org/dc/elements/1.1/"
   xmlns:cc="http://creativecommons.org/ns#"
   xmlns:rdf="http://www.w3.org/1999/02/22-rdf-syntax-ns#"
   xmlns:svg="http://www.w3.org/2000/svg"
   xmlns="http://www.w3.org/2000/svg"
   xmlns:sodipodi="http://sodipodi.sourceforge.net/DTD/sodipodi-0.dtd"
   xmlns:inkscape="http://www.inkscape.org/namespaces/inkscape"
   version="1.1"
   id="Layer_1"
   x="0px"
   y="0px"
   width="20"
   height="20"
   viewBox="0 0 20 20"
   xml:space="preserve"
   inkscape:version="0.48.4 r9939"
   sodipodi:docname="1241-play-toolbar@2x.svg"><metadata
   id="metadata42"><rdf:RDF><cc:Work
       rdf:about=""><dc:format>image/svg+xml</dc:format><dc:type
         rdf:resource="http://purl.org/dc/dcmitype/StillImage" /></cc:Work></rdf:RDF></metadata><defs
   id="defs40" /><sodipodi:namedview
   pagecolor="#ffffff"
   bordercolor="#666666"
   borderopacity="1"
   objecttolerance="10"
   gridtolerance="10"
   guidetolerance="10"
   inkscape:pageopacity="0"
   inkscape:pageshadow="2"
   inkscape:window-width="1184"
   inkscape:window-height="740"
   id="namedview38"
   showgrid="false"
   showborder="true"
   inkscape:zoom="5.3636364"
   inkscape:cx="-14.449153"
   inkscape:cy="22"
   inkscape:window-x="0"
   inkscape:window-y="0"
   inkscape:window-maximized="0"
   inkscape:current-layer="Layer_1" />
<g
   id="_x31_241-play_x40_2x.png"
   transform="scale(0.45454545,0.45454545)">
	<g
   id="g4">
		<path
   d="m 31.622,21.235 0.009,-0.011 -14,-9 -0.009,0.011 C 17.45,12.096 17.239,12 17,12 c -0.552,0 -1,0.448 -1,1 v 18 c 0,0.553 0.448,1 1,1 0.239,0 0.449,-0.096 0.622,-0.235 l 0.009,0.012 14,-9 -0.009,-0.012 C 31.847,22.582 32,22.313 32,22 32,21.687 31.847,21.419 31.622,21.235 z M 22,0 C 9.85,0 0,9.85 0,22 0,34.15 9.85,44 22,44 34.15,44 44,34.15 44,22 44,9.85 34.15,0 22,0 z m 0,42 C 10.954,42 2,33.046 2,22 2,10.954 10.954,2 22,2 33.046,2 42,10.954 42,22 42,33.046 33.046,42 22,42 z"
   id="path6"
   inkscape:connector-curvature="0"
   style="fill:#ffffff" />
	</g>
</g>
<g
   id="g8"
   transform="translate(0,-24)">
</g>
<g
   id="g10"
   transform="translate(0,-24)">
</g>
<g
   id="g12"
   transform="translate(0,-24)">
</g>
<g
   id="g14"
   transform="translate(0,-24)">
</g>
<g
   id="g16"
   transform="translate(0,-24)">
</g>
<g
   id="g18"
   transform="translate(0,-24)">
</g>
<g
   id="g20"
   transform="translate(0,-24)">
</g>
<g
   id="g22"
   transform="translate(0,-24)">
</g>
<g
   id="g24"
   transform="translate(0,-24)">
</g>
<g
   id="g26"
   transform="translate(0,-24)">
</g>
<g
   id="g28"
   transform="translate(0,-24)">
</g>
<g
   id="g30"
   transform="translate(0,-24)">
</g>
<g
   id="g32"
   transform="translate(0,-24)">
</g>
<g
   id="g34"
   transform="translate(0,-24)">
</g>
<g
   id="g36"
   transform="translate(0,-24)">
</g>
</svg>