<?xml version="1.0" encoding="UTF-8" standalone="no"?>
<!-- Generator: Adobe Illustrator 16.0.4, SVG Export Plug-In . SVG Version: 6.00 Build 0)  -->

<svg
   xmlns:dc="http://purl.org/dc/elements/1.1/"
   xmlns:cc="http://creativecommons.org/ns#"
   xmlns:rdf="http://www.w3.org/1999/02/22-rdf-syntax-ns#"
   xmlns:svg="http://www.w3.org/2000/svg"
   xmlns="http://www.w3.org/2000/svg"
   xmlns:sodipodi="http://sodipodi.sourceforge.net/DTD/sodipodi-0.dtd"
   xmlns:inkscape="http://www.inkscape.org/namespaces/inkscape"
   version="1.1"
   id="Layer_1"
   x="0px"
   y="0px"
   width="15"
   height="15"
   viewBox="0 0 15 15"
   xml:space="preserve"
   inkscape:version="0.48.4 r9939"
   sodipodi:docname="university.svg"><metadata
   id="metadata3104"><rdf:RDF><cc:Work
       rdf:about=""><dc:format>image/svg+xml</dc:format><dc:type
         rdf:resource="http://purl.org/dc/dcmitype/StillImage" /></cc:Work></rdf:RDF></metadata><defs
   id="defs3102">
	
</defs><sodipodi:namedview
   pagecolor="#ffffff"
   bordercolor="#666666"
   borderopacity="1"
   objecttolerance="10"
   gridtolerance="10"
   guidetolerance="10"
   inkscape:pageopacity="0"
   inkscape:pageshadow="2"
   inkscape:window-width="1761"
   inkscape:window-height="781"
   id="namedview3100"
   showgrid="false"
   inkscape:zoom="5.3636364"
   inkscape:cx="-8.4491525"
   inkscape:cy="22"
   inkscape:window-x="0"
   inkscape:window-y="0"
   inkscape:window-maximized="0"
   inkscape:current-layer="Layer_1" />
<g
   id="g3066"
   transform="matrix(0.26785714,0,0,0.26785714,0.17796561,1.7682858)">
		<path
   style="fill:#3d71b8"
   inkscape:connector-curvature="0"
   id="path3068"
   d="M 7.989,42.852 5.401,25.599 C 6.34,25.094 7,24.142 7,23 7,21.822 6.315,20.813 5.328,20.322 5.644,18.911 6.16,17.534 6.703,16.303 L 4.83,15.61 C 4.227,16.875 3.647,18.402 3.309,20.088 1.986,20.401 1,21.582 1,23 1,24.276 1.801,25.359 2.925,25.793 2.495,33.939 0.477,41.248 0.084,42.604 0.078,42.618 0.077,42.632 0.071,42.647 0.036,42.768 0.01,42.852 0.01,42.852 l 0.019,0.003 C 0.021,42.904 0,42.948 0,43 c 0,0.553 0.447,1 1,1 0.501,0 0.897,-0.374 0.971,-0.854 l 0.019,0.003 c 0,0 1.42,-5.28 2.304,-11.457 L 6.012,43.149 6.031,43.146 C 6.103,43.626 6.499,44 7,44 7.553,44 8,43.553 8,43 8,42.948 7.979,42.904 7.971,42.854 L 7.989,42.852 z M 56,11 c 0,-0.43 -0.274,-0.789 -0.655,-0.931 l 0.003,-0.007 -27,-10 -0.003,0.007 C 28.236,0.029 28.122,0 28,0 27.878,0 27.764,0.029 27.655,0.069 l -0.003,-0.007 -27,10 0.003,0.007 C 0.274,10.211 0,10.57 0,11 c 0,0.43 0.274,0.789 0.655,0.931 l -0.003,0.007 0.692,0.257 0.003,-0.007 26.653,9.871 26.652,-9.871 0.003,0.007 0.692,-0.257 -0.003,-0.007 C 55.726,11.789 56,11.43 56,11 z M 44.994,34.896 43.272,18.536 28.347,24.063 28.344,24.056 c -0.108,0.04 -0.223,0.069 -0.345,0.069 -0.122,0 -0.236,-0.029 -0.345,-0.069 l -0.003,0.007 -14.925,-5.527 -1.722,16.36 0.024,0.003 C 11.026,34.935 11,34.963 11,35 c 0,0.553 0.447,1 1,1 0.161,0 0.308,-0.047 0.442,-0.114 l 0.005,0.009 7.447,-3.724 7.506,5.629 0.01,-0.014 C 27.577,37.912 27.775,38 28,38 c 0.226,0 0.423,-0.088 0.59,-0.214 l 0.01,0.014 7.506,-5.629 7.447,3.724 0.005,-0.009 C 43.692,35.953 43.839,36 44,36 c 0.553,0 1,-0.447 1,-1 0,-0.037 -0.026,-0.065 -0.03,-0.102 l 0.024,-0.002 z" />
	</g>
<g
   id="g3070"
   transform="translate(0,-29)">
</g>
<g
   id="g3072"
   transform="translate(0,-29)">
</g>
<g
   id="g3074"
   transform="translate(0,-29)">
</g>
<g
   id="g3076"
   transform="translate(0,-29)">
</g>
<g
   id="g3078"
   transform="translate(0,-29)">
</g>
<g
   id="g3080"
   transform="translate(0,-29)">
</g>
<g
   id="g3082"
   transform="translate(0,-29)">
</g>
<g
   id="g3084"
   transform="translate(0,-29)">
</g>
<g
   id="g3086"
   transform="translate(0,-29)">
</g>
<g
   id="g3088"
   transform="translate(0,-29)">
</g>
<g
   id="g3090"
   transform="translate(0,-29)">
</g>
<g
   id="g3092"
   transform="translate(0,-29)">
</g>
<g
   id="g3094"
   transform="translate(0,-29)">
</g>
<g
   id="g3096"
   transform="translate(0,-29)">
</g>
<g
   id="g3098"
   transform="translate(0,-29)">
</g>
</svg>