<?xml version="1.0" encoding="utf-8"?>
<!-- Generator: Adobe Illustrator 16.0.4, SVG Export Plug-In . SVG Version: 6.00 Build 0)  -->
<!DOCTYPE svg PUBLIC "-//W3C//DTD SVG 1.1//EN" "http://www.w3.org/Graphics/SVG/1.1/DTD/svg11.dtd">
<svg version="1.1" id="Layer_1" xmlns="http://www.w3.org/2000/svg" xmlns:xlink="http://www.w3.org/1999/xlink" x="0px" y="0px"
	 width="61px" height="88px" viewBox="0 0 61 88" enable-background="new 0 0 61 88" xml:space="preserve">
<path d="M49.443,69.964c-0.029,0.14-0.059,0.284-0.086,0.435C49.397,70.252,49.425,70.107,49.443,69.964z M46.031,72.379
	c-0.722-1.178,0.689-2.143,0.498-2.914c0.387-0.153,0.499,0.065,0.812,0.012c0.762-1.052,1.797-2.011,1.93-3.27
	c0.086-0.83-0.553-2.172-0.883-3.107c-1.939-5.481-4.423-10.066-6.932-14.335c-2.065-3.51-4.177-6.889-6.658-9.919
	c-3.408-4.154-8.351-7.892-12.638-11.027c-2.391-1.749-5.015-3.474-7.512-4.925c-0.222-0.124-0.354-0.104-0.528,0.082
	c0.008-0.537-0.16-0.381-0.589-0.315c-0.542-0.485-0.289-1.182-0.64-1.523c0.52-0.322,0.956-0.705,1.158-1.259
	c-0.821-0.426-1.803-0.629-2.376-1.391c-0.1-0.542,0.549-0.534,0.519-1.026c-1.563,0.415-3.583,0.496-4.67,1.259
	c1.622,3.116,4.867,4.858,6.313,7.676c1.201,0.491,2.436,2.041,3.151,3.102c-0.039-0.033-0.094-0.025-0.095,0.078
	c1.55,1.292,2.292,2.5,3.044,3.989c0.396-0.241,1.081,1.101,1.035,1.462c0.616,0.458,1.317,1.424,2.01,2.528
	c0.513,0.816,1.707,2.164,1.806,2.965c0.11,0.895-0.812,1.78-1.909,1.645c-1.01-0.126-1.189-1.513-1.552-2.193
	c-0.625-1.17-1.844-2.216-2.832-3.482c-3.985-5.129-8.034-9.168-11.632-14.154c-1.281-1.773-3.527-3.645-2.416-5.167
	c1.694-2.315,5.353-2.095,8.305-2.222c2.029-0.087,4.702-0.649,7.299-0.852c1.312-0.1,2.56-0.01,3.757-0.172
	c3.442-0.456,6.172-2.03,9.35-1.572c0.049,3.51-4.689,1.981-6.417,3.958c-4.493-0.334-8.68,0.259-12.964,0.911
	c3.797,2.44,8.906,3.923,12.324,6.348c1.062,0.068,2.389,0.82,2.923,1.441c0.321-0.256,1.262,0.449,1.311,0.61
	c2.9,0.995,5.106,2.937,7.695,4.356c0.305,0.662,1.221,0.81,0.862,1.219c1.04-0.329,0.422,0.885,1.238,1.026
	c-0.031-0.199-0.572-0.465-0.233-0.64c1.265,1.095,2.597,2.1,3.755,3.34c-0.378,0.098-0.57-0.453-0.659,0.101
	c0.847-0.164,2.222,1.088,2.324,1.94c0.947,0.271,2.47,1.934,2.771,3.086c0.181-0.078,0.194-0.193,0.396-0.061
	c0.731,1.361,2.169,2.543,2.384,4.092c1.076,0.477,0.792,1.859,1.675,2.984c1.128,3.53,2.291,7.146,1.887,10.518
	c0.334,0.597,0.393,2.811-0.284,3.422c0.234-0.054,0.328,0.083,0.326,0.355c-0.599,3.407-2.557,6.021-1.769,9.593
	c0.806,3.671,2.108,8.743-0.967,10.416c-1.216,0.841-2.982,1.039-5.015,0.771c-1.298-0.64-0.142-2.304,0.265-3.552
	c0.902-2.797,1.873-5.901,2.365-8.16C48.955,71.767,47.58,73.014,46.031,72.379z M38.769,35.668
	c4.908,5.206,10.267,9.162,12.81,16.539c-1.379-8.264-6.782-13.615-11.868-18.306c-4.177-3.86-9.745-6.281-14.708-8.682
	c0.107-0.372-0.685-0.244-0.062-0.396c-1.045,0.008-2.222-0.953-3.318-1.381C27.196,27.072,33.272,31.401,38.769,35.668z
	 M39.498,42.176c0.219,0.005,0.205-0.161,0.374-0.192c0.77,1.311,2.425,3.056,2.426,4.355c0.586,0.219,1.975,2.257,1.807,2.965
	c0.137,0.221,0.246-0.021,0.396-0.062c0.861,2.226,2.933,4.352,3.076,6.822c0.13,0.375,0.171-0.233,0.375-0.192
	c0.48,1.66,2.244,4.559,2.254,5.868c0.59-2.089,0.649-4.271-0.04-7.289C48.13,45.521,39,38.796,32.758,33.484
	c2.345,2.381,4.876,5.646,7.095,8.366C39.582,41.848,39.447,41.942,39.498,42.176z M49.137,80.278
	c3.343-0.035,2.207-5.721,1.737-7.158C50.499,74.677,49.707,77.433,49.137,80.278z"/>
<g>
</g>
<g>
</g>
<g>
</g>
<g>
</g>
<g>
</g>
<g>
</g>
</svg>
