<?xml version="1.0" encoding="utf-8"?>
<!-- Generator: Adobe Illustrator 16.0.4, SVG Export Plug-In . SVG Version: 6.00 Build 0)  -->
<!DOCTYPE svg PUBLIC "-//W3C//DTD SVG 1.1//EN" "http://www.w3.org/Graphics/SVG/1.1/DTD/svg11.dtd">
<svg version="1.1" id="Layer_1" xmlns="http://www.w3.org/2000/svg" xmlns:xlink="http://www.w3.org/1999/xlink" x="0px" y="0px"
	 width="84px" height="62px" viewBox="0 0 84 62" enable-background="new 0 0 84 62" xml:space="preserve">
<path d="M71.639,43.642c0.057,0.131,0.118,0.265,0.184,0.403C71.771,43.902,71.707,43.769,71.639,43.642z M70.277,47.595
	c-1.272-0.535-0.69-2.142-1.297-2.657c0.224-0.35,0.444-0.238,0.665-0.463c0.006-1.299,0.287-2.683-0.341-3.783
	c-0.416-0.723-1.717-1.439-2.531-2.007c-4.775-3.317-9.469-5.589-13.997-7.591c-3.727-1.644-7.414-3.154-11.197-4.166
	c-5.191-1.382-11.388-1.531-16.698-1.573c-2.962-0.024-6.099,0.107-8.975,0.388c-0.252,0.028-0.347,0.122-0.381,0.374
	c-0.307-0.44-0.353-0.217-0.662,0.088c-0.723-0.078-0.924-0.791-1.407-0.863c0.233-0.565,0.364-1.131,0.204-1.698
	c-0.914,0.133-1.83,0.542-2.741,0.258c-0.397-0.382,0.134-0.755-0.178-1.136c-1.027,1.249-2.619,2.494-3.056,3.748
	c3.136,1.583,6.788,1.104,9.606,2.545c1.262-0.301,3.169,0.235,4.369,0.679c-0.051-0.004-0.092,0.035-0.033,0.119
	c2.014,0.145,3.321,0.691,4.802,1.461c0.181-0.427,1.521,0.263,1.693,0.583c0.768,0.012,1.902,0.387,3.108,0.879
	c0.895,0.363,2.649,0.76,3.197,1.353c0.611,0.663,0.38,1.919-0.59,2.449c-0.894,0.487-1.848-0.534-2.54-0.874
	c-1.191-0.586-2.791-0.724-4.333-1.175c-6.229-1.838-11.875-2.753-17.707-4.7c-2.075-0.691-4.991-0.9-4.979-2.785
	c0.023-2.868,3.123-4.826,5.445-6.653c1.597-1.254,3.438-3.272,5.428-4.952c1.008-0.848,2.073-1.503,2.951-2.333
	c2.528-2.38,3.826-5.252,6.672-6.735c2.09,2.821-2.65,4.346-2.898,6.96c-3.842,2.353-6.895,5.277-9.993,8.309
	c4.508-0.236,9.521-2.015,13.712-2.042c0.901-0.565,2.418-0.729,3.215-0.537c0.11-0.396,1.286-0.373,1.42-0.27
	c2.936-0.885,5.859-0.597,8.79-0.956c0.633,0.359,1.464-0.057,1.411,0.486c0.653-0.875,0.861,0.472,1.605,0.109
	c-0.142-0.143-0.736-0.043-0.564-0.383c1.667,0.15,3.335,0.189,4.999,0.52c-0.249,0.3-0.728-0.034-0.476,0.467
	c0.592-0.628,2.439-0.414,3.02,0.218c0.928-0.333,3.134,0.128,4.052,0.888c0.101-0.169,0.046-0.27,0.287-0.281
	c1.389,0.678,3.246,0.798,4.325,1.93c1.15-0.241,1.727,1.048,3.101,1.445c2.978,2.207,6.032,4.464,7.672,7.437
	c0.62,0.29,1.961,2.052,1.767,2.944c0.161-0.181,0.316-0.124,0.475,0.099c1.503,3.115,1.438,6.381,4.163,8.821
	c2.799,2.508,6.816,5.867,5.298,9.02c-0.497,1.393-1.815,2.585-3.621,3.554c-1.429,0.238-1.461-1.787-1.861-3.038
	c-0.899-2.797-1.923-5.885-2.844-8.005C72.293,45.391,71.905,47.205,70.277,47.595z M42.948,22.031
	c7.025,1.361,13.685,1.444,20.056,5.949c-5.944-5.905-13.456-7.094-20.323-7.933c-5.645-0.695-11.578,0.59-17.009,1.539
	c-0.13-0.364-0.698,0.202-0.281-0.285c-0.844,0.616-2.36,0.523-3.501,0.815C28.534,21.808,35.994,21.776,42.948,22.031z
	 M47.34,26.888c0.181-0.123,0.073-0.25,0.191-0.375c1.39,0.615,3.752,1.065,4.512,2.12c0.604-0.164,2.922,0.68,3.199,1.352
	c0.238,0.101,0.187-0.16,0.284-0.28c1.999,1.305,4.922,1.821,6.48,3.743c0.325,0.229,0.003-0.29,0.193-0.376
	c1.359,1.067,4.482,2.392,5.256,3.45c-0.74-2.041-1.966-3.848-4.288-5.896c-6.868-6.06-18.206-6.19-26.374-6.858
	c3.294,0.564,7.254,1.736,10.645,2.65C47.216,26.573,47.162,26.728,47.34,26.888z M77.412,52.194
	c2.692-1.979-1.55-5.933-2.771-6.824C75.247,46.852,76.212,49.552,77.412,52.194z"/>
<g>
</g>
<g>
</g>
<g>
</g>
<g>
</g>
<g>
</g>
<g>
</g>
</svg>
