<?xml version="1.0" encoding="utf-8"?>
<!-- Generator: Adobe Illustrator 16.0.4, SVG Export Plug-In . SVG Version: 6.00 Build 0)  -->
<!DOCTYPE svg PUBLIC "-//W3C//DTD SVG 1.1//EN" "http://www.w3.org/Graphics/SVG/1.1/DTD/svg11.dtd">
<svg version="1.1" id="Layer_1" xmlns="http://www.w3.org/2000/svg" xmlns:xlink="http://www.w3.org/1999/xlink" x="0px" y="0px"
	 width="59px" height="60px" viewBox="0 0 59 60" enable-background="new 0 0 59 60" xml:space="preserve">
<path d="M5.194,14.776c-0.181-1.688-1.042-3.174,0.973-4.058c0.814,0.312,1.491,1.022,2.105,1.952
	c7.451,0.274,14.734,1.933,20.74,3.51c3.129-1.003,5.273,0.959,7.591,2.397c-0.103,1.078,0.168,1.991-0.599,2.555
	c-0.848,0.621-3.469-0.688-4.884-1.122c-2.108-0.643-3.833-0.96-4.961-1.648c-4.796-0.635-9.396-1.86-14.277-2.24
	c6.862,6.536,13.839,12.646,21.129,18.162c2.343,1.769,5.013,3.328,6.917,5.553c0.201,0.148,0.391-0.361,0.752-0.002
	c2.297,2.459,8.422,4.698,10.525,7.504c0.523,0.701,0.914,2.729-0.973,3.307c-2.102-2.895-5.781-4.486-9.023-6.754
	c-1.66-1.156-3.152-2.648-4.736-3.826c-7.199-5.334-14.382-10.622-20.376-16.66c-2.315-1.479-4.619-4.091-7.144-6.38
	c1.128,5.08,6.072,11.74,9.558,17.947c-0.312,1.002-0.578,1.535-1.725,2.181c-1.257-0.99-1.625-2.441-2.408-3.678
	c-2.863-4.541-6.404-8.436-8.354-14.042c-0.176-0.508-0.451-0.448,0.074-0.978C4.855,17.772,5.367,16.404,5.194,14.776z"/>
<g>
</g>
<g>
</g>
<g>
</g>
<g>
</g>
<g>
</g>
<g>
</g>
</svg>
