<?xml version="1.0" encoding="utf-8"?>
<!-- Generator: Adobe Illustrator 16.0.4, SVG Export Plug-In . SVG Version: 6.00 Build 0)  -->
<!DOCTYPE svg PUBLIC "-//W3C//DTD SVG 1.1//EN" "http://www.w3.org/Graphics/SVG/1.1/DTD/svg11.dtd">
<svg version="1.1" id="Layer_1" xmlns="http://www.w3.org/2000/svg" xmlns:xlink="http://www.w3.org/1999/xlink" x="0px" y="0px"
	 width="75.333px" height="63px" viewBox="0 0 75.333 63" enable-background="new 0 0 75.333 63" xml:space="preserve">
<path d="M16.225,8.856c0.004,0.009,0.009,0.022,0.014,0.04c-0.144,0.14-0.395,0.14-0.539,0c-0.48,0.691-1.369,0.871-2.047,1.185
	c-2.572,1.185-4.807,2.428-6.14,4.848c-1.49,2.707-2.226,6.055-2.262,8.725c1.473-4.331,3.923-5.916,6.787-8.725
	c-0.004,0.013-0.004,0.027-0.018,0.041c-0.067,0.054-0.134,0.112-0.197,0.174c0.081-0.044,0.17-0.084,0.197-0.174
	c0.723-0.606,1.674-0.979,2.604-1.979c0.022,0.085,0.004,0.21,0.108,0.216c0.79-1.1,2.697-1.396,3.662-2.37
	c1.961-0.399,2.177-1.046,4.093-1.292c0.041-0.499,0.665-0.413,1.185-0.431c4.457-1.666,9.381-2.271,15.404-2.37
	c-2.109-0.314-3.532-0.458-5.709-0.754c0.116-0.027,0.26-0.18,0.107-0.216c-0.808,0.422-2.424,0.036-3.447,0.108
	c-2.904,0.202-5.44,0.798-8.079,1.184C20.493,7.523,17.221,8.417,16.225,8.856z M16.22,8.856c-0.027-0.063-0.09-0.009-0.09,0.04
	C16.158,8.883,16.189,8.87,16.22,8.856z M72.361,38.197c1.077,0.05,1.203-0.341,2.047,0.323c-0.444,2.083-3.312,1.063-5.062,0.861
	c-0.359,2.294-2.514,0.943-4.201,0.324c-3.435-1.262-7.792-2.945-10.772-4.202c-0.359,1.086-0.525,2.662-0.646,3.663
	c3.312,2.217,5.427,5.633,7.756,8.833c1.621,1.979,3.264,4.111,4.955,6.14c0.525,0.629,1.279,1.226,1.4,2.047
	c0.333-0.121,0.423,0.005,0.646,0.216c0.444,0.417,1.594,1.732,1.616,2.047c0.045,0.583-0.432,1.167-1.293,1.077
	c-0.673-0.072-0.771-0.732-1.292-1.293c-0.44-0.476-1.056-0.92-1.616-1.508c-1.329-1.392-3.259-3.645-4.417-4.632
	c0.086-0.373-0.12-0.453-0.216-0.646c-0.488-0.48-1.009-0.929-1.292-1.616c-2.356-2.415-5-5.431-6.464-7.648
	c-0.417,2.146-0.583,4.866-0.969,7.433c-0.22,1.454-0.04,2.927-0.432,4.094c-0.022,0.067-0.476,0.031-0.107,0.323
	c-0.633,0.655-2.055,1.526-2.908,0.432c0.041-4.538-1.131-9.444-1.292-14.112c-0.063-1.773-0.081-3.55-0.324-5.386
	c-5.502,3.178-13.887,6.346-22.19,6.032c-2.213-0.085-4.74-0.731-6.571-0.861c-1.62-0.117-3.837,0.277-5.709-0.216
	c-0.485-0.131-0.857-0.318-1.616-0.539c-2.289-0.673-4.592-1.669-6.033-3.662c-0.597-0.826-1.777-2.738-1.724-4.309
	c0.014-0.409,0.121,0.045,0-0.539C3.5,30.23,3.67,29.844,3.312,29.148c0.431-1.719-1.131-3.352-1.292-5.709
	c-0.26-3.811,1.45-7.976,4.632-10.772c0.306-0.27,0.763-0.35,1.078-0.646c0.637-0.601,1.113-1.432,1.724-2.046
	c1.917-1.921,5.197-3.802,8.187-4.417c0.942-0.193,1.827-0.036,2.585-0.539c4.74-0.673,7.846-0.202,12.818-0.431
	c7.546-0.346,16.163,0.458,21.976,3.339c3.195,1.584,5.979,4.403,5.925,8.941c-0.014,1.163-0.517,2.549-0.754,3.878
	c-0.382,2.127-0.238,3.671-0.97,4.848c-1.773,2.859-5.53,4.277-8.187,6.787c0.493,0.367,1.355,0.367,1.831,0.754
	c0.557-0.633,0.448-1.136,0.538-1.939c1.063-0.794,1.706-0.512,2.586,0.216c1.831,1.513,4.609,3.079,7.324,4.416
	C66.064,37.183,69.268,38.053,72.361,38.197z M59.542,18.053C60.934,8.385,49.151,6.424,40.907,5.772
	c7.509,1.854,14.309,4.776,17.773,10.88C58.972,17.164,59.161,17.923,59.542,18.053z M58.464,21.823
	c0.176-6.211-4.326-8.667-7.862-11.526c-0.684,0.067-1.163-0.499-1.832-0.646c0.605,0.494,1.765,1.903,0.216,2.154
	c-1.441-1.315-2.285-2.594-4.417-3.231c-3.729-1.114-9.56-0.696-13.681-0.108c-2.275,0.323-6.108,1.711-7.971,1.939
	c0.126,0.018,0.305-0.018,0.323,0.107c-3.789,1.131-7.751,3.218-10.88,6.033c-3.254,2.931-6.85,6.684-6.355,12.496
	c7.141,7.792,23.052,10.171,33.824,5.493c0.75-0.322,1.634-0.646,2.37-0.861c1.077-0.646,3.268-1.688,4.524-2.154
	c-0.126,0.054-0.242,0.117-0.322,0.215c0.543,0.005,0.565-0.202,0.861-0.107c0.08-0.539-0.396,0.143-0.431-0.215
	c0.893-0.651,1.934-1.154,3.016-1.616c-0.009,0.184-0.7,0.215-0.323,0.431c0.468-0.364,0.423-0.781,1.185-0.97
	c0.252,0.157-0.211,0.341,0.216,0.323c0.202-0.547-0.081-0.021-0.216-0.431c0.453-0.439,1.253-0.493,1.531-0.592
	c0.022,0.045,0.049,0.054,0.085-0.054c-0.014,0.018-0.045,0.036-0.085,0.049c-0.05-0.081-0.099-0.269-0.238-0.049
	c0.314-0.547,1.023-0.7,1.508-1.077c-0.04,0.328,0.351,0.225,0.539,0.323c0.206-0.161-0.188-0.453,0.216-0.539
	c0.26,0.261,0.287-0.26,0.754-0.107c1.068-1.396,2.348-2.962,2.908-4.524c0.148-0.005,0.238,0.049,0.323,0.107
	c0.031-0.21-0.144-0.215-0.216-0.323C58.124,22.128,58.442,22.124,58.464,21.823z M55.018,33.134
	c0.085,0.781,1.226,0.498,1.615,0.969C56.266,33.61,55.668,33.344,55.018,33.134z M53.725,28.502c0-0.107,0-0.215,0-0.323
	c-0.148,0.004-0.238-0.049-0.323-0.108c-0.215,0.22,0.05,0.211,0.107,0.431c-0.058,0-0.121,0.085,0,0.108
	C53.533,28.524,53.599,28.484,53.725,28.502z M53.725,27.855c-0.35,0.135-0.081-0.35-0.431-0.215
	c0.026,0.287-0.71,0.359-0.323,0.646c0-0.072,0-0.144,0-0.216C53.303,28.08,53.568,28.022,53.725,27.855z M51.894,34.534
	c-0.22-0.103-0.427-0.22-0.646-0.322c0.022,0.602-0.35,1.369-0.107,1.831C51.315,35.463,51.512,34.907,51.894,34.534z
	 M46.939,33.565c0.111-0.005,0.085-0.14-0.107-0.108c-6.976,3.12-15.351,5.14-23.268,6.355c6.907,0.194,12.895-0.938,17.99-3.339
	c0.821-0.386,1.651-0.889,2.585-0.97C44.488,34.661,46.149,34.314,46.939,33.565z M26.364,38.089
	c-4.367-0.283-9.304-0.97-12.496-2.586c-0.125-0.062-0.229-0.125-0.215-0.322c-2.459-0.521-4.646-2.456-6.679-3.555
	c1.903,3.748,6.051,6.118,10.018,7.11C19.438,39.22,23.774,38.776,26.364,38.089z M17.962,6.958
	c0.354-0.108,1.072-0.005,1.077-0.431c-0.988,0.413-2.253,0.547-3.124,1.077C16.66,7.559,17.329,7.146,17.962,6.958z M13.761,38.736
	c-3.932-1.437-6.822-3.681-8.618-7.433C5.713,36.011,9.281,38.295,13.761,38.736z M3.743,23.978
	c0.094-2.981,0.283-3.887,1.077-6.141C3.707,19.018,3.245,22.227,3.743,23.978z"/>
<g>
</g>
<g>
</g>
<g>
</g>
<g>
</g>
<g>
</g>
<g>
</g>
</svg>
