<?xml version="1.0" encoding="utf-8"?>
<!-- Generator: Adobe Illustrator 16.0.4, SVG Export Plug-In . SVG Version: 6.00 Build 0)  -->
<!DOCTYPE svg PUBLIC "-//W3C//DTD SVG 1.1//EN" "http://www.w3.org/Graphics/SVG/1.1/DTD/svg11.dtd">
<svg version="1.1" id="Layer_1" xmlns="http://www.w3.org/2000/svg" xmlns:xlink="http://www.w3.org/1999/xlink" x="0px" y="0px"
	 width="100px" height="65px" viewBox="0 0 100 65" enable-background="new 0 0 100 65" xml:space="preserve">
<g>
	<g>
		<path d="M84.202,46.731c-0.142-2.978,0.261-5.773,0.014-8.501c-0.107-1.224-0.446-3.406-1.161-3.777
			c-2.459-0.575-6.787,2.931-10.033,3.95C66.405,27.22,59.895,20.504,53.883,8.18c-0.961-0.52-2.248,0.081-2.716,1.124
			c1.097,2.399,1.562,3.08,3.221,5.593c1.652,2.498,3.639,4.98,4.218,6.664c-2.283-3.43-4.277-5.811-6.754-9.491
			c-1.066-0.379-2.317-0.261-2.96,0.93c7.183,8.955,12.386,17.077,19.832,27.427c-1.431,0.57-1.999,1.36-3.094,1.303
			c-0.237,1.121-1.439,1.905-0.253,2.744c-0.83,0.437-0.802,1.182-0.981,1.852C71.75,50.109,78.407,55.83,84.903,62
			c1.066-0.168,1.712-0.587,2.097-1.45C85.146,56.05,84.427,51.311,84.202,46.731z M58.666,21.686
			c1.039,0.76,1.801,1.953,2.119,2.863C60.18,24.19,59.548,22.713,58.666,21.686z M61.023,25.055
			c1.104,0.826,1.894,2.531,2.849,3.756C62.733,28.085,62.01,26.206,61.023,25.055z M66.283,32.618
			C67.396,33.355,66.982,34.007,66.283,32.618L66.283,32.618z M75.618,39.652c-0.175,0.476,0.57,0.773,0.966,1.397
			c0.847,1.32,1.43,3.215,1.904,4.046c-1.401-2.022-2.688-3.509-3.815-5.153C75.07,40.129,75.175,39.449,75.618,39.652z
			 M66.508,44.251c2.153,0.24,3.76,2,5.481,3.441C70.131,46.63,68.347,45.367,66.508,44.251z M71.096,43.172
			c-0.802-0.505-1.627,0.424-2.178-0.364c1.078-0.716,1.575-0.742,2.847-1.497c0.003,0.361,0.694,0.885,0.969,1.398
			c2.418,1.571,4.297,5.044,6.366,8.277C76.146,47.911,74.026,45.801,71.096,43.172z M78.153,38.149
			c0.579-0.11,0.584-0.319,1.265-0.595c0.656,2.516,1.539,4.733,1.704,7.229C80.264,42.111,79.646,41.032,78.153,38.149z"/>
	</g>
</g>
<g>
	<g>
		<path d="M32.244,42.165c1.326-0.937-0.018-1.813-0.283-3.068c-1.224,0.065-1.859-0.817-3.458-1.456
			C36.827,26.071,39.69,18.926,47.719,8.915c-0.561-1.037-1.532-1.341-2.497-1.228c0.216-1.053-0.986-0.852-0.047-2.906
			c-0.522-1.166-1.963-1.837-3.036-1.256c-6.722,13.777-11.045,19.352-18.442,31.854c-3.628-1.14-8.468-5.059-11.215-4.416
			c-0.799,0.415-1.179,2.854-1.298,4.224c-0.275,3.049,0.173,6.175,0.016,9.503c-0.251,5.119-1.056,10.416-3.128,15.447
			c0.43,0.966,1.152,1.434,2.345,1.621c7.261-6.897,14.703-13.293,22.924-17.521C33.139,43.486,33.172,42.653,32.244,42.165z
			 M41.582,13.377c-0.381,0.863-0.871,1.825-1.77,3.173C40.118,15.663,40.78,14.571,41.582,13.377z M39.746,16.69
			c-0.985,1.147-1.691,2.801-2.37,3.201C37.733,18.874,38.584,17.54,39.746,16.69z M37.109,20.457
			c-1.101,1.288-1.911,3.388-3.184,4.198C34.993,23.288,35.876,21.381,37.109,20.457z M31.231,28.912
			C30.449,30.465,29.987,29.736,31.231,28.912L31.231,28.912z M20.795,36.775c0.496-0.227,0.613,0.533,1.057,0.324
			c-1.261,1.838-2.698,3.5-4.266,5.761c0.532-0.93,1.183-3.046,2.129-4.522C20.158,37.641,20.991,37.307,20.795,36.775z
			 M16.547,34.431c0.762,0.308,0.768,0.54,1.414,0.665c-1.668,3.222-2.358,4.428-3.318,7.416
			C14.827,39.722,15.813,37.243,16.547,34.431z M16.903,49.445c2.313-3.615,4.414-7.496,7.117-9.252
			c0.307-0.575,1.079-1.161,1.081-1.563c1.423,0.844,1.978,0.873,3.184,1.673c-0.616,0.881-1.538-0.157-2.436,0.406
			C22.575,43.648,20.205,46.008,16.903,49.445z M24.852,45.765c1.924-1.612,3.721-3.58,6.128-3.849
			C28.924,43.164,26.929,44.576,24.852,45.765z"/>
	</g>
</g>
<g>
</g>
<g>
</g>
<g>
</g>
<g>
</g>
<g>
</g>
<g>
</g>
</svg>
