<?xml version="1.0" encoding="utf-8"?>
<!-- Generator: Adobe Illustrator 16.0.4, SVG Export Plug-In . SVG Version: 6.00 Build 0)  -->
<!DOCTYPE svg PUBLIC "-//W3C//DTD SVG 1.1//EN" "http://www.w3.org/Graphics/SVG/1.1/DTD/svg11.dtd">
<svg version="1.1" id="Layer_1" xmlns="http://www.w3.org/2000/svg" xmlns:xlink="http://www.w3.org/1999/xlink" x="0px" y="0px"
	 width="130px" height="77px" viewBox="0 0 130 77" enable-background="new 0 0 130 77" xml:space="preserve">
<path d="M43.267,7.436c0.006,0.087,0.006,0.188-0.007,0.294C43.44,7.683,43.32,7.589,43.267,7.436z M43.267,7.429
	c-0.013-0.054-0.02-0.115-0.007-0.181c0.955,0.822,0.161,1.462,0,2.404c-0.488,2.879,0.428,6.032-0.48,10.099
	c1.076,0.14,1.703-0.708,2.564-0.962c1.583-0.468,3.293-0.327,4.81-0.802c0.928-0.287,1.656-0.995,2.564-1.282
	c2.124-0.674,5.042-1.202,7.374-1.283c0.247-0.006,0.587,0.334,0.802,0.321c1.449-0.101,2.852-0.528,4.328-0.642
	c3.099-0.24,6.078-0.04,9.137,0.32c2.398,0.287,5.075,0.755,7.373,1.122c11.08,1.777,18.654,9.659,26.449,16.672
	c3.707,4.568,7.907,8.642,10.74,14.105c2.831,5.45,4.655,11.542,6.091,17.954c0.468,2.083,0.188,4.741,1.443,6.091
	c-0.415,0.328-0.668,0.942-1.764,1.282c-1.729-1.241-5.618-0.32-6.894-1.603c-2.057,0.682-5.649-0.247-8.495,0
	c-1.577,0.134-2.831,0.728-3.688,0c-0.006-1.857-1.349-7.507-3.045-10.58c-2.465-4.455-5.991-9.203-10.419-12.022
	c-2.011-1.282-3.62-2.07-5.771-3.205c-2.859-1.503-5.377-3.286-8.497-4.329c-10.317-3.44-24.745-6.285-36.707-3.686
	c-0.007,2.504-0.241,6.278,0.16,8.816c0.26,1.629,0.875,2.377-0.16,3.206c-1.129,0.032-1.256,0.072-1.764-0.16
	c-3.967-3.16-10.646-6.673-16.35-8.817c-1.957-0.735-4.167-1.123-5.771-2.084c-0.274-0.167-0.581-0.06-0.32-0.642
	c-0.214,0.2-0.314,0.481-0.642,0.16c-2.364-1.322-6.024-2.004-9.297-2.885c-1.657-0.447-3.694-0.48-3.527-2.885
	c0.06-0.528,0.568-0.607,0.961-0.802c-0.06-0.42-0.514-0.447-0.32-1.123c6.906-4.849,14.066-9.451,21.159-14.105
	c0.701-0.113-0.127,0.321,0.32,0.321c4.536-4.122,11.382-5.931,16.03-9.938C42.385,6.58,43.167,6.794,43.267,7.429z M123.088,69.284
	c0.073-2.146-0.46-3.654-0.962-5.29c-0.354-1.149-0.313-2.031-0.481-3.207c-0.394-2.804-1.923-6.064-3.204-8.976
	c-1.263-2.858-2.699-5.57-4.329-7.854c-1.683-2.358-3.74-4.416-5.61-6.573c-5.423-6.251-11.942-12.456-19.556-16.03
	c-5.123-2.397-12.463-3.5-18.755-3.847c-9.017-0.5-16.984,1.529-23.884,4.007c-1.991,0.715-4.643,2.946-6.733,0.802
	c0.514-1.831,1.269-4.008,1.443-6.252c0.174-2.224-0.161-4.395,0.16-6.091c-9.551,4.509-18.648,10.179-26.77,16.03
	c-2.805,2.017-5.998,3.694-7.854,6.252c5.958,0.835,11.348,3.66,16.831,5.771c5.55,2.137,10.72,4.749,15.548,7.534
	c-0.473-2.559,0.047-4.702-0.16-6.732c-0.154-1.53-1.423-2.705-0.802-4.167c16.844-3.173,36.521,0.907,49.692,8.334
	c4.067,2.292,8.135,4.562,10.899,7.534c4.375,4.702,7.448,10.813,9.458,17.633C113.016,68.608,117.479,68.261,123.088,69.284z"/>
<g>
</g>
<g>
</g>
<g>
</g>
<g>
</g>
<g>
</g>
<g>
</g>
</svg>
