<?xml version="1.0" encoding="utf-8"?>
<!-- Generator: Adobe Illustrator 16.0.4, SVG Export Plug-In . SVG Version: 6.00 Build 0)  -->
<!DOCTYPE svg PUBLIC "-//W3C//DTD SVG 1.1//EN" "http://www.w3.org/Graphics/SVG/1.1/DTD/svg11.dtd">
<svg version="1.1" id="Layer_1" xmlns="http://www.w3.org/2000/svg" xmlns:xlink="http://www.w3.org/1999/xlink" x="0px" y="0px"
	 width="34.5px" height="80px" viewBox="0 0 34.5 80" enable-background="new 0 0 34.5 80" xml:space="preserve">
<g>
	<g>
		<path d="M28.179,27.053c-1.25-2.794-3.17-5.302-4.659-8.282c-2.283-4.589-4.171-9.603-4.822-15.005
			c-0.846-0.633-1.705-0.688-2.838-0.268c-2.962,9.566-6.328,18.784-11.434,26.491c0.542,0.556,0.921,1.299,1.969,1.271
			c-0.699,1.466,0.902,1.573,1.747,2.539c1.036-0.655,2.021-0.196,3.729-0.42c-1.606,14.162-0.611,26.795-2.723,39.454
			c0.996,0.63,1.992,0.421,2.779-0.149c0.326,1.024,1.276,0.26,1.46,2.512c1.026,0.762,2.61,0.643,3.263-0.389
			c-0.87-15.305,0.177-27.28,0.519-41.803c3.723-0.779,9.859,0.274,11.942-1.63C29.605,30.619,28.744,28.306,28.179,27.053z
			 M7.619,30.858c1.184-2.094,2.234-4.301,3.465-6.353C10.193,26.853,9.588,29.447,7.619,30.858z M12.312,57.304
			c0.158,0.872,0.13,3.044,0.029,5.479C12.238,60.895,12.178,59.05,12.312,57.304z M12.303,57.15
			c0.299-1.483,0.106-3.271,0.502-3.952C12.991,54.261,12.9,55.841,12.303,57.15z M12.761,52.575
			c0.331-1.662,0.011-3.89,0.726-5.219C13.224,49.071,13.385,51.167,12.761,52.575z M13.757,42.326
			C13.68,40.589,14.439,40.999,13.757,42.326L13.757,42.326z M14.533,28.96c0.013,0.651-0.374,1.54-0.18,1.892
			c-1.654-0.04-2.152,0.206-3.596,0.098c0.107-1.07,1.419-0.614,1.927-1.545c1.421-4.166,2.335-7.382,3.534-11.995
			C15.969,21.694,16.033,26.106,14.533,28.96z M19.195,28.474c-0.045,0.825-0.608,1.523-0.178,1.891
			c-0.322,0.44-0.795-0.166-1.08,0.233c0.201-2.219,0.643-4.372,0.904-7.11C18.833,24.559,19.299,26.723,19.195,28.474z
			 M22.311,30.444c-0.119-3.626-0.106-5.016-0.729-8.092c1.202,2.525,1.554,5.169,2.288,7.981
			C23.055,30.438,22.936,30.238,22.311,30.444z"/>
	</g>
</g>
<g>
</g>
<g>
</g>
<g>
</g>
<g>
</g>
<g>
</g>
<g>
</g>
</svg>
