<?xml version="1.0" encoding="utf-8"?>
<!-- Generator: Adobe Illustrator 16.0.4, SVG Export Plug-In . SVG Version: 6.00 Build 0)  -->
<!DOCTYPE svg PUBLIC "-//W3C//DTD SVG 1.1//EN" "http://www.w3.org/Graphics/SVG/1.1/DTD/svg11.dtd">
<svg version="1.1" id="Layer_1" xmlns="http://www.w3.org/2000/svg" xmlns:xlink="http://www.w3.org/1999/xlink" x="0px" y="0px"
	 width="59px" height="60px" viewBox="0 0 59 60" enable-background="new 0 0 59 60" xml:space="preserve">
<path d="M6.705,11.57c0.501-0.312,0.985-0.287,1.477-0.406c5.476-4.866,12.909-6.683,18.46-9.982
	c0.641,0.253,1.277,0.209,0.926,0.824c0.988-0.351,1.986-0.913,2.96-1.006c1.492,1.818-0.541,2.811-1.933,3.582
	c-1.896,1.048-4.045,2.795-6.503,3.825c-2.747,1.152-5.673,1.959-7.642,3.378c1.885,0.184,4.724,0.482,5.952,1.088
	c-0.089-0.141,0.057-0.166,0.203-0.183c4.759,1.29,10.049,2.324,14.583,4.743c1.516,0.809,2.789,1.941,4.303,2.942
	c0.781,0.518,2.041,0.758,2.137,1.761c0.75,0.048,1.951,1.229,2.617,1.883c1.893,1.864,3.619,3.962,4.914,6.074
	c1.848,3.01,2.232,6.073,3,9.272c-0.551,1.809-0.289,3.1-0.377,5.312c-0.047,1.193,0.037,13.043-0.387,13.662
	c-0.078,0.119-1.352,0.902-1.943,0.092c-0.482-0.664,0.605-12.057,0.742-13.062c0.287-2.139-0.309-4.787-0.568-7.59
	c-0.584-6.381-5.084-11.159-10.756-14.819c-7.238-4.667-13.216-7.576-20.513-8.061c1.754,0.447,3.581,3.937,1.129,4.324
	c-0.321-0.784,0.139-1.398-0.274-2.147c-0.46-0.835-1.501-1.166-2.116-2.147c-1.162,0.063-3.402,1.327-3.561-0.479
	c-1.166,0.036-2.33,0.063-3.491,0.01c-1.2,0.481-2.809,2.09-3.257,2.931c4.464,2.154,10.241,6.555,14.785,10.086
	c1.707,1.325,3.223,2.932,4.834,3.939c0.487,0.305,1.343,0.334,1.699,0.865c0.599,0.887-0.029,1.605-0.887,2.086
	c-7.352-4.35-16.087-8.439-22.762-15.063c-3.059-3.034-0.508-4.062,0.529-6.37C5.723,12.569,6.715,12.597,6.705,11.57z
	 M6.409,15.335c-0.623,0.17-1.252,0.483-1.902,1.16c0.152,0.169,0.305,0.339,0.458,0.509C5.648,16.458,5.622,15.875,6.409,15.335z
	 M9.696,21.034c1.963,2.471,4.928,3.601,6.99,5.313C14.483,23.787,11.863,22.606,9.696,21.034z M20.179,6.077
	c-0.485-0.455-1.001,0.202-1.476,0.407c-2.459,1.062-5.879,2.849-8.488,4.69C13.647,10.494,16.777,8.231,20.179,6.077z"/>
<g>
</g>
<g>
</g>
<g>
</g>
<g>
</g>
<g>
</g>
<g>
</g>
</svg>
