<?xml version="1.0" encoding="utf-8"?>
<!-- Generator: Adobe Illustrator 16.0.4, SVG Export Plug-In . SVG Version: 6.00 Build 0)  -->
<!DOCTYPE svg PUBLIC "-//W3C//DTD SVG 1.1//EN" "http://www.w3.org/Graphics/SVG/1.1/DTD/svg11.dtd">
<svg version="1.1" id="Layer_1" xmlns="http://www.w3.org/2000/svg" xmlns:xlink="http://www.w3.org/1999/xlink" x="0px" y="0px"
	 width="69.167px" height="55.5px" viewBox="0 0 69.167 55.5" enable-background="new 0 0 69.167 55.5" xml:space="preserve">
<path d="M62.779,1.977c2.7,0.413,5.177,2.848,4.413,5.404c-0.587,1.958-4.167,1.929-3.75,4.703
	c-0.543,0.036-0.255-0.512-0.626-0.598c0.016,2.165-2.434,4.669-3.844,6.635c-0.13,0.852,0.922,0.873,1.21,1.431
	c-2.025,2.803-4.713,2.097-5.5,6.345c-0.086,0.492-0.843,2.146-2.348,2.269c-2.894-1.676-4.048-4.417-6.775-5.819
	c-0.512-0.263-1.783-0.719-2.559-0.692c-1.808,0.058-6.128,3.614-8.49,5.331c-7.852,5.688-15.729,14.824-22.157,20.722
	c-1.972,1.816-3.026,4.403-5.528,5.121c-0.522-1.016-2.225-1.203-2.783-2.194c0.044-0.601-0.151-2.26,1.639-2.393
	c8.182-7.447,14.836-17.072,24.227-22.794c1.994-2.97,5.311-4.053,8.1-5.889c-3.29-2.892-8.03-0.009-10.497,0.106
	c-1.157-0.984-1.968-2.213-1.978-4.001c0.055-1.007,1.425-0.137,1.627-0.934c-0.659-1.567-1.638-1.831-0.991-4.072
	c5.013-1.607,10.675-1.355,16.236-2.267c6.271-1.021,12.466-4.097,18.708-5.244C61.75,2.872,62.094,2.182,62.779,1.977z
	 M48.183,19.883c1.261,0.16,1.913,1.828,2.908,1.485c-0.8-0.476-0.444-1.754-0.767-2.571C49.773,19.391,48.45,18.884,48.183,19.883z
	"/>
<g>
</g>
<g>
</g>
<g>
</g>
<g>
</g>
<g>
</g>
<g>
</g>
</svg>
