<?xml version="1.0" encoding="utf-8"?>
<!-- Generator: Adobe Illustrator 16.0.4, SVG Export Plug-In . SVG Version: 6.00 Build 0)  -->
<!DOCTYPE svg PUBLIC "-//W3C//DTD SVG 1.1//EN" "http://www.w3.org/Graphics/SVG/1.1/DTD/svg11.dtd">
<svg version="1.1" id="Layer_1" xmlns="http://www.w3.org/2000/svg" xmlns:xlink="http://www.w3.org/1999/xlink" x="0px" y="0px"
	 width="34.5px" height="94.5px" viewBox="0 0 34.5 94.5" enable-background="new 0 0 34.5 94.5" xml:space="preserve">
<g>
	<g>
		<path d="M31.904,31.689c-1.354-3.343-3.508-6.378-5.137-9.949c-2.495-5.499-4.505-11.482-5.046-17.871
			c-0.97-0.781-1.979-0.882-3.331-0.436C14.5,14.573,10.147,25.284,3.812,34.146c0.614,0.677,1.029,1.567,2.264,1.58
			c-0.884,1.696,0.996,1.89,1.95,3.062c1.248-0.728,2.39-0.145,4.409-0.338C9.947,55.057,7.83,73.867,4.812,88.685
			c1.147,0.783,2.328,0.579,3.278-0.061c0.34,1.221,1.491,0.361,1.614,3.021c1.177,0.939,3.047,0.867,3.859-0.321
			c-0.379-18.058,4.114-36.008,5.128-53.092c4.415-0.763,11.598,0.736,14.13-1.417C33.433,35.949,32.516,33.188,31.904,31.689z
			 M7.536,35.305c1.481-2.416,2.81-4.97,4.348-7.335C10.735,30.696,9.912,33.727,7.536,35.305z M11.298,71.456
			c0.267-1.808,0.496-3.46,0.648-4.813C12.05,67.358,11.761,69.174,11.298,71.456z M11.941,66.461
			c0.417-1.735,0.263-3.847,0.759-4.631C12.875,63.087,12.702,64.944,11.941,66.461z M12.675,61.093
			c0.461-1.943,0.177-4.579,1.074-6.114C13.367,56.986,13.469,59.461,12.675,61.093z M14.279,49.066
			C14.262,47.017,15.139,47.531,14.279,49.066L14.279,49.066z M15.755,33.36c-0.011,0.768-0.506,1.799-0.29,2.221
			c-1.946-0.117-2.543,0.151-4.239-0.038c0.172-1.255,1.696-0.663,2.334-1.737c1.848-4.845,3.06-8.595,4.668-13.975
			C17.752,24.865,17.643,30.062,15.755,33.36z M21.267,32.984c-0.088,0.969-0.781,1.767-0.291,2.219
			c-0.396,0.504-0.928-0.229-1.282,0.23c0.333-2.604,0.943-5.121,1.366-8.336C21.005,28.358,21.462,30.928,21.267,32.984z
			 M24.853,35.436c0.01-4.274,0.083-5.909-0.521-9.558c1.311,3.022,1.613,6.151,2.36,9.492
			C25.728,35.46,25.596,35.219,24.853,35.436z"/>
	</g>
</g>
<g>
</g>
<g>
</g>
<g>
</g>
<g>
</g>
<g>
</g>
<g>
</g>
</svg>
