<?xml version="1.0" encoding="utf-8"?>
<!-- Generator: Adobe Illustrator 18.1.1, SVG Export Plug-In . SVG Version: 6.00 Build 0)  -->
<svg version="1.1" xmlns="http://www.w3.org/2000/svg" xmlns:xlink="http://www.w3.org/1999/xlink" x="0px" y="0px" width="39.4px"
	 height="39.4px" viewBox="-400 277.9 39.4 39.4" enable-background="new -400 277.9 39.4 39.4" xml:space="preserve">
<g id="Layer_4" display="none">
	<rect x="-400" y="277.9" display="inline" fill="#8E8E8E" width="39.4" height="39.4"/>
</g>
<g id="Layer_1" display="none">
	<g id="Layer_2" display="inline">
		<g>
			<g>
				<g>
					<circle fill="#FFFFFF" stroke="#F4F4F4" stroke-width="1.4" stroke-miterlimit="10" cx="-380.3" cy="297.6" r="15.4"/>
				</g>
			</g>
		</g>
	</g>
</g>
<g id="Layer_2_1_" display="none">
	
		<circle display="inline" fill="#F7F7F7" stroke="#DFDEDE" stroke-width="1.4" stroke-miterlimit="10" cx="-380.3" cy="297.6" r="11.8"/>
</g>
<g id="Layer_6" display="none">
	<path display="inline" fill="#FFFFFF" d="M-380.3,282.2c-8.5,0-15.4,6.9-15.4,15.4s6.9,15.4,15.4,15.4s15.4-6.9,15.4-15.4
		S-371.8,282.2-380.3,282.2z M-380.3,309.4c-6.5,0-11.8-5.3-11.8-11.8c0-6.5,5.3-11.8,11.8-11.8c6.5,0,11.8,5.3,11.8,11.8
		C-368.5,304.1-373.8,309.4-380.3,309.4z"/>
</g>
<g id="Layer_5" display="none">
	
		<circle display="inline" fill="none" stroke="#DFDEDE" stroke-width="1.4" stroke-miterlimit="10" cx="-380.3" cy="297.6" r="11.8"/>
</g>
<g id="Layer_3" display="none">
	<g display="inline">
		<g>
			<g>
				<path fill="#8E8E8E" d="M-373,298l-2.1,2.1c-0.1,0.1-0.2,0.2-0.4,0.2c-0.3,0-0.5-0.2-0.5-0.5v-1.1h-3.2v3.2h1.1
					c0.3,0,0.5,0.2,0.5,0.5c0,0.1-0.1,0.3-0.2,0.4l-2.1,2.1c-0.1,0.1-0.2,0.2-0.4,0.2c-0.1,0-0.3-0.1-0.4-0.2l-2.1-2.1
					c-0.1-0.1-0.2-0.2-0.2-0.4c0-0.3,0.2-0.5,0.5-0.5h1.1v-3.2h-3.2v1.1c0,0.3-0.2,0.5-0.5,0.5c-0.1,0-0.3-0.1-0.4-0.2l-2.1-2.1
					c-0.1-0.1-0.2-0.2-0.2-0.4c0-0.1,0.1-0.3,0.2-0.4l2.1-2.1c0.1-0.1,0.2-0.2,0.4-0.2c0.3,0,0.5,0.2,0.5,0.5v1.1h3.2v-3.2h-1.1
					c-0.3,0-0.5-0.2-0.5-0.5c0-0.1,0.1-0.3,0.2-0.4l2.1-2.1c0.1-0.1,0.2-0.2,0.4-0.2c0.1,0,0.3,0.1,0.4,0.2l2.1,2.1
					c0.1,0.1,0.2,0.2,0.2,0.4c0,0.3-0.2,0.5-0.5,0.5h-1.1v3.2h3.2v-1.1c0-0.3,0.2-0.5,0.5-0.5c0.1,0,0.3,0.1,0.4,0.2l2.1,2.1
					c0.1,0.1,0.2,0.2,0.2,0.4C-372.9,297.7-372.9,297.9-373,298z"/>
			</g>
		</g>
	</g>
</g>
<g id="Layer_7">
	<g>
		<g>
			<g>
				<g>
					<g>
						<path fill="#8E8E8E" d="M-376.8,296.6h-7c-0.3,0-0.5-0.2-0.5-0.5c0-0.1,0.1-0.3,0.1-0.4l3.5-3.5c0.1-0.1,0.2-0.1,0.4-0.1
							c0.1,0,0.3,0.1,0.4,0.1l3.5,3.5c0.1,0.1,0.1,0.2,0.1,0.4C-376.3,296.4-376.5,296.6-376.8,296.6z M-376.5,299.5l-3.5,3.5
							c-0.1,0.1-0.2,0.1-0.4,0.1s-0.3-0.1-0.4-0.1l-3.5-3.5c-0.1-0.1-0.1-0.2-0.1-0.4c0-0.3,0.2-0.5,0.5-0.5h7
							c0.3,0,0.5,0.2,0.5,0.5C-376.3,299.2-376.4,299.4-376.5,299.5z"/>
					</g>
				</g>
			</g>
		</g>
	</g>
</g>
</svg>
