<?xml version="1.0" encoding="utf-8"?>
<!-- Generator: Adobe Illustrator 18.1.1, SVG Export Plug-In . SVG Version: 6.00 Build 0)  -->
<svg version="1.1" xmlns="http://www.w3.org/2000/svg" xmlns:xlink="http://www.w3.org/1999/xlink" x="0px" y="0px"
	 viewBox="-400 277.9 39.4 39.4" enable-background="new -400 277.9 39.4 39.4" xml:space="preserve">
<g id="Layer_4">
</g>
<g id="Layer_1" display="none">
	<g id="Layer_2" display="inline">
		<g>
			<g>
				<g>
					<circle fill="#FFFFFF" stroke="#F4F4F4" stroke-width="1.4" stroke-miterlimit="10" cx="-380.3" cy="297.6" r="15.4"/>
				</g>
			</g>
		</g>
	</g>
</g>
<g id="Layer_2_1_" display="none">
	
		<circle display="inline" fill="#F7F7F7" stroke="#DFDEDE" stroke-width="1.4" stroke-miterlimit="10" cx="-380.3" cy="297.6" r="11.8"/>
</g>
<g id="Layer_5" display="none">
	
		<circle display="inline" fill="none" stroke="#DFDEDE" stroke-width="1.4" stroke-miterlimit="10" cx="-380.3" cy="297.6" r="11.8"/>
</g>
<g id="Layer_3">
	<g>
		<g>
			<g>
				<path fill="#939597" d="M-373,298l-2.1,2.1c-0.1,0.1-0.2,0.2-0.4,0.2c-0.3,0-0.5-0.2-0.5-0.5v-1.1h-3.2v3.2h1.1
					c0.3,0,0.5,0.2,0.5,0.5c0,0.1-0.1,0.3-0.2,0.4l-2.1,2.1c-0.1,0.1-0.2,0.2-0.4,0.2c-0.1,0-0.3-0.1-0.4-0.2l-2.1-2.1
					c-0.1-0.1-0.2-0.2-0.2-0.4c0-0.3,0.2-0.5,0.5-0.5h1.1v-3.2h-3.2v1.1c0,0.3-0.2,0.5-0.5,0.5c-0.1,0-0.3-0.1-0.4-0.2l-2.1-2.1
					c-0.1-0.1-0.2-0.2-0.2-0.4c0-0.1,0.1-0.3,0.2-0.4l2.1-2.1c0.1-0.1,0.2-0.2,0.4-0.2c0.3,0,0.5,0.2,0.5,0.5v1.1h3.2v-3.2h-1.1
					c-0.3,0-0.5-0.2-0.5-0.5c0-0.1,0.1-0.3,0.2-0.4l2.1-2.1c0.1-0.1,0.2-0.2,0.4-0.2c0.1,0,0.3,0.1,0.4,0.2l2.1,2.1
					c0.1,0.1,0.2,0.2,0.2,0.4c0,0.3-0.2,0.5-0.5,0.5h-1.1v3.2h3.2v-1.1c0-0.3,0.2-0.5,0.5-0.5c0.1,0,0.3,0.1,0.4,0.2l2.1,2.1
					c0.1,0.1,0.2,0.2,0.2,0.4C-372.9,297.7-372.9,297.9-373,298z"/>
			</g>
		</g>
	</g>
</g>
</svg>
