<?xml version="1.0" encoding="UTF-8" standalone="no"?>
<!-- Created with Inkscape (http://www.inkscape.org/) -->

<svg
   xmlns:dc="http://purl.org/dc/elements/1.1/"
   xmlns:cc="http://creativecommons.org/ns#"
   xmlns:rdf="http://www.w3.org/1999/02/22-rdf-syntax-ns#"
   xmlns:svg="http://www.w3.org/2000/svg"
   xmlns="http://www.w3.org/2000/svg"
   version="1.1"
   width="37.5"
   height="37.5"
   viewBox="0 0 30.000001 29.999999"
   id="svg2985"
   style="fill-rule:evenodd">
  <metadata
     id="metadata2999">
    <rdf:RDF>
      <cc:Work
         rdf:about="">
        <dc:format>image/svg+xml</dc:format>
        <dc:type
           rdf:resource="http://purl.org/dc/dcmitype/StillImage" />
        <dc:title></dc:title>
      </cc:Work>
    </rdf:RDF>
  </metadata>
  <defs
     id="defs2997" />
  <path
     d="m 7.82,13.19 c 1,0 1.82,0.81 1.82,1.81 0,1.01 -0.82,1.82 -1.82,1.82 C 6.82,16.82 6,16.01 6,15 6,14 6.82,13.19 7.82,13.19 z m 14.37,0 c 1,0 1.81,0.81 1.81,1.81 0,1.01 -0.81,1.82 -1.81,1.82 -1,0 -1.82,-0.81 -1.82,-1.82 0,-1 0.82,-1.81 1.82,-1.81 z m -7.19,0 c 1.01,0 1.82,0.81 1.82,1.81 0,1.01 -0.81,1.82 -1.82,1.82 -1,0 -1.81,-0.81 -1.81,-1.82 0,-1 0.81,-1.81 1.81,-1.81 z"
     id="path2993"
     style="fill:#ffffff;stroke:none" />
</svg>
