<?xml version="1.0" encoding="UTF-8" standalone="no"?>
<!-- Created with Inkscape (http://www.inkscape.org/) -->

<svg
   xmlns:dc="http://purl.org/dc/elements/1.1/"
   xmlns:cc="http://creativecommons.org/ns#"
   xmlns:rdf="http://www.w3.org/1999/02/22-rdf-syntax-ns#"
   xmlns:svg="http://www.w3.org/2000/svg"
   xmlns="http://www.w3.org/2000/svg"
   version="1.1"
   width="41.3125"
   height="48"
   viewBox="0 0 33.050002 38.399999"
   id="svg2985"
   style="fill-rule:evenodd">
  <metadata
     id="metadata2997">
    <rdf:RDF>
      <cc:Work
         rdf:about="">
        <dc:format>image/svg+xml</dc:format>
        <dc:type
           rdf:resource="http://purl.org/dc/dcmitype/StillImage" />
        <dc:title></dc:title>
      </cc:Work>
    </rdf:RDF>
  </metadata>
  <defs
     id="defs2995" />
  <path
     d="M 5.0000003,-1.4266409e-6 C 2.2513628,-1.4266409e-6 0,2.239278 0,4.9749988 L 0,33.425 C 0,36.160721 2.2513628,38.4 5.0000003,38.4 l 23.0500007,0 c 2.748637,0 5.000001,-2.239279 5.000001,-4.975 l 0,-28.4500012 c 0,-2.7357208 -2.251364,-4.9750002266409 -5.000001,-4.9750002266409 l -23.0500007,0 z M 3.0000002,2.9749987 l 27.0500018,0 0,31.2000013 c -6.102689,0 -8.963364,-6.076813 -13.525001,0 -4.561098,-6.076813 -7.4223133,0 -13.5250008,0 l 0,-31.2000013 z M 16.525001,10.999999 c -2.307798,2.000358 -5.067201,2.339034 -7.4500005,2.1 0,4.9359 -0.5342153,8.845704 7.4500005,13.050001 7.984214,-4.204297 7.45,-8.114101 7.45,-13.050001 -2.3828,0.239034 -5.141663,-0.09964 -7.45,-2.1 z"
     id="path3038"
     style="fill:#ffffff;stroke:none" />
</svg>
