<?xml version="1.0" encoding="UTF-8" standalone="no"?>
<!-- Created with Inkscape (http://www.inkscape.org/) -->

<svg
   xmlns:dc="http://purl.org/dc/elements/1.1/"
   xmlns:cc="http://creativecommons.org/ns#"
   xmlns:rdf="http://www.w3.org/1999/02/22-rdf-syntax-ns#"
   xmlns:svg="http://www.w3.org/2000/svg"
   xmlns="http://www.w3.org/2000/svg"
   version="1.1"
   width="64"
   height="64"
   viewBox="0 0 64.000002 64.000001"
   id="Layer_1"
   xml:space="preserve"><metadata
   id="metadata19"><rdf:RDF><cc:Work
       rdf:about=""><dc:format>image/svg+xml</dc:format><dc:type
         rdf:resource="http://purl.org/dc/dcmitype/StillImage" /><dc:title></dc:title></cc:Work></rdf:RDF></metadata><defs
   id="defs17" />



<g
   id="g3024"><path
     d="M 60.798324,-1.25e-7 H 3.1995785 C 1.4321615,-1.25e-7 -2.5e-6,1.4322103 -2.5e-6,3.2007334 V 60.799268 c 0,1.768523 1.432164,3.200733 3.199581,3.200733 H 60.799374 c 1.76846,0 3.20063,-1.43221 3.20063,-3.200733 V 3.2007334 C 63.998004,1.4322103 62.566784,-1.25e-7 60.798324,-1.25e-7 z M 30.429542,51.084963 H 16.449447 c -0.04191,0.0021 -0.08381,0.0052 -0.128862,0.0052 -1.943426,0 -3.521215,-1.576793 -3.521215,-3.518187 V 33.492977 c 0,-1.945585 1.577789,-3.521331 3.521215,-3.521331 1.943426,0 3.51912,1.575746 3.51912,3.521331 v 10.550372 h 10.588791 c 1.944473,0 3.520167,1.577841 3.520167,3.519235 10e-4,1.944538 -1.574646,3.522379 -3.51912,3.522379 z M 51.240439,30.280719 c 0,1.942442 -1.575694,3.51714 -3.51912,3.51714 -1.944474,0 -3.518073,-1.575746 -3.518073,-3.51714 V 19.727204 H 33.611314 c -1.942379,0 -3.518074,-1.575746 -3.518074,-3.520283 0,-1.942442 1.575695,-3.519235 3.518074,-3.519235 h 13.980095 c 0.04505,-10e-4 0.08591,-0.0073 0.130958,-0.0073 1.943426,0 3.51912,1.576793 3.51912,3.520283 v 14.080084 l -10e-4,0 z"
     id="path3"
     style="opacity:0.7;fill:#585858" /><g
     transform="matrix(1.047669,0,0,1.0477033,-11.953158,-8.2925814)"
     id="XMLID_5_"
     style="opacity:0.7"><g
       id="g6" /></g><g
     transform="translate(11.932204,8.4067795)"
     id="g3018"><path
       d="m 29.049,42.035 c 1.85,0 3.36,1.51 3.36,3.359 0,1.859 -1.511,3.359 -3.36,3.359 H 15.698 c -0.04,0 -0.08,0.01 -0.12,0.01 -1.859,0 -3.359,-1.51 -3.359,-3.359 v -13.44 c 0,-1.859 1.5,-3.359 3.359,-3.359 1.86,0 3.36,1.5 3.36,3.359 v 10.07 h 10.111 z"
       transform="matrix(1.047669,0,0,1.0477033,-11.953158,-8.2925806)"
       id="path8"
       style="opacity:0.7;fill:#ffffff" /><g
       transform="matrix(1.047669,0,0,1.0477033,-11.953158,-8.2925814)"
       id="XMLID_4_"
       style="opacity:0.7"><g
         id="g11"><path
           d="m 48.909,15.465 v 13.44 c 0,1.85 -1.5,3.359 -3.359,3.359 -1.86,0 -3.36,-1.51 -3.36,-3.359 V 18.835 H 32.08 c -1.85,0 -3.358,-1.51 -3.358,-3.36 0,-1.859 1.51,-3.359 3.358,-3.359 h 13.35 c 0.04,0 0.08,-0.011 0.119,-0.011 1.86,-0.001 3.36,1.499 3.36,3.36 z"
           id="path13"
           style="fill:#ffffff" /></g></g></g></g></svg>