<?xml version="1.0" encoding="UTF-8" standalone="no"?>
<!-- Created with Inkscape (http://www.inkscape.org/) -->

<svg
   xmlns:dc="http://purl.org/dc/elements/1.1/"
   xmlns:cc="http://creativecommons.org/ns#"
   xmlns:rdf="http://www.w3.org/1999/02/22-rdf-syntax-ns#"
   xmlns:svg="http://www.w3.org/2000/svg"
   xmlns="http://www.w3.org/2000/svg"
   version="1.1"
   width="64"
   height="57"
   id="svg2">
  <defs
     id="defs4" />
  <metadata
     id="metadata7">
    <rdf:RDF>
      <cc:Work
         rdf:about="">
        <dc:format>image/svg+xml</dc:format>
        <dc:type
           rdf:resource="http://purl.org/dc/dcmitype/StillImage" />
        <dc:title></dc:title>
      </cc:Work>
    </rdf:RDF>
  </metadata>
  <g
     transform="translate(-411.32336,-715.51202)"
     id="layer1">
    <g
       transform="matrix(304.13274,0,0,190.20031,406.83627,711.01844)"
       id="g2989">
      <path
         d="m 0.03377827,0.32020132 0.17277392,0 c 0.00893,0 0.016695,-0.0118133 0.016695,-0.0267353 0,-0.004974 -7.7651e-4,-0.009326 -0.00233,-0.0136785 l 0,0 -0.0861928,-0.2393738 0,0 c -3.8825e-4,0 -3.8825e-4,-6.2175e-4 -3.8825e-4,-6.2175e-4 l 0,0 0,-6.2175e-4 0,0 c -3.8826e-4,0 -3.8826e-4,0 -3.8826e-4,-6.2175e-4 l 0,0 0,0 -3.8826e-4,-6.2175e-4 c 0,0 0,0 0,0 l 0,-6.2175e-4 c 0,0 -3.8825e-4,0 -3.8825e-4,0 l 0,0 c 0,-6.2175e-4 0,-6.2175e-4 0,-6.2175e-4 l -3.8826e-4,0 0,-6.2175e-4 0,0 c 0,0 -3.8825e-4,0 -3.8825e-4,-6.2175e-4 l 0,0 c 0,0 0,0 0,0 l -3.8826e-4,0 c 0,-6.2175e-4 0,-6.2175e-4 0,-6.2175e-4 l 0,0 -3.8826e-4,-6.2175e-4 0,0 c 0,0 -3.8825e-4,0 -3.8825e-4,0 l 0,-6.2175e-4 0,0 -3.8826e-4,0 c 0,-6.2175e-4 0,-6.2175e-4 0,-6.2175e-4 l -3.8825e-4,0 0,0 0,-6.2175e-4 c 0,0 -3.8826e-4,0 -3.8826e-4,0 l 0,0 c 0,0 -3.8826e-4,-6.2175e-4 -3.8826e-4,-6.2175e-4 l 0,0 c 0,0 0,0 -3.8825e-4,0 l 0,-6.2175e-4 0,0 -3.8826e-4,0 c 0,0 0,0 0,-6.2175e-4 l -3.8825e-4,0 0,0 0,0 c -3.8826e-4,0 -3.8826e-4,0 -3.8826e-4,-6.2175e-4 l 0,0 -3.8826e-4,0 0,0 c -3.8825e-4,0 -3.8825e-4,0 -3.8825e-4,-6.2175e-4 l 0,0 c -3.8826e-4,0 -3.8826e-4,0 -3.8826e-4,0 l 0,0 c -3.8825e-4,0 -3.8825e-4,0 -3.8825e-4,0 l 0,0 c 0,-6.2175e-4 -3.8826e-4,-6.2175e-4 -3.8826e-4,-6.2175e-4 l 0,0 c 0,0 -3.8826e-4,0 -3.8826e-4,0 l 0,0 c 0,0 -3.8825e-4,0 -3.8825e-4,-6.2175e-4 l 0,0 c 0,0 -3.8826e-4,0 -3.8826e-4,0 l 0,0 c 0,0 -3.8825e-4,0 -3.8825e-4,0 l 0,0 c 0,0 -3.8826e-4,0 -3.8826e-4,0 l 0,-6.2175e-4 c -3.8826e-4,0 -3.8826e-4,0 -3.8826e-4,0 l 0,0 c -3.8825e-4,0 -3.8825e-4,0 -3.8825e-4,0 l 0,0 c -3.8826e-4,0 -3.8826e-4,0 -3.8826e-4,0 l 0,0 -0.00233,-6.2175e-4 0,0 0,0 c 0,0 0,0 -3.8826e-4,0 l 0,0 c 0,0 -3.8826e-4,0 -3.8826e-4,0 0,0 -3.8825e-4,0 -3.8825e-4,0 l 0,0 c -3.8826e-4,0 -3.8826e-4,0 -3.8826e-4,0 l 0,0 0,0 c -3.8825e-4,0 -3.8825e-4,0 -3.8825e-4,0 l 0,0 c -3.8826e-4,0 -3.8826e-4,0 -3.8826e-4,0 l 0,0 c -3.8826e-4,0 -3.8826e-4,0 -3.8826e-4,0 l -3.8825e-4,6.2175e-4 c 0,0 0,0 0,0 l -3.8826e-4,0 0,0 c 0,0 0,0 -3.8825e-4,0 l 0,0 c 0,0 0,0 -3.8826e-4,0 l 0,0 c 0,0 0,0 -3.8826e-4,0 l 0,0 -3.8825e-4,0 0,6.2175e-4 c 0,0 0,0 -3.8826e-4,0 l 0,0 c 0,0 0,0 -3.8825e-4,0 l 0,0 c 0,0 0,0 -3.8826e-4,0 l 0,0 c 0,6.2175e-4 0,6.2175e-4 -3.8826e-4,6.2175e-4 l 0,0 c 0,0 0,0 -3.8825e-4,0 l 0,0 c 0,0 0,0 -3.8826e-4,6.2175e-4 l 0,0 c 0,0 0,0 -3.8825e-4,0 l 0,0 -3.8826e-4,0 0,0 c 0,6.2175e-4 0,6.2175e-4 -3.8826e-4,6.2175e-4 l 0,0 0,0 -3.8825e-4,0 c 0,6.2175e-4 0,6.2175e-4 0,6.2175e-4 l -3.8826e-4,0 c 0,0 0,0 0,0 l -3.8825e-4,0 c 0,6.2175e-4 0,6.2175e-4 0,6.2175e-4 l 0,0 c -3.8826e-4,0 -3.8826e-4,0 -3.8826e-4,0 l 0,6.2175e-4 c -3.8826e-4,0 -3.8826e-4,0 -3.8826e-4,0 l 0,0 c 0,0 -3.8825e-4,6.2175e-4 -3.8825e-4,6.2175e-4 l 0,0 c 0,0 0,0 -3.8826e-4,0 l 0,6.2175e-4 0,0 -3.8825e-4,0 c 0,0 0,0 0,6.2175e-4 l -3.8826e-4,0 0,0 0,6.2175e-4 c 0,0 -3.8826e-4,0 -3.8826e-4,0 l 0,0 0,6.2175e-4 -3.8825e-4,0 c 0,0 0,0 0,6.2175e-4 l 0,0 c -3.8826e-4,0 -3.8826e-4,0 -3.8826e-4,0 l 0,0 c 0,6.2175e-4 -3.8825e-4,6.2175e-4 -3.8825e-4,6.2175e-4 l 0,0 0,6.2175e-4 -3.8826e-4,0 c 0,0 0,0 0,6.2175e-4 l 0,0 -3.8826e-4,0 0,6.2175e-4 c 0,0 0,0 0,0 l 0,6.2175e-4 -3.8825e-4,0 0,0 c 0,6.2175e-4 0,6.2175e-4 0,6.2175e-4 l -3.8826e-4,0 0,6.2175e-4 0,0 c 0,0 0,6.2175e-4 -3.8825e-4,6.2175e-4 l 0,0 -0.08619284,0.2393738 0,0 c -0.001553,0.004352 -0.0023295,0.008705 -0.0023295,0.0136785 0,0.014922 0.0077651,0.0267353 0.01708326,0.0267353 z"
         id="path2991"
         style="fill:#ff0000;fill-opacity:1;fill-rule:evenodd;stroke:none" />
      <path
         d="m 0.03377827,0.31709257 0.17277392,0 c 0.003883,0 0.007765,-0.002487 0.0104829,-0.006839 0.002718,-0.004352 0.004271,-0.0105697 0.004271,-0.0167873 0,-0.002487 -3.8826e-4,-0.004352 -3.8826e-4,-0.006217 -3.8825e-4,-0.001865 -0.001165,-0.00373 -0.001553,-0.005596 0,0 0,0 0,-6.2175e-4 l -0.0865811,-0.2393738 0,0 0,0 0,0 0,0 0,0 0,0 0,0 -3.8825e-4,-6.2175e-4 0,0 0,0 0,0 0,-6.2175e-4 0,0 0,0 -3.8826e-4,-6.2175e-4 0,0 0,0 0,0 0,0 0,0 0,0 0,0 0,-6.2175e-4 -3.8826e-4,0 0,0 0,0 c 0,0 0,0 0,0 l 0,0 0,-6.2175e-4 0,0 0,0 -3.8825e-4,0 0,0 0,0 0,0 0,-6.2175e-4 0,0 0,0 0,0 -3.8826e-4,0 0,0 0,0 0,0 0,-6.2175e-4 0,0 0,0 0,0 -3.8825e-4,0 0,0 0,-6.2175e-4 0,0 -3.8826e-4,0 0,0 0,0 0,0 0,-6.2175e-4 0,0 0,0 c 0,0 -3.8826e-4,0 -3.8826e-4,0 l 0,0 0,0 0,0 0,0 -3.8825e-4,-6.2175e-4 0,0 0,0 0,0 c 0,-6.2175e-4 0,-6.2175e-4 0,-6.2175e-4 l 0,0 -3.8826e-4,0 0,0 0,0 0,0 0,0 0,0 -3.8825e-4,-6.2175e-4 0,0 0,0 0,0 0,0 0,0 0,0 0,0 -3.8826e-4,0 0,0 0,0 0,-6.2175e-4 0,0 0,0 -3.8826e-4,0 0,0 0,0 0,0 0,0 0,0 0,0 -3.8825e-4,-6.2175e-4 0,0 0,0 0,0 0,0 0,0 -3.8826e-4,0 0,0 0,0 0,0 0,-6.2175e-4 0,0 -3.8825e-4,0 c 0,0 0,0 0,0 l 0,0 0,0 0,0 0,0 0,0 0,0 -3.8826e-4,0 c 0,0 0,0 0,0 l 0,0 -3.8826e-4,-6.2175e-4 0,0 0,0 0,0 0,0 0,0 -3.8825e-4,0 c 0,0 0,0 0,0 l 0,0 0,0 -3.8826e-4,0 0,0 0,0 0,0 0,-6.2175e-4 c 0,0 0,0 -3.8825e-4,0 l 0,0 0,0 c 0,0 0,0 0,0 l 0,0 -3.8826e-4,0 0,0 0,0 0,0 0,0 0,0 -3.8826e-4,0 c 0,0 0,0 0,0 l 0,0 0,0 0,-6.2175e-4 0,0 -3.8825e-4,0 0,0 0,0 0,0 0,0 0,0 c -3.8826e-4,0 -3.8826e-4,0 -3.8826e-4,0 l 0,0 0,0 0,0 0,0 0,0 -3.8825e-4,0 c 0,0 0,0 0,0 l 0,0 -0.001941,-6.2175e-4 c 0,0 0,0 0,0 l 0,0 -3.8826e-4,0 0,0 0,0 0,0 0,0 -3.8826e-4,0 0,0 0,0 0,0 -3.8825e-4,0 0,0 0,0 0,0 0,0 0,0 -3.8826e-4,0 0,0 0,0 0,0 0,0 0,0 0,0 0,0 0,0 -3.8825e-4,0 0,0 0,0 0,0 0,0 c -3.8826e-4,0 -3.8826e-4,0 -3.8826e-4,0 l 0,0 0,0 0,0 0,0 -3.8826e-4,6.2175e-4 c 0,0 0,0 0,0 l 0,0 0,0 -3.8825e-4,0 c 0,0 0,0 0,0 l 0,0 0,0 0,0 -3.8826e-4,0 c 0,0 0,0 0,0 l 0,0 0,0 -3.8825e-4,0 0,0 0,0 0,0 0,0 0,0 0,0 -3.8826e-4,0 c 0,0 0,0 0,0 l 0,0 0,0 -3.8826e-4,0 0,6.2175e-4 0,0 0,0 0,0 0,0 -3.8825e-4,0 c 0,0 0,0 0,0 l 0,0 0,0 0,0 0,0 0,0 -3.8826e-4,0 0,0 0,0 0,0 0,0 c 0,0 -3.8825e-4,0 -3.8825e-4,0 l 0,0 0,0 0,6.2175e-4 0,0 0,0 -3.8826e-4,0 0,0 0,0 0,0 0,0 0,0 -3.8826e-4,0 0,0 0,0 0,0 c 0,0 0,6.2175e-4 -3.8825e-4,6.2175e-4 l 0,0 0,0 0,0 0,0 -3.8826e-4,0 0,0 0,0 c 0,0 0,0 0,0 l 0,0 0,0 -3.8825e-4,0 0,0 0,6.2175e-4 0,0 0,0 0,0 -3.8826e-4,0 0,0 0,0 0,0 0,0 0,0 -3.8826e-4,6.2175e-4 0,0 0,0 0,0 0,0 0,0 -3.8825e-4,0 0,0 0,0 c 0,0 0,0 0,6.2175e-4 l 0,0 0,0 0,0 0,0 -3.8826e-4,0 0,0 0,0 0,0 0,0 0,6.2175e-4 -3.8825e-4,0 0,0 0,0 0,0 0,0 0,0 0,0 -3.8826e-4,0 0,0 0,0 0,6.2175e-4 0,0 0,0 0,0 0,0 -3.8826e-4,6.2175e-4 0,0 0,0 0,0 -3.8825e-4,0 0,0 0,0 0,0 0,6.2175e-4 0,0 0,0 0,0 0,0 -3.8826e-4,0 0,0 0,6.2175e-4 0,0 -3.8825e-4,0 0,0 0,0 0,0 0,6.2175e-4 0,0 0,0 0,0 -3.8826e-4,0 0,0 0,0 0,6.2175e-4 0,0 0,0 0,0 c 0,0 -3.8826e-4,0 -3.8826e-4,0 l 0,0 0,6.2175e-4 0,0 0,0 0,0 0,0 -3.8825e-4,0 0,0 0,6.2175e-4 0,0 0,0 0,0 0,0 0,0 0,0 0,0 -3.8826e-4,6.2175e-4 0,0 0,0 0,0 0,6.2175e-4 0,0 0,0 0,0 0,0 0,0 -3.8825e-4,6.2175e-4 0,0 0,0 0,0 0,0 0,0 0,0 0,6.2175e-4 -0.08619284,0.23875205 c -3.8825e-4,6.2175e-4 -3.8825e-4,6.2175e-4 -3.8825e-4,6.2175e-4 -3.8826e-4,0.001865 -0.0011648,0.003731 -0.0011648,0.005596 -3.8826e-4,0.001865 -7.7651e-4,0.003731 -7.7651e-4,0.006217 0,0.006218 0.0019413,0.012435 0.0042708,0.0167873 0.0027178,0.004352 0.0066004,0.006839 0.01087117,0.006839 z m 0.17277392,0.006217 -0.17277392,0 c -0.0054356,0 -0.01009465,-0.003109 -0.01358896,-0.008705 -0.003106,-0.005596 -0.0054356,-0.0130568 -0.0054356,-0.0211395 0,-0.002487 3.8825e-4,-0.005596 7.7651e-4,-0.008083 3.8826e-4,-0.002487 7.7651e-4,-0.004974 0.0019413,-0.006839 l 0,0 0.08619283,-0.23999555 0,0 0,0 0,0 0,0 3.8826e-4,0 0,-6.2175e-4 0,0 0,0 0,0 0,0 0,-6.2175e-4 0,0 0,0 0,0 c 0,0 0,0 3.8825e-4,0 l 0,0 c 0,0 0,0 0,0 l 0,-6.2175e-4 0,0 0,0 0,0 0,0 3.8826e-4,-6.2175e-4 0,0 0,0 0,0 c 0,0 0,0 0,0 l 0,0 c 0,0 0,0 0,0 l 0,-6.2175e-4 0,0 0,0 3.8826e-4,0 0,0 0,0 0,0 c 0,0 0,0 0,0 l 0,-6.2175e-4 0,0 0,0 3.8825e-4,0 0,0 0,0 0,0 c 0,0 0,0 0,0 l 0,-6.2175e-4 0,0 0,0 0,0 c 0,0 0,0 3.8826e-4,0 l 0,-6.2175e-4 0,0 0,0 0,0 0,0 0,0 0,0 0,0 0,0 3.8825e-4,-6.2175e-4 0,0 0,0 0,0 0,0 0,0 0,0 0,0 0,0 3.8826e-4,-6.2175e-4 0,0 0,0 0,0 0,0 0,0 3.8826e-4,0 0,-6.2175e-4 0,0 0,0 0,0 0,0 3.8825e-4,0 0,0 0,-6.2175e-4 0,0 0,0 0,0 c 0,0 0,0 0,0 l 3.8826e-4,-6.2175e-4 0,0 0,0 0,0 c 0,0 0,0 0,0 l 3.8825e-4,0 0,0 0,0 0,0 c 0,-6.2175e-4 0,-6.2175e-4 0,-6.2175e-4 l 0,0 c 0,0 3.8826e-4,0 3.8826e-4,0 l 0,0 0,0 0,0 0,0 c 0,0 0,0 0,0 l 0,0 3.8826e-4,-6.2175e-4 0,0 0,0 0,0 0,0 0,0 0,0 0,0 0,0 3.8825e-4,-6.2175e-4 0,0 0,0 0,0 0,0 0,0 0,0 c 3.8826e-4,0 3.8826e-4,0 3.8826e-4,0 l 0,0 0,0 0,0 0,-6.2175e-4 0,0 0,0 3.8825e-4,0 0,0 0,0 c 0,0 0,0 0,0 l 3.8826e-4,0 0,0 0,0 0,-6.2175e-4 0,0 0,0 0,0 c 0,0 0,0 0,0 l 3.8826e-4,0 0,0 0,0 0,0 0,0 0,0 3.8825e-4,0 0,0 0,0 0,-6.2175e-4 0,0 0,0 0,0 c 0,0 0,0 3.8826e-4,0 l 0,0 0,0 0,0 0,0 3.8825e-4,-6.2176e-4 0,0 0,0 0,0 0,0 0,0 c 0,0 3.8826e-4,0 3.8826e-4,0 l 0,0 0,0 0,0 0,0 0,0 3.8826e-4,0 0,0 0,0 0,-6.2174e-4 c 0,0 0,0 0,0 l 3.8825e-4,0 0,0 0,0 0,0 0,0 c 0,0 0,0 3.8826e-4,0 l 0,0 0,0 0,0 0,0 c 0,0 0,0 0,0 l 3.8825e-4,0 0,0 0,0 0,-6.2175e-4 0,0 0,0 3.8826e-4,0 0,0 0,0 0,0 0,0 c 0,0 3.8826e-4,0 3.8826e-4,0 l 0,0 0,0 0,0 0,0 0,0 3.8825e-4,0 c 0,0 0,0 0,0 l 0,0 0,0 0,0 3.8826e-4,-6.2176e-4 c 0,0 0,0 0,0 l 0,0 0,0 0,0 0,0 c 3.8825e-4,0 3.8825e-4,0 3.8825e-4,0 l 0,0 c 0,0 0,0 0,0 l 0,0 3.8826e-4,0 0,0 0,0 0,0 c 0,0 3.8826e-4,0 3.8826e-4,0 l 0,0 0,0 0,0 0,0 3.8825e-4,0 0,0 0,0 0,0 0,0 0,0 0,0 3.8826e-4,0 c 0,-6.2174e-4 0,-6.2174e-4 0,-6.2174e-4 l 3.8825e-4,0 0,0 0,0 0,0 0,0 0,0 0,0 c 0,0 3.8826e-4,0 3.8826e-4,0 l 0,0 0,0 0,0 0,0 0,0 0,0 3.8826e-4,0 0,0 0,0 0,0 c 0,0 3.8825e-4,0 3.8825e-4,0 l 0,0 0,0 0,0 0,0 0,0 0,0 3.8826e-4,0 0,0 0,0 0,0 0,0 0,0 0,0 0,0 3.8825e-4,0 0,0 0,0 0,0 0,0 3.8826e-4,0 0,0 0,0 0,0 0,0 3.8826e-4,0 0,0 0,0 0,0 0,0 0,0 0,0 c 0,0 3.8825e-4,0 3.8825e-4,0 l 0.001941,6.2174e-4 0,0 c 0,0 0,0 0,0 l 3.8826e-4,0 0,0 0,0 c 0,0 0,0 0,0 l 3.8825e-4,0 0,0 0,0 0,0 0,0 0,0 0,0 0,0 c 3.8826e-4,0 3.8826e-4,0 3.8826e-4,0 l 0,0 0,0 3.8826e-4,0 0,0 0,0 0,6.2176e-4 0,0 0,0 0,0 3.8825e-4,0 0,0 0,0 0,0 c 0,0 0,0 0,0 l 0,0 0,0 0,0 3.8826e-4,0 0,0 0,0 0,0 0,0 0,0 3.8825e-4,0 0,0 0,0 0,0 c 0,6.2175e-4 0,6.2175e-4 0,6.2175e-4 l 3.8826e-4,0 0,0 0,0 0,0 c 0,0 0,0 0,0 l 0,0 0,0 3.8826e-4,0 0,0 0,0 0,0 0,0 0,0 3.8825e-4,0 0,0 c 0,0 0,0 0,6.2174e-4 l 3.8826e-4,0 0,0 0,0 c 0,0 0,0 0,0 l 0,0 0,0 0,0 3.8825e-4,0 c 0,0 0,0 0,0 l 0,0 c 0,0 0,0 0,0 l 3.8826e-4,6.2176e-4 0,0 0,0 0,0 0,0 0,0 3.8826e-4,0 0,0 0,0 0,0 c 0,0 0,0 0,0 l 0,0 0,6.2175e-4 3.8825e-4,0 0,0 0,0 0,0 3.8826e-4,0 0,0 0,0 0,0 0,0 0,6.2175e-4 0,0 3.8825e-4,0 0,0 0,0 0,0 0,0 0,0 0,0 3.8826e-4,0 0,6.2175e-4 c 0,0 0,0 0,0 l 0,0 0,0 0,0 3.8826e-4,0 c 0,0 0,0 0,0 l 0,0 c 0,0 0,0 0,0 l 3.8825e-4,6.2175e-4 0,0 0,0 0,0 0,0 0,0 0,0 0,0 0,0 c 0,0 0,0 3.8826e-4,0 l 0,6.2175e-4 0,0 c 0,0 0,0 0,0 l 0,0 0,0 0,0 3.8825e-4,0 0,0 0,0 0,0 c 0,0 0,6.2175e-4 0,6.2175e-4 l 3.8826e-4,0 0,0 0,0 0,0 c 0,0 0,0 0,0 l 3.8826e-4,6.2175e-4 0,0 0,0 0,0 0,0 0,0 0,0 c 0,0 0,0 0,6.2175e-4 l 3.8825e-4,0 0,0 0,0 0,0 0,0 0,0 0,0 0,0 0,0 3.8826e-4,6.2175e-4 0,0 0,0 0,0 0,0 0,0 0,0 3.8825e-4,6.2175e-4 0,0 0,0 0,0 0,0 0,0 3.8826e-4,6.2175e-4 0,0 0,0 0,0 0,0 0,0 3.8826e-4,6.2175e-4 0,0 0,0 0,0 0,0 0,6.2175e-4 0,0 0,0 0,0 c 0,0 0,0 3.8825e-4,0 l 0,0 c 0,0 0,0 0,0 l 0,6.2175e-4 0,0 c 0,0 0,0 0,0 l 0,0 0,0 3.8826e-4,0 0,0 0,6.2175e-4 0,0 0,0 0,0 0,0 0,0 0,0 c 0,0 0,0 3.8825e-4,0 l 0,0 0,6.2175e-4 0,0 0,0 0,0 0,6.2175e-4 0,0 0,0 3.8826e-4,0 0,0 0,0 0,0 0,0 c 0,0 0,6.2175e-4 0,6.2175e-4 l 0,0 0,0 0,0 3.8826e-4,6.2175e-4 0,0 0,0 0,0 0,0 0,0 0,0 0,0 0,0 0.0861928,0.2393738 c 0,6.2175e-4 3.8825e-4,6.2175e-4 3.8825e-4,6.2175e-4 7.7652e-4,0.002487 0.001165,0.004352 0.001553,0.006839 3.8825e-4,0.002487 7.7651e-4,0.005596 7.7651e-4,0.008083 0,0.008083 -0.001941,0.0155438 -0.005436,0.0211395 -0.003494,0.005596 -0.008153,0.008705 -0.0132007,0.008705 z m -0.0741569,-0.28227456 0,0 0,0"
         id="path2993"
         style="fill:#000000;fill-opacity:1;fill-rule:nonzero;stroke:none" />
      <path
         d="m 0.05513235,0.29657481 0.12967751,0 c 0.006989,0 0.0128124,-0.009326 0.0128124,-0.0205178 0,-0.003731 -7.7651e-4,-0.006839 -0.001553,-0.009948 l 0,0 -0.065227,-0.18030754 0,0 c 0,0 0,-6.2175e-4 0,-6.2175e-4 l 0,0 0,0 -3.8825e-4,0 c 0,-6.2175e-4 0,-6.2175e-4 0,-6.2175e-4 l 0,0 0,-6.2175e-4 0,0 c -3.8826e-4,0 -3.8826e-4,0 -3.8826e-4,0 l 0,0 c 0,-6.2175e-4 0,-6.2175e-4 0,-6.2175e-4 l 0,0 c 0,0 -3.8826e-4,0 -3.8826e-4,-6.2175e-4 l 0,0 0,0 0,0 c 0,0 -3.8825e-4,-6.2175e-4 -3.8825e-4,-6.2175e-4 l 0,0 c 0,0 0,0 0,0 l 0,0 c -3.8826e-4,-6.2175e-4 -3.8826e-4,-6.2175e-4 -3.8826e-4,-6.2175e-4 l 0,0 0,0 -3.8825e-4,-6.2175e-4 c 0,0 0,0 0,0 l 0,0 0,0 -3.8826e-4,-6.2175e-4 c 0,0 0,0 0,0 l 0,0 -3.8826e-4,0 0,-6.2175e-4 c 0,0 0,0 0,0 l -3.8825e-4,0 c 0,0 0,0 0,0 l 0,0 c 0,-6.2175e-4 0,-6.2175e-4 -3.8826e-4,-6.2175e-4 l 0,0 0,0 0,0 c -3.8825e-4,0 -3.8825e-4,-6.2175e-4 -3.8825e-4,-6.2175e-4 l 0,0 -3.8826e-4,0 0,0 c 0,0 0,0 0,-6.2175e-4 l -3.8826e-4,0 0,0 0,0 c 0,0 -3.8825e-4,0 -3.8825e-4,0 l 0,0 c 0,0 0,0 0,-6.2175e-4 l -3.8826e-4,0 c 0,0 0,0 0,0 l 0,0 c -3.8825e-4,0 -3.8825e-4,0 -3.8825e-4,0 l 0,0 c 0,0 -3.8826e-4,0 -3.8826e-4,0 l 0,-6.2175e-4 c 0,0 0,0 0,0 l -3.8826e-4,0 c 0,0 0,0 0,0 l 0,0 c -3.8825e-4,0 -3.8825e-4,0 -3.8825e-4,0 l 0,0 c 0,0 -3.8826e-4,0 -3.8826e-4,0 l 0,0 c 0,-6.2175e-4 0,-6.2175e-4 0,-6.2175e-4 l -3.8825e-4,0 c 0,0 0,0 0,0 l 0,0 c -3.8826e-4,0 -3.8826e-4,0 -3.8826e-4,0 l 0,0 -0.001553,0 0,0 0,0 c -3.8826e-4,0 -3.8826e-4,0 -3.8826e-4,0 l 0,0 c 0,0 -3.8826e-4,0 -3.8826e-4,0 0,0 0,0 -3.8825e-4,0 l 0,0 c 0,0 0,0 -3.8826e-4,0 l 0,0 0,0 c 0,0 0,0 0,0 l -3.8825e-4,0 c 0,0 0,0 0,0 l 0,0 c -3.8826e-4,0 -3.8826e-4,0 -3.8826e-4,0 l 0,0 c 0,0 -3.8826e-4,0 -3.8826e-4,0 l 0,0 0,0 c 0,0 0,0 -3.8825e-4,0 l 0,0 c 0,0 0,0 0,0 l -3.8826e-4,0 c 0,0 0,0 0,0 l 0,0 -3.8825e-4,6.2175e-4 0,0 c 0,0 -3.8826e-4,0 -3.8826e-4,0 l 0,0 c 0,0 0,0 -3.8826e-4,0 l 0,0 c 0,0 0,0 0,0 l -3.8825e-4,0 c 0,0 0,0 0,0 l 0,6.2175e-4 c 0,0 -3.8826e-4,0 -3.8826e-4,0 l 0,0 c 0,0 0,0 -3.8825e-4,0 l 0,0 c 0,0 0,0 0,0 l -3.8826e-4,0 0,6.2175e-4 0,0 c 0,0 -3.8826e-4,0 -3.8826e-4,0 l 0,0 0,0 -3.8825e-4,0 c 0,6.2175e-4 0,6.2175e-4 0,6.2175e-4 l 0,0 c 0,0 -3.8826e-4,0 -3.8826e-4,0 l 0,0 c 0,0 0,6.2175e-4 0,6.2175e-4 l -3.8825e-4,0 c 0,0 0,0 0,0 l 0,0 c 0,0 -3.8826e-4,0 -3.8826e-4,6.2175e-4 l 0,0 c 0,0 0,0 0,0 l -3.8826e-4,0 c 0,0 0,0 0,0 l 0,6.2175e-4 -3.8825e-4,0 0,0 c 0,0 0,0 0,0 l 0,6.2175e-4 -3.8826e-4,0 0,0 c 0,0 0,0 0,0 l -3.8825e-4,6.2175e-4 0,0 0,0 c 0,0 0,0 -3.8826e-4,6.2175e-4 l 0,0 c 0,0 0,0 0,0 l 0,0 c 0,0 0,6.2175e-4 -3.8826e-4,6.2175e-4 l 0,0 0,0 0,0 c 0,6.2175e-4 0,6.2175e-4 -3.8825e-4,6.2175e-4 l 0,0 0,6.2175e-4 0,0 c 0,0 0,0 -3.8826e-4,0 l 0,0 0,6.2175e-4 0,0 c 0,0 0,0 0,6.2175e-4 l -3.8825e-4,0 0,0 0,0 c 0,0 0,6.2175e-4 0,6.2175e-4 l 0,0 -0.06522701,0.18030754 0,0 c -7.7651e-4,0.003109 -0.001553,0.006217 -0.001553,0.009948 0,0.0111915 0.0058238,0.0205178 0.01281245,0.0205178 z"
         id="path2995"
         style="fill:#ffffff;fill-opacity:1;fill-rule:evenodd;stroke:none" />
      <path
         d="m 0.1199711,0.24621305 c 0.005824,0 0.0104829,0.007461 0.0104829,0.0167873 0,0.009326 -0.004659,0.0167873 -0.0104829,0.0167873 -0.005824,0 -0.0104829,-0.007461 -0.0104829,-0.0167873 0,-0.009326 0.004659,-0.0167873 0.0104829,-0.0167873 z m 0,-0.12559352 c 0.005047,0 0.00893,0.006217 0.00893,0.0143002 0,6.2175e-4 0,0.001244 0,0.002487 l -0.004271,0.09948 -0.009318,0 -0.004271,-0.09948 c 0,-0.001244 0,-0.001865 0,-0.002487 0,-0.008083 0.003883,-0.0143002 0.00893,-0.0143002 z"
         id="path2997"
         style="fill:#000000;fill-opacity:1;fill-rule:evenodd;stroke:none" />
    </g>
  </g>
</svg>
