<?xml version="1.0" encoding="UTF-8" standalone="no"?>
<!-- Created with Inkscape (http://www.inkscape.org/) -->

<svg
   xmlns:dc="http://purl.org/dc/elements/1.1/"
   xmlns:cc="http://creativecommons.org/ns#"
   xmlns:rdf="http://www.w3.org/1999/02/22-rdf-syntax-ns#"
   xmlns:svg="http://www.w3.org/2000/svg"
   xmlns="http://www.w3.org/2000/svg"
   version="1.1"
   width="40"
   height="40"
   id="svg2">
  <defs
     id="defs4" />
  <metadata
     id="metadata7">
    <rdf:RDF>
      <cc:Work
         rdf:about="">
        <dc:format>image/svg+xml</dc:format>
        <dc:type
           rdf:resource="http://purl.org/dc/dcmitype/StillImage" />
        <dc:title></dc:title>
      </cc:Work>
    </rdf:RDF>
  </metadata>
  <g
     transform="translate(-144.0329,-715.81148)"
     id="layer1">
    <path
       d="m 164.0329,746.06094 c -0.71111,0 -1.4,-0.0667 -2.06667,-0.20556 l -9.93333,0 c -0.57778,0 -1.04445,-0.4667 -1.04445,-1.04451 l 0,-17.99877 c 0,-0.57559 0.46667,-1.04173 1.04445,-1.04173 l 9.93333,0 c 0.66667,-0.13667 1.35556,-0.20834 2.06667,-0.20834 0.70555,0 1.39444,0.0717 2.06111,0.20834 l 9.93889,0 c 0.57222,0 1.03889,0.46614 1.03889,1.04173 l 0,17.99877 c 0,0.57781 -0.46667,1.04451 -1.03889,1.04451 l -9.93889,0 c -0.66667,0.13889 -1.35556,0.20556 -2.06111,0.20556 z m -6.46111,-2.28901 c -2.31111,-1.87789 -3.78889,-4.74693 -3.78889,-7.95933 0,-3.21241 1.47778,-6.07923 3.78889,-7.95878 l -4.5,0 0,15.91811 4.5,0 z m 12.91666,-15.91811 c 2.31112,1.87955 3.79445,4.74637 3.79445,7.95878 0,3.2124 -1.48333,6.08144 -3.79445,7.95933 l 4.5,0 0,-15.91811 -4.5,0 z m -3.9,9.6572 c 0.37778,-0.57725 1.15,-0.73893 1.72778,-0.36168 0.57778,0.37779 0.73889,1.15173 0.36111,1.72898 -0.50555,0.77671 -1.20555,1.42119 -2.03333,1.86788 -0.79444,0.43114 -1.7,0.6756 -2.66111,0.6756 -1.55,0 -2.95,-0.62948 -3.96667,-1.64398 -1.01111,-1.01451 -1.63889,-2.41681 -1.63889,-3.96522 0,-1.54842 0.62778,-2.95072 1.63889,-3.96523 1.01667,-1.01505 2.41667,-1.64286 3.96667,-1.64286 0.96111,0 1.86667,0.24445 2.66111,0.67448 0.82778,0.44669 1.52778,1.09117 2.03333,1.86788 0.37778,0.57725 0.21667,1.35119 -0.36111,1.72843 -0.57778,0.3778 -1.35,0.21612 -1.72778,-0.36113 -0.28333,-0.43447 -0.67222,-0.79282 -1.12222,-1.03784 -0.43889,-0.23668 -0.94444,-0.37113 -1.48333,-0.37113 -0.85556,0 -1.63333,0.3478 -2.19445,0.9095 -0.56666,0.56225 -0.91111,1.33951 -0.91111,2.1979 0,0.85838 0.34445,1.63564 0.91111,2.19734 0.56112,0.56225 1.33889,0.91005 2.19445,0.91005 0.53889,0 1.04444,-0.13445 1.48333,-0.37113 0.45,-0.24557 0.83889,-0.60337 1.12222,-1.03784 z M 156.2829,735.8126 c 0,4.28023 3.46667,7.7482 7.75,7.7482 4.27778,0 7.75,-3.46797 7.75,-7.7482 0,-4.28024 -3.47222,-7.75044 -7.75,-7.75044 -4.28333,0 -7.75,3.4702 -7.75,7.75044 z"
       id="path2993"
       style="fill:#ffffff;fill-rule:evenodd;stroke:none" />
  </g>
</svg>
