<?xml version="1.0" encoding="UTF-8" standalone="no"?>
<!-- Created with Inkscape (http://www.inkscape.org/) -->

<svg
   xmlns:dc="http://purl.org/dc/elements/1.1/"
   xmlns:cc="http://creativecommons.org/ns#"
   xmlns:rdf="http://www.w3.org/1999/02/22-rdf-syntax-ns#"
   xmlns:svg="http://www.w3.org/2000/svg"
   xmlns="http://www.w3.org/2000/svg"
   version="1.1"
   width="23"
   height="23"
   viewBox="0 0 18.400001 18.399999"
   id="svg3080"
   style="fill-rule:evenodd">
  <metadata
     id="metadata3092">
    <rdf:RDF>
      <cc:Work
         rdf:about="">
        <dc:format>image/svg+xml</dc:format>
        <dc:type
           rdf:resource="http://purl.org/dc/dcmitype/StillImage" />
        <dc:title></dc:title>
      </cc:Work>
    </rdf:RDF>
  </metadata>
  <defs
     id="defs3090" />
  <g
     transform="matrix(1.0666667,0,0,1.0670069,-1324.096,-549.08152)"
     id="g3082"
     style="fill:#ffffff">
    <g
       id="g3084"
       style="fill:#ffffff">
      <path
         d="m 1241.67,516.52 c -0.44,-0.439 -0.44,-1.152 0,-1.591 0.44,-0.439 1.15,-0.439 1.59,0 l 6.71,6.702 6.7,-6.702 c 0.44,-0.439 1.15,-0.439 1.59,0 0.44,0.439 0.44,1.152 0,1.591 l -6.7,6.702 6.7,6.703 c 0.44,0.439 0.44,1.151 0,1.59 -0.44,0.439 -1.15,0.439 -1.59,0 l -6.7,-6.702 -6.71,6.702 c -0.44,0.439 -1.15,0.439 -1.59,0 -0.44,-0.439 -0.44,-1.151 0,-1.59 l 6.7,-6.703 -6.7,-6.702 z"
         id="path3086"
         style="fill:#ffffff;stroke:none" />
    </g>
  </g>
</svg>
