<?xml version="1.0" encoding="UTF-8" standalone="no"?>
<!-- Created with Inkscape (http://www.inkscape.org/) -->

<svg
   xmlns:dc="http://purl.org/dc/elements/1.1/"
   xmlns:cc="http://creativecommons.org/ns#"
   xmlns:rdf="http://www.w3.org/1999/02/22-rdf-syntax-ns#"
   xmlns:svg="http://www.w3.org/2000/svg"
   xmlns="http://www.w3.org/2000/svg"
   version="1.1"
   width="63.999996"
   height="63.999748"
   viewBox="0 0 51.199999 51.199796"
   id="svg3094"
   style="fill-rule:evenodd">
  <metadata
     id="metadata3112">
    <rdf:RDF>
      <cc:Work
         rdf:about="">
        <dc:format>image/svg+xml</dc:format>
        <dc:type
           rdf:resource="http://purl.org/dc/dcmitype/StillImage" />
        <dc:title></dc:title>
      </cc:Work>
    </rdf:RDF>
  </metadata>
  <defs
     id="defs3110" />
  <path
     d="m 51.2,2.7567839 0,45.6861601 c 0,0.75723 -0.3151,1.4462 -0.8087,1.94507 l 0,0.002 c -0.5041,0.49887 -1.1868,0.80975 -1.943,0.80975 l -45.6861,0 c -0.7667,0 -1.4494,-0.31088 -1.9535,-0.80975 l 0,-0.002 C 0.3151,49.889144 0,49.200174 0,48.442944 L 0,2.7567839 c 0,-0.75828 0.3151,-1.44725 0.8087,-1.94612 l 0,-0.002 C 1.3128,0.3097839 1.9955,-3.6104906e-5 2.7622,-3.6104906e-5 l 45.6861,0 c 0.7562,0 1.4389,0.309820004906 1.943,0.808700004906 l 0,0.002 c 0.4936,0.49887 0.8087,1.18784 0.8087,1.94612 z M 16.1109,35.812554 c 0,-6.80881 0,-13.61762 0,-20.42643 6.8057,3.40388 13.6219,6.80881 20.4275,10.21269 -6.8056,3.40493 -13.6218,6.80986 -20.4275,10.21374 z m 34.3014,12.63039 0,-45.6861601 c 0,-0.54193 -0.2205,-1.0345 -0.5776,-1.39159 l 0,-10e-4 c -0.3571,-0.35604 -0.8507,-0.57659 -1.3864,-0.57659 l -45.6861,0 c -0.5462,0 -1.0398,0.22055 -1.3969,0.57659 l 0,10e-4 c -0.3571,0.35709 -0.5776,0.84966 -0.5776,1.39159 l 0,45.6861601 c 0,0.54088 0.2205,1.03345 0.5776,1.39054 l 0,0.001 c 0.3571,0.35603 0.8507,0.57764 1.3969,0.57764 l 45.6861,0 c 0.5357,0 1.0293,-0.22161 1.3864,-0.57764 l 0,-0.001 c 0.3571,-0.35709 0.5776,-0.84966 0.5776,-1.39054 z"
     id="path3106"
     style="fill:#ffffff;stroke:none" />
</svg>
