<?xml version="1.0" encoding="utf-8"?>
<!-- Generator: Adobe Illustrator 18.1.1, SVG Export Plug-In . SVG Version: 6.00 Build 0)  -->
<svg version="1.1" xmlns="http://www.w3.org/2000/svg" xmlns:xlink="http://www.w3.org/1999/xlink" x="0px" y="0px" width="100px"
	 height="100px" viewBox="-247 370.9 100 100" enable-background="new -247 370.9 100 100" xml:space="preserve">
<g id="Layer_2_1_" display="none">
	<polyline display="inline" fill="#585858" points="-247,370.9 -247,420.9 -297,420.9 -297,370.9 	"/>
	<rect x="-297" y="420.9" display="inline" fill="#585858" width="50" height="50"/>
</g>
<g id="Layer_1">
	<g id="Layer_2" display="none">
		<rect x="-220.3" y="358.4" display="inline" stroke="#FFFFFF" stroke-miterlimit="10" width="147" height="112.8"/>
	</g>
	<g id="Layer_1_1_" display="none">
		
			<!-- image display="inline" overflow="visible" enable-background="new    " width="200" height="200" xlink:href="2C8DBF30.png"  transform="matrix(1 0 0 1 -272 295.89)" -->
		</image>
	</g>
	<path fill="#585858" d="M-129.5,801.5L-99,832l-30.4,30.4c-4.3,4.3-4.3,11.3,0,15.6c4.3,4.3,11.3,4.3,15.6,0l38.2-38.2
		c4.3-4.3,4.3-11.3,0-15.6c-0.1-0.1-0.2-0.2-0.3-0.3l-38-38c-2.1-2.1-5-3.2-7.8-3.2c-2.8,0-5.6,1.1-7.8,3.2
		C-133.8,790.2-133.8,797.2-129.5,801.5z"/>
	<path fill="#585858" d="M-310.6,705.1c0,5.5-4.5,10-10,10h-180c-5.5,0-10-4.5-10-10v-180c0-5.5,4.5-10,10-10h180
		c5.5,0,10,4.5,10,10V705.1z"/>
	<g>
		<path fill="#585858" d="M126.7,385.8h-149c-4.6,0-8.3,3.7-8.3,8.3v149c0,4.6,3.7,8.3,8.3,8.3h149c4.6,0,8.3-3.7,8.3-8.3v-149
			C135,389.5,131.3,385.8,126.7,385.8z M42.3,487.9L8.7,521.6h16.6c3.7,0,6.6,3,6.6,6.6c0,3.7-3,6.6-6.6,6.6H-7.1
			c-0.1,0-0.2,0-0.2,0c-3.7,0-6.6-3-6.6-6.6v-32.5c0-3.7,3-6.6,6.6-6.6c3.7,0,6.6,3,6.6,6.6v16.6L33,478.5c2.6-2.6,6.8-2.6,9.4,0
			c1.3,1.3,1.9,3,1.9,4.7C44.3,484.9,43.6,486.6,42.3,487.9z M118.6,441.6c0,3.7-3,6.6-6.6,6.6c-3.7,0-6.6-3-6.6-6.6v-16.6
			l-33.7,33.7c-2.6,2.6-6.8,2.6-9.4,0c-1.3-1.3-1.9-3-1.9-4.7c0-1.7,0.6-3.4,1.9-4.7l33.7-33.7H79.4c-3.7,0-6.6-3-6.6-6.6
			c0-3.7,3-6.6,6.6-6.6h32.3c0.1,0,0.2,0,0.2,0c3.7,0,6.6,3,6.6,6.6V441.6z"/>
		<path fill="#585858" d="M123.7,576.5h-149c-4.6,0-8.3,3.7-8.3,8.3v149c0,4.6,3.7,8.3,8.3,8.3h149c4.6,0,8.3-3.7,8.3-8.3v-149
			C132,580.2,128.3,576.5,123.7,576.5z M45.1,708.7H9c-0.1,0-0.2,0-0.3,0c-5,0-9.1-4.1-9.1-9.1v-36.4c0-5,4.1-9.1,9.1-9.1
			c5,0,9.1,4.1,9.1,9.1v27.3h27.4c5,0,9.1,4.1,9.1,9.1C54.2,704.6,50.2,708.7,45.1,708.7z M99,654.9c0,5-4.1,9.1-9.1,9.1
			c-5,0-9.1-4.1-9.1-9.1v-27.3H53.3c-5,0-9.1-4.1-9.1-9.1c0-5,4.1-9.1,9.1-9.1h36.2c0.1,0,0.2,0,0.3,0c5,0,9.1,4.1,9.1,9.1V654.9z"
			/>
		<path fill="#585858" d="M126.7,903.5h-149c-4.6,0-8.3,3.7-8.3,8.3v149c0,4.6,3.7,8.3,8.3,8.3h149c4.6,0,8.3-3.7,8.3-8.3v-149
			C135,907.2,131.3,903.5,126.7,903.5z M49.9,1020.6c-4.1,4.1-10.7,4.1-14.8,0c-4.1-4.1-4.1-10.7,0-14.8l22.2-22.2L35,961.4
			c-4.1-4.1-4.1-10.7,0-14.8c4.1-4.1,10.7-4.1,14.8,0L79.2,976c0.1,0.1,0.2,0.2,0.3,0.3c4.1,4.1,4.1,10.7,0,14.8L49.9,1020.6z"/>
		<g>
			<path fill="#585858" d="M534.1,576.5h-149c-4.6,0-8.3,3.7-8.3,8.3v149c0,4.6,3.7,8.3,8.3,8.3h149c4.6,0,8.3-3.7,8.3-8.3v-149
				C542.4,580.2,538.6,576.5,534.1,576.5z M502.8,673.4h-33v30.5c0,5.9-4.8,10.8-10.8,10.8c-5.9,0-10.8-4.8-10.8-10.8v-30.5h-32.9
				c-5.9,0-10.8-4.8-10.8-10.8c0-5.9,4.8-10.8,10.8-10.8h32.9v-32.1c0-5.9,4.8-10.8,10.8-10.8c5.9,0,10.8,4.8,10.8,10.8v32.1h33
				c5.9,0,10.8,4.8,10.8,10.8C513.6,668.6,508.7,673.4,502.8,673.4z"/>
		</g>
		<path fill="#585858" d="M328.9,576.5h-149c-4.6,0-8.3,3.7-8.3,8.3v149c0,4.6,3.7,8.3,8.3,8.3h149c4.6,0,8.3-3.7,8.3-8.3v-149
			C337.2,580.2,333.4,576.5,328.9,576.5z M297.6,673.4h-87.4c-5.9,0-10.8-4.8-10.8-10.8c0-5.9,4.8-10.8,10.8-10.8h87.4
			c5.9,0,10.8,4.8,10.8,10.8C308.4,668.6,303.5,673.4,297.6,673.4z"/>
		<g>
			<polygon fill="#585858" points="-204.9,614.6 -204.9,692.4 -105.5,692.4 -105.5,692.4 -105.5,614.6 			"/>
			<path fill="#585858" d="M-81.5,576.5h-149c-4.6,0-8.3,3.7-8.3,8.3v149c0,4.6,3.7,8.3,8.3,8.3h149c4.6,0,8.3-3.7,8.3-8.3v-149
				C-73.2,580.2-76.9,576.5-81.5,576.5z M-89,692.4c0,9.1-7.4,16.6-16.6,16.6h-3v11.7h-94.4V709h-2c-9.1,0-16.6-7.4-16.6-16.6v-77.8
				c0-9.1,7.4-16.6,16.6-16.6h99.3c9.1,0,16.6,7.4,16.6,16.6V692.4z"/>
		</g>
	</g>
	<path fill="#D9D9D9" d="M-231.1,397.4c-1.2-1.2-1.2-3.2,0-4.5c0,0,0.1-0.1,0.1-0.1l8.8-8.8c1.2-1.2,3.2-1.2,4.5,0
		c1.2,1.2,1.2,3.2,0,4.5l-6.7,6.7l6.7,6.7c1.2,1.2,1.2,3.2,0,4.5c-1.2,1.2-3.2,1.2-4.5,0L-231.1,397.4z"/>
	<path fill="#D9D9D9" d="M-171.9,406.3c-1.2,1.2-3.2,1.2-4.5,0c-1.2-1.2-1.2-3.2,0-4.5l6.7-6.7l-6.7-6.7c-1.2-1.2-1.2-3.2,0-4.5
		c1.2-1.2,3.2-1.2,4.5,0l8.8,8.8c0,0,0.1,0.1,0.1,0.1c1.2,1.2,1.2,3.2,0,4.5L-171.9,406.3z"/>
	<path fill="#D9D9D9" stroke="#D9D9D9" stroke-miterlimit="10" d="M-231.1,447.4c-1.2-1.2-1.2-3.2,0-4.5c0,0,0.1-0.1,0.1-0.1
		l8.8-8.8c1.2-1.2,3.2-1.2,4.5,0c1.2,1.2,1.2,3.2,0,4.5l-6.7,6.7l6.7,6.7c1.2,1.2,1.2,3.2,0,4.5c-1.2,1.2-3.2,1.2-4.5,0
		L-231.1,447.4z"/>
	<path fill="#D9D9D9" stroke="#D9D9D9" stroke-miterlimit="10" d="M-171.9,456.3c-1.2,1.2-3.2,1.2-4.5,0c-1.2-1.2-1.2-3.2,0-4.5
		l6.7-6.7l-6.7-6.7c-1.2-1.2-1.2-3.2,0-4.5c1.2-1.2,3.2-1.2,4.5,0l8.8,8.8c0,0,0.1,0.1,0.1,0.1c1.2,1.2,1.2,3.2,0,4.5L-171.9,456.3z
		"/>
</g>
</svg>
