<?xml version="1.0" encoding="UTF-8" standalone="no"?>
<!-- Created with Inkscape (http://www.inkscape.org/) -->

<svg
   xmlns:dc="http://purl.org/dc/elements/1.1/"
   xmlns:cc="http://creativecommons.org/ns#"
   xmlns:rdf="http://www.w3.org/1999/02/22-rdf-syntax-ns#"
   xmlns:svg="http://www.w3.org/2000/svg"
   xmlns="http://www.w3.org/2000/svg"
   version="1.1"
   width="64"
   height="64"
   viewBox="0 0 51.200002 51.199998"
   id="svg2985"
   style="fill-rule:evenodd">
  <metadata
     id="metadata2999">
    <rdf:RDF>
      <cc:Work
         rdf:about="">
        <dc:format>image/svg+xml</dc:format>
        <dc:type
           rdf:resource="http://purl.org/dc/dcmitype/StillImage" />
        <dc:title></dc:title>
      </cc:Work>
    </rdf:RDF>
  </metadata>
  <defs
     id="defs2997" />
  <path
     d="M 25.599998,51.199965 C 11.469831,51.199965 -3.7105e-6,39.73013 -3.7105e-6,25.599964 -3.7105e-6,11.469797 11.469831,-3.8043e-5 25.599998,-3.8043e-5 39.730164,-3.8043e-5 51.2,11.469797 51.2,25.599964 51.2,39.73013 39.730164,51.199965 25.599998,51.199965 z"
     id="path2991"
     style="fill:#000000;fill-opacity:0.49803922;stroke:none" />
  <path
     d="m 27.258051,14.138403 c -0.642328,0 -1.163637,-0.521309 -1.163637,-1.163636 0,-0.642327 0.521309,-1.163637 1.163637,-1.163637 4.044283,0 8.087531,0 12.13078,0 0,4.043249 0,8.087532 0,12.130781 0,0.642327 -0.521309,1.163636 -1.162602,1.163636 -0.643362,0 -1.163636,-0.521309 -1.163636,-1.163636 l 0,-8.157867 -21.279549,21.278514 8.158901,0 c 0.642328,0 1.162602,0.521309 1.162602,1.163637 0,0.642327 -0.520274,1.163636 -1.162602,1.163636 -4.044283,0 -8.087532,0 -12.13078,0 0,-4.044283 0,-8.087532 0,-12.13078 0,-0.643362 0.521309,-1.163637 1.162602,-1.163637 0.643361,0 1.163636,0.520275 1.163636,1.163637 l 0,8.157867 21.279549,-21.278515 -8.158901,0 z"
     id="path2993"
     style="fill:#ffffff;stroke:none" />
</svg>
