<?xml version="1.0" encoding="UTF-8" standalone="no"?>
<!-- Created with Inkscape (http://www.inkscape.org/) -->

<svg
   xmlns:dc="http://purl.org/dc/elements/1.1/"
   xmlns:cc="http://creativecommons.org/ns#"
   xmlns:rdf="http://www.w3.org/1999/02/22-rdf-syntax-ns#"
   xmlns:svg="http://www.w3.org/2000/svg"
   xmlns="http://www.w3.org/2000/svg"
   version="1.1"
   width="64"
   height="63.799999"
   id="svg3149">
  <defs
     id="defs3151" />
  <metadata
     id="metadata3154">
    <rdf:RDF>
      <cc:Work
         rdf:about="">
        <dc:format>image/svg+xml</dc:format>
        <dc:type
           rdf:resource="http://purl.org/dc/dcmitype/StillImage" />
        <dc:title></dc:title>
      </cc:Work>
    </rdf:RDF>
  </metadata>
  <g
     transform="translate(-434.07688,-495.6847)"
     id="layer1">
    <path
       d="m 442.80416,495.4847 46.54544,0 c 4.80065,0 8.72728,3.92791 8.72728,8.72727 l 0,46.54675 c 0,4.80194 -3.92404,8.72598 -8.72728,8.72598 l -46.54544,0 c -4.79935,0 -8.72728,-3.92663 -8.72728,-8.72598 l 0,-46.54675 c 0,-4.79677 3.92921,-8.72727 8.72728,-8.72727 z m 32.93091,23.05681 c -0.5676,-0.5689 -0.5676,-1.48946 0,-2.05706 0.56758,-0.56759 1.48816,-0.56759 2.05575,0 3.57495,3.57366 7.14861,7.14861 10.72226,10.72227 -3.57365,3.57365 -7.14731,7.1486 -10.72226,10.72227 -0.56759,0.56758 -1.48817,0.56758 -2.05575,0 -0.5676,-0.5676 -0.5676,-1.48947 0,-2.05705 l 7.21066,-7.21068 -37.61649,0 c -0.80291,0 -1.45455,-0.65164 -1.45455,-1.45454 0,-0.80421 0.65164,-1.45455 1.45455,-1.45455 l 37.61649,0 -7.21066,-7.21066 z m 13.61453,-21.11742 -46.54545,0 c -3.73527,0 -6.78787,3.05261 -6.78787,6.78788 l 0,46.54675 c 0,3.73269 3.05389,6.78658 6.78788,6.78658 l 46.54544,0 c 3.7314,0 6.78789,-3.05648 6.78789,-6.78658 l 0,-46.54675 c 0,-3.73268 -3.0539,-6.78788 -6.78789,-6.78788 z"
       id="path2993"
       style="fill:#ffffff;stroke:none" />
  </g>
</svg>
