<?xml version="1.0" encoding="utf-8"?>
<!-- Generator: Adobe Illustrator 18.1.1, SVG Export Plug-In . SVG Version: 6.00 Build 0)  -->
<svg version="1.1" baseProfile="tiny" xmlns="http://www.w3.org/2000/svg" xmlns:xlink="http://www.w3.org/1999/xlink" x="0px"
	 y="0px" width="64px" height="64px" viewBox="0 0 64 64" xml:space="preserve">
<g id="Layer_1" display="none">
	<path id="path3013" display="inline" fill="#FFFFFF" d="M40.664,35.611c0.568,0.568,1.489,0.568,2.057,0
		c0.568-0.568,0.568-1.489,0-2.057L31.999,22.832L21.277,33.554c-0.568,0.568-0.568,1.489,0,2.057c0.568,0.568,1.489,0.568,2.057,0
		l8.665-8.665L40.664,35.611z"/>
</g>
<g id="Layer_2" display="none">
	<g id="layer1" transform="translate(-342.99987,-500.56218)" display="inline">
		<path id="path3013_1_" fill="#FFFFFF" d="M380.61,541.026c0.568,0.568,0.568,1.489,0,2.057c-0.568,0.568-1.489,0.568-2.057,0
			l-10.722-10.722l10.722-10.722c0.568-0.568,1.489-0.568,2.057,0c0.568,0.568,0.568,1.489,0,2.057l-8.665,8.665L380.61,541.026z"/>
	</g>
</g>
<g id="Layer_3">
	<g id="layer1_1_" transform="translate(-400.9969,-571.29508)">
		<path id="path3019" fill="#FFFFFF" d="M427.387,594.431c-0.568-0.568-0.568-1.488,0-2.056s1.489-0.568,2.057,0l10.722,10.722
			l-10.722,10.722c-0.568,0.568-1.489,0.568-2.057,0s-0.568-1.489,0-2.057l8.665-8.665L427.387,594.431z"/>
	</g>
</g>
<g id="Layer_4" display="none">
	<g id="layer1_2_" transform="translate(-341.90377,-489.88637)" display="inline">
		<path id="path3001" fill="#FFFFFF" d="M362.221,534.259v-25.146l25.146,12.572L362.221,534.259z"/>
	</g>
</g>
<g id="Layer_5" display="none">
	<g id="layer1_3_" transform="translate(-307.45027,-538.01031)" display="inline">
		<path id="path3009" fill="#FFFFFF" d="M343.019,557.71c2.674,0,5.348,0,8.021,0c0,7.789,0,15.576,0,23.363
			c-2.674,0-5.348,0-8.021,0C343.019,573.286,343.019,565.498,343.019,557.71z M327.677,557.71c2.674,0,5.348,0,8.021,0v23.363
			c-2.674,0-5.348,0-8.021,0V557.71z"/>
	</g>
</g>
<g id="Layer_6" display="none">
	<g id="layer1_4_" transform="translate(-378.76767,-538.46283)" display="inline">
		<path id="path3031" fill="#FFFFFF" d="M395.426,566.7c1.968,0,3.562,1.594,3.562,3.562s-1.594,3.562-3.562,3.562
			s-3.562-1.594-3.562-3.562S393.458,566.7,395.426,566.7z M426.107,566.7c1.967,0,3.562,1.594,3.562,3.562
			s-1.595,3.562-3.562,3.562c-1.968,0-3.563-1.594-3.563-3.562S424.139,566.7,426.107,566.7z M410.766,566.7
			c1.967,0,3.562,1.594,3.562,3.562s-1.595,3.562-3.562,3.562c-1.968,0-3.563-1.594-3.563-3.562S408.798,566.7,410.766,566.7z"/>
	</g>
</g>
</svg>
