<?xml version="1.0" encoding="UTF-8" standalone="no"?>
<!-- Created with Inkscape (http://www.inkscape.org/) -->

<svg
   xmlns:dc="http://purl.org/dc/elements/1.1/"
   xmlns:cc="http://creativecommons.org/ns#"
   xmlns:rdf="http://www.w3.org/1999/02/22-rdf-syntax-ns#"
   xmlns:svg="http://www.w3.org/2000/svg"
   xmlns="http://www.w3.org/2000/svg"
   xmlns:xlink="http://www.w3.org/1999/xlink"
   version="1.1"
   width="100"
   height="100"
   viewBox="-247 370.9 100 100"
   id="svg2"
   xml:space="preserve"><metadata
   id="metadata52"><rdf:RDF><cc:Work
       rdf:about=""><dc:format>image/svg+xml</dc:format><dc:type
         rdf:resource="http://purl.org/dc/dcmitype/StillImage" /><dc:title></dc:title></cc:Work></rdf:RDF></metadata><defs
   id="defs50">
	
	
	
	
	
	
	
	
	
</defs>
<g
   id="Layer_2_1_"
   style="display:none">
	<polyline
   display="inline"
   points="-247,370.9 -247,420.9 -297,420.9 -297,370.9  "
   id="polyline5"
   style="fill:#585858;display:inline" />
	<rect
   width="50"
   height="50"
   x="-297"
   y="420.89999"
   id="rect7"
   style="fill:#585858;display:inline" />
</g>
<g
   id="Layer_2"
   style="display:none">
		<rect
   width="147"
   height="112.8"
   x="-220.3"
   y="358.39999"
   id="rect11"
   style="stroke:#ffffff;stroke-miterlimit:10;display:inline" />
	</g><g
   id="Layer_1_1_"
   style="display:none">
		
			<!-- image
   xlink:href="2C8DBF30.png"
   style="display:inline;overflow:visible"
   id="image14"
   transform="translate(-272,295.89)"
   height="200"
   width="200" / -->
	</g><g
   id="g2999"><rect
     width="50"
     height="50"
     x="-249.39999"
     y="370.20001"
     id="rect2993"
     style="fill:#ffffff;fill-rule:evenodd;stroke:none" /><path
     d="m -233.21578,398.09474 c -1.57895,-1.57894 -1.57895,-4.21052 0,-5.92105 0,0 0.13158,-0.13158 0.13158,-0.13158 l 11.57895,-11.57894 c 1.57894,-1.57895 4.21052,-1.57895 5.92105,0 1.57895,1.57894 1.57895,4.21052 0,5.92105 l -8.81579,8.81579 8.81579,8.81579 c 1.57895,1.57894 1.57895,4.21052 0,5.92105 -1.57895,1.57895 -4.21053,1.57895 -5.92105,0 l -11.71053,-11.84211 z"
     id="path40"
     style="fill:#585858;fill-opacity:1" /></g><g
   id="g2995"><rect
     width="50"
     height="50"
     x="-194.7"
     y="370.10001"
     id="rect3763"
     style="fill:#ffffff;fill-rule:evenodd;stroke:none" /><path
     d="m -172.59474,409.83685 c -1.57894,1.57895 -4.21052,1.57895 -5.92105,0 -1.57895,-1.57895 -1.57895,-4.21053 0,-5.92105 l 8.81579,-8.81579 -8.81579,-8.81579 c -1.57895,-1.57895 -1.57895,-4.21053 0,-5.92105 1.57895,-1.57895 4.21053,-1.57895 5.92105,0 l 11.57895,11.57894 c 0,0 0.13158,0.13158 0.13158,0.13158 1.57895,1.57895 1.57895,4.21053 0,5.92105 l -11.71053,11.84211 z"
     id="path42"
     style="fill:#585858;fill-opacity:1" /></g>
</svg>