<?xml version="1.0" encoding="UTF-8" standalone="no"?>
<!-- Created with Inkscape (http://www.inkscape.org/) -->

<svg
   xmlns:dc="http://purl.org/dc/elements/1.1/"
   xmlns:cc="http://creativecommons.org/ns#"
   xmlns:rdf="http://www.w3.org/1999/02/22-rdf-syntax-ns#"
   xmlns:svg="http://www.w3.org/2000/svg"
   xmlns="http://www.w3.org/2000/svg"
   version="1.1"
   width="64.000626"
   height="63.999874"
   viewBox="0 0 51.200503 51.199897"
   id="svg3094"
   style="fill-rule:evenodd">
  <metadata
     id="metadata3112">
    <rdf:RDF>
      <cc:Work
         rdf:about="">
        <dc:format>image/svg+xml</dc:format>
        <dc:type
           rdf:resource="http://purl.org/dc/dcmitype/StillImage" />
        <dc:title></dc:title>
      </cc:Work>
    </rdf:RDF>
  </metadata>
  <defs
     id="defs3110" />
  <path
     d="m 51.2005,2.7568339 0,45.6861601 c 0,0.75723 -0.3151,1.4462 -0.8087,1.94612 l -0.011,10e-4 c -0.4936,0.49887 -1.1868,0.80975 -1.943,0.80975 l -45.6861,0 c -0.7562,0 -1.4494,-0.31088 -1.943,-0.80975 l 0,-10e-4 C 0.3046,49.889194 0,49.200224 0,48.442994 L 0,2.7568339 c 0,-0.75723 0.3046,-1.44725 0.8087,-1.94612 l 0,-0.001 C 1.3023,0.3108339 1.9955,-3.6104905e-5 2.7517,-3.6104905e-5 l 45.6861,0 c 0.7562,0 1.4494,0.310870004905 1.943,0.809750004905 l 0.011,0.001 c 0.4936,0.49887 0.8087,1.18889 0.8087,1.94612 z M 16.1114,16.110844 c 6.3226,0 12.6451,0 18.9782,0 0,6.3257 0,12.65244 0,18.97814 -6.3331,0 -12.6556,0 -18.9782,0 0,-6.3257 0,-12.65244 0,-18.97814 z m 34.3014,32.33215 0,-45.6861601 c 0,-0.54193 -0.2205,-1.0345 -0.5776,-1.39054 l 0,-0.002 c -0.3571,-0.35499 -0.8507,-0.57659 -1.3969,-0.57659 l -45.6861,0 c -0.5357,0 -1.0293,0.2216 -1.3864,0.57659 l 0,0.002 c -0.3571,0.35604 -0.5776,0.84861 -0.5776,1.39054 l 0,45.6861601 c 0,0.54088 0.2205,1.03345 0.5776,1.39054 l 0,10e-4 c 0.3571,0.35603 0.8507,0.57764 1.3864,0.57764 l 45.6861,0 c 0.5462,0 1.0398,-0.22161 1.3969,-0.57764 l 0,-10e-4 c 0.3571,-0.35709 0.5776,-0.84966 0.5776,-1.39054 z"
     id="path3100"
     style="fill:#ffffff;stroke:none" />
</svg>
