<?xml version="1.0" encoding="UTF-8" standalone="no"?>
<!-- Created with Inkscape (http://www.inkscape.org/) -->

<svg
   xmlns:dc="http://purl.org/dc/elements/1.1/"
   xmlns:cc="http://creativecommons.org/ns#"
   xmlns:rdf="http://www.w3.org/1999/02/22-rdf-syntax-ns#"
   xmlns:svg="http://www.w3.org/2000/svg"
   xmlns="http://www.w3.org/2000/svg"
   version="1.1"
   width="63.999962"
   height="63.999874"
   viewBox="0 0 51.199971 51.199897"
   id="svg3094"
   style="fill-rule:evenodd">
  <metadata
     id="metadata3112">
    <rdf:RDF>
      <cc:Work
         rdf:about="">
        <dc:format>image/svg+xml</dc:format>
        <dc:type
           rdf:resource="http://purl.org/dc/dcmitype/StillImage" />
        <dc:title></dc:title>
      </cc:Work>
    </rdf:RDF>
  </metadata>
  <defs
     id="defs3110" />
  <path
     d="m 51.19997,2.7568339 0,45.6861601 c 0,0.75723 -0.3109,1.4462 -0.8098,1.94612 l -10e-4,10e-4 c -0.4999,0.49887 -1.1889,0.80975 -1.9462,0.80975 l -45.6861,0 c -0.75723,0 -1.44725,-0.31088 -1.94612,-0.80975 l -0.001,-10e-4 C 0.31088,49.889194 0,49.200224 0,48.442994 L 0,2.7568339 c 0,-0.75723 0.31088,-1.4462 0.80975,-1.94612 l 0.001,-0.001 C 1.30962,0.3108339 1.99964,-3.6104905e-5 2.75687,-3.6104905e-5 l 45.6861,0 c 0.7573,0 1.4463,0.310870004905 1.9462,0.809750004905 l 10e-4,0.001 c 0.4989,0.49992 0.8098,1.18889 0.8098,1.94612 z M 13.13865,22.706454 c 1.59849,0 2.89346,1.29497 2.89346,2.89346 0,1.59849 -1.29497,2.89346 -2.89346,2.89346 -1.59849,0 -2.89345,-1.29497 -2.89345,-2.89346 0,-1.59849 1.29496,-2.89346 2.89345,-2.89346 z m 24.92258,0 c 1.59744,0 2.89345,1.29497 2.89345,2.89346 0,1.59849 -1.29601,2.89346 -2.89345,2.89346 -1.59849,0 -2.89451,-1.29497 -2.89451,-2.89346 0,-1.59849 1.29602,-2.89346 2.89451,-2.89346 z m -12.46129,0 c 1.59744,0 2.89346,1.29497 2.89346,2.89346 0,1.59849 -1.29602,2.89346 -2.89346,2.89346 -1.59849,0 -2.89345,-1.29497 -2.89345,-2.89346 0,-1.59849 1.29496,-2.89346 2.89345,-2.89346 z m 24.81233,25.73654 0,-45.6861601 c 0,-0.54088 -0.2216,-1.0345 -0.5766,-1.39054 l 0,-0.002 c -0.3561,-0.35499 -0.8497,-0.57659 -1.3906,-0.57659 l -45.6861,0 c -0.54088,0 -1.0345,0.2216 -1.39054,0.57659 l -0.002,0.002 c -0.35498,0.35604 -0.57659,0.84966 -0.57659,1.39054 l 0,45.6861601 c 0,0.54088 0.22161,1.0345 0.57659,1.39054 l 0.002,0.002 c 0.35604,0.35498 0.84966,0.57659 1.39054,0.57659 l 45.6861,0 c 0.5409,0 1.0345,-0.22161 1.3906,-0.57659 l 0,-0.002 c 0.355,-0.35604 0.5766,-0.84966 0.5766,-1.39054 z"
     id="path3102"
     style="fill:#ffffff;stroke:none" />
</svg>
