<?xml version="1.0" encoding="UTF-8" standalone="no"?>
<!-- Created with Inkscape (http://www.inkscape.org/) -->

<svg
   xmlns:dc="http://purl.org/dc/elements/1.1/"
   xmlns:cc="http://creativecommons.org/ns#"
   xmlns:rdf="http://www.w3.org/1999/02/22-rdf-syntax-ns#"
   xmlns:svg="http://www.w3.org/2000/svg"
   xmlns="http://www.w3.org/2000/svg"
   version="1.1"
   width="128"
   height="64"
   viewBox="0 0 102.4 51.199998"
   id="svg2985"
   style="fill-rule:evenodd">
  <metadata
     id="metadata3005">
    <rdf:RDF>
      <cc:Work
         rdf:about="">
        <dc:format>image/svg+xml</dc:format>
        <dc:type
           rdf:resource="http://purl.org/dc/dcmitype/StillImage" />
        <dc:title></dc:title>
      </cc:Work>
    </rdf:RDF>
  </metadata>
  <defs
     id="defs3003" />
  <path
     d="m 76.948347,0.399999 c -6.958892,0 -13.256913,2.8225378 -17.817187,7.3828124 -4.560275,4.5597526 -7.382813,10.8588186 -7.382813,17.8171866 0,6.958371 2.822538,13.256904 7.382813,17.817188 4.560274,4.560275 10.858295,7.382813 17.817187,7.382813 6.958373,0 13.256916,-2.822538 17.817186,-7.382813 4.560272,-4.560284 7.382807,-10.858817 7.382807,-17.817188 0,-6.958368 -2.822535,-13.257433 -7.382807,-17.8171867 C 90.205263,3.2225367 83.90672,0.399999 76.948347,0.399999 z m 0,0.7874999 c 6.739889,0 12.834446,2.744605 17.251171,7.1613281 4.417253,4.417265 7.161332,10.510762 7.161332,17.251171 0,6.739878 -2.744079,12.834439 -7.161332,17.251172 -4.416725,4.417254 -10.511282,7.161329 -17.251171,7.161329 -6.7404,0 -12.834439,-2.744075 -17.251172,-7.161329 -4.416732,-4.416733 -7.161328,-10.511294 -7.161328,-17.251172 0,-6.740409 2.744596,-12.833906 7.161328,-17.2511711 4.416733,-4.4167231 10.510772,-7.161328 17.251172,-7.161328 z m -5.857031,14.5687501 0,19.687499 17.029687,-9.84375 -17.029687,-9.843749 z"
     id="path2999"
     style="fill:#ffffff;stroke:none" />
  <path
     d="m 25.2,0.399999 c 13.909324,0 25.2,11.290676 25.2,25.2 0,13.909864 -11.290676,25.2 -25.2,25.2 -13.909864,0 -25.2,-11.290136 -25.2,-25.2 0,-13.909324 11.290136,-25.2 25.2,-25.2 z"
     id="path2993"
     style="fill:#000000;fill-opacity:0.49803922;stroke:none" />
  <path
     d="m 36.95665,25.599962 -17.30024,9.988298 0,-19.976596 z"
     id="path3816"
     style="color:#000000;fill:#ffffff;fill-opacity:1;fill-rule:nonzero;stroke:none;stroke-width:1;marker:none;visibility:visible;display:inline;overflow:visible;enable-background:accumulate" />
</svg>
