<?xml version="1.0" encoding="UTF-8" standalone="no"?>
<!-- Created with Inkscape (http://www.inkscape.org/) -->

<svg
   xmlns:dc="http://purl.org/dc/elements/1.1/"
   xmlns:cc="http://creativecommons.org/ns#"
   xmlns:rdf="http://www.w3.org/1999/02/22-rdf-syntax-ns#"
   xmlns:svg="http://www.w3.org/2000/svg"
   xmlns="http://www.w3.org/2000/svg"
   version="1.1"
   width="48"
   height="96"
   viewBox="0 0 38.400001 76.799997"
   id="svg2985"
   style="fill-rule:evenodd">
  <metadata
     id="metadata3013">
    <rdf:RDF>
      <cc:Work
         rdf:about="">
        <dc:format>image/svg+xml</dc:format>
        <dc:type
           rdf:resource="http://purl.org/dc/dcmitype/StillImage" />
        <dc:title></dc:title>
      </cc:Work>
    </rdf:RDF>
  </metadata>
  <defs
     id="defs3011" />
  <g
     transform="matrix(1.5,0,0,1.5,0,5.2657358e-5)"
     id="g3056">
    <g
       id="g3048">
      <g
         id="g3041">
        <g
           id="g3035">
          <path
             d="m 0.0069,-3.6104905e-5 0,25.598420104905 0,25.59843 25.5931,0 0,-25.59843 0,-25.598420104905 -25.5931,0 z"
             id="path2993"
             style="fill:none;stroke:none" />
          <path
             d="m 12.80051,51.199964 c -3.53468,0 -6.73505,-1.4326 -9.05101,-3.74864 C 1.43354,45.135274 0,41.933764 0,38.399964 c 0,-3.5348 1.43354,-6.73531 3.7495,-9.05135 2.31596,-2.31605 5.51633,-3.74865 9.05101,-3.74865 3.53366,0 6.73404,1.4326 9.051,3.74865 2.31595,2.31604 3.74849,5.51655 3.74849,9.05135 0,3.5338 -1.43254,6.73531 -3.74849,9.05136 -2.31696,2.31604 -5.51734,3.74864 -9.051,3.74864 z m -7.98589,-4.81381 c 2.04391,2.04399 4.86682,3.30793 7.98589,3.30793 3.11805,0 5.94197,-1.26394 7.98587,-3.30793 2.04391,-2.04398 3.30779,-4.868 3.30779,-7.98619 0,-3.11918 -1.26388,-5.94221 -3.30779,-7.9862 -2.0439,-2.04398 -4.86782,-3.30792 -7.98587,-3.30792 -3.11907,0 -5.94198,1.26394 -7.98589,3.30792 -2.0439,2.04399 -3.30879,4.86702 -3.30879,7.9862 0,3.11819 1.26489,5.94221 3.30879,7.98619 z"
             id="path3001"
             style="fill:#000000;stroke:none" />
          <path
             d="m 12.80051,25.601534 c -3.53468,0 -6.73505,-1.43259 -9.05101,-3.74864 C 1.43354,19.536854 0,16.336344 0,12.801534 0,9.2667239 1.43354,6.0662239 3.7495,3.7501739 c 2.31596,-2.31604 5.51633,-3.74864 9.05101,-3.74864 3.53366,0 6.73404,1.4326 9.051,3.74864 2.31595,2.31605 3.74849,5.51655 3.74849,9.0513601 0,3.53481 -1.43254,6.73532 -3.74849,9.05136 -2.31696,2.31605 -5.51734,3.74864 -9.051,3.74864 z m -7.98589,-4.8138 c 2.04391,2.04399 4.86682,3.30793 7.98589,3.30793 3.11805,0 5.94197,-1.26394 7.98587,-3.30793 2.04391,-2.04398 3.30779,-4.86802 3.30779,-7.9862 0,-3.1191801 -1.26388,-5.9422101 -3.30779,-7.9861901 -2.0439,-2.04399 -4.86782,-3.30793 -7.98587,-3.30793 -3.11907,0 -5.94198,1.26394 -7.98589,3.30793 -2.0439,2.04398 -3.30879,4.86701 -3.30879,7.9861901 0,3.11818 1.26489,5.94222 3.30879,7.9862 z"
             id="path3003"
             style="fill:#000000;stroke:none" />
          <path
             d="m 12.94044,35.058504 c -1.7681,0 -3.2,1.43191 -3.2,3.20001 0,1.76808 1.4319,3.19999 3.2,3.19999 1.76704,0 3.2,-1.43191 3.2,-3.19999 0,-1.7681 -1.43296,-3.20001 -3.2,-3.20001 z"
             id="path3007"
             style="fill:#000000;stroke:none" />
        </g>
      </g>
    </g>
  </g>
</svg>
