<?xml version="1.0" encoding="UTF-8" standalone="no"?>
<!-- Created with Inkscape (http://www.inkscape.org/) -->

<svg
   xmlns:dc="http://purl.org/dc/elements/1.1/"
   xmlns:cc="http://creativecommons.org/ns#"
   xmlns:rdf="http://www.w3.org/1999/02/22-rdf-syntax-ns#"
   xmlns:svg="http://www.w3.org/2000/svg"
   xmlns="http://www.w3.org/2000/svg"
   version="1.1"
   width="40"
   height="40"
   id="svg3127">
  <defs
     id="defs3129" />
  <metadata
     id="metadata3132">
    <rdf:RDF>
      <cc:Work
         rdf:about="">
        <dc:format>image/svg+xml</dc:format>
        <dc:type
           rdf:resource="http://purl.org/dc/dcmitype/StillImage" />
        <dc:title></dc:title>
      </cc:Work>
    </rdf:RDF>
  </metadata>
  <g
     transform="translate(-210.95162,-572.86882)"
     id="layer1">
    <path
       d="m 230.95162,606.11882 c -3.65833,0 -6.97111,-1.48333 -9.36889,-3.88111 -2.39778,-2.39778 -3.88111,-5.71056 -3.88111,-9.36889 0,-3.65833 1.48333,-6.97111 3.88111,-9.36889 2.39778,-2.39778 5.71056,-3.88111 9.36889,-3.88111 3.65889,0 6.97167,1.48333 9.36889,3.88111 2.39833,2.39778 3.88111,5.71056 3.88111,9.36889 0,3.65833 -1.48278,6.97111 -3.88111,9.36889 -2.39722,2.39778 -5.71,3.88111 -9.36889,3.88111 z m 3.75889,-10.75778 c 0.37722,-0.57666 1.15111,-0.73889 1.72833,-0.36111 0.57667,0.37722 0.73889,1.15167 0.36111,1.72833 -0.64,0.97889 -1.52,1.79 -2.55777,2.35167 -1,0.54167 -2.14223,0.84889 -3.35278,0.84889 -1.94889,0 -3.71445,-0.79056 -4.99167,-2.06778 -1.27778,-1.27778 -2.06833,-3.04278 -2.06833,-4.99222 0,-1.94944 0.79055,-3.71444 2.06833,-4.99222 1.27722,-1.27722 3.04278,-2.06778 4.99167,-2.06778 1.21055,0 2.35278,0.30722 3.35278,0.84889 1.03777,0.56167 1.91777,1.37278 2.55777,2.35167 0.37778,0.57722 0.21611,1.35111 -0.36111,1.72833 -0.57722,0.37778 -1.35111,0.21611 -1.72833,-0.36111 -0.41611,-0.63611 -0.98389,-1.16167 -1.65,-1.52167 -0.64278,-0.34833 -1.38222,-0.54611 -2.17111,-0.54611 -1.25889,0 -2.39945,0.51056 -3.22445,1.33556 -0.825,0.825 -1.335,1.965 -1.335,3.22444 0,1.25944 0.51,2.39944 1.335,3.22444 0.825,0.825 1.96556,1.33556 3.22445,1.33556 0.78889,0 1.52833,-0.19778 2.17111,-0.54556 0.66611,-0.36111 1.23389,-0.88611 1.65,-1.52222 z m -11.36,5.10945 c 1.945,1.945 4.63278,3.14833 7.60111,3.14833 2.96889,0 5.65667,-1.20333 7.60167,-3.14833 1.945,-1.945 3.14833,-4.63278 3.14833,-7.60167 0,-2.96889 -1.20333,-5.65611 -3.14833,-7.60167 -1.945,-1.945 -4.63278,-3.14833 -7.60167,-3.14833 -2.96833,0 -5.65611,1.20333 -7.60111,3.14833 -1.94556,1.94556 -3.14889,4.63278 -3.14889,7.60167 0,2.96889 1.20333,5.65667 3.14889,7.60167 z"
       id="path3015"
       style="fill:#ffffff;stroke:none" />
  </g>
</svg>
