<?xml version="1.0" encoding="UTF-8" standalone="no"?>
<!-- Created with Inkscape (http://www.inkscape.org/) -->

<svg
   xmlns:dc="http://purl.org/dc/elements/1.1/"
   xmlns:cc="http://creativecommons.org/ns#"
   xmlns:rdf="http://www.w3.org/1999/02/22-rdf-syntax-ns#"
   xmlns:svg="http://www.w3.org/2000/svg"
   xmlns="http://www.w3.org/2000/svg"
   version="1.1"
   width="40"
   height="40"
   id="svg3208">
  <defs
     id="defs3210" />
  <metadata
     id="metadata3213">
    <rdf:RDF>
      <cc:Work
         rdf:about="">
        <dc:format>image/svg+xml</dc:format>
        <dc:type
           rdf:resource="http://purl.org/dc/dcmitype/StillImage" />
        <dc:title></dc:title>
      </cc:Work>
    </rdf:RDF>
  </metadata>
  <g
     transform="translate(-330,-537.36218)"
     id="layer1">
    <path
       d="m 354.51333,566.34107 -1.10833,-2.91333 -9.43778,0 -1.10778,2.97277 c -0.43222,1.16223 -0.8,1.94556 -1.10833,2.35111 -0.30278,0.40556 -0.805,0.61112 -1.50278,0.61112 -0.58889,0 -1.11333,-0.21667 -1.56722,-0.64889 C 338.22722,568.28162 338,567.7894 338,567.24329 c 0,-0.31889 0.0539,-0.64833 0.15667,-0.98333 0.10833,-0.34056 0.28111,-0.80556 0.52444,-1.41111 l 5.935,-15.07 c 0.17278,-0.43223 0.37278,-0.95111 0.61056,-1.55667 0.23833,-0.61056 0.49222,-1.11333 0.76222,-1.51333 0.27055,-0.4 0.62167,-0.72445 1.05944,-0.97334 0.43778,-0.24833 0.97834,-0.37277 1.62167,-0.37277 0.65944,0 1.20556,0.12444 1.64333,0.37277 0.43778,0.24889 0.78945,0.56778 1.05945,0.95667 0.27,0.38944 0.49722,0.81111 0.68111,1.25944 0.18389,0.44889 0.42167,1.04889 0.70278,1.795 l 6.065,14.97778 c 0.47555,1.14111 0.71333,1.96778 0.71333,2.48667 0,0.535 -0.22167,1.03222 -0.67056,1.48111 -0.44833,0.44889 -0.99444,0.67056 -1.62666,0.67056 -0.36778,0 -0.68667,-0.065 -0.95167,-0.2 -0.25944,-0.13 -0.48111,-0.30834 -0.66444,-0.53556 -0.17889,-0.22667 -0.36778,-0.57833 -0.57334,-1.04278 -0.21055,-0.47055 -0.38389,-0.88666 -0.535,-1.24333 z m 3.52834,-15.77 c -0.57556,0 -1.04167,-0.46667 -1.04167,-1.04222 0,-0.575 0.46611,-1.04167 1.04167,-1.04167 l 2.91666,0 0,-2.91611 c 0,-0.57556 0.46611,-1.04222 1.04167,-1.04222 0.575,0 1.04167,0.46666 1.04167,1.04222 l 0,2.91611 2.91666,0 c 0.575,0 1.04167,0.46667 1.04167,1.04167 0,0.57555 -0.46667,1.04222 -1.04167,1.04222 l -2.91666,0 0,2.91611 c 0,0.57556 -0.46667,1.04167 -1.04167,1.04167 -0.57556,0 -1.04167,-0.46611 -1.04167,-1.04167 l 0,-2.91611 -2.91666,0 z m -12.83667,9.32111 6.93556,0 -3.49778,-9.56722 -3.43778,9.56722 z"
       id="path3021"
       style="fill:#ffffff;stroke:none" />
  </g>
</svg>
