<?xml version="1.0" encoding="UTF-8" standalone="no"?>
<!-- Created with Inkscape (http://www.inkscape.org/) -->

<svg
   xmlns:dc="http://purl.org/dc/elements/1.1/"
   xmlns:cc="http://creativecommons.org/ns#"
   xmlns:rdf="http://www.w3.org/1999/02/22-rdf-syntax-ns#"
   xmlns:svg="http://www.w3.org/2000/svg"
   xmlns="http://www.w3.org/2000/svg"
   version="1.1"
   width="40"
   height="40"
   viewBox="0 0 32.000001 31.999999"
   id="svg2985"
   style="fill-rule:evenodd">
  <metadata
     id="metadata3045">
    <rdf:RDF>
      <cc:Work
         rdf:about="">
        <dc:format>image/svg+xml</dc:format>
        <dc:type
           rdf:resource="http://purl.org/dc/dcmitype/StillImage" />
        <dc:title></dc:title>
      </cc:Work>
    </rdf:RDF>
  </metadata>
  <defs
     id="defs3043" />
  <path
     d="M 16,6.5884039 16,20.894184"
     id="path3029"
     style="fill:#ffffff;stroke:none" />
  <path
     d="m 20.29289,15.187074 c 0.39022,-0.39022 1.02356,-0.39022 1.41378,0 0.39066,0.39067 0.39066,1.02356 0,1.41422 l -4.98845,4.98889 -0.0116,0.0111 -0.0111,0.0116 -0.69556,0.69555 -0.696,-0.69555 -0.0111,-0.0116 -0.0116,-0.0111 -4.98844,-4.98889 c -0.39067,-0.39066 -0.39067,-1.02355 0,-1.41422 0.39022,-0.39022 1.02355,-0.39022 1.41378,0 l 3.29289,3.29333 0,-11.8920001 c 0,-0.55244 0.448,-1 1.00044,-1 0.552,0 1,0.44756 1,1 l 0,11.8920001 3.29289,-3.29333 z M 6.4,26.600404 c -0.55244,0 -1.00044,-0.448 -1.00044,-1 0,-0.55244 0.448,-1.00044 1.00044,-1.00044 l 19.2,0 c 0.552,0 1,0.448 1,1.00044 0,0.552 -0.448,1 -1,1 l -19.2,0 z"
     id="path3033"
     style="fill:#ffffff;stroke:none" />
</svg>
