<?xml version="1.0" encoding="UTF-8" standalone="no"?>
<!-- Created with Inkscape (http://www.inkscape.org/) -->

<svg
   xmlns:dc="http://purl.org/dc/elements/1.1/"
   xmlns:cc="http://creativecommons.org/ns#"
   xmlns:rdf="http://www.w3.org/1999/02/22-rdf-syntax-ns#"
   xmlns:svg="http://www.w3.org/2000/svg"
   xmlns="http://www.w3.org/2000/svg"
   version="1.1"
   width="48"
   height="48"
   viewBox="0 0 38.400002 38.399998"
   id="svg2997"
   style="fill-rule:evenodd">
  <metadata
     id="metadata3011">
    <rdf:RDF>
      <cc:Work
         rdf:about="">
        <dc:format>image/svg+xml</dc:format>
        <dc:type
           rdf:resource="http://purl.org/dc/dcmitype/StillImage" />
        <dc:title></dc:title>
      </cc:Work>
    </rdf:RDF>
  </metadata>
  <defs
     id="defs3009" />
  <path
     d="m 19.200005,13.908766 c -1.461334,0 -2.784,0.592 -3.738667,1.549334 -0.96,0.957333 -1.552,2.280533 -1.552,3.741867 0,1.4608 0.592,2.784 1.552,3.741333 0.954667,0.957333 2.277333,1.549333 3.738667,1.549333 1.461333,0 2.784,-0.592 3.744,-1.549333 0.954667,-0.957333 1.552,-2.280533 1.552,-3.741333 0,-1.461334 -0.597333,-2.784534 -1.552,-3.741867 -0.96,-0.957334 -2.282667,-1.549334 -3.744,-1.549334 z m -11.0240005,7.359467 0,-4.137066 2.7893335,0 c 0.186667,-0.740267 0.469333,-1.441601 0.832,-2.090667 l -1.9360002,-1.936534 2.9226672,-2.925333 1.861333,1.856533 c 0.752,-0.482666 1.594667,-0.849066 2.490667,-1.073066 l 0,-2.7909338 4.133333,0 0,2.7909338 c 0.762667,0.1904 1.477334,0.482666 2.144,0.861866 l 2.042667,-2.045333 2.928,2.925333 -1.984,1.9856 c 0.464,0.744 0.821333,1.565867 1.04,2.441601 l 2.789333,0 0,4.137066 -2.789333,0 c -0.224,0.894934 -0.592,1.733334 -1.072,2.490667 l 2.016,2.016533 -2.928,2.925334 -2.096,-2.096534 C 22.714672,26.969567 22.010672,27.2517 21.269338,27.4373 l 0,2.790934 -4.133333,0 0,-2.790934 c -0.88,-0.2192 -1.701334,-0.574933 -2.442667,-1.042133 l -1.909333,1.9056 L 9.8613378,25.3749 11.824005,23.409567 C 11.445338,22.746633 11.157338,22.0277 10.965338,21.268233 l -2.7893335,0 z"
     id="path3005"
     style="fill:#ffffff;stroke:none" />
</svg>
