<?xml version="1.0" encoding="UTF-8" standalone="no"?>
<!-- Created with Inkscape (http://www.inkscape.org/) -->

<svg
   xmlns:dc="http://purl.org/dc/elements/1.1/"
   xmlns:cc="http://creativecommons.org/ns#"
   xmlns:rdf="http://www.w3.org/1999/02/22-rdf-syntax-ns#"
   xmlns:svg="http://www.w3.org/2000/svg"
   xmlns="http://www.w3.org/2000/svg"
   version="1.1"
   width="40"
   height="40"
   id="svg3354">
  <defs
     id="defs3356" />
  <metadata
     id="metadata3359">
    <rdf:RDF>
      <cc:Work
         rdf:about="">
        <dc:format>image/svg+xml</dc:format>
        <dc:type
           rdf:resource="http://purl.org/dc/dcmitype/StillImage" />
        <dc:title></dc:title>
      </cc:Work>
    </rdf:RDF>
  </metadata>
  <g
     transform="translate(-329.99812,-537.36218)"
     id="layer1">
    <path
       d="m 337.99945,548.36394 4.72758,0 -3.37763,5.85087 -0.0833,0.14888 -1.26662,0 1.26662,0 -1.26662,0 0,-0.15777 0,-5.84198 z m 22.72683,0 1.27217,0 0,5.99975 -4.73313,0 m 0,0 0.0167,-0.0311 3.4443,-5.96864 m -11.9995,0 5.99975,0 -3.42208,5.9292 -0.0389,0.0706 -5.99975,0 0.0611,-0.10944 3.39985,-5.89031 z"
       id="path2997"
       style="fill:#ffffff;stroke:none" />
    <path
       d="m 337.99945,547.32177 23.999,0 1.03885,0 0,1.04217 0,17.99925 0,1.04163 -1.03885,0 -23.999,0 -1.0444,0 0,-1.04163 0,-17.99925 0,-1.04217 1.0444,0 z m 1.03885,5.99975 21.91575,0 0,-3.91595 -21.91575,0 0,3.91595 z m 21.91575,2.0838 -21.91575,0 0,9.9157 21.91575,0 0,-9.9157 z"
       id="path3039"
       style="fill:#ffffff;stroke:none" />
  </g>
</svg>
