<?xml version="1.0" encoding="UTF-8" standalone="no"?>
<!-- Created with Inkscape (http://www.inkscape.org/) -->

<svg
   xmlns:dc="http://purl.org/dc/elements/1.1/"
   xmlns:cc="http://creativecommons.org/ns#"
   xmlns:rdf="http://www.w3.org/1999/02/22-rdf-syntax-ns#"
   xmlns:svg="http://www.w3.org/2000/svg"
   xmlns="http://www.w3.org/2000/svg"
   version="1.1"
   width="48"
   height="48"
   viewBox="0 0 38.400002 38.399998"
   id="svg3087"
   style="fill-rule:evenodd">
  <metadata
     id="metadata3101">
    <rdf:RDF>
      <cc:Work
         rdf:about="">
        <dc:format>image/svg+xml</dc:format>
        <dc:type
           rdf:resource="http://purl.org/dc/dcmitype/StillImage" />
        <dc:title></dc:title>
      </cc:Work>
    </rdf:RDF>
  </metadata>
  <defs
     id="defs3099" />
  <path
     d="m 7.792,20.399434 c -0.6613,0 -1.2,-0.53707 -1.2,-1.2 0,-0.66294 0.5387,-1.2 1.2,-1.2 l 17.7013,0 3.0134,0 -3.952,-3.95147 c -0.4694,-0.46827 -0.4694,-1.22827 0,-1.69653 0.4693,-0.4688 1.2266,-0.4688 1.696,0 l 6,5.99946 0.848,0.84854 -0.848,0.84853 -6,6 c -0.4694,0.4688 -1.2267,0.4688 -1.696,0 -0.4694,-0.46827 -0.4694,-1.22827 0,-1.69653 l 3.952,-3.952 -3.0454,0 -17.6693,0 z"
     id="path3095"
     style="fill:#ffffff;stroke:none" />
</svg>
