<?xml version="1.0" encoding="UTF-8" standalone="no"?>
<!-- Created with Inkscape (http://www.inkscape.org/) -->

<svg
   xmlns:dc="http://purl.org/dc/elements/1.1/"
   xmlns:cc="http://creativecommons.org/ns#"
   xmlns:rdf="http://www.w3.org/1999/02/22-rdf-syntax-ns#"
   xmlns:svg="http://www.w3.org/2000/svg"
   xmlns="http://www.w3.org/2000/svg"
   version="1.1"
   width="48"
   height="48"
   viewBox="0 0 38.400002 38.399998"
   id="svg3129"
   style="fill-rule:evenodd">
  <metadata
     id="metadata3143">
    <rdf:RDF>
      <cc:Work
         rdf:about="">
        <dc:format>image/svg+xml</dc:format>
        <dc:type
           rdf:resource="http://purl.org/dc/dcmitype/StillImage" />
        <dc:title></dc:title>
      </cc:Work>
    </rdf:RDF>
  </metadata>
  <defs
     id="defs3141" />
  <path
     d="m 13.823974,27.604234 1.034667,-2.727467 8.837334,0 1.034666,2.783467 c 0.405334,1.088 0.752,1.821333 1.04,2.201066 0.282667,0.3792 0.752,0.571734 1.402667,0.571734 0.554667,0 1.045333,-0.202667 1.472,-0.607467 0.421333,-0.4048 0.634667,-0.865067 0.634667,-1.376 0,-0.298667 -0.048,-0.607467 -0.144,-0.921067 -0.101334,-0.318933 -0.266667,-0.754133 -0.490667,-1.320533 L 23.087975,12.100766 c -0.165334,-0.4048 -0.352,-0.890666 -0.570667,-1.4576 -0.224,-0.571733 -0.464,-1.042133 -0.714667,-1.416533 -0.256,-0.3744 -0.581333,-0.6778667 -0.992,-0.9109334 -0.410667,-0.2325333 -0.917333,-0.3488 -1.52,-0.3488 -0.618667,0 -1.125333,0.1162667 -1.536,0.3488 -0.410667,0.2330667 -0.741333,0.5317334 -0.992,0.896 -0.256,0.3642667 -0.464,0.7589334 -0.64,1.1786664 -0.170667,0.420267 -0.394667,0.981867 -0.656,1.68 L 9.7919741,26.091167 c -0.448,1.067733 -0.672,1.842133 -0.672,2.328 0,0.5008 0.208,0.9664 0.6293333,1.386133 0.4213336,0.420267 0.9279996,0.627734 1.5253336,0.627734 0.341333,0 0.64,-0.0608 0.885333,-0.187734 0.245334,-0.121066 0.453334,-0.288 0.624,-0.5008 0.165334,-0.212266 0.346667,-0.541333 0.538667,-0.976533 0.197333,-0.44 0.357333,-0.829867 0.501333,-1.163733 z m 8.709334,-6.036267 -6.490667,0 3.274667,-8.956267 3.216,8.956267 z"
     id="path3137"
     style="fill:#ffffff;stroke:none" />
</svg>
