<?xml version="1.0" encoding="UTF-8" standalone="no"?>
<!-- Created with Inkscape (http://www.inkscape.org/) -->

<svg
   xmlns:dc="http://purl.org/dc/elements/1.1/"
   xmlns:cc="http://creativecommons.org/ns#"
   xmlns:rdf="http://www.w3.org/1999/02/22-rdf-syntax-ns#"
   xmlns:svg="http://www.w3.org/2000/svg"
   xmlns="http://www.w3.org/2000/svg"
   version="1.1"
   width="48"
   height="48"
   viewBox="0 0 38.400002 38.399998"
   id="svg3166"
   style="fill-rule:evenodd">
  <metadata
     id="metadata3180">
    <rdf:RDF>
      <cc:Work
         rdf:about="">
        <dc:format>image/svg+xml</dc:format>
        <dc:type
           rdf:resource="http://purl.org/dc/dcmitype/StillImage" />
        <dc:title></dc:title>
      </cc:Work>
    </rdf:RDF>
  </metadata>
  <defs
     id="defs3178" />
  <path
     d="m 9.6000354,16.7733 c 1.3386666,0 2.4266666,1.0864 2.4266666,2.426667 0,1.339733 -1.088,2.426133 -2.4266666,2.426133 -1.3386667,0 -2.4266668,-1.0864 -2.4266668,-2.426133 0,-1.340267 1.0880001,-2.426667 2.4266668,-2.426667 z m 19.2000006,0 c 1.338667,0 2.426667,1.0864 2.426667,2.426667 0,1.339733 -1.088,2.426133 -2.426667,2.426133 -1.338667,0 -2.426667,-1.0864 -2.426667,-2.426133 0,-1.340267 1.088,-2.426667 2.426667,-2.426667 z m -9.6,0 c 1.338666,0 2.426666,1.0864 2.426666,2.426667 0,1.339733 -1.088,2.426133 -2.426666,2.426133 -1.338667,0 -2.426667,-1.0864 -2.426667,-2.426133 0,-1.340267 1.088,-2.426667 2.426667,-2.426667 z"
     id="path3174"
     style="fill:#ffffff;stroke:none" />
</svg>
