<?xml version="1.0" encoding="UTF-8" standalone="no"?>
<!-- Created with Inkscape (http://www.inkscape.org/) -->

<svg
   xmlns:dc="http://purl.org/dc/elements/1.1/"
   xmlns:cc="http://creativecommons.org/ns#"
   xmlns:rdf="http://www.w3.org/1999/02/22-rdf-syntax-ns#"
   xmlns:svg="http://www.w3.org/2000/svg"
   xmlns="http://www.w3.org/2000/svg"
   version="1.1"
   width="48"
   height="48"
   viewBox="0 0 38.400002 38.399998"
   id="svg3108"
   style="fill-rule:evenodd">
  <metadata
     id="metadata3122">
    <rdf:RDF>
      <cc:Work
         rdf:about="">
        <dc:format>image/svg+xml</dc:format>
        <dc:type
           rdf:resource="http://purl.org/dc/dcmitype/StillImage" />
        <dc:title></dc:title>
      </cc:Work>
    </rdf:RDF>
  </metadata>
  <defs
     id="defs3120" />
  <path
     d="m 10.325306,10.925833 0,0 c -1.1093337,1.110933 -1.6640004,2.567467 -1.6640004,4.024 0,1.456533 0.5546667,2.9136 1.6640004,4.024534 l 0,0 c 1.114666,1.111466 2.570666,1.666666 4.026666,1.666666 1.456,0 2.912001,-0.5552 4.021334,-1.666666 1.114667,-1.110934 1.669333,-2.567467 1.669333,-4.024534 0,-1.456533 -0.554666,-2.913067 -1.669333,-4.024 l 0,-5.33e-4 C 17.263973,9.8143663 15.807972,9.2586329 14.351972,9.2586329 c -1.456,0 -2.912,0.5557334 -4.026666,1.6666671 l 0,5.33e-4 z m 10.533333,8.834667 1.605334,1.606933 0.613333,-0.6144 7.866667,7.862401 -2.928,2.925333 -7.861334,-7.8624 0.613334,-0.6144 -1.605334,-1.606934 c -1.424,1.056 -3.12,1.584534 -4.810667,1.584534 -2.069333,0 -4.144,-0.7904 -5.7226664,-2.370134 l 0,-5.33e-4 C 7.0506389,19.091167 6.2613055,17.020233 6.2613055,14.949833 c 0,-2.069867 0.7893334,-4.1408 2.3680001,-5.7210667 l 0,0 0,-5.334e-4 c 1.5786664,-1.5797333 3.6533334,-2.3696 5.7226664,-2.3696 2.069334,0 4.138667,0.7898667 5.722667,2.3696 l 0,5.334e-4 c 1.578667,1.5797337 2.368,3.6506667 2.368,5.7210667 0,1.6928 -0.528,3.3856 -1.584,4.810667 z"
     id="path3116"
     style="fill:#ffffff;stroke:none" />
</svg>
