<?xml version="1.0" encoding="UTF-8" standalone="no"?>
<!-- Created with Inkscape (http://www.inkscape.org/) -->

<svg
   xmlns:dc="http://purl.org/dc/elements/1.1/"
   xmlns:cc="http://creativecommons.org/ns#"
   xmlns:rdf="http://www.w3.org/1999/02/22-rdf-syntax-ns#"
   xmlns:svg="http://www.w3.org/2000/svg"
   xmlns="http://www.w3.org/2000/svg"
   version="1.1"
   width="48"
   height="48"
   viewBox="0 0 38.400002 38.399998"
   id="svg3018"
   style="fill-rule:evenodd">
  <metadata
     id="metadata3032">
    <rdf:RDF>
      <cc:Work
         rdf:about="">
        <dc:format>image/svg+xml</dc:format>
        <dc:type
           rdf:resource="http://purl.org/dc/dcmitype/StillImage" />
        <dc:title></dc:title>
      </cc:Work>
    </rdf:RDF>
  </metadata>
  <defs
     id="defs3030" />
  <path
     d="m 12.752003,13.713033 c 0.02133,0.03307 0.04267,0.06773 0.05867,0.103467 l 7.856,13.608 c 0.02133,0.02933 0.03733,0.06027 0.05333,0.09227 0.394667,0.655467 1.013334,1.096 1.701334,1.28 0.688,0.184533 1.445333,0.112 2.112,-0.258667 0.03733,-0.02187 0.06933,-0.04107 0.106666,-0.0576 0.645334,-0.393066 1.077334,-1.008533 1.264001,-1.6928 0.181333,-0.684267 0.112,-1.436267 -0.250667,-2.101333 -0.02667,-0.03893 -0.048,-0.07947 -0.06933,-0.121067 L 19.557337,14.1221 c -0.01067,-0.01333 -0.02133,-0.0272 -0.02667,-0.0416 -0.144,-0.244267 -0.368,-0.408534 -0.624,-0.476267 -0.250667,-0.06827 -0.533333,-0.04 -0.773333,0.100267 l 0,-0.0011 -0.0053,0.0011 c -0.24,0.139733 -0.405333,0.367466 -0.469333,0.621333 -0.06933,0.253333 -0.04267,0.531733 0.096,0.775467 0.048,0.07893 0.08,0.1632 0.096,0.248533 l 6.330667,10.9632 c 0.218666,0.381334 0.08533,0.868267 -0.293334,1.087467 -0.384,0.2192 -0.869333,0.08747 -1.088,-0.293867 L 16.133337,15.5637 c -0.106667,-0.1856 -0.128,-0.395734 -0.08,-0.588267 -0.05333,-0.357867 -0.032,-0.719467 0.05867,-1.061867 0.176,-0.645333 0.592,-1.2256 1.221334,-1.5888 l 0,-0.0011 c 0.629333,-0.362134 1.338666,-0.436267 1.989333,-0.263467 0.645333,0.173867 1.226667,0.594133 1.589333,1.220267 0.0053,0.01493 0.016,0.02987 0.02133,0.0448 l 6.032,10.442667 c 0.02667,0.04373 0.05333,0.08907 0.07467,0.136533 0.581333,1.045333 0.693333,2.224533 0.405333,3.295467 -0.288,1.070933 -0.976,2.0352 -1.994667,2.652267 -0.04267,0.0288 -0.08533,0.05387 -0.128,0.07413 -1.050667,0.586667 -2.234667,0.702933 -3.312,0.4144 -1.09867,-0.29383 -2.085336,-1.006896 -2.69867,-2.06823 l 0,0 -0.0053,-0.01173 -7.877334,-13.645334 c -0.02667,-0.0384 -0.048,-0.07893 -0.06933,-0.120533 -0.576,-1.0448 -0.688,-2.225067 -0.405333,-3.295467 0.288,-1.070933 0.976,-2.0352001 2,-2.6522668 0.04267,-0.0288 0.08,-0.053333 0.128,-0.074133 1.045333,-0.5866667 2.234667,-0.7029333 3.312,-0.4144 1.098667,0.2944 2.08,1.0069334 2.693333,2.0682668 0.07467,0.1264 0.112,0.264 0.106667,0.4 l 0.0053,0 0,5.33e-4 c 0,0.4416 -0.357333,0.8 -0.8,0.8 -0.314666,0 -0.586666,-0.181333 -0.72,-0.4448 -0.394666,-0.655467 -1.013333,-1.0959997 -1.696,-1.2799998 -0.693333,-0.1845333 -1.450667,-0.112 -2.117333,0.2586667 -0.032,0.021867 -0.064,0.041067 -0.101334,0.0576 -0.645333,0.3930661 -1.082666,1.0085331 -1.264,1.6928001 -0.186666,0.684266 -0.117333,1.436266 0.250667,2.101333 z"
     id="path3026"
     style="fill:#ffffff;stroke:none" />
</svg>
