<?xml version="1.0" encoding="UTF-8" standalone="no"?>
<!-- Created with Inkscape (http://www.inkscape.org/) -->

<svg
   xmlns:dc="http://purl.org/dc/elements/1.1/"
   xmlns:cc="http://creativecommons.org/ns#"
   xmlns:rdf="http://www.w3.org/1999/02/22-rdf-syntax-ns#"
   xmlns:svg="http://www.w3.org/2000/svg"
   xmlns="http://www.w3.org/2000/svg"
   version="1.1"
   width="40"
   height="40"
   id="svg3266">
  <defs
     id="defs3268" />
  <metadata
     id="metadata3271">
    <rdf:RDF>
      <cc:Work
         rdf:about="">
        <dc:format>image/svg+xml</dc:format>
        <dc:type
           rdf:resource="http://purl.org/dc/dcmitype/StillImage" />
        <dc:title></dc:title>
      </cc:Work>
    </rdf:RDF>
  </metadata>
  <g
     transform="translate(-330,-537.36218)"
     id="layer1">
    <path
       d="m 344.76056,564.86385 2.24944,-0.33223 c 0.23444,1.08223 0.60944,1.84445 1.12056,2.28334 0.50666,0.43889 1.20555,0.65611 2.08277,0.65611 0.85611,0 1.52056,-0.21722 2.00223,-0.65167 0.48111,-0.43055 0.72388,-0.94166 0.72388,-1.525 0,-0.42166 -0.14888,-0.81389 -0.45111,-1.17166 -0.51555,-0.62612 -1.93444,-1.64834 -4.25166,-3.06278 -1.23556,-0.75834 -2.09556,-1.35 -2.58167,-1.77611 -0.48944,-0.43056 -0.89,-0.93723 -1.19667,-1.51667 -0.31111,-0.58389 -0.46444,-1.19278 -0.46444,-1.82333 0,-0.80056 0.25167,-1.525 0.75,-2.17223 0.50278,-0.65222 1.18833,-1.10333 2.06611,-1.36333 -0.59222,-0.56222 -1.01,-1.08222 -1.25278,-1.55889 -0.24278,-0.48166 -0.36222,-0.98833 -0.36222,-1.525 0,-1.065 0.41778,-1.985 1.24833,-2.765 0.83056,-0.77944 1.92945,-1.17111 3.30111,-1.17111 1.555,0 2.76945,0.37056 3.64223,1.10722 0.87333,0.73723 1.39777,1.81056 1.57222,3.21223 l -2.32611,0.23 c -0.17445,-1.01 -0.48111,-1.71667 -0.91556,-2.11334 -0.43889,-0.39555 -1.02666,-0.59611 -1.76778,-0.59611 -0.76277,0 -1.38055,0.20445 -1.85333,0.61778 -0.46833,0.40889 -0.70278,0.865 -0.70278,1.36278 0,0.43055 0.14889,0.82666 0.45167,1.19277 0.46833,0.56278 1.74222,1.47834 3.82111,2.74389 1.30778,0.80056 2.18945,1.38445 2.64945,1.75889 0.58777,0.50278 1.02222,1.01834 1.29944,1.55056 0.27667,0.53278 0.41722,1.11222 0.41722,1.73389 0,0.94166 -0.30222,1.74666 -0.90722,2.41111 -0.34944,0.38333 -0.98833,0.77111 -1.91722,1.15889 0.665,0.51111 1.16333,1.05611 1.49111,1.63555 0.32778,0.58389 0.49,1.21 0.49,1.87445 0,0.73277 -0.20889,1.42277 -0.62611,2.07889 -0.41778,0.65166 -1.01389,1.15 -1.79778,1.495 -0.78389,0.345 -1.63167,0.52 -2.53889,0.52 -1.59333,0 -2.85833,-0.39667 -3.79111,-1.18889 -0.93278,-0.79667 -1.49111,-1.9 -1.67444,-3.31 z m 7.32722,-3.92723 c 0.61778,-0.31555 1.07333,-0.68611 1.37555,-1.10333 0.29834,-0.42167 0.44723,-0.83111 0.44723,-1.23111 0,-0.47278 -0.21278,-0.97556 -0.64278,-1.49944 -0.43445,-0.52389 -1.37167,-1.22667 -2.80722,-2.10889 -1.14167,-0.69834 -1.99389,-1.27334 -2.55612,-1.72056 -0.67277,0.37889 -1.15,0.76222 -1.43555,1.14556 -0.28556,0.38333 -0.43,0.80944 -0.43,1.27389 0,0.52388 0.19167,1.02222 0.57055,1.49944 0.38334,0.47278 1.24389,1.10722 2.58556,1.89556 1.12056,0.66 2.08333,1.27388 2.89278,1.84888 z"
       id="path3017"
       style="fill:#ffffff;stroke:#ffffff;stroke-width:0.27779499" />
  </g>
</svg>
