<?xml version="1.0" encoding="UTF-8" standalone="no"?>
<!-- Created with Inkscape (http://www.inkscape.org/) -->

<svg
   xmlns:dc="http://purl.org/dc/elements/1.1/"
   xmlns:cc="http://creativecommons.org/ns#"
   xmlns:rdf="http://www.w3.org/1999/02/22-rdf-syntax-ns#"
   xmlns:svg="http://www.w3.org/2000/svg"
   xmlns="http://www.w3.org/2000/svg"
   version="1.1"
   width="48"
   height="48"
   viewBox="0 0 38.400002 38.399998"
   id="svg3066"
   style="fill-rule:evenodd">
  <metadata
     id="metadata3080">
    <rdf:RDF>
      <cc:Work
         rdf:about="">
        <dc:format>image/svg+xml</dc:format>
        <dc:type
           rdf:resource="http://purl.org/dc/dcmitype/StillImage" />
        <dc:title></dc:title>
      </cc:Work>
    </rdf:RDF>
  </metadata>
  <defs
     id="defs3078" />
  <path
     d="m 30.608003,17.999433 c 0.661333,0 1.2,0.537067 1.2,1.2 0,0.662934 -0.538667,1.2 -1.2,1.2 l -17.546667,0 -3.1680002,0 3.9520002,3.952 c 0.469333,0.468267 0.469333,1.228267 0,1.696534 -0.469333,0.4688 -1.226667,0.4688 -1.696,0 l -6.0000003,-6 -0.848,-0.848534 0.848,-0.848533 6.0000003,-5.999467 c 0.469333,-0.4688 1.226667,-0.4688 1.696,0 0.469333,0.468267 0.469333,1.228267 0,1.696533 l -3.9520002,3.951467 3.1946672,0 17.52,0 z"
     id="path3074"
     style="fill:#ffffff;stroke:none" />
</svg>
