<?xml version="1.0" encoding="UTF-8" standalone="no"?>
<!-- Created with Inkscape (http://www.inkscape.org/) -->

<svg
   xmlns:dc="http://purl.org/dc/elements/1.1/"
   xmlns:cc="http://creativecommons.org/ns#"
   xmlns:rdf="http://www.w3.org/1999/02/22-rdf-syntax-ns#"
   xmlns:svg="http://www.w3.org/2000/svg"
   xmlns="http://www.w3.org/2000/svg"
   version="1.1"
   width="40"
   height="40"
   id="svg3295">
  <defs
     id="defs3297" />
  <metadata
     id="metadata3300">
    <rdf:RDF>
      <cc:Work
         rdf:about="">
        <dc:format>image/svg+xml</dc:format>
        <dc:type
           rdf:resource="http://purl.org/dc/dcmitype/StillImage" />
        <dc:title></dc:title>
      </cc:Work>
    </rdf:RDF>
  </metadata>
  <g
     transform="translate(-330,-537.36218)"
     id="layer1">
    <path
       d="m 357.11611,548.47885 c 0.48833,-0.48834 1.27945,-0.48834 1.76778,0 0.48778,0.48777 0.48778,1.27944 0,1.76722 l -7.11611,7.11611 7.11611,7.11667 c 0.48778,0.48777 0.48778,1.27944 0,1.76722 -0.48833,0.48833 -1.27945,0.48833 -1.76778,0 L 350,559.12996 l -7.11611,7.11611 c -0.48833,0.48833 -1.27945,0.48833 -1.76778,0 -0.48778,-0.48778 -0.48778,-1.27945 0,-1.76722 l 7.11611,-7.11667 -7.11611,-7.11611 c -0.48778,-0.48778 -0.48778,-1.27945 0,-1.76722 0.48833,-0.48834 1.27945,-0.48834 1.76778,0 l 7.11611,7.11611 7.11611,-7.11611 z"
       id="path3027"
       style="fill:#888;stroke:none" />
  </g>
</svg>
