<?xml version="1.0" encoding="UTF-8" standalone="no"?>
<!-- Created with Inkscape (http://www.inkscape.org/) -->

<svg
   xmlns:dc="http://purl.org/dc/elements/1.1/"
   xmlns:cc="http://creativecommons.org/ns#"
   xmlns:rdf="http://www.w3.org/1999/02/22-rdf-syntax-ns#"
   xmlns:svg="http://www.w3.org/2000/svg"
   xmlns="http://www.w3.org/2000/svg"
   version="1.1"
   width="40"
   height="40"
   id="svg3387">
  <defs
     id="defs3389" />
  <metadata
     id="metadata3392">
    <rdf:RDF>
      <cc:Work
         rdf:about="">
        <dc:format>image/svg+xml</dc:format>
        <dc:type
           rdf:resource="http://purl.org/dc/dcmitype/StillImage" />
        <dc:title></dc:title>
      </cc:Work>
    </rdf:RDF>
  </metadata>
  <g
     transform="translate(-330,-537.36218)"
     id="layer1">
    <path
       d="m 360.95556,559.0344 0,-9.63 -21.91667,0 0,10.31334 7.76667,1.92277 8.96111,-4.72444 5.18889,2.11833 z m -15.68334,-8.38333 c 1.24445,0 2.36667,0.50389 3.17778,1.31722 0.81667,0.81389 1.31667,1.93833 1.31667,3.17945 0,1.23888 -0.5,2.36166 -1.31667,3.17555 l 0,0.004 c -0.81111,0.81333 -1.93333,1.31666 -3.17778,1.31666 -1.23889,0 -2.36666,-0.50333 -3.17778,-1.31666 -0.81666,-0.81389 -1.31666,-1.93834 -1.31666,-3.18 0,-1.24167 0.5,-2.36556 1.31666,-3.17945 l 0,0.002 c 0.81667,-0.815 1.93889,-1.31944 3.17778,-1.31944 z m 1.70556,2.79055 c -0.43334,-0.43666 -1.03889,-0.70666 -1.70556,-0.70666 -0.66666,0 -1.27222,0.26833 -1.70555,0.70222 l 0,0.004 c -0.43889,0.43667 -0.70556,1.04 -0.70556,1.70612 0,0.66666 0.26667,1.27 0.70556,1.70666 0.43333,0.43667 1.03889,0.70667 1.70555,0.70667 0.66667,0 1.27222,-0.27 1.70556,-0.70667 l 0.006,0.002 c 0.43334,-0.43666 0.7,-1.04055 0.7,-1.70888 0,-0.66612 -0.26666,-1.27 -0.70555,-1.70612 z M 362,567.4044 l -24,0 -1.04444,0 0,-1.04166 0,-18 0,-1.04223 1.04444,0 24,0 1.03889,0 0,1.04223 0,18 0,1.04166 -1.03889,0 z"
       id="path3037"
       style="fill:#ffffff;stroke:none" />
  </g>
</svg>
