<?xml version="1.0" encoding="UTF-8" standalone="no"?>
<!-- Created with Inkscape (http://www.inkscape.org/) -->

<svg
   xmlns:dc="http://purl.org/dc/elements/1.1/"
   xmlns:cc="http://creativecommons.org/ns#"
   xmlns:rdf="http://www.w3.org/1999/02/22-rdf-syntax-ns#"
   xmlns:svg="http://www.w3.org/2000/svg"
   xmlns="http://www.w3.org/2000/svg"
   version="1.1"
   width="28.000002"
   height="56"
   viewBox="0 0 22.400002 44.799998"
   id="svg3042"
   style="fill-rule:evenodd">
  <metadata
     id="metadata3056">
    <rdf:RDF>
      <cc:Work
         rdf:about="">
        <dc:format>image/svg+xml</dc:format>
        <dc:type
           rdf:resource="http://purl.org/dc/dcmitype/StillImage" />
        <dc:title></dc:title>
      </cc:Work>
    </rdf:RDF>
  </metadata>
  <defs
     id="defs3054" />
  <path
     d="m 0,-1.47e-6 22.400002,0 0,22.40000147 L 0,22.4 0,-1.47e-6 z"
     id="path3063"
     style="fill:none;stroke:none" />
  <path
     d="m 0.063457,22.4 22.273088,0 0,22.400001 -22.273088,0 0,-22.400001 z"
     id="path3048"
     style="fill:none;stroke:none" />
  <g
     transform="matrix(0.65317476,0,0,0.65317476,-0.86914401,7.0421648)"
     id="text3237"
     style="font-size:40px;font-style:normal;font-weight:bold;line-height:125%;letter-spacing:0px;word-spacing:0px;fill:#000000;fill-opacity:1;stroke:none;font-family:Sans;-inkscape-font-specification:Sans Bold">
    <path
       d="M 8.7901659,10.818703 14.297978,9.9788589 c 0.234369,1.0677141 0.709629,1.8782601 1.425782,2.4316411 0.716137,0.553389 1.71874,0.830081 3.007812,0.830078 1.419259,3e-6 2.486966,-0.260413 3.203125,-0.78125 0.481756,-0.364579 0.722642,-0.85286 0.722656,-1.464844 C 22.657339,10.577823 22.52713,10.232772 22.266728,9.9593277 21.993277,9.6989181 21.381298,9.4580329 20.430791,9.2366714 16.003699,8.2601174 13.197713,7.3681912 12.012822,6.5608902 10.372195,5.4411098 9.551883,3.8851218 9.5518847,1.8929214 c -1.7e-6,-1.79685831 0.7096333,-3.3072735 2.1289063,-4.53125 1.419265,-1.2239377 3.619784,-1.8359162 6.601562,-1.8359375 2.838529,2.13e-5 4.947902,0.4622604 6.328125,1.3867188 1.380191,0.9244981 2.33071,2.2916842 2.851563,4.1015625 L 22.28626,1.9710464 C 22.064891,1.1637704 21.64497,0.54528139 21.026494,0.1155777 20.407992,-0.31409275 19.525831,-0.52893629 18.38001,-0.52895355 c -1.445322,1.726e-5 -2.480477,0.20183998 -3.105469,0.60546875 -0.416674,0.2864747 -0.625007,0.65756808 -0.625,1.1132812 -7e-6,0.3906402 0.182285,0.7226711 0.546875,0.9960938 0.494784,0.3645975 2.203766,0.8789199 5.126953,1.5429687 2.923162,0.6640749 4.964175,1.4778762 6.123047,2.4414063 1.145813,0.9765721 1.71873,2.3372478 1.71875,4.0820308 -2e-5,1.901047 -0.79429,3.53516 -2.382813,4.902344 -1.588558,1.367188 -3.938816,2.050781 -7.050781,2.050781 -2.825529,0 -5.061855,-0.572916 -6.708984,-1.71875 -1.647138,-1.14583 -2.724611,-2.701819 -3.2324221,-4.667968 z"
       id="path3242" />
  </g>
  <g
     transform="matrix(0.65317476,0,0,0.65317476,-0.86914402,29.442166)"
     id="g3244"
     style="font-size:40px;font-style:normal;font-weight:bold;line-height:125%;letter-spacing:0px;word-spacing:0px;fill:#ffffff;fill-opacity:1;stroke:none;font-family:Sans;-inkscape-font-specification:Sans Bold">
    <path
       d="M 8.7901659,10.818703 14.297978,9.9788589 c 0.234369,1.0677141 0.709629,1.8782601 1.425782,2.4316411 0.716137,0.553389 1.71874,0.830081 3.007812,0.830078 1.419259,3e-6 2.486966,-0.260413 3.203125,-0.78125 0.481756,-0.364579 0.722642,-0.85286 0.722656,-1.464844 C 22.657339,10.577823 22.52713,10.232772 22.266728,9.9593277 21.993277,9.6989181 21.381298,9.4580329 20.430791,9.2366714 16.003699,8.2601174 13.197713,7.3681912 12.012822,6.5608902 10.372195,5.4411098 9.551883,3.8851218 9.5518847,1.8929214 c -1.7e-6,-1.79685831 0.7096333,-3.3072735 2.1289063,-4.53125 1.419265,-1.2239377 3.619784,-1.8359162 6.601562,-1.8359375 2.838529,2.13e-5 4.947902,0.4622604 6.328125,1.3867188 1.380191,0.9244981 2.33071,2.2916842 2.851563,4.1015625 L 22.28626,1.9710464 C 22.064891,1.1637704 21.64497,0.54528139 21.026494,0.1155777 20.407992,-0.31409275 19.525831,-0.52893629 18.38001,-0.52895355 c -1.445322,1.726e-5 -2.480477,0.20183998 -3.105469,0.60546875 -0.416674,0.2864747 -0.625007,0.65756808 -0.625,1.1132812 -7e-6,0.3906402 0.182285,0.7226711 0.546875,0.9960938 0.494784,0.3645975 2.203766,0.8789199 5.126953,1.5429687 2.923162,0.6640749 4.964175,1.4778762 6.123047,2.4414063 1.145813,0.9765721 1.71873,2.3372478 1.71875,4.0820308 -2e-5,1.901047 -0.79429,3.53516 -2.382813,4.902344 -1.588558,1.367188 -3.938816,2.050781 -7.050781,2.050781 -2.825529,0 -5.061855,-0.572916 -6.708984,-1.71875 -1.647138,-1.14583 -2.724611,-2.701819 -3.2324221,-4.667968 z"
       id="path3246"
       style="fill:#ffffff" />
  </g>
</svg>
