<?xml version="1.0" encoding="UTF-8" standalone="no"?>
<!-- Created with Inkscape (http://www.inkscape.org/) -->

<svg
   xmlns:dc="http://purl.org/dc/elements/1.1/"
   xmlns:cc="http://creativecommons.org/ns#"
   xmlns:rdf="http://www.w3.org/1999/02/22-rdf-syntax-ns#"
   xmlns:svg="http://www.w3.org/2000/svg"
   xmlns="http://www.w3.org/2000/svg"
   version="1.1"
   width="28.000002"
   height="56"
   viewBox="0 0 22.400002 44.799998"
   id="svg3042"
   style="fill-rule:evenodd">
  <metadata
     id="metadata3056">
    <rdf:RDF>
      <cc:Work
         rdf:about="">
        <dc:format>image/svg+xml</dc:format>
        <dc:type
           rdf:resource="http://purl.org/dc/dcmitype/StillImage" />
        <dc:title></dc:title>
      </cc:Work>
    </rdf:RDF>
  </metadata>
  <defs
     id="defs3054" />
  <g
     id="g3210">
    <path
       d="m 0,-1.47e-6 22.400002,0 0,22.40000147 L 0,22.4 0,-1.47e-6 z"
       id="path3063"
       style="fill:none;stroke:none" />
    <path
       d="M 5.8875733,3.2014707 C 4.2388259,3.1313816 2.2320442,5.5821263 3.7161142,6.8994007 4.7078284,7.7794075 6.6512941,6.3215298 6.5110616,8.5548687 l -2.966944,2.9454453 c 0.7778291,0.774024 2.4329082,2.98661 3.3754358,2.192959 0.5831249,-0.491374 0.075942,-0.813811 0.4514916,-1.56947 1.0406449,-2.094666 5.45407,2.208554 1.9994624,3.052941 -0.2279967,-0.0053 -0.4278924,0.01779 -0.6664874,0.300995 -0.7937242,0.942536 1.2781249,2.521469 2.192958,3.375436 l 2.966943,-2.966944 c 2.23334,-0.140256 0.754043,1.803179 1.633969,2.794947 1.621261,1.826499 4.971288,-1.634656 3.203439,-3.203439 -0.991451,-0.880245 -2.934965,0.599133 -2.794946,-1.633969 l 2.966943,-2.966944 C 18.026089,10.187257 16.461926,7.8901355 15.519389,8.6838667 15.236107,8.9227457 15.21333,9.1223987 15.218395,9.3503539 14.373928,12.804449 10.070867,8.3699975 12.165454,7.3293925 12.921114,6.9538183 13.243868,7.4610897 13.734924,6.877901 14.528655,5.9356812 12.529855,4.5036232 11.541965,3.5239646 L 8.5750224,6.4909082 C 6.3419042,6.6309275 7.7997892,4.6874135 6.9195534,3.6959614 6.6254066,3.3645044 6.2680533,3.2176448 5.8875733,3.2014707 z"
       id="path3141"
       style="fill:#000000;stroke:none" />
  </g>
  <g
     id="g3214">
    <path
       d="m 0.063457,22.4 22.273088,0 0,22.400001 -22.273088,0 0,-22.400001 z"
       id="path3048"
       style="fill:none;stroke:none" />
    <path
       d="m 5.8875729,25.601472 c -1.6487483,-0.07009 -3.6555291,2.380656 -2.1714592,3.69793 0.9917133,0.880007 2.93518,-0.577871 2.7949475,1.655469 l -2.9669441,2.945444 c 0.7778291,0.774023 2.4329074,2.986611 3.3754357,2.192959 0.5831259,-0.491374 0.07595,-0.813811 0.4514917,-1.56947 1.040645,-2.094666 5.4540715,2.208554 1.9994625,3.052941 -0.2279967,-0.0053 -0.4278934,0.01779 -0.6664875,0.300994 -0.7937242,0.942537 1.278125,2.52147 2.1929585,3.375437 l 2.966943,-2.966944 c 2.23334,-0.140257 0.754043,1.803178 1.63397,2.794946 1.621261,1.826501 4.971288,-1.634655 3.203439,-3.203439 -0.991453,-0.880244 -2.934966,0.599134 -2.794947,-1.633969 l 2.966944,-2.966943 c -0.847238,-0.689568 -2.411401,-2.98669 -3.353936,-2.192958 -0.283285,0.238879 -0.30606,0.438531 -0.300995,0.666487 -0.844468,3.454093 -5.147529,-0.980357 -3.052942,-2.020962 0.75566,-0.375574 1.078414,0.131697 1.56947,-0.451491 0.793732,-0.94222 -1.205068,-2.374278 -2.192959,-3.353937 L 8.575022,28.89091 C 6.3419037,29.030929 7.7997887,27.087415 6.9195528,26.095963 6.6254062,25.764506 6.2680529,25.617647 5.8875729,25.601472 z"
       id="path3141-1"
       style="fill:#ffffff;fill-rule:evenodd;stroke:none" />
  </g>
</svg>
