<?xml version="1.0" encoding="UTF-8" standalone="no"?>
<!-- Created with Inkscape (http://www.inkscape.org/) -->

<svg
   xmlns:dc="http://purl.org/dc/elements/1.1/"
   xmlns:cc="http://creativecommons.org/ns#"
   xmlns:rdf="http://www.w3.org/1999/02/22-rdf-syntax-ns#"
   xmlns:svg="http://www.w3.org/2000/svg"
   xmlns="http://www.w3.org/2000/svg"
   version="1.1"
   width="28.000002"
   height="56"
   viewBox="0 0 22.400002 44.799998"
   id="svg3042"
   style="fill-rule:evenodd">
  <metadata
     id="metadata3056">
    <rdf:RDF>
      <cc:Work
         rdf:about="">
        <dc:format>image/svg+xml</dc:format>
        <dc:type
           rdf:resource="http://purl.org/dc/dcmitype/StillImage" />
        <dc:title></dc:title>
      </cc:Work>
    </rdf:RDF>
  </metadata>
  <defs
     id="defs3054" />
  <g
     transform="matrix(0.87500004,0,0,0.87500004,-8.5425091,16.093037)"
     id="g3099">
    <path
       d="m 9.8353893,7.2079561 25.4549567,0 0,25.5999999 -25.4549567,0 0,-25.5999999 z"
       id="path3048"
       style="fill:none;stroke:none" />
    <path
       d="m 20.486697,9.6083752 c 3.602566,0 7.205123,0 10.807679,0 l 2.468492,3.8055278 -2.468492,3.803698 -6.65583,0 0,13.190775 -4.151849,0 0,-11.981368 -6.655339,0 -2.468491,-3.803708 2.468491,-3.805528 6.655339,0 0,-1.2093968 z m 4.151849,1.2093968 0,5.190333 6.137398,0 1.683349,-2.594812 -1.683874,-2.595521 -6.136873,0 z m -4.151849,6.399829 0,-5.190323 -6.137476,0 -1.683322,2.595422 1.683322,2.594901 6.137476,0 z"
       id="path3050"
       style="fill:#ffffff;stroke:none" />
  </g>
  <g
     transform="translate(-0.07252205,-3.2000001)"
     id="g3127">
    <path
       d="m 0.07252205,3.1999981 22.40000195,0 0,22.4000009 -22.40000195,0 0,-22.4000009 z"
       id="path3063"
       style="fill:none;stroke:none" />
    <path
       d="m 9.4558771,5.2998976 c 3.1522389,0 6.3044789,0 9.4567189,0 l 2.159928,3.3298739 -2.159928,3.3282815 -5.823851,0 0,11.542047 -3.6328679,0 0,-10.483813 -5.8234203,0 -2.1599347,-3.328273 2.1599347,-3.3298739 5.8234203,0 0,-1.0582425 z m 3.6328679,1.0582425 0,4.5415829 5.370225,0 1.472926,-2.2704853 -1.473385,-2.2710976 -5.369766,0 z m -3.6328679,5.5999129 0,-4.5415916 -5.3702934,0 -1.4729096,2.2710189 1.4729096,2.2705727 5.3702934,0 z"
       id="path3065"
       style="fill:#000000;stroke:none" />
  </g>
</svg>
