<?xml version="1.0" encoding="utf-8"?>
<!-- Generator: Adobe Illustrator 16.0.4, SVG Export Plug-In . SVG Version: 6.00 Build 0)  -->
<!DOCTYPE svg PUBLIC "-//W3C//DTD SVG 1.1//EN" "http://www.w3.org/Graphics/SVG/1.1/DTD/svg11.dtd">
<svg version="1.1" id="Layer_1" xmlns="http://www.w3.org/2000/svg" xmlns:xlink="http://www.w3.org/1999/xlink" x="0px" y="0px"
	 width="35px" height="35px" viewBox="0 0 35 35" enable-background="new 0 0 35 35" xml:space="preserve">
<rect fill="#919AA3" width="35" height="35"/>
<path fill-rule="evenodd" clip-rule="evenodd" fill="#FFFFFF" d="M-26,9.01v11h14v-11H-26z M-13,22.01v0.01V24
	c0,0.566-0.449,1.01-1.002,1.01h-9.996C-24.544,25.01-25,24.558-25,24v-1.98v-0.01h-1.005c-1.103,0-1.995-0.892-1.995-1.992V9.002
	c0-1.099,0.893-1.992,1.995-1.992h14.01C-10.893,7.01-10,7.901-10,9.002v11.016c0,1.099-0.894,1.992-1.995,1.992H-13z"/>
<g display="none">
	<rect x="13" y="9.944" display="inline" fill="none" width="8.212" height="10.993"/>
	<path display="inline" fill="#FFFFFF" d="M21.212,7.944H13c-1.1,0-2,0.9-2,2V23.95c0,1.1,0.9,2,2,2h8.212c1.1,0,2-0.9,2-2V9.944
		C23.212,8.844,22.312,7.944,21.212,7.944z M21.212,20.938H13V9.944h8.212V20.938z"/>
</g>
<g>
	<path fill="#FFFFFF" d="M15.52,21.938H8.533v-1.471l2.508-2.536c0.744-0.761,1.229-1.289,1.457-1.583
		c0.227-0.294,0.391-0.566,0.492-0.817c0.1-0.25,0.15-0.51,0.15-0.779c0-0.401-0.111-0.7-0.332-0.896s-0.516-0.294-0.885-0.294
		c-0.389,0-0.764,0.089-1.129,0.267c-0.363,0.178-0.744,0.431-1.141,0.759l-1.149-1.36c0.492-0.419,0.9-0.715,1.223-0.889
		c0.324-0.173,0.678-0.307,1.061-0.4s0.811-0.14,1.285-0.14c0.623,0,1.176,0.114,1.654,0.342s0.85,0.547,1.113,0.957
		c0.266,0.41,0.396,0.879,0.396,1.408c0,0.46-0.08,0.892-0.242,1.295s-0.412,0.817-0.752,1.241s-0.938,1.028-1.795,1.811
		l-1.285,1.211v0.096h4.355V21.938z"/>
	<path fill="#FFFFFF" d="M25.513,16.844c0,1.645-0.468,2.906-1.405,3.781c-0.936,0.875-2.288,1.312-4.057,1.312h-2.83v-9.995h3.138
		c1.632,0,2.898,0.431,3.801,1.292S25.513,15.299,25.513,16.844z M23.312,16.899c0-2.146-0.948-3.22-2.844-3.22H19.34v6.508h0.909
		C22.291,20.188,23.312,19.091,23.312,16.899z"/>
</g>
<g>
</g>
<g>
</g>
<g>
</g>
<g>
</g>
<g>
</g>
<g>
</g>
</svg>
