<?xml version="1.0" encoding="utf-8"?>
<!-- Generator: Adobe Illustrator 16.0.4, SVG Export Plug-In . SVG Version: 6.00 Build 0)  -->
<!DOCTYPE svg PUBLIC "-//W3C//DTD SVG 1.1//EN" "http://www.w3.org/Graphics/SVG/1.1/DTD/svg11.dtd">
<svg version="1.1" id="Layer_1" xmlns="http://www.w3.org/2000/svg" xmlns:xlink="http://www.w3.org/1999/xlink" x="0px" y="0px"
	 width="35px" height="35px" viewBox="0 0 35 35" enable-background="new 0 0 35 35" xml:space="preserve">
<rect fill="#919AA3" width="35" height="35"/>
<path fill-rule="evenodd" clip-rule="evenodd" fill="#FFFFFF" d="M10,9.947v11h14v-11H10z M23,22.947v0.01v1.98
	c0,0.566-0.449,1.01-1.002,1.01h-9.996c-0.547,0-1.002-0.452-1.002-1.01v-1.98v-0.01H9.995C8.893,22.947,8,22.056,8,20.955V9.939
	c0-1.098,0.893-1.992,1.995-1.992h14.01C25.107,7.947,26,8.839,26,9.939v11.016c0,1.099-0.894,1.992-1.995,1.992H23z"/>
<g>
	<rect x="12.866" y="9.938" fill="none" width="8.217" height="11"/>
	<g>
		<rect x="12.866" y="9.944" fill="none" width="8.212" height="10.993"/>
		<polygon fill="#FFFFFF" points="12.866,9.944 21.078,9.944 21.078,20.938 21.083,20.938 21.083,9.938 12.866,9.938 		"/>
	</g>
</g>
<g>
</g>
<g>
</g>
<g>
</g>
<g>
</g>
<g>
</g>
<g>
</g>
</svg>
