<?xml version="1.0" encoding="utf-8"?>
<!-- Generator: Adobe Illustrator 16.0.4, SVG Export Plug-In . SVG Version: 6.00 Build 0)  -->
<!DOCTYPE svg PUBLIC "-//W3C//DTD SVG 1.1//EN" "http://www.w3.org/Graphics/SVG/1.1/DTD/svg11.dtd">
<svg version="1.1" id="Layer_1" xmlns="http://www.w3.org/2000/svg" xmlns:xlink="http://www.w3.org/1999/xlink" x="0px" y="0px"
	 width="35px" height="35px" viewBox="0 0 35 35" enable-background="new 0 0 35 35" xml:space="preserve">
<rect fill="#919AA3" width="35" height="35"/>
<path fill-rule="evenodd" clip-rule="evenodd" fill="#FFFFFF" d="M-26,9.01v11h14v-11H-26z M-13,22.01v0.01V24
	c0,0.566-0.449,1.01-1.002,1.01h-9.996C-24.544,25.01-25,24.558-25,24v-1.98v-0.01h-1.005c-1.103,0-1.995-0.892-1.995-1.992V9.002
	c0-1.099,0.893-1.992,1.995-1.992h14.01C-10.893,7.01-10,7.901-10,9.002v11.016c0,1.099-0.894,1.992-1.995,1.992H-13z"/>
<g display="none">
	<rect x="13" y="9.944" display="inline" fill="none" width="8.212" height="10.993"/>
	<path display="inline" fill="#FFFFFF" d="M21.212,7.944H13c-1.1,0-2,0.9-2,2V23.95c0,1.1,0.9,2,2,2h8.212c1.1,0,2-0.9,2-2V9.944
		C23.212,8.844,22.312,7.944,21.212,7.944z M21.212,20.938H13V9.944h8.212V20.938z"/>
</g>
<g>
	<path fill="#FFFFFF" d="M15.129,14.178c0,0.625-0.189,1.155-0.566,1.593c-0.379,0.438-0.91,0.738-1.594,0.902v0.041
		c0.807,0.1,1.418,0.345,1.832,0.735c0.416,0.39,0.623,0.915,0.623,1.576c0,0.961-0.35,1.709-1.047,2.245s-1.693,0.804-2.986,0.804
		c-1.086,0-2.047-0.181-2.885-0.541v-1.797c0.387,0.195,0.813,0.355,1.278,0.479s0.926,0.184,1.381,0.184
		c0.697,0,1.213-0.118,1.545-0.355c0.334-0.236,0.5-0.617,0.5-1.141c0-0.47-0.191-0.803-0.574-0.999s-0.994-0.294-1.832-0.294h-0.76
		v-1.62h0.773c0.773,0,1.34-0.102,1.699-0.304c0.357-0.203,0.535-0.55,0.535-1.042c0-0.756-0.473-1.135-1.422-1.135
		c-0.328,0-0.662,0.055-1,0.164c-0.34,0.109-0.718,0.298-1.133,0.567l-0.977-1.456c0.912-0.656,1.999-0.984,3.26-0.984
		c1.035,0,1.852,0.209,2.451,0.629S15.129,13.431,15.129,14.178z"/>
	<path fill="#FFFFFF" d="M25.513,16.844c0,1.645-0.468,2.906-1.405,3.781c-0.936,0.875-2.288,1.312-4.057,1.312h-2.83v-9.995h3.138
		c1.632,0,2.898,0.431,3.801,1.292S25.513,15.299,25.513,16.844z M23.312,16.899c0-2.146-0.948-3.22-2.844-3.22H19.34v6.508h0.909
		C22.291,20.188,23.312,19.091,23.312,16.899z"/>
</g>
<g>
</g>
<g>
</g>
<g>
</g>
<g>
</g>
<g>
</g>
<g>
</g>
</svg>
