<?xml version="1.0" encoding="utf-8"?>
<!-- Generator: Adobe Illustrator 16.0.4, SVG Export Plug-In . SVG Version: 6.00 Build 0)  -->
<!DOCTYPE svg PUBLIC "-//W3C//DTD SVG 1.1//EN" "http://www.w3.org/Graphics/SVG/1.1/DTD/svg11.dtd">
<svg version="1.1" id="Layer_1" xmlns="http://www.w3.org/2000/svg" xmlns:xlink="http://www.w3.org/1999/xlink" x="0px" y="0px"
	 width="35px" height="35px" viewBox="0 0 35 35" enable-background="new 0 0 35 35" xml:space="preserve">
<rect fill="#919AA3" width="35" height="35"/>
<g>
	<rect x="12.866" y="9.938" fill="none" width="8.217" height="11"/>
	<g>
		<rect x="12.866" y="9.944" fill="none" width="8.212" height="10.993"/>
		<polygon fill="#FFFFFF" points="12.866,9.944 21.078,9.944 21.078,20.938 21.083,20.938 21.083,9.938 12.866,9.938 		"/>
		<path fill="#FFFFFF" d="M21.078,7.944h-8.212c-1.1,0-2,0.9-2,2V23.95c0,1.1,0.9,2,2,2h8.212c1.1,0,2-0.9,2-2V9.944
			C23.078,8.844,22.178,7.944,21.078,7.944z M21.083,20.938h-0.005h-8.212V9.944V9.938h8.217V20.938z"/>
	</g>
</g>
<g>
</g>
<g>
</g>
<g>
</g>
<g>
</g>
<g>
</g>
<g>
</g>
</svg>
