<?xml version="1.0" encoding="UTF-8" standalone="no"?>
<!-- Created with Inkscape (http://www.inkscape.org/) -->

<svg
   xmlns:dc="http://purl.org/dc/elements/1.1/"
   xmlns:cc="http://creativecommons.org/ns#"
   xmlns:rdf="http://www.w3.org/1999/02/22-rdf-syntax-ns#"
   xmlns:svg="http://www.w3.org/2000/svg"
   xmlns="http://www.w3.org/2000/svg"
   version="1.1"
   width="48"
   height="96"
   viewBox="0 0 48 96"
   id="Capa_1"
   xml:space="preserve"><metadata
   id="metadata9"><rdf:RDF><cc:Work
       rdf:about=""><dc:format>image/svg+xml</dc:format><dc:type
         rdf:resource="http://purl.org/dc/dcmitype/StillImage" /><dc:title></dc:title></cc:Work></rdf:RDF></metadata><defs
   id="defs7" />

<path
   d="m 2.439945,34.184897 2.204097,2.204089 c 0.293838,0.294383 0.632052,0.441033 1.01464,0.441033 0.381508,0 0.719722,-0.14665 1.013568,-0.441033 l 17.327484,-17.32694 17.326934,17.326399 c 0.293838,0.294383 0.63206,0.441033 1.014108,0.441033 0.382049,0 0.720262,-0.14665 1.014109,-0.441033 l 2.204079,-2.204086 C 45.853352,33.890513 46,33.5523 46,33.170251 46,32.788201 45.85281,32.449985 45.558964,32.156145 L 25.013834,11.610472 c -0.293838,-0.293841 -0.63206,-0.440492 -1.0141,-0.440492 -0.382048,0 -0.71973,0.146651 -1.013568,0.440492 L 2.439945,32.156145 C 2.146108,32.449985 2,32.788201 2,33.170251 2,33.5523 2.146108,33.890513 2.439945,34.184897 z"
   id="path3-0"
   style="fill:#ff0000;fill-opacity:1" /><path
   d="m 45.560051,61.8151 -2.20409,-2.204086 c -0.293841,-0.294383 -0.632058,-0.441033 -1.014644,-0.441033 -0.381508,0 -0.719724,0.14665 -1.013566,0.441033 L 24.000269,76.937963 6.673333,59.611557 C 6.37949,59.317173 6.041275,59.170523 5.659226,59.170523 c -0.38205,0 -0.720264,0.14665 -1.014108,0.441034 L 2.441033,61.815641 C 2.14665,62.109484 2,62.447699 2,62.829748 c 0,0.382048 0.147191,0.720265 0.441033,1.014107 l 20.545132,20.545678 c 0.293842,0.29385 0.632059,0.44049 1.014104,0.44049 0.38205,0 0.719724,-0.14664 1.013566,-0.44049 L 45.560051,63.843855 C 45.853892,63.550013 46,63.211796 46,62.829748 46,62.447699 45.853892,62.109484 45.560051,61.8151 z"
   id="path3"
   style="fill:#ff0000;fill-opacity:1" /></svg>