<?xml version="1.0" encoding="UTF-8" standalone="no"?>
<!-- Created with Inkscape (http://www.inkscape.org/) -->

<svg
   xmlns:dc="http://purl.org/dc/elements/1.1/"
   xmlns:cc="http://creativecommons.org/ns#"
   xmlns:rdf="http://www.w3.org/1999/02/22-rdf-syntax-ns#"
   xmlns:svg="http://www.w3.org/2000/svg"
   xmlns="http://www.w3.org/2000/svg"
   version="1.1"
   width="100%"
   height="100%"
   viewBox="0 0 80 80"
   id="Capa_1"
   xml:space="preserve"><metadata
   id="metadata39"><rdf:RDF><cc:Work
       rdf:about=""><dc:format>image/svg+xml</dc:format><dc:type
         rdf:resource="http://purl.org/dc/dcmitype/StillImage" /><dc:title></dc:title></cc:Work></rdf:RDF></metadata><defs
   id="defs37">
	
</defs>
<path
   d="m 80,39.982 c 0,8.6 -2.5,16.9 -7.3,24.1 -0.4,0.6 -1,0.9 -1.7,0.9 -0.4,0 -0.8,-0.1 -1.1,-0.3 -0.9,-0.6 -1.2,-1.8 -0.6,-2.8 4.4,-6.5 6.7,-14.1 6.7,-21.9 0,-7.8 -2.3,-15.3 -6.6,-21.9 -0.6,-0.9 -0.4,-2.2 0.6,-2.8 0.9,-0.6 2.2,-0.3 2.8,0.6 4.7,7.2 7.2,15.5 7.2,24.1 z m -10.2,0 c 0,5.8 -1.5,11.6 -4.4,16.8 -0.4,0.6 -1,1 -1.7,1 -0.3,0 -0.7,-0.1 -1,-0.3 -1,-0.5 -1.3,-1.8 -0.8,-2.7 2.6,-4.5 3.9,-9.6 3.9,-14.8 0,-5.2 -1.3,-10.3 -3.9,-14.8 -0.5,-1 -0.2,-2.2 0.8,-2.7 1,-0.5 2.2,-0.2 2.7,0.7 2.9,5.2 4.4,11 4.4,16.8 z m -10.2,0 c 0,3.2 -0.6,6.2 -1.8,9.1 -0.3,0.8 -1.1,1.2 -1.8,1.2 -0.2,0 -0.5,0 -0.8,-0.1 -1,-0.4 -1.5,-1.6 -1.1,-2.6 1,-2.4 1.5,-4.9 1.5,-7.6 0,-2.7 -0.5,-5.2 -1.5,-7.6 -0.4,-1 0.1,-2.2 1.1,-2.6 1,-0.4 2.2,0.1 2.6,1.1 1.2,2.9 1.8,6 1.8,9.1 z M 48,5.982 v 68 c 0,0.8 -0.5,1.5 -1.2,1.8 -0.3,0.1 -0.5,0.2 -0.8,0.2 -0.5,0 -1,-0.2 -1.4,-0.6 L 26.2,56.982 H 2 c -1.1,0 -2,-0.9 -2,-2 v -30 c 0,-1.1 0.9,-2 2,-2 h 24.2 l 18.4,-18.4 c 0.6,-0.6 1.4,-0.7 2.2,-0.4 0.7,0.3 1.2,1 1.2,1.8 z m -23,21 H 4 v 26 h 21 v -26 z m 19,-16.2 -15,15 v 28.3 l 15,15 v -58.3 z"
   id="Volume"
   style="opacity:0.35;fill:#000000;fill-opacity:1" />
<g
   id="g5">
</g>
<g
   id="g7">
</g>
<g
   id="g9">
</g>
<g
   id="g11">
</g>
<g
   id="g13">
</g>
<g
   id="g15">
</g>
<g
   id="g17">
</g>
<g
   id="g19">
</g>
<g
   id="g21">
</g>
<g
   id="g23">
</g>
<g
   id="g25">
</g>
<g
   id="g27">
</g>
<g
   id="g29">
</g>
<g
   id="g31">
</g>
<g
   id="g33">
</g>
</svg>