<?xml version="1.0" encoding="utf-8"?>
<!-- Generator: Adobe Illustrator 18.1.1, SVG Export Plug-In . SVG Version: 6.00 Build 0)  -->
<svg version="1.1" id="Warstwa_1" xmlns="http://www.w3.org/2000/svg" xmlns:xlink="http://www.w3.org/1999/xlink" x="0px" y="0px"
	 viewBox="0 0 374.5 200" enable-background="new 0 0 374.5 200" xml:space="preserve">
<g>
	<path fill="#E61919" d="M355.4,0H196.1c-14.2,0-19.6,11.4-19.6,19.2v111.4c0,3.2,2.8,5.8,6,5.8s6-2.6,6-5.8V19.2
		c0-2.4,0.6-8.2,7.6-8.2h159.3c2.4,0,8.1,1.3,8.1,8.2v161.8c0,1.8-0.8,8.1-8.1,8.1H229.3c-3.2,0-5.8,2.3-5.8,5.5s2.6,5.5,5.8,5.5
		h126.1c14.2,0,19.1-11.3,19.1-19.1V19.2C374.5,4.9,363.2,0,355.4,0z"/>
	<path fill="#E61919" d="M274.6,83.5c2-2.7,1.4-6.4-1.2-8.4c-2.7-2-6.4-1.4-8.4,1.2l-79.4,107.1c-10.8-20.1-40-35.3-76-37.5v-11
		c13-8.2,26.1-30.7,26.1-51.5c0-33.4-0.1-60.9-40.1-60.9c-41.7,0-41.8,28-41.8,60.9c0,20.8,12.8,42.8,27.8,51.5v11
		C36.5,148.8,0,172,0,200h189.7c0-1,0-1.5-0.1-2.3c0.1-0.1,0.1,2.4,0.2,2.3L274.6,83.5z"/>
</g>
</svg>
