<?xml version="1.0" encoding="UTF-8" standalone="no"?>
<!-- Created with Inkscape (http://www.inkscape.org/) -->

<svg
   xmlns:dc="http://purl.org/dc/elements/1.1/"
   xmlns:cc="http://creativecommons.org/ns#"
   xmlns:rdf="http://www.w3.org/1999/02/22-rdf-syntax-ns#"
   xmlns:svg="http://www.w3.org/2000/svg"
   xmlns="http://www.w3.org/2000/svg"
   version="1.1"
   width="100%"
   height="100%"
   viewBox="0 0 100 100"
   id="Capa_1"
   xml:space="preserve"><metadata
   id="metadata43"><rdf:RDF><cc:Work
       rdf:about=""><dc:format>image/svg+xml</dc:format><dc:type
         rdf:resource="http://purl.org/dc/dcmitype/StillImage" /><dc:title></dc:title></cc:Work></rdf:RDF></metadata><defs
   id="defs41" />
<g
   id="g3"
   style="fill:#b4b4b4;fill-opacity:1">
	<g
   id="g5"
   style="fill:#b4b4b4;fill-opacity:1">
		<path
   d="m 100,94 c 0,0 -0.197,-18.934 -1.354,-20.896 -1.721,-2.923 -5.729,-4.932 -13.17,-8.041 -7.416,-3.101 -9.787,-5.716 -9.787,-11.316 0,-3.364 2.264,-2.264 3.26,-8.419 0.412,-2.555 2.412,-0.043 2.795,-5.872 0,-2.324 -1.092,-2.903 -1.092,-2.903 0,0 0.555,-3.437 0.771,-6.084 0.27,-3.298 -1.662,-11.815 -11.955,-11.815 -10.295,0 -12.225,8.518 -11.955,11.815 0.217,2.647 0.77,6.084 0.77,6.084 0,0 -1.09,0.579 -1.09,2.903 0.383,5.829 2.381,3.317 2.795,5.872 0.994,6.155 3.26,5.056 3.26,8.419 0,3.807 -1.102,6.235 -4.137,8.375 16.203,8.111 18.375,9.764 18.375,17.015 V 94 H 100 z M 51.117,67.877 C 41.226,63.743 38.066,60.256 38.066,52.791 c 0,-4.483 3.02,-3.019 4.346,-11.228 0.549,-3.404 3.217,-0.056 3.727,-7.829 0,-3.098 -1.455,-3.868 -1.455,-3.868 0,0 0.74,-4.583 1.029,-8.112 C 46.072,17.357 43.498,6 29.771,6 16.047,6 13.471,17.357 13.832,21.754 c 0.289,3.529 1.027,8.112 1.027,8.112 0,0 -1.455,0.77 -1.455,3.868 0.512,7.773 3.178,4.425 3.729,7.829 1.326,8.208 4.346,6.744 4.346,11.228 0,7.465 -3.162,10.952 -13.051,15.086 C 5.414,69.137 0,71.088 0,75.783 V 94 h 69.469 c 0,0 0,-10.776 0,-13.659 0,-4.282 -8.432,-8.316 -18.352,-12.464 z"
   id="path7"
   style="fill:#b4b4b4;fill-opacity:1" />
	</g>
</g>
<g
   id="g9">
</g>
<g
   id="g11">
</g>
<g
   id="g13">
</g>
<g
   id="g15">
</g>
<g
   id="g17">
</g>
<g
   id="g19">
</g>
<g
   id="g21">
</g>
<g
   id="g23">
</g>
<g
   id="g25">
</g>
<g
   id="g27">
</g>
<g
   id="g29">
</g>
<g
   id="g31">
</g>
<g
   id="g33">
</g>
<g
   id="g35">
</g>
<g
   id="g37">
</g>
</svg>