<?xml version="1.0" encoding="UTF-8" standalone="no"?>
<!-- Created with Inkscape (http://www.inkscape.org/) -->

<svg
   xmlns:dc="http://purl.org/dc/elements/1.1/"
   xmlns:cc="http://creativecommons.org/ns#"
   xmlns:rdf="http://www.w3.org/1999/02/22-rdf-syntax-ns#"
   xmlns:svg="http://www.w3.org/2000/svg"
   xmlns="http://www.w3.org/2000/svg"
   version="1.1"
   width="100%"
   height="100%"
   viewBox="0 0 286.387 286.387"
   id="Capa_1"
   xml:space="preserve"><metadata
   id="metadata40"><rdf:RDF><cc:Work
       rdf:about=""><dc:format>image/svg+xml</dc:format><dc:type
         rdf:resource="http://purl.org/dc/dcmitype/StillImage" /><dc:title></dc:title></cc:Work></rdf:RDF></metadata><defs
   id="defs38" />
<g
   id="Group"
   style="fill:#b4b4b4;fill-opacity:1">
	<path
   d="m 143.193,143.313 c 25.104,0 44.629,-26.037 44.629,-52.99 v -8.444 c 0,-26.952 -19.525,-46.076 -44.629,-46.076 -25.105,0 -44.63,19.123 -44.63,46.076 v 8.444 c 0,26.953 19.525,52.99 44.63,52.99 z m -89.414,8.717 c 7.178,0 26.821,-9.313 26.821,-28.637 v -14.319 c 0,-19.325 -14.17,-28.638 -26.821,-28.638 -12.231,0 -26.82,9.313 -26.82,28.638 v 14.319 c 0,19.324 20.024,28.637 26.82,28.637 z m 160.7,35.804 c -0.014,-0.14 -0.056,-0.273 -0.07,-0.412 -0.21,-1.686 -0.532,-3.335 -0.979,-4.95 0,-0.015 0,-0.028 -0.014,-0.042 -0.937,-3.433 -2.518,-6.74 -4.88,-9.998 v -0.014 c -3.874,-5.362 -9.718,-10.831 -19.213,-16.164 -5.02,-2.819 -7.23,-4.111 -10.333,-4.111 -4.936,0 -9.243,3.838 -16.499,10.501 h -0.015 l -6.6,6.068 c -0.238,0.225 -7.354,10.278 -12.682,10.278 -5.328,0 -12.445,-10.054 -12.683,-10.278 l -6.6,-6.068 h -0.014 c -7.256,-6.663 -11.563,-10.501 -16.499,-10.501 -3.104,0 -5.874,1.292 -10.333,4.111 -9.206,5.811 -15.341,10.795 -19.199,16.149 l -0.015,0.007 c -0.014,0.014 -0.014,0.036 -0.027,0.048 -2.336,3.231 -3.902,6.517 -4.838,9.929 -0.013,0.028 -0.029,0.063 -0.04,0.097 -0.435,1.603 -0.757,3.23 -0.966,4.901 -0.014,0.155 -0.056,0.301 -0.071,0.455 -0.196,1.776 -0.307,3.587 -0.307,5.467 0,0.209 -0.004,39.195 0,39.377 0,12.724 4.796,17.898 17.898,17.898 h 107.39 c 13.215,0 17.898,-4.895 17.898,-17.898 0.004,-0.182 -0.001,-39.168 -0.001,-39.377 -0.001,-1.879 -0.113,-3.69 -0.308,-5.473 z m 18.285,-35.804 c 7.177,0 26.822,-9.313 26.822,-28.637 v -14.319 c 0,-19.325 -14.17,-28.638 -26.822,-28.638 -12.232,0 -26.821,9.313 -26.821,28.638 v 14.319 c 0,19.324 20.024,28.637 26.821,28.637 z M 20.366,171.411 c -16.655,9.481 -20.36,24.597 -20.36,34.427 0,0.153 -0.014,17.759 0,17.898 0,12.99 4.363,17.899 17.898,17.899 h 35.797 c 0,0 0,-38.034 0,-53.696 l -8.949,-8.949 c -9.468,-8.348 -17.45,-11.522 -24.386,-7.579 z m 33.335,16.528 c 0.197,0.17 0,-4.25 0,0 l 0,0 z m 232.68,17.899 c 0,-9.831 -3.706,-24.947 -20.36,-34.427 -6.936,-3.943 -14.918,-0.769 -24.386,7.58 l -8.949,8.949 c 0,15.661 0,53.696 0,53.696 h 35.797 c 13.535,0 17.898,-4.909 17.898,-17.899 0.014,-0.14 0,-17.745 0,-17.899 z m -53.696,-17.899 c 0,-4.25 -0.196,0.17 0,0 l 0,0 z"
   id="path4"
   style="fill:#b4b4b4;fill-opacity:1;fill-rule:evenodd" />
</g>
<g
   id="g6">
</g>
<g
   id="g8">
</g>
<g
   id="g10">
</g>
<g
   id="g12">
</g>
<g
   id="g14">
</g>
<g
   id="g16">
</g>
<g
   id="g18">
</g>
<g
   id="g20">
</g>
<g
   id="g22">
</g>
<g
   id="g24">
</g>
<g
   id="g26">
</g>
<g
   id="g28">
</g>
<g
   id="g30">
</g>
<g
   id="g32">
</g>
<g
   id="g34">
</g>
</svg>