<?xml version="1.0" encoding="UTF-8"?>
<!DOCTYPE svg PUBLIC "-//W3C//DTD SVG 1.1//EN" "http://www.w3.org/Graphics/SVG/1.1/DTD/svg11.dtd">
<!-- Creator: CorelDRAW X6 -->
<svg xmlns="http://www.w3.org/2000/svg" xml:space="preserve" width="1921px" height="1080px" version="1.1" style="shape-rendering:geometricPrecision; text-rendering:geometricPrecision; image-rendering:optimizeQuality; fill-rule:evenodd; clip-rule:evenodd"
viewBox="0 0 1918 1078"
 xmlns:xlink="http://www.w3.org/1999/xlink">
 <defs>
  <style type="text/css">
   <![CDATA[
    .str16 {stroke:black;stroke-width:0.754731;stroke-opacity:0.501961}
    .str25 {stroke:#000066;stroke-width:0.754731;stroke-opacity:0.501961}
    .str19 {stroke:blue;stroke-width:0.754731;stroke-opacity:0.501961}
    .str20 {stroke:#003333;stroke-width:0.754731;stroke-opacity:0.501961}
    .str17 {stroke:#003399;stroke-width:0.754731;stroke-opacity:0.501961}
    .str7 {stroke:#00CCFF;stroke-width:0.754731;stroke-opacity:0.501961}
    .str8 {stroke:#330066;stroke-width:0.754731;stroke-opacity:0.501961}
    .str24 {stroke:#330099;stroke-width:0.754731;stroke-opacity:0.501961}
    .str5 {stroke:#336699;stroke-width:0.754731;stroke-opacity:0.501961}
    .str9 {stroke:#339966;stroke-width:0.754731;stroke-opacity:0.501961}
    .str23 {stroke:#33CC66;stroke-width:0.754731;stroke-opacity:0.501961}
    .str4 {stroke:#33CC99;stroke-width:0.754731;stroke-opacity:0.501961}
    .str10 {stroke:#660066;stroke-width:0.754731;stroke-opacity:0.501961}
    .str12 {stroke:#663300;stroke-width:0.754731;stroke-opacity:0.501961}
    .str1 {stroke:#663333;stroke-width:0.754731;stroke-opacity:0.501961}
    .str6 {stroke:#666633;stroke-width:0.754731;stroke-opacity:0.501961}
    .str11 {stroke:gray;stroke-width:0.754731;stroke-opacity:0.501961}
    .str18 {stroke:#990099;stroke-width:0.754731;stroke-opacity:0.501961}
    .str14 {stroke:#993366;stroke-width:0.754731;stroke-opacity:0.501961}
    .str0 {stroke:#996699;stroke-width:0.754731;stroke-opacity:0.501961}
    .str2 {stroke:#999999;stroke-width:0.754731;stroke-opacity:0.501961}
    .str3 {stroke:#99CCCC;stroke-width:0.754731;stroke-opacity:0.501961}
    .str21 {stroke:#CC99CC;stroke-width:0.754731;stroke-opacity:0.501961}
    .str13 {stroke:#CCFF66;stroke-width:0.754731;stroke-opacity:0.501961}
    .str15 {stroke:red;stroke-width:0.754731;stroke-opacity:0.501961}
    .str22 {stroke:#FF6600;stroke-width:0.754731;stroke-opacity:0.501961}
    .fil0 {fill:none}
    .fil14 {fill:none}
    .fil66 {fill:#000066}
    .fil97 {fill:blue}
    .fil75 {fill:#00CCFF}
    .fil67 {fill:aqua}
    .fil81 {fill:#330066}
    .fil73 {fill:#336666}
    .fil77 {fill:#336699}
    .fil88 {fill:#339966}
    .fil84 {fill:#33CC33}
    .fil9 {fill:#33CC66}
    .fil79 {fill:#669999}
    .fil76 {fill:#6699FF}
    .fil1 {fill:#66FFCC}
    .fil93 {fill:#990099}
    .fil64 {fill:#9900CC}
    .fil68 {fill:#9966CC}
    .fil59 {fill:#999999}
    .fil80 {fill:#9999FF}
    .fil92 {fill:#99CC33}
    .fil63 {fill:#99CC99}
    .fil89 {fill:#99CCCC}
    .fil87 {fill:#99FF99}
    .fil5 {fill:#99FFFF}
    .fil4 {fill:#ADC5FF}
    .fil65 {fill:#B3B3B3}
    .fil85 {fill:#CC3366}
    .fil82 {fill:#CC6699}
    .fil95 {fill:#CC9933}
    .fil91 {fill:#CC99FF}
    .fil69 {fill:#CCCCFF}
    .fil72 {fill:#CCFF66}
    .fil2 {fill:#CCFFCC}
    .fil96 {fill:red}
    .fil70 {fill:#FF6600}
    .fil61 {fill:#FF6633}
    .fil7 {fill:#FF6666}
    .fil94 {fill:#FF6699}
    .fil74 {fill:#FF9933}
    .fil86 {fill:#FF9999}
    .fil60 {fill:#FF99CC}
    .fil71 {fill:#FF99FF}
    .fil78 {fill:#FFCC00}
    .fil8 {fill:#FFCC99}
    .fil6 {fill:#FFCCCC}
    .fil3 {fill:yellow}
    .fil83 {fill:#FFFF99}
    .fil90 {fill:#FFFFCC}
    .fil62 {fill:white}
    .fil49 {fill:#000066;fill-opacity:0.250980}
    .fil48 {fill:#00CCFF;fill-opacity:0.250980}
    .fil58 {fill:lime;fill-opacity:0.250980}
    .fil50 {fill:#336699;fill-opacity:0.250980}
    .fil53 {fill:#669999;fill-opacity:0.250980}
    .fil56 {fill:#9900CC;fill-opacity:0.250980}
    .fil51 {fill:#993366;fill-opacity:0.250980}
    .fil52 {fill:#99CCCC;fill-opacity:0.250980}
    .fil55 {fill:#CCCC33;fill-opacity:0.250980}
    .fil57 {fill:#FF0066;fill-opacity:0.250980}
    .fil47 {fill:#FF6633;fill-opacity:0.250980}
    .fil54 {fill:yellow;fill-opacity:0.250980}
    .fil46 {fill:#003399;fill-opacity:0.501961}
    .fil12 {fill:#00CCFF;fill-opacity:0.501961}
    .fil18 {fill:lime;fill-opacity:0.501961}
    .fil25 {fill:#330066;fill-opacity:0.501961}
    .fil28 {fill:#330099;fill-opacity:0.501961}
    .fil11 {fill:#336666;fill-opacity:0.501961}
    .fil26 {fill:#336699;fill-opacity:0.501961}
    .fil19 {fill:#339966;fill-opacity:0.501961}
    .fil41 {fill:#33CC33;fill-opacity:0.501961}
    .fil21 {fill:#33CC66;fill-opacity:0.501961}
    .fil15 {fill:#6666FF;fill-opacity:0.501961}
    .fil45 {fill:#66FFCC;fill-opacity:0.501961}
    .fil29 {fill:#9900CC;fill-opacity:0.501961}
    .fil22 {fill:#993366;fill-opacity:0.501961}
    .fil42 {fill:#996633;fill-opacity:0.501961}
    .fil35 {fill:#996699;fill-opacity:0.501961}
    .fil36 {fill:#9966FF;fill-opacity:0.501961}
    .fil17 {fill:#99CCCC;fill-opacity:0.501961}
    .fil27 {fill:#99FF00;fill-opacity:0.501961}
    .fil33 {fill:#99FFFF;fill-opacity:0.501961}
    .fil13 {fill:#CC3399;fill-opacity:0.501961}
    .fil44 {fill:#CC33FF;fill-opacity:0.501961}
    .fil37 {fill:#CC99FF;fill-opacity:0.501961}
    .fil39 {fill:#CCCCFF;fill-opacity:0.501961}
    .fil32 {fill:#CCFF66;fill-opacity:0.501961}
    .fil20 {fill:#E6E6E6;fill-opacity:0.501961}
    .fil10 {fill:#FF6600;fill-opacity:0.501961}
    .fil40 {fill:#FF6633;fill-opacity:0.501961}
    .fil34 {fill:#FF9933;fill-opacity:0.501961}
    .fil24 {fill:#FF9999;fill-opacity:0.501961}
    .fil16 {fill:#FF99CC;fill-opacity:0.501961}
    .fil30 {fill:#FF99FF;fill-opacity:0.501961}
    .fil23 {fill:#FFCC99;fill-opacity:0.501961}
    .fil38 {fill:#FFCCCC;fill-opacity:0.501961}
    .fil31 {fill:yellow;fill-opacity:0.501961}
    .fil43 {fill:#FFFF66;fill-opacity:0.501961}
   ]]>
  </style>
 </defs>
 <g id="Layer_x0020_1">
  <metadata id="CorelCorpID_0Corel-Layer"/>
  <g id="_142604544">
   <rect class="fil0" x="4" width="1913" height="1076"/>
   <polygon class="fil1" points="1891,1008 1828,1008 1917,955 "/>
   <polygon class="fil2" points="199,1041 63,1032 102,966 "/>
   <polygon class="fil3" points="1917,1076 1828,1008 1891,1008 "/>
   <polygon class="fil4" points="1917,1076 1688,1076 1828,1008 "/>
   <polygon class="fil5" points="1547,1076 1388,1076 1508,981 "/>
   <polygon class="fil6" points="1080,1076 928,1076 1082,1058 "/>
   <polygon class="fil7" points="1205,1076 1080,1076 1174,1047 "/>
   <polygon class="fil8" points="915,1060 813,1006 972,1032 "/>
   <polygon class="fil5" points="1174,1047 928,1076 1125,1017 "/>
   <polygon class="fil2" points="461,1076 316,1070 440,1018 "/>
   <polygon class="fil9" points="316,1070 188,1076 298,1048 "/>
   <polygon class="fil10" points="4,850 61,815 34,865 "/>
   <polygon class="fil11" points="4,807 4,850 61,815 "/>
   <polygon class="fil12" points="136,592 109,613 123,617 "/>
   <polygon class="fil13" points="135,805 150,786 139,786 "/>
   <polygon class="fil14 str0" points="183,690 268,662 312,708 "/>
   <polygon class="fil15" points="68,652 4,595 4,691 231,706 "/>
   <polygon class="fil16" points="231,706 4,691 68,652 "/>
   <polygon class="fil12" points="126,744 4,691 96,685 "/>
   <polygon class="fil17" points="126,744 96,685 231,706 "/>
   <polygon class="fil18" points="143,677 48,634 68,652 "/>
   <polygon class="fil19" points="262,793 126,744 155,709 231,706 "/>
   <polygon class="fil20" points="231,706 155,709 262,793 "/>
   <polygon class="fil21" points="73,706 126,744 44,792 "/>
   <polygon class="fil22" points="73,706 44,792 39,706 "/>
   <polygon class="fil23" points="4,738 4,691 39,706 "/>
   <polygon class="fil24" points="250,692 212,700 231,706 "/>
   <polygon class="fil25" points="196,671 101,658 143,677 "/>
   <polygon class="fil26" points="143,677 196,671 183,690 "/>
   <polygon class="fil14 str1" points="183,690 196,671 268,662 "/>
   <polygon class="fil14 str2" points="127,662 196,671 151,641 "/>
   <polygon class="fil14 str3" points="127,662 151,641 88,652 101,658 "/>
   <polygon class="fil27" points="126,744 194,768 81,770 "/>
   <polygon class="fil14 str4" points="172,655 196,671 199,645 "/>
   <polygon class="fil14 str5" points="196,671 199,645 228,655 "/>
   <polygon class="fil14 str6" points="196,671 228,655 247,655 "/>
   <polygon class="fil11" points="137,769 47,790 85,757 "/>
   <polygon class="fil14 str7" points="44,792 4,738 42,752 "/>
   <polygon class="fil14 str8" points="40,728 4,738 27,726 "/>
   <polygon class="fil14 str9" points="48,634 88,652 86,607 "/>
   <polygon class="fil14 str10" points="48,634 86,607 4,595 "/>
   <polygon class="fil10" points="136,592 107,592 120,611 "/>
   <polygon class="fil28" points="135,805 155,800 142,789 "/>
   <polygon class="fil29" points="120,611 107,592 109,613 "/>
   <polygon class="fil26" points="142,789 155,800 150,786 "/>
   <polygon class="fil30" points="323,664 311,661 312,669 "/>
   <polygon class="fil13" points="261,705 266,697 257,694 "/>
   <polygon class="fil14 str11" points="312,708 246,749 356,710 "/>
   <polygon class="fil25" points="281,765 279,744 268,756 "/>
   <polygon class="fil29" points="281,765 296,754 286,753 "/>
   <polygon class="fil12" points="286,753 296,754 279,744 "/>
   <polygon class="fil31" points="279,744 281,765 286,753 "/>
   <polygon class="fil14 str12" points="313,783 248,788 263,764 "/>
   <polygon class="fil14 str13" points="171,769 215,776 192,761 "/>
   <polygon class="fil14 str14" points="312,783 303,768 329,765 "/>
   <polygon class="fil14 str15" points="181,795 220,796 215,776 "/>
   <polygon class="fil14 str16" points="150,783 120,788 137,769 "/>
   <polygon class="fil14 str17" points="248,788 220,796 222,818 "/>
   <polygon class="fil14 str0" points="4,807 120,788 44,792 "/>
   <polygon class="fil14 str18" points="363,733 346,728 344,738 "/>
   <polygon class="fil14 str16" points="26,629 4,652 40,647 "/>
   <polygon class="fil14 str19" points="181,795 150,783 171,769 "/>
   <polygon class="fil14 str20" points="61,815 4,807 76,838 "/>
   <polygon class="fil12" points="436,659 387,673 380,716 "/>
   <polygon class="fil31" points="1917,689 1807,639 1890,626 "/>
   <polygon class="fil14 str21" points="1883,462 1804,457 1917,400 "/>
   <polygon class="fil14 str22" points="1591,554 1570,582 1532,540 "/>
   <polygon class="fil32" points="1860,555 1917,481 1743,529 "/>
   <polygon class="fil33" points="1860,555 1743,529 1696,599 "/>
   <polygon class="fil34" points="1859,497 1743,529 1745,465 "/>
   <polygon class="fil35" points="1917,481 1859,497 1917,446 "/>
   <polygon class="fil36" points="1648,547 1743,529 1720,564 "/>
   <polygon class="fil23" points="1743,529 1648,547 1671,506 "/>
   <polygon class="fil37" points="1622,655 1696,599 1735,658 "/>
   <polygon class="fil38" points="1696,599 1628,655 1556,614 "/>
   <polygon class="fil39" points="1917,481 1860,555 1917,577 "/>
   <polygon class="fil40" points="1790,478 1859,497 1892,469 "/>
   <polygon class="fil41" points="1860,555 1696,599 1735,658 "/>
   <polygon class="fil42" points="1720,564 1648,547 1696,599 "/>
   <polygon class="fil14 str23" points="1853,599 1735,658 1829,683 "/>
   <polygon class="fil14 str10" points="1890,652 1853,599 1917,622 "/>
   <polygon class="fil14 str20" points="1720,682 1735,658 1683,640 "/>
   <polygon class="fil14 str24" points="1696,599 1648,547 1570,582 "/>
   <polygon class="fil43" points="1804,586 1735,658 1753,598 "/>
   <polygon class="fil19" points="1735,658 1804,586 1815,605 "/>
   <polygon class="fil17" points="1557,704 1582,679 1606,697 "/>
   <polygon class="fil18" points="1798,469 1800,442 1811,455 "/>
   <polygon class="fil44" points="1752,710 1728,703 1745,701 "/>
   <polygon class="fil33" points="1810,454 1800,442 1824,452 "/>
   <polygon class="fil45" points="1743,702 1728,703 1748,695 "/>
   <polygon class="fil29" points="1799,468 1810,454 1824,452 "/>
   <polygon class="fil28" points="1752,709 1743,702 1748,695 "/>
   <polygon class="fil14 str22" points="1529,612 1513,604 1487,628 "/>
   <polygon class="fil14 str7" points="1529,612 1524,595 1556,614 "/>
   <polygon class="fil14 str25" points="1626,627 1556,614 1570,582 "/>
   <polygon class="fil22" points="1780,471 1789,461 1793,479 "/>
   <polygon class="fil46" points="1550,567 1551,581 1535,571 "/>
   <polygon class="fil47" points="702,1049 551,995 461,1076 "/>
   <polygon class="fil48" points="298,1048 176,986 63,1032 "/>
   <polygon class="fil48" points="990,1028 851,936 923,1034 "/>
   <polygon class="fil49" points="1084,1040 1174,1047 1080,1076 "/>
   <polygon class="fil49" points="813,1006 702,1049 915,1060 "/>
   <polygon class="fil50" points="1300,997 1174,1047 1388,1076 "/>
   <polygon class="fil51" points="63,1032 298,1048 188,1076 "/>
   <polygon class="fil52" points="298,1048 467,978 377,983 "/>
   <polygon class="fil53" points="1207,995 1125,936 1149,994 "/>
   <polygon class="fil54" points="1405,996 1388,1076 1508,981 "/>
   <polygon class="fil55" points="1705,1014 1508,981 1547,1076 "/>
   <polygon class="fil47" points="4,998 63,1032 4,1076 "/>
   <polygon class="fil56" points="440,1018 551,995 614,1059 "/>
   <polygon class="fil57" points="1828,1008 1688,1076 1757,1002 "/>
   <polygon class="fil49" points="1917,955 1917,1076 1891,1008 "/>
   <polygon class="fil58" points="1684,947 1797,944 1764,972 "/>
   <polygon class="fil59" points="418,1015 412,1034 397,1026 "/>
   <polygon class="fil60" points="1063,955 1088,985 1059,999 "/>
   <polygon class="fil61" points="1851,992 1868,970 1847,961 "/>
   <polygon class="fil62" points="1044,1020 1040,1044 1031,1032 "/>
   <polygon class="fil63" points="928,1076 972,1032 991,1062 "/>
   <polygon class="fil64" points="1826,962 1839,969 1831,972 "/>
   <polygon class="fil65" points="1083,951 1080,963 1076,958 "/>
   <polygon class="fil66" points="1794,986 1793,993 1790,990 "/>
   <polygon class="fil67" points="1024,986 1023,994 1031,993 "/>
   <polygon class="fil9" points="1114,1012 1093,1008 1100,1016 "/>
   <polygon class="fil68" points="1093,1021 1085,1017 1085,1023 "/>
   <polygon class="fil69" points="1433,1040 1430,1034 1445,1031 "/>
   <polygon class="fil70" points="1466,984 1456,986 1461,991 "/>
   <polygon class="fil71" points="67,687 52,688 59,675 "/>
   <polygon class="fil72" points="223,698 231,699 222,703 "/>
   <polygon class="fil3" points="1006,1052 975,1070 1012,1076 "/>
   <polygon class="fil73" points="1039,1045 1024,1049 1040,1033 "/>
   <polygon class="fil74" points="1012,1076 975,1070 999,1066 "/>
   <polygon class="fil75" points="655,1003 653,1018 676,1009 "/>
   <polygon class="fil76" points="655,1003 653,1018 661,1009 "/>
   <polygon class="fil77" points="1088,985 1059,999 1076,980 "/>
   <polygon class="fil78" points="1088,985 1076,980 1063,955 "/>
   <polygon class="fil75" points="1040,1033 1024,1049 1022,1040 "/>
   <polygon class="fil76" points="1436,992 1446,993 1443,978 "/>
   <polygon class="fil1" points="1446,993 1443,978 1452,985 "/>
   <polygon class="fil3" points="1534,1053 1522,1057 1537,1069 "/>
   <polygon class="fil71" points="1560,1049 1557,1055 1563,1057 "/>
   <polygon class="fil69" points="1915,1070 1874,1041 1905,1013 "/>
   <polygon class="fil79" points="1865,1078 1864,1062 1871,1068 "/>
   <polygon class="fil9" points="1836,1042 1864,1038 1852,1031 "/>
   <polygon class="fil68" points="1891,998 1902,1000 1900,992 "/>
   <polygon class="fil5" points="1874,1041 1905,1013 1890,1043 "/>
   <polygon class="fil60" points="1874,1041 1890,1043 1915,1070 "/>
   <polygon class="fil80" points="878,969 877,1007 898,996 "/>
   <polygon class="fil70" points="39,706 17,726 4,703 "/>
   <polygon class="fil81" points="55,729 38,725 43,734 "/>
   <polygon class="fil8" points="1004,978 915,961 959,950 "/>
   <polygon class="fil82" points="809,1000 802,994 807,985 "/>
   <polygon class="fil6" points="809,1000 807,985 816,993 "/>
   <polygon class="fil5" points="875,1039 856,1028 862,1042 "/>
   <polygon class="fil69" points="1040,906 1035,920 1048,918 "/>
   <polygon class="fil71" points="1138,1068 1114,1060 1120,1048 "/>
   <polygon class="fil83" points="88,685 81,679 78,688 "/>
   <polygon class="fil84" points="88,685 78,688 85,692 "/>
   <polygon class="fil80" points="94,734 104,727 96,745 "/>
   <polygon class="fil5" points="96,745 104,727 108,734 "/>
   <polygon class="fil85" points="16,650 18,682 46,665 "/>
   <polygon class="fil86" points="229,736 187,756 194,734 "/>
   <polygon class="fil87" points="71,813 62,800 56,812 "/>
   <polygon class="fil88" points="71,813 56,812 64,807 "/>
   <polygon class="fil73" points="71,813 64,807 62,800 "/>
   <polygon class="fil75" points="17,795 15,827 37,807 "/>
   <polygon class="fil89" points="1840,551 1804,570 1811,532 "/>
   <polygon class="fil2" points="1714,529 1704,534 1718,539 "/>
   <polygon class="fil77" points="1674,613 1668,615 1671,619 "/>
   <g>
    <polygon class="fil1" points="1710,632 1689,635 1697,618 "/>
    <polygon class="fil60" points="1710,632 1689,635 1699,626 "/>
    <polygon class="fil3" points="1689,635 1697,618 1699,626 "/>
   </g>
   <polygon class="fil1" points="1855,585 1890,626 1917,577 "/>
   <polygon class="fil2" points="1917,577 1890,626 1891,603 "/>
   <polygon class="fil90" points="316,1070 350,1064 347,1027 "/>
   <polygon class="fil91" points="265,1066 282,1066 269,1055 "/>
   <polygon class="fil75" points="4,1076 188,1076 63,1032 "/>
   <polygon class="fil71" points="4,998 63,1032 38,981 "/>
   <polygon class="fil70" points="461,1076 188,1076 316,1070 "/>
   <polygon class="fil88" points="676,1076 702,1049 928,1076 "/>
   <polygon class="fil3" points="676,1076 702,1049 461,1076 "/>
   <polygon class="fil90" points="508,1034 440,1018 461,1076 "/>
   <polygon class="fil92" points="928,1076 702,1049 915,1060 "/>
   <polygon class="fil93" points="972,1032 915,1060 928,1076 "/>
   <polygon class="fil89" points="1388,1076 1174,1047 1205,1076 "/>
   <polygon class="fil69" points="1328,1022 1388,1076 1405,996 "/>
   <polygon class="fil72" points="1309,1053 1277,1013 1338,1029 "/>
   <polygon class="fil8" points="1688,1076 1547,1076 1705,1014 "/>
   <polygon class="fil94" points="1757,1002 1688,1076 1705,1014 "/>
   <polygon class="fil5" points="63,1032 38,981 102,966 "/>
   <polygon class="fil95" points="4,966 38,981 4,998 "/>
   <polygon class="fil69" points="38,981 48,934 102,966 "/>
   <polygon class="fil96" points="912,883 886,902 899,906 "/>
   <polygon class="fil97" points="46,955 31,958 38,962 "/>
   <polygon class="fil78" points="78,941 77,959 92,956 "/>
   <polygon class="fil96" points="72,904 66,910 72,912 "/>
   <polygon class="fil91" points="1828,1008 1818,994 1757,1002 "/>
   <polygon class="fil5" points="1760,1049 1781,1054 1778,1042 "/>
  </g>
 </g>
</svg>
