<?xml version="1.0" encoding="utf-8"?>
<!-- Generator: Adobe Illustrator 16.0.4, SVG Export Plug-In . SVG Version: 6.00 Build 0)  -->
<!DOCTYPE svg PUBLIC "-//W3C//DTD SVG 1.1//EN" "http://www.w3.org/Graphics/SVG/1.1/DTD/svg11.dtd">
<svg version="1.1"
	 id="svg3003" xmlns:dc="http://purl.org/dc/elements/1.1/" xmlns:cc="http://creativecommons.org/ns#" xmlns:rdf="http://www.w3.org/1999/02/22-rdf-syntax-ns#" xmlns:svg="http://www.w3.org/2000/svg"
	 xmlns="http://www.w3.org/2000/svg" xmlns:xlink="http://www.w3.org/1999/xlink" x="0px" y="0px" width="102px" height="144px"
	 viewBox="0 0 102 144" enable-background="new 0 0 102 144" xml:space="preserve">
<path id="path3015" fill="#FFFFFF" d="M93.889,112.523c0,0.854-0.427,1.707-1.065,2.348l-17.918,17.928
	c-0.64,0.64-1.49,1.066-2.345,1.066c-1.067,0-1.919-0.427-2.562-1.066l-2.132-2.134c-0.64-0.64-1.065-1.495-1.065-2.349
	c0-1.066,0.424-1.92,1.065-2.561l8.106-8.11H56.776c-1.067,0-1.917-0.212-2.347-0.854c-0.639-0.854-0.854-1.707-0.854-2.561v-3.414
	c0-1.068,0.212-1.92,0.854-2.561c0.428-0.639,1.279-1.068,2.347-1.068h19.197l-8.106-8.109c-0.639-0.64-1.065-1.494-1.065-2.347
	c0-1.068,0.426-1.921,1.065-2.56l2.134-1.922c0.641-0.852,1.494-1.066,2.562-1.066c0.853,0,1.703,0.215,2.345,1.066l17.918,17.715
	C93.462,110.604,93.889,111.458,93.889,112.523z"/>
</svg>
