<?xml version="1.0" encoding="UTF-8" standalone="no"?>
<!-- Created with sK1/UniConvertor (http://sk1project.org/) -->
<svg id="svg2985" xmlns:rdf="http://www.w3.org/1999/02/22-rdf-syntax-ns#" xmlns="http://www.w3.org/2000/svg" fill-rule="evenodd" height="76" width="150.08" version="1.1" xmlns:cc="http://creativecommons.org/ns#" xmlns:dc="http://purl.org/dc/elements/1.1/" viewBox="0 0 120.06 60.799999">
 <metadata id="metadata2997">
  <rdf:RDF>
   <cc:Work rdf:about="">
    <dc:format>image/svg+xml</dc:format>
    <dc:type rdf:resource="http://purl.org/dc/dcmitype/StillImage"/>
    <dc:title/>
   </cc:Work>
  </rdf:RDF>
 </metadata>
 <g id="g2987" fill="#FFF" transform="matrix(3.3333335,0,0,3.3333335,-1343.1201,-1769.0334)">
  <g id="g2989" fill="#FFF">
   <path id="path2991" fill="#FFF" d="m406.47,536.57-1.582,0c-0.279,0-0.517-0.083-0.714-0.251l-0.718-0.625c-0.23-0.191-0.344-0.45-0.344-0.776v-0.965c-0.012-0.314,0.117-0.588,0.388-0.82l0.648-0.56c0.208-0.17,0.431-0.255,0.67-0.255h1.661c0.103,0,0.19,0.036,0.262,0.108s0.108,0.159,0.108,0.262c0,0.106-0.036,0.194-0.108,0.264-0.072,0.071-0.159,0.106-0.262,0.106h-1.591c-0.1,0-0.195,0.04-0.287,0.119l-0.595,0.507c-0.097,0.082-0.145,0.193-0.145,0.33v0.904c0,0.097,0.039,0.179,0.115,0.247l0.652,0.555c0.082,0.074,0.191,0.11,0.326,0.11h1.516c0.1,0,0.186,0.036,0.26,0.108,0.073,0.072,0.11,0.159,0.11,0.262s-0.036,0.191-0.108,0.262c-0.072,0.073-0.159,0.109-0.262,0.108zm25.877,8.422-0.44,0,0-0.44-0.44,0,0-0.88,0-0.441,1.32,0,0,0.441,0.441,0,0-4.842,0.44,0,0-0.441,0.88,0,0,0.441,0.44,0,0,2.201,0.881,0,0,0.44,1.32,0,0,0.44,0.88,0,0,0.44,0.441,0,0,0.44,0.44,0,0,3.521-0.44,0,0,1.32-0.441,0,0,0.882,0,0.44-4.401,0,0-0.44,0-0.882-0.44,0,0-0.88-0.441,0,0-0.879-0.44,0,0-0.881zm-0.44-0.44,0.44,0,0,0.44,0.44,0,0,0.881,0.441,0,0,0.879,0.44,0,0,0.88,0.44,0,0,0.882,3.521,0,0-0.882,0.44,0,0-1.32,0.441,0,0-3.521-0.441,0,0-0.44-0.44,0,0,1.321-0.44,0,0-1.321,0-0.44-0.88,0,0,1.32-0.44,0,0-1.32,0-0.44-0.881,0,0,1.32-0.44,0,0-1.32,0-0.44,0-2.201-0.88,0,0,5.722-0.44,0,0-0.44-0.441,0,0-0.44-0.88,0,0,0.88zm-2.779-2.564-0.324-1.121c-0.114-0.41-0.226-0.773-0.337-1.09-0.099,0.262-0.222,0.64-0.367,1.133-0.147,0.494-0.289,0.91-0.428,1.249l1.456-0.171zm0.451,0.323c0.071,0.287,0.239,0.793,0.504,1.52,0.266,0.728,0.398,1.149,0.398,1.267,0,0.039-0.025,0.075-0.074,0.106-0.049,0.029-0.103,0.046-0.162,0.046-0.042,0-0.08-0.011-0.112-0.031-0.033-0.019-0.061-0.062-0.085-0.125-0.026-0.065-0.051-0.135-0.078-0.213l-0.755-2.561-1.677,0.199c-0.251,0.623-0.455,1.216-0.612,1.774-0.156,0.558-0.235,0.838-0.238,0.842l0.01,0.268c0,0.126-0.085,0.188-0.254,0.188-0.059,0-0.113-0.02-0.164-0.059-0.051-0.041-0.076-0.09-0.076-0.149,0-0.058,0.015-0.124,0.046-0.197,0.089-0.216,0.225-0.622,0.409-1.219,0.182-0.597,0.37-1.138,0.562-1.627,0.192-0.487,0.319-0.84,0.38-1.059l0.356-1.199c0.105-0.354,0.158-0.561,0.159-0.619s0.017-0.121,0.045-0.189c0.027-0.066,0.069-0.101,0.125-0.101,0.108,0,0.205,0.009,0.289,0.026,0.084,0.016,0.138,0.07,0.162,0.158l0.179,0.613,0.304,1.063,0.258,0.918c0.221-0.018,0.379-0.028,0.472-0.028,0.21,0,0.314,0.105,0.314,0.314,0,0.087-0.054,0.129-0.161,0.129-0.047,0-0.129-0.009-0.244-0.027-0.116-0.019-0.209-0.028-0.28-0.028zm-6.709,0.331c-0.061,0.05-0.17,0.142-0.326,0.278-0.176,0.151-0.272,0.235-0.287,0.25-0.046,0.021-0.09,0.032-0.133,0.032-0.053,0.005-0.096-0.005-0.131-0.032-0.033-0.025-0.051-0.065-0.051-0.121,0-0.089,0.046-0.162,0.135-0.216l0.775-0.596-0.023-2.616c0-0.185,0.073-0.277,0.221-0.277,0.043,0,0.085,0.024,0.122,0.072,0.038,0.047,0.058,0.098,0.058,0.154v2.229,0.143c0.239-0.185,0.463-0.355,0.67-0.509,0.208-0.154,0.348-0.255,0.423-0.304,0.074-0.036,0.145-0.055,0.217-0.055,0.059,0,0.105,0.013,0.141,0.038,0.035,0.028,0.049,0.057,0.039,0.091-0.008,0.093-0.056,0.167-0.143,0.221-0.129,0.078-0.333,0.212-0.611,0.402s-0.524,0.365-0.736,0.522c0,0.584,0.014,1.122,0.042,1.614,0.003,0.089,0.01,0.197,0.023,0.323,0.111-0.011,0.201-0.019,0.272-0.022,0.243-0.019,0.437-0.028,0.582-0.028,0.414,0,0.738,0.003,0.968,0.009,0.231,0.005,0.429,0.011,0.596,0.014,0.058,0,0.103,0.014,0.135,0.041,0.033,0.028,0.049,0.079,0.049,0.158s-0.024,0.137-0.072,0.172c-0.047,0.035-0.115,0.053-0.204,0.053-0.195,0-0.371-0.002-0.532-0.009-0.562-0.021-0.875-0.033-0.936-0.033-0.197,0-0.393,0.015-0.586,0.042-0.064,0.009-0.146,0.024-0.245,0.046,0.02,0.053,0.031,0.093,0.037,0.12,0.025,0.089,0.037,0.156,0.037,0.203,0,0.058-0.01,0.097-0.032,0.115-0.021,0.02-0.077,0.028-0.166,0.028-0.102,0-0.182-0.064-0.24-0.19-0.019-0.038-0.039-0.102-0.06-0.187-0.197,0-0.295-0.079-0.295-0.237,0-0.052,0.034-0.11,0.103-0.173,0.07-0.062,0.133-0.095,0.192-0.095l-0.028-1.67zm-3.419-3.658c0.603,0,1.093,0.165,1.468,0.493,0.375,0.329,0.563,0.79,0.563,1.381,0,0.83-0.219,1.616-0.658,2.359s-1.019,1.114-1.741,1.114c-0.505,0-0.929-0.209-1.272-0.629-0.343-0.421-0.514-0.998-0.514-1.732,0-0.38,0.091-0.745,0.274-1.096,0.183-0.353,0.365-0.529,0.547-0.529,0.067,0,0.128,0.019,0.18,0.056s0.078,0.081,0.078,0.133c0,0.089-0.029,0.155-0.088,0.194-0.177,0.119-0.313,0.305-0.409,0.556s-0.144,0.502-0.144,0.755c0,0.606,0.12,1.076,0.36,1.411,0.241,0.335,0.55,0.504,0.929,0.504,0.61,0,1.102-0.308,1.474-0.921,0.372-0.614,0.559-1.289,0.559-2.028,0-0.542-0.148-0.955-0.442-1.241-0.296-0.287-0.699-0.429-1.21-0.429-0.289,0-0.559,0.052-0.81,0.156-0.25,0.106-0.427,0.23-0.528,0.374-0.101,0.146-0.196,0.217-0.286,0.217-0.102,0-0.151-0.098-0.151-0.295s0.206-0.38,0.619-0.549c0.414-0.169,0.815-0.254,1.202-0.254zm-6.454,3.682c-0.163,0.096-0.263,0.143-0.3,0.143-0.038,0-0.071-0.035-0.1-0.109-0.029-0.071-0.043-0.13-0.043-0.177,0-0.043,0.015-0.086,0.046-0.132,0.03-0.044,0.063-0.066,0.097-0.066,0-0.163,0.042-0.245,0.128-0.245,0.032,0,0.082,0.015,0.153,0.046v-0.291l0.055-2.257c0-0.156,0.089-0.234,0.268-0.234,0.04,0,0.08,0.025,0.12,0.074,0.04,0.048,0.06,0.099,0.06,0.152,0,0.04-0.019,0.33-0.057,0.872-0.039,0.54-0.059,0.992-0.059,1.355v0.17c0.566-0.372,1.185-0.824,1.858-1.357,0.671-0.534,1.022-0.817,1.049-0.851,0.114-0.138,0.216-0.207,0.305-0.207,0.064,0,0.116,0.033,0.156,0.099,0.041,0.067,0.06,0.135,0.06,0.206,0,0.085-0.055,0.158-0.166,0.216-0.325,0.175-0.855,0.544-1.587,1.106-0.731,0.563-1.29,0.946-1.675,1.148,0.392,0.185,0.803,0.406,1.237,0.666,0.788,0.461,1.289,0.733,1.504,0.817s0.339,0.14,0.373,0.171c0.035,0.031,0.051,0.095,0.051,0.194,0,0.116-0.069,0.174-0.207,0.174-0.12,0-0.53-0.219-1.233-0.66-0.7-0.441-1.272-0.753-1.715-0.938-0.003,0.607,0.023,1.159,0.078,1.658l0.083,0.642c0,0.096-0.066,0.143-0.198,0.143-0.145,0-0.218-0.054-0.218-0.163-0.003-0.109-0.018-0.335-0.046-0.674-0.027-0.338-0.053-0.903-0.077-1.691zm-4.873,1.619,0.586-0.009c0.461,0,0.903,0.004,1.324,0.011,0.421,0.009,0.798,0.02,1.131,0.037,0.331,0.017,0.587,0.045,0.766,0.082,0.048,0.009,0.085,0.03,0.108,0.063,0.023,0.034,0.034,0.091,0.034,0.167,0,0.087-0.015,0.146-0.048,0.178-0.032,0.033-0.089,0.048-0.168,0.048-0.086,0-0.176-0.008-0.268-0.022-0.147-0.026-0.237-0.039-0.267-0.042-0.238,0-0.523-0.008-0.857-0.021-0.333-0.015-0.661-0.028-0.982-0.044s-0.573-0.023-0.755-0.023c-0.138,0-0.318,0.002-0.537,0.009-0.221,0.006-0.336,0.009-0.348,0.009-0.086,0-0.154-0.027-0.201-0.08-0.048-0.054-0.072-0.143-0.072-0.266,0-0.065,0.025-0.12,0.074-0.167,0.07-0.052,0.121-0.092,0.151-0.119,0.266-0.277,0.664-0.718,1.196-1.323,0.544-0.62,0.968-1.088,1.269-1.408,0.48-0.511,0.88-0.895,1.2-1.154-0.203-0.034-0.366-0.06-0.489-0.078-0.366-0.054-0.686-0.098-0.96-0.129-0.273-0.03-0.554-0.056-0.84-0.074-0.285-0.018-0.536-0.028-0.752-0.028h-0.092c-0.17,0-0.279-0.021-0.327-0.062-0.05-0.041-0.074-0.105-0.074-0.192,0-0.066,0.023-0.115,0.069-0.145,0.046-0.029,0.128-0.044,0.244-0.044,0.188,0,0.441,0.012,0.759,0.032,0.318,0.023,0.635,0.05,0.949,0.083,0.313,0.035,0.687,0.094,1.121,0.18,0.151,0.029,0.35,0.072,0.599,0.13,0.016-0.009,0.027-0.017,0.033-0.023,0.052-0.037,0.092-0.056,0.12-0.056,0.095,0,0.159,0.026,0.189,0.076,0.031,0.051,0.046,0.13,0.046,0.239,0,0.101-0.049,0.186-0.147,0.255-0.099,0.07-0.197,0.138-0.295,0.206-0.36,0.279-0.772,0.67-1.237,1.172-0.216,0.233-0.611,0.686-1.186,1.356-0.471,0.547-0.826,0.94-1.066,1.176zm-1.962-3.733c-0.323-0.22-0.591-0.331-0.803-0.331-0.495,0-0.953,0.197-1.372,0.59-0.42,0.394-0.63,0.753-0.63,1.076,0,0.236,0.133,0.355,0.401,0.355,0.071,0,0.316-0.033,0.734-0.097,0.419-0.065,0.761-0.097,1.029-0.097,0.599,0,1.005,0.132,1.215,0.396,0.211,0.265,0.316,0.665,0.316,1.2,0,0.437-0.289,0.855-0.869,1.253s-1.126,0.597-1.636,0.597c-0.48,0-0.855-0.192-1.125-0.577-0.195-0.088-0.292-0.281-0.292-0.576,0-0.065,0.034-0.117,0.102-0.157,0.068-0.039,0.131-0.06,0.19-0.06,0.276,0,0.415,0.068,0.415,0.205,0,0.051-0.024,0.089-0.072,0.111-0.048,0.024-0.072,0.049-0.072,0.076,0.001,0.078,0.091,0.195,0.27,0.351,0.18,0.157,0.399,0.234,0.658,0.234,0.443,0,0.889-0.177,1.337-0.533,0.45-0.356,0.675-0.701,0.675-1.038,0-0.326-0.085-0.587-0.256-0.783-0.171-0.195-0.414-0.293-0.727-0.293-0.163,0-0.431,0.028-0.803,0.086-0.372,0.056-0.671,0.085-0.895,0.085-0.367,0-0.628-0.053-0.784-0.155-0.157-0.103-0.236-0.264-0.236-0.482,0-0.434,0.271-0.889,0.812-1.363,0.542-0.477,1.111-0.713,1.707-0.713,0.323,0,0.609,0.076,0.858,0.23,0.25,0.154,0.374,0.359,0.374,0.618,0,0.101-0.021,0.189-0.064,0.261-0.044,0.072-0.091,0.109-0.143,0.109-0.087,0-0.159-0.049-0.222-0.146-0.061-0.097-0.092-0.241-0.092-0.432zm31.904-5.211-0.022-0.313c-0.003-0.106-0.04-0.194-0.11-0.264-0.071-0.071-0.158-0.106-0.261-0.106h-1.46c-0.103,0-0.19,0.036-0.263,0.108-0.071,0.072-0.107,0.16-0.107,0.262v0.414c0,0.1,0.036,0.187,0.11,0.26,0.073,0.074,0.16,0.11,0.26,0.11h1.046l0.807-0.471zm-1.852-1.441,1.452,0c0.08,0,0.195,0.017,0.344,0.053l-0.008-0.525c0-0.102-0.036-0.19-0.108-0.262-0.073-0.072-0.16-0.108-0.263-0.108h-1.409c-0.1,0-0.186-0.036-0.26-0.11-0.074-0.073-0.11-0.16-0.11-0.26,0-0.103,0.035-0.19,0.107-0.262,0.073-0.072,0.16-0.108,0.263-0.108h1.408c0.306,0,0.567,0.107,0.784,0.322,0.216,0.214,0.328,0.477,0.337,0.788l0.093,2.772c0,0.103-0.037,0.191-0.11,0.262-0.074,0.073-0.16,0.109-0.26,0.109-0.106-0.001-0.196-0.036-0.269-0.109-0.073-0.071-0.11-0.159-0.11-0.262l-0.627,0.37h-1.254c-0.311,0-0.576-0.108-0.794-0.326-0.218-0.217-0.326-0.482-0.326-0.793v-0.432c0-0.308,0.109-0.572,0.328-0.791s0.483-0.328,0.792-0.328zm-4.297,0.059,0,0.877,0.494,0.858,0.256-0.847,0.079-2.159c0.006-0.1,0.045-0.186,0.117-0.26,0.072-0.073,0.156-0.11,0.253-0.11,0.103,0,0.191,0.036,0.265,0.108,0.073,0.072,0.108,0.159,0.105,0.262l-0.079,2.305-0.397,1.309c-0.056,0.179-0.171,0.269-0.345,0.269l-0.397-0.001c-0.139,0-0.248-0.068-0.327-0.205l-0.403-0.698-0.403,0.689c-0.091,0.143-0.2,0.215-0.327,0.215l-0.389-0.001c-0.085,0-0.162-0.024-0.231-0.075-0.069-0.05-0.113-0.108-0.13-0.176l-0.388-1.357-0.084-2.274c-0.003-0.097,0.034-0.183,0.11-0.258,0.077-0.075,0.166-0.112,0.269-0.112,0.094,0,0.177,0.034,0.249,0.103s0.109,0.158,0.112,0.267l0.085,2.168,0.242,0.829,0.516-0.871v-0.854c0-0.103,0.036-0.19,0.109-0.261,0.074-0.072,0.163-0.108,0.27-0.108,0.1,0,0.186,0.036,0.259,0.107,0.074,0.072,0.11,0.158,0.11,0.261zm-6.948-0.275,0,1.498c0,0.136,0.048,0.243,0.145,0.322l0.277,0.238c0.062,0.053,0.149,0.079,0.26,0.079h0.86c0.126,0,0.241-0.045,0.344-0.136l0.224-0.199c0.091-0.07,0.137-0.168,0.137-0.295v-1.498c0-0.147-0.046-0.256-0.137-0.326l-0.26-0.208c-0.088-0.073-0.191-0.11-0.308-0.11h-0.767c-0.168,0-0.296,0.04-0.388,0.119l-0.251,0.216c-0.091,0.077-0.136,0.177-0.136,0.3zm2.987-0.031,0,1.565c0,0.332-0.156,0.639-0.469,0.921s-0.635,0.423-0.967,0.423h-0.869c-0.337,0-0.661-0.144-0.969-0.43-0.309-0.287-0.463-0.591-0.463-0.914v-1.565c0-0.323,0.151-0.628,0.452-0.914,0.301-0.287,0.628-0.43,0.98-0.43h0.869c0.332-0.006,0.654,0.132,0.967,0.414s0.469,0.592,0.469,0.93zm-9.151,2.547,0-3.512c0-0.103,0.036-0.192,0.108-0.267,0.073-0.075,0.16-0.112,0.263-0.112s0.19,0.037,0.262,0.11,0.108,0.163,0.108,0.269v0.463l0.604-0.516c0.249-0.211,0.493-0.317,0.731-0.317h0.542c0.306,0,0.567,0.108,0.785,0.326,0.217,0.217,0.326,0.479,0.326,0.784v0.199c0,0.105-0.036,0.195-0.108,0.269-0.072,0.073-0.16,0.11-0.263,0.11s-0.19-0.036-0.261-0.109c-0.073-0.071-0.109-0.158-0.109-0.262v-0.207c0-0.102-0.036-0.19-0.108-0.262-0.071-0.072-0.159-0.108-0.262-0.108h-0.48c-0.103,0-0.217,0.055-0.344,0.163l-1.053,0.912v2.067c0,0.103-0.037,0.191-0.11,0.262-0.074,0.073-0.16,0.109-0.26,0.109-0.103-0.001-0.19-0.036-0.263-0.109-0.072-0.071-0.108-0.159-0.108-0.262zm-3.265-3.142,0,3.142c0,0.103-0.037,0.191-0.11,0.262-0.074,0.073-0.16,0.109-0.26,0.109-0.106-0.001-0.196-0.036-0.269-0.109-0.073-0.071-0.11-0.159-0.11-0.262v-3.142h-0.379c-0.103,0-0.19-0.036-0.262-0.11-0.072-0.073-0.108-0.16-0.108-0.26,0-0.097,0.033-0.183,0.099-0.258s0.156-0.112,0.271-0.112h0.388v-0.287c0-0.379,0.13-0.693,0.39-0.943,0.259-0.249,0.584-0.374,0.971-0.374h0.869c0.102,0,0.19,0.036,0.262,0.11,0.072,0.073,0.108,0.163,0.108,0.269,0,0.099-0.037,0.186-0.11,0.26-0.074,0.073-0.161,0.11-0.26,0.11h-0.869c-0.175,0-0.322,0.053-0.438,0.158-0.116,0.106-0.174,0.243-0.174,0.41v0.287h0.74c0.1-0.003,0.187,0.032,0.26,0.106,0.073,0.073,0.11,0.161,0.11,0.264,0,0.1-0.037,0.187-0.11,0.26-0.073,0.074-0.16,0.11-0.26,0.11h-0.749zm-3.277,0.344-1.996,4.513c-0.068,0.161-0.185,0.242-0.353,0.242h-1.027c-0.103,0-0.19-0.035-0.262-0.106-0.072-0.07-0.108-0.158-0.108-0.264,0-0.103,0.036-0.189,0.108-0.26,0.072-0.07,0.159-0.106,0.262-0.106h0.793l0.507-1.177h-0.18c-0.168,0-0.289-0.086-0.363-0.259l-1.109-2.583v-0.714c0-0.103,0.035-0.19,0.105-0.262,0.071-0.072,0.156-0.108,0.256-0.108,0.102,0,0.192,0.036,0.266,0.108,0.075,0.072,0.113,0.159,0.113,0.262v0.551l0.974,2.256h0.257l1.006-2.248,0.002-0.568c0-0.097,0.037-0.183,0.112-0.258s0.164-0.112,0.267-0.112c0.1,0,0.186,0.037,0.26,0.11,0.073,0.073,0.11,0.16,0.11,0.26v0.723z"/>
  </g>
 </g>
</svg>
