<?xml version="1.0" encoding="utf-8"?>
<!-- Generator: Adobe Illustrator 18.1.1, SVG Export Plug-In . SVG Version: 6.00 Build 0)  -->
<svg version="1.1" xmlns="http://www.w3.org/2000/svg" xmlns:xlink="http://www.w3.org/1999/xlink" x="0px" y="0px"
	 viewBox="0 0 453 219.2" enable-background="new 0 0 453 219.2" xml:space="preserve">
<g id="Layer_1">
	<g>
		<g>
			<g>
				<path fill="#575757" d="M345,210h-3c0,3-2.6,6-5.8,6h-82.9c-3.2,0-6.3-2.5-6.3-5.7V88.5c0-3.2,3.1-5.5,6.3-5.5h82.9
					c3.2,0,5.8,2.4,5.8,5.5V210H345 M345,210.3V88.5c0-4.8-4-8.5-8.8-8.5h-82.9c-4.8,0-9.3,3.8-9.3,8.5v121.8c0,4.8,4.6,8.7,9.3,8.7
					h82.9C341,219,345,215.1,345,210.3L345,210.3z"/>
			</g>
			<g>
				<path fill="#575757" d="M329.1,205.1l-67.1,0.1V94h67v111 M332,205.6V93.3c0-1.4-0.8-2.3-2.1-2.3h-68c-1.4,0-2.9,0.9-2.9,2.3
					v112.3c0,1.4,1.4,2.4,2.8,2.4h67.9C331.1,208,332,207,332,205.6L332,205.6z"/>
			</g>
			<g>
				<path fill="#575757" d="M338.5,149.4c0-1.2-0.9-2.1-2.1-2.1c-1.2,0-2.1,0.9-2.1,2.1c0,1.2,0.9,2.1,2.1,2.1
					C337.6,151.5,338.5,150.6,338.5,149.4L338.5,149.4z"/>
			</g>
			<g>
				<path fill="#575757" d="M252,165v-31.2c0-0.7,0.3-1.2,1-1.2c0.7,0,1,0.5,1,1.2V165c0,0.7-0.3,1.2-1,1.2
					C252.3,166.2,252,165.7,252,165z"/>
			</g>
		</g>
		<g>
			<g>
				<path fill="#575757" d="M159.7,133.1c1.9,0,3.3,1.7,3.3,3.6v75.7c0,1.9-0.9,3.5-2.8,3.5h-37.8c-1.9,0-3.4-1.6-3.4-3.5v-75.7
					c0-1.9,1.4-3.7,3.4-3.7H160 M160.2,130h-37.8c-3.5,0-6.4,3.2-6.4,6.7v75.7c0,3.5,2.8,6.5,6.4,6.5h37.8c3.5,0,5.8-3,5.8-6.5
					v-75.7C166,133.2,163.7,130,160.2,130L160.2,130z"/>
			</g>
			<g>
				<path fill="#575757" d="M155.2,144.7c1.9,0,3.8,1.3,3.8,3.3v50.7c0,1.9-1.5,3.3-3.4,3.3H127c-1.9,0-4-1.4-4-3.3V148
					c0-1.9,2-3,4-3h28 M155.6,142H127c-3.5,0-7,2.5-7,6v50.7c0,3.5,3.4,6.3,7,6.3h28.6c3.5,0,6.4-2.8,6.4-6.3V148
					C162,144.5,159.1,142,155.6,142L155.6,142z"/>
			</g>
			<g>
				<path fill="#575757" d="M141.3,208.6c1.1,0,1.9,0.9,1.9,1.9c0,1.1-0.9,1.9-1.9,1.9c-1.1,0-1.9-0.9-1.9-1.9
					C139.3,209.4,140.2,208.6,141.3,208.6 M141.3,206.2c-2.4,0-4.3,1.9-4.3,4.3c0,2.4,1.9,4.3,4.3,4.3c2.4,0,4.3-1.9,4.3-4.3
					C145.6,208.1,143.7,206.2,141.3,206.2L141.3,206.2z"/>
			</g>
			<g>
				<path fill="#575757" d="M145.8,139h-9.1c-0.7,0-1.2-0.8-1.2-1.5c0-0.7,0.5-1.5,1.2-1.5h9.1c0.7,0,1.2,0.8,1.2,1.5
					C147,138.2,146.5,139,145.8,139z"/>
			</g>
		</g>
		<g>
			<polygon fill="#FFFFFF" points="166,97 169.3,95.3 251,95.5 253.8,98 255,102.3 254.5,211.5 253.5,216 249.8,219 170.5,217.5 
				167,216 164.5,212 			"/>
			<g>
				<g>
					<path fill="#575757" d="M249.7,97.1c1.9,0,3.3,1.7,3.3,3.6v111.4c0,1.9-1.2,3.9-3.2,3.9h-80.1c-1.9,0-3.8-2-3.8-3.9V100.7
						c0-1.9,1.8-3.7,3.8-3.7H250 M249.8,94h-80.1c-3.5,0-6.8,3.2-6.8,6.7v111.4c0,3.5,3.2,6.9,6.8,6.9h80.1c3.5,0,6.2-3.4,6.2-6.9
						V100.7C256,97.2,253.3,94,249.8,94L249.8,94z"/>
				</g>
				<g>
					<path fill="#575757" d="M238.7,111.2c1.9,0,3.3,1.8,3.3,3.7v79c0,1.9-1.3,4.1-3.2,4.1h-58c-1.9,0-3.8-2.1-3.8-4.1v-79
						c0-1.9,1.9-3.9,3.8-3.9H239 M238.8,108h-58c-3.5,0-6.8,2.4-6.8,5.9v81c0,3.5,3.3,6.1,6.8,6.1h58c3.5,0,6.2-2.5,6.2-6.1v-81
						C245,110.4,242.3,108,238.8,108L238.8,108z"/>
				</g>
				<g>
					<path fill="#575757" d="M209.8,206.5c1.2,0,2.2,1,2.2,2.2c0,1.2-1,2.2-2.2,2.2c-1.2,0-2.2-1-2.2-2.2
						C207.6,207.5,208.6,206.5,209.8,206.5 M209.8,204.1c-2.5,0-4.6,2.1-4.6,4.6c0,2.5,2.1,4.6,4.6,4.6c2.5,0,4.6-2.1,4.6-4.6
						C214.4,206.2,212.3,204.1,209.8,204.1L209.8,204.1z"/>
				</g>
				<g>
					<path fill="#575757" d="M209.8,100c-1.2,0-2.1,0.9-2.1,2.1c0,1.2,0.9,2.1,2.1,2.1c1.2,0,2.1-0.9,2.1-2.1
						C211.9,100.9,211,100,209.8,100L209.8,100z"/>
				</g>
			</g>
		</g>
		<g>
			<polygon fill="#FFFFFF" points="364.3,131.3 367.5,127 405.5,127.8 408.8,132.3 411,138.3 410.8,206.8 408.8,212.5 403.3,216.3 
				391.5,217.8 378.5,217.5 368.5,216.5 363.5,212 361.8,202.3 361.5,137 			"/>
			<g>
				<g>
					<path fill="#575757" d="M403,129L403,129c2-0.1,2.7,0.9,4,2.7c1.3,1.8,2,4.2,2,6v68.8c0,3.6-3.5,7.9-6.4,8.6
						c-3.1,0.7-8.8,1.1-15.5,1.1c-7,0-13.6-0.4-17.4-1.2c-2.8-0.5-6.6-5-6.6-8.6v-68.8c0-1.9,0.9-4.2,2.2-6c1.2-1.7,2.8-2.7,4.1-2.7
						H403 M403.6,126h-34.3c-5,0-9.2,6.7-9.2,11.7v68.8c0,5,4.9,10.6,9.1,11.4c4.2,0.8,11.2,1.2,18,1.2c6.5,0,12.5-0.4,16.1-1.2
						c4.2-1,8.8-6.4,8.8-11.4v-68.8c0-5-3.6-11.7-8.6-11.7H403.6z"/>
				</g>
				<g>
					<path fill="#575757" d="M367,143h38v60h-38V143 M408,142.5c0-1.4-1.1-2.5-2.5-2.5h-39c-1.4,0-2.5,1.1-2.5,2.5v61
						c0,1.4,1.1,2.5,2.5,2.5h39c1.4,0,2.5-1.1,2.5-2.5V142.5z"/>
				</g>
				<g>
					<path fill="#575757" d="M394,211.4c0,1.5-0.9,2.6-2.3,2.6h-11c-1.4,0-2.8-1.2-2.8-2.6v-0.7c0-1.5,1.4-2.7,2.8-2.7h11
						c1.4,0,2.3,1.2,2.3,2.7V211.4z M392,210.1C392,210,392.2,210,392,210.1l-11.6-0.1c-0.1,0-0.4,0-0.4,0.1v0.9
						c0,0,0.3,0.1,0.4,0.1h11.6c0.1,0-0.1,0-0.1-0.1V210.1z"/>
				</g>
				<g>
					<path fill="#575757" d="M393.4,135h-14c-0.7,0-1.2-0.3-1.2-1c0-0.7,0.5-1,1.2-1h14c0.7,0,1.2,0.3,1.2,1
						C394.6,134.7,394.1,135,393.4,135z"/>
				</g>
			</g>
		</g>
		<g>
			<polygon fill="#FFFFFF" points="45.9,214.6 41.7,211.3 42.4,173.3 46.9,170.1 52.9,167.8 121.4,168.1 127.2,170.1 130.9,175.6 
				132.4,187.3 132.2,200.3 131.2,210.3 126.7,215.3 116.9,217.1 51.7,217.3 			"/>
			<g>
				<g>
					<path fill="#575757" d="M43,176h0.6c0-2,1-2.7,2.7-4c1.8-1.3,4.2-2,6-2h68.8c3.6,0,7.9,3.4,8.6,6.4c0.7,3.1,1.1,8.7,1.1,15.5
						c0,7-0.4,13.7-1.2,17.5c-0.5,2.8-5,6.7-8.6,6.7H52.4c-1.9,0-4.5-1-6.3-2.2c-1.7-1.2-3.1-2.8-3.1-4.2V176 M40,175.3v34.3
						c0,5,7.4,9.4,12.4,9.4h68.8c5,0,10.6-5,11.4-9.2c0.8-4.2,1.2-11.2,1.2-18.1c0-6.5-0.4-12.5-1.2-16c-1-4.2-6.4-8.7-11.4-8.7
						H52.4C47.4,167,40,170.3,40,175.3L40,175.3z"/>
				</g>
				<g>
					<path fill="#575757" d="M57,212v-38h60v38H57 M120,173.5c0-1.4-0.9-2.5-2.3-2.5h-61c-1.4,0-2.8,1.1-2.8,2.5v39
						c0,1.4,1.4,2.5,2.8,2.5h61c1.4,0,2.3-1.1,2.3-2.5V173.5z"/>
				</g>
				<g>
					<path fill="#575757" d="M126,185c1.5,0,2,0.7,2,2.1v11c0,1.4-0.5,2.9-2,2.9h-0.7c-1.5,0-3.3-1.5-3.3-2.9v-11
						c0-1.4,1.9-2.1,3.3-2.1H126z M124.7,187c0,0-0.7-0.3-0.7-0.2v11.6c0,0.1,0.7,0.6,0.7,0.6h0.9c0,0-0.6-0.5-0.6-0.6v-11.6
						c0-0.1,0.6,0.2,0.6,0.2H124.7z"/>
				</g>
				<g>
					<path fill="#575757" d="M49,185.4v14c0,0.7-0.3,1.2-1,1.2c-0.7,0-1-0.5-1-1.2v-14c0-0.7,0.3-1.2,1-1.2
						C48.7,184.2,49,184.8,49,185.4z"/>
				</g>
			</g>
		</g>
	</g>
</g>
<g id="Layer_5" display="none">
	<g display="inline">
		<g>
			<path fill="#575757" d="M434,206v-92.2c0-6.4-5.6-11.8-12-11.8H276.5c-6.4,0-11.5,5.4-11.5,11.8V206h-19v3.9
				c0,5.7,8,9.1,13.7,9.1h178.9c5.7,0,14.3-3.4,14.3-9.1V206H434z M268,113.8c0-4.8,3.7-8.8,8.5-8.8H422c4.8,0,9,4,9,8.8V206H268
				V113.8z M450,209.9c0,0.7-0.2,1.3-0.7,1.9c-0.6,0.7-1.5,1.6-2.6,2.1c-2.3,1.2-5.3,2-8,2H259.7c-2.6,0-5.7-0.9-8-2
				c-1.2-0.6-1.7-1.4-2.3-2.1c-0.5-0.6-0.4-1.3-0.4-2V209h15.9h2.9h162.8h2.9H450V209.9z"/>
			<path fill="#575757" d="M426,116.4c0-1.3-1.4-2.4-2.8-2.4H275.3c-1.4,0-2.3,1.1-2.3,2.4v82.2c0,1.3,0.9,2.4,2.3,2.4h147.9
				c1.4,0,2.8-1.1,2.8-2.4V116.4z M423,199H276v-82h147V199z"/>
			<path fill="#575757" d="M364.8,211h-31.2c-0.7,0-1.2,0.3-1.2,1c0,0.7,0.5,1,1.2,1h31.2c0.7,0,1.2-0.3,1.2-1
				C366,211.3,365.4,211,364.8,211z"/>
			<path fill="#575757" d="M427.4,212c0,0.7,0.5,1,1.2,1h10.1c0.7,0,1.2-0.3,1.2-1c0-0.7-0.5-1-1.2-1h-10.1
				C427.9,211,427.4,211.3,427.4,212z"/>
			<circle fill="#575757" cx="349.2" cy="110.2" r="2.1"/>
		</g>
		<g>
			<polygon fill="#FFFFFF" points="194.9,153.6 185.2,153.1 167,160 147,159.3 107,173.3 107,218 328.9,217 329.3,172.8 
				289.8,158.8 268.5,159.8 251.5,153.3 241.5,153 241,137.3 307.5,137 311.5,136 315.5,132.3 316,130 316.5,9 315.3,5.8 312,2.5 
				308.8,1.8 128.5,1.5 123.5,3.5 120.5,6.8 120,9.3 119.8,129 121.8,132.3 123.5,135.8 131.3,136.8 194.8,137 			"/>
			<path fill="#575757" d="M309,15.6c0-1.4-1.4-2.6-2.8-2.6H130.3c-1.4,0-2.3,1.2-2.3,2.6v107.9c0,1.4,0.9,2.6,2.3,2.6h175.9
				c1.4,0,2.8-1.1,2.8-2.6V15.6z M306,123H131V16h175V123z"/>
			<circle fill="#575757" cx="218.3" cy="7.6" r="2.1"/>
			<path fill="#575757" d="M329.5,171.8l-0.1,0l-0.4-0.1c-0.1,0-0.3-0.1-0.4-0.1l-34.3-12.1c-1.8-0.9-5.1-1.5-6-1.5H269l-12.7-4.5
				c-2.3-0.9-5.3-1.5-6.3-1.5H243v-14h65.9c4.8,0,9.1-4.3,9.1-9V9.1c0-4.8-4.3-9.1-9.1-9.1H127.7c-4.8,0-8.7,4.3-8.7,9.1V129
				c0,4.8,3.9,9,8.7,9H194v14h-7.9c-0.9,0-4.1,0.5-5.9,1.5l-12.6,4.5h-19.3c-0.9,0-4.1,0.5-5.9,1.5l-34.1,12
				c-1.2,0.2-2.2,1.1-2.2,2.4v42.9c0,1.4,1.3,2.2,2.7,2.2h219.3c1.4,0,3.1-0.8,3.1-2.2v-42.9C331,173,330.2,172.2,329.5,171.8z
				 M162,164.2c0,0,0.2-0.2,0.2-0.2h112.1c0.1,0,0.7,0.2,0.7,0.2v2.6c0,0.1-0.5,0.1-0.7,0.1H162.2c-0.1,0-0.2,0-0.2-0.1V164.2z
				 M127.7,135c-3.2,0-5.7-2.9-5.7-6V9.1c0-3.2,2.5-6.1,5.7-6.1h181.2c3.1,0,6.1,2.9,6.1,6.1V129c0,3.2-3,6-6.1,6H243h-2.9H227v-2
				c0-1.3-1.7-2-2.9-2h-11.6c-1.3,0-1.5,0.7-1.5,2v2h-14.6h-2.9H127.7z M224,135h-11v-2h11V135z M240,138v18h-43v-18H240z
				 M181.1,155.6l0.1-0.2c1.4-0.7,4.3-1.4,4.9-1.4h7.9v2.3v2.7h2.4h43.7h2.9v-2.7V154h7.1c0.6,0,3.3,0.7,5.4,1.5l17.4,6.5H163.7
				L181.1,155.6z M143.2,161.4L143.2,161.4l0.2,0c1.4-0.7,4.3-1.4,4.9-1.4h12.7l-0.9,0.7v0.8v5.3c0,1.5,0.8,3.1,2.2,3.1h112.1
				c1.5,0,2.7-1.7,2.7-3.1v-5.3v-0.8l-1.3-0.7h12.8c0.6,0,3.5,0.7,4.9,1.4l0.1-0.1l27.7,9.7H115.5L143.2,161.4z M328,216H109v-42
				h219V216z"/>
			<path fill="#575757" d="M259.1,193h58.2c1.4,0,2.7-0.8,2.7-2.2v-8.4c0-1.4-1.3-2.3-2.7-2.3h-58.2c-1.4,0-2.1,0.9-2.1,2.3v8.5
				C257,192.1,257.7,193,259.1,193z M317.3,191h-58.2c0,0,0-0.1-0.1-0.1c0,0,0-0.1,0-0.2V187h59v3.8C318,190.8,317.4,191,317.3,191z
				 M259.1,182h58.2h0c0.1,0,0.7,0.2,0.7,0.3v2.7h-59v-2.7C259,182.2,259.1,182,259.1,182z"/>
			<path fill="#575757" d="M320,198.2c0-0.6-0.7-1.2-1.4-1.2h-28.2c-0.7,0-1.4,0.5-1.4,1.2v4.2c0,0.6,0.8,1.7,1.4,1.7h28.2
				c0.7,0,1.4-1,1.4-1.7V198.2z M318,201h-26v-2h26V201z"/>
			<path fill="#575757" d="M320,207.9c0-0.6-0.9-0.9-1.6-0.9H310c-0.7,0-1,0.3-1,0.9v4.2c0,0.6,0.3,0.9,1,0.9h8.4
				c0.7,0,1.6-0.3,1.6-0.9V207.9z M317,211h-6v-2h6V211z"/>
			<path fill="#575757" d="M305,207.9c0-0.6-0.5-0.9-1.1-0.9h-8.4c-0.7,0-0.5,0.3-0.5,0.9v4.2c0,0.6-0.2,0.9,0.5,0.9h8.4
				c0.7,0,1.1-0.3,1.1-0.9V207.9z M303,211h-6v-2h6V211z"/>
			<path fill="#575757" d="M291,207.9c0-0.6-1-0.9-1.6-0.9h-8.4c-0.7,0-0.9,0.3-0.9,0.9v4.2c0,0.6,0.3,0.9,0.9,0.9h8.4
				c0.7,0,1.6-0.3,1.6-0.9V207.9z M288,211h-6v-2h6V211z"/>
			<path fill="#575757" d="M276,207.9c0-0.6-0.5-0.9-1.2-0.9h-8.4c-0.7,0-1.4,0.3-1.4,0.9v4.2c0,0.6,0.8,0.9,1.4,0.9h8.4
				c0.7,0,1.2-0.3,1.2-0.9V207.9z M274,211h-6v-2h6V211z"/>
			<path fill="#575757" d="M121.4,190.2c2.4,0,4.3-1.9,4.3-4.3c0-2.4-1.9-4.3-4.3-4.3c-2.4,0-4.3,1.9-4.3,4.3
				C117,188.3,119,190.2,121.4,190.2z M121.4,183.9c1.1,0,1.9,0.9,1.9,1.9s-0.9,1.9-1.9,1.9c-1.1,0-1.9-0.9-1.9-1.9
				S120.3,183.9,121.4,183.9z"/>
			<path fill="#575757" d="M121.4,200.8c2.4,0,4.3-1.9,4.3-4.3c0-2.4-1.9-4.3-4.3-4.3c-2.4,0-4.3,1.9-4.3,4.3
				C117,198.8,119,200.8,121.4,200.8z M121.4,194.5c1.1,0,1.9,0.9,1.9,1.9s-0.9,1.9-1.9,1.9c-1.1,0-1.9-0.9-1.9-1.9
				S120.3,194.5,121.4,194.5z"/>
			<path fill="#575757" d="M121.4,211.3c2.4,0,4.3-1.9,4.3-4.3s-1.9-4.3-4.3-4.3c-2.4,0-4.3,1.9-4.3,4.3S119,211.3,121.4,211.3z
				 M121.4,205c1.1,0,1.9,0.9,1.9,1.9s-0.9,1.9-1.9,1.9c-1.1,0-1.9-0.9-1.9-1.9S120.3,205,121.4,205z"/>
		</g>
		<g>
			<polygon fill="#FFFFFF" points="24.8,203.8 25.1,93 26.7,89.9 31.2,87.1 200.6,87.3 204,89.8 204,204 228.9,204.3 228.1,209 
				225.5,212.5 218.8,216.8 213.5,217.3 17.5,217.5 11,215.5 4.8,212.3 1,208.8 1,204 			"/>
			<g>
				<path fill="#575757" d="M198,102.4c0-1.3-1.4-2.4-2.8-2.4H36.3c-1.4,0-2.3,1.1-2.3,2.4v86.2c0,1.3,0.9,2.4,2.3,2.4h158.9
					c1.4,0,2.8-1.1,2.8-2.4V102.4z M194,188H37v-85h157V188z"/>
				<path fill="#575757" d="M206.2,202l0-109c0-1.9-0.7-3.7-2-5c-1.3-1.3-3-2.1-4.9-2.1H31c-1.8,0-3.6,0.8-4.9,2.1
					c-1.3,1.3-2.1,3.1-2.1,5v109H0v5.4c0,5.7,12.1,11.6,17.8,11.6h196.1c5.7,0,17.1-5.9,17.1-11.6V202H206.2z M27,93
					c0-2.2,1.8-4,4-4h168.3c2.2,0,4,1.8,4,4l0,109H27V93z M27,205l176.8,0l3.2,0v0h21v2H3v-2H27z M129.3,210c-0.2,1-0.9,1-1.8,1H103
					c-0.9,0-1.6,0-1.8-1H129.3z M223,212.9c-3,1.9-6.8,3.1-9.1,3.1H17.8c-2,0-6.1-1-9.8-3.1c-1.8-1-3.2-1.9-4.1-2.9h94.8
					c0.2,2,2.1,4,4.3,4h24.4c2.2,0,4-2,4.3-4h95.1C225.9,211,224.7,211.9,223,212.9z"/>
				<circle fill="#575757" cx="115.2" cy="94.8" r="2.1"/>
			</g>
		</g>
	</g>
</g>
<g id="Layer_3">
	<g id="Layer_2">
	</g>
</g>
<g id="Layer_4" display="none">
</g>
</svg>
