<?xml version="1.0" encoding="UTF-8" standalone="no"?>
<!-- Created with Inkscape (http://www.inkscape.org/) -->

<svg
   xmlns:dc="http://purl.org/dc/elements/1.1/"
   xmlns:cc="http://creativecommons.org/ns#"
   xmlns:rdf="http://www.w3.org/1999/02/22-rdf-syntax-ns#"
   xmlns:svg="http://www.w3.org/2000/svg"
   xmlns="http://www.w3.org/2000/svg"
   version="1.1"
   width="181"
   height="181"
   viewBox="0 0 144.80001 144.79999"
   id="svg2985"
   style="fill-rule:evenodd">
  <metadata
     id="metadata3827">
    <rdf:RDF>
      <cc:Work
         rdf:about="">
        <dc:format>image/svg+xml</dc:format>
        <dc:type
           rdf:resource="http://purl.org/dc/dcmitype/StillImage" />
        <dc:title></dc:title>
      </cc:Work>
    </rdf:RDF>
  </metadata>
  <defs
     id="defs3825" />
  <g
     transform="matrix(0.85781993,0,0,0.85781993,-96.762104,-15.440732)"
     id="g3337"
     style="fill:#ffffff">
    <path
       d="m 217.79928,17.999959 c 0.94533,4.868454 -0.33404,8.703195 -2.83598,12.104444 -2.45852,3.334557 -6.07949,6.202277 -9.9109,9.27007 -3.67108,2.93441 -7.54926,6.002203 -10.62575,9.770253 -3.0531,3.734704 -5.33792,8.169666 -5.8824,13.771723 l -1.0589,-0.100037 c 0.56452,-5.868821 2.93953,-10.470511 6.11623,-14.338597 3.15332,-3.868087 7.07492,-6.969226 10.78608,-9.936982 3.77463,-3.001102 7.34215,-5.835475 9.71716,-9.069996 2.33159,-3.16783 3.52744,-6.735806 2.64558,-11.270805 l 1.04888,-0.200073 z m -32.33152,44.649725 c 1.20921,-12.571282 9.84743,-19.473816 17.62717,-25.676093 l 0.003,0 0.0301,-0.03334 c 3.52076,-2.801029 6.84777,-5.435329 9.07915,-8.36974 2.18126,-2.901065 3.32033,-6.068894 2.55539,-10.003672 l 1.04888,-0.200074 c 0.82841,4.268234 -0.39751,7.736174 -2.75582,10.837312 -2.30486,3.034448 -5.67864,5.735439 -9.2495,8.569813 l -0.0167,0 c -7.62274,6.068895 -16.09394,12.838046 -17.26307,24.975836 l -1.0589,-0.100037 z"
       id="path3657"
       style="fill:#ffffff;stroke:none" />
    <path
       d="m 180.75782,121.60466 c -0.92194,-3.96812 -1.06224,-5.23525 -0.94866,-9.27007 0.16367,-5.70209 0.1737,-5.10187 -1.53324,-10.23709 -0.16368,-0.50018 0.10689,-1.03371 0.60461,-1.20044 0.49772,-0.16673 1.03552,0.10004 1.1992,0.60022 1.76038,5.2686 1.79378,5.00184 1.62676,10.93735 -0.10689,3.76805 0.01,4.93514 0.87518,8.6365 0.14364,0.50018 -0.14698,1.03371 -0.64803,1.20044 -0.5044,0.13338 -1.03218,-0.16673 -1.17582,-0.66691 z"
       id="path3659"
       style="fill:#ffffff;stroke:none" />
    <path
       d="m 181.66975,121.3379 c -2.03763,-7.03592 0.01,-11.63761 -1.20922,-15.60573 -0.39082,-1.30048 -0.86182,-2.66765 -1.28271,-3.93478"
       id="path3661"
       style="fill:#ffffff;stroke:none" />
    <path
       d="m 178.07884,101.33055 c -0.18372,-4.468306 -1.35953,-12.404553 -2.56207,-16.672787 -0.1904,-0.500183 0.0501,-1.033712 0.5378,-1.233786 0.49104,-0.200073 1.0422,0.03335 1.22926,0.533529 1.30609,4.534999 2.51196,12.704664 2.69235,17.406394 -0.0167,0.53353 -0.4543,0.93367 -0.97874,0.93367 -0.52444,-0.0333 -0.9353,-0.46684 -0.9186,-0.96702 z"
       id="path3663"
       style="fill:#ffffff;stroke:none" />
    <path
       d="m 179.02751,101.3639 c 0.0868,-2.600958 -1.82051,-15.005512 -2.62554,-17.072938"
       id="path3665"
       style="fill:#ffffff;stroke:none" />
    <path
       d="m 175.37981,82.957139 c -0.31733,-5.20191 -2.43847,-10.203746 0.82508,-14.605362 0.34406,-0.400147 0.94198,-0.433492 1.33949,-0.100036 0.39416,0.366801 0.43759,0.967021 0.0935,1.367168 -2.55873,3.434594 -0.62131,9.003305 -0.36076,13.33823 0,0.533529 -0.42423,0.967022 -0.94867,0.967022 -0.52444,0 -0.94867,-0.433493 -0.94867,-0.967022 z"
       id="path3667"
       style="fill:#ffffff;stroke:none" />
    <path
       d="m 176.32848,82.957139 c 0,-4.268233 -2.49526,-10.437165 0.59459,-13.971796"
       id="path3669"
       style="fill:#ffffff;stroke:none" />
    <path
       d="m 194.85088,102.79776 c -5.20097,-7.402721 -5.70203,-15.972534 -9.18938,-24.208891 -0.2071,-0.466838 0.02,-1.033713 0.5044,-1.233786 0.48101,-0.200074 1.03885,0 1.24262,0.500183 3.27691,7.736174 3.96837,16.672788 8.84866,23.675354 0.35408,0.36681 0.32068,0.96703 -0.0668,1.33383 -0.39082,0.33345 -0.98875,0.30011 -1.33949,-0.0667 z"
       id="path3671"
       style="fill:#ffffff;stroke:none" />
    <path
       d="m 195.5557,102.16419 c -3.9216,-4.334924 -6.06613,-16.972897 -8.66494,-23.108483 l -0.35742,-0.83364"
       id="path3673"
       style="fill:#ffffff;stroke:none" />
    <path
       d="m 178.00201,69.218762 c -3.17002,-0.500183 0.83844,-4.168197 4.51953,-1.667279 0.40085,0.333456 0.44761,0.933677 0.1069,1.333823 -0.34072,0.400147 -0.93865,0.433493 -1.3395,0.100037 -0.55784,-0.366801 -1.62676,-0.30011 -2.40507,-0.166728 -0.19374,0.266765 -0.52444,0.433493 -0.88186,0.400147 z"
       id="path3675"
       style="fill:#ffffff;stroke:none" />
    <path
       d="m 178.1089,68.285086 c -1.22926,-0.166728 2.55873,-1.067058 3.79801,0"
       id="path3677"
       style="fill:#ffffff;stroke:none" />
    <path
       d="m 185.36087,77.52181 c -1.18918,-2.600954 -1.86728,-5.235255 -3.05645,-7.502754 -0.37078,-0.366801 -0.37078,-0.967022 0,-1.367169 0.37078,-0.366801 0.97205,-0.366801 1.34283,0 1.60338,2.801029 2.01091,4.968491 3.34706,7.902902 0.26723,0.466838 0.12025,1.033713 -0.33404,1.300477 -0.45095,0.266765 -1.03217,0.100037 -1.2994,-0.333456 z"
       id="path3679"
       style="fill:#ffffff;stroke:none" />
    <path
       d="m 186.17926,77.021627 c -1.23594,-2.067426 -2.26144,-6.735806 -3.20342,-7.669482"
       id="path3681"
       style="fill:#ffffff;stroke:none" />
    <path
       d="m 196.33735,101.59732 c 0.49438,-0.33346 0.92528,-1.10041 1.109,-1.633938 l 0.01,0 c -0.0401,-0.500183 0.35408,-0.967021 0.87518,-1.000367 0.52443,-0.03334 0.97873,0.333456 1.01881,0.866985 -0.15032,1.5339 -1.0589,2.86772 -2.44516,3.56798 -0.50105,0.16672 -1.03217,-0.10004 -1.18917,-0.60022 -0.157,-0.50019 0.12025,-1.03372 0.62131,-1.20044 z"
       id="path3683"
       style="fill:#ffffff;stroke:none" />
    <path
       d="m 196.62128,102.49765 c 0.80169,-0.23342 1.82385,-2.00074 1.78042,-2.600959"
       id="path3685"
       style="fill:#ffffff;stroke:none" />
    <path
       d="m 196.86179,98.562868 c -0.0601,-3.634667 0.23382,-2.801028 0.7115,-5.835475 0.0434,-0.53353 0.5044,-0.933676 1.0255,-0.866985 0.52443,0.03334 0.91192,0.500183 0.86849,1.000367 -0.49437,3.101138 -0.77496,2.267499 -0.7115,5.568711 0.0368,0.500184 -0.35742,0.967022 -0.88186,1.000367 -0.5211,0.03335 -0.97539,-0.366801 -1.01213,-0.866985 z"
       id="path3687"
       style="fill:#ffffff;stroke:none" />
    <path
       d="m 197.80712,98.496177 c -0.26723,-3.834741 0.46431,-2.734337 0.71484,-5.702093"
       id="path3689"
       style="fill:#ffffff;stroke:none" />
    <path
       d="m 196.49435,96.395406 c -2.47188,-1.467205 -4.3926,-6.702461 -3.73455,-9.470143 0.1737,-0.500184 0.71484,-0.766949 1.20922,-0.600221 0.49438,0.166728 0.75493,0.733603 0.58123,1.200441 -0.40419,1.767315 1.39293,6.202277 2.67564,7.102607 0.48101,0.233419 0.7115,0.766949 0.51108,1.267132 -0.20377,0.466838 -0.75827,0.700257 -1.24262,0.500184 z"
       id="path3691"
       style="fill:#ffffff;stroke:none" />
    <path
       d="m 196.85845,95.528421 c -1.35954,-0.566875 -3.96503,-6.135586 -3.20342,-8.303048"
       id="path3693"
       style="fill:#ffffff;stroke:none" />
    <path
       d="m 192.70636,87.225373 c 0.2071,-3.034448 2.64892,-4.301579 5.51496,-3.334558 0.471,0.233419 0.67142,0.800294 0.44427,1.267132 -0.23048,0.466838 -0.79501,0.666912 -1.26934,0.433493 -1.42634,-0.466838 -2.68901,0.100036 -2.79256,1.633933 0,0.533529 -0.42423,0.933676 -0.94866,0.933676 -0.52444,0 -0.94867,-0.400147 -0.94867,-0.933676 z"
       id="path3695"
       style="fill:#ffffff;stroke:none" />
    <path
       d="m 193.65503,87.225373 c 0,-2.367536 2.52198,-3.267867 4.15209,-2.500918"
       id="path3697"
       style="fill:#ffffff;stroke:none" />
    <path
       d="m 199.6343,84.957874 c 0.0534,0.100036 0.72821,0.633566 1.00212,0.933676 l -0.10022,0.60022 c 0.14364,0.266765 0.0468,0.60022 -0.21378,0.733603 -0.26055,0.133382 -0.58791,0.03334 -0.73154,-0.200074 l -0.47434,0 c -0.51441,-0.60022 -0.65137,-0.233419 -1.23594,-1.333823 -0.20042,-0.466838 0.0267,-1.033713 0.51108,-1.233786 0.48436,-0.200073 1.0422,0.03335 1.24262,0.500184 z"
       id="path3699"
       style="fill:#ffffff;stroke:none" />
    <path
       d="m 198.75912,85.324675 c 0.2973,0.733603 0.80169,0.500184 1.30275,1.43386"
       id="path3701"
       style="fill:#ffffff;stroke:none" />
    <path
       d="m 200.30238,85.691476 c 3.37712,0.333456 5.1041,0.666912 8.23403,2.03408 0.43759,0.300111 0.56118,0.900331 0.27057,1.333823 -0.28727,0.433493 -0.87518,0.53353 -1.31277,0.266765 -2.59881,-1.100404 -4.41264,-1.43386 -7.19183,-1.73397 -0.52444,0 -0.95201,-0.433492 -0.95201,-0.967022 0,-0.500183 0.42757,-0.933676 0.95201,-0.933676 z"
       id="path3703"
       style="fill:#ffffff;stroke:none" />
    <path
       d="m 200.30238,86.625152 c 1.69023,0 6.47031,1.100404 7.71293,1.900698"
       id="path3705"
       style="fill:#ffffff;stroke:none" />
    <path
       d="m 196.31063,87.658865 c 0.78833,-1.033713 0.9186,-1.133749 2.09107,-1.667279 0.48436,-0.200073 1.03886,0.03335 1.23594,0.53353 0.19709,0.466838 -0.0367,1.033712 -0.52444,1.233786 -0.73488,0.333456 -0.74156,0.30011 -1.22926,0.933676 -0.29395,0.433493 -0.8852,0.566875 -1.31945,0.266765 -0.43424,-0.300111 -0.54782,-0.900331 -0.25386,-1.300478 z"
       id="path3707"
       style="fill:#ffffff;stroke:none" />
    <path
       d="m 197.09561,88.159049 c 0.47434,-0.666912 0.87184,-0.967022 1.66351,-1.300478"
       id="path3709"
       style="fill:#ffffff;stroke:none" />
    <path
       d="m 209.32474,89.026034 c 2.21133,4.835108 2.18127,5.535365 2.49192,10.77062 0.02,0.533526 -0.38748,0.967026 -0.91192,1.000366 -0.52444,0.0333 -0.96537,-0.40015 -0.98541,-0.900329 -0.28727,-4.901799 -0.22047,-5.50202 -2.26478,-9.970327 -0.25053,-0.466838 -0.0768,-1.033713 0.38414,-1.267132 0.46432,-0.266764 1.03886,-0.100036 1.28605,0.366802 z"
       id="path3711"
       style="fill:#ffffff;stroke:none" />
    <path
       d="m 208.48965,89.492872 c 1.89733,3.501285 2.22135,6.135586 2.37835,10.370474"
       id="path3713"
       style="fill:#ffffff;stroke:none" />
    <path
       d="m 212.6885,105.33202 c 0.15032,0.26676 0.66808,0.33346 0.92529,0.40015 0.51776,0.0667 0.87518,0.53353 0.79835,1.06706 -0.0768,0.50018 -0.55785,0.86698 -1.0756,0.80029 -1.22592,-0.23342 -1.79379,-0.43349 -2.40174,-1.5339 -0.20042,-0.46684 0.0301,-1.03371 0.51108,-1.23378 0.48436,-0.20008 1.0422,0.0333 1.24262,0.50018 z"
       id="path3715"
       style="fill:#ffffff;stroke:none" />
    <path
       d="m 211.81332,105.69882 c 0.26723,0.66691 1.00546,0.86699 1.66017,0.96702"
       id="path3717"
       style="fill:#ffffff;stroke:none" />
    <path
       d="m 210.14981,104.63176 c -0.15699,-3.46794 -0.0802,-1.66728 -0.23716,-5.335289 0,-0.500184 0.42757,-0.933676 0.95201,-0.933676 0.52109,0 0.94866,0.433492 0.94866,0.933676 0.15366,3.567979 0.0735,1.800659 0.23717,5.335289 0,0.53353 -0.42423,0.96702 -0.94867,0.96702 -0.52444,0 -0.95201,-0.43349 -0.95201,-0.96702 z"
       id="path3719"
       style="fill:#ffffff;stroke:none" />
    <path
       d="m 211.10182,104.63176 c 0,-1.70062 -0.23716,-3.43459 -0.23716,-5.335289"
       id="path3721"
       style="fill:#ffffff;stroke:none" />
    <path
       d="m 211.90017,100.76368 c 0.35408,0 1.50651,-0.23342 2.04765,-0.26677 0.52444,0 0.94867,0.43349 0.94867,0.93368 0,0.53353 -0.42423,0.96702 -0.94867,0.96702 -1.11568,0.0667 -1.2493,0.26676 -2.45851,0.20007 -0.51442,-0.10003 -0.8351,-0.60022 -0.72153,-1.13375 0.11358,-0.50018 0.62131,-0.83364 1.13239,-0.70025 z"
       id="path3723"
       style="fill:#ffffff;stroke:none" />
    <path
       d="m 211.69307,101.66401 c 0.60795,0.16672 1.17915,-0.23342 2.25475,-0.23342"
       id="path3725"
       style="fill:#ffffff;stroke:none" />
    <path
       d="m 216.13243,101.09713 c 2.84934,2.33419 2.33827,1.30048 5.13416,4.66838 0.29062,0.43349 0.17036,1.03372 -0.26389,1.33383 -0.43759,0.26676 -1.02549,0.16672 -1.31611,-0.26677 -2.56207,-3.13448 -2.4819,-2.33419 -5.07069,-4.56834 -0.31734,-0.4335 -0.23383,-1.03372 0.18706,-1.33383 0.41755,-0.33345 1.01214,-0.23341 1.32947,0.16673 z"
       id="path3727"
       style="fill:#ffffff;stroke:none" />
    <path
       d="m 215.37417,101.66401 c 0.74824,1.00036 2.93619,1.40051 5.10075,4.63503"
       id="path3729"
       style="fill:#ffffff;stroke:none" />
    <path
       d="m 221.06951,111.03411 c -0.73822,-2.86772 -0.26055,-1.40051 -1.48313,-4.40161 -0.18372,-0.50019 0.0668,-1.03372 0.55785,-1.23379 0.49103,-0.16673 1.03885,0.0667 1.22258,0.56688 1.30274,3.20117 0.75158,1.53389 1.60004,5.06852 0,0.53353 -0.42423,0.96702 -0.94867,0.96702 -0.52444,0 -0.94867,-0.43349 -0.94867,-0.96702 z"
       id="path3731"
       style="fill:#ffffff;stroke:none" />
    <path
       d="m 222.01818,111.03411 c 0,-1.36717 -1.06224,-3.43459 -1.54326,-4.73507"
       id="path3733"
       style="fill:#ffffff;stroke:none" />
    <path
       d="m 223.25078,111.86775 c 3.07315,3.86809 4.88029,4.50166 5.53167,9.60353 0,0.50018 -0.42423,0.93367 -0.94867,0.93367 -0.52444,0 -0.94867,-0.43349 -0.94867,-0.93367 -0.54782,-4.26824 -2.8126,-5.43533 -5.38803,-8.86992 -0.20042,-0.50019 0.0301,-1.06706 0.51442,-1.26714 0.48435,-0.20007 1.03886,0.0333 1.23928,0.53353 z"
       id="path3735"
       style="fill:#ffffff;stroke:none" />
    <path
       d="m 222.3756,112.23455 c 0.65137,1.56725 5.45818,4.73508 5.45818,9.23673"
       id="path3737"
       style="fill:#ffffff;stroke:none" />
    <path
       d="m 226.17361,154.88354 c 1.19251,-11.00404 2.689,-15.53903 1.86059,-26.84318 -0.14364,-1.96739 -0.23717,-2.73434 -0.43091,-4.70173 -0.0568,-0.50018 0.32068,-1.00037 0.84178,-1.03371 0.5211,-0.0667 0.98875,0.30011 1.04554,0.83364 0.19708,1.96739 0.29061,2.76768 0.43424,4.76841 0.83176,11.3375 -0.60126,15.93919 -1.85391,26.97657 0,0.50019 -0.42422,0.93368 -0.94866,0.93368 -0.52444,0 -0.94867,-0.43349 -0.94867,-0.93368 z"
       id="path3739"
       style="fill:#ffffff;stroke:none" />
    <path
       d="m 227.12228,154.88354 c 0,-1.16709 1.50651,-10.47051 1.75036,-12.67131 0.69479,-6.30232 0.3474,-12.70467 -0.32736,-18.97364"
       id="path3741"
       style="fill:#ffffff;stroke:none" />
    <path
       d="m 223.20735,131.00811 c 0.60461,-3.50128 1.28939,-4.86845 1.423,-8.73654 0.0401,-1.20044 -0.17035,-0.46684 0.41421,-1.63393 0,-0.30011 0.24051,-0.53353 0.53446,-0.53353 0.29396,0 0.53446,0.23342 0.53446,0.53353 1.38292,2.73434 -0.47433,7.46941 -1.01213,10.47051 -0.0267,0.53353 -0.47434,0.93368 -0.99877,0.90033 -0.52444,-0.0333 -0.92529,-0.46684 -0.89523,-1.00037 z"
       id="path3743"
       style="fill:#ffffff;stroke:none" />
    <path
       d="m 224.15602,131.0748 c 0.10021,-1.86735 1.423,-4.26823 1.423,-8.80323 0,-0.53353 0,-1.1004 0,-1.63393"
       id="path3745"
       style="fill:#ffffff;stroke:none" />
    <path
       d="m 175.73389,138.51087 c 0.25721,-6.13559 1.18584,-12.90474 4.76338,-18.03996 0.35408,-0.40015 0.95535,-0.40015 1.3395,-0.0667 0.38748,0.3668 0.41086,0.96702 0.0568,1.33382 -3.13327,4.56835 -4.03183,11.37084 -4.25898,16.77283 0,0.53353 -0.42423,0.96702 -0.94867,0.96702 -0.52444,0 -0.95201,-0.43349 -0.95201,-0.96702 z"
       id="path3747"
       style="fill:#ffffff;stroke:none" />
    <path
       d="m 176.6859,138.51087 c 0,-4.23489 1.67019,-14.3386 4.50951,-17.40639"
       id="path3749"
       style="fill:#ffffff;stroke:none" />
    <path
       d="m 174.66497,127.64021 c 2.03763,0.66691 2.3984,0.83364 3.93497,2.33419 0.33738,0.40015 0.28059,1.00037 -0.12025,1.33382 -0.40085,0.33346 -1.00212,0.30011 -1.33616,-0.10003 -1.13572,-1.13375 -1.4397,-1.23379 -2.94955,-1.73397 -0.50774,-0.10004 -0.81505,-0.63357 -0.68478,-1.13375 0.13028,-0.50019 0.64804,-0.8003 1.15577,-0.70026 z"
       id="path3751"
       style="fill:#ffffff;stroke:none" />
    <path
       d="m 174.43115,128.57389 c 1.30608,0.33345 2.56541,0.96702 3.44059,2.00073"
       id="path3753"
       style="fill:#ffffff;stroke:none" />
    <path
       d="m 171.58514,126.57315 c -2.3249,-2.00073 -2.94287,-2.86772 -5.71204,-4.36827 -0.48436,-0.20007 -0.7115,-0.7336 -0.50774,-1.23379 0.20376,-0.46683 0.76161,-0.70025 1.24262,-0.50018 3.15666,1.70063 3.56084,2.40088 6.15632,4.63504 0.41086,0.33345 0.48101,0.93367 0.15366,1.33382 -0.32736,0.40015 -0.92195,0.46684 -1.33282,0.13338 z"
       id="path3755"
       style="fill:#ffffff;stroke:none" />
    <path
       d="m 172.17305,125.83955 c -2.01425,-1.60059 -3.38046,-3.4346 -5.93251,-4.50165"
       id="path3757"
       style="fill:#ffffff;stroke:none" />
    <path
       d="m 173.83322,126.50646 c 0.0334,0.16673 0.99209,1.13375 1.13239,1.26713 0.30397,0.43349 0.20376,1.03371 -0.22381,1.33382 -0.43091,0.30012 -1.02215,0.20008 -1.32613,-0.23341 -0.83509,-0.93368 -1.23594,-0.93368 -1.47645,-2.2675 -0.0334,-0.50019 0.36077,-0.96702 0.8852,-1.00037 0.5211,-0.0333 0.9754,0.3668 1.0088,0.90033 z"
       id="path3759"
       style="fill:#ffffff;stroke:none" />
    <path
       d="m 172.88789,126.57315 c 0.0534,0.76695 0.76495,1.00037 1.30275,1.76732"
       id="path3761"
       style="fill:#ffffff;stroke:none" />
    <path
       d="m 159.93056,127.3401 c 1.64681,1.80066 4.26233,7.86956 6.97471,11.2708 0.80504,1.00037 1.93742,2.33419 2.78922,3.33456 0.34072,0.40015 0.29061,1.00037 -0.11023,1.33382 -0.40085,0.33346 -0.99878,0.26677 -1.33949,-0.10003 -4.31243,-5.10188 -7.68956,-9.97033 -10.17146,-16.2393 0.11024,-0.50018 0.61463,-0.83364 1.12905,-0.70025 0.51108,0.10003 0.83844,0.60022 0.7282,1.1004 z"
       id="path3763"
       style="fill:#ffffff;stroke:none" />
    <path
       d="m 159.00194,127.14003 c -0.0167,0.10003 4.26566,7.83621 4.64981,8.53646 1.00211,1.86736 3.92828,5.23526 5.31788,6.86919"
       id="path3765"
       style="fill:#ffffff;stroke:none" />
    <path
       d="m 157.45868,126.40642 c -0.58122,-2.46757 -1.18249,-4.93514 -1.80714,-7.40271 l -0.0868,-0.16673 c -0.25721,-0.43349 -0.0969,-1.03372 0.35742,-1.26713 0.45763,-0.26677 1.03552,-0.10004 1.29607,0.33345 0.57454,1.03371 1.85391,7.06926 2.13784,8.56981 -0.0167,0.53353 -0.45429,0.93368 -0.97873,0.90034 -0.52444,0 -0.93531,-0.4335 -0.91861,-0.96703 z"
       id="path3767"
       style="fill:#ffffff;stroke:none" />
    <path
       d="m 158.40735,126.43977 c 0.0134,-0.33346 -1.80714,-7.63614 -1.88731,-7.83621 l -0.13028,-0.23342"
       id="path3769"
       style="fill:#ffffff;stroke:none" />
    <path
       d="m 153.8945,113.90183 c 0.23049,1.30048 0.98207,1.93405 1.92406,2.80103 0.40084,0.33346 0.44761,0.93368 0.11023,1.33382 -0.34072,0.40015 -0.93865,0.46684 -1.33949,0.13339 -1.46643,-1.36717 -2.23471,-2.13412 -2.58545,-4.10151 -0.0468,-0.50018 0.34071,-0.96702 0.86181,-1.00037 0.5211,-0.0667 0.98207,0.33346 1.02884,0.83364 z"
       id="path3771"
       style="fill:#ffffff;stroke:none" />
    <path
       d="m 152.94917,114.00187 c 0.12026,1.36717 1.2493,2.56761 2.25476,3.43459"
       id="path3773"
       style="fill:#ffffff;stroke:none" />
    <path
       d="m 152.41137,111.9011 c 1.79713,-1.26713 1.73366,-1.36717 3.97839,-1.56724 0.52444,0 0.95201,0.43349 0.95201,0.93367 0,0.53353 -0.42757,0.96702 -0.95201,0.96702 -1.6468,0.13339 -1.51319,0.26677 -2.90279,1.23379 -0.43091,0.30011 -1.02215,0.20007 -1.31945,-0.23342 -0.29729,-0.43349 -0.18706,-1.03371 0.24385,-1.33382 z"
       id="path3775"
       style="fill:#ffffff;stroke:none" />
    <path
       d="m 152.94917,112.70139 c 1.31945,-0.90033 1.7036,-1.43386 3.44059,-1.43386"
       id="path3777"
       style="fill:#ffffff;stroke:none" />
    <path
       d="m 157.63906,110.43389 c 4.27569,1.03372 7.40896,4.26824 10.03116,7.60279 0.24719,0.46684 0.0768,1.03372 -0.38414,1.30048 -0.46097,0.23342 -1.03552,0.0667 -1.28605,-0.3668 -2.1512,-2.73434 -4.98384,-5.73544 -8.48456,-6.63577 -0.52444,-0.0333 -0.9186,-0.46684 -0.8852,-1.00037 0.0334,-0.53353 0.4877,-0.93367 1.00879,-0.90033 z"
       id="path3779"
       style="fill:#ffffff;stroke:none" />
    <path
       d="m 157.57894,111.40091 c 2.4986,0.16673 8.02025,4.83511 9.25619,7.10261"
       id="path3781"
       style="fill:#ffffff;stroke:none" />
    <path
       d="m 166.71821,120.97109 c -0.16702,-0.93367 -0.26055,-1.20044 -0.82173,-1.93404 -0.35408,-0.40015 -0.32736,-1.00037 0.0601,-1.36717 0.38748,-0.33345 0.98875,-0.30011 1.33949,0.0667 0.9186,1.23379 1.04554,1.5339 1.31611,3.03445 0.0468,0.53353 -0.34072,1.00037 -0.86182,1.03371 -0.5211,0.0667 -0.98207,-0.33345 -1.03218,-0.83364 z"
       id="path3783"
       style="fill:#ffffff;stroke:none" />
    <path
       d="m 167.66354,120.87106 c -0.0768,-0.86699 -0.49104,-1.86735 -1.06558,-2.50092"
       id="path3785"
       style="fill:#ffffff;stroke:none" />
    <path
       d="m 180.86806,123.47201 c -0.41087,-1.53389 -0.23717,-0.7336 -0.50106,-2.40088 -0.0434,-0.53353 0.34072,-0.96702 0.86516,-1.03371 0.5211,-0.0333 0.98207,0.3668 1.02549,0.86698 0.21713,1.40052 0.0701,0.70026 0.44761,2.10077 0.13362,0.50019 -0.17035,1.03372 -0.67809,1.1671 -0.5044,0.13338 -1.0255,-0.20007 -1.15911,-0.70026 z"
       id="path3787"
       style="fill:#ffffff;stroke:none" />
    <path
       d="m 181.78666,123.23859 c -0.23049,-0.86698 -0.39082,-1.30047 -0.47433,-2.23415"
       id="path3789"
       style="fill:#ffffff;stroke:none" />
    <path
       d="m 169.70117,141.94546 c 2.33159,2.90107 5.23103,7.80287 7.49247,9.93698 2.40841,2.23416 5.68866,4.73507 8.30418,6.90254 0.39417,0.33345 0.43425,0.93367 0.0902,1.33382 -0.34406,0.40015 -0.94533,0.43349 -1.33949,0.10004 -2.59547,-2.16747 -5.96258,-4.70173 -8.3309,-6.93588 -2.5888,-2.46758 -5.13751,-6.93588 -7.67619,-10.13706 -0.33738,-0.40014 -0.2806,-1.00037 0.12025,-1.33382 0.40418,-0.33346 1.00211,-0.26677 1.33949,0.13338 z"
       id="path3791"
       style="fill:#ffffff;stroke:none" />
    <path
       d="m 168.96963,142.54568 c 3.20676,3.86809 3.12659,4.30158 5.78553,8.16967 1.25265,1.80066 7.92004,6.86919 10.11801,8.76988"
       id="path3793"
       style="fill:#ffffff;stroke:none" />
    <path
       d="m 185.6615,159.35185 c 4.66985,3.16783 6.59057,7.60279 12.29593,11.37084 0.82174,0.53353 3.1099,1.80066 4.35586,2.53427 0.45763,0.23342 0.61463,0.83364 0.35408,1.26713 -0.26055,0.46684 -0.83844,0.63356 -1.29607,0.3668 l -1.22592,-0.70026 0.0367,0 -3.27357,-1.9007 c -5.75547,-3.80139 -7.90667,-8.36973 -12.11221,-11.23745 -0.46765,-0.23342 -0.65137,-0.8003 -0.41087,-1.26714 0.23717,-0.46683 0.80838,-0.66691 1.27603,-0.43349 z"
       id="path3795"
       style="fill:#ffffff;stroke:none" />
    <path
       d="m 185.23059,160.21884 c 3.64101,1.834 6.08283,8.36974 15.38578,13.13815 l 1.22592,0.70026"
       id="path3797"
       style="fill:#ffffff;stroke:none" />
    <path
       d="m 198.37164,171.52299 c 2.56875,2.90106 5.21099,6.90253 6.42689,10.60389 1.53991,4.70173 -0.7115,-0.60022 1.32613,3.90143 0.12359,0.26677 0.01,0.60022 -0.25721,0.7336 -0.26723,0.10004 -0.58791,0 -0.7115,-0.26676 -2.09776,-4.66838 0.48101,0.76695 -2.02427,-3.63467 -2.61552,-4.56834 -2.12114,-5.50202 -6.12291,-10.03702 -0.36411,-0.3668 -0.35743,-0.96702 0.02,-1.33382 0.37746,-0.3668 0.97873,-0.3668 1.34283,0.0333 z"
       id="path3799"
       style="fill:#ffffff;stroke:none" />
    <path
       d="m 197.6902,172.15655 c 3.98841,4.13485 5.5918,9.03665 7.9501,14.10518"
       id="path3801"
       style="fill:#ffffff;stroke:none" />
    <path
       d="m 227.33606,155.18365 c 5.45484,5.93552 10.70591,10.53721 14.95154,17.50643 0.24718,0.46684 0.0735,1.03371 -0.39083,1.26713 -0.46097,0.26677 -1.03552,0.10004 -1.2827,-0.3668 -4.07527,-6.66911 -9.43323,-11.43753 -14.69433,-17.13962 -0.3474,-0.3668 -0.31399,-0.96703 0.0768,-1.33383 0.39082,-0.33345 0.98875,-0.30011 1.33949,0.0667 z"
       id="path3803"
       style="fill:#ffffff;stroke:none" />
    <path
       d="m 226.6279,155.81722 c 4.55294,5.10187 11.73809,11.57092 14.82126,17.30635"
       id="path3805"
       style="fill:#ffffff;stroke:none" />
    <path
       d="m 212.08389,160.71902 c 5.04732,-4.36827 5.75882,-4.46831 12.28926,-5.70209 0.51775,-0.10004 0.99877,0.26676 1.0756,0.76694 0.0768,0.53353 -0.28059,1.00037 -0.79835,1.10041 -5.99264,1.13375 -6.59057,1.16709 -11.21031,5.16856 -0.36744,0.3668 -0.96871,0.3668 -1.34284,0 -0.37412,-0.3668 -0.3808,-0.96702 -0.0134,-1.33382 z"
       id="path3807"
       style="fill:#ffffff;stroke:none" />
    <path
       d="m 212.76199,161.38593 c 3.51742,-3.60132 6.74422,-4.70172 11.74811,-5.43533"
       id="path3809"
       style="fill:#ffffff;stroke:none" />
    <path
       d="m 211.93024,106.76588 c 0.11691,3.13448 0.94532,3.63467 2.5153,6.46904 0.23049,0.46684 0.0368,1.03371 -0.43425,1.26713 -0.47099,0.23342 -1.0422,0.0333 -1.26934,-0.43349 -1.82051,-3.26787 -2.56875,-3.56798 -2.70905,-7.30268 0,-0.50018 0.42423,-0.93368 0.94867,-0.93368 0.52444,0 0.94867,0.4335 0.94867,0.93368 z"
       id="path3811"
       style="fill:#ffffff;stroke:none" />
    <path
       d="m 210.98157,106.76588 c 0,3.63467 0.96537,3.53463 2.61217,6.86919"
       id="path3813"
       style="fill:#ffffff;stroke:none" />
    <path
       d="m 194.72729,102.53099 c 2.16456,3.76805 2.33158,4.1682 5.84566,6.76915 0.44427,0.26677 0.57454,0.86699 0.29061,1.30048 -0.28059,0.43349 -0.8685,0.56688 -1.30943,0.30011 -3.86815,-2.86772 -4.12202,-3.33456 -6.49703,-7.46941 -0.25053,-0.46684 -0.0768,-1.03371 0.38414,-1.26713 0.46097,-0.26676 1.03886,-0.10004 1.28605,0.3668 z"
       id="path3815"
       style="fill:#ffffff;stroke:none" />
    <path
       d="m 193.89219,102.99783 c 1.66017,3.06779 3.02304,5.10187 6.17302,7.10261"
       id="path3817"
       style="fill:#ffffff;stroke:none" />
    <path
       d="m 161.90807,75.120929 c -0.36744,-5.435329 5.50494,-9.203379 13.24126,-11.270804 3.08985,-0.800294 6.48033,-1.367169 9.8775,-1.633934 3.39382,-0.266764 6.80769,-0.233419 9.95433,0.06669 7.71627,0.733602 13.80912,3.23452 14.18992,7.636136 l -0.003,0 4.07192,31.444883 c -0.37078,0 -0.72152,0.10003 -1.03885,0.30011 l -4.09531,-31.678302 c -0.32401,-3.76805 -6.01268,-5.968857 -13.22456,-6.669115 -3.07314,-0.266764 -6.42688,-0.30011 -9.7706,-0.03334 -3.34038,0.266764 -6.66406,0.800294 -9.6871,1.600587 -7.26198,1.934044 -12.77695,5.368638 -12.44959,10.170401 l 2.49192,41.148439 -0.10355,-0.0667 c -0.30398,-0.20008 -0.64469,-0.30011 -0.98541,-0.30011 l -2.46854,-40.714948 0,0 z"
       id="path3819"
       style="fill:#ffffff;stroke:none" />
  </g>
</svg>
