<?xml version="1.0" encoding="UTF-8" standalone="no"?>
<!-- Created with Inkscape (http://www.inkscape.org/) -->

<svg
   xmlns:dc="http://purl.org/dc/elements/1.1/"
   xmlns:cc="http://creativecommons.org/ns#"
   xmlns:rdf="http://www.w3.org/1999/02/22-rdf-syntax-ns#"
   xmlns:svg="http://www.w3.org/2000/svg"
   xmlns="http://www.w3.org/2000/svg"
   xmlns:sodipodi="http://sodipodi.sourceforge.net/DTD/sodipodi-0.dtd"
   xmlns:inkscape="http://www.inkscape.org/namespaces/inkscape"
   version="1.1"
   width="181"
   height="181"
   viewBox="0 0 144.8 144.79999"
   id="svg2985"
   style="fill-rule:evenodd"
   inkscape:version="0.48.4 r9939"
   sodipodi:docname="device-mobile.svg">
  <sodipodi:namedview
     pagecolor="#ffffff"
     bordercolor="#666666"
     borderopacity="1"
     objecttolerance="10"
     gridtolerance="10"
     guidetolerance="10"
     inkscape:pageopacity="0"
     inkscape:pageshadow="2"
     inkscape:window-width="1053"
     inkscape:window-height="646"
     id="namedview88"
     showgrid="false"
     inkscape:zoom="1.4047619"
     inkscape:cx="-5.9576271"
     inkscape:cy="84"
     inkscape:window-x="0"
     inkscape:window-y="0"
     inkscape:window-maximized="0"
     inkscape:current-layer="svg2985" />
  <metadata
     id="metadata3827">
    <rdf:RDF>
      <cc:Work
         rdf:about="">
        <dc:format>image/svg+xml</dc:format>
        <dc:type
           rdf:resource="http://purl.org/dc/dcmitype/StillImage" />
        <dc:title />
      </cc:Work>
    </rdf:RDF>
  </metadata>
  <defs
     id="defs3825" />
  <g
     transform="translate(-124.8,-29.999986)"
     id="g3688"
     style="fill:#ffffff">
    <path
       d="m 145.93482,114.04164 c 2.9014,-3.45995 12.3351,-0.23288 14.36708,-3.39341 l 0.17988,-0.39923 c 0.19987,-0.43249 0.71952,-0.6321 1.15922,-0.43249 0.43638,0.19961 0.62958,0.69864 0.42972,1.16441 -2.37508,5.18992 -12.61825,1.5969 -14.70019,4.05878 -0.27315,0.39923 -0.81612,0.46576 -1.21253,0.19961 -0.39973,-0.26615 -0.49633,-0.79844 -0.22318,-1.19767 z"
       id="path3479"
       style="fill:#ffffff;stroke:none"
       inkscape:connector-curvature="0" />
    <path
       d="m 146.65101,114.54067 c 1.88874,-2.72803 12.50166,0.13308 14.42704,-3.49322 l 0.19986,-0.43249"
       id="path3481"
       style="fill:#ffffff;stroke:none"
       inkscape:connector-curvature="0" />
    <path
       d="m 160.9015,109.6169 c 0,0 0,-5.22319 0,-5.22319 0,-0.46576 0.38974,-0.86499 0.87275,-0.86499 0.48301,0 0.87275,0.39923 0.87275,0.86499 0,0 0,5.22319 0,5.22319 0,0.49903 -0.38974,0.89825 -0.87275,0.89825 -0.48301,0 -0.87275,-0.39922 -0.87275,-0.89825 z"
       id="path3483"
       style="fill:#ffffff;stroke:none"
       inkscape:connector-curvature="0" />
    <path
       d="m 161.77425,109.6169 c 0,-1.72998 0,-3.49322 0,-5.22319"
       id="path3485"
       style="fill:#ffffff;stroke:none"
       inkscape:connector-curvature="0" />
    <path
       d="m 161.67765,102.86335 c 2.0886,-1.36402 3.64423,-1.4971 5.82278,-0.23288 0.39307,0.26615 0.48967,0.79844 0.21652,1.19767 -0.27648,0.39922 -0.82278,0.49903 -1.21586,0.23288 -1.42904,-0.83172 -2.41838,-0.69864 -3.78081,0.19961 -0.3864,0.26615 -0.93604,0.19962 -1.22251,-0.19961 -0.28981,-0.36596 -0.20986,-0.93152 0.17988,-1.19767 z"
       id="path3487"
       style="fill:#ffffff;stroke:none"
       inkscape:connector-curvature="0" />
    <path
       d="m 162.1973,103.56199 c 1.41905,-1.0646 3.28114,-1.29748 4.80346,-0.23288"
       id="path3489"
       style="fill:#ffffff;stroke:none"
       inkscape:connector-curvature="0" />
    <path
       d="m 162.15066,121.06134 c 2.97469,-0.29942 7.31512,-4.69089 7.42505,-7.31912 -0.0466,-0.46576 0.30646,-0.89825 0.78614,-0.96479 0.47968,-0.0333 0.90606,0.33269 0.9527,0.79845 -0.12658,4.09205 -5.17655,8.84948 -9.16389,9.24871 -0.48301,0 -0.87275,-0.39923 -0.87275,-0.86499 0,-0.49903 0.38974,-0.89826 0.87275,-0.89826 z"
       id="path3491"
       style="fill:#ffffff;stroke:none"
       inkscape:connector-curvature="0" />
    <path
       d="m 162.15066,121.9596 c 3.54431,0 8.52099,-5.88857 8.29447,-8.28392"
       id="path3493"
       style="fill:#ffffff;stroke:none"
       inkscape:connector-curvature="0" />
    <path
       d="m 169.56239,112.94377 c -0.42306,-4.05878 -0.95603,-4.85723 -2.36842,-8.55006 -0.17988,-0.19961 -0.16656,-0.49903 0.0333,-0.66538 0.19986,-0.19961 0.51299,-0.16634 0.69287,0.0333 l 1.55563,1.72998 c 1.18587,1.96285 1.60559,5.22319 1.83211,7.45219 0,0.49903 -0.38974,0.89826 -0.87275,0.89826 -0.47968,0 -0.87275,-0.39923 -0.87275,-0.89826 z"
       id="path3495"
       style="fill:#ffffff;stroke:none"
       inkscape:connector-curvature="0" />
    <path
       d="m 170.43514,112.94377 c 0,-2.42862 -1.26583,-7.08624 -2.87808,-8.84948"
       id="path3497"
       style="fill:#ffffff;stroke:none"
       inkscape:connector-curvature="0" />
    <path
       d="m 160.63834,148.30843 c 4.26715,-10.61272 3.57095,-8.05103 1.9054,-19.02971 -0.19321,-1.26421 -0.11326,-0.79845 -0.37642,-2.02939 -0.11326,-0.46577 0.17322,-0.9648 0.6429,-1.0646 0.46636,-0.0998 0.93938,0.16634 1.05597,0.6321 0.28314,1.36402 0.19986,0.86499 0.40639,2.22901 1.70553,11.24483 2.39507,8.94929 -2.00866,19.8947 -0.17655,0.43249 -0.68288,0.66537 -1.12924,0.49903 -0.4497,-0.19961 -0.67289,-0.69864 -0.49634,-1.13114 z"
       id="path3499"
       style="fill:#ffffff;stroke:none"
       inkscape:connector-curvature="0" />
    <path
       d="m 161.55773,125.55262 c -0.1066,-1.76324 -0.59627,-1.0646 0.2898,-2.72803 0.06,-0.26615 0.32312,-0.4325 0.58961,-0.36596 0.26982,0.0333 0.43638,0.29942 0.37975,0.56557 0.41972,0.99806 0.41972,1.49709 0.48634,2.56169 -0.0167,0.49903 -0.42305,0.86499 -0.90273,0.86499 -0.48301,-0.0333 -0.85943,-0.4325 -0.84277,-0.89826 z"
       id="path3503"
       style="fill:#ffffff;stroke:none"
       inkscape:connector-curvature="0" />
    <path
       d="m 162.43048,125.55262 c 0.0333,-0.99806 -0.37309,-1.36402 -0.0966,-2.62823"
       id="path3505"
       style="fill:#ffffff;stroke:none"
       inkscape:connector-curvature="0" />
    <path
       d="m 160.29191,122.72478 c 0.13324,-0.69864 0.26648,-0.83172 0.86608,-1.19767 l 0.43971,0.19961 c 0.23651,-0.13308 0.53631,-0.0665 0.67288,0.16634 0.13325,0.23288 0.0533,0.5323 -0.18321,0.69864 l -0.13324,0.4325 c 0.03,-0.0333 0.05,-0.0333 0.0766,-0.13308 l -0.007,0.0665 c -0.06,0.46576 -0.49966,0.79845 -0.97601,0.73191 -0.47968,-0.0665 -0.81612,-0.49903 -0.75616,-0.96479 z"
       id="path3507"
       style="fill:#ffffff;stroke:none"
       inkscape:connector-curvature="0" />
    <path
       d="m 161.15799,122.82459 c 0.06,-0.4325 0.22319,-0.39923 0.68621,-0.66538"
       id="path3509"
       style="fill:#ffffff;stroke:none"
       inkscape:connector-curvature="0" />
    <path
       d="m 158.91616,153.69797 c 0.23317,-2.46189 0.52964,-2.62823 1.30912,-4.85724 0.13658,-0.43249 0.61959,-0.69864 1.08261,-0.56556 0.46303,0.13307 0.72619,0.59883 0.58961,1.0646 -0.65956,1.89631 -1.0493,2.36208 -1.23584,4.3582 0,0.46576 -0.38974,0.86499 -0.87275,0.86499 -0.47968,0 -0.87275,-0.39923 -0.87275,-0.86499 z"
       id="path3511"
       style="fill:#ffffff;stroke:none"
       inkscape:connector-curvature="0" />
    <path
       d="m 159.78891,153.69797 c 0,-1.92959 0.70286,-2.6615 1.27248,-4.59109"
       id="path3513"
       style="fill:#ffffff;stroke:none"
       inkscape:connector-curvature="0" />
    <path
       d="m 159.4991,168.20314 c 3.21785,-5.12339 3.1046,-8.71641 2.45836,-14.63825 -0.14657,-1.33075 -0.49967,-3.79263 -0.68621,-5.12338 -0.0633,-0.46576 0.26982,-0.93153 0.74617,-0.99806 0.47968,-0.0665 0.91939,0.29942 0.98268,0.76518 0.36309,2.59496 0.78614,5.28973 0.9427,7.91796 0.33644,5.65568 -0.0666,8.38372 -3.07794,13.14115 -0.2998,0.39922 -0.84944,0.43249 -1.22918,0.13307 -0.37642,-0.29942 -0.43638,-0.83172 -0.13658,-1.19767 z"
       id="path3515"
       style="fill:#ffffff;stroke:none"
       inkscape:connector-curvature="0" />
    <path
       d="m 146.02809,163.64532 c 1.89873,-0.19961 3.51765,-1.46382 4.91672,-2.6615 0.33311,-0.33269 0.88607,-0.33269 1.23584,0 0.34644,0.33269 0.35976,0.86499 0.0266,1.23094 -1.9487,1.66344 -3.63091,2.92765 -6.22918,3.1938 -0.48301,-0.0333 -0.86275,-0.43249 -0.8461,-0.89825 0.0133,-0.49903 0.41306,-0.86499 0.89607,-0.86499 z"
       id="path3519"
       style="fill:#ffffff;stroke:none"
       inkscape:connector-curvature="0" />
    <path
       d="m 146.00477,164.54358 c 1.60893,0.0333 4.46036,-1.79652 5.57295,-2.92765"
       id="path3521"
       style="fill:#ffffff;stroke:none"
       inkscape:connector-curvature="0" />
    <path
       d="m 139.43915,132.40598 c 0.44637,-6.78682 2.67155,-11.51098 5.69287,-17.53262 0.20986,-0.43249 0.73285,-0.59884 1.16589,-0.39923 0.43304,0.19962 0.61292,0.69865 0.39973,1.13114 -2.85476,5.68895 -5.0866,10.37985 -5.51298,16.80071 0,0.46576 -0.38974,0.83172 -0.87276,0.83172 -0.48301,0 -0.87275,-0.36596 -0.87275,-0.83172 z"
       id="path3523"
       style="fill:#ffffff;stroke:none"
       inkscape:connector-curvature="0" />
    <path
       d="m 140.3119,132.40598 c 0,-5.48934 3.13791,-12.3427 5.60293,-17.16667"
       id="path3525"
       style="fill:#ffffff;stroke:none"
       inkscape:connector-curvature="0" />
    <path
       d="m 135.7716,145.97962 c -0.39307,-2.6615 2.57495,-7.95122 3.2012,-11.47771 l 0.20986,-1.79651 c 0.0166,-0.49903 0.42305,-0.86499 0.90273,-0.83172 0.48301,0 0.85943,0.39923 0.83944,0.89826 l -0.23651,2.02939 c -0.45636,2.59496 -3.3944,9.41505 -3.24783,10.67926 0.1399,0.46576 -0.11992,0.93153 -0.58295,1.09787 -0.45969,0.13308 -0.94936,-0.13307 -1.08594,-0.59884 z"
       id="path3527"
       style="fill:#ffffff;stroke:none"
       inkscape:connector-curvature="0" />
    <path
       d="m 136.60438,145.71347 c -0.55963,-1.82978 3.26449,-7.95122 3.45103,-12.9748"
       id="path3529"
       style="fill:#ffffff;stroke:none"
       inkscape:connector-curvature="0" />
    <path
       d="m 125.81824,153.33201 c 2.5583,0 8.07795,-4.92377 9.76349,-6.82009 0.29314,-0.39922 0.83944,-0.46576 1.22252,-0.16634 0.38307,0.29942 0.45636,0.83172 0.16655,1.23094 -2.31179,2.59496 -7.76149,7.51874 -11.44236,7.4522 -0.47635,-0.0665 -0.79614,-0.5323 -0.71619,-0.99806 0.0799,-0.46577 0.52964,-0.79845 1.00599,-0.69865 z"
       id="path3531"
       style="fill:#ffffff;stroke:none"
       inkscape:connector-curvature="0" />
    <path
       d="m 125.67501,154.197 c 2.39506,0.39922 9.16388,-5.28973 10.59959,-7.15278"
       id="path3533"
       style="fill:#ffffff;stroke:none"
       inkscape:connector-curvature="0" />
    <path
       d="m 157.80357,123.88919 c 1.76215,-1.92959 1.88207,-2.22901 4.11059,-2.82785 0.34643,0 0.6429,0.36596 0.66289,0.83172 0.02,0.49903 -0.24317,0.89826 -0.58961,0.93153 -1.81212,0.46576 -1.96869,0.86498 -3.41439,2.42861 -0.27315,0.29942 -0.66955,0.23288 -0.88274,-0.16634 -0.20986,-0.36596 -0.1599,-0.93153 0.11326,-1.19767 z"
       id="path3535"
       style="fill:#ffffff;stroke:none"
       inkscape:connector-curvature="0" />
    <path
       d="m 158.18664,124.55456 c 1.21253,-1.29748 2.15523,-2.49516 3.76416,-2.59496"
       id="path3537"
       style="fill:#ffffff;stroke:none"
       inkscape:connector-curvature="0" />
    <path
       d="m 138.21997,151.06974 c 0.10992,5.05685 0.93271,5.72222 5.38973,7.91796 0.43638,0.19961 0.62625,0.73191 0.42306,1.1644 -0.2032,0.4325 -0.72286,0.63211 -1.15923,0.39923 -5.12325,-2.49516 -6.26582,-3.69283 -6.39906,-9.51486 0.01,-0.46576 0.40972,-0.86499 0.89273,-0.86499 0.48301,0.0333 0.86276,0.4325 0.85277,0.89826 z"
       id="path3539"
       style="fill:#ffffff;stroke:none"
       inkscape:connector-curvature="0" />
    <path
       d="m 241.39445,92.350427 c -2.47835,-5.75549 -4.32378,-7.285852 -5.07994,-14.006136 -0.0233,-0.465762 0.3431,-0.898256 0.82611,-0.898256 0.48301,-0.03327 0.89274,0.332688 0.91939,0.79845 0.6962,6.221253 2.62824,8.051033 4.96002,13.473836 0.17655,0.432494 -0.0466,0.964793 -0.49633,1.131137 -0.4497,0.166344 -0.95603,-0.06654 -1.12925,-0.499031 z"
       id="path3543"
       style="fill:#ffffff;stroke:none"
       inkscape:connector-curvature="0" />
    <path
       d="m 242.20724,92.01774 c -1.75216,-4.491279 -4.70353,-7.851421 -5.01998,-13.706718"
       id="path3545"
       style="fill:#ffffff;stroke:none"
       inkscape:connector-curvature="0" />
    <path
       d="m 236.52104,77.279692 c 0.55296,-2.195737 1.89873,-3.127261 4.16055,-3.060724 0.47635,0.06654 0.81279,0.499031 0.74617,0.998062 -0.0633,0.465762 -0.503,0.79845 -0.98268,0.731912 -1.14923,-0.03327 -1.90872,0.432494 -2.19187,1.563631 -0.0666,0.499031 -0.50633,0.831718 -0.98267,0.765181 -0.47968,-0.06654 -0.8128,-0.499031 -0.7495,-0.998062 z"
       id="path3547"
       style="fill:#ffffff;stroke:none"
       inkscape:connector-curvature="0" />
    <path
       d="m 237.38712,77.412766 c 0.19321,-1.430555 1.65557,-2.528423 3.17788,-2.328811"
       id="path3549"
       style="fill:#ffffff;stroke:none"
       inkscape:connector-curvature="0" />
    <path
       d="m 242.20724,75.582986 c 0.58961,4.624354 7.72485,10.978682 10.80945,14.272286 0.24318,0.133075 0.33978,0.432494 0.21653,0.665375 -0.12325,0.232881 -0.41972,0.332687 -0.66289,0.199612 l -1.82545,-0.765181 c -2.87808,-1.82978 -9.81679,-10.346575 -10.28314,-14.405361 0.0133,-0.465762 0.41306,-0.864987 0.89274,-0.831718 0.48301,0 0.86275,0.399225 0.85276,0.864987 z"
       id="path3551"
       style="fill:#ffffff;stroke:none"
       inkscape:connector-curvature="0" />
    <path
       d="m 241.33449,75.582986 c -0.0733,3.060724 7.95136,12.908268 11.45902,14.70478"
       id="path3553"
       style="fill:#ffffff;stroke:none"
       inkscape:connector-curvature="0" />
    <path
       d="m 263.20989,122.45863 c -0.0766,-4.29167 0.0566,-5.45607 0.50633,-9.61466 0.06,-0.46577 0.49634,-0.79845 0.97269,-0.73192 0.47968,0.0333 0.81945,0.46577 0.75949,0.9648 -0.44637,4.12532 -0.56962,5.05684 -0.49301,9.34851 0.003,0.49903 -0.38307,0.89826 -0.86608,0.89826 -0.48302,0 -0.87609,-0.39923 -0.87942,-0.86499 z"
       id="path3555"
       style="fill:#ffffff;stroke:none"
       inkscape:connector-curvature="0" />
    <path
       d="m 264.08264,122.42536 c -0.02,-3.16053 -0.21985,-4.72416 0.14324,-6.65375 0.19987,-1.03133 0.22319,-1.76324 0.35643,-2.79457"
       id="path3557"
       style="fill:#ffffff;stroke:none"
       inkscape:connector-curvature="0" />
    <path
       d="m 263.71289,111.8459 c -2.88141,-6.02164 -8.36775,-10.91214 -9.52031,-17.665693 -0.0999,-0.266149 0.0267,-0.532299 0.27981,-0.632105 0.25316,-0.09981 0.53631,0.03327 0.63624,0.266149 1.41239,2.09593 0.66622,0.79845 1.61892,2.927649 2.39174,5.35627 7.15856,10.71253 8.72418,14.93766 0.0433,0.46576 -0.30646,0.89826 -0.78614,0.96479 -0.47968,0.0333 -0.90606,-0.33268 -0.9527,-0.79845 z"
       id="path3559"
       style="fill:#ffffff;stroke:none"
       inkscape:connector-curvature="0" />
    <path
       d="m 264.58231,111.7461 c -0.11326,-1.13114 -6.21252,-9.6812 -7.20519,-11.64406 -1.14257,-2.262272 -1.80546,-3.726096 -2.72818,-6.121445"
       id="path3561"
       style="fill:#ffffff;stroke:none"
       inkscape:connector-curvature="0" />
    <path
       d="m 253.27652,93.415027 c -0.49633,-1.397287 -0.38641,-0.698644 -0.36975,-2.129199 -0.12658,-0.232881 -0.04,-0.5323 0.19986,-0.665375 0.23651,-0.133075 0.53631,-0.03327 0.66623,0.199612 1.01598,1.230944 0.62958,0.5323 1.15589,2.029393 0.15656,0.432494 -0.0866,0.931525 -0.54297,1.097868 -0.45303,0.166344 -0.9527,-0.09981 -1.10926,-0.532299 z"
       id="path3563"
       style="fill:#ffffff;stroke:none"
       inkscape:connector-curvature="0" />
    <path
       d="m 254.10264,93.115608 c -0.1066,-0.299419 -0.66956,-1.896318 -0.76283,-2.062661"
       id="path3565"
       style="fill:#ffffff;stroke:none"
       inkscape:connector-curvature="0" />
    <path
       d="m 243.37313,91.917934 c 0.38974,0.998062 1.09927,1.397286 1.97535,2.029392 0.38641,0.299419 0.46635,0.831719 0.17988,1.230943 -0.28648,0.365956 -0.83611,0.465763 -1.22252,0.166344 -1.35576,-0.998062 -2.01199,-1.397287 -2.60826,-2.960917 -0.13324,-0.465762 0.13325,-0.931525 0.59627,-1.0646 0.46302,-0.133074 0.94604,0.133075 1.07928,0.598838 z"
       id="path3567"
       style="fill:#ffffff;stroke:none"
       inkscape:connector-curvature="0" />
    <path
       d="m 242.53369,92.150815 c 0.3431,1.197674 1.41239,1.82978 2.29513,2.495155"
       id="path3569"
       style="fill:#ffffff;stroke:none"
       inkscape:connector-curvature="0" />
    <path
       d="m 245.58832,95.477688 c 1.1892,3.293604 2.57162,6.454132 4.13724,9.581392 0.32645,0.36596 0.30313,0.89826 -0.05,1.23095 -0.35643,0.33268 -0.90606,0.29941 -1.23251,-0.0333 -1.88541,-3.49322 -3.36442,-6.919899 -4.59693,-10.679266 -0.03,-0.465762 0.33311,-0.898256 0.81279,-0.931524 0.48301,-0.03327 0.8994,0.332687 0.92938,0.831718 z"
       id="path3571"
       style="fill:#ffffff;stroke:none"
       inkscape:connector-curvature="0" />
    <path
       d="m 244.7189,95.510957 c 0.0566,0.831718 3.86076,9.614663 4.36375,10.146963"
       id="path3573"
       style="fill:#ffffff;stroke:none"
       inkscape:connector-curvature="0" />
    <path
       d="m 249.09598,113.07685 c -0.73618,-3.02746 -0.50966,-4.59109 -0.4497,-7.65181 0,-0.46576 0.39307,-0.86499 0.87275,-0.86499 0.48301,0 0.87275,0.39923 0.87275,0.86499 -0.0433,2.29554 -0.20653,4.52455 0.20986,6.75355 0.24317,0.43249 0.10326,0.96479 -0.31313,1.19768 -0.41638,0.26615 -0.94936,0.0998 -1.19253,-0.29942 z"
       id="path3575"
       style="fill:#ffffff;stroke:none"
       inkscape:connector-curvature="0" />
    <path
       d="m 249.84881,112.64435 c -0.58961,-0.99806 -0.32978,-5.72222 -0.32978,-7.21931"
       id="path3577"
       style="fill:#ffffff;stroke:none"
       inkscape:connector-curvature="0" />
    <path
       d="m 244.93542,117.50159 c 1.65889,-2.62823 3.86742,-4.52455 5.22318,-7.21932 0.21652,-0.43249 0.73951,-0.59883 1.16922,-0.39922 0.43305,0.23288 0.60626,0.73191 0.39307,1.1644 l -0.10992,0.23289 c -0.66623,1.33074 -3.71419,5.55587 -4.93005,6.28779 -0.0133,0.46576 -0.41639,0.86498 -0.89607,0.83171 -0.48301,0 -0.86275,-0.39922 -0.84943,-0.89825 z"
       id="path3579"
       style="fill:#ffffff;stroke:none"
       inkscape:connector-curvature="0" />
    <path
       d="m 245.80817,117.53486 c 0.007,-0.16635 3.8974,-4.39148 4.91339,-6.42087 l 0.21652,-0.43249"
       id="path3581"
       style="fill:#ffffff;stroke:none"
       inkscape:connector-curvature="0" />
    <path
       d="m 246.03802,122.09267 c 0.98934,-3.99224 0.22651,-2.09593 2.27515,-5.62241 0.11659,-0.26615 0.40972,-0.36596 0.65623,-0.23288 0.24317,0.0998 0.34643,0.39922 0.22984,0.6321 -1.01266,3.69283 -0.53631,1.86305 -1.43571,5.48934 -0.0766,0.49903 -0.52631,0.79845 -1.00266,0.73192 -0.47635,-0.0665 -0.79947,-0.5323 -0.72285,-0.99807 z"
       id="path3583"
       style="fill:#ffffff;stroke:none"
       inkscape:connector-curvature="0" />
    <path
       d="m 246.90078,122.22575 c 0.34643,-2.1292 0.91605,-3.59302 1.85542,-5.55588"
       id="path3585"
       style="fill:#ffffff;stroke:none"
       inkscape:connector-curvature="0" />
    <path
       d="m 244.22589,120.39597 c -1.88874,-1.92959 -0.37641,-11.07849 -1.34243,-15.30362 l -0.17988,-0.79845 c -0.1066,-0.46576 0.18654,-0.93152 0.65623,-1.03133 0.47301,-0.0998 0.93937,0.19961 1.04596,0.66538 l 0.17988,0.76518 c 0.81279,3.55975 0.0733,13.00807 0.7495,14.33882 0.33978,0.29942 0.39307,0.83172 0.11659,1.19767 -0.29314,0.36596 -0.84277,0.46577 -1.22585,0.16635 z"
       id="path3587"
       style="fill:#ffffff;stroke:none"
       inkscape:connector-curvature="0" />
    <path
       d="m 244.75554,119.69732 c -1.27581,-0.96479 -0.0733,-10.64599 -0.8461,-14.0394 l -0.3531,-1.56363"
       id="path3589"
       style="fill:#ffffff;stroke:none"
       inkscape:connector-curvature="0" />
    <path
       d="m 242.67027,103.32911 c -0.53964,-2.86111 -1.18588,-4.391474 -2.81479,-6.820091 -0.33311,-0.332688 -0.31979,-0.898256 0.0266,-1.230943 0.34643,-0.332688 0.8994,-0.299419 1.23584,0.03327 2.05196,2.994186 2.66822,4.45801 3.2978,8.017764 0,0.46576 -0.39307,0.86499 -0.87275,0.86499 -0.48301,0 -0.87275,-0.39923 -0.87275,-0.86499 z"
       id="path3591"
       style="fill:#ffffff;stroke:none"
       inkscape:connector-curvature="0" />
    <path
       d="m 243.54302,103.32911 c 0,-1.82978 -1.93205,-6.254523 -3.05796,-7.418929"
       id="path3593"
       style="fill:#ffffff;stroke:none"
       inkscape:connector-curvature="0" />
    <path
       d="m 234.34915,133.77 c -0.33644,-2.76131 -0.99933,-4.35821 -1.36908,-6.88663 l -0.26649,-3.36014 c 0,-0.46576 0.38974,-0.86499 0.87275,-0.86499 0.48301,0 0.87275,0.39923 0.87275,0.86499 0.3431,4.29167 1.16589,6.28779 1.63557,10.24677 0,0.49903 -0.38974,0.89825 -0.87275,0.89825 -0.47968,0 -0.87275,-0.39922 -0.87275,-0.89825 z"
       id="path3595"
       style="fill:#ffffff;stroke:none"
       inkscape:connector-curvature="0" />
    <path
       d="m 235.2219,133.77 c 0,-2.82784 -1.63557,-5.48934 -1.63557,-10.24677"
       id="path3597"
       style="fill:#ffffff;stroke:none"
       inkscape:connector-curvature="0" />
    <path
       d="m 232.75022,122.85785 c 0.55629,-3.79263 0.52631,-12.07655 0.0933,-15.93572 -0.10326,-0.46576 0.1932,-0.93152 0.66289,-1.03133 0.46969,-0.0998 0.93604,0.19961 1.04264,0.66538 0.48967,4.12532 0.52298,12.74192 -0.12658,16.80071 -0.13991,0.46576 -0.62625,0.73191 -1.08928,0.56556 -0.45969,-0.13307 -0.72285,-0.59883 -0.58294,-1.0646 z"
       id="path3599"
       style="fill:#ffffff;stroke:none"
       inkscape:connector-curvature="0" />
    <path
       d="m 233.58633,123.09074 c 0.53631,-1.76325 0.51965,-14.4719 0.10992,-16.33495"
       id="path3601"
       style="fill:#ffffff;stroke:none"
       inkscape:connector-curvature="0" />
    <path
       d="m 232.8235,106.32329 c -0.06,-1.53036 -0.52298,-8.583328 0.10327,-9.980615 l 0.77615,-0.964793 c 0.13324,-0.232881 0.43304,-0.299419 0.66955,-0.166344 0.23651,0.133075 0.31979,0.432494 0.18654,0.665375 0.10327,1.630168 0.0833,0.199612 -0.12991,1.996124 -0.28315,2.395353 0.0466,5.988373 0.1399,8.450253 0,0.46577 -0.39307,0.86499 -0.87275,0.86499 -0.48301,0 -0.87275,-0.39922 -0.87275,-0.86499 z"
       id="path3603"
       style="fill:#ffffff;stroke:none"
       inkscape:connector-curvature="0" />
    <path
       d="m 233.69625,106.32329 c 0,-2.96091 -0.75283,-8.583328 0.43638,-10.679258"
       id="path3605"
       style="fill:#ffffff;stroke:none"
       inkscape:connector-curvature="0" />
    <path
       d="m 233.76954,94.280014 c 1.33577,-3.193799 5.41305,-2.728036 7.0453,0.199612 0.1932,0.432494 0.0433,0.964793 -0.33645,1.164406 -0.37641,0.232881 -0.84277,0.06654 -1.03597,-0.365956 -0.93937,-1.696706 -3.57428,-1.962856 -4.21719,-0.432494 -0.13657,0.465762 -0.57628,0.698643 -0.97601,0.565568 -0.40307,-0.166343 -0.61959,-0.665374 -0.47968,-1.131136 z"
       id="path3607"
       style="fill:#ffffff;stroke:none"
       inkscape:connector-curvature="0" />
    <path
       d="m 234.49905,94.579432 c 0.65956,-2.195736 4.52698,-2.129199 5.62958,0.299419"
       id="path3609"
       style="fill:#ffffff;stroke:none"
       inkscape:connector-curvature="0" />
    <path
       d="m 265.31182,111.47995 c 2.16856,2.59496 3.08128,2.72803 3.32445,6.08818 0,0.46576 -0.38974,0.86498 -0.87275,0.86498 -0.47968,0 -0.87275,-0.39922 -0.87275,-0.86498 -0.17988,-2.52843 -1.38907,-3.16053 -3.00466,-5.05685 -0.27648,-0.39923 -0.18321,-0.93153 0.20986,-1.23094 0.39307,-0.26615 0.93937,-0.16635 1.21585,0.19961 z"
       id="path3611"
       style="fill:#ffffff;stroke:none"
       inkscape:connector-curvature="0" />
    <path
       d="m 264.59897,112.01225 c 1.51898,2.1292 3.16455,2.52842 3.16455,5.55588"
       id="path3613"
       style="fill:#ffffff;stroke:none"
       inkscape:connector-curvature="0" />
    <path
       d="m 265.78484,148.54132 c 0.42638,-8.05104 -0.55296,-14.63825 0.33311,-22.72255 0.07,-0.49903 0.51299,-0.83172 0.98934,-0.76518 0.47635,0.0998 0.80613,0.5323 0.73951,0.99806 -0.87275,7.9845 0.0999,14.67151 -0.32312,22.62274 -0.0366,0.46576 -0.45969,0.83172 -0.93937,0.79845 -0.47968,-0.0333 -0.83944,-0.46576 -0.79947,-0.93152 z"
       id="path3615"
       style="fill:#ffffff;stroke:none"
       inkscape:connector-curvature="0" />
    <path
       d="m 266.65426,148.60785 c 0.68288,-8.41699 -0.8461,-14.5717 0.32645,-22.68927"
       id="path3617"
       style="fill:#ffffff;stroke:none"
       inkscape:connector-curvature="0" />
    <path
       d="m 265.89144,125.05359 c 0.21319,-2.6615 0.69953,-4.45801 0.87275,-7.18605 0,-0.49903 0.38974,-0.86498 0.87275,-0.86498 0.48301,0 0.87275,0.36595 0.87275,0.86498 -0.17655,2.79458 -0.65956,4.55782 -0.87275,7.18605 0,0.49903 -0.38974,0.86499 -0.87275,0.86499 -0.48301,0 -0.87275,-0.36596 -0.87275,-0.86499 z"
       id="path3619"
       style="fill:#ffffff;stroke:none"
       inkscape:connector-curvature="0" />
    <path
       d="m 266.76419,125.05359 c 0,-2.42862 0.87275,-3.92571 0.87275,-7.18605"
       id="path3621"
       style="fill:#ffffff;stroke:none"
       inkscape:connector-curvature="0" />
    <path
       d="m 245.75154,112.54455 c 0.96602,1.76324 0.40973,0.83172 1.70553,2.7613 0.2565,0.39923 0.13325,0.93153 -0.27315,1.19768 -0.4064,0.26615 -0.94604,0.13307 -1.20253,-0.26615 -1.42572,-2.1292 -0.75949,-0.9648 -1.96202,-3.45995 -0.0633,-0.49903 0.27315,-0.93153 0.75283,-0.99806 0.47634,-0.0665 0.91605,0.26615 0.97934,0.76518 z"
       id="path3623"
       style="fill:#ffffff;stroke:none"
       inkscape:connector-curvature="0" />
    <path
       d="m 244.88545,112.64435 c 0.0966,0.69865 1.44237,2.49516 1.83211,3.12726"
       id="path3625"
       style="fill:#ffffff;stroke:none"
       inkscape:connector-curvature="0" />
    <path
       d="m 243.46307,155.12852 c -3.00133,-6.95316 -6.7988,-10.67926 -7.47501,-18.43087 0.007,-0.46577 0.40306,-0.86499 0.88607,-0.83172 0.47968,0 0.86609,0.39922 0.85943,0.86499 0.60626,6.91989 4.59693,11.3779 7.36508,17.7655 0.16989,0.46576 -0.06,0.96479 -0.50966,1.13114 -0.45303,0.16634 -0.95602,-0.0665 -1.12591,-0.49904 z"
       id="path3627"
       style="fill:#ffffff;stroke:none"
       inkscape:connector-curvature="0" />
    <path
       d="m 244.28252,154.82911 c -2.21519,-5.92184 -7.51165,-11.91021 -7.42171,-18.09819"
       id="path3629"
       style="fill:#ffffff;stroke:none"
       inkscape:connector-curvature="0" />
    <path
       d="m 236.21457,134.13595 c 0.79281,1.43056 0.38974,0.69865 1.2092,2.19574 0.21319,0.43249 0.04,0.96479 -0.39307,1.16441 -0.42972,0.23288 -0.9527,0.0333 -1.16922,-0.39923 -0.78615,-1.43055 -0.38641,-0.69864 -1.19254,-2.16247 -0.22319,-0.39922 -0.06,-0.93152 0.36642,-1.1644 0.42638,-0.23288 0.95603,-0.0665 1.17921,0.36595 z"
       id="path3631"
       style="fill:#ffffff;stroke:none"
       inkscape:connector-curvature="0" />
    <path
       d="m 235.44176,134.53518 c 0.3864,0.73191 0.78947,1.36402 1.1992,2.19574"
       id="path3633"
       style="fill:#ffffff;stroke:none"
       inkscape:connector-curvature="0" />
    <path
       d="m 246.79085,167.67084 c -0.26316,-4.39148 -0.36309,-6.28779 -2.52498,-10.2135 -0.3098,-0.36596 -0.25983,-0.93153 0.10992,-1.23095 0.36976,-0.33268 0.92272,-0.26615 1.22918,0.0998 2.52832,4.52455 2.62825,6.22125 2.93138,11.34464 0,0.49903 -0.38974,0.86498 -0.87275,0.86498 -0.47968,0 -0.87275,-0.36595 -0.87275,-0.86498 z"
       id="path3635"
       style="fill:#ffffff;stroke:none"
       inkscape:connector-curvature="0" />
    <path
       d="m 247.6636,167.67084 c 0,-3.02746 -0.82278,-8.5168 -2.72818,-10.77907"
       id="path3637"
       style="fill:#ffffff;stroke:none"
       inkscape:connector-curvature="0" />
    <path
       d="m 267.85679,159.32038 c -0.78281,-3.92571 -1.67888,-6.55394 -2.2918,-10.77906 -0.03,-0.46577 0.33644,-0.89826 0.81612,-0.93153 0.48301,0 0.89607,0.36596 0.92605,0.83172 0.5996,4.12532 1.5523,6.9199 2.2918,10.81234 0.0233,0.46576 -0.34643,0.86498 -0.82944,0.89825 -0.47968,0.0333 -0.88941,-0.33268 -0.91273,-0.83172 z"
       id="path3639"
       style="fill:#ffffff;stroke:none"
       inkscape:connector-curvature="0" />
    <path
       d="m 268.72954,159.28712 c -0.0833,-1.69671 -2.05529,-6.9199 -2.2918,-10.77907"
       id="path3641"
       style="fill:#ffffff;stroke:none"
       inkscape:connector-curvature="0" />
    <path
       d="m 243.08999,97.640156 c 1.71885,2.395344 2.86142,3.792634 5.15322,5.655684 0.40973,0.26615 0.53964,0.79845 0.28981,1.19767 -0.25316,0.4325 -0.78947,0.56557 -1.20253,0.29942 -2.63824,-2.1292 -3.76082,-3.49321 -5.72618,-6.22125 -0.25316,-0.432493 -0.12658,-0.964793 0.28314,-1.197674 0.41306,-0.26615 0.94937,-0.133075 1.20254,0.26615 z"
       id="path3643"
       style="fill:#ffffff;stroke:none"
       inkscape:connector-curvature="0" />
    <path
       d="m 242.34715,98.105918 c 1.02931,1.663436 4.0473,5.090112 5.4397,5.955102"
       id="path3645"
       style="fill:#ffffff;stroke:none"
       inkscape:connector-curvature="0" />
    <path
       d="m 161.13468,40.916967 69.55358,-5.688953 c 4.3471,-0.365956 8.19453,2.89438 8.55096,7.219315 l 2.88474,35.065244 c -0.04,-0.166344 -0.10659,-0.332688 -0.19986,-0.499031 -0.16989,-0.399225 -0.49634,-0.731912 -0.90273,-0.931525 l -2.76149,-33.534882 c -0.31313,-3.825904 -3.68754,-6.653746 -7.495,-6.354327 l -69.55359,5.722221 c -3.80746,0.299419 -6.66555,3.659561 -6.35243,7.485465 l 5.14324,62.511946 c -0.0733,0.0333 -0.13991,0.0665 -0.20986,0.13308 -0.15656,0.0665 -0.30646,0.13307 -0.44304,0.26615 -0.07,0.0333 -0.11659,0.0665 -0.1932,0.13307 -0.03,0 -0.06,0 -0.0899,0.0333 l -5.18654,-63.010978 c -0.35643,-4.358204 2.90806,-8.184108 7.25516,-8.550065 z m 82.24178,51.799416 2.0553,24.984817 c -0.22985,0.13308 -0.38641,0.29942 -0.56629,0.49903 -0.13991,0.13308 -0.25317,0.29942 -0.33978,0.46576 l -2.16855,-26.348832 c 0.27981,0.232882 0.63291,0.365956 1.01932,0.399225 z m 2.8481,66.570737 c -1.29913,1.39728 -3.0946,2.32881 -5.12325,2.49515 l -69.55358,5.68895 c -4.3471,0.36596 -8.19453,-2.89438 -8.55096,-7.21931 l -1.14924,-13.97287 c 0.39974,-0.16634 0.72619,-0.46576 0.91273,-0.86499 l 1.21252,14.73805 c 0.31313,3.82591 3.68754,6.65375 7.49833,6.35433 l 69.55359,-5.72222 c 1.88207,-0.13308 3.53097,-1.03133 4.68021,-2.36208 0.0799,0.33269 0.26649,0.6321 0.51965,0.86499 z M 160.8049,122.65824 c 0.0266,0 0.0533,-0.0333 0.0799,-0.0333 l 0.003,0.0333 c -0.0266,0 -0.0533,0 -0.0833,0 z"
       id="path3647"
       style="fill:#ffffff;stroke:none"
       inkscape:connector-curvature="0" />
  </g>
</svg>
