<?xml version="1.0" encoding="utf-8"?>
<!-- Generator: Adobe Illustrator 16.0.4, SVG Export Plug-In . SVG Version: 6.00 Build 0)  -->
<!DOCTYPE svg PUBLIC "-//W3C//DTD SVG 1.1//EN" "http://www.w3.org/Graphics/SVG/1.1/DTD/svg11.dtd">
<svg version="1.1" xmlns="http://www.w3.org/2000/svg" xmlns:xlink="http://www.w3.org/1999/xlink" x="0px" y="0px" width="50px"
	 height="120px" viewBox="5 0 50 120" enable-background="new 5 0 50 120" xml:space="preserve">
<g id="Layer_1">
	<g id="Layer_1_2_">
		<g id="Layer_3_1_">
		</g>
		<g>
			<polygon fill="none" points="53.502,61.697 32.591,61.697 36.127,64.516 49.641,64.516 49.641,75.286 53.502,78.363 			"/>
			<g>
				<path fill="none" stroke="#0F82F5" stroke-width="2" stroke-miterlimit="10" d="M36.117,64.516c-0.006,0-0.911,0-2.012,0H13.499
					c-1.1,0-2,0.899-2,2v46.655c0,1.101,0.9,2,2,2h34.142c1.101,0,2-0.899,2-2V77.286c0-1.101-0.703-2.562-1.563-3.247
					l-10.386-8.277C36.831,65.076,36.122,64.516,36.117,64.516z"/>
			</g>
			<g>
				<path fill="none" stroke="#0F82F5" stroke-width="2" stroke-miterlimit="10" d="M47.641,75.286c1.101,0,1.297-0.562,0.437-1.247
					l-10.386-8.277c-0.86-0.686-1.564-0.347-1.564,0.754v6.771c0,1.1,0.9,2,2,2H47.641z"/>
			</g>
		</g>
	</g>
	<g>
		<path fill="#0F82F5" d="M26.262,91.09c0,0.939-0.325,1.662-0.976,2.168c-0.65,0.506-1.58,0.758-2.791,0.758h-1.107v3.65h-1.094
			v-9.28h2.439C25.085,88.386,26.262,89.287,26.262,91.09z M21.389,93.09h0.985c0.97,0,1.671-0.155,2.105-0.464
			s0.65-0.804,0.65-1.485c0-0.613-0.204-1.07-0.611-1.371s-1.043-0.451-1.905-0.451h-1.223V93.09z"/>
		<path fill="#0F82F5" d="M35.15,92.938c0,1.531-0.422,2.702-1.266,3.513c-0.842,0.811-2.057,1.216-3.64,1.216h-2.607v-9.28h2.883
			c1.463,0,2.602,0.399,3.412,1.2C34.744,90.385,35.15,91.502,35.15,92.938z M33.992,92.975c0-1.21-0.309-2.122-0.924-2.735
			c-0.617-0.613-1.531-0.921-2.746-0.921h-1.59v7.414h1.333c1.304,0,2.285-0.315,2.941-0.948
			C33.664,95.151,33.992,94.215,33.992,92.975z"/>
		<path fill="#0F82F5" d="M37.749,97.666h-1.094v-9.28h5.246v0.958h-4.152v3.396h3.901v0.959h-3.901V97.666z"/>
	</g>
</g>
<g id="Layer_3">
	<rect x="5" fill="#0F82F5" width="50" height="60"/>
	<g id="Layer_1_1_">
		<g id="Layer_3_2_">
		</g>
		<g>
			<polygon fill="none" points="53.502,1.697 32.591,1.697 36.127,4.516 49.641,4.516 49.641,15.286 53.502,18.363 			"/>
			<g>
				<path fill="none" stroke="#FFFFFF" stroke-width="2" stroke-miterlimit="10" d="M36.117,4.516c-0.006,0-0.911,0-2.012,0H13.499
					c-1.1,0-2,0.899-2,2v46.655c0,1.101,0.9,2,2,2h34.142c1.101,0,2-0.899,2-2V17.286c0-1.101-0.703-2.562-1.563-3.247L37.691,5.762
					C36.831,5.076,36.122,4.516,36.117,4.516z"/>
			</g>
			<g>
				<path fill="none" stroke="#FFFFFF" stroke-width="2" stroke-miterlimit="10" d="M47.641,15.286c1.101,0,1.297-0.562,0.437-1.247
					L37.691,5.762c-0.86-0.686-1.564-0.347-1.564,0.754v6.771c0,1.1,0.9,2,2,2H47.641z"/>
			</g>
		</g>
	</g>
	<g>
		<path fill="#FFFFFF" d="M26.262,31.09c0,0.939-0.325,1.662-0.976,2.168c-0.65,0.506-1.58,0.758-2.791,0.758h-1.107v3.65h-1.094
			v-9.28h2.439C25.085,28.386,26.262,29.287,26.262,31.09z M21.389,33.09h0.985c0.97,0,1.671-0.155,2.105-0.464
			s0.65-0.804,0.65-1.485c0-0.613-0.204-1.07-0.611-1.371s-1.043-0.451-1.905-0.451h-1.223V33.09z"/>
		<path fill="#FFFFFF" d="M35.15,32.938c0,1.531-0.422,2.702-1.266,3.513c-0.842,0.811-2.057,1.216-3.64,1.216h-2.607v-9.28h2.883
			c1.463,0,2.602,0.399,3.412,1.2C34.744,30.385,35.15,31.502,35.15,32.938z M33.992,32.975c0-1.21-0.309-2.122-0.924-2.735
			c-0.617-0.613-1.531-0.921-2.746-0.921h-1.59v7.414h1.333c1.304,0,2.285-0.315,2.941-0.948
			C33.664,35.151,33.992,34.215,33.992,32.975z"/>
		<path fill="#FFFFFF" d="M37.749,37.666h-1.094v-9.28h5.246v0.958h-4.152v3.396h3.901v0.959h-3.901V37.666z"/>
	</g>
</g>
</svg>
