<?xml version="1.0" encoding="utf-8"?>
<!-- Generator: Adobe Illustrator 16.0.4, SVG Export Plug-In . SVG Version: 6.00 Build 0)  -->
<!DOCTYPE svg PUBLIC "-//W3C//DTD SVG 1.1//EN" "http://www.w3.org/Graphics/SVG/1.1/DTD/svg11.dtd">
<svg version="1.1" xmlns="http://www.w3.org/2000/svg" xmlns:xlink="http://www.w3.org/1999/xlink" x="0px" y="0px" width="50px"
	 height="120px" viewBox="5 0 50 120" enable-background="new 5 0 50 120" xml:space="preserve">
<g id="Layer_1">
	<g id="Layer_1_2_">
		<g id="Layer_3_1_">
		</g>
		<g>
			<polygon fill="none" points="53.502,61.697 32.591,61.697 36.127,64.516 49.641,64.516 49.641,75.286 53.502,78.363 			"/>
			<g>
				<path fill="none" stroke="#0F82F5" stroke-width="2" stroke-miterlimit="10" d="M36.117,64.516c-0.006,0-0.911,0-2.012,0H13.499
					c-1.1,0-2,0.899-2,2v46.655c0,1.101,0.9,2,2,2h34.142c1.101,0,2-0.899,2-2V77.286c0-1.101-0.703-2.562-1.563-3.247
					l-10.386-8.277C36.831,65.076,36.122,64.516,36.117,64.516z"/>
			</g>
			<g>
				<path fill="none" stroke="#0F82F5" stroke-width="2" stroke-miterlimit="10" d="M47.641,75.286c1.101,0,1.297-0.562,0.437-1.247
					l-10.386-8.277c-0.86-0.686-1.564-0.347-1.564,0.754v6.771c0,1.1,0.9,2,2,2H47.641z"/>
			</g>
		</g>
	</g>
	<g>
		<path fill="#0F82F5" d="M21.309,97.666h-5.246v-9.28h5.246v0.958h-4.152v2.99h3.901v0.952h-3.901v3.415h4.152V97.666z"/>
		<path fill="#0F82F5" d="M28.769,91.09c0,0.939-0.325,1.662-0.976,2.168c-0.65,0.506-1.58,0.758-2.791,0.758h-1.107v3.65h-1.094
			v-9.28h2.439C27.592,88.386,28.769,89.287,28.769,91.09z M23.896,93.09h0.985c0.97,0,1.671-0.155,2.105-0.464
			s0.65-0.804,0.65-1.485c0-0.613-0.204-1.07-0.611-1.371s-1.043-0.451-1.905-0.451h-1.223V93.09z"/>
		<path fill="#0F82F5" d="M37.252,88.386v6.005c0,1.058-0.324,1.89-0.973,2.494c-0.648,0.605-1.539,0.908-2.672,0.908
			s-2.01-0.305-2.629-0.914c-0.62-0.609-0.93-1.447-0.93-2.514v-5.979h1.094v6.056c0,0.774,0.215,1.369,0.645,1.783
			c0.428,0.415,1.059,0.623,1.893,0.623c0.793,0,1.404-0.209,1.834-0.626s0.643-1.015,0.643-1.793v-6.043H37.252z"/>
		<path fill="#0F82F5" d="M39.149,88.386h2.658c1.249,0,2.152,0.185,2.71,0.552c0.559,0.369,0.837,0.95,0.837,1.746
			c0,0.55-0.155,1.004-0.467,1.361c-0.311,0.357-0.765,0.59-1.361,0.695v0.063c1.43,0.241,2.144,0.981,2.144,2.222
			c0,0.829-0.284,1.477-0.853,1.942c-0.569,0.466-1.364,0.698-2.385,0.698h-3.283V88.386z M40.243,92.359h1.803
			c0.772,0,1.328-0.119,1.667-0.358s0.509-0.643,0.509-1.21c0-0.52-0.188-0.896-0.566-1.126s-0.979-0.347-1.803-0.347h-1.609V92.359
			z M40.243,93.273v3.473h1.964c0.76,0,1.331-0.146,1.716-0.436c0.384-0.29,0.576-0.743,0.576-1.361c0-0.575-0.197-0.999-0.59-1.27
			s-0.99-0.406-1.792-0.406H40.243z"/>
	</g>
</g>
<g id="Layer_3">
	<rect x="5" display="none" fill="#0F82F5" width="50" height="60"/>
	<g id="Layer_1_1_">
		<g id="Layer_3_2_">
		</g>
		<g>
			<polygon fill="none" points="53.502,1.697 32.591,1.697 36.127,4.516 49.641,4.516 49.641,15.286 53.502,18.363 			"/>
			<g>
				<path fill="none" stroke="#FFFFFF" stroke-width="2" stroke-miterlimit="10" d="M36.117,4.516c-0.006,0-0.911,0-2.012,0H13.499
					c-1.1,0-2,0.899-2,2v46.655c0,1.101,0.9,2,2,2h34.142c1.101,0,2-0.899,2-2V17.286c0-1.101-0.703-2.562-1.563-3.247L37.691,5.762
					C36.831,5.076,36.122,4.516,36.117,4.516z"/>
			</g>
			<g>
				<path fill="none" stroke="#FFFFFF" stroke-width="2" stroke-miterlimit="10" d="M47.641,15.286c1.101,0,1.297-0.562,0.437-1.247
					L37.691,5.762c-0.86-0.686-1.564-0.347-1.564,0.754v6.771c0,1.1,0.9,2,2,2H47.641z"/>
			</g>
		</g>
	</g>
	<g>
		<path fill="#FFFFFF" d="M21.309,37.666h-5.246v-9.28h5.246v0.958h-4.152v2.99h3.901v0.952h-3.901v3.415h4.152V37.666z"/>
		<path fill="#FFFFFF" d="M28.769,31.09c0,0.939-0.325,1.662-0.976,2.168c-0.65,0.506-1.58,0.758-2.791,0.758h-1.107v3.65h-1.094
			v-9.28h2.439C27.592,28.386,28.769,29.287,28.769,31.09z M23.896,33.09h0.985c0.97,0,1.671-0.155,2.105-0.464
			s0.65-0.804,0.65-1.485c0-0.613-0.204-1.07-0.611-1.371s-1.043-0.451-1.905-0.451h-1.223V33.09z"/>
		<path fill="#FFFFFF" d="M37.252,28.386v6.005c0,1.058-0.324,1.89-0.973,2.494c-0.648,0.605-1.539,0.908-2.672,0.908
			s-2.01-0.305-2.629-0.914c-0.62-0.609-0.93-1.447-0.93-2.514v-5.979h1.094v6.056c0,0.774,0.215,1.369,0.645,1.783
			c0.428,0.415,1.059,0.623,1.893,0.623c0.793,0,1.404-0.209,1.834-0.626s0.643-1.015,0.643-1.793v-6.043H37.252z"/>
		<path fill="#FFFFFF" d="M39.149,28.386h2.658c1.249,0,2.152,0.185,2.71,0.552c0.559,0.369,0.837,0.95,0.837,1.746
			c0,0.55-0.155,1.004-0.467,1.361c-0.311,0.357-0.765,0.59-1.361,0.695v0.063c1.43,0.241,2.144,0.981,2.144,2.222
			c0,0.829-0.284,1.477-0.853,1.942c-0.569,0.466-1.364,0.698-2.385,0.698h-3.283V28.386z M40.243,32.359h1.803
			c0.772,0,1.328-0.119,1.667-0.358s0.509-0.643,0.509-1.21c0-0.52-0.188-0.896-0.566-1.126s-0.979-0.347-1.803-0.347h-1.609V32.359
			z M40.243,33.273v3.473h1.964c0.76,0,1.331-0.146,1.716-0.436c0.384-0.29,0.576-0.743,0.576-1.361c0-0.575-0.197-0.999-0.59-1.27
			s-0.99-0.406-1.792-0.406H40.243z"/>
	</g>
</g>
</svg>
