<?xml version="1.0" encoding="UTF-8" standalone="no"?>
<!-- Generator: Adobe Illustrator 16.0.4, SVG Export Plug-In . SVG Version: 6.00 Build 0)  -->

<svg
   xmlns:dc="http://purl.org/dc/elements/1.1/"
   xmlns:cc="http://creativecommons.org/ns#"
   xmlns:rdf="http://www.w3.org/1999/02/22-rdf-syntax-ns#"
   xmlns:svg="http://www.w3.org/2000/svg"
   xmlns="http://www.w3.org/2000/svg"
   xmlns:sodipodi="http://sodipodi.sourceforge.net/DTD/sodipodi-0.dtd"
   xmlns:inkscape="http://www.inkscape.org/namespaces/inkscape"
   version="1.1"
   x="0px"
   y="0px"
   width="50px"
   height="120px"
   viewBox="5 0 50 120"
   enable-background="new 5 0 50 120"
   xml:space="preserve"
   id="svg2"
   inkscape:version="0.48.4 r9939"
   sodipodi:docname="download-odt.svg"><metadata
   id="metadata60"><rdf:RDF><cc:Work
       rdf:about=""><dc:format>image/svg+xml</dc:format><dc:type
         rdf:resource="http://purl.org/dc/dcmitype/StillImage" /><dc:title /></cc:Work></rdf:RDF></metadata><defs
   id="defs58">
	
	
</defs><sodipodi:namedview
   pagecolor="#ffffff"
   bordercolor="#666666"
   borderopacity="1"
   objecttolerance="10"
   gridtolerance="10"
   guidetolerance="10"
   inkscape:pageopacity="0"
   inkscape:pageshadow="2"
   inkscape:window-width="1734"
   inkscape:window-height="782"
   id="namedview56"
   showgrid="false"
   inkscape:zoom="7.8666662"
   inkscape:cx="-17.076278"
   inkscape:cy="68.094794"
   inkscape:window-x="0"
   inkscape:window-y="0"
   inkscape:window-maximized="0"
   inkscape:current-layer="svg2"
   showguides="true"
   inkscape:guide-bbox="true"><sodipodi:guide
     orientation="0,1"
     position="23.771186,21.991525"
     id="guide3822" /><sodipodi:guide
     orientation="0,1"
     position="-14.491525,32.161017"
     id="guide3824" /><sodipodi:guide
     orientation="0,1"
     position="15.635593,63.813559"
     id="guide3826" /><sodipodi:guide
     orientation="1,0"
     position="5.3931873,90.605546"
     id="guide3043" /></sodipodi:namedview>
<g
   id="Layer_1_2_">
		<g
   id="Layer_3_1_">
		</g>
		<g
   id="g7">
			<polygon
   style="fill:none"
   id="polygon9"
   points="36.127,64.516 49.641,64.516 49.641,75.286 53.502,78.363 53.502,61.697 32.591,61.697 " />
			<g
   id="g11">
				<path
   style="fill:none;stroke:#0f82f5;stroke-width:2;stroke-miterlimit:10"
   inkscape:connector-curvature="0"
   id="path13"
   d="m 36.117,64.516 c -0.006,0 -0.911,0 -2.012,0 H 13.499 c -1.1,0 -2,0.899 -2,2 v 46.655 c 0,1.101 0.9,2 2,2 h 34.142 c 1.101,0 2,-0.899 2,-2 V 77.286 c 0,-1.101 -0.703,-2.562 -1.563,-3.247 L 37.692,65.762 c -0.861,-0.686 -1.57,-1.246 -1.575,-1.246 z"
   stroke-miterlimit="10" />
			</g>
			<g
   id="g15">
				<path
   style="fill:none;stroke:#0f82f5;stroke-width:2;stroke-miterlimit:10"
   inkscape:connector-curvature="0"
   id="path17"
   d="m 47.641,75.286 c 1.101,0 1.297,-0.562 0.437,-1.247 L 37.692,65.762 c -0.86,-0.686 -1.564,-0.347 -1.564,0.754 v 6.771 c 0,1.1 0.9,2 2,2 h 9.513 z"
   stroke-miterlimit="10" />
			</g>
		</g>
	</g><g
   id="g19">
		
		
		
		
	<text
   xml:space="preserve"
   style="font-size:14px;font-style:normal;font-weight:normal;line-height:125%;letter-spacing:0px;word-spacing:0px;fill:#0f82f5;fill-opacity:0.94117647;stroke:none;font-family:Sans"
   x="15.584103"
   y="98.008476"
   id="text3050"
   sodipodi:linespacing="125%"><tspan
     sodipodi:role="line"
     id="tspan3052"
     x="15.584103"
     y="98.008476"
     style="font-size:14px;fill:#0f82f5;fill-opacity:0.94117647">ODT</tspan></text>





</g>


<g
   id="g3012"
   transform="translate(1.6216595e-8,-60.000003)"
   style="fill:none">
		<g
   id="g3014"
   style="fill:none">
		</g>
		<g
   id="g3016"
   style="fill:none">
			<polygon
   points="49.641,75.286 53.502,78.363 53.502,61.697 32.591,61.697 36.127,64.516 49.641,64.516 "
   id="polygon3018"
   style="fill:none" />
			<g
   id="g3020"
   style="fill:none">
				<path
   stroke-miterlimit="10"
   d="m 36.117,64.516 c -0.006,0 -0.911,0 -2.012,0 H 13.499 c -1.1,0 -2,0.899 -2,2 v 46.655 c 0,1.101 0.9,2 2,2 h 34.142 c 1.101,0 2,-0.899 2,-2 V 77.286 c 0,-1.101 -0.703,-2.562 -1.563,-3.247 L 37.692,65.762 c -0.861,-0.686 -1.57,-1.246 -1.575,-1.246 z"
   id="path3022"
   inkscape:connector-curvature="0"
   style="fill:none;stroke:#ffffff;stroke-width:2;stroke-miterlimit:10" />
			</g>
			<g
   id="g3024"
   style="fill:none">
				<path
   stroke-miterlimit="10"
   d="m 47.641,75.286 c 1.101,0 1.297,-0.562 0.437,-1.247 L 37.692,65.762 c -0.86,-0.686 -1.564,-0.347 -1.564,0.754 v 6.771 c 0,1.1 0.9,2 2,2 h 9.513 z"
   id="path3026"
   inkscape:connector-curvature="0"
   style="fill:none;stroke:#ffffff;stroke-width:2;stroke-miterlimit:10" />
			</g>
		</g>
	</g><g
   id="g3028"
   transform="translate(1.6216595e-8,-60.000003)">
		
		
		
		
	<text
   sodipodi:linespacing="125%"
   id="text3030"
   y="98.008476"
   x="15.584103"
   style="font-size:14px;font-style:normal;font-weight:normal;line-height:125%;letter-spacing:0px;word-spacing:0px;fill:#0f82f5;fill-opacity:0.94117647;stroke:none;font-family:Sans"
   xml:space="preserve"><tspan
     style="font-size:14px;fill:#ffffff;fill-opacity:0.94117647"
     y="98.008476"
     x="15.584103"
     id="tspan3032"
     sodipodi:role="line">ODT</tspan></text>





</g></svg>