<?xml version="1.0" encoding="UTF-8" standalone="no"?>
<!-- Creator: CorelDRAW X6 -->

<svg
   xmlns:dc="http://purl.org/dc/elements/1.1/"
   xmlns:cc="http://creativecommons.org/ns#"
   xmlns:rdf="http://www.w3.org/1999/02/22-rdf-syntax-ns#"
   xmlns:svg="http://www.w3.org/2000/svg"
   xmlns="http://www.w3.org/2000/svg"
   xmlns:sodipodi="http://sodipodi.sourceforge.net/DTD/sodipodi-0.dtd"
   xmlns:inkscape="http://www.inkscape.org/namespaces/inkscape"
   xml:space="preserve"
   width="65"
   height="76"
   version="1.1"
   style="fill-rule:evenodd"
   viewBox="0 0 65 76"
   id="svg2999"
   inkscape:version="0.48.4 r9939"
   sodipodi:docname="ikonka7_dystrybucja.svg"><metadata
   id="metadata3011"><rdf:RDF><cc:Work
       rdf:about=""><dc:format>image/svg+xml</dc:format><dc:type
         rdf:resource="http://purl.org/dc/dcmitype/StillImage" /><dc:title></dc:title></cc:Work></rdf:RDF></metadata><sodipodi:namedview
   pagecolor="#ffffff"
   bordercolor="#666666"
   borderopacity="1"
   objecttolerance="10"
   gridtolerance="10"
   guidetolerance="10"
   inkscape:pageopacity="0"
   inkscape:pageshadow="2"
   inkscape:window-width="1522"
   inkscape:window-height="878"
   id="namedview3009"
   showgrid="false"
   fit-margin-top="0"
   fit-margin-left="0"
   fit-margin-right="0"
   fit-margin-bottom="0"
   inkscape:zoom="4.5460526"
   inkscape:cx="32.5"
   inkscape:cy="38"
   inkscape:window-x="1912"
   inkscape:window-y="-8"
   inkscape:window-maximized="1"
   inkscape:current-layer="svg2999" />
 <defs
   id="defs3001">
  <style
   type="text/css"
   id="style3003">
   
    .fil0 {fill:red}
   
  </style>
 </defs>
 <g
   id="Layer_x0020_1"
   style="fill:#ffffff">
  <metadata
   id="CorelCorpID_0Corel-Layer" />
  <path
   class="fil0"
   d="m 10,0 45,0 c 6,0 10,4 10,10 l 0,56 c 0,5 -4,10 -10,10 L 10,76 C 4,76 0,71 0,66 L 0,10 C 0,4 4,0 10,0 z m 23,22 c -5,4 -10,4 -15,4 0,10 -1,17 15,26 15,-9 14,-16 14,-26 -5,0 -10,0 -14,-4 z m 0,45 C 24,55 18,67 6,67 L 6,6 59,6 59,67 C 47,67 41,55 33,67 z"
   id="path3007"
   style="fill:#ffffff"
   inkscape:connector-curvature="0" />
 </g>
</svg>