<?xml version="1.0" encoding="UTF-8" standalone="no"?>
<!-- Created with Inkscape (http://www.inkscape.org/) -->

<svg
   xmlns:dc="http://purl.org/dc/elements/1.1/"
   xmlns:cc="http://creativecommons.org/ns#"
   xmlns:rdf="http://www.w3.org/1999/02/22-rdf-syntax-ns#"
   xmlns:svg="http://www.w3.org/2000/svg"
   xmlns="http://www.w3.org/2000/svg"
   xmlns:sodipodi="http://sodipodi.sourceforge.net/DTD/sodipodi-0.dtd"
   xmlns:inkscape="http://www.inkscape.org/namespaces/inkscape"
   id="svg1399"
   sodipodi:version="0.32"
   inkscape:version="0.48.4 r9939"
   width="600.80432"
   height="562.55591"
   sodipodi:docname="Polska_map_blank.svg"
   version="1.1">
  <metadata
     id="metadata1404">
    <rdf:RDF>
      <cc:Work
         rdf:about="">
        <dc:format>image/svg+xml</dc:format>
        <dc:type
           rdf:resource="http://purl.org/dc/dcmitype/StillImage" />
      </cc:Work>
    </rdf:RDF>
  </metadata>
  <defs
     id="defs1402" />
  <sodipodi:namedview
     inkscape:window-height="907"
     inkscape:window-width="1280"
     inkscape:pageshadow="2"
     inkscape:pageopacity="0.0"
     borderopacity="1.0"
     bordercolor="#666666"
     pagecolor="#ffffff"
     id="base"
     inkscape:zoom="1.0025097"
     inkscape:cx="357.36268"
     inkscape:cy="293.365"
     inkscape:window-x="-4"
     inkscape:window-y="20"
     inkscape:current-layer="svg1399"
     showgrid="false"
     fit-margin-top="0"
     fit-margin-left="0"
     fit-margin-right="0"
     fit-margin-bottom="0"
     inkscape:window-maximized="0" />
  <g
     id="g1586"
     transform="translate(-5.2309642,-5.5195435)"
     style="fill:#00A0E3;fill-opacity:1;stroke:#00A0E3;stroke-opacity:1">
    <g
       id="layer1"
       inkscape:label="Layer 1"
       style="fill:#00A0E3;fill-opacity:1;stroke:#00A0E3;stroke-opacity:1">
      <path
         inkscape:label="polska"
         id="polska"
         style="fill:#00A0E3;fill-opacity:1;fill-rule:nonzero;stroke:#00A0E3;stroke-width:0.99999952px;stroke-linecap:butt;stroke-linejoin:miter;stroke-opacity:1"
         d="m 20.90483,108.44985 7.31235,3.62897 5.023743,2.60806 c 0,0 7.260175,7.99702 9.042503,7.70409 1.782327,-0.29292 -0.478005,-5.98092 -0.478005,-5.98092 l 1.125072,-8.5167 3.110552,-6.26773 c 0,0 -5.35864,-3.032727 -8.755701,-4.115527 -3.39706,-1.08281 -7.607315,-4.80923 -7.607315,-4.80923 l -6.64382,-0.322833 -5.22243,2.475023 0.48295,-7.93277 4.87657,-0.32044 6.124327,1.31628 8.732387,-3.70747 10.717867,-1.4585 10.379494,-3.61367 11.74814,-3.58836 16.079176,-4.2783 10.57447,-3.25278 9.42608,-2.55908 12.41654,-2.79809 c 0,0 7.32664,-0.58555 11.12476,-3.89867 3.79812,-3.31311 8.71742,-6.28368 8.71742,-6.28368 l 6.67381,-8.92718 6.16577,-8.78278 13.62206,-0.94766 11.04789,-2.53559 10.39644,-9.36572 13.54243,-4.59515 17.56216,-2.79987 18.61594,-3.38586 9.92857,-3.8030697 8.92359,-1.3151 17.5114,8.2310697 7.10482,6.05321 c 0,0 3.7943,4.21257 6.09984,8.54119 0.7089,1.33095 -3.63635,-0.31129 -3.63635,-0.31129 l -3.19333,-6.06487 -3.60021,-3.6247 -9.52109,-6.16106 -8.684,-3.2183997 0.71701,8.9713897 1.31509,8.92359 2.51129,8.82799 1.3151,8.92359 7.05702,5.45511 5.86084,5.55073 11.50716,0.88607 8.92359,-1.3151 14.11522,-4.13768 8.08649,-4.25776 c 0,0 3.91792,-5.57986 7.345,-6.00423 3.42708,-0.42438 6.36333,4.30673 6.36333,4.30673 l 25.42642,5.15632 21.0109,3.97132 25.49952,1.50785 23.30211,-1.39356 13.94733,1.29296 15.09572,0.59926 17.94278,-1.43401 8.73238,-3.70747 8.97139,-0.71701 11.72285,-3.94647 7.93668,-0.48383 11.72809,5.53324 5.45395,7.99089 9.44939,5.26392 4.90395,4.87481 2.51099,12.58996 0.95601,11.96186 4.40728,8.074537 1.59578,14.31837 4.05432,9.30658 2.69024,14.83282 5.01108,10.43393 c 0,0 1.09824,6.18645 1.92184,9.91725 1.19727,5.42351 2.03795,2.13117 2.93181,7.61285 0.66272,4.06409 3.0802,4.09812 3.64104,8.04945 0.55966,3.94294 -0.49604,6.94018 1.68202,10.92572 1.99939,3.65859 3.07753,10.33546 3.07753,10.33546 l 0.24637,8.6601 -7.7519,8.44441 c 0,0 -6.16493,-0.17388 -10.22013,1.80548 -4.05519,1.97935 -7.29429,4.78514 -11.54098,8.13411 -4.24669,3.34896 -6.26513,9.61808 -6.26513,9.61808 0,0 -4.29671,9.05836 -2.38323,14.17217 1.91349,5.1138 13.37256,9.16376 13.37256,9.16376 l 10.74118,6.3645 3.34837,11.77065 -2.25849,15.5279 -4.21507,14.62857 5.01497,12.02528 4.84348,12.72308 3.94647,11.72285 6.93694,11.48384 6.45893,5.50293 6.93693,11.48384 3.46847,5.74193 6.36333,4.30673 c -2.14521,0.77342 -9.64969,2.86595 -11.92895,1.96199 l 5.67215,11.17614 1.80548,6.47884 -2.05894,19.42577 -21.30936,12.80608 -23.443,24.45558 -10.87856,19.39999 -16.37009,25.62648 -4.5374,6.89291 1.87202,12.22631 2.21309,7.7742 -0.99199,15.1192 13.74555,9.8818 0.40572,12.6078 -8.8991,-5.9099 -10.26318,-0.3835 -15.66932,-7.7764 -15.19132,-1.7955 -12.67886,-8.0153 -3.34761,-8.5922 -6.37011,-3.6765 -3.84554,3.4369 c -7.79248,-5.6294 -16.27231,-3.6576 -20.9545,-4.3919 -5.49043,-0.8612 -6.22131,-5.5127 -7.29356,-5.0265 l -4.12142,5.2342 -6.86182,-1.1028 -9.74624,12.2297 -7.98156,-2.6727 -10.02498,-6.9907 -10.83956,-2.2107 -11.72285,3.9464 -5.50292,6.459 -8.52721,14.5669 -8.69856,-4.1615 -12.87402,0.7807 2.94662,-12.0256 -3.70747,-8.7324 -7.17594,-14.47427 -6.45893,-5.50292 -5.74192,3.46847 -8.25439,9.68842 -2.51245,6.2199 -5.98093,0.478 -8.73239,3.7075 -7.60488,-10.4273 c -0.67244,-1.7062 -3.01223,-1.3161 -4.04638,-4.2487 -1.75945,-4.98935 -2.18055,-13.49441 -1.88852,-14.03677 l -11.40619,-5.89241 -3.50844,-15.19842 -8.40863,-0.91376 -11.81996,-6.72702 -10.72205,-8.03107 -11.00584,12.91786 -9.9274,-11.24485 -9.9274,-11.24485 10.73196,-6.28368 0.0349,-9.62464 -18.37093,4.2332 -10.52289,-7.96552 -10.69921,-2.13204 c 0,0 -10.43601,-8.19463 -12.67886,-8.01538 -2.24285,0.17925 -0.91231,2.74124 3.89867,11.12476 2.22992,3.8858 1.17782,5.32308 3.95872,8.11039 2.52715,2.53298 0.27456,7.20101 0.27456,7.20101 l -6.07653,-0.71818 -5.69412,4.06656 c 0,0 -4.93485,7.91831 -8.44559,7.29603 -3.51073,-0.62229 -8.54001,-8.94808 -8.54001,-8.94808 l -3.65967,-8.13429 -6.93693,-11.48385 -8.39661,-7.1538 5.35952,-8.25321 c 0,0 8.75016,-1.60219 9.13928,-6.14764 0.38911,-4.54544 -4.90366,-8.63678 -4.90366,-8.63678 l -6.9895,2.17184 -14.04015,1.08247 -17.60619,-12.20474 -20.371562,-4.09778 -4.986156,-11.93298 -3.707469,-8.73239 -11.004669,-2.13005 c 0,0 -2.548016,2.00938 -3.253953,4.47345 -0.705937,2.46407 -0.120088,8.33105 -0.120088,8.33105 l -10.105607,-1.29376 c 0,0 6.864485,-7.67153 8.001214,-12.27672 1.136728,-4.6052 0.574779,-7.87081 0.574779,-7.87081 0,0 5.57521,-13.08575 5.57521,-13.08575 0,0 1.083099,-7.15904 -5.11817,-18.85216 -3.100634,-5.84656 -6.570896,-7.33605 -10.888179,-12.1664 -4.317271,-4.83034 0.119319,-14.75986 -3.12155,-19.53646 0.945779,-5.1112 -3.983877,-7.81368 -3.983877,-7.81368 l 7.439798,-9.80093 1.79965,-10.84394 -2.658079,-7.67443 1.009737,-13.28826 -6.410137,-6.19106 0.265467,-14.28947 4.618027,-9.99968 c 0,0 -2.792846,-2.93684 -6.829677,-6.37616 -4.036832,-3.43933 -9.317648,-7.38115 -9.317648,-7.38115 l -4.903655,-8.63678 -9.042502,-7.70409 5.263919,-9.4494 c 0,0 4.581589,-2.92429 9.354967,-10.98018 4.773378,-8.05588 8.135468,-13.81512 8.135468,-13.81512 l -2.855217,-15.53625 -2.956645,-9.35676 -1.768616,-22.12942 z"
         sodipodi:nodetypes="cccscccsccccccccccccccscccccccccccccscccccccccccccccscccccccccccccccccccccccsssscccsscscccccccccccccccccccccccccccccccccccsccccccccccccccccccccccscccccccccccccczszcccscccccsccccccccscccccsscccccccccsccccscccc"
         inkscape:connector-curvature="0" />
    </g>
    <g
       id="layer2"
       inkscape:label="Layer 2"
       style="fill:#00A0E3;fill-opacity:1;stroke:#00A0E3;stroke-opacity:1" />
    <g
       id="layer3"
       inkscape:label="Layer 3"
       style="fill:#00A0E3;fill-opacity:1;stroke:#00A0E3;stroke-opacity:1">
      <path
         inkscape:label="gdynia"
         transform="matrix(1.172421,0,0,1.016098,-8.976031,-491.1605)"
         d="m 232.24029,526.17014 c 0.001,0.008 0.003,0.0155 0.004,0.0233 l -1.04919,0.21866 z"
         sodipodi:ry="1.2301966"
         sodipodi:rx="1.0661703"
         sodipodi:cy="526.41211"
         sodipodi:cx="231.19495"
         id="gdynia"
         style="fill:#00A0E3;fill-opacity:1;fill-rule:nonzero;stroke:#00A0E3;stroke-width:0;stroke-linecap:round;stroke-linejoin:round;stroke-miterlimit:4;stroke-opacity:1;stroke-dasharray:none"
         sodipodi:type="arc"
         sodipodi:start="6.0852039"
         sodipodi:end="6.1044892" />
    </g>
  </g>
</svg>
