<?xml version="1.0" encoding="UTF-8"?>
<!DOCTYPE svg PUBLIC "-//W3C//DTD SVG 1.0//EN" "http://www.w3.org/TR/2001/REC-SVG-20010904/DTD/svg10.dtd">
<!-- Creator: CorelDRAW X6 -->
<svg xmlns="http://www.w3.org/2000/svg" xml:space="preserve" width="83.1423mm" height="79.0328mm" version="1.0" style="shape-rendering:geometricPrecision; text-rendering:geometricPrecision; image-rendering:optimizeQuality; fill-rule:evenodd; clip-rule:evenodd"
viewBox="0 0 683 649"
 xmlns:xlink="http://www.w3.org/1999/xlink">
 <defs>
  <style type="text/css">
   <![CDATA[
    .str0 {stroke:#FEFEFE;stroke-width:1.39044}
    .fil0 {fill:#00A0E3}
   ]]>
  </style>
 </defs>
 <g id="Layer_x0020_1">
  <metadata id="CorelCorpID_0Corel-Layer"/>
  <g id="_710397248">

    <!-- Dolnoslaskie -->
    <g id="region_02" class="region">
     <path id="path252" class="fil0 str0" d="M121 336l-2 0c-1,2 -2,4 -5,4l-1 2c-1,0 -2,0 -2,2l-3 1 -2 14 -7 1 -1 5 -1 -1 -2 5c-2,0 -2,3 -5,3 1,-4 -5,-8 -9,-9 -1,0 -4,0 -5,0 -1,2 -1,5 0,7 -4,-1 -4,4 -4,6 -4,-1 -5,-4 -9,-3l0 -2c-3,0 -4,2 -6,4 -2,1 -3,1 -3,4 -3,0 -4,-1 -5,3l-2 -1c-1,4 5,7 4,11 -1,5 -3,10 -5,15 -1,2 -1,4 -1,6 -2,5 -4,9 -5,14 -1,2 -3,2 -4,3 -2,2 -3,5 -2,7 4,0 9,2 12,0 0,-1 -1,-2 0,-4 0,-3 4,-9 -2,-8 0,-1 0,-1 1,-2 3,-5 6,0 10,1 1,0 1,-1 3,-1 1,0 2,1 3,2 1,-3 5,0 6,2 0,3 -2,5 -1,7 0,3 5,5 6,8 0,1 -1,4 1,5 1,1 2,-2 4,-1 6,2 11,5 17,7 3,1 5,-2 7,0 3,2 4,7 5,11 2,-1 6,-3 7,0 0,1 -2,4 0,5 4,1 4,-5 7,-6 4,0 4,4 8,4 0,-1 -1,-2 -1,-3 1,-2 5,-2 6,-1 3,1 10,7 10,10 0,1 -1,2 -1,2 -1,3 -2,5 -4,6 -1,1 -3,1 -4,1 -4,2 -8,5 -7,10 2,5 7,3 9,7 1,1 1,3 1,5 1,1 2,1 3,2 1,1 1,3 2,4 2,2 5,4 7,6 1,2 0,5 0,7 1,2 7,8 10,8 5,0 7,-8 10,-11 4,-3 9,0 10,-5 1,0 2,4 3,4 2,0 1,-6 1,-8 0,-3 -4,-3 -5,-5 -1,-1 -1,-3 -1,-4 -1,-2 -3,-4 -3,-6 -1,-3 3,-5 4,-7 1,-1 1,-3 2,-3 1,-1 1,0 2,0l2 1 2 -1c0,-2 1,-2 1,-4 0,-1 0,-2 0,-3 1,-1 2,-3 3,-4 0,-1 0,-3 1,-4 3,-1 6,3 8,1 2,-1 -1,-5 2,-6l0 -1c-1,-1 -2,-2 -2,-3 5,-1 1,-5 3,-8 2,-2 4,1 5,-1 2,-1 -1,-4 -1,-5 1,-3 9,-5 3,-8l1 -3 4 1c0,-4 1,-6 6,-6l0 -1 2 -1c0,-2 -1,-6 1,-8 0,-1 3,-1 3,-2 0,-2 0,-4 0,-5 0,-1 -1,-2 -1,-3 1,-2 3,-1 4,-4l7 3 0 -1 7 -2c-1,-3 -3,-5 -4,-8 0,-2 1,-4 1,-6 -1,-2 -5,-7 -1,-8l0 -2 -1 1 -1 -2 -1 2 -6 -1 -4 0 -1 -3 -2 -8c1,0 2,0 3,0 4,-3 -1,-8 -3,-10 -1,-1 -2,0 -3,-1 -4,-2 -12,-6 -17,-2 -1,1 0,5 0,7 -2,-2 -3,-1 -5,-1 -2,0 -4,-2 -5,2l-4 -1c0,2 -4,2 -5,0 -1,0 -1,-2 -3,-2 -1,-1 -2,0 -4,-1 -2,-1 -4,-6 -4,-9l-7 -1 0 -1 -3 0 2 -6 -1 -4c-2,-1 -4,-2 -6,-3 -1,-1 -2,-1 -3,-2 -1,-1 -2,-3 -4,-4 -2,0 -3,2 -4,3 0,2 0,3 -1,4 -2,4 -6,6 -7,10l-6 -3 2 -5 -4 1 2 -6c-4,0 -6,-2 -10,-3l1 -2c-1,0 -5,-1 -4,1 0,1 1,1 1,2z"/>
    </g>
    <!-- Kujawsko-Pomorskie -->
    <g id="region_04" class="region">
     <path id="path68" class="fil0 str0" d="M265 120c0,1 0,2 -2,3l1 2 -2 2 -5 -3 0 -2c-2,1 -6,-1 -6,1 5,2 1,6 -3,7 -1,0 -3,-1 -5,-1l1 5 3 2 -1 2 -2 2 -2 -2c-1,1 -3,1 -4,1 0,1 1,3 -1,3l-3 -3 0 0c-2,2 -3,1 -5,1l-1 -4c-2,0 -4,2 -5,4 -2,4 -1,8 -3,11 -1,2 -4,4 -5,5 -1,2 0,4 -1,5 -1,1 -3,2 -3,4 3,0 5,4 7,7 1,1 3,3 3,4 0,1 0,3 -1,4 -1,2 -5,2 -7,2l0 7 3 1 -2 2c0,2 1,6 -2,6 1,3 1,5 -2,7 0,0 0,1 0,2 0,4 4,2 6,3 2,0 3,2 5,2 2,4 4,7 4,12l-1 -1c0,2 0,10 -4,6 -1,1 -3,1 -2,3l0 0c-2,2 3,3 4,3 0,1 1,3 -1,4l0 1 2 0 1 1c4,-2 10,-5 7,2l4 1 0 4 0 0 4 -2c-1,-1 0,-2 1,-3l0 2 2 -2 0 0c2,2 3,3 4,3l0 1 2 -1 1 0 4 6c1,-1 1,0 1,1l4 0 -1 3 1 -1c4,1 5,1 6,4 1,1 2,1 2,3 2,0 5,0 5,3l5 -1 8 -5c0,4 -1,9 4,7 1,-1 2,-2 4,-2 3,0 3,4 6,3l3 2 3 5 3 3 2 4 3 -1 8 -2 -1 -1 2 0 0 -2 1 0 2 4c1,1 2,1 2,3 2,1 3,-1 6,-1 3,0 4,1 7,-2l1 2 5 -6 -1 -5 3 -1 3 -5c-1,-2 -3,-2 -3,-5l1 0 1 1 3 -7 -5 -2c1,-3 3,-5 6,-6l-1 -5 6 0 1 -2 -1 -4c-3,0 -5,-1 -5,-3 -5,-2 0,-8 3,-7 -1,-3 -3,-5 -3,-9l3 1c2,-2 3,-3 4,-7l8 4c0,-4 1,-7 -3,-9l0 -1c2,-2 0,-5 0,-8l5 -1c0,-1 2,-2 2,-3 1,-1 0,-3 0,-4 -1,-3 0,-5 -4,-5 0,-2 0,-4 3,-5l-3 -5 -2 -3 -9 1c1,-3 -1,-3 -3,-4l-1 1 -1 0 0 -2c-3,-1 -3,-3 -3,-5 -3,0 -4,-1 -5,2 -1,-1 -3,-2 -3,-3 -1,-2 1,-4 -2,-5l-2 -6 2 -3c-2,-1 -2,-3 -3,-4 -4,-2 -8,-1 -12,-1 -2,0 -4,-1 -5,1l-2 -2 -9 0 2 -10 -8 1 -5 2c0,1 -1,1 -2,1l-2 -2 0 -3c-2,0 -2,1 -3,3l-1 0 0 -2 -12 0c0,-3 1,-5 -3,-4l0 -1 0 0 -1 1 0 -2c-2,1 -3,0 -3,-1 -3,0 -3,-1 -5,-2z"/>
    </g>
    <!-- Lodzkie -->
    <g id="region_10" class="region">
     <path id="path208" class="fil0 str0" d="M345 275c-2,2 -4,4 -4,6l-2 -1c-1,1 -2,2 -3,2 -2,0 -4,-1 -6,0 -2,1 -2,5 -2,7 3,0 6,2 3,5l0 2c-5,-2 -11,-2 -12,5 0,2 2,2 2,4 1,1 0,2 0,4l-6 0c-1,6 -6,0 -8,2 -1,2 0,4 0,6 0,4 -2,8 3,10 0,1 -1,3 -2,4 -2,3 -5,5 -5,8 -5,0 -7,-2 -11,0l0 -2 -5 2 -1 7 -1 6 -4 2c1,2 3,5 0,6l0 3c2,1 1,5 1,7 -1,2 0,4 0,5 0,2 -3,7 -5,8 -1,-3 -6,-4 -9,-3 1,2 2,4 0,5 -2,2 -4,0 -5,4l-3 0 0 1c2,3 2,6 3,9l3 -1 0 0c1,1 2,2 2,4 0,2 -3,4 0,5l-1 5 7 2 6 1 9 2 1 3c1,-2 2,-3 1,-5 4,-1 4,2 5,5 3,0 3,3 5,3 1,1 2,-1 3,-1 1,-1 2,0 3,0 3,-1 6,-2 9,0l2 -4 9 7 0 1 6 2 5 2 3 -4 5 0c-2,3 1,3 1,5 5,-1 4,2 6,5 3,4 4,4 4,9l6 -3 6 3c0,6 3,3 7,3l6 -8 0 -5 3 -7c1,1 3,1 4,2 3,3 3,5 7,6l1 -11 -4 -1c0,-2 -1,-5 0,-7 0,-1 2,-1 2,-3 0,-1 -2,-2 0,-3 2,-2 4,0 6,0 3,0 6,-1 8,-3l0 0 1 1 0 0 3 -2 -2 -4c3,2 6,-1 8,2l2 -1 -1 -2 1 0c-1,-2 -3,-4 -1,-6 1,-1 3,0 4,-2 0,-2 -1,-4 0,-6 1,-1 3,-2 4,-3 3,-3 4,-6 4,-10 -2,-1 -3,1 -5,0 -3,-1 0,-5 -1,-7 0,-1 -1,-1 -2,-2 -1,-2 -1,-4 -1,-6l-3 0c1,-2 1,-3 1,-4 4,-5 8,-2 12,-1 2,1 5,1 7,1 1,-2 3,-5 2,-8 -1,-1 -3,-1 -4,-3 0,-2 1,-5 -2,-7l0 0 4 -1c-1,-2 -4,-5 -6,-6 -2,0 -4,0 -5,0 -2,-2 -4,-8 -7,-4l-1 0 -1 -1 0 1 -3 2 -4 0 1 -3 -6 0c0,-2 1,-2 3,-3 0,-1 0,-4 -1,-5 -2,0 -5,0 -5,-3 0,-1 2,-1 2,-1 1,-1 4,-6 3,-7 -1,-1 -3,0 -5,-1 -1,0 -2,-2 -3,-3 -1,0 -3,0 -4,-1 -1,-1 -3,-4 -3,-5 0,-2 1,-3 0,-5 -2,-2 -7,-1 -7,-5l-3 -2c-2,1 -2,1 -3,3l1 0c-1,1 -2,2 -4,1 -1,0 -3,2 -5,2 -1,0 -2,-1 -3,-1 -1,0 -1,1 -2,2 -3,1 -4,-1 -4,-3l-5 -1 0 -1 -2 0c0,-7 -9,-1 -11,-8 -2,0 -1,-2 -2,-4z"/>
    </g>
    <!-- Lubelskie -->
    <g id="region_06" class="region">
     <path id="path216" class="fil0 str0" d="M604 280c-1,3 -2,5 -4,7 -1,1 -3,2 -3,3 0,2 3,2 4,3l-1 1c-3,-1 -7,0 -8,4 0,1 1,2 1,3 -1,0 -3,0 -3,1 -1,1 0,3 -2,3 -2,0 -3,-1 -4,-1 -1,0 -1,1 -2,1 -3,-1 -8,-6 -10,-2 0,2 0,3 0,5 0,1 0,2 -1,3 -2,-1 -3,-2 -5,-3 -1,0 -1,-2 -2,-1 -2,0 -2,2 -2,3 -1,2 -5,5 -8,4 -1,-1 0,-3 -1,-4l-1 0c-2,5 -4,2 -8,1 -2,6 -6,2 -10,2 -2,1 -2,2 -4,3 -2,2 -5,1 -7,4 -2,4 3,6 2,11 0,1 -3,3 -3,4 1,1 3,0 4,0 2,-1 3,1 4,3 0,2 -4,4 -5,6 -2,0 -3,0 -4,2l3 0c-1,2 -1,3 1,3l-1 4c-3,1 -3,2 -3,5 -2,-1 -4,-1 -5,0 -1,1 -1,3 -2,3 -1,0 -2,-1 -2,-2 -1,-1 -3,-2 -5,-2 -3,1 0,7 2,8 2,2 5,0 8,1 2,1 1,3 2,4 3,4 5,10 1,14 -2,-3 -4,0 -4,2l5 3 -1 6 -2 2 3 -1 1 3c-3,1 -5,8 -5,11 2,1 3,1 3,3 -3,2 0,7 0,10 0,2 -1,3 0,4 0,2 1,3 1,4 1,4 1,8 1,11 1,1 2,2 2,3 1,3 0,6 3,7 3,2 7,1 9,-1 2,-1 3,-2 4,-3 1,0 3,1 5,2 1,0 2,0 2,1 1,0 4,4 4,4 0,3 -4,7 -4,10 2,0 3,0 5,2 0,0 0,1 1,2 2,1 4,1 5,1 4,1 5,4 9,3l2 2c2,-1 3,1 1,3l0 1c2,1 2,2 1,3 3,0 3,1 2,3l3 0c-3,5 -5,4 -10,3l1 3 -4 2 0 2c3,-1 3,1 5,3 0,1 2,1 2,2l1 0c3,-2 6,-1 9,-2 1,0 3,0 3,1 0,3 -5,1 -5,5 2,0 5,1 7,2 5,0 10,-1 14,-1 3,0 6,1 9,0 3,-1 5,-5 7,-8 0,-1 1,-3 3,-2 1,0 3,1 5,2l0 0 6 -4c1,3 2,5 5,5l-1 5 6 0 1 3 3 3c5,-1 5,-6 8,-9 1,-2 3,-2 5,-4 1,-2 0,-4 2,-6 5,-4 15,-1 19,-6 4,-4 4,-12 4,-18 0,-2 1,-3 0,-5 0,-2 -1,-3 -1,-4 -1,-2 2,-2 1,-3 0,-2 -3,-1 -4,-2 -1,-1 0,-3 -1,-4 -1,-2 -3,-2 -3,-3 0,-3 3,-6 5,-7 1,-1 5,1 4,-2 -1,-3 -6,-2 -8,-5 -2,-4 -5,-8 -6,-12 -1,-2 -1,-5 -2,-7 -1,-2 -3,-2 -4,-4 -1,-1 0,-3 -1,-5 -1,-2 -6,-4 -8,-7 -1,-2 0,-4 -1,-6 -2,-2 -5,-1 -6,-4 -2,-4 3,-9 2,-13 -1,-1 -2,-2 -2,-3 -1,-1 0,-3 0,-4 -1,-1 -3,0 -3,-1 -2,-1 -1,-2 -2,-3 -1,-1 -2,0 -3,-2 -1,-1 -2,-5 -2,-7 -1,-3 1,-5 1,-8 0,-2 -2,-4 -1,-6 1,-2 4,-3 4,-5 1,-4 -1,-6 -2,-10 4,-1 0,-2 1,-6 1,-2 3,-3 4,-5 0,-2 0,-6 -1,-8 -2,-4 -3,-9 -8,-6 0,-2 -3,-2 -4,-4 -2,-2 -1,-4 -4,-5 -1,2 -3,1 -3,-1l-4 0 -2 0 -2 -2 -2 1 -4 0 0 -5 -4 -3 -1 0z"/>
    </g>
    <!-- Lubuskie -->
    <g id="region_08" class="region">
     <path id="path190" class="fil0 str0" d="M643 167l0 0 0 0m-526 19c0,3 -1,4 -3,5 0,2 -1,2 -3,2l2 3c-2,0 -3,1 -4,2 2,2 -1,3 -3,3l-1 -1 0 0c-4,3 -8,3 -10,-2 -3,0 -7,1 -10,3 -1,1 -2,3 -3,3 -1,0 -3,-1 -4,-1l-1 0 3 6c-5,1 -9,4 -13,6 -3,1 -5,1 -6,-2l-3 3c-1,-3 -3,-4 -5,-6l-1 3 1 0c0,2 -1,2 -3,2l-1 1c1,5 -2,4 -4,8 -1,1 0,3 0,5 -1,1 -4,6 -5,7 -4,2 -6,-5 -8,0 -3,-1 -6,-2 -7,1 2,2 6,4 6,7 0,1 -1,3 -1,5 0,2 1,3 0,5 -2,4 -7,6 -6,11 0,2 1,3 1,5 1,2 0,5 2,6 1,2 6,3 6,6 1,3 0,7 0,10 0,2 -1,4 1,5l-1 0 3 2c-2,5 0,12 -3,18 -1,2 -3,5 -5,7 -1,1 -3,2 -3,4 0,2 2,3 2,5 1,2 0,5 2,8 1,2 4,2 5,4 1,3 1,7 0,10 -1,1 -3,2 -4,4 0,2 4,3 5,4 2,1 2,3 4,4 1,1 3,0 5,2 1,1 5,4 2,5 1,2 0,7 3,7 0,-3 2,-3 4,-3 1,-2 2,-2 4,-4 2,-1 4,-4 7,-4l0 2 3 0c0,2 2,3 4,4 0,-3 1,-7 4,-7l1 -7 1 1 6 0 1 0c2,3 7,5 7,9l4 -3c0,-2 1,-5 3,-5 0,-1 0,-3 1,-4 1,-2 5,-1 7,-1l2 -14c2,-1 4,-4 7,-5 0,-1 2,0 2,-1 2,-2 1,-4 4,-3 0,-1 -2,-2 -2,-3 1,-2 5,-1 5,2 3,0 5,4 9,2l-1 6c4,0 3,2 1,5l6 3c1,-4 4,-6 7,-10 1,-1 1,-2 1,-3 1,-2 2,-3 3,-4 0,-2 0,-3 0,-5 -2,-5 -7,-6 -11,-8l-4 4 0 -2c-2,1 -2,0 -3,-1l-4 0 2 -3 -1 -4 1 0 -1 -3c-2,0 -5,2 -7,1 -1,0 -2,-1 -3,-2 -1,-1 -2,-1 -2,-3 0,-2 3,-2 2,-5 -1,-2 -10,0 -8,-6 1,0 1,-1 2,-1 -1,-3 -2,-4 -3,-7 0,-1 1,-2 1,-4 0,-4 0,-7 4,-10l-1 -7 -7 -7 3 -2c0,2 1,3 2,4l1 -2 -1 -1 1 -1c0,-3 -2,-4 -3,-6 0,-1 1,-2 0,-3 0,-3 -2,-5 -3,-7 0,-2 0,-6 2,-7l0 -4 8 -1 3 -1 0 -7 -2 -3 4 -1 -1 -2 2 -1 0 -20c4,-2 3,-6 3,-9l-9 -1z"/>
    </g>
    <!-- Malopolskie -->
    <g id="region_12" class="region">
     <path id="path384" class="fil0 str0" d="M389 492l-5 1 -3 3c-3,-1 -7,-1 -11,0 -2,1 -3,2 -5,2 -2,0 -4,-1 -5,-1 -2,1 -3,3 -1,4l0 1c-2,0 -1,2 -2,3 -1,2 -3,1 -3,4l-7 4 7 5c-1,1 -2,1 -3,2 -4,3 -3,9 -9,8 0,2 -2,2 -3,4 -1,2 -1,4 -2,6 -1,2 -3,3 -4,5 -1,2 0,4 -1,5 0,1 -2,2 -1,3 0,3 4,-1 5,1 1,1 2,6 1,7 0,2 -2,3 -1,5 2,1 6,0 8,1 2,1 0,2 0,4 0,1 2,2 3,3 3,2 7,0 10,3 2,2 -1,6 -3,7l7 5c-3,1 1,4 1,6 1,3 1,6 3,9 1,2 2,3 3,5 1,1 1,3 3,4 3,1 8,-3 9,1 1,3 1,5 1,8 1,1 3,3 3,4 -1,2 -7,5 -4,8 5,4 8,-2 12,-2 5,1 7,4 11,5 1,-2 0,-6 1,-8 1,-2 3,-3 4,-4 1,-2 1,-5 4,-6 3,-1 6,2 9,1 0,-2 -3,-5 -2,-6 1,-1 2,-1 3,-1 3,0 5,1 6,-2l8 5 5 -3 4 -1 5 -2c1,5 4,12 10,10 1,3 5,3 8,1 1,-1 1,-3 2,-4 1,-1 3,-1 4,-2 2,-2 -3,-4 0,-6 3,-4 5,1 9,1 1,0 3,-3 4,-4 3,-1 6,1 9,1 0,-2 1,-5 -1,-6l0 0 3 -1 0 -1c-2,-1 -4,-2 -4,-5l-1 0 1 -3c-6,-2 -2,-5 -1,-9 0,-3 -2,-5 -3,-7 0,-1 1,-3 0,-4 -1,-1 -6,-4 -7,-4 -1,0 -4,1 -5,-1 -1,-1 0,-2 -1,-4 0,-1 -1,-2 -1,-3 0,-1 2,-1 3,-1 2,-1 3,-2 4,-3 2,0 5,0 4,-2 0,-3 -6,-2 -8,-4 -1,-1 -2,-4 -1,-6 0,-1 2,-2 2,-3 0,-2 -1,-2 -2,-3 0,-1 1,-2 2,-3l-1 -1 2 -1 -2 -2 1 0 0 -1 -3 0 2 -1 0 0c-1,-1 -2,-1 -2,-2 0,-4 3,-6 0,-10l2 0c-2,-3 -1,-6 3,-8l-1 -3c-4,2 -10,4 -16,5 -1,0 -2,1 -3,1 -1,1 -3,0 -4,1 -2,0 -2,1 -3,1 -2,1 -3,0 -4,1 -3,1 -3,4 -6,5 -1,1 -2,0 -3,0 -2,0 -4,2 -6,3 -2,1 -3,-1 -4,0 -3,1 -5,3 -8,2 -2,0 -3,-2 -5,-3l2 -2 -4 -4c2,-2 0,-6 -3,-5l-1 -4 4 -1c0,-4 -3,-5 -5,-8 -1,-2 0,-3 0,-4 -1,-1 -5,-3 -6,-3 -3,0 -6,1 -8,1 0,-1 -1,-2 -1,-2 -1,-1 -3,-1 -4,-1 -1,0 -5,-3 -6,0 -1,2 1,4 2,6z"/>
    </g>
    <!-- Mazowieckie -->
    <g id="region_14" class="region">
     <path id="path186" class="fil0 str0" d="M484 156l0 1 -6 3 -5 0 0 -1c-2,0 -4,1 -6,4 -5,-3 -8,7 -12,1l-7 3 1 3 -4 0 -1 2c-3,-1 -4,-1 -7,0l0 1c-2,0 -2,3 -3,5l-8 2 -1 0c-2,-5 -12,4 -7,7l-1 3c-2,1 -3,2 -5,2 -4,0 -11,-4 -13,0 -4,-5 -9,1 -13,-2 -1,-1 -2,-1 -3,-2 0,-1 1,-4 -1,-3 -1,0 -4,2 -4,3 0,1 1,3 0,3 -2,2 -8,-2 -8,3l-5 2 1 5 0 3 2 2 0 7 -8 -3 -4 7 -3 -1 1 2c0,2 1,4 3,5l0 1c-3,1 -10,6 -3,6 0,4 2,2 3,4 1,1 2,3 2,4l-1 2 -6 0 1 6c-2,0 -6,2 -4,5 0,1 2,2 4,2 -1,2 -5,5 -4,7l-2 0c0,2 2,3 4,3 -2,4 -4,6 -7,7l2 6 -1 2 0 0 2 1c1,5 5,3 8,4 2,0 3,2 4,4l6 1 0 2 1 0 0 2 5 -2 4 1 4 -3c1,2 2,1 4,0l0 0c-1,-4 3,-2 5,-2 0,5 5,4 8,6 1,2 0,3 0,5 0,1 1,4 2,5 1,1 3,0 4,1 1,1 2,2 3,3 2,0 3,0 5,1 1,1 -1,5 -2,7 -1,0 -3,1 -3,2 1,2 4,1 5,3 1,1 2,3 1,4 -1,1 -3,1 -2,3 1,3 6,-3 5,3l3 -1 2 -1 1 -2 0 0c2,2 3,0 5,1 2,1 2,3 4,4 1,1 3,0 5,1 2,1 6,5 6,7l-3 0 0 0c2,2 1,5 2,7 0,2 3,2 3,4 1,3 -1,5 -2,8 -2,-1 -4,-1 -7,-1 -3,-1 -8,-4 -11,0 -1,0 -1,2 -1,3l2 1 1 7 3 0c0,2 -2,6 -1,8 3,2 6,-3 7,2 0,0 0,1 0,1 -1,3 -4,6 -5,8 -1,1 -3,1 -4,2 0,2 0,4 0,6 3,0 6,0 7,3l-2 0 0 1 2 0 2 7c2,0 3,-1 5,0 2,-2 7,2 7,4 1,2 0,3 0,4 1,0 1,-1 2,-2l3 2 0 0 0 1c1,0 3,0 5,-1 2,0 8,-4 8,1 4,-1 4,-3 4,-6 4,1 2,3 1,6 2,1 4,2 5,4 0,1 -1,2 0,3 1,1 3,0 4,0 3,0 7,0 10,0l2 5 7 2 2 -2c-1,-5 7,0 8,-5 1,0 3,0 4,1 2,1 4,3 7,3 0,-2 1,-3 2,-5 0,-1 -1,-3 0,-4 0,-1 1,-2 1,-4 0,-2 -3,-2 -3,-4 1,-3 4,-8 4,-11l-4 0 0 -2c2,0 5,-4 3,-6 0,-1 -4,-3 -5,-3 1,-3 3,-4 6,-3 0,-2 1,-4 1,-6 0,-3 -2,-5 -3,-7 -1,-1 -1,-3 -2,-3 -3,-2 -6,1 -9,-2 -1,-1 -4,-6 -1,-8 2,-2 5,4 7,4 1,-3 4,-5 7,-4 0,-2 0,-3 2,-4l2 -3c-2,-1 -2,-2 -2,-4l-3 0 0 -1 5 -2 0 -1c4,-1 7,-6 2,-7 -1,-1 -4,2 -5,0 0,-1 3,-4 3,-5 1,-4 -5,-7 -2,-11 2,-2 5,-2 7,-3 2,-1 2,-3 4,-3 2,0 5,2 7,1 2,0 2,-2 4,-2 1,-1 3,1 5,1 1,0 1,-3 3,-2 2,0 0,3 2,3 2,0 5,-2 6,-3 1,-2 1,-5 4,-5 0,2 5,5 7,3 1,-1 -1,-4 0,-5 2,-4 8,-2 9,1 1,0 2,-1 4,-1 1,0 2,2 3,1 2,-1 0,-5 5,-4l0 0c0,-1 -1,-2 -1,-3 0,-1 1,-2 1,-2 3,-3 4,-3 7,-2 0,-2 -3,-2 -3,-4 0,-1 2,-2 3,-3 2,-2 3,-5 4,-7 -1,0 -3,1 -5,1 -1,-1 -1,-3 -2,-4 -1,-1 -6,-3 -7,-3 -2,-1 -5,0 -7,0 -2,0 -4,-1 -6,-1 -2,-1 -3,0 -5,-1 -2,0 -7,-3 -8,-5 0,-1 1,-2 0,-3 -1,-1 -2,-1 -3,-2 0,-2 0,-4 0,-5 -1,-2 -3,-3 -4,-6 -1,0 -4,-3 -4,-5 0,-1 1,-2 1,-3 0,-3 -1,-6 -1,-10 0,-1 1,-3 1,-4 -1,-1 -3,-1 -4,-1l0 2c-2,0 -3,0 -3,2l-1 0 -3 -3 -1 -3 -1 -3 4 -1 -3 -1 1 -1 0 -1c-1,0 -5,-1 -7,0 -1,1 -1,2 -4,3 -1,1 -3,-1 -4,1 -2,-1 -3,-1 -3,-3l-2 0 -1 -5 0 0 2 -2 0 0c-1,-1 -1,-4 -2,-5 -1,-1 -2,0 -3,-1 -4,-1 -3,-4 -2,-7l2 1 -1 -4c-1,0 -1,1 -2,1 -3,1 -4,-4 -5,-5 -2,-1 -4,1 -6,0 -3,-2 -2,-3 -3,-6 0,-2 -1,-4 -2,-6 -1,-1 -2,-3 -3,-5 3,-1 -2,-3 0,-5 1,-1 5,0 6,0l-2 -3 -3 0 2 -3c-2,-2 -3,-5 -3,-7 -1,-1 -2,-2 -2,-4 -4,1 -7,3 -11,2z"/>
    </g>
    <!-- Opolskie -->
    <g id="region_16" class="region">
     <path id="path300" class="fil0 str0" d="M229 409l0 1c-1,0 -3,1 -4,2 0,1 1,2 1,3 1,1 0,4 0,5 0,1 -2,1 -3,2 -2,2 -1,6 0,9l-3 0 1 1c-6,1 -6,1 -6,7l-5 -2 -1 3 0 0c2,2 2,3 1,5 -6,1 -2,5 -2,9 -2,0 -4,-1 -6,0 -2,3 3,7 -2,8 0,2 0,2 2,3l-3 7 -8 0 -5 12 -2 3c-2,-3 -7,0 -5,3 3,6 11,7 16,10 2,1 2,4 4,5 2,2 5,1 7,2 2,2 -1,5 1,6 2,1 3,-3 4,-3 2,0 1,4 2,5 0,1 2,-1 2,-2 3,0 6,0 8,0 2,0 2,1 4,0 2,0 5,-5 7,-4 0,0 1,1 1,2 1,1 0,2 0,3 0,2 1,5 -1,7 -1,2 -3,3 -5,4 -2,0 -4,-1 -5,1 -1,1 1,3 2,4 1,1 1,2 2,3l0 0c2,-2 4,-1 6,1 0,1 0,3 1,4 1,2 2,3 3,4 1,1 2,3 3,4 5,3 5,-1 9,-3 2,0 4,2 5,1 2,-2 -2,-3 -1,-5 0,-1 1,-1 2,-2 1,-2 1,-4 2,-6l-1 -2 -1 -1c2,-2 5,0 6,-2l2 0 0 -1c1,0 5,1 6,0 1,-1 0,-2 1,-3 2,-2 6,-2 7,-5l1 1 3 0 1 -3c-2,-1 -2,-2 -3,-4 2,-2 -1,-5 -1,-7l1 0c0,-3 0,-4 -2,-6 3,-1 3,-7 2,-9l6 0c0,1 0,1 1,2 0,-4 -3,-6 -3,-9 1,-3 6,-1 8,-1 2,0 3,-1 5,-1 0,-2 -1,-6 -2,-7 -1,-1 -3,-1 -4,-2 -2,-2 -1,-6 -3,-8l5 -5 -2 -4 1 -5 4 -4 2 -7 -1 -3 3 -7c5,-1 -2,-8 -5,-8 0,-1 0,-6 -2,-5 -1,0 -3,4 -3,5l-2 -3 -8 -2 -6 -1 -3 -2 -10 1c0,3 -3,3 -5,4 -4,1 -10,2 -12,-3l1 0c1,-1 1,-1 1,-2 2,-8 -9,-1 -12,-1 -2,0 -3,-2 -5,-2z"/>
    </g>
    <!-- Podkarpackie -->
    <g id="region_18" class="region">
     <path id="path308" class="fil0 str0" d="M525 451l-2 11 -1 6c-3,1 -8,-2 -7,3l0 2 -6 8 -10 5 -3 5 -7 4 -8 7c0,1 1,3 0,4 0,2 -6,5 -2,7l0 1 -2 0c3,5 1,7 0,11l3 1 -2 0 0 1 3 0 -1 1 0 0 1 3 -2 1c1,1 -1,2 -1,3 1,1 2,1 2,3 0,1 -1,1 -2,2 -1,2 0,5 1,7 1,2 8,0 8,4 1,2 -3,3 -4,3 -1,2 -5,3 -7,3l2 4 0 3 5 1 3 2 4 1 3 12 -3 6 3 3 0 3 5 6 -3 1 0 0c2,2 1,5 1,7 2,1 4,2 6,1 4,0 6,-2 10,-2 5,-1 11,3 12,8 2,0 2,-3 4,-3 2,0 3,1 4,2 5,2 6,3 9,7 0,1 2,2 2,3 2,2 0,5 3,7 2,1 6,3 8,3 2,0 3,-1 4,-1 2,1 0,3 2,4 3,2 5,-1 8,0 2,1 2,4 4,4 4,2 9,1 13,2 2,1 2,3 4,4 3,1 6,-1 8,0 3,1 4,4 7,3 2,0 1,-4 1,-5 -1,-4 -5,-11 -9,-10l0 -3 -3 1c0,-2 2,-4 -1,-5 0,-2 2,-4 2,-6 0,-5 -1,-11 -3,-17 0,-2 -1,-5 -2,-7 -1,-2 -3,-3 -2,-5 0,-2 3,-4 4,-6 2,-3 3,-7 5,-10 1,-1 3,-2 4,-3 3,-5 5,-10 8,-15 5,-7 11,-14 15,-21 1,-2 1,-3 2,-4 1,-1 2,-2 3,-3 3,-4 6,-8 9,-13 2,-2 4,-4 5,-6 1,-2 -1,-3 -3,-3l0 -3 -7 -1 2 -5 -2 0c0,-1 -1,-1 -2,-1l-1 -4 -6 5 0 0c-1,-2 -4,-3 -5,-3 -2,0 -3,1 -3,2 -2,3 -5,6 -7,9 -2,-1 -3,0 -5,0 -4,0 -8,-1 -13,-1 -2,0 -3,1 -5,1 -2,0 -7,-1 -7,-3 0,-3 4,-2 5,-4 -4,0 -9,0 -13,1 -2,-3 -4,-5 -8,-5l1 -3c1,0 3,0 3,-2 1,0 -1,-2 0,-2 1,-1 3,0 4,0 3,1 4,0 5,-3l-3 0 0 -1 2 -2 -3 1c0,-1 1,-3 -1,-4l0 -1c1,-1 1,-3 0,-4l-2 1 -1 -2c-4,1 -5,-1 -8,-2 -2,-1 -4,-1 -6,-2 -1,0 -1,-2 -2,-3 -1,-1 -3,-1 -5,-1 1,-3 4,-6 4,-9 1,-2 -1,-2 -2,-3 -2,-2 -3,-4 -7,-4 -2,-1 -4,2 -6,3 -4,2 -6,1 -10,-1z"/>
    </g>
    <!-- Podlaskie -->
    <g id="region_20" class="region">
     <path id="path14" class="fil0 str0" d="M569 48l0 0c2,1 3,3 1,4 2,5 -5,7 -9,6l-7 4 -3 4 0 1c2,1 3,3 4,5 1,1 2,0 3,1 1,0 2,2 2,4 1,1 -1,3 -1,5 1,1 2,1 3,2 2,2 2,5 4,7 1,2 4,4 4,6 2,5 -2,7 -3,11 -1,2 0,4 -1,6 -3,-1 -8,4 -7,7l-3 -1c0,3 -2,3 -4,3l-1 6c-4,-3 -6,1 -9,4 -4,3 -7,7 -11,10 -2,1 -5,2 -6,3 -2,1 -2,3 -3,4 -1,-2 -3,-2 -5,-1 -2,1 -1,5 -3,6 -2,0 -5,-2 -7,-2 -4,-1 -7,1 -12,1 1,2 1,3 3,4 -1,2 0,5 2,7 -1,1 -1,2 -1,4l2 -1 2 3 -6 0 0 2 2 1 -2 3c1,2 3,3 3,5 1,1 2,3 2,5 1,2 0,6 4,6 1,1 3,0 5,-1 1,2 2,6 5,6 1,0 2,-1 3,-1 0,1 -1,3 1,3l-1 2 -2 -1c-1,1 -2,3 -1,4 2,2 8,2 6,5l0 1 2 3 -2 1 0 0 2 5 1 0c0,3 2,2 4,1 1,2 5,1 6,0 1,-1 0,-2 1,-3 3,-1 6,1 8,2l-2 1 0 0 3 1 -2 1 -1 0 -2 0 3 6 3 3 1 0c0,-2 1,-2 3,-2l0 -2 4 1 0 5 -1 12 2 4c2,1 6,5 6,7 1,2 0,4 1,5 0,1 2,1 2,2 1,2 0,3 1,4 2,2 5,4 7,4 2,0 3,0 5,0 2,1 3,2 5,2 2,0 5,-1 7,-1 4,1 9,4 10,8 3,-1 5,-1 9,0 6,-11 10,-24 20,-32 5,-3 10,-3 15,-6 3,-1 5,-4 7,-5 2,-2 5,-6 5,-9 0,-3 1,-6 0,-9 0,-2 -2,-4 -2,-6 0,-2 0,-5 0,-7 1,-2 2,-3 1,-4 0,-5 -3,-10 -5,-15 0,-3 3,-5 1,-9 0,-2 -2,-2 -3,-4 -1,-2 -2,-4 -3,-6 -4,-7 -7,-14 -10,-21 -2,-4 -4,-8 -5,-12 -2,-7 -4,-13 -6,-20 0,-2 -1,-3 -2,-5 0,-3 1,-5 1,-8 0,-1 -2,-2 -2,-3 -1,-2 -1,-4 -2,-6 -1,-2 -2,-3 -3,-4 0,-3 3,-5 3,-8 0,-2 -1,-6 -2,-8 -2,-3 -3,-4 -5,-6 -2,-2 -2,-5 -5,-7 -2,-1 -5,0 -7,-2 -2,-1 -4,-3 -7,-4 -1,-1 -3,1 -4,0 -2,-1 -1,-3 -2,-4 -1,-1 -2,0 -3,-1 -1,-1 -1,-2 -2,-2 -1,-1 -2,-1 -3,-1 -4,-1 -6,-2 -9,1z"/>
    </g>
    <!-- Pomorskie -->
    <g id="region_22" class="region">
     <path id="path10" class="fil0 str0" d="M180 31l1 7 4 2 0 6 1 4 -2 0 0 3 -1 4 2 0c0,2 1,5 -1,6 -2,2 -6,1 -7,4 -1,2 1,3 1,5 1,5 4,9 4,14 1,2 -1,4 -1,6 -1,2 0,3 1,4 2,0 2,-2 2,-3l1 0c1,1 0,3 1,4 1,3 4,4 6,5 0,1 2,4 0,5 -1,2 -5,0 -7,3 -1,2 3,4 3,6l2 0c0,3 -4,4 -4,6 -1,4 3,8 2,11l3 11c1,0 2,-1 3,0 1,0 0,2 1,2 2,2 4,0 5,-1l13 1 8 3 1 -4 1 -5 3 -4 3 0 0 4c2,0 3,0 5,-2l0 0 3 4c2,-1 1,-2 0,-4 2,0 4,1 5,-1l2 2 3 -4 -3 0 -1 -6c2,0 3,1 5,1 5,-1 7,-5 2,-7l0 -1 7 -1c0,3 2,4 5,5l1 -1 1 -6c3,2 3,3 6,2l1 3 2 -1 0 1 0 0 1 -1 0 0 0 1c4,0 4,2 3,4l9 2 4 0 0 -2 4 0 -1 2 1 0c1,2 1,3 3,3l0 -2c2,0 4,0 5,-2l8 0 -1 9 9 1 0 2c4,-2 10,-2 15,-2 0,-3 2,-5 5,-5 1,-5 1,-8 6,-11l1 -9 7 2 3 3c-1,-6 4,-11 4,-17l2 0 0 -2 -6 0 -4 1 -2 -1 1 -5c-2,-1 -5,-4 -6,-2 -1,0 -2,-1 -1,-3l0 0c-1,-1 -3,-1 -4,-2 0,-1 1,-2 1,-3 0,-3 -1,-7 1,-9 1,-2 3,-2 4,-3 0,-2 -2,-3 -2,-5 -2,0 -2,-7 -3,-8 0,-1 -1,-2 0,-3 1,-2 5,-1 7,-1 6,-2 11,-5 16,-8 2,-1 5,-2 5,-4 -2,0 -4,2 -6,3 -5,3 -10,6 -15,7 -8,2 -17,3 -25,2 -2,0 -5,1 -7,0 -1,0 -2,-2 -4,-3 -1,0 -3,0 -5,0 -1,-1 -2,-3 -3,-4 -2,-1 -4,-1 -5,-3 -3,-4 -1,-10 -2,-14 0,-3 -2,-5 -2,-8l0 0c-4,3 -3,-5 -3,-7 -1,-1 -4,-2 -4,-4 -1,-2 1,-4 0,-6l5 3 11 7 5 3 5 8c0,-10 -15,-16 -23,-21 -2,-1 -5,-5 -8,-6 -5,-1 -10,1 -15,1 -1,0 -2,-1 -3,-1 -9,1 -17,5 -25,7 -11,2 -21,3 -31,8 -6,3 -11,9 -16,12 -3,2 -8,3 -12,3z"/>
    </g>
    <!-- Slaskie -->
    <g id="region_24" class="region">
     <path id="path302" class="fil0 str0" d="M318 418l-2 4 -1 0c-2,-3 -11,0 -13,2 0,4 -3,7 -4,10 -1,2 0,3 0,4 0,2 -1,4 -1,5 -1,4 -8,6 -6,11 0,2 2,3 3,4l-1 1 0 -1 -5 5c2,2 2,6 3,8 1,1 3,1 4,2 1,1 1,2 1,4 1,1 2,2 0,3 -3,2 -9,-1 -11,1 -2,2 2,6 2,7 0,1 1,2 0,2 -1,0 -2,-1 -4,-1 0,0 -1,0 -2,0 0,3 0,8 -2,9l2 3 -1 3 -1 0c0,3 4,5 1,7 2,3 3,4 3,7l-4 0 -1 -1c-1,3 -5,4 -8,5l0 4 -8 0 -1 2 -2 -1 -3 0c2,4 1,7 0,11 4,1 2,4 5,6 2,2 3,0 5,1 1,0 2,2 2,2 2,2 4,3 4,5 2,0 3,0 4,-2l7 2 4 3 6 -2 -1 5c4,3 1,4 1,7 0,3 1,7 3,10 1,2 5,5 7,5 2,1 4,0 6,2 1,1 1,3 1,5 1,2 2,5 2,8 1,1 0,3 1,4 1,3 5,0 7,2 1,1 2,6 2,8 -1,2 -1,4 1,4 2,0 3,-1 5,-2 3,0 7,3 9,-1 2,-2 2,-6 4,-9 2,-2 6,-3 9,-6 2,-2 5,-7 9,-7l1 -2c-2,-2 -6,-2 -7,-4 2,-1 6,-5 4,-7 -2,-2 -7,-1 -10,-2 -1,-1 -3,-3 -3,-4 0,-1 1,-3 0,-4 -2,-2 -5,1 -7,-1 -1,0 -1,-1 -1,-2 1,-4 0,-7 0,-11 -2,0 -5,3 -6,-1 3,0 2,-4 2,-6 1,-3 3,-3 5,-5 1,-2 1,-5 2,-7 1,-2 3,-2 3,-4l5 -1c0,-3 3,-8 7,-9l-8 -5c4,-1 5,-3 8,-6 1,-1 3,-1 3,-2 1,-1 0,-2 1,-3 -1,-2 -1,-4 1,-5 2,-1 5,1 7,1 2,0 3,-2 5,-2 1,-1 3,0 4,0 1,0 2,-1 3,-1 1,0 1,0 2,0 2,0 3,0 4,0l0 -2 5 -1 -2 -5c-2,0 -3,-1 -4,-1 -1,-1 -4,-1 -5,-3 0,-1 2,-2 3,-3 0,-1 0,-2 1,-3 2,-2 5,-1 4,-5 -1,0 -5,0 -4,-2 0,-1 1,-2 2,-3l-7 -2 -5 0c1,-3 0,-3 -1,-6 2,0 3,1 4,0 3,-2 1,-6 5,-6 3,-6 -7,-3 -10,-4 -1,0 -1,-2 -2,-3 -1,-2 -8,-5 -9,-1l-2 0c0,-2 0,-4 -1,-6 -1,-1 -3,-2 -4,-4 0,-1 -1,-6 -4,-3l0 0c-1,-3 -3,-3 -3,-6 -1,0 -3,-1 -4,0 -1,1 0,3 -1,3 -2,3 -5,1 -6,-1 -2,0 -8,-1 -8,-3l-8 -7m34 16l1 0 -1 0z"/>
    </g>
    <!-- Swietokrzyskie -->
    <g id="region_26" class="region">
     <path id="path262" class="fil0 str0" d="M424 394c-1,2 -3,1 -4,3 -1,1 1,4 1,5l-1 0 1 3 -4 -2 -6 1 3 3 -4 3 0 0c-2,-2 -4,1 -7,1 -2,0 -6,-2 -8,0 -2,1 1,2 0,3 0,2 -2,2 -2,4 -1,1 0,4 0,6l5 1c-1,2 -1,5 -2,8 0,0 0,2 -1,2 -2,3 -5,-4 -6,-5 -1,-1 -3,-1 -4,-2l0 0 -3 7 0 6 -6 7c4,1 5,3 5,6l-3 -1 -1 4c-2,2 -2,3 -5,3l1 2 0 3 4 0 7 2c0,1 -2,2 -2,3 -1,2 4,2 5,1 0,2 -1,4 -2,5 -1,0 -2,0 -3,1 -1,2 -1,4 -4,5 0,2 6,5 8,5 1,-1 2,-2 3,-2 2,0 6,1 8,1 1,1 1,2 3,2 2,1 4,0 5,0 2,0 5,1 6,2 2,1 0,3 1,5 2,3 8,8 2,9l0 3c3,1 5,3 3,6l2 3 2 1 0 0 -2 2 3 0c1,7 7,1 10,1 1,-1 3,0 4,0 2,-1 4,-3 6,-3 1,-1 3,0 4,-1 2,-1 3,-4 5,-5 1,0 2,1 4,0 1,0 2,-1 3,-2 3,-1 7,-1 10,-2 4,0 7,-4 11,-2 4,-7 11,-10 17,-14 2,-1 2,-4 4,-5 3,-2 6,-2 9,-5 4,-3 4,-9 6,-13 2,-2 7,2 6,-3 3,-1 2,-7 3,-10 1,-3 1,-7 0,-10 -1,-1 -2,-2 -2,-3 -1,-4 0,-7 -1,-11 0,-1 -1,-3 -2,-4 0,-2 1,-4 0,-6 -1,1 -3,2 -1,3 -3,3 -6,-1 -8,-2 -1,-1 -3,-1 -4,-1l0 2c-2,0 -9,0 -8,3l-1 0c0,2 -2,3 -4,2 -3,-2 -4,-3 -6,-7 -3,0 -7,0 -10,1 -1,0 -3,0 -4,-1 -1,-1 0,-2 0,-3 -1,-2 -3,-4 -5,-4 1,-2 3,-5 -1,-6 0,4 0,5 -4,7 0,-2 -2,-4 -4,-3 -1,0 -2,1 -3,1 -2,1 -5,1 -7,1 1,-4 -3,0 -4,-1 -1,-1 1,-3 0,-4 0,-2 -3,-3 -4,-5l-3 1c-2,-1 -3,0 -5,1l-3 -7c-1,-1 -1,-2 0,-2 0,-3 -4,-3 -6,-3z"/>
    </g>
    <!-- Warminsko-Mazurskie -->
    <g id="region_28" class="region">
    <path id="path16" class="fil0 str0" d="M376 46l-4 4 -6 7 -7 1 -5 4 -5 8 -1 1 3 -7c-1,0 -2,1 -3,2 -1,0 -4,-2 -6,-1 -1,3 4,6 3,8 -1,2 -3,1 -4,3 -2,3 -1,6 -1,9 0,1 -1,2 -1,3 1,1 4,1 5,2 -1,1 -2,2 -1,3 2,0 6,-1 7,2 0,2 -2,5 0,6 2,1 4,-1 5,-1 2,-1 4,0 6,0l0 3 -2 0c0,3 -1,6 -2,8 -1,2 -2,3 -1,4l0 0c-1,1 -1,2 0,4 -2,0 -2,-2 -4,-3 -1,-1 -6,-2 -7,-1 0,1 -1,4 -1,5 0,1 0,2 0,3 -5,1 -5,7 -5,11 -3,0 -7,2 -5,5 1,3 3,2 3,5 3,1 0,3 1,5 0,2 2,2 1,5 4,3 0,6 5,7 0,-3 3,-1 5,-2 0,3 0,5 3,5l0 2 2 -1 0 1c2,0 4,1 4,4l3 0c1,-2 5,-3 6,-1 2,2 2,6 5,8l-1 1c-2,-1 -2,2 -2,4 5,0 2,4 4,8 1,1 4,1 5,2l0 -5 4 -4c3,3 1,6 5,8 4,2 8,-4 11,0 5,-3 12,3 17,0 4,-2 1,-4 2,-7 0,-1 2,-3 3,-4 2,-2 4,-2 5,0l6 -2 3 -1 3 -4 0 -2c3,0 7,1 8,-1l4 -1 -1 -1 0 -1c1,-1 2,-1 5,-1l2 -3 0 0c3,5 7,2 9,-2l1 0 2 1c2,-2 4,-3 6,-4l0 2c2,-1 3,-1 5,0l6 -3 -1 -1c1,0 2,0 4,0 3,0 8,-2 11,-2 2,-1 3,-2 5,-2 1,0 4,0 5,1 2,0 3,2 5,1 2,0 5,-11 9,-4 1,-1 1,-3 3,-4 1,-2 5,-2 7,-3 4,-3 6,-7 10,-10 3,-3 5,-7 9,-4l0 -6c3,0 5,0 5,-3l3 1 5 -8 2 1c1,-2 0,-4 0,-6 2,-4 6,-6 4,-12 -1,-2 -4,-4 -5,-6 -2,-3 -3,-6 -6,-8 0,-2 1,-3 1,-5 0,-1 -1,-4 -2,-4 -1,-1 -2,0 -3,-1 -1,-1 -3,-4 -4,-6 2,-1 2,-2 2,-4 2,0 5,-1 6,-2 1,-1 1,-2 2,-2 4,-1 11,0 9,-6 2,-1 1,-3 -1,-4 -2,4 -7,2 -10,3 -11,1 -23,1 -34,2 -15,2 -31,4 -46,5 -3,0 -5,-1 -8,-1 -8,-1 -16,-1 -25,-2 -20,-2 -40,-3 -59,-6 -4,0 -7,-2 -11,-3z"/>
    </g>
    <!-- Wielkopolskie -->
    <g id="region_30" class="region">
     <path id="path152" class="fil0 str0" d="M183 135c-2,1 -4,1 -5,3 -1,2 0,3 -1,5 -1,3 -3,5 -6,7 -2,1 -7,1 -9,2 -2,0 -4,-3 -5,1l2 7 10 4 5 4 0 1c-2,0 -5,1 -6,3 0,2 1,4 -2,5 0,-2 -1,-2 -3,-2l0 1 -3 3 -7 2 -2 3 1 2 -2 2 0 0c2,3 0,5 -3,6l1 2c-2,0 -2,0 -4,-2l-10 5 -5 -1 0 -2c-2,0 -5,-1 -5,0 -1,1 -1,3 -1,4 0,4 1,8 1,12 -1,2 0,5 -3,5l1 2 -4 1c0,2 2,1 2,3 0,1 0,1 0,2 0,2 1,3 0,4 -1,3 -8,3 -11,4l1 3c-3,1 -2,4 -2,6 0,3 2,5 3,8 0,1 -1,2 -1,3 1,2 4,4 2,6l0 1 1 0 -1 4 0 0 -3 -4c-1,0 -2,1 -1,3 1,2 5,3 6,6 1,2 0,5 1,7 -5,1 -5,8 -4,12 -2,2 2,5 2,7 -1,2 -2,3 -1,5 0,1 3,2 4,1 2,1 6,4 1,6 1,2 3,7 6,6 2,0 4,-2 5,-1 2,0 2,2 2,3l-1 1c1,3 0,3 -1,6l4 0c1,1 2,1 3,1l0 2 5 -5c1,2 3,2 5,3 1,1 3,3 4,4 1,2 1,4 1,6 1,1 4,4 5,5 2,2 7,3 9,5 3,3 0,6 0,9 0,3 7,3 9,3 0,2 2,8 5,9 1,0 2,0 3,0 3,2 4,5 8,4l0 -1c1,-1 2,0 3,1l1 0 0 -2 4 -1c1,3 3,-1 5,1 2,-2 -1,-5 2,-6 5,-4 11,0 16,2 1,1 3,0 4,1 2,3 7,10 -1,10l2 8 1 3 4 -1 6 2 1 -2 2 1 1 2c-2,1 -3,2 -3,3 1,2 3,4 3,6 0,1 0,3 -1,4 0,2 1,5 2,7 2,1 4,2 5,3 1,2 0,4 0,5l-1 0 -1 0c2,6 17,4 17,-2l5 -1 1 -4c-2,-2 1,-5 -1,-8l0 0c-1,0 -3,1 -4,0 0,-1 0,-3 0,-4 0,-2 -1,-4 -3,-6l4 -1c1,-3 3,-1 5,-3 1,-1 1,-3 0,-5l2 -2 8 5c1,-2 3,-4 4,-6 0,-3 -1,-5 -1,-7 1,-2 2,-6 0,-7l-1 -3 2 -1 0 -1 -1 -4 1 0 0 -1c4,-1 3,-8 4,-10 0,-2 1,-3 1,-4l1 0 4 -3 0 2c4,-1 6,0 10,1 1,-5 7,-7 7,-11 1,-2 -2,-3 -3,-5 0,-1 0,-3 -1,-5 3,-1 0,-4 1,-7 3,-3 8,4 8,-2l7 0c-1,-2 0,-3 0,-5 0,-1 -2,-1 -2,-2 0,-7 6,-9 12,-6l0 0 -1 -2c1,-1 3,-3 1,-4 -1,-1 -3,-1 -4,-1l1 -6 -3 -1 -1 -4 -3 -3 0 2c-3,1 -6,3 -9,4 -1,0 -2,1 -3,0 -1,-1 -1,-4 -3,-5 -1,-2 -2,-2 -3,-4l-2 -3 -3 -1c-2,0 -2,-1 -2,-2l-5 -2 -2 2c-1,0 -4,1 -5,1 -2,-1 -1,-6 -1,-8 -2,1 -6,5 -8,7l0 0c-1,-1 -2,-1 -3,-1 -2,-1 -3,-3 -6,-3 0,-2 -1,-2 -3,-2l0 -4 -5 0 -2 1 1 -4c-2,1 -3,0 -3,-2l-1 0 0 1 -2 -3 -2 -2 -4 0 1 -1 -4 -2 -2 2 0 -2 -2 1 0 0 1 1 -3 1 -1 1 -1 -4 -3 -1c0,-1 1,-3 1,-4 -1,-2 -7,1 -7,2l-2 -1 -2 0 1 -2 0 -3c-5,-1 -6,-3 -2,-6 1,1 3,1 3,-1 1,-1 1,-3 1,-5l1 0c0,-2 -2,-7 -4,-9l1 -1c-2,-1 -4,-3 -6,-3 -4,-2 -5,1 -7,-4 3,-2 3,-5 3,-8l2 0 -1 -7 2 0 0 -1 -2 -1 0 -7c1,0 6,-1 7,-2 2,-3 0,-6 -2,-8 -2,-3 -4,-6 -8,-7 1,-2 3,-3 3,-4 1,-1 1,-3 2,-5 2,-2 5,-3 5,-6l-4 -1 0 -1 -1 0c-1,-4 -7,-2 -10,-2 -1,0 -3,-1 -4,-1 -2,1 -3,2 -4,2 -4,0 -2,-5 -6,-2 -1,-3 -2,-6 -3,-8 0,-1 0,-3 -1,-3 -2,-1 -2,3 -4,1z"/>
    </g>
    <!-- Zachodniopomorskie -->
    <g id="region_32" class="region">
     <path id="path12" class="fil0 str0" d="M48 85c1,0 3,-1 4,0 1,0 0,2 -1,2 -2,2 -1,6 -1,8 -6,-1 -10,6 -11,12 0,3 1,7 -4,6 0,2 -2,7 0,8 0,2 0,5 1,5l0 3 -4 -5 -9 -4 -5 -6c0,2 0,4 -3,5 1,3 2,8 2,12 0,1 0,4 0,6 1,2 2,4 3,6 1,5 1,10 2,15 0,3 2,6 1,9 0,3 -3,4 -4,6 0,3 1,5 0,8 0,3 -2,7 -4,9 -2,2 -4,5 -6,6 -2,1 -4,2 -5,3 -2,2 -1,6 -1,8 -1,2 -2,3 -2,5 0,2 5,3 6,5 3,4 7,7 10,11 2,3 3,6 7,9l0 0c3,-3 4,-3 8,-2 2,-4 5,3 8,1 1,-1 4,-6 4,-7 1,-2 0,-4 1,-5 0,-2 3,-2 4,-4 1,-1 0,-6 3,-5l1 -1 -2 -1 1 -3c3,1 5,3 6,5 1,-1 2,-2 4,-2 0,3 2,2 5,1 4,-1 8,-3 12,-5l-2 -6 5 1c3,-4 9,-7 14,-7 0,6 6,6 9,2l0 0c2,2 3,1 5,1l0 -1 -1 0c0,-2 2,-3 3,-4l-1 -3c3,0 6,-3 6,-6 2,0 7,0 9,2 2,3 -4,9 3,8 0,2 2,2 4,2 4,1 8,-3 12,-4 0,1 1,1 2,2l0 -2c2,-1 5,-4 3,-6l0 0c1,-1 1,-2 0,-4 2,0 2,-1 2,-3 2,0 4,-1 5,-2 1,0 2,1 3,0 1,0 1,-2 2,-3 1,-2 3,-2 4,-1l1 1c2,0 0,-2 1,-4 1,-2 4,-3 6,-3 -5,-7 -18,-5 -16,-15 -2,-1 -1,-3 1,-3 1,-1 2,0 3,0 2,0 7,0 9,-1 3,-2 5,-4 6,-7 0,-2 0,-3 1,-5 1,-2 3,-2 5,-4l0 0 1 2 0 0c1,-2 2,-3 4,-3l-2 -7 0 -4 4 -6 -2 0c0,-2 -4,-4 -3,-6 2,-3 7,-1 8,-4 0,-5 -5,-5 -7,-8 -1,-1 0,-3 -1,-5 -2,2 -1,4 -4,4 0,-2 -1,-3 -1,-5 1,-2 2,-3 2,-5 0,-3 -2,-8 -3,-10 -1,-2 -1,-6 -3,-6 1,-2 0,-4 2,-6 2,-1 5,-1 6,-2 2,-3 1,-6 -2,-6l1 -7 3 0 -1 -4 0 -6 -4 -2 -1 -7c-5,0 -9,0 -13,2 -7,4 -10,10 -14,15 -4,6 -9,10 -15,13 -6,3 -12,2 -18,3 -6,1 -12,4 -18,5 -4,1 -7,1 -11,2 -6,1 -12,4 -18,6 -5,1 -9,3 -14,4 -3,1 -8,2 -11,4z"/>
     <path id="path24" class="fil0 str0" d="M19 94l0 6 4 -2 4 -1 -1 4 11 2 1 5c0,-3 2,-7 3,-9 1,-2 3,-3 3,-5 2,-3 1,-7 5,-7l0 -1c-1,0 -2,-1 -3,0 -2,0 -2,2 -4,2 -3,0 -7,0 -10,1 -5,3 -6,9 -13,5z"/>
     <path id="path32" class="fil0 str0" d="M14 92c0,5 0,10 5,13l-2 -7 0 -4 -3 -2z"/>
     <polygon id="path40" class="fil0 str0" points="19,102 21,105 21,105 24,102 "/>
    </g>


   <!-- <path id="path28" class="fil0 str0 mark" d="M47 90l-1 3c2,0 3,-2 1,-3z"/> -->
   <!-- <polygon id="path36" class="fil0 str0 mark" points="22,100 24,100 24,99 "/> -->
  </g>
 </g>
</svg>
