<?xml version="1.0" encoding="UTF-8"?>
<!DOCTYPE svg PUBLIC "-//W3C//DTD SVG 1.1//EN" "http://www.w3.org/Graphics/SVG/1.1/DTD/svg11.dtd">
<!-- Creator: CorelDRAW X6 -->
<svg xmlns="http://www.w3.org/2000/svg" xml:space="preserve" width="2480px" height="3508px" version="1.1" style="shape-rendering:geometricPrecision; text-rendering:geometricPrecision; image-rendering:optimizeQuality; fill-rule:evenodd; clip-rule:evenodd"
viewBox="0 0 2480 3507"
 xmlns:xlink="http://www.w3.org/1999/xlink">
 <defs>
  <style type="text/css">
   <![CDATA[
    .fil0 {fill:none}
    .fil14 {fill:#999999}
    .fil4 {fill:#B3B3B3}
    .fil5 {fill:#CCCCCC}
    .fil9 {fill:#E6E6E6}
    .fil17 {fill:url(#id0)}
    .fil2 {fill:url(#id1)}
    .fil13 {fill:url(#id2)}
    .fil7 {fill:url(#id3)}
    .fil11 {fill:url(#id4)}
    .fil12 {fill:url(#id5)}
    .fil3 {fill:url(#id6)}
    .fil1 {fill:url(#id7)}
    .fil18 {fill:url(#id8)}
    .fil15 {fill:url(#id9)}
    .fil8 {fill:url(#id10)}
    .fil10 {fill:url(#id11)}
    .fil16 {fill:url(#id12)}
    .fil6 {fill:url(#id13)}
   ]]>
  </style>
  <linearGradient id="id0" gradientUnits="userSpaceOnUse" x1="340.728" y1="2629.85" x2="277.942" y2="3508.87">
   <stop offset="0" style="stop-color:#999999"/>
   <stop offset="1" style="stop-color:#FEFEFE"/>
  </linearGradient>
  <linearGradient id="id1" gradientUnits="userSpaceOnUse" x1="497.21" y1="599.399" x2="402.165" y2="1349.92">
   <stop offset="0" style="stop-color:gray"/>
   <stop offset="1" style="stop-color:#FEFEFE"/>
  </linearGradient>
  <linearGradient id="id2" gradientUnits="userSpaceOnUse" x1="1293.96" y1="1074.11" x2="1293.96" y2="1892.92">
   <stop offset="0" style="stop-color:white"/>
   <stop offset="1" style="stop-color:#E6E6E6"/>
  </linearGradient>
  <linearGradient id="id3" gradientUnits="userSpaceOnUse" x1="1445.2" y1="225.165" x2="2079.62" y2="1349.13">
   <stop offset="0" style="stop-color:#E6E6E6"/>
   <stop offset="1" style="stop-color:#FEFEFE"/>
  </linearGradient>
  <linearGradient id="id4" gradientUnits="userSpaceOnUse" x1="2185.55" y1="2786.02" x2="1713.96" y2="1884.45">
   <stop offset="0" style="stop-color:#B3B3B3"/>
   <stop offset="1" style="stop-color:#FEFEFE"/>
  </linearGradient>
  <linearGradient id="id5" gradientUnits="userSpaceOnUse" x1="2011.11" y1="3227.59" x2="1888.39" y2="2380.27">
   <stop offset="0" style="stop-color:#CCCCCC"/>
   <stop offset="1" style="stop-color:#FEFEFE"/>
  </linearGradient>
  <linearGradient id="id6" gradientUnits="userSpaceOnUse" xlink:href="#id4" x1="359.126" y1="196.033" x2="169.272" y2="1136.12">
  </linearGradient>
  <linearGradient id="id7" gradientUnits="userSpaceOnUse" xlink:href="#id3" x1="663.053" y1="79.3529" x2="715.223" y2="537.82">
  </linearGradient>
  <linearGradient id="id8" gradientUnits="userSpaceOnUse" xlink:href="#id3" x1="1422.53" y1="2786.93" x2="1844.73" y2="3249.65">
  </linearGradient>
  <linearGradient id="id9" gradientUnits="userSpaceOnUse" xlink:href="#id4" x1="120.253" y1="1927.67" x2="393.034" y2="1508.18">
  </linearGradient>
  <linearGradient id="id10" gradientUnits="userSpaceOnUse" xlink:href="#id4" x1="1866.31" y1="1097.99" x2="2302.23" y2="723.176">
  </linearGradient>
  <linearGradient id="id11" gradientUnits="userSpaceOnUse" xlink:href="#id0" x1="2138.24" y1="1539.86" x2="2030.31" y2="2036.91">
  </linearGradient>
  <linearGradient id="id12" gradientUnits="userSpaceOnUse" x1="1017.16" y1="3155.28" x2="1117.86" y2="3527.9">
   <stop offset="0" style="stop-color:#999999"/>
   <stop offset="1" style="stop-color:#B3B3B3"/>
  </linearGradient>
  <linearGradient id="id13" gradientUnits="userSpaceOnUse" xlink:href="#id3" x1="1891.43" y1="111.093" x2="1966.84" y2="377.925">
  </linearGradient>
 </defs>
 <g id="Layer_x0020_1">
  <metadata id="CorelCorpID_0Corel-Layer"/>
  <g id="_166486432">
   <rect class="fil0" width="2480" height="3507"/>
   <polygon class="fil1" points="1378,0 0,0 528,617 "/>
   <polygon class="fil2" points="0,1332 528,617 899,1029 "/>
   <polygon class="fil3" points="0,1332 528,617 0,0 "/>
   <polygon class="fil4" points="528,617 899,1029 1045,242 "/>
   <polygon class="fil5" points="1378,0 1045,242 2480,489 "/>
   <polygon class="fil6" points="2480,489 1378,0 2480,0 "/>
   <polygon class="fil5" points="899,1029 1045,242 1689,1332 "/>
   <polygon class="fil7" points="1689,1332 1045,242 2480,489 "/>
   <polygon class="fil8" points="2480,489 1689,1332 2480,1026 "/>
   <polygon class="fil5" points="2480,1026 1689,1332 2480,2245 "/>
   <polygon class="fil9" points="513,1645 899,1029 1269,1938 "/>
   <polygon class="fil9" points="1757,1857 1269,1938 1689,1332 "/>
   <polygon class="fil10" points="2480,2245 1689,1332 1757,1857 "/>
   <polygon class="fil11" points="2480,2245 1757,1857 1420,2813 "/>
   <polygon class="fil12" points="2480,2245 1420,2813 2480,3363 "/>
   <polygon class="fil5" points="1757,1857 1420,2813 1269,1938 "/>
   <polygon class="fil5" points="1057,3176 0,3507 619,2801 "/>
   <polygon class="fil5" points="0,2631 619,2801 0,2104 "/>
   <polygon class="fil4" points="1420,2813 0,2104 1269,1938 "/>
   <polygon class="fil13" points="1689,1332 899,1029 1269,1938 "/>
   <polygon class="fil5" points="1269,1938 513,1645 0,2104 "/>
   <polygon class="fil4" points="899,1029 513,1645 0,1332 "/>
   <polygon class="fil14" points="0,2104 619,2801 1420,2813 "/>
   <polygon class="fil15" points="0,1332 0,2104 513,1645 "/>
   <polygon class="fil9" points="1420,2813 1057,3176 619,2801 "/>
   <polygon class="fil5" points="2210,3223 1057,3176 2135,3507 "/>
   <polygon class="fil16" points="2135,3507 0,3507 1057,3176 "/>
   <polygon class="fil17" points="619,2801 0,3507 0,2631 "/>
   <polygon class="fil5" points="2480,3363 2135,3507 2480,3507 "/>
   <polygon class="fil4" points="2480,3363 2135,3507 2210,3223 "/>
   <polygon class="fil18" points="2210,3223 1057,3176 1420,2813 "/>
  </g>
 </g>
</svg>
