<?xml version="1.0" encoding="UTF-8" standalone="no"?>
<!-- Created with sK1/UniConvertor (http://sk1project.org/) -->
<svg id="svg3023" xmlns:rdf="http://www.w3.org/1999/02/22-rdf-syntax-ns#" xmlns="http://www.w3.org/2000/svg" fill-rule="evenodd" height="128" width="223.5" version="1.1" xmlns:cc="http://creativecommons.org/ns#" xmlns:dc="http://purl.org/dc/elements/1.1/" viewBox="0 0 178.80079 102.4">
 <metadata id="metadata3035">
  <rdf:RDF>
   <cc:Work rdf:about="">
    <dc:format>image/svg+xml</dc:format>
    <dc:type rdf:resource="http://purl.org/dc/dcmitype/StillImage"/>
    <dc:title/>
   </cc:Work>
  </rdf:RDF>
 </metadata>
 <g id="g3025" fill="#FFF" transform="matrix(3.3333335,0,0,3.3333335,-320.19968,-2447.9002)">
  <g id="g3027" fill="#FFF">
   <path id="path3029" fill="#FFF" d="m119.22,761.66,0,1.43c0.601,0.803,1.599,1.088,2.787,1.126h4.248v0.871h-23.693v-0.871h4.249c1.187-0.038,2.185-0.323,2.786-1.126v-1.43h-12.318c-0.6715,0-1.2206-0.549-1.2206-1.22v-24.852c0-0.672,0.5491-1.221,1.2206-1.221h34.26c0.671,0,1.22,0.549,1.22,1.221v1.066l8.655,0.419c0.648,0.031,1.153,0.588,1.122,1.237l-0.085,1.755,6.172-0.11c0.443-0.007,0.812,0.349,0.82,0.792l0.255,14.374c0.008,0.443-0.348,0.813-0.792,0.82l-7.23,0.129-0.088,1.811c-0.032,0.649-0.588,1.154-1.237,1.123l-7.592-0.368v1.804c0,0.671-0.549,1.22-1.22,1.22h-12.319zm12.605-12.06,0.072-1.474,5.812,0.282-0.071,1.473-5.813-0.281zm-21.244,0.627,0,1.476-5.587,0c0.06-0.562,0.242-1.092,0.544-1.594,0.302-0.501,0.9-1.167,1.791-1.997,0.718-0.67,1.157-1.125,1.32-1.363,0.218-0.329,0.329-0.655,0.329-0.978,0-0.356-0.095-0.629-0.287-0.821-0.189-0.191-0.453-0.286-0.787-0.286-0.333,0-0.597,0.101-0.794,0.302-0.196,0.2-0.308,0.532-0.339,0.999l-1.591-0.159c0.095-0.879,0.391-1.51,0.89-1.893,0.5-0.381,1.123-0.573,1.872-0.573,0.821,0,1.466,0.223,1.936,0.666,0.469,0.443,0.703,0.995,0.703,1.655,0,0.376-0.068,0.732-0.202,1.072-0.133,0.339-0.346,0.693-0.639,1.065-0.191,0.248-0.542,0.602-1.045,1.065-0.505,0.462-0.824,0.768-0.958,0.921-0.136,0.151-0.244,0.3-0.327,0.443h3.171zm34.688,1.352-0.029-1.672-3.391,0.06-0.025-1.388,3.503-5.353,1.339-0.024,0.094,5.284,1.033-0.018,0.025,1.393-1.034,0.019,0.03,1.672-1.545,0.027zm-0.054-3.066-0.05-2.839-1.851,2.873,1.901-0.034zm-13.268-1.431,0.072-1.473,5.812,0.281-0.071,1.474-5.813-0.282zm-8.124,3.145,0,1.476-5.586,0c0.06-0.562,0.242-1.092,0.543-1.594,0.303-0.501,0.901-1.167,1.791-1.997,0.718-0.67,1.158-1.125,1.32-1.363,0.219-0.329,0.329-0.655,0.329-0.978,0-0.356-0.094-0.629-0.286-0.821-0.19-0.191-0.453-0.286-0.788-0.286-0.333,0-0.596,0.101-0.794,0.302-0.195,0.2-0.307,0.532-0.339,0.999l-1.591-0.159c0.095-0.879,0.392-1.51,0.891-1.893,0.499-0.381,1.123-0.573,1.872-0.573,0.82,0,1.465,0.223,1.936,0.666,0.468,0.443,0.702,0.995,0.702,1.655,0,0.376-0.067,0.732-0.201,1.072-0.134,0.339-0.347,0.693-0.639,1.065-0.192,0.248-0.542,0.602-1.045,1.065-0.505,0.462-0.825,0.768-0.958,0.921-0.136,0.151-0.245,0.3-0.328,0.443h3.171zm-10,0.279,0-2.16-2.184,0,0-1.487,2.184,0,0-2.16,1.452,0,0,2.16,2.183,0,0,1.487-2.183,0,0,2.16-1.452,0zm30.93,4.679c-0.385,0.006-0.703-0.301-0.71-0.686s0.3-0.703,0.685-0.709c0.385-0.007,0.703,0.3,0.71,0.685s-0.3,0.703-0.685,0.71zm-3.736-15.095-0.671,0.012c-0.443,0.008-0.799,0.377-0.792,0.82l0.255,14.374c0.006,0.306,0.183,0.57,0.438,0.702l-0.064,1.326c-3.87-0.188-7.74-0.375-11.61-0.563l0.901-18.595,11.609,0.563-0.066,1.361zm-9.872-3.515-1.84-0.089c-0.648-0.031-1.205,0.474-1.236,1.123l-0.948,19.571c-0.032,0.649,0.473,1.206,1.122,1.237l2.902,0.141v0.488h-33.473v-23.05h33.473v0.579zm17.25,16.541-0.211-11.921-7.226,0.128-0.129,0.002,0.211,11.921,7.355-0.13z"/>
  </g>
 </g>
</svg>
