<?xml version="1.0" encoding="utf-8"?>
<!-- Generator: Adobe Illustrator 16.0.3, SVG Export Plug-In . SVG Version: 6.00 Build 0)  -->
<!DOCTYPE svg PUBLIC "-//W3C//DTD SVG 1.1//EN" "http://www.w3.org/Graphics/SVG/1.1/DTD/svg11.dtd">
<svg version="1.1" id="Warstwa_1" xmlns="http://www.w3.org/2000/svg" xmlns:xlink="http://www.w3.org/1999/xlink" x="0px" y="0px"
	 width="690px" height="230px" viewBox="-12.666 0.057 690 230" enable-background="new -12.666 0.057 690 230"
	 xml:space="preserve">
<g id="Warstwa_2">
</g>
<g>
	<path fill="#41507A" d="M214.834,115.057c0,62.134-50.365,112.5-112.5,112.5s-112.5-50.365-112.5-112.5
		c0-62.136,50.365-112.5,112.5-112.5S214.834,52.921,214.834,115.057z"/>
	<path fill="#293A5B" d="M150.017,216.954c22.876-10.724,41.536-28.912,52.862-51.441l-88.165-88.166l-9.02,4.318l-4.453,2.344
		l-14.917,21.73l11.594,11.593l-5.531,41.992L150.017,216.954z"/>
	<g>
		<path fill="#FFFFFF" d="M92.336,159.325l4.22-62.925c-3.637,3.636-6.177,6.163-10.23,9.339l-7.931-11.896L97.96,77.346h16.754
			l-4.857,81.979H92.336z"/>
	</g>
	<path fill="none" stroke="#FFFFFF" stroke-width="5" stroke-miterlimit="10" d="M214.834,115.057
		c0,62.134-50.365,112.5-112.5,112.5s-112.5-50.365-112.5-112.5c0-62.136,50.365-112.5,112.5-112.5S214.834,52.921,214.834,115.057z
		"/>
</g>
<g>
	<path fill="#1B1464" d="M444.834,115.057c0,62.134-50.365,112.5-112.5,112.5s-112.5-50.365-112.5-112.5
		c0-62.136,50.365-112.5,112.5-112.5C394.468,2.557,444.834,52.921,444.834,115.057z"/>
	<g>
		<path fill="#FFFFFF" d="M322.336,159.325l4.22-62.924c-3.637,3.635-6.178,6.163-10.231,9.338l-7.933-11.896l19.566-16.498h16.754
			l-4.857,81.979L322.336,159.325L322.336,159.325z"/>
	</g>
	<path fill="none" stroke="#FFFFFF" stroke-width="5" stroke-miterlimit="10" d="M444.834,115.057
		c0,62.134-50.365,112.5-112.5,112.5s-112.5-50.365-112.5-112.5c0-62.136,50.365-112.5,112.5-112.5
		C394.468,2.557,444.834,52.921,444.834,115.057z"/>
</g>
<g>
	<path fill="#FFFFFF" d="M674.834,115.057c0,62.134-50.364,112.5-112.5,112.5c-62.135,0-112.5-50.365-112.5-112.5
		c0-62.135,50.365-112.5,112.5-112.5C624.47,2.557,674.834,52.922,674.834,115.057z"/>
	<g>
		<path fill="#1B1464" d="M552.336,159.325l4.222-62.924c-3.638,3.635-6.179,6.163-10.23,9.338l-7.932-11.896l19.563-16.498h16.755
			l-4.856,81.979L552.336,159.325L552.336,159.325z"/>
	</g>
	<path fill="none" stroke="#FFFFFF" stroke-width="5" stroke-miterlimit="10" d="M674.834,115.057
		c0,62.134-50.364,112.5-112.5,112.5c-62.135,0-112.5-50.365-112.5-112.5c0-62.135,50.365-112.5,112.5-112.5
		C624.47,2.557,674.834,52.922,674.834,115.057z"/>
</g>
</svg>
