<?xml version="1.0" encoding="utf-8"?>
<!-- Generator: Adobe Illustrator 16.0.3, SVG Export Plug-In . SVG Version: 6.00 Build 0)  -->
<!DOCTYPE svg PUBLIC "-//W3C//DTD SVG 1.1//EN" "http://www.w3.org/Graphics/SVG/1.1/DTD/svg11.dtd">
<svg version="1.1" id="Warstwa_1" xmlns="http://www.w3.org/2000/svg" xmlns:xlink="http://www.w3.org/1999/xlink" x="0px" y="0px"
	 width="690px" height="230px" viewBox="-11.944 0.057 690 230" enable-background="new -11.944 0.057 690 230"
	 xml:space="preserve">
<g>
	<circle fill="#41507A" cx="103.056" cy="115.057" r="112.5"/>
	<path fill="#293A5B" d="M138.426,221.85c30.638-10.142,55.438-33.066,68.057-62.482l-78.697-78.7l-7.003,28.844l-47.441,47.255
		L138.426,221.85z"/>
	<g>
		<path fill="#FFFFFF" d="M107.488,73.508c14.863,0,25.575,7.759,25.575,22.508c0,9.98-5.408,17.611-10.547,23.847
			c-6.702,8.13-15.632,15.8-23.981,22.703h31.078v14.197H73.341v-9.979c8.356-8.438,15.154-15.325,20.396-20.654
			c5.243-5.326,9.335-9.718,12.277-13.169c2.942-3.453,4.924-6.249,5.946-8.377c1.022-2.133,1.534-4.224,1.534-6.27
			c0-5.42-4.432-9.462-9.846-9.462c-5.967,0-11.34,4.265-16.112,12.789l-10.488-9.717C83.04,80.885,90.507,73.508,107.488,73.508z"
			/>
	</g>
	<circle fill="none" stroke="#FFFFFF" stroke-width="5" stroke-miterlimit="10" cx="103.056" cy="115.057" r="112.5"/>
</g>
<g>
	<path fill="#1B1464" d="M445.556,115.057c0,62.134-50.365,112.5-112.5,112.5c-62.136,0-112.5-50.365-112.5-112.5
		c0-62.135,50.364-112.5,112.5-112.5C395.19,2.557,445.556,52.922,445.556,115.057z"/>
	<g>
		<path fill="#FFFFFF" d="M337.487,73.508c14.861,0,25.572,7.759,25.572,22.508c0,9.98-5.404,17.611-10.547,23.847
			c-6.699,8.13-15.631,15.8-23.979,22.703h31.079v14.197h-56.271v-9.979c8.355-8.438,15.153-15.325,20.396-20.654
			c5.243-5.326,9.334-9.718,12.276-13.169c2.942-3.453,4.926-6.249,5.946-8.377c1.023-2.133,1.535-4.224,1.535-6.27
			c0-5.42-4.434-9.462-9.846-9.462c-5.968,0-11.341,4.265-16.113,12.789l-10.487-9.719
			C313.041,80.885,320.507,73.508,337.487,73.508z"/>
	</g>
	<path fill="none" stroke="#FFFFFF" stroke-width="5" stroke-miterlimit="10" d="M445.556,115.057
		c0,62.134-50.365,112.5-112.5,112.5c-62.136,0-112.5-50.365-112.5-112.5c0-62.135,50.364-112.5,112.5-112.5
		C395.19,2.557,445.556,52.922,445.556,115.057z"/>
</g>
<g>
	<circle fill="#FFFFFF" cx="563.056" cy="115.057" r="112.5"/>
	<g>
		<path fill="#1B1464" d="M567.487,73.508c14.861,0,25.574,7.759,25.574,22.508c0,9.98-5.406,17.611-10.547,23.847
			c-6.703,8.13-15.633,15.8-23.98,22.703h31.078v14.197h-56.271v-9.979c8.356-8.438,15.153-15.325,20.396-20.654
			c5.244-5.326,9.336-9.718,12.275-13.169c2.942-3.453,4.924-6.249,5.946-8.377c1.023-2.133,1.535-4.224,1.535-6.27
			c0-5.42-4.434-9.462-9.848-9.462c-5.967,0-11.34,4.265-16.111,12.789l-10.487-9.719C543.041,80.885,550.508,73.508,567.487,73.508
			z"/>
	</g>
	<circle fill="none" stroke="#FFFFFF" stroke-width="5" stroke-miterlimit="10" cx="563.056" cy="115.057" r="112.5"/>
</g>
</svg>
