<?xml version="1.0" encoding="utf-8"?>
<!-- Generator: Adobe Illustrator 16.0.3, SVG Export Plug-In . SVG Version: 6.00 Build 0)  -->
<!DOCTYPE svg PUBLIC "-//W3C//DTD SVG 1.1//EN" "http://www.w3.org/Graphics/SVG/1.1/DTD/svg11.dtd">
<svg version="1.1" id="Warstwa_1" xmlns="http://www.w3.org/2000/svg" xmlns:xlink="http://www.w3.org/1999/xlink" x="0px" y="0px"
	 width="690px" height="230px" viewBox="-1.944 0.057 690 230" enable-background="new -1.944 0.057 690 230" xml:space="preserve">
<g>
	<path fill="#41507A" d="M225.556,115.059c0,62.132-50.365,112.498-112.5,112.498c-62.136,0-112.5-50.365-112.5-112.498
		c0-62.137,50.364-112.501,112.5-112.501C175.191,2.558,225.556,52.922,225.556,115.059z"/>
	<path fill="#293A5B" d="M215.853,160.754l-79.012-79.013l-15.732,35.248l4.22,26.717l-19.688,7.5l-16.329,2.473l65.743,65.746
		C182.153,208.51,204.009,187.361,215.853,160.754z"/>
	<g>
		<path fill="#FFFFFF" d="M141.575,95.179c0,12.045-6.423,16.624-16.243,20.462c10.488,2.051,15.731,8.525,15.731,19.441
			c0,16.73-12.662,24.17-30.182,24.17c-15.075,0-22.865-4.982-29.924-13.17l8.696-10.74c5.795,6.73,12.192,10.1,19.182,10.1
			c7.228,0,13.173-4.059,13.173-11c0-11.428-11.24-12.278-23.661-11.639l0.385-14.323c12.517,1.538,24.169,1.601,24.169-10.869
			c0-5.686-4.807-8.693-10.739-8.693c-7.656,0-12.609,4.169-17.522,8.693l-6.139-12.146c6.228-7.162,15.816-10.746,28.776-10.746
			C131.519,74.718,141.575,81.509,141.575,95.179z"/>
	</g>
	<path fill="none" stroke="#FFFFFF" stroke-width="5" stroke-miterlimit="10" d="M225.556,115.059
		c0,62.132-50.365,112.498-112.5,112.498c-62.136,0-112.5-50.365-112.5-112.498c0-62.137,50.364-112.501,112.5-112.501
		C175.191,2.558,225.556,52.922,225.556,115.059z"/>
</g>
<g>
	<path fill="#1B1464" d="M455.556,115.059c0,62.132-50.365,112.498-112.5,112.498c-62.136,0-112.5-50.365-112.5-112.498
		c0-62.137,50.364-112.501,112.5-112.501C405.19,2.558,455.556,52.922,455.556,115.059z"/>
	<g>
		<path fill="#FFFFFF" d="M371.575,95.179c0,12.045-6.422,16.624-16.241,20.462c10.487,2.051,15.729,8.525,15.729,19.441
			c0,16.73-12.66,24.17-30.182,24.17c-15.075,0-22.866-4.982-29.923-13.17l8.695-10.74c5.795,6.73,12.191,10.1,19.183,10.1
			c7.227,0,13.172-4.059,13.172-11c0-11.428-11.24-12.278-23.662-11.639l0.385-14.323c12.517,1.538,24.169,1.601,24.169-10.869
			c0-5.686-4.807-8.693-10.74-8.693c-7.655,0-12.609,4.169-17.522,8.693L318.5,85.465c6.228-7.162,15.815-10.746,28.777-10.746
			C361.519,74.718,371.575,81.509,371.575,95.179z"/>
	</g>
	<path fill="none" stroke="#FFFFFF" stroke-width="5" stroke-miterlimit="10" d="M455.556,115.059
		c0,62.132-50.365,112.498-112.5,112.498c-62.136,0-112.5-50.365-112.5-112.498c0-62.137,50.364-112.501,112.5-112.501
		C405.19,2.558,455.556,52.922,455.556,115.059z"/>
</g>
<g>
	<path fill="#FFFFFF" d="M685.556,115.058c0,62.133-50.363,112.499-112.5,112.499c-62.135,0-112.5-50.365-112.5-112.499
		c0-62.137,50.365-112.501,112.5-112.501C635.192,2.557,685.556,52.921,685.556,115.058z"/>
	<g>
		<path fill="#1B1464" d="M601.577,95.177c0,12.046-6.424,16.625-16.243,20.464c10.487,2.051,15.729,8.525,15.729,19.441
			c0,16.73-12.66,24.17-30.182,24.17c-15.076,0-22.863-4.982-29.925-13.172l8.695-10.738c5.797,6.73,12.191,10.1,19.182,10.1
			c7.229,0,13.175-4.059,13.175-11c0-11.43-11.238-12.278-23.662-11.639l0.387-14.324c12.519,1.538,24.17,1.601,24.17-10.869
			c0-5.685-4.809-8.693-10.737-8.693c-7.658,0-12.611,4.169-17.523,8.693l-6.139-12.147c6.227-7.16,15.815-10.745,28.776-10.745
			C591.52,74.717,601.577,81.507,601.577,95.177z"/>
	</g>
	<path fill="none" stroke="#FFFFFF" stroke-width="5" stroke-miterlimit="10" d="M685.556,115.058
		c0,62.133-50.363,112.499-112.5,112.499c-62.135,0-112.5-50.365-112.5-112.499c0-62.137,50.365-112.501,112.5-112.501
		C635.192,2.557,685.556,52.921,685.556,115.058z"/>
</g>
</svg>
