<?xml version="1.0" encoding="utf-8"?>
<!-- Generator: Adobe Illustrator 16.0.3, SVG Export Plug-In . SVG Version: 6.00 Build 0)  -->
<!DOCTYPE svg PUBLIC "-//W3C//DTD SVG 1.1//EN" "http://www.w3.org/Graphics/SVG/1.1/DTD/svg11.dtd">
<svg version="1.1" id="Warstwa_1" xmlns="http://www.w3.org/2000/svg" xmlns:xlink="http://www.w3.org/1999/xlink" x="0px" y="0px"
	 width="390.064px" height="130.208px" viewBox="0 0 390.064 130.208" enable-background="new 0 0 390.064 130.208"
	 xml:space="preserve">
<g>
	<circle fill="#F15A24" cx="65.104" cy="65.104" r="62.5"/>
	<path fill="#C74B1E" d="M72.746,127.124c27.438-3.35,49.375-24.465,53.959-51.502L84.391,33.308l-8.127-3.255h-8.177l-7.448,7.448
		l-6.714-7.446h-6.104l-9.561,7.528v7.006l6.997,8.836l-5.015,5.682v26.356l11.629,11.631l-3.542,5.611L72.746,127.124z"/>
	
		<path fill="none" stroke="#FFFFFF" stroke-width="7.8125" stroke-linecap="round" stroke-linejoin="round" stroke-miterlimit="10" d="
		M81.158,81.594c0,1.052-0.852,1.904-1.901,1.904H43.14c-1.05,0-1.902-0.854-1.902-1.904V59.568c0-1.048,0.852-1.903,1.902-1.903
		h36.116c1.05,0,1.901,0.854,1.901,1.903L81.158,81.594L81.158,81.594z"/>
	
		<circle fill="none" stroke="#FFFFFF" stroke-width="7.8125" stroke-linecap="round" stroke-linejoin="round" stroke-miterlimit="10" cx="49.601" cy="42.163" r="11.597"/>
	
		<circle fill="none" stroke="#FFFFFF" stroke-width="7.8125" stroke-linecap="round" stroke-linejoin="round" stroke-miterlimit="10" cx="72.794" cy="42.163" r="11.597"/>
	
		<polygon fill="none" stroke="#FFFFFF" stroke-width="7.8125" stroke-linecap="round" stroke-linejoin="round" stroke-miterlimit="10" points="
		99.511,53.425 82.352,70.583 99.511,87.747 	"/>
	
		<polyline fill="none" stroke="#FFFFFF" stroke-width="7.8125" stroke-linecap="round" stroke-linejoin="round" stroke-miterlimit="10" points="
		71.892,101.233 61.198,84.075 50.5,101.233 	"/>
	<circle fill="none" stroke="#FFFFFF" stroke-width="5.2083" stroke-miterlimit="10" cx="65.104" cy="65.104" r="62.5"/>
</g>
<g>
	<circle fill="#1B1464" cx="195.064" cy="65.104" r="62.5"/>
	
		<path fill="none" stroke="#FFFFFF" stroke-width="7.8125" stroke-linecap="round" stroke-linejoin="round" stroke-miterlimit="10" d="
		M211.118,81.594c0,1.052-0.852,1.904-1.901,1.904h-36.116c-1.05,0-1.902-0.854-1.902-1.904V59.569c0-1.049,0.852-1.903,1.902-1.903
		h36.116c1.051,0,1.901,0.854,1.901,1.903V81.594z"/>
	
		<circle fill="none" stroke="#FFFFFF" stroke-width="7.8125" stroke-linecap="round" stroke-linejoin="round" stroke-miterlimit="10" cx="179.562" cy="42.163" r="11.597"/>
	
		<circle fill="none" stroke="#FFFFFF" stroke-width="7.8125" stroke-linecap="round" stroke-linejoin="round" stroke-miterlimit="10" cx="202.755" cy="42.163" r="11.596"/>
	
		<polygon fill="none" stroke="#FFFFFF" stroke-width="7.8125" stroke-linecap="round" stroke-linejoin="round" stroke-miterlimit="10" points="
		229.472,53.425 212.312,70.584 229.472,87.747 	"/>
	
		<polyline fill="none" stroke="#FFFFFF" stroke-width="7.8125" stroke-linecap="round" stroke-linejoin="round" stroke-miterlimit="10" points="
		201.853,101.233 191.158,84.075 180.46,101.233 	"/>
	<circle fill="none" stroke="#FFFFFF" stroke-width="5" stroke-miterlimit="10" cx="195.064" cy="65.104" r="62.5"/>
</g>
<g>
	<circle fill="#FFFFFF" cx="325.064" cy="65.104" r="62.5"/>
	
		<path fill="none" stroke="#1B1464" stroke-width="7.8125" stroke-linecap="round" stroke-linejoin="round" stroke-miterlimit="10" d="
		M341.119,81.594c0,1.052-0.852,1.904-1.901,1.904h-36.115c-1.051,0-1.901-0.854-1.901-1.904V59.569
		c0-1.049,0.852-1.903,1.901-1.903h36.115c1.051,0,1.901,0.854,1.901,1.903V81.594z"/>
	
		<circle fill="none" stroke="#1B1464" stroke-width="7.8125" stroke-linecap="round" stroke-linejoin="round" stroke-miterlimit="10" cx="309.562" cy="42.163" r="11.597"/>
	
		<circle fill="none" stroke="#1B1464" stroke-width="7.8125" stroke-linecap="round" stroke-linejoin="round" stroke-miterlimit="10" cx="332.756" cy="42.163" r="11.597"/>
	
		<polygon fill="none" stroke="#1B1464" stroke-width="7.8125" stroke-linecap="round" stroke-linejoin="round" stroke-miterlimit="10" points="
		359.472,53.425 342.313,70.584 359.472,87.747 	"/>
	
		<polyline fill="none" stroke="#1B1464" stroke-width="7.8125" stroke-linecap="round" stroke-linejoin="round" stroke-miterlimit="10" points="
		331.854,101.233 321.158,84.075 310.462,101.233 	"/>
	<circle fill="none" stroke="#FFFFFF" stroke-width="5" stroke-miterlimit="10" cx="325.064" cy="65.104" r="62.5"/>
</g>
</svg>
