<?xml version="1.0" encoding="utf-8"?>
<!-- Generator: Adobe Illustrator 16.0.3, SVG Export Plug-In . SVG Version: 6.00 Build 0)  -->
<!DOCTYPE svg PUBLIC "-//W3C//DTD SVG 1.1//EN" "http://www.w3.org/Graphics/SVG/1.1/DTD/svg11.dtd">
<svg version="1.1" id="Warstwa_1" xmlns="http://www.w3.org/2000/svg" xmlns:xlink="http://www.w3.org/1999/xlink" x="0px" y="0px"
	 width="221.746px" height="73.998px" viewBox="0.5 0.377 221.746 73.998" enable-background="new 0.5 0.377 221.746 73.998"
	 xml:space="preserve">
<g>
	<circle fill="#F15A24" cx="37.5" cy="37.376" r="34.499"/>
	<path fill="#C74B1E" d="M41.719,71.609c15.146-1.85,27.255-13.504,29.785-28.429L48.147,19.826l-4.486-1.797h-4.514l-4.111,4.11
		l-3.707-4.109H27.96l-5.278,4.155v3.867l3.862,4.876l-2.768,3.137v14.548l6.419,6.42l-1.956,3.098L41.719,71.609z"/>
	
		<path fill="none" stroke="#FFFFFF" stroke-width="4.3125" stroke-linecap="round" stroke-linejoin="round" stroke-miterlimit="10" d="
		M46.362,46.479c0,0.581-0.47,1.051-1.05,1.051H25.376c-0.58,0-1.05-0.472-1.05-1.051V34.32c0-0.579,0.47-1.051,1.05-1.051h19.936
		c0.58,0,1.05,0.472,1.05,1.051V46.479L46.362,46.479z"/>
	
		<circle fill="none" stroke="#FFFFFF" stroke-width="4.3125" stroke-linecap="round" stroke-linejoin="round" stroke-miterlimit="10" cx="28.943" cy="24.712" r="6.401"/>
	
		<circle fill="none" stroke="#FFFFFF" stroke-width="4.3125" stroke-linecap="round" stroke-linejoin="round" stroke-miterlimit="10" cx="41.745" cy="24.712" r="6.401"/>
	
		<polygon fill="none" stroke="#FFFFFF" stroke-width="4.3125" stroke-linecap="round" stroke-linejoin="round" stroke-miterlimit="10" points="
		56.493,30.928 47.021,40.4 56.493,49.875 	"/>
	
		<polyline fill="none" stroke="#FFFFFF" stroke-width="4.3125" stroke-linecap="round" stroke-linejoin="round" stroke-miterlimit="10" points="
		41.247,57.318 35.344,47.848 29.439,57.318 	"/>
	<circle fill="none" stroke="#FFFFFF" stroke-width="5" stroke-miterlimit="10" cx="37.5" cy="37.376" r="34.499"/>
</g>
<g>
	<circle fill="#1B1464" cx="111.429" cy="37.376" r="34.499"/>
	
		<path fill="none" stroke="#FFFFFF" stroke-width="4.3125" stroke-linecap="round" stroke-linejoin="round" stroke-miterlimit="10" d="
		M120.291,46.479c0,0.581-0.471,1.051-1.051,1.051H99.304c-0.58,0-1.05-0.472-1.05-1.051V34.32c0-0.579,0.47-1.05,1.05-1.05h19.936
		c0.582,0,1.051,0.471,1.051,1.05V46.479z"/>
	
		<circle fill="none" stroke="#FFFFFF" stroke-width="4.3125" stroke-linecap="round" stroke-linejoin="round" stroke-miterlimit="10" cx="102.871" cy="24.712" r="6.401"/>
	
		<circle fill="none" stroke="#FFFFFF" stroke-width="4.3125" stroke-linecap="round" stroke-linejoin="round" stroke-miterlimit="10" cx="115.673" cy="24.712" r="6.4"/>
	
		<polygon fill="none" stroke="#FFFFFF" stroke-width="4.3125" stroke-linecap="round" stroke-linejoin="round" stroke-miterlimit="10" points="
		130.421,30.928 120.949,40.4 130.421,49.875 	"/>
	
		<polyline fill="none" stroke="#FFFFFF" stroke-width="4.3125" stroke-linecap="round" stroke-linejoin="round" stroke-miterlimit="10" points="
		115.175,57.318 109.272,47.848 103.366,57.318 	"/>
	<circle fill="none" stroke="#FFFFFF" stroke-width="5" stroke-miterlimit="10" cx="111.429" cy="37.376" r="34.499"/>
</g>
<g>
	<circle fill="#FFFFFF" cx="185.246" cy="37.376" r="34.499"/>
	
		<path fill="none" stroke="#1B1464" stroke-width="4.3125" stroke-linecap="round" stroke-linejoin="round" stroke-miterlimit="10" d="
		M194.107,46.479c0,0.581-0.471,1.051-1.051,1.051h-19.934c-0.58,0-1.051-0.472-1.051-1.051V34.32c0-0.579,0.473-1.05,1.051-1.05
		h19.936c0.58,0,1.049,0.471,1.049,1.05V46.479L194.107,46.479z"/>
	
		<circle fill="none" stroke="#1B1464" stroke-width="4.3125" stroke-linecap="round" stroke-linejoin="round" stroke-miterlimit="10" cx="176.687" cy="24.712" r="6.401"/>
	
		<circle fill="none" stroke="#1B1464" stroke-width="4.3125" stroke-linecap="round" stroke-linejoin="round" stroke-miterlimit="10" cx="189.49" cy="24.712" r="6.401"/>
	
		<polygon fill="none" stroke="#1B1464" stroke-width="4.3125" stroke-linecap="round" stroke-linejoin="round" stroke-miterlimit="10" points="
		204.238,30.928 194.765,40.4 204.238,49.875 	"/>
	
		<polyline fill="none" stroke="#1B1464" stroke-width="4.3125" stroke-linecap="round" stroke-linejoin="round" stroke-miterlimit="10" points="
		188.992,57.318 183.089,47.848 177.183,57.318 	"/>
	<circle fill="none" stroke="#FFFFFF" stroke-width="5" stroke-miterlimit="10" cx="185.246" cy="37.376" r="34.499"/>
</g>
</svg>
