<?xml version="1.0" encoding="utf-8"?>
<!-- Generator: Adobe Illustrator 19.0.1, SVG Export Plug-In . SVG Version: 6.00 Build 0)  -->
<svg version="1.1" xmlns="http://www.w3.org/2000/svg" xmlns:xlink="http://www.w3.org/1999/xlink" x="0px" y="0px"
	 viewBox="-168.4 405.3 214.2 71.4" style="enable-background:new -168.4 405.3 214.2 71.4;" xml:space="preserve">
<style type="text/css">
	.st0{fill:#50CC8E;}
	.st1{fill:#3CA06E;}
	.st2{fill:#FFFFFF;}
	.st3{fill:#1B1464;}
</style>
<g id="Warstwa_1">
</g>
<g id="Warstwa_2_1_">
	<g>
		<g>
			<g>
				<g>
					<path class="st0" d="M-132.7,408.9c-17.7,0-32.1,14.4-32.1,32.1c0,17.7,14.4,32.1,32.1,32.1c17.7,0,32.1-14.4,32.1-32.1
						C-100.6,423.3-115,408.9-132.7,408.9z"/>
					<path class="st1" d="M-123.9,471.8c11.1-3.2,19.7-12.1,22.4-23.3l-9.5-9.5l-23.6,6.6l-19.8-6.6l11,11l-0.5,1.9L-123.9,471.8z"
						/>
					<polygon class="st2" points="-154.4,438.9 -133,447.4 -111.6,438.9 -133,430.2 					"/>
					<g>
						<path class="st2" d="M-132.6,449.8c-0.1,0.1-0.3,0.1-0.4,0.1c-0.1,0-0.3,0-0.4-0.1l-11.4-4.6v4.5c0,2.7,5.3,4.8,11.8,4.8
							s11.8-2.2,11.8-4.8v-4.5L-132.6,449.8z"/>
					</g>
				</g>
			</g>
			<path class="st1" d="M-132.7,405.3c-19.7,0-35.7,16-35.7,35.7c0,19.7,16,35.7,35.7,35.7c19.7,0,35.7-16,35.7-35.7
				C-97,421.3-113,405.3-132.7,405.3z M-132.7,473.1c-17.7,0-32.1-14.4-32.1-32.1c0-17.7,14.4-32.1,32.1-32.1s32.1,14.4,32.1,32.1
				C-100.6,458.7-115,473.1-132.7,473.1z"/>
		</g>
		<g>
			<g>
				<g>
					<path class="st2" d="M-61.3,408.8c-17.7,0-32.1,14.4-32.1,32.1c0,17.7,14.4,32.1,32.1,32.1c17.7,0,32.1-14.4,32.1-32.1
						C-29.2,423.2-43.6,408.8-61.3,408.8z"/>
					<polygon class="st3" points="-83,438.8 -61.6,447.4 -40.2,438.8 -61.6,430.2 					"/>
					<g>
						<path class="st3" d="M-61.2,449.8c-0.1,0.1-0.3,0.1-0.4,0.1c-0.1,0-0.3,0-0.4-0.1l-11.4-4.6v4.5c0,2.7,5.3,4.8,11.8,4.8
							s11.8-2.2,11.8-4.8v-4.5L-61.2,449.8z"/>
					</g>
				</g>
			</g>
			<path class="st3" d="M-61.3,405.3c-19.7,0-35.7,16-35.7,35.7c0,19.7,16,35.7,35.7,35.7c19.7,0,35.7-16,35.7-35.7
				C-25.6,421.3-41.6,405.3-61.3,405.3z M-61.3,473.1c-17.7,0-32.1-14.4-32.1-32.1c0-17.7,14.4-32.1,32.1-32.1s32.1,14.4,32.1,32.1
				C-29.2,458.7-43.6,473.1-61.3,473.1z"/>
		</g>
		<g>
			<g>
				<g>
					<path class="st3" d="M10.1,408.8c-17.7,0-32.1,14.4-32.1,32.1c0,17.7,14.4,32.1,32.1,32.1c17.7,0,32.1-14.4,32.1-32.1
						C42.2,423.2,27.8,408.8,10.1,408.8z"/>
					<polygon class="st2" points="-11.6,438.8 9.8,447.4 31.2,438.8 9.8,430.2 					"/>
					<g>
						<path class="st2" d="M10.2,449.8c-0.1,0.1-0.3,0.1-0.4,0.1c-0.1,0-0.3,0-0.4-0.1L-2,445.2v4.5c0,2.7,5.3,4.8,11.8,4.8
							s11.8-2.2,11.8-4.8v-4.5L10.2,449.8z"/>
					</g>
				</g>
			</g>
			<path class="st2" d="M10.1,405.3c-19.7,0-35.7,16-35.7,35.7c0,19.7,16,35.7,35.7,35.7c19.7,0,35.7-16,35.7-35.7
				C45.8,421.3,29.8,405.3,10.1,405.3z M10.1,473.1C-7.6,473.1-22,458.7-22,441c0-17.7,14.4-32.1,32.1-32.1s32.1,14.4,32.1,32.1
				C42.2,458.7,27.8,473.1,10.1,473.1z"/>
		</g>
	</g>
</g>
</svg>
