<?xml version="1.0" encoding="utf-8"?>
<!-- Generator: Adobe Illustrator 19.1.0, SVG Export Plug-In . SVG Version: 6.00 Build 0)  -->
<svg version="1.1" id="Warstwa_1" xmlns="http://www.w3.org/2000/svg" xmlns:xlink="http://www.w3.org/1999/xlink" x="0px" y="0px"
	 viewBox="-175 363.2 500.7 125.2" style="enable-background:new -175 363.2 500.7 125.2;" xml:space="preserve">
<style type="text/css">
	.st0{fill:#67A3C6;stroke:#FFFFFF;stroke-width:5.2174;stroke-miterlimit:10;}
	.st1{fill:#67A3C6;}
	.st2{fill:#51809B;}
	.st3{fill:none;stroke:#FFFFFF;stroke-width:4.3697;stroke-linecap:round;stroke-linejoin:round;stroke-miterlimit:10;}
	.st4{fill:#1B1464;}
	.st5{fill:none;stroke:#FFFFFF;stroke-width:5.2174;stroke-miterlimit:10;}
	.st6{fill:#FFFFFF;}
	.st7{fill:none;stroke:#FFFFFF;stroke-width:5.6;stroke-linecap:round;stroke-linejoin:round;stroke-miterlimit:10;}
	.st8{fill:none;stroke:#FFFFFF;stroke-width:5.8955;stroke-linecap:round;stroke-linejoin:round;stroke-miterlimit:10;}
	.st9{fill:none;stroke:#1B1464;stroke-width:4.3697;stroke-linecap:round;stroke-linejoin:round;stroke-miterlimit:10;}
	.st10{fill:none;stroke:#1B1464;stroke-width:5.6;stroke-linecap:round;stroke-linejoin:round;stroke-miterlimit:10;}
	.st11{fill:none;stroke:#1B1464;stroke-width:5.8955;stroke-linecap:round;stroke-linejoin:round;stroke-miterlimit:10;}
</style>
<g>
	<circle class="st0" cx="-112.4" cy="425.8" r="60"/>
</g>
<circle class="st1" cx="13.1" cy="425.8" r="60"/>
<path class="st2" d="M72.2,429c0.1-0.5,0.8-0.2,0.8-0.8L32,387.3l-2.6,3.5l-7.7-7.7l-3.6,3.3l-3.6-3.6l-2.9,19.2l-14.8-14.8
	L-3.9,399l0.1,1.4l-8.2-0.9l-4,0.9l16.4,16.4l-20.8,1.5l3,3l-3,3.7l8,8l-3.6,2.5l45.9,45.9c0.5,0,17.3-7.2,17.8-7.2
	C65.3,453.4,64.9,456,72.2,429z"/>
<g>
	<line class="st3" x1="13.1" y1="384.4" x2="13.1" y2="448.7"/>
	<line class="st3" x1="45.2" y1="416.6" x2="-19" y2="416.6"/>
	<line class="st3" x1="29.8" y1="433.2" x2="-3.6" y2="399.9"/>
	<line class="st3" x1="-3.6" y1="433.2" x2="29.8" y2="399.9"/>
	<g>
		<polyline class="st3" points="20.1,396.9 13.1,403.9 6.1,396.9 		"/>
		<polyline class="st3" points="20.1,384.7 13.1,391.7 6.1,384.7 		"/>
	</g>
	<g>
		<polyline class="st3" points="-4.4,389.1 -4.4,399 -14.4,399 		"/>
	</g>
	<g>
		<polyline class="st3" points="-6.6,409.5 0.4,416.6 -6.6,423.6 		"/>
		<polyline class="st3" points="-18.7,409.5 -11.7,416.6 -18.7,423.6 		"/>
	</g>
	<g>
		<polyline class="st3" points="-14.4,434.1 -4.4,434.1 -4.4,444 		"/>
	</g>
	<g>
		<polyline class="st3" points="6.1,436.2 13.1,429.2 20.1,436.2 		"/>
		<polyline class="st3" points="6.1,448.4 13.1,441.4 20.1,448.4 		"/>
	</g>
	<g>
		<polyline class="st3" points="30.7,444 30.7,434.1 40.6,434.1 		"/>
	</g>
	<g>
		<polyline class="st3" points="32.8,423.6 25.8,416.6 32.8,409.5 		"/>
		<polyline class="st3" points="45,423.6 37.9,416.6 45,409.5 		"/>
	</g>
	<g>
		<polyline class="st3" points="40.6,399 30.7,399 30.7,389.1 		"/>
	</g>
</g>
<g>
	<circle class="st4" cx="138.1" cy="426.8" r="60"/>
	<circle class="st5" cx="138.1" cy="426.8" r="60"/>
</g>
<g>
	<circle class="st6" cx="263.1" cy="425.8" r="60"/>
	<circle class="st5" cx="263.1" cy="425.8" r="60"/>
</g>
<path class="st2" d="M-24.1,456.7L2.2,483c0,0,19.4,1.4,27.1-1.1s26.2-14.2,28.2-17.3c2-3.2-18.8-6.8-18.8-6.8l-22.9,13.5
	l-24.7-10.7L-24.1,456.7z"/>
<polygon class="st2" points="49.7,452.1 59.3,461.8 56.1,466 37.9,464.9 40.6,457.7 "/>
<g>
	<g>
		<path class="st7" d="M10.7,471.9h4.9c0,0,0.3-2.6,3.5-4.4"/>
		<path class="st7" d="M15.5,471.9h-4.9c0,0-0.3-2.6-3.5-4.4"/>
	</g>
	<g>
		<path class="st8" d="M-21.9,454.8c10.9,2.4,22.8,9,29.5,13c3.4,2,5.4,3.4,5.4,3.4"/>
		<path class="st8" d="M48.1,454.8c-16.3,3.7-35,16.5-35,16.5"/>
	</g>
</g>
<g>
	<line class="st3" x1="138.1" y1="385.4" x2="138.1" y2="449.7"/>
	<line class="st3" x1="170.2" y1="417.6" x2="106" y2="417.6"/>
	<line class="st3" x1="154.8" y1="434.2" x2="121.4" y2="400.9"/>
	<line class="st3" x1="121.4" y1="434.2" x2="154.8" y2="400.9"/>
	<g>
		<polyline class="st3" points="145.1,397.9 138.1,404.9 131.1,397.9 		"/>
		<polyline class="st3" points="145.1,385.7 138.1,392.7 131.1,385.7 		"/>
	</g>
	<g>
		<polyline class="st3" points="120.6,390.1 120.6,400 110.6,400 		"/>
	</g>
	<g>
		<polyline class="st3" points="118.4,410.5 125.4,417.6 118.4,424.6 		"/>
		<polyline class="st3" points="106.3,410.5 113.3,417.6 106.3,424.6 		"/>
	</g>
	<g>
		<polyline class="st3" points="110.6,435.1 120.6,435.1 120.6,445 		"/>
	</g>
	<g>
		<polyline class="st3" points="131.1,437.2 138.1,430.2 145.1,437.2 		"/>
		<polyline class="st3" points="131.1,449.4 138.1,442.4 145.1,449.4 		"/>
	</g>
	<g>
		<polyline class="st3" points="155.7,445 155.7,435.1 165.6,435.1 		"/>
	</g>
	<g>
		<polyline class="st3" points="157.8,424.6 150.8,417.6 157.8,410.5 		"/>
		<polyline class="st3" points="170,424.6 162.9,417.6 170,410.5 		"/>
	</g>
	<g>
		<polyline class="st3" points="165.6,400 155.7,400 155.7,390.1 		"/>
	</g>
</g>
<g>
	<g>
		<path class="st7" d="M135.7,472.9h4.9c0,0,0.3-2.6,3.5-4.4"/>
		<path class="st7" d="M140.5,472.9h-4.9c0,0-0.3-2.6-3.5-4.4"/>
	</g>
	<g>
		<path class="st8" d="M103.1,455.8c10.9,2.4,22.8,9,29.5,13c3.4,2,5.4,3.4,5.4,3.4"/>
		<path class="st8" d="M173.1,455.8c-16.3,3.7-35,16.5-35,16.5"/>
	</g>
</g>
<g>
	<line class="st9" x1="263.1" y1="385.4" x2="263.1" y2="449.7"/>
	<line class="st9" x1="295.2" y1="417.6" x2="231" y2="417.6"/>
	<line class="st9" x1="279.8" y1="434.2" x2="246.4" y2="400.9"/>
	<line class="st9" x1="246.4" y1="434.2" x2="279.8" y2="400.9"/>
	<g>
		<polyline class="st9" points="270.1,397.9 263.1,404.9 256.1,397.9 		"/>
		<polyline class="st9" points="270.1,385.7 263.1,392.7 256.1,385.7 		"/>
	</g>
	<g>
		<polyline class="st9" points="245.6,390.1 245.6,400 235.6,400 		"/>
	</g>
	<g>
		<polyline class="st9" points="243.4,410.5 250.4,417.6 243.4,424.6 		"/>
		<polyline class="st9" points="231.3,410.5 238.3,417.6 231.3,424.6 		"/>
	</g>
	<g>
		<polyline class="st9" points="235.6,435.1 245.6,435.1 245.6,445 		"/>
	</g>
	<g>
		<polyline class="st9" points="256.1,437.2 263.1,430.2 270.1,437.2 		"/>
		<polyline class="st9" points="256.1,449.4 263.1,442.4 270.1,449.4 		"/>
	</g>
	<g>
		<polyline class="st9" points="280.7,445 280.7,435.1 290.6,435.1 		"/>
	</g>
	<g>
		<polyline class="st9" points="282.8,424.6 275.8,417.6 282.8,410.5 		"/>
		<polyline class="st9" points="295,424.6 287.9,417.6 295,410.5 		"/>
	</g>
	<g>
		<polyline class="st9" points="290.6,400 280.7,400 280.7,390.1 		"/>
	</g>
</g>
<g>
	<g>
		<path class="st10" d="M260.7,472.9h4.9c0,0,0.3-2.6,3.5-4.4"/>
		<path class="st10" d="M265.5,472.9h-4.9c0,0-0.3-2.6-3.5-4.4"/>
	</g>
	<g>
		<path class="st11" d="M228.1,455.8c10.9,2.4,22.8,9,29.5,13c3.4,2,5.4,3.4,5.4,3.4"/>
		<path class="st11" d="M298.1,455.8c-16.3,3.7-35,16.5-35,16.5"/>
	</g>
</g>
<circle class="st5" cx="13.1" cy="425.8" r="60"/>
</svg>
