<?xml version="1.0" encoding="utf-8"?>
<!-- Generator: Adobe Illustrator 19.1.0, SVG Export Plug-In . SVG Version: 6.00 Build 0)  -->
<svg version="1.1" id="Warstwa_1" xmlns="http://www.w3.org/2000/svg" xmlns:xlink="http://www.w3.org/1999/xlink" x="0px" y="0px"
	 viewBox="-175 363.2 500.2 125.2" style="enable-background:new -175 363.2 500.2 125.2;" xml:space="preserve">
<style type="text/css">
	.st0{fill:#F15A24;stroke:#FFFFFF;stroke-width:5.2174;stroke-miterlimit:10;}
	.st1{fill:#F15A24;}
	.st2{fill:#C74B1E;}
	.st3{fill:none;stroke:#FFFFFF;stroke-width:4.3078;stroke-linecap:round;stroke-linejoin:round;stroke-miterlimit:10;}
	.st4{fill:#1B1464;}
	.st5{fill:#FFFFFF;}
	.st6{fill:none;stroke:#FFFFFF;stroke-width:5.2174;stroke-miterlimit:10;}
	.st7{fill:none;stroke:#FFFFFF;stroke-width:5.6;stroke-linecap:round;stroke-linejoin:round;stroke-miterlimit:10;}
	.st8{fill:none;stroke:#FFFFFF;stroke-width:5.8955;stroke-linecap:round;stroke-linejoin:round;stroke-miterlimit:10;}
	.st9{fill:none;stroke:#1B1464;stroke-width:4.3078;stroke-linecap:round;stroke-linejoin:round;stroke-miterlimit:10;}
	.st10{fill:none;stroke:#1B1464;stroke-width:5.6;stroke-linecap:round;stroke-linejoin:round;stroke-miterlimit:10;}
	.st11{fill:none;stroke:#1B1464;stroke-width:5.8955;stroke-linecap:round;stroke-linejoin:round;stroke-miterlimit:10;}
</style>
<g id="Warstwa_2">
</g>
<g>
	<circle class="st0" cx="-111.9" cy="426" r="60"/>
</g>
<g>
	<circle class="st1" cx="13.1" cy="426" r="60"/>
	<path class="st2" d="M71,428.3c0-1.3-0.1-2.6-0.2-3.9L29.3,383l-5.4,11.2l-16,0.5l-10.1,9.1l-4.2,12.2l-0.9,16.7l1.9,16.9
		l27.9,27.9c2,0.3,3.9,0.4,6,0.4C53.8,477.7,71,453.7,71,428.3z"/>
	<path class="st3" d="M18.1,393.5c12.1,1.4,21.4,12.4,10.8,27.6C21,432.5,2,432.1-3.7,448.1C-10.6,431.5-10,390.4,18.1,393.5z"/>
	<path class="st3" d="M27.8,384.7c0,0-2.2,14.2-16.4,26.8c-7.6,6.9-10.5,13.8-10.5,13.8"/>
	<line class="st3" x1="16.5" y1="406.3" x2="20.5" y2="415.9"/>
	<line class="st3" x1="10.7" y1="412.1" x2="2.5" y2="412.1"/>
	<line class="st3" x1="3.7" y1="420.4" x2="7.9" y2="427.5"/>
</g>
<g>
	<circle class="st4" cx="138.1" cy="426" r="60"/>
</g>
<g>
	<circle class="st5" cx="263.1" cy="426" r="60"/>
	<circle class="st6" cx="263.1" cy="426" r="60"/>
</g>
<path class="st2" d="M-24.1,457.7L2.2,484c0,0,19.4,1.4,27.1-1.1s26.2-14.2,28.2-17.3c2-3.2-18.8-6.8-18.8-6.8l-22.9,13.5
	l-24.7-10.7L-24.1,457.7z"/>
<g>
	<g>
		<path class="st7" d="M10.7,472.9h4.9c0,0,0.3-2.6,3.5-4.4"/>
		<path class="st7" d="M15.5,472.9h-4.9c0,0-0.3-2.6-3.5-4.4"/>
	</g>
	<g>
		<path class="st8" d="M-21.9,455.8c10.9,2.4,22.8,9,29.5,13c3.4,2,5.4,3.4,5.4,3.4"/>
		<path class="st8" d="M48.1,455.8c-16.3,3.7-35,16.5-35,16.5"/>
	</g>
</g>
<circle class="st6" cx="13.1" cy="426" r="60"/>
<g>
	<g>
		<path class="st9" d="M268.1,393.5c12.1,1.4,21.4,12.4,10.8,27.6c-7.9,11.3-26.9,10.9-32.6,26.9C239.4,431.5,240,390.4,268.1,393.5
			z"/>
		<path class="st9" d="M277.8,384.7c0,0-2.2,14.2-16.4,26.8c-7.6,6.9-10.5,13.8-10.5,13.8"/>
		<line class="st9" x1="266.5" y1="406.3" x2="270.5" y2="415.9"/>
		<line class="st9" x1="260.7" y1="412.1" x2="252.5" y2="412.1"/>
		<line class="st9" x1="253.7" y1="420.4" x2="257.9" y2="427.5"/>
	</g>
	<g>
		<g>
			<path class="st10" d="M260.7,472.9h4.9c0,0,0.3-2.6,3.5-4.4"/>
			<path class="st10" d="M265.5,472.9h-4.9c0,0-0.3-2.6-3.5-4.4"/>
		</g>
		<g>
			<path class="st11" d="M228.1,455.8c10.9,2.4,22.8,9,29.5,13c3.4,2,5.4,3.4,5.4,3.4"/>
			<path class="st11" d="M298.1,455.8c-16.3,3.7-35,16.5-35,16.5"/>
		</g>
	</g>
</g>
<g>
	<path class="st3" d="M143.1,393.5c12.1,1.4,21.4,12.4,10.8,27.6c-7.9,11.3-26.9,10.9-32.6,26.9C114.4,431.5,115,390.4,143.1,393.5z
		"/>
	<path class="st3" d="M152.8,384.7c0,0-2.2,14.2-16.4,26.8c-7.6,6.9-10.5,13.8-10.5,13.8"/>
	<line class="st3" x1="141.5" y1="406.3" x2="145.5" y2="415.9"/>
	<line class="st3" x1="135.7" y1="412.1" x2="127.5" y2="412.1"/>
	<line class="st3" x1="128.7" y1="420.4" x2="132.9" y2="427.5"/>
</g>
<g>
	<g>
		<path class="st7" d="M135.7,472.9h4.9c0,0,0.3-2.6,3.5-4.4"/>
		<path class="st7" d="M140.5,472.9h-4.9c0,0-0.3-2.6-3.5-4.4"/>
	</g>
	<g>
		<path class="st8" d="M103.1,455.8c10.9,2.4,22.8,9,29.5,13c3.4,2,5.4,3.4,5.4,3.4"/>
		<path class="st8" d="M173.1,455.8c-16.3,3.7-35,16.5-35,16.5"/>
	</g>
</g>
<circle class="st6" cx="138.1" cy="426" r="60"/>
</svg>
