<?xml version="1.0" encoding="utf-8"?>
<!-- Generator: Adobe Illustrator 19.1.0, SVG Export Plug-In . SVG Version: 6.00 Build 0)  -->
<svg version="1.1" id="Warstwa_1" xmlns="http://www.w3.org/2000/svg" xmlns:xlink="http://www.w3.org/1999/xlink" x="0px" y="0px"
	 viewBox="-322 547.1 206.8 69" style="enable-background:new -322 547.1 206.8 69;" xml:space="preserve">
<style type="text/css">
	.st0{fill:#C83C78;}
	.st1{fill:#AA3264;}
	.st2{fill:#FFFFFF;}
	.st3{fill:none;stroke:#C83C78;stroke-width:2;stroke-linecap:round;stroke-linejoin:round;stroke-miterlimit:10;}
	.st4{fill:none;stroke:#FFFFFF;stroke-width:5;stroke-miterlimit:10;}
	.st5{fill:#1B1464;}
	.st6{fill:none;stroke:#1B1464;stroke-width:2;stroke-linecap:round;stroke-linejoin:round;stroke-miterlimit:10;}
	.st7{fill:none;stroke:#FFFFFF;stroke-width:2;stroke-linecap:round;stroke-linejoin:round;stroke-miterlimit:10;}
	.st8{fill:#67A3C6;stroke:#FFFFFF;stroke-width:2.7826;stroke-miterlimit:10;}
	.st9{fill:#67A3C6;}
	.st10{fill:#51809B;}
	.st11{fill:none;stroke:#FFFFFF;stroke-width:3;stroke-linecap:round;stroke-linejoin:round;stroke-miterlimit:10;}
	.st12{fill:none;stroke:#FFFFFF;stroke-width:2.7826;stroke-miterlimit:10;}
	.st13{fill:none;stroke:#1B1464;stroke-width:3;stroke-linecap:round;stroke-linejoin:round;stroke-miterlimit:10;}
</style>
<g>
	<circle class="st0" cx="-287.5" cy="581.6" r="32"/>
	<path class="st1" d="M-282.8,612.8c12.3-5.1,21.7-10.9,22.6-19.6l-24.9-25.1l-2.9,17.1l-2,7l-11.2,2.2L-282.8,612.8z"/>
	<circle class="st4" cx="-287.5" cy="581.6" r="32"/>
</g>
<g>
	<circle class="st5" cx="-218.7" cy="581.6" r="32"/>
	<circle class="st4" cx="-218.7" cy="581.6" r="32"/>
</g>
<g>
	<circle class="st2" cx="-149.7" cy="581.6" r="32"/>
	<circle class="st4" cx="-149.7" cy="581.6" r="32"/>
</g>
<path class="st1" d="M-278.9,601.8c12.3-5.1,5.8-5,6.7-13.7l-14.9-2.5l-10.2-2.2L-278.9,601.8z"/>
<g>
	<path class="st2" d="M-275.4,590.5h-10.4h-1.7h-12.1c-1.3,0-2.3,1-2.3,2.3s1,2.3,2.3,2.3h6.6h2.2h0h6.4h0h2.2h6.6
		c1.3,0,2.3-1,2.3-2.3S-274.2,590.5-275.4,590.5z"/>
	<path class="st2" d="M-296.5,584.1l5.8,3.1l2.1,1.1l0,0c0.3,0.1,0.6,0.2,1,0.2c0.4,0,0.7-0.1,1.1-0.3l0,0l1-0.6l1-0.5l5.8-3.1
		c1.1-0.6,1.6-2,1-3.1c-0.6-1.1-2-1.6-3.1-1l-4.2,2.2v-14.1h-5.1v14.1l-4.2-2.2c-1.1-0.6-2.5-0.2-3.1,1
		C-298,582.1-297.6,583.5-296.5,584.1z"/>
</g>
<g>
	<path class="st2" d="M-206.6,590.5H-217h-1.7h-12.1c-1.3,0-2.3,1-2.3,2.3s1,2.3,2.3,2.3h6.6h2.2h0h6.4h0h2.2h6.6
		c1.3,0,2.3-1,2.3-2.3S-205.4,590.5-206.6,590.5z"/>
	<path class="st2" d="M-227.7,584.1l5.8,3.1l2.1,1.1l0,0c0.3,0.1,0.6,0.2,1,0.2c0.4,0,0.7-0.1,1.1-0.3l0,0l1-0.6l1-0.5l5.8-3.1
		c1.1-0.6,1.6-2,1-3.1c-0.6-1.1-2-1.6-3.1-1l-4.2,2.2v-14.1h-5.1v14.1l-4.2-2.2c-1.1-0.6-2.5-0.2-3.1,1
		C-229.2,582.1-228.8,583.5-227.7,584.1z"/>
</g>
<g>
	<path class="st5" d="M-137.6,590.5H-148h-1.7h-12.1c-1.3,0-2.3,1-2.3,2.3s1,2.3,2.3,2.3h6.6h2.2h0h6.4h0h2.2h6.6
		c1.3,0,2.3-1,2.3-2.3S-136.4,590.5-137.6,590.5z"/>
	<path class="st5" d="M-158.7,584.1l5.8,3.1l2.1,1.1l0,0c0.3,0.1,0.6,0.2,1,0.2c0.4,0,0.7-0.1,1.1-0.3l0,0l1-0.6l1-0.5l5.8-3.1
		c1.1-0.6,1.6-2,1-3.1c-0.6-1.1-2-1.6-3.1-1l-4.2,2.2v-14.1h-5.1v14.1l-4.2-2.2c-1.1-0.6-2.5-0.2-3.1,1
		C-160.2,582.1-159.8,583.5-158.7,584.1z"/>
</g>
</svg>
