<?xml version="1.0" encoding="utf-8"?>
<!-- Generator: Adobe Illustrator 19.1.0, SVG Export Plug-In . SVG Version: 6.00 Build 0)  -->
<svg version="1.1" id="Warstwa_1" xmlns="http://www.w3.org/2000/svg" xmlns:xlink="http://www.w3.org/1999/xlink" x="0px" y="0px"
	 viewBox="-174 363.2 501.3 125.2" style="enable-background:new -174 363.2 501.3 125.2;" xml:space="preserve">
<style type="text/css">
	.st0{fill:#FFFFFF;}
	.st1{fill:none;stroke:#1B1464;stroke-width:1.875;stroke-miterlimit:10;}
	.st2{fill:none;stroke:#FFFFFF;stroke-width:5.2174;stroke-miterlimit:10;}
	.st3{fill:#349A68;stroke:#FFFFFF;stroke-width:5.2174;stroke-miterlimit:10;}
	.st4{fill:#349A68;}
	.st5{fill:#2C895C;}
	.st6{fill:#1B1464;}
	.st7{fill:none;stroke:#FFFFFF;stroke-width:5.6;stroke-linecap:round;stroke-linejoin:round;stroke-miterlimit:10;}
	.st8{fill:none;stroke:#FFFFFF;stroke-width:5.8955;stroke-linecap:round;stroke-linejoin:round;stroke-miterlimit:10;}
	.st9{fill:none;stroke:#FFFFFF;stroke-width:4.445;stroke-linecap:round;stroke-linejoin:round;stroke-miterlimit:10;}
	.st10{fill:none;stroke:#1B1464;stroke-width:5.6;stroke-linecap:round;stroke-linejoin:round;stroke-miterlimit:10;}
	.st11{fill:none;stroke:#1B1464;stroke-width:5.8955;stroke-linecap:round;stroke-linejoin:round;stroke-miterlimit:10;}
	.st12{fill:none;stroke:#1B1464;stroke-width:4.445;stroke-linecap:round;stroke-linejoin:round;stroke-miterlimit:10;}
</style>
<g>
	<path class="st0" d="M325.1,426c0,33.1-26.9,60-60,60c-33.1,0-60-26.9-60-60c0-33.1,26.9-60,60-60C298.2,366,325.1,392.9,325.1,426
		z"/>
	<g>
		<g>
			<path id="SVGID_7_" class="st1" d="M265.1,366"/>
		</g>
	</g>
	<path class="st2" d="M325.1,426c0,33.1-26.9,60-60,60c-33.1,0-60-26.9-60-60c0-33.1,26.9-60,60-60C298.2,366,325.1,392.9,325.1,426
		z"/>
</g>
<g>
	<circle class="st3" cx="-111" cy="426" r="60"/>
	<g>
		<g>
			<path id="SVGID_1_" class="st2" d="M-111,366"/>
		</g>
	</g>
</g>
<g>
	<circle class="st4" cx="14.1" cy="426" r="60"/>
	<g>
		<path class="st5" d="M12.9,451.6l23.9,23.9c21.3-4.6,37.3-23.6,37.3-46.3c0-1.1-19-19.2-19.1-20.2l-21.7-21.7h-8.9l-2.2-1
			c0,0-5.9-6.1-5.9-5.9l-5.8,6l-3.7,1.5l-8.5-0.5l-0.6,2.5l4.7,5.7l-1.9,7.3l0,6.5l4.3,3.9l6.1,3.3l2.7,2.5l-1.1,9L2.1,423l-3.4,1.7
			l0.7,6.4l4.3,6.2l9.8,3.9l-0.2,3.8L12.9,451.6z"/>
	</g>
</g>
<g>
	<circle class="st6" cx="139.1" cy="426" r="60"/>
	<circle class="st2" cx="139.1" cy="426" r="60"/>
</g>
<path class="st5" d="M-23.1,457.2l26.3,26.3c0,0,19.4,1.4,27.1-1.1s26.2-14.2,28.2-17.3s-18.8-6.8-18.8-6.8l-22.9,13.5l-24.7-10.7
	L-23.1,457.2z"/>
<g>
	<g>
		<path class="st7" d="M11.7,472.4h4.9c0,0,0.3-2.6,3.5-4.4"/>
		<path class="st7" d="M16.5,472.4h-4.9c0,0-0.3-2.6-3.5-4.4"/>
	</g>
	<g>
		<path class="st8" d="M-20.9,455.3c10.9,2.4,22.8,9,29.5,13c3.4,2,5.4,3.4,5.4,3.4"/>
		<path class="st8" d="M49.1,455.3c-16.3,3.7-35,16.5-35,16.5"/>
	</g>
</g>
<circle class="st2" cx="14.1" cy="426" r="60"/>
<path class="st9" d="M31.8,388.9c-1.6-2.5-8.8-4.4-13.5,1.7c0-6.4-4.2-9.2-4.2-9.2s-4.2,2.7-4.2,9.2c-4.6-6-11.8-4.1-13.5-1.7
	c4.4,2.9,6.3,5.5,3.7,13.2c-2.8,8.3,3.3,14,14,14s16.9-5.7,14-14C25.5,394.3,27.4,391.8,31.8,388.9z"/>
<line class="st9" x1="14.1" y1="416.1" x2="14.1" y2="449.6"/>
<path class="st9" d="M29.6,434.5c-18.3,0.1-15.3,15.3-15.3,15.3S29.5,452.9,29.6,434.5z"/>
<path class="st9" d="M-1.4,423.3c18.3,0.1,15.3,15.3,15.3,15.3S-1.3,441.6-1.4,423.3z"/>
<g>
	<g>
		<g>
			<path class="st7" d="M136.7,472.4h4.9c0,0,0.3-2.6,3.5-4.4"/>
			<path class="st7" d="M141.5,472.4h-4.9c0,0-0.3-2.6-3.5-4.4"/>
		</g>
		<g>
			<path class="st8" d="M104.1,455.3c10.9,2.4,22.8,9,29.5,13c3.4,2,5.4,3.4,5.4,3.4"/>
			<path class="st8" d="M174.1,455.3c-16.3,3.7-35,16.5-35,16.5"/>
		</g>
	</g>
	<path class="st9" d="M156.8,388.9c-1.6-2.5-8.8-4.4-13.5,1.7c0-6.4-4.2-9.2-4.2-9.2s-4.2,2.7-4.2,9.2c-4.6-6-11.8-4.1-13.5-1.7
		c4.4,2.9,6.3,5.5,3.7,13.2c-2.8,8.3,3.3,14,14,14s16.9-5.7,14-14C150.5,394.3,152.4,391.8,156.8,388.9z"/>
	<line class="st9" x1="139.1" y1="416.1" x2="139.1" y2="449.6"/>
	<path class="st9" d="M154.6,434.5c-18.3,0.1-15.3,15.3-15.3,15.3S154.5,452.9,154.6,434.5z"/>
	<path class="st9" d="M123.6,423.3c18.3,0.1,15.3,15.3,15.3,15.3S123.7,441.6,123.6,423.3z"/>
</g>
<g>
	<g>
		<g>
			<path class="st10" d="M262.7,472.4h4.9c0,0,0.3-2.6,3.5-4.4"/>
			<path class="st10" d="M267.5,472.4h-4.9c0,0-0.3-2.6-3.5-4.4"/>
		</g>
		<g>
			<path class="st11" d="M230.1,455.3c10.9,2.4,22.8,9,29.5,13c3.4,2,5.4,3.4,5.4,3.4"/>
			<path class="st11" d="M300.1,455.3c-16.3,3.7-35,16.5-35,16.5"/>
		</g>
	</g>
	<path class="st12" d="M282.8,388.9c-1.6-2.5-8.8-4.4-13.5,1.7c0-6.4-4.2-9.2-4.2-9.2s-4.2,2.7-4.2,9.2c-4.6-6-11.8-4.1-13.5-1.7
		c4.4,2.9,6.3,5.5,3.7,13.2c-2.8,8.3,3.3,14,14,14c10.8,0,16.9-5.7,14-14C276.5,394.3,278.4,391.8,282.8,388.9z"/>
	<line class="st12" x1="265.1" y1="416.1" x2="265.1" y2="449.6"/>
	<path class="st12" d="M280.6,434.5c-18.3,0.1-15.3,15.3-15.3,15.3S280.5,452.9,280.6,434.5z"/>
	<path class="st12" d="M249.6,423.3c18.3,0.1,15.3,15.3,15.3,15.3S249.7,441.6,249.6,423.3z"/>
</g>
</svg>
