<?xml version="1.0" encoding="utf-8"?>
<!-- Generator: Adobe Illustrator 19.1.0, SVG Export Plug-In . SVG Version: 6.00 Build 0)  -->
<svg version="1.1" xmlns="http://www.w3.org/2000/svg" xmlns:xlink="http://www.w3.org/1999/xlink" x="0px" y="0px"
	 viewBox="-175 363.2 500.3 125.2" style="enable-background:new -175 363.2 500.3 125.2;" xml:space="preserve">
<style type="text/css">
	.st0{fill:#FFFFFF;}
	.st1{fill:none;stroke:#FFFFFF;stroke-width:5.2174;stroke-miterlimit:10;}
	.st2{fill:#C83C78;stroke:#FFFFFF;stroke-width:5.2174;stroke-miterlimit:10;}
	.st3{fill:#C83C78;}
	.st4{fill:#AA3164;}
	.st5{fill:none;stroke:#FFFFFF;stroke-width:4.3761;stroke-linecap:round;stroke-linejoin:round;stroke-miterlimit:10;}
	.st6{fill:#1B1464;}
	.st7{fill:none;stroke:#FFFFFF;stroke-width:5.6;stroke-linecap:round;stroke-linejoin:round;stroke-miterlimit:10;}
	.st8{fill:none;stroke:#FFFFFF;stroke-width:5.8955;stroke-linecap:round;stroke-linejoin:round;stroke-miterlimit:10;}
	.st9{fill:none;stroke:#1B1464;stroke-width:4.3761;stroke-linecap:round;stroke-linejoin:round;stroke-miterlimit:10;}
	.st10{fill:none;stroke:#1B1464;stroke-width:5.6;stroke-linecap:round;stroke-linejoin:round;stroke-miterlimit:10;}
	.st11{fill:none;stroke:#1B1464;stroke-width:5.8955;stroke-linecap:round;stroke-linejoin:round;stroke-miterlimit:10;}
	.st12{display:none;}
	.st13{display:inline;}
	.st14{fill:none;stroke:#FFFFFF;stroke-width:4.3697;stroke-linecap:round;stroke-linejoin:round;stroke-miterlimit:10;}
</style>
<g id="Warstwa_1">
	<g>
		<circle class="st0" cx="263.1" cy="426" r="60"/>
		<circle class="st1" cx="263.1" cy="426" r="60"/>
	</g>
	<g>
		<circle class="st2" cx="-112" cy="426" r="60"/>
		<g>
			<g>
				<path id="SVGID_1_" class="st1" d="M-112,366"/>
			</g>
		</g>
	</g>
	<g>
		<circle class="st3" cx="13.1" cy="426" r="60"/>
		<path class="st4" d="M73.4,430.1c0.2-1,0-2.1-0.1-3.1l-34.8-34.8l-6.7,6.7l-15.9-15.9l-3.4,12.2l6.2,6.2L6,405.7l-6.6-6.6
			l-3.6,2.5l6.1,6.1l-4.2,12.7l-5.1-5.1l-12.4,3.1l16,16l-6.7,6.8l42.4,42.4c0.5,0,1-0.1,1.5-0.1C58.2,467.7,67.2,456.7,73.4,430.1z
			"/>
		<g>
			<path class="st5" d="M28.6,416.8c0,8.1-6.6,14.6-14.6,14.6c-8.1,0-14.6-6.6-14.6-14.6c0-8.1,6.6-14.6,14.6-14.6
				C22.1,402.1,28.6,408.7,28.6,416.8z"/>
			<line class="st5" x1="14" y1="393.7" x2="14" y2="384.3"/>
			<line class="st5" x1="-2.3" y1="400.5" x2="-8.9" y2="393.8"/>
			<line class="st5" x1="-9" y1="416.8" x2="-18.4" y2="416.8"/>
			<line class="st5" x1="-2.3" y1="433" x2="-8.9" y2="439.7"/>
			<line class="st5" x1="14" y1="439.8" x2="14" y2="449.2"/>
			<line class="st5" x1="30.3" y1="433" x2="36.9" y2="439.7"/>
			<line class="st5" x1="37" y1="416.8" x2="46.4" y2="416.8"/>
			<line class="st5" x1="30.3" y1="400.5" x2="36.9" y2="393.8"/>
		</g>
	</g>
	<g>
		<circle class="st6" cx="138.1" cy="426" r="60"/>
		<circle class="st1" cx="138.1" cy="426" r="60"/>
	</g>
	<path class="st4" d="M-24.1,456.7L2.2,483c0,0,19.4,1.4,27.1-1.1s26.2-14.2,28.2-17.3c2-3.2-18.8-6.8-18.8-6.8l-22.9,13.5
		l-24.7-10.7L-24.1,456.7z"/>
	<g>
		<g>
			<path class="st7" d="M10.7,471.9h4.9c0,0,0.3-2.6,3.5-4.4"/>
			<path class="st7" d="M15.5,471.9h-4.9c0,0-0.3-2.6-3.5-4.4"/>
		</g>
		<g>
			<path class="st8" d="M-21.9,454.8c10.9,2.4,22.8,9,29.5,13c3.4,2,5.4,3.4,5.4,3.4"/>
			<path class="st8" d="M48.1,454.8c-16.3,3.7-35,16.5-35,16.5"/>
		</g>
	</g>
	<circle class="st1" cx="13.1" cy="426" r="60"/>
	<circle class="st1" cx="137.9" cy="426" r="60"/>
	<g>
		<g>
			<path class="st9" d="M278.5,416.8c0,8.1-6.6,14.6-14.6,14.6c-8.1,0-14.6-6.6-14.6-14.6c0-8.1,6.6-14.6,14.6-14.6
				C271.9,402.1,278.5,408.7,278.5,416.8z"/>
			<line class="st9" x1="263.8" y1="393.7" x2="263.8" y2="384.3"/>
			<line class="st9" x1="247.5" y1="400.5" x2="240.9" y2="393.8"/>
			<line class="st9" x1="240.8" y1="416.8" x2="231.4" y2="416.8"/>
			<line class="st9" x1="247.5" y1="433" x2="240.9" y2="439.7"/>
			<line class="st9" x1="263.8" y1="439.8" x2="263.8" y2="449.2"/>
			<line class="st9" x1="280.1" y1="433" x2="286.8" y2="439.7"/>
			<line class="st9" x1="286.9" y1="416.8" x2="296.3" y2="416.8"/>
			<line class="st9" x1="280.1" y1="400.5" x2="286.8" y2="393.8"/>
		</g>
	</g>
	<g>
		<g>
			<path class="st10" d="M260.7,471.9h4.9c0,0,0.3-2.6,3.5-4.4"/>
			<path class="st10" d="M265.5,471.9h-4.9c0,0-0.3-2.6-3.5-4.4"/>
		</g>
		<g>
			<path class="st11" d="M228.1,454.8c10.9,2.4,22.8,9,29.5,13c3.4,2,5.4,3.4,5.4,3.4"/>
			<path class="st11" d="M298.1,454.8c-16.3,3.7-35,16.5-35,16.5"/>
		</g>
	</g>
	<g>
		<g>
			<path class="st5" d="M153.4,416.8c0,8.1-6.6,14.6-14.6,14.6c-8.1,0-14.6-6.6-14.6-14.6c0-8.1,6.6-14.6,14.6-14.6
				C146.9,402.1,153.4,408.7,153.4,416.8z"/>
			<line class="st5" x1="138.8" y1="393.7" x2="138.8" y2="384.3"/>
			<line class="st5" x1="122.5" y1="400.5" x2="115.9" y2="393.8"/>
			<line class="st5" x1="115.8" y1="416.8" x2="106.4" y2="416.8"/>
			<line class="st5" x1="122.5" y1="433" x2="115.9" y2="439.7"/>
			<line class="st5" x1="138.8" y1="439.8" x2="138.8" y2="449.2"/>
			<line class="st5" x1="155.1" y1="433" x2="161.7" y2="439.7"/>
			<line class="st5" x1="161.8" y1="416.8" x2="171.2" y2="416.8"/>
			<line class="st5" x1="155.1" y1="400.5" x2="161.7" y2="393.8"/>
		</g>
	</g>
	<g>
		<g>
			<path class="st7" d="M135.6,471.9h4.9c0,0,0.3-2.6,3.5-4.4"/>
			<path class="st7" d="M140.5,471.9h-4.9c0,0-0.3-2.6-3.5-4.4"/>
		</g>
		<g>
			<path class="st8" d="M103.1,454.8c10.9,2.4,22.8,9,29.5,13c3.4,2,5.4,3.4,5.4,3.4"/>
			<path class="st8" d="M173.1,454.8c-16.3,3.7-35,16.5-35,16.5"/>
		</g>
	</g>
</g>
<g id="Warstwa_2" class="st12">
	<g class="st13">
		<line class="st14" x1="13.1" y1="384.4" x2="13.1" y2="448.7"/>
		<line class="st14" x1="45.2" y1="416.6" x2="-19" y2="416.6"/>
		<line class="st14" x1="29.8" y1="433.2" x2="-3.6" y2="399.9"/>
		<line class="st14" x1="-3.6" y1="433.2" x2="29.8" y2="399.9"/>
		<g>
			<polyline class="st14" points="20.1,396.9 13.1,403.9 6.1,396.9 			"/>
			<polyline class="st14" points="20.1,384.7 13.1,391.7 6.1,384.7 			"/>
		</g>
		<g>
			<polyline class="st14" points="-4.4,389.1 -4.4,399 -14.4,399 			"/>
		</g>
		<g>
			<polyline class="st14" points="-6.6,409.5 0.4,416.6 -6.6,423.6 			"/>
			<polyline class="st14" points="-18.7,409.5 -11.7,416.6 -18.7,423.6 			"/>
		</g>
		<g>
			<polyline class="st14" points="-14.4,434.1 -4.4,434.1 -4.4,444 			"/>
		</g>
		<g>
			<polyline class="st14" points="6.1,436.2 13.1,429.2 20.1,436.2 			"/>
			<polyline class="st14" points="6.1,448.4 13.1,441.4 20.1,448.4 			"/>
		</g>
		<g>
			<polyline class="st14" points="30.7,444 30.7,434.1 40.6,434.1 			"/>
		</g>
		<g>
			<polyline class="st14" points="32.8,423.6 25.8,416.6 32.8,409.5 			"/>
			<polyline class="st14" points="45,423.6 37.9,416.6 45,409.5 			"/>
		</g>
		<g>
			<polyline class="st14" points="40.6,399 30.7,399 30.7,389.1 			"/>
		</g>
	</g>
</g>
</svg>
