<?xml version="1.0" encoding="utf-8"?>
<!-- Generator: Adobe Illustrator 16.0.3, SVG Export Plug-In . SVG Version: 6.00 Build 0)  -->
<!DOCTYPE svg PUBLIC "-//W3C//DTD SVG 1.1//EN" "http://www.w3.org/Graphics/SVG/1.1/DTD/svg11.dtd">
<svg version="1.1" id="Warstwa_1" xmlns="http://www.w3.org/2000/svg" xmlns:xlink="http://www.w3.org/1999/xlink" x="0px" y="0px"
	 width="348px" height="87px" viewBox="-4.016 0.125 348 87" enable-background="new -4.016 0.125 348 87" xml:space="preserve">
<g>
	<circle fill="#41507A" stroke="#FFFFFF" stroke-width="5" stroke-miterlimit="10" cx="39.484" cy="43.625" r="41"/>
</g>
<g>
	<circle fill="#41507A" cx="126.484" cy="43.625" r="41"/>
	<path fill="#293A5B" d="M125.086,69.68l13.208,13.209c8.162-2.453,15.245-7.377,20.396-13.908l-30.172-30.171L125.086,69.68z"/>
	<path fill="#293A5B" d="M125.086,29.675l35.972,35.972c1.545-2.42,2.851-5.01,3.864-7.741l-36.404-36.403L125.086,29.675z"/>
	
		<line fill="none" stroke="#FFFFFF" stroke-width="6.4063" stroke-linecap="round" stroke-linejoin="round" stroke-miterlimit="10" x1="126.484" y1="41.063" x2="126.484" y2="66.473"/>
	<circle fill="#FFFFFF" cx="126.441" cy="25.298" r="4.377"/>
	<circle fill="none" stroke="#FFFFFF" stroke-width="5" stroke-miterlimit="10" cx="126.484" cy="43.625" r="41"/>
</g>
<g>
	<circle fill="#1B1464" cx="213.484" cy="43.625" r="41"/>
	
		<line fill="none" stroke="#FFFFFF" stroke-width="6.4063" stroke-linecap="round" stroke-linejoin="round" stroke-miterlimit="10" x1="213.484" y1="41.063" x2="213.484" y2="66.473"/>
	<circle fill="#FFFFFF" cx="213.439" cy="25.298" r="4.376"/>
	<circle fill="none" stroke="#FFFFFF" stroke-width="5" stroke-miterlimit="10" cx="213.484" cy="43.625" r="41"/>
</g>
<g>
	<circle fill="#FFFFFF" cx="300.484" cy="43.625" r="41"/>
	
		<line fill="none" stroke="#1B1464" stroke-width="6.4063" stroke-linecap="round" stroke-linejoin="round" stroke-miterlimit="10" x1="300.484" y1="41.063" x2="300.484" y2="66.473"/>
	<circle fill="#1B1464" cx="300.44" cy="25.298" r="4.376"/>
	<circle fill="none" stroke="#FFFFFF" stroke-width="5" stroke-miterlimit="10" cx="300.484" cy="43.625" r="41"/>
</g>
</svg>
