<?xml version="1.0" encoding="utf-8"?>
<!-- Generator: Adobe Illustrator 16.0.3, SVG Export Plug-In . SVG Version: 6.00 Build 0)  -->
<!DOCTYPE svg PUBLIC "-//W3C//DTD SVG 1.1//EN" "http://www.w3.org/Graphics/SVG/1.1/DTD/svg11.dtd">
<svg version="1.1" id="Warstwa_1" xmlns="http://www.w3.org/2000/svg" xmlns:xlink="http://www.w3.org/1999/xlink" x="0px" y="0px"
	 width="500px" height="125px" viewBox="-3.891 -0.174 500 125" enable-background="new -3.891 -0.174 500 125"
	 xml:space="preserve">
<g id="Warstwa_2">
</g>
<g>
	<circle fill="#F15A24" stroke="#FFFFFF" stroke-width="5" stroke-miterlimit="10" cx="58.609" cy="62.327" r="60"/>
</g>
<g>
	<circle fill="#F15A24" cx="183.609" cy="62.327" r="60"/>
	<path fill="#C74B1E" d="M243.609,62.327c0-1.7-0.087-3.381-0.227-5.046l-38.606-38.607l-7.104,14.591l-20.828,0.613l-13.246,11.823
		l-5.495,15.94l-1.208,21.779l2.545,22.014l16.372,16.373c2.555,0.33,5.154,0.521,7.798,0.521
		C216.749,122.327,243.609,95.463,243.609,62.327z"/>
	
		<path fill="none" stroke="#FFFFFF" stroke-width="5.625" stroke-linecap="round" stroke-linejoin="round" stroke-miterlimit="10" d="
		M190.188,32.482c15.854,1.787,27.924,16.133,14.067,36.065c-10.278,14.787-35.166,14.248-42.562,35.164
		C152.682,82.073,153.4,28.335,190.188,32.482z"/>
	
		<path fill="none" stroke="#FFFFFF" stroke-width="5.625" stroke-linecap="round" stroke-linejoin="round" stroke-miterlimit="10" d="
		M202.813,20.941c0,0-2.886,18.575-21.459,34.984c-9.922,9.017-13.707,18.033-13.707,18.033"/>
	
		<line fill="none" stroke="#FFFFFF" stroke-width="5.625" stroke-linecap="round" stroke-linejoin="round" stroke-miterlimit="10" x1="188.062" y1="49.195" x2="193.229" y2="61.641"/>
	
		<line fill="none" stroke="#FFFFFF" stroke-width="5.625" stroke-linecap="round" stroke-linejoin="round" stroke-miterlimit="10" x1="180.458" y1="56.752" x2="169.812" y2="56.752"/>
	
		<line fill="none" stroke="#FFFFFF" stroke-width="5.625" stroke-linecap="round" stroke-linejoin="round" stroke-miterlimit="10" x1="171.262" y1="67.59" x2="176.843" y2="76.84"/>
	<circle fill="none" stroke="#FFFFFF" stroke-width="5" stroke-miterlimit="10" cx="183.609" cy="62.327" r="60"/>
</g>
<g>
	<circle fill="#1B1464" cx="308.609" cy="62.326" r="60"/>
	
		<path fill="none" stroke="#FFFFFF" stroke-width="5.625" stroke-linecap="round" stroke-linejoin="round" stroke-miterlimit="10" d="
		M315.189,32.482c15.853,1.787,27.924,16.131,14.063,36.063c-10.275,14.787-35.164,14.248-42.56,35.164
		C277.681,82.07,278.401,28.334,315.189,32.482z"/>
	
		<path fill="none" stroke="#FFFFFF" stroke-width="5.625" stroke-linecap="round" stroke-linejoin="round" stroke-miterlimit="10" d="
		M327.813,20.94c0,0-2.886,18.574-21.459,34.983c-9.922,9.017-13.707,18.035-13.707,18.035"/>
	
		<line fill="none" stroke="#FFFFFF" stroke-width="5.625" stroke-linecap="round" stroke-linejoin="round" stroke-miterlimit="10" x1="313.063" y1="49.194" x2="318.229" y2="61.639"/>
	
		<line fill="none" stroke="#FFFFFF" stroke-width="5.625" stroke-linecap="round" stroke-linejoin="round" stroke-miterlimit="10" x1="305.457" y1="56.752" x2="294.812" y2="56.752"/>
	
		<line fill="none" stroke="#FFFFFF" stroke-width="5.625" stroke-linecap="round" stroke-linejoin="round" stroke-miterlimit="10" x1="296.263" y1="67.588" x2="301.843" y2="76.838"/>
	<circle fill="none" stroke="#FFFFFF" stroke-width="5" stroke-miterlimit="10" cx="308.609" cy="62.326" r="60"/>
</g>
<g>
	<circle fill="#FFFFFF" cx="433.609" cy="62.326" r="60"/>
	
		<path fill="none" stroke="#1B1464" stroke-width="5.625" stroke-linecap="round" stroke-linejoin="round" stroke-miterlimit="10" d="
		M440.189,32.482c15.853,1.787,27.923,16.132,14.063,36.065c-10.276,14.785-35.166,14.246-42.56,35.162
		C402.682,82.07,403.401,28.334,440.189,32.482z"/>
	
		<path fill="none" stroke="#1B1464" stroke-width="5.625" stroke-linecap="round" stroke-linejoin="round" stroke-miterlimit="10" d="
		M452.813,20.941c0,0-2.887,18.574-21.459,34.984c-9.922,9.017-13.707,18.033-13.707,18.033"/>
	
		<line fill="none" stroke="#1B1464" stroke-width="5.625" stroke-linecap="round" stroke-linejoin="round" stroke-miterlimit="10" x1="438.061" y1="49.194" x2="443.229" y2="61.64"/>
	
		<line fill="none" stroke="#1B1464" stroke-width="5.625" stroke-linecap="round" stroke-linejoin="round" stroke-miterlimit="10" x1="430.457" y1="56.752" x2="419.811" y2="56.752"/>
	
		<line fill="none" stroke="#1B1464" stroke-width="5.625" stroke-linecap="round" stroke-linejoin="round" stroke-miterlimit="10" x1="421.264" y1="67.59" x2="426.844" y2="76.838"/>
	<circle fill="none" stroke="#FFFFFF" stroke-width="5" stroke-miterlimit="10" cx="433.609" cy="62.326" r="60"/>
</g>
</svg>
