<?xml version="1.0" encoding="UTF-8" standalone="no"?>
<!-- Created with Inkscape (http://www.inkscape.org/) -->

<svg
   xmlns:dc="http://purl.org/dc/elements/1.1/"
   xmlns:cc="http://creativecommons.org/ns#"
   xmlns:rdf="http://www.w3.org/1999/02/22-rdf-syntax-ns#"
   xmlns:svg="http://www.w3.org/2000/svg"
   xmlns="http://www.w3.org/2000/svg"
   version="1.1"
   width="239.99998"
   height="79.999992"
   viewBox="0 0 192 63.999991"
   id="svg2985"
   style="fill-rule:evenodd">
  <metadata
     id="metadata3081">
    <rdf:RDF>
      <cc:Work
         rdf:about="">
        <dc:format>image/svg+xml</dc:format>
        <dc:type
           rdf:resource="http://purl.org/dc/dcmitype/StillImage" />
        <dc:title></dc:title>
      </cc:Work>
    </rdf:RDF>
  </metadata>
  <defs
     id="defs3079" />
  <g
     transform="translate(0,-2.5279633)"
     id="g3210">
    <path
       d="m 64,34.52796 c 0,17.673 -14.327,32 -32,32 -17.673,0 -32,-14.327 -32,-32 0,-17.673 14.327,-32 32,-32 17.673,0 32,14.327 32,32 z"
       id="path2993"
       style="fill:#ee5721;stroke:none" />
    <path
       d="m 35.913,66.28196 c 14.048,-1.715 25.28,-12.525 27.627,-26.369 l -21.665,-21.664 -4.161,-1.667 -4.187,0 -3.813,3.813 -3.438,-3.812 -3.124,0 -4.896,3.854 0,3.587 3.583,4.525 -2.568,2.909 0,13.495 5.954,5.954 -1.814,2.874 12.502,12.501 z"
       id="path2995"
       style="fill:#c5491d;stroke:none" />
    <path
       d="m 40.22,42.97096 c 0,0.539 -0.436,0.975 -0.974,0.975"
       id="path2997"
       style="fill:none;stroke:#ffffff;stroke-width:3.99996996;stroke-linecap:round;stroke-linejoin:round" />
    <path
       d="m 39.246,43.94596 -18.491,0"
       id="path2999"
       style="fill:none;stroke:#ffffff;stroke-width:3.99996996;stroke-linecap:round;stroke-linejoin:round" />
    <path
       d="m 20.755,43.94596 c -0.538,0 -0.974,-0.436 -0.974,-0.975"
       id="path3001"
       style="fill:none;stroke:#ffffff;stroke-width:3.99996996;stroke-linecap:round;stroke-linejoin:round" />
    <path
       d="m 19.781,42.97096 0,-11.277"
       id="path3003"
       style="fill:none;stroke:#ffffff;stroke-width:3.99996996;stroke-linecap:round;stroke-linejoin:round" />
    <path
       d="m 19.781,31.69396 c 0,-0.537 0.436,-0.975 0.974,-0.975"
       id="path3005"
       style="fill:none;stroke:#ffffff;stroke-width:3.99996996;stroke-linecap:round;stroke-linejoin:round" />
    <path
       d="m 20.755,30.71896 18.491,0"
       id="path3007"
       style="fill:none;stroke:#ffffff;stroke-width:3.99996996;stroke-linecap:round;stroke-linejoin:round" />
    <path
       d="m 39.246,30.71896 c 0.538,0 0.974,0.438 0.974,0.975"
       id="path3009"
       style="fill:none;stroke:#ffffff;stroke-width:3.99996996;stroke-linecap:round;stroke-linejoin:round" />
    <path
       d="m 40.22,31.69396 0,11.277"
       id="path3011"
       style="fill:none;stroke:#ffffff;stroke-width:3.99996996;stroke-linecap:round;stroke-linejoin:round" />
    <path
       d="m 30,22.78196 c 0,3.279 -2.658,5.938 -5.937,5.938 -3.28,0 -5.938,-2.659 -5.938,-5.938 0,-3.279 2.658,-5.938 5.938,-5.938 3.279,0 5.937,2.659 5.937,5.938"
       id="path3013"
       style="fill:none;stroke:#ffffff;stroke-width:3.99996996;stroke-linecap:round;stroke-linejoin:round" />
    <path
       d="m 41.875,22.78196 c 0,3.279 -2.658,5.938 -5.937,5.938 -3.28,0 -5.938,-2.659 -5.938,-5.938 0,-3.279 2.658,-5.938 5.938,-5.938 3.279,0 5.937,2.659 5.937,5.938"
       id="path3015"
       style="fill:none;stroke:#ffffff;stroke-width:3.99996996;stroke-linecap:round;stroke-linejoin:round" />
    <path
       d="m 49.616,28.54896 -8.785,8.785 8.785,8.787 0,-17.572 z"
       id="path3017"
       style="fill:none;stroke:#ffffff;stroke-width:3.99996996;stroke-linecap:round;stroke-linejoin:round" />
    <path
       d="m 35.476,53.02596 -5.476,-8.785 -5.477,8.785"
       id="path3019"
       style="fill:none;stroke:#ffffff;stroke-width:3.99996996;stroke-linecap:round;stroke-linejoin:round" />
  </g>
  <g
     transform="translate(0.098,3.6719279e-5)"
     id="g3226">
    <path
       d="m 127.902,31.99996 c 0,17.673 -14.328,32 -32,32 -17.673,0 -32,-14.327 -32,-32 0,-17.673 14.327,-32 32,-32 17.672,0 32,14.327 32,32 z"
       id="path3023"
       style="fill:#1a1362;stroke:none" />
    <path
       d="m 104.121,40.44396 c 0,0.538 -0.436,0.974 -0.973,0.974"
       id="path3025"
       style="fill:none;stroke:#ffffff;stroke-width:3.99996996;stroke-linecap:round;stroke-linejoin:round" />
    <path
       d="m 103.148,41.41796 -18.492,0"
       id="path3027"
       style="fill:none;stroke:#ffffff;stroke-width:3.99996996;stroke-linecap:round;stroke-linejoin:round" />
    <path
       d="m 84.656,41.41796 c -0.537,0 -0.974,-0.436 -0.974,-0.974"
       id="path3029"
       style="fill:none;stroke:#ffffff;stroke-width:3.99996996;stroke-linecap:round;stroke-linejoin:round" />
    <path
       d="m 83.682,40.44396 0,-11.278"
       id="path3031"
       style="fill:none;stroke:#ffffff;stroke-width:3.99996996;stroke-linecap:round;stroke-linejoin:round" />
    <path
       d="m 83.682,29.16596 c 0,-0.537 0.437,-0.974 0.974,-0.974"
       id="path3033"
       style="fill:none;stroke:#ffffff;stroke-width:3.99996996;stroke-linecap:round;stroke-linejoin:round" />
    <path
       d="m 84.656,28.19196 18.492,0"
       id="path3035"
       style="fill:none;stroke:#ffffff;stroke-width:3.99996996;stroke-linecap:round;stroke-linejoin:round" />
    <path
       d="m 103.148,28.19196 c 0.537,0 0.973,0.437 0.973,0.974"
       id="path3037"
       style="fill:none;stroke:#ffffff;stroke-width:3.99996996;stroke-linecap:round;stroke-linejoin:round" />
    <path
       d="m 104.121,29.16596 0,11.278"
       id="path3039"
       style="fill:none;stroke:#ffffff;stroke-width:3.99996996;stroke-linecap:round;stroke-linejoin:round" />
    <path
       d="m 93.901,20.25396 c 0,3.28 -2.658,5.938 -5.937,5.938 -3.279,0 -5.937,-2.658 -5.937,-5.938 0,-3.279 2.658,-5.937 5.937,-5.937 3.279,0 5.937,2.658 5.937,5.937"
       id="path3041"
       style="fill:none;stroke:#ffffff;stroke-width:3.99996996;stroke-linecap:round;stroke-linejoin:round" />
    <path
       d="m 105.777,20.25396 c 0,3.28 -2.659,5.938 -5.938,5.938 -3.279,0 -5.938,-2.658 -5.938,-5.938 0,-3.279 2.659,-5.937 5.938,-5.937 3.279,0 5.938,2.658 5.938,5.937"
       id="path3043"
       style="fill:none;stroke:#ffffff;stroke-width:3.99996996;stroke-linecap:round;stroke-linejoin:round" />
    <path
       d="m 113.518,26.02096 -8.785,8.785 8.785,8.787 0,-17.572 z"
       id="path3045"
       style="fill:none;stroke:#ffffff;stroke-width:3.99996996;stroke-linecap:round;stroke-linejoin:round" />
    <path
       d="m 99.377,50.49796 -5.476,-8.785 -5.477,8.785"
       id="path3047"
       style="fill:none;stroke:#ffffff;stroke-width:3.99996996;stroke-linecap:round;stroke-linejoin:round" />
  </g>
  <g
     transform="matrix(1.0000157,0,0,1,0.095992,3.6719279e-5)"
     id="g3241">
    <path
       d="m 191.901,31.99996 c 0,17.673 -14.327,32 -32,32 -17.673,0 -31.999,-14.327 -31.999,-32 0,-17.673 14.326,-32 31.999,-32 17.673,0 32,14.327 32,32 z"
       id="path3051"
       style="fill:#ffffff;stroke:none" />
    <path
       d="m 168.121,40.44396 c 0,0.538 -0.436,0.974 -0.973,0.974"
       id="path3053"
       style="fill:none;stroke:#1a1362;stroke-width:3.99996996;stroke-linecap:round;stroke-linejoin:round" />
    <path
       d="m 167.148,41.41796 -18.492,0"
       id="path3055"
       style="fill:none;stroke:#1a1362;stroke-width:3.99996996;stroke-linecap:round;stroke-linejoin:round" />
    <path
       d="m 148.656,41.41796 c -0.538,0 -0.974,-0.436 -0.974,-0.974"
       id="path3057"
       style="fill:none;stroke:#1a1362;stroke-width:3.99996996;stroke-linecap:round;stroke-linejoin:round" />
    <path
       d="m 147.682,40.44396 0,-11.278"
       id="path3059"
       style="fill:none;stroke:#1a1362;stroke-width:3.99996996;stroke-linecap:round;stroke-linejoin:round" />
    <path
       d="m 147.682,29.16596 c 0,-0.537 0.436,-0.974 0.974,-0.974"
       id="path3061"
       style="fill:none;stroke:#1a1362;stroke-width:3.99996996;stroke-linecap:round;stroke-linejoin:round" />
    <path
       d="m 148.656,28.19196 18.492,0"
       id="path3063"
       style="fill:none;stroke:#1a1362;stroke-width:3.99996996;stroke-linecap:round;stroke-linejoin:round" />
    <path
       d="m 167.148,28.19196 c 0.537,0 0.973,0.437 0.973,0.974"
       id="path3065"
       style="fill:none;stroke:#1a1362;stroke-width:3.99996996;stroke-linecap:round;stroke-linejoin:round" />
    <path
       d="m 168.121,29.16596 0,11.278"
       id="path3067"
       style="fill:none;stroke:#1a1362;stroke-width:3.99996996;stroke-linecap:round;stroke-linejoin:round" />
    <path
       d="m 157.902,20.25396 c 0,3.28 -2.659,5.938 -5.938,5.938 -3.279,0 -5.937,-2.658 -5.937,-5.938 0,-3.279 2.658,-5.937 5.937,-5.937 3.279,0 5.938,2.658 5.938,5.937"
       id="path3069"
       style="fill:none;stroke:#1a1362;stroke-width:3.99996996;stroke-linecap:round;stroke-linejoin:round" />
    <path
       d="m 169.776,20.25396 c 0,3.28 -2.658,5.938 -5.937,5.938 -3.279,0 -5.937,-2.658 -5.937,-5.938 0,-3.279 2.658,-5.937 5.937,-5.937 3.279,0 5.937,2.658 5.937,5.937"
       id="path3071"
       style="fill:none;stroke:#1a1362;stroke-width:3.99996996;stroke-linecap:round;stroke-linejoin:round" />
    <path
       d="m 177.518,26.02096 -8.786,8.785 8.786,8.787 0,-17.572 z"
       id="path3073"
       style="fill:none;stroke:#1a1362;stroke-width:3.99996996;stroke-linecap:round;stroke-linejoin:round" />
    <path
       d="m 163.377,50.49796 -5.475,-8.785 -5.478,8.785"
       id="path3075"
       style="fill:none;stroke:#1a1362;stroke-width:3.99996996;stroke-linecap:round;stroke-linejoin:round" />
  </g>
</svg>
