<?xml version="1.0" encoding="utf-8"?>
<!-- Generator: Adobe Illustrator 19.0.1, SVG Export Plug-In . SVG Version: 6.00 Build 0)  -->
<svg version="1.1" id="Warstwa_1" xmlns="http://www.w3.org/2000/svg" xmlns:xlink="http://www.w3.org/1999/xlink" x="0px" y="0px"
	 viewBox="-2136.6 -766.3 689.3 230" style="enable-background:new -2136.6 -766.3 689.3 230;" xml:space="preserve">
<style type="text/css">
	.st0{fill:#F2795C;}
	.st1{fill:#B24D39;}
	.st2{fill:#FFFFFF;}
	.st3{fill:none;}
	.st4{fill:#1B1464;}
	.st5{fill:#E95A30;}
</style>
<g id="Warstwa_2">
</g>
<g>
	<g>
		<g>
			<path class="st0" d="M-1909.1-651.3c0,62.1-50.4,112.5-112.5,112.5s-112.5-50.4-112.5-112.5c0-62.1,50.4-112.5,112.5-112.5
				S-1909.1-713.4-1909.1-651.3z"/>
		</g>
		<g>
			<g>
				<path class="st1" d="M-2011.2-581.7l-9.6-10.1l-6.4,0.2l-6.5-6.5l-1.6,8.9l-3.7-3.7l-2.3,1l-6.2-6.2l-2.8,18.2l40.5,40.5
					c0,0,31.9-4.9,45.9-14.2c25.2-16.9,37.9-35,49.2-57.5l-84.2-84.2l-19.4,0.2l-4.5,2.3l-16.9,10.2l22.9,22.9l-18.4,5l24.9,24.7
					l-37.6,7.9l39.1,39.1L-2011.2-581.7z"/>
			</g>
		</g>
		<g>
			<g>
				<path class="st2" d="M-2047.6-586.8l1.6-1.9l3.9-4.2h3.2l-5.2,5.6l5.5,7.4h-3.2l-4.2-5.7l-1.5,1.2v4.4h-2.7v-18.2h2.7v8.9
					L-2047.6-586.8L-2047.6-586.8L-2047.6-586.8z"/>
			</g>
			<g>
				<path class="st2" d="M-2033.8-579.9h-2.8v-18.2h2.8V-579.9z"/>
			</g>
			<g>
				<path class="st2" d="M-2021.7-579.9l-0.6-1.8h-0.1c-0.6,0.8-1.3,1.3-1.9,1.6s-1.4,0.4-2.4,0.4c-1.3,0-2.3-0.3-3-1
					s-1.1-1.7-1.1-2.9c0-1.3,0.5-2.3,1.5-3s2.5-1.1,4.5-1.1l2.2-0.1v-0.7c0-0.8-0.2-1.4-0.6-1.9s-1-0.6-1.8-0.6
					c-0.7,0-1.3,0.1-1.9,0.3s-1.2,0.4-1.8,0.7l-0.9-2c0.7-0.4,1.5-0.6,2.3-0.8s1.6-0.3,2.4-0.3c1.6,0,2.9,0.4,3.7,1.1
					s1.3,1.8,1.3,3.4v8.7L-2021.7-579.9L-2021.7-579.9z M-2025.8-581.8c1,0,1.8-0.3,2.4-0.8s0.9-1.3,0.9-2.3v-1.1l-1.7,0.1
					c-1.3,0-2.2,0.3-2.8,0.7s-0.9,1-0.9,1.8c0,0.6,0.2,1,0.5,1.3S-2026.5-581.8-2025.8-581.8z"/>
			</g>
			<g>
				<path class="st2" d="M-2007.2-583.6c0,1.3-0.5,2.2-1.4,2.9s-2.2,1-4,1c-1.7,0-3.1-0.3-4.2-0.8v-2.4c1.5,0.7,2.9,1.1,4.3,1.1
					c1.7,0,2.5-0.5,2.5-1.5c0-0.3-0.1-0.6-0.3-0.8s-0.5-0.4-0.9-0.7s-1-0.5-1.8-0.8c-1.5-0.6-2.5-1.2-3-1.7s-0.8-1.3-0.8-2.3
					c0-1.1,0.4-2,1.3-2.6s2.1-0.9,3.6-0.9c1.5,0,3,0.3,4.3,0.9l-0.9,2.1c-1.4-0.6-2.6-0.9-3.5-0.9c-1.5,0-2.2,0.4-2.2,1.2
					c0,0.4,0.2,0.8,0.6,1s1.2,0.7,2.5,1.2c1.1,0.4,1.8,0.8,2.3,1.1s0.8,0.7,1.1,1.2S-2007.2-584.3-2007.2-583.6z"/>
			</g>
			<g>
				<path class="st2" d="M-1996.1-579.9l-0.6-1.8h-0.1c-0.6,0.8-1.3,1.3-1.9,1.6s-1.4,0.4-2.4,0.4c-1.3,0-2.3-0.3-3-1
					s-1.1-1.7-1.1-2.9c0-1.3,0.5-2.3,1.5-3s2.5-1.1,4.5-1.1l2.2-0.1v-0.7c0-0.8-0.2-1.4-0.6-1.9s-1-0.6-1.8-0.6
					c-0.7,0-1.3,0.1-1.9,0.3c-0.6,0.2-1.2,0.4-1.8,0.7l-0.9-2c0.7-0.4,1.5-0.6,2.3-0.8s1.6-0.3,2.4-0.3c1.6,0,2.9,0.4,3.7,1.1
					s1.3,1.8,1.3,3.4v8.7L-1996.1-579.9L-1996.1-579.9z M-2000.2-581.8c1,0,1.8-0.3,2.4-0.8s0.9-1.3,0.9-2.3v-1.1l-1.7,0.1
					c-1.3,0-2.2,0.3-2.8,0.7s-0.9,1-0.9,1.8c0,0.6,0.2,1,0.5,1.3S-2000.9-581.8-2000.2-581.8z"/>
			</g>
		</g>
		<g>
			<path class="st2" d="M-2021.6-536.3c-63.4,0-115-51.6-115-115s51.6-115,115-115s115,51.6,115,115S-1958.2-536.3-2021.6-536.3z
				 M-2021.6-761.3c-60.7,0-110,49.3-110,110s49.3,110,110,110s110-49.3,110-110S-1960.9-761.3-2021.6-761.3z"/>
		</g>
		<g>
			<g>
				<path class="st2" d="M-1992.9-683.2c0,5.2-1.6,9.6-4.7,13.2c-3.1,3.6-7.5,6.1-13.2,7.5v0.3c6.7,0.8,11.7,2.9,15.2,6.1
					c3.4,3.2,5.2,7.6,5.2,13.1c0,8-2.9,14.2-8.7,18.6c-5.8,4.4-14,6.7-24.8,6.7c-9,0-17-1.5-23.9-4.5v-14.9c3.2,1.6,6.7,2.9,10.6,4
					s7.7,1.5,11.4,1.5c5.8,0,10-1,12.8-2.9c2.8-2,4.1-5.1,4.1-9.5c0-3.9-1.6-6.6-4.8-8.3c-3.2-1.6-8.2-2.4-15.2-2.4h-6.3v-13.4h6.4
					c6.4,0,11.1-0.8,14.1-2.5c3-1.7,4.4-4.6,4.4-8.6c0-6.3-3.9-9.4-11.8-9.4c-2.7,0-5.5,0.5-8.3,1.4s-5.9,2.5-9.4,4.7l-8.1-12.1
					c7.6-5.4,16.6-8.2,27-8.2c8.6,0,15.3,1.7,20.3,5.2C-1995.4-694.3-1992.9-689.4-1992.9-683.2z"/>
			</g>
		</g>
		<g>
			<line class="st3" x1="-2035" y1="-654.8" x2="-2013.6" y2="-633.4"/>
		</g>
	</g>
	<g>
		<g>
			<path class="st4" d="M-1679.7-651.3c0,62.1-50.4,112.5-112.5,112.5s-112.5-50.4-112.5-112.5c0-62.1,50.4-112.5,112.5-112.5
				C-1730.1-763.8-1679.7-713.4-1679.7-651.3z"/>
		</g>
		<g>
			<path class="st5" d="M-1679.7-651.3c0,62.1-50.4,112.5-112.5,112.5s-112.5-50.4-112.5-112.5c0-62.1,50.4-112.5,112.5-112.5
				C-1730.1-763.8-1679.7-713.4-1679.7-651.3z"/>
		</g>
		<g>
			<g>
				<path class="st2" d="M-1816.9-587.2l1.6-1.9l3.9-4.2h3.2l-5.2,5.6l5.5,7.4h-3.2l-4.2-5.7l-1.5,1.2v4.4h-2.7v-18.2h2.7v8.9
					L-1816.9-587.2L-1816.9-587.2L-1816.9-587.2z"/>
			</g>
			<g>
				<path class="st2" d="M-1803.1-580.3h-2.8v-18.2h2.8V-580.3z"/>
			</g>
			<g>
				<path class="st2" d="M-1791-580.3l-0.6-1.8h-0.1c-0.6,0.8-1.3,1.3-1.9,1.6s-1.4,0.4-2.4,0.4c-1.3,0-2.3-0.3-3-1
					s-1.1-1.7-1.1-2.9c0-1.3,0.5-2.3,1.5-3s2.5-1.1,4.5-1.1l2.2-0.1v-0.7c0-0.8-0.2-1.4-0.6-1.9s-1-0.6-1.8-0.6
					c-0.7,0-1.3,0.1-1.9,0.3s-1.2,0.4-1.8,0.7l-0.9-2c0.7-0.4,1.5-0.6,2.3-0.8s1.6-0.3,2.4-0.3c1.6,0,2.9,0.4,3.7,1.1
					s1.3,1.8,1.3,3.4v8.7L-1791-580.3L-1791-580.3z M-1795.1-582.2c1,0,1.8-0.3,2.4-0.8s0.9-1.3,0.9-2.3v-1.1l-1.7,0.1
					c-1.3,0-2.2,0.3-2.8,0.7s-0.9,1-0.9,1.8c0,0.6,0.2,1,0.5,1.3S-1795.8-582.2-1795.1-582.2z"/>
			</g>
			<g>
				<path class="st2" d="M-1776.5-584c0,1.3-0.5,2.2-1.4,2.9s-2.2,1-4,1c-1.7,0-3.1-0.3-4.2-0.8v-2.4c1.5,0.7,2.9,1.1,4.3,1.1
					c1.7,0,2.5-0.5,2.5-1.5c0-0.3-0.1-0.6-0.3-0.8s-0.5-0.4-0.9-0.7s-1-0.5-1.8-0.8c-1.5-0.6-2.5-1.2-3-1.7s-0.8-1.3-0.8-2.3
					c0-1.1,0.4-2,1.3-2.6s2.1-0.9,3.7-0.9c1.5,0,3,0.3,4.3,0.9l-0.9,2.1c-1.4-0.6-2.6-0.9-3.5-0.9c-1.5,0-2.2,0.4-2.2,1.2
					c0,0.4,0.2,0.8,0.6,1s1.2,0.7,2.5,1.2c1.1,0.4,1.8,0.8,2.3,1.1s0.8,0.7,1.1,1.2S-1776.5-584.6-1776.5-584z"/>
			</g>
			<g>
				<path class="st2" d="M-1765.4-580.3l-0.6-1.8h-0.1c-0.6,0.8-1.3,1.3-1.9,1.6s-1.4,0.4-2.4,0.4c-1.3,0-2.3-0.3-3-1
					s-1.1-1.7-1.1-2.9c0-1.3,0.5-2.3,1.5-3s2.5-1.1,4.5-1.1l2.2-0.1v-0.7c0-0.8-0.2-1.4-0.6-1.9s-1-0.6-1.8-0.6
					c-0.7,0-1.3,0.1-1.9,0.3s-1.2,0.4-1.8,0.7l-0.9-2c0.7-0.4,1.5-0.6,2.3-0.8s1.6-0.3,2.4-0.3c1.6,0,2.9,0.4,3.7,1.1
					s1.3,1.8,1.3,3.4v8.7L-1765.4-580.3L-1765.4-580.3z M-1769.5-582.2c1,0,1.8-0.3,2.4-0.8s0.9-1.3,0.9-2.3v-1.1l-1.7,0.1
					c-1.3,0-2.2,0.3-2.8,0.7s-0.9,1-0.9,1.8c0,0.6,0.2,1,0.5,1.3S-1770.2-582.2-1769.5-582.2z"/>
			</g>
		</g>
		<g>
			<g>
				<path class="st2" d="M-1759.8-683.2c0,5.2-1.6,9.6-4.7,13.2s-7.5,6.1-13.2,7.5v0.3c6.7,0.8,11.7,2.9,15.2,6.1s5.2,7.6,5.2,13.1
					c0,8-2.9,14.2-8.7,18.6c-5.8,4.4-14,6.7-24.8,6.7c-9,0-17-1.5-23.9-4.5v-14.9c3.2,1.6,6.7,2.9,10.6,4s7.7,1.5,11.4,1.5
					c5.8,0,10-1,12.8-2.9c2.8-2,4.1-5.1,4.1-9.5c0-3.9-1.6-6.6-4.8-8.3c-3.2-1.6-8.2-2.4-15.2-2.4h-6.3v-13.4h6.4
					c6.4,0,11.1-0.8,14.1-2.5c3-1.7,4.4-4.6,4.4-8.6c0-6.3-3.9-9.4-11.8-9.4c-2.7,0-5.5,0.5-8.3,1.4c-2.8,0.9-5.9,2.5-9.4,4.7
					l-8.1-12.1c7.6-5.4,16.6-8.2,27-8.2c8.6,0,15.3,1.7,20.3,5.2C-1762.3-694.3-1759.8-689.4-1759.8-683.2z"/>
			</g>
		</g>
	</g>
	<g>
		<g>
			<path class="st2" d="M-1449.7-651.3c0,62.1-50.4,112.5-112.5,112.5c-62.1,0-112.5-50.4-112.5-112.5s50.4-112.5,112.5-112.5
				C-1500.1-763.8-1449.7-713.4-1449.7-651.3z"/>
		</g>
		<g>
			<path class="st5" d="M-1562.2-536.3c-63.4,0-115-51.6-115-115s51.6-115,115-115s115,51.6,115,115S-1498.8-536.3-1562.2-536.3z
				 M-1562.2-761.3c-60.7,0-110,49.3-110,110s49.3,110,110,110s110-49.3,110-110S-1501.6-761.3-1562.2-761.3z"/>
		</g>
		<g>
			<g>
				<path class="st5" d="M-1584.8-587.2l1.6-1.9l3.9-4.2h3.2l-5.2,5.6l5.5,7.4h-3.2l-4.2-5.7l-1.5,1.2v4.4h-2.7v-18.2h2.7v8.9
					L-1584.8-587.2L-1584.8-587.2L-1584.8-587.2z"/>
			</g>
			<g>
				<path class="st5" d="M-1570.9-580.3h-2.8v-18.2h2.8V-580.3z"/>
			</g>
			<g>
				<path class="st5" d="M-1558.9-580.3l-0.6-1.8h-0.1c-0.6,0.8-1.3,1.3-1.9,1.6s-1.4,0.4-2.4,0.4c-1.3,0-2.3-0.3-3-1
					s-1.1-1.7-1.1-2.9c0-1.3,0.5-2.3,1.5-3s2.5-1.1,4.5-1.1l2.2-0.1v-0.7c0-0.8-0.2-1.4-0.6-1.9s-1-0.6-1.8-0.6
					c-0.7,0-1.3,0.1-1.9,0.3s-1.2,0.4-1.8,0.7l-0.9-2c0.7-0.4,1.5-0.6,2.3-0.8s1.6-0.3,2.4-0.3c1.6,0,2.9,0.4,3.7,1.1
					s1.3,1.8,1.3,3.4v8.7L-1558.9-580.3L-1558.9-580.3z M-1563-582.2c1,0,1.8-0.3,2.4-0.8s0.9-1.3,0.9-2.3v-1.1l-1.7,0.1
					c-1.3,0-2.2,0.3-2.8,0.7s-0.9,1-0.9,1.8c0,0.6,0.2,1,0.5,1.3S-1563.7-582.2-1563-582.2z"/>
			</g>
			<g>
				<path class="st5" d="M-1544.4-584c0,1.3-0.5,2.2-1.4,2.9s-2.2,1-4,1c-1.7,0-3.1-0.3-4.2-0.8v-2.4c1.5,0.7,2.9,1.1,4.3,1.1
					c1.7,0,2.5-0.5,2.5-1.5c0-0.3-0.1-0.6-0.3-0.8s-0.5-0.4-0.9-0.7s-1-0.5-1.8-0.8c-1.5-0.6-2.5-1.2-3-1.7s-0.8-1.3-0.8-2.3
					c0-1.1,0.4-2,1.3-2.6s2.1-0.9,3.7-0.9c1.5,0,3,0.3,4.3,0.9l-0.9,2.1c-1.4-0.6-2.6-0.9-3.5-0.9c-1.5,0-2.2,0.4-2.2,1.2
					c0,0.4,0.2,0.8,0.6,1s1.2,0.7,2.5,1.2c1.1,0.4,1.8,0.8,2.3,1.1s0.8,0.7,1.1,1.2S-1544.4-584.6-1544.4-584z"/>
			</g>
			<g>
				<path class="st5" d="M-1533.3-580.3l-0.6-1.8h-0.1c-0.6,0.8-1.3,1.3-1.9,1.6s-1.4,0.4-2.4,0.4c-1.3,0-2.3-0.3-3-1
					s-1.1-1.7-1.1-2.9c0-1.3,0.5-2.3,1.5-3s2.5-1.1,4.5-1.1l2.2-0.1v-0.7c0-0.8-0.2-1.4-0.6-1.9s-1-0.6-1.8-0.6
					c-0.7,0-1.3,0.1-1.9,0.3s-1.2,0.4-1.8,0.7l-0.9-2c0.7-0.4,1.5-0.6,2.3-0.8s1.6-0.3,2.4-0.3c1.6,0,2.9,0.4,3.7,1.1
					s1.3,1.8,1.3,3.4v8.7L-1533.3-580.3L-1533.3-580.3z M-1537.4-582.2c1,0,1.8-0.3,2.4-0.8s0.9-1.3,0.9-2.3v-1.1l-1.7,0.1
					c-1.3,0-2.2,0.3-2.8,0.7s-0.9,1-0.9,1.8c0,0.6,0.2,1,0.5,1.3S-1538.1-582.2-1537.4-582.2z"/>
			</g>
		</g>
		<g>
			<g>
				<path class="st5" d="M-1530.7-683.2c0,5.2-1.6,9.6-4.7,13.2s-7.5,6.1-13.2,7.5v0.3c6.7,0.8,11.7,2.9,15.2,6.1s5.2,7.6,5.2,13.1
					c0,8-2.9,14.2-8.7,18.6c-5.8,4.4-14,6.7-24.8,6.7c-9,0-17-1.5-23.9-4.5v-14.9c3.2,1.6,6.7,2.9,10.6,4s7.7,1.5,11.4,1.5
					c5.8,0,10-1,12.8-2.9c2.8-2,4.1-5.1,4.1-9.5c0-3.9-1.6-6.6-4.8-8.3c-3.2-1.6-8.2-2.4-15.2-2.4h-6.3v-13.4h6.4
					c6.4,0,11.1-0.8,14.1-2.5c3-1.7,4.4-4.6,4.4-8.6c0-6.3-3.9-9.4-11.8-9.4c-2.7,0-5.5,0.5-8.3,1.4c-2.8,0.9-5.9,2.5-9.4,4.7
					l-8.1-12.1c7.6-5.4,16.6-8.2,27-8.2c8.6,0,15.3,1.7,20.3,5.2C-1533.2-694.3-1530.7-689.4-1530.7-683.2z"/>
			</g>
		</g>
	</g>
</g>
</svg>
