<?xml version="1.0" encoding="utf-8"?>
<!-- Generator: Adobe Illustrator 19.0.1, SVG Export Plug-In . SVG Version: 6.00 Build 0)  -->
<svg version="1.1" id="Warstwa_1" xmlns="http://www.w3.org/2000/svg" xmlns:xlink="http://www.w3.org/1999/xlink" x="0px" y="0px"
	 viewBox="-2136.6 -513.6 689.3 230" style="enable-background:new -2136.6 -513.6 689.3 230;" xml:space="preserve">
<style type="text/css">
	.st0{fill:#D87979;}
	.st1{fill:#894949;}
	.st2{fill:#FFFFFF;}
	.st3{fill:#1B1464;}
	.st4{fill:#E5322E;}
</style>
<g id="Warstwa_2">
</g>
<g>
	<g>
		<g>
			<path class="st0" d="M-1909.1-398.6c0,62.1-50.4,112.5-112.5,112.5s-112.5-50.4-112.5-112.5c0-62.1,50.4-112.5,112.5-112.5
				S-1909.1-460.7-1909.1-398.6z"/>
		</g>
		<g>
			<g>
				<path class="st1" d="M-2021.8-339.6l-26.6-26.6l32.2-38l-22.9-22.9l16.4-13.1l4.5-2.3l19.4-0.2l84.2,84.2
					c-11.3,22.5-23.9,40.6-49.2,57.5c-14,9.4-45.9,14.2-45.9,14.2l-40.5-40.5l2.8-18.2l6.2,6.2l2.3-1l3.7,3.7l1.6-8.9l6.5,6.5
					l6.4-0.2L-2021.8-339.6"/>
			</g>
		</g>
		<g>
			<g>
				<path class="st2" d="M-2047.6-334l1.6-1.9l3.9-4.2h3.2l-5.2,5.6l5.5,7.4h-3.2l-4.2-5.7l-1.5,1.2v4.4h-2.7v-18.2h2.7v8.9
					L-2047.6-334L-2047.6-334L-2047.6-334z"/>
			</g>
			<g>
				<path class="st2" d="M-2033.8-327.2h-2.8v-18.2h2.8V-327.2z"/>
			</g>
			<g>
				<path class="st2" d="M-2021.7-327.2l-0.6-1.8h-0.1c-0.6,0.8-1.3,1.3-1.9,1.6s-1.4,0.4-2.4,0.4c-1.3,0-2.3-0.3-3-1
					s-1.1-1.7-1.1-2.9c0-1.3,0.5-2.3,1.5-3s2.5-1.1,4.5-1.1l2.2-0.1v-0.7c0-0.8-0.2-1.4-0.6-1.9s-1-0.6-1.8-0.6
					c-0.7,0-1.3,0.1-1.9,0.3s-1.2,0.4-1.8,0.7l-0.9-2c0.7-0.4,1.5-0.6,2.3-0.8s1.6-0.3,2.4-0.3c1.6,0,2.9,0.4,3.7,1.1
					s1.3,1.8,1.3,3.4v8.7L-2021.7-327.2L-2021.7-327.2z M-2025.8-329.1c1,0,1.8-0.3,2.4-0.8s0.9-1.3,0.9-2.3v-1.1l-1.7,0.1
					c-1.3,0-2.2,0.3-2.8,0.7s-0.9,1-0.9,1.8c0,0.6,0.2,1,0.5,1.3S-2026.5-329.1-2025.8-329.1z"/>
			</g>
			<g>
				<path class="st2" d="M-2007.2-330.9c0,1.3-0.5,2.2-1.4,2.9s-2.2,1-4,1c-1.7,0-3.1-0.3-4.2-0.8v-2.4c1.5,0.7,2.9,1.1,4.3,1.1
					c1.7,0,2.5-0.5,2.5-1.5c0-0.3-0.1-0.6-0.3-0.8s-0.5-0.4-0.9-0.7s-1-0.5-1.8-0.8c-1.5-0.6-2.5-1.2-3-1.7s-0.8-1.3-0.8-2.3
					c0-1.1,0.4-2,1.3-2.6s2.1-0.9,3.6-0.9c1.5,0,3,0.3,4.3,0.9l-0.9,2.1c-1.4-0.6-2.6-0.9-3.5-0.9c-1.5,0-2.2,0.4-2.2,1.2
					c0,0.4,0.2,0.8,0.6,1s1.2,0.7,2.5,1.2c1.1,0.4,1.8,0.8,2.3,1.1s0.8,0.7,1.1,1.2S-2007.2-331.5-2007.2-330.9z"/>
			</g>
			<g>
				<path class="st2" d="M-1996.1-327.2l-0.6-1.8h-0.1c-0.6,0.8-1.3,1.3-1.9,1.6s-1.4,0.4-2.4,0.4c-1.3,0-2.3-0.3-3-1
					s-1.1-1.7-1.1-2.9c0-1.3,0.5-2.3,1.5-3s2.5-1.1,4.5-1.1l2.2-0.1v-0.7c0-0.8-0.2-1.4-0.6-1.9s-1-0.6-1.8-0.6
					c-0.7,0-1.3,0.1-1.9,0.3c-0.6,0.2-1.2,0.4-1.8,0.7l-0.9-2c0.7-0.4,1.5-0.6,2.3-0.8s1.6-0.3,2.4-0.3c1.6,0,2.9,0.4,3.7,1.1
					s1.3,1.8,1.3,3.4v8.7L-1996.1-327.2L-1996.1-327.2z M-2000.2-329.1c1,0,1.8-0.3,2.4-0.8s0.9-1.3,0.9-2.3v-1.1l-1.7,0.1
					c-1.3,0-2.2,0.3-2.8,0.7s-0.9,1-0.9,1.8c0,0.6,0.2,1,0.5,1.3S-2000.9-329.1-2000.2-329.1z"/>
			</g>
		</g>
		<g>
			<path class="st2" d="M-2021.6-283.6c-63.4,0-115-51.6-115-115s51.6-115,115-115s115,51.6,115,115S-1958.2-283.6-2021.6-283.6z
				 M-2021.6-508.6c-60.7,0-110,49.3-110,110s49.3,110,110,110s110-49.3,110-110S-1960.9-508.6-2021.6-508.6z"/>
		</g>
		<g>
			<g>
				<path class="st2" d="M-1990.5-366.2h-57.9v-12.2l20.8-21c6.2-6.3,10.2-10.7,12.1-13.1c1.9-2.4,3.2-4.7,4.1-6.8
					c0.8-2.1,1.2-4.2,1.2-6.5c0-3.3-0.9-5.8-2.7-7.4c-1.8-1.6-4.3-2.4-7.3-2.4c-3.2,0-6.3,0.7-9.3,2.2c-3,1.5-6.2,3.6-9.5,6.3
					l-9.5-11.3c4.1-3.5,7.5-5.9,10.1-7.4c2.7-1.4,5.6-2.5,8.8-3.3c3.2-0.8,6.7-1.2,10.6-1.2c5.2,0,9.7,0.9,13.7,2.8
					c4,1.9,7,4.5,9.2,7.9c2.2,3.4,3.3,7.3,3.3,11.7c0,3.8-0.7,7.4-2,10.7c-1.3,3.3-3.4,6.8-6.2,10.3c-2.8,3.5-7.8,8.5-14.9,15
					l-10.6,10v0.8h36.1L-1990.5-366.2L-1990.5-366.2z"/>
			</g>
		</g>
	</g>
	<g>
		<g>
			<path class="st3" d="M-1679.7-398.6c0,62.1-50.4,112.5-112.5,112.5s-112.5-50.4-112.5-112.5c0-62.1,50.4-112.5,112.5-112.5
				C-1730.1-511.1-1679.7-460.7-1679.7-398.6z"/>
		</g>
		<g>
			<path class="st4" d="M-1679.7-398.6c0,62.1-50.4,112.5-112.5,112.5s-112.5-50.4-112.5-112.5c0-62.1,50.4-112.5,112.5-112.5
				C-1730.1-511.1-1679.7-460.7-1679.7-398.6z"/>
		</g>
		<g>
			<g>
				<path class="st2" d="M-1816.9-334.4l1.6-1.9l3.9-4.2h3.2l-5.2,5.6l5.5,7.4h-3.2l-4.2-5.7l-1.5,1.2v4.4h-2.7v-18.2h2.7v8.9
					L-1816.9-334.4L-1816.9-334.4L-1816.9-334.4z"/>
			</g>
			<g>
				<path class="st2" d="M-1803.1-327.6h-2.8v-18.2h2.8V-327.6z"/>
			</g>
			<g>
				<path class="st2" d="M-1791-327.6l-0.6-1.8h-0.1c-0.6,0.8-1.3,1.3-1.9,1.6s-1.4,0.4-2.4,0.4c-1.3,0-2.3-0.3-3-1
					s-1.1-1.7-1.1-2.9c0-1.3,0.5-2.3,1.5-3s2.5-1.1,4.5-1.1l2.2-0.1v-0.7c0-0.8-0.2-1.4-0.6-1.9s-1-0.6-1.8-0.6
					c-0.7,0-1.3,0.1-1.9,0.3s-1.2,0.4-1.8,0.7l-0.9-2c0.7-0.4,1.5-0.6,2.3-0.8s1.6-0.3,2.4-0.3c1.6,0,2.9,0.4,3.7,1.1
					s1.3,1.8,1.3,3.4v8.7L-1791-327.6L-1791-327.6z M-1795.1-329.4c1,0,1.8-0.3,2.4-0.8s0.9-1.3,0.9-2.3v-1.1l-1.7,0.1
					c-1.3,0-2.2,0.3-2.8,0.7s-0.9,1-0.9,1.8c0,0.6,0.2,1,0.5,1.3S-1795.8-329.4-1795.1-329.4z"/>
			</g>
			<g>
				<path class="st2" d="M-1776.5-331.3c0,1.3-0.5,2.2-1.4,2.9s-2.2,1-4,1c-1.7,0-3.1-0.3-4.2-0.8v-2.4c1.5,0.7,2.9,1.1,4.3,1.1
					c1.7,0,2.5-0.5,2.5-1.5c0-0.3-0.1-0.6-0.3-0.8s-0.5-0.4-0.9-0.7s-1-0.5-1.8-0.8c-1.5-0.6-2.5-1.2-3-1.7s-0.8-1.3-0.8-2.3
					c0-1.1,0.4-2,1.3-2.6s2.1-0.9,3.7-0.9c1.5,0,3,0.3,4.3,0.9l-0.9,2.1c-1.4-0.6-2.6-0.9-3.5-0.9c-1.5,0-2.2,0.4-2.2,1.2
					c0,0.4,0.2,0.8,0.6,1s1.2,0.7,2.5,1.2c1.1,0.4,1.8,0.8,2.3,1.1s0.8,0.7,1.1,1.2S-1776.5-331.9-1776.5-331.3z"/>
			</g>
			<g>
				<path class="st2" d="M-1765.4-327.6l-0.6-1.8h-0.1c-0.6,0.8-1.3,1.3-1.9,1.6s-1.4,0.4-2.4,0.4c-1.3,0-2.3-0.3-3-1
					s-1.1-1.7-1.1-2.9c0-1.3,0.5-2.3,1.5-3s2.5-1.1,4.5-1.1l2.2-0.1v-0.7c0-0.8-0.2-1.4-0.6-1.9s-1-0.6-1.8-0.6
					c-0.7,0-1.3,0.1-1.9,0.3s-1.2,0.4-1.8,0.7l-0.9-2c0.7-0.4,1.5-0.6,2.3-0.8s1.6-0.3,2.4-0.3c1.6,0,2.9,0.4,3.7,1.1
					s1.3,1.8,1.3,3.4v8.7L-1765.4-327.6L-1765.4-327.6z M-1769.5-329.4c1,0,1.8-0.3,2.4-0.8s0.9-1.3,0.9-2.3v-1.1l-1.7,0.1
					c-1.3,0-2.2,0.3-2.8,0.7s-0.9,1-0.9,1.8c0,0.6,0.2,1,0.5,1.3S-1770.2-329.4-1769.5-329.4z"/>
			</g>
		</g>
		<g>
			<g>
				<path class="st2" d="M-1760-366.2h-57.9v-12.2l20.8-21c6.2-6.3,10.2-10.7,12.1-13.1c1.9-2.4,3.2-4.7,4.1-6.8
					c0.8-2.1,1.2-4.2,1.2-6.5c0-3.3-0.9-5.8-2.7-7.4c-1.8-1.6-4.3-2.4-7.3-2.4c-3.2,0-6.3,0.7-9.3,2.2c-3,1.5-6.2,3.6-9.5,6.3
					l-9.5-11.3c4.1-3.5,7.5-5.9,10.1-7.4c2.7-1.4,5.6-2.5,8.8-3.3c3.2-0.8,6.7-1.2,10.6-1.2c5.2,0,9.7,0.9,13.7,2.8
					c4,1.9,7,4.5,9.2,7.9c2.2,3.4,3.3,7.3,3.3,11.7c0,3.8-0.7,7.4-2,10.7c-1.3,3.3-3.4,6.8-6.2,10.3c-2.8,3.5-7.8,8.5-14.9,15
					l-10.6,10v0.8h36.1L-1760-366.2L-1760-366.2z"/>
			</g>
		</g>
	</g>
	<g>
		<g>
			<path class="st2" d="M-1449.7-398.6c0,62.1-50.4,112.5-112.5,112.5c-62.1,0-112.5-50.4-112.5-112.5s50.4-112.5,112.5-112.5
				C-1500.1-511.1-1449.7-460.7-1449.7-398.6z"/>
		</g>
		<g>
			<path class="st4" d="M-1562.2-283.6c-63.4,0-115-51.6-115-115s51.6-115,115-115s115,51.6,115,115S-1498.8-283.6-1562.2-283.6z
				 M-1562.2-508.6c-60.7,0-110,49.3-110,110s49.3,110,110,110s110-49.3,110-110S-1501.6-508.6-1562.2-508.6z"/>
		</g>
		<g>
			<g>
				<path class="st4" d="M-1584.8-334.4l1.6-1.9l3.9-4.2h3.2l-5.2,5.6l5.5,7.4h-3.2l-4.2-5.7l-1.5,1.2v4.4h-2.7v-18.2h2.7v8.9
					L-1584.8-334.4L-1584.8-334.4L-1584.8-334.4z"/>
			</g>
			<g>
				<path class="st4" d="M-1570.9-327.6h-2.8v-18.2h2.8V-327.6z"/>
			</g>
			<g>
				<path class="st4" d="M-1558.9-327.6l-0.6-1.8h-0.1c-0.6,0.8-1.3,1.3-1.9,1.6s-1.4,0.4-2.4,0.4c-1.3,0-2.3-0.3-3-1
					s-1.1-1.7-1.1-2.9c0-1.3,0.5-2.3,1.5-3s2.5-1.1,4.5-1.1l2.2-0.1v-0.7c0-0.8-0.2-1.4-0.6-1.9s-1-0.6-1.8-0.6
					c-0.7,0-1.3,0.1-1.9,0.3s-1.2,0.4-1.8,0.7l-0.9-2c0.7-0.4,1.5-0.6,2.3-0.8s1.6-0.3,2.4-0.3c1.6,0,2.9,0.4,3.7,1.1
					s1.3,1.8,1.3,3.4v8.7L-1558.9-327.6L-1558.9-327.6z M-1563-329.4c1,0,1.8-0.3,2.4-0.8s0.9-1.3,0.9-2.3v-1.1l-1.7,0.1
					c-1.3,0-2.2,0.3-2.8,0.7s-0.9,1-0.9,1.8c0,0.6,0.2,1,0.5,1.3S-1563.7-329.4-1563-329.4z"/>
			</g>
			<g>
				<path class="st4" d="M-1544.4-331.3c0,1.3-0.5,2.2-1.4,2.9s-2.2,1-4,1c-1.7,0-3.1-0.3-4.2-0.8v-2.4c1.5,0.7,2.9,1.1,4.3,1.1
					c1.7,0,2.5-0.5,2.5-1.5c0-0.3-0.1-0.6-0.3-0.8s-0.5-0.4-0.9-0.7s-1-0.5-1.8-0.8c-1.5-0.6-2.5-1.2-3-1.7s-0.8-1.3-0.8-2.3
					c0-1.1,0.4-2,1.3-2.6s2.1-0.9,3.7-0.9c1.5,0,3,0.3,4.3,0.9l-0.9,2.1c-1.4-0.6-2.6-0.9-3.5-0.9c-1.5,0-2.2,0.4-2.2,1.2
					c0,0.4,0.2,0.8,0.6,1s1.2,0.7,2.5,1.2c1.1,0.4,1.8,0.8,2.3,1.1s0.8,0.7,1.1,1.2S-1544.4-331.9-1544.4-331.3z"/>
			</g>
			<g>
				<path class="st4" d="M-1533.3-327.6l-0.6-1.8h-0.1c-0.6,0.8-1.3,1.3-1.9,1.6s-1.4,0.4-2.4,0.4c-1.3,0-2.3-0.3-3-1
					s-1.1-1.7-1.1-2.9c0-1.3,0.5-2.3,1.5-3s2.5-1.1,4.5-1.1l2.2-0.1v-0.7c0-0.8-0.2-1.4-0.6-1.9s-1-0.6-1.8-0.6
					c-0.7,0-1.3,0.1-1.9,0.3s-1.2,0.4-1.8,0.7l-0.9-2c0.7-0.4,1.5-0.6,2.3-0.8s1.6-0.3,2.4-0.3c1.6,0,2.9,0.4,3.7,1.1
					s1.3,1.8,1.3,3.4v8.7L-1533.3-327.6L-1533.3-327.6z M-1537.4-329.4c1,0,1.8-0.3,2.4-0.8s0.9-1.3,0.9-2.3v-1.1l-1.7,0.1
					c-1.3,0-2.2,0.3-2.8,0.7s-0.9,1-0.9,1.8c0,0.6,0.2,1,0.5,1.3S-1538.1-329.4-1537.4-329.4z"/>
			</g>
		</g>
		<g>
			<g>
				<path class="st4" d="M-1528.7-366.2h-57.9v-12.2l20.8-21c6.2-6.3,10.2-10.7,12.1-13.1c1.9-2.4,3.2-4.7,4.1-6.8
					c0.8-2.1,1.2-4.2,1.2-6.5c0-3.3-0.9-5.8-2.7-7.4c-1.8-1.6-4.3-2.4-7.3-2.4c-3.2,0-6.3,0.7-9.3,2.2c-3,1.5-6.2,3.6-9.5,6.3
					l-9.5-11.3c4.1-3.5,7.5-5.9,10.1-7.4c2.7-1.4,5.6-2.5,8.8-3.3c3.2-0.8,6.7-1.2,10.6-1.2c5.2,0,9.7,0.9,13.7,2.8
					c4,1.9,7,4.5,9.2,7.9c2.2,3.4,3.3,7.3,3.3,11.7c0,3.8-0.7,7.4-2,10.7c-1.3,3.3-3.4,6.8-6.2,10.3c-2.8,3.5-7.8,8.5-14.9,15
					l-10.6,10v0.8h36.1L-1528.7-366.2L-1528.7-366.2z"/>
			</g>
		</g>
	</g>
</g>
</svg>
