<?xml version="1.0" encoding="utf-8"?>
<!-- Generator: Adobe Illustrator 19.0.1, SVG Export Plug-In . SVG Version: 6.00 Build 0)  -->
<svg version="1.1" id="Warstwa_1" xmlns="http://www.w3.org/2000/svg" xmlns:xlink="http://www.w3.org/1999/xlink" x="0px" y="0px"
	 viewBox="-2136.6 -261.6 689.3 230" style="enable-background:new -2136.6 -261.6 689.3 230;" xml:space="preserve">
<style type="text/css">
	.st0{fill:#41507A;}
	.st1{fill:#293A5B;}
	.st2{fill:#FFFFFF;}
	.st3{fill:#214785;}
</style>
<g id="Warstwa_2">
</g>
<g>
	<g>
		<g>
			<path class="st0" d="M-1909.1-146.6c0,62.1-50.4,112.5-112.5,112.5s-112.5-50.4-112.5-112.5c0-62.1,50.4-112.5,112.5-112.5
				S-1909.1-208.7-1909.1-146.6z"/>
		</g>
		<g>
			<g>
				<path class="st1" d="M-2007.4-87.4l5.7,5.7l1.5-0.8l-2.8-2.8c0.6-0.3,1-1.8,1-1.8l-26.6-26.6l0.3-35.6l-15.5-15.5l21.1-23.3
					l4.5-2.3l7.2-6.1l92.9,92.9c-11.3,22.5-20.5,37.8-45.7,54.7c-14,9.4-45.9,14.2-45.9,14.2l-40.5-40.5l2.8-18.2l6.2,6.2l2.3-1
					l3.7,3.7l1.6-8.9l6.5,6.5l6.4-0.2l43.7,43.7l0.8,0.5l-39.6-39.6"/>
			</g>
		</g>
		<g>
			<g>
				<path class="st2" d="M-2011-113.7h-17.5v-47.9l0.2-7.9l0.3-8.6c-2.9,2.9-4.9,4.8-6.1,5.7l-9.5,7.6l-8.4-10.5l26.7-21.2h14.4
					L-2011-113.7L-2011-113.7z"/>
			</g>
		</g>
		<g>
			<g>
				<path class="st2" d="M-2047.6-82l1.6-1.9l3.9-4.2h3.2l-5.2,5.6l5.5,7.4h-3.2l-4.2-5.7l-1.5,1.2v4.4h-2.7v-18.2h2.7v8.9
					L-2047.6-82L-2047.6-82z"/>
			</g>
			<g>
				<path class="st2" d="M-2033.8-75.2h-2.8v-18.2h2.8V-75.2z"/>
			</g>
			<g>
				<path class="st2" d="M-2021.7-75.2l-0.6-1.8h-0.1c-0.6,0.8-1.3,1.3-1.9,1.6s-1.4,0.4-2.4,0.4c-1.3,0-2.3-0.3-3-1
					s-1.1-1.7-1.1-2.9c0-1.3,0.5-2.3,1.5-3s2.5-1.1,4.5-1.1l2.2-0.1v-0.7c0-0.8-0.2-1.4-0.6-1.9s-1-0.6-1.8-0.6
					c-0.7,0-1.3,0.1-1.9,0.3s-1.2,0.4-1.8,0.7l-0.9-2c0.7-0.4,1.5-0.6,2.3-0.8s1.6-0.3,2.4-0.3c1.6,0,2.9,0.4,3.7,1.1
					s1.3,1.8,1.3,3.4v8.7L-2021.7-75.2L-2021.7-75.2z M-2025.8-77.1c1,0,1.8-0.3,2.4-0.8s0.9-1.3,0.9-2.4v-1.1l-1.7,0.1
					c-1.3,0-2.2,0.3-2.8,0.6s-0.9,1-0.9,1.8c0,0.6,0.2,1,0.5,1.3S-2026.5-77.1-2025.8-77.1z"/>
			</g>
			<g>
				<path class="st2" d="M-2007.2-78.9c0,1.3-0.5,2.2-1.4,2.9s-2.2,1-4,1c-1.7,0-3.1-0.3-4.2-0.8v-2.4c1.5,0.7,2.9,1.1,4.3,1.1
					c1.7,0,2.5-0.5,2.5-1.5c0-0.3-0.1-0.6-0.3-0.8s-0.5-0.4-0.9-0.7s-1-0.5-1.8-0.8c-1.5-0.6-2.5-1.2-3-1.7s-0.8-1.3-0.8-2.3
					c0-1.1,0.4-2,1.3-2.6s2.1-0.9,3.6-0.9c1.5,0,3,0.3,4.3,0.9l-0.9,2.1c-1.4-0.6-2.6-0.9-3.5-0.9c-1.5,0-2.2,0.4-2.2,1.2
					c0,0.4,0.2,0.8,0.6,1s1.2,0.7,2.5,1.2c1.1,0.4,1.8,0.8,2.3,1.1s0.8,0.7,1.1,1.2S-2007.2-79.5-2007.2-78.9z"/>
			</g>
			<g>
				<path class="st2" d="M-1996.1-75.2l-0.6-1.8h-0.1c-0.6,0.8-1.3,1.3-1.9,1.6s-1.4,0.4-2.4,0.4c-1.3,0-2.3-0.3-3-1
					s-1.1-1.7-1.1-2.9c0-1.3,0.5-2.3,1.5-3s2.5-1.1,4.5-1.1l2.2-0.1v-0.7c0-0.8-0.2-1.4-0.6-1.9s-1-0.6-1.8-0.6
					c-0.7,0-1.3,0.1-1.9,0.3c-0.6,0.2-1.2,0.4-1.8,0.7l-0.9-2c0.7-0.4,1.5-0.6,2.3-0.8s1.6-0.3,2.4-0.3c1.6,0,2.9,0.4,3.7,1.1
					s1.3,1.8,1.3,3.4v8.7L-1996.1-75.2L-1996.1-75.2z M-2000.2-77.1c1,0,1.8-0.3,2.4-0.8s0.9-1.3,0.9-2.4v-1.1l-1.7,0.1
					c-1.3,0-2.2,0.3-2.8,0.6s-0.9,1-0.9,1.8c0,0.6,0.2,1,0.5,1.3S-2000.9-77.1-2000.2-77.1z"/>
			</g>
		</g>
		<g>
			<path class="st2" d="M-2021.6-31.6c-63.4,0-115-51.6-115-115s51.6-115,115-115s115,51.6,115,115S-1958.2-31.6-2021.6-31.6z
				 M-2021.6-256.6c-60.7,0-110,49.3-110,110s49.3,110,110,110s110-49.3,110-110S-1960.9-256.6-2021.6-256.6z"/>
		</g>
	</g>
	<g>
		<g>
			<path class="st3" d="M-1679.7-146.6c0,62.1-50.4,112.5-112.5,112.5s-112.5-50.4-112.5-112.5c0-62.1,50.4-112.5,112.5-112.5
				C-1730.1-259.1-1679.7-208.7-1679.7-146.6z"/>
		</g>
		<g>
			<path class="st2" d="M-1792.2-31.6c-63.4,0-115-51.6-115-115s51.6-115,115-115s115,51.6,115,115S-1728.8-31.6-1792.2-31.6z
				 M-1792.2-256.6c-60.7,0-110,49.3-110,110s49.3,110,110,110s110-49.3,110-110S-1731.6-256.6-1792.2-256.6z"/>
		</g>
		<g>
			<g>
				<path class="st2" d="M-1781.2-113.8h-17.5v-47.9l0.2-7.9l0.3-8.6c-2.9,2.9-4.9,4.8-6.1,5.7l-9.5,7.6l-8.4-10.5l26.7-21.2h14.4
					V-113.8z"/>
			</g>
		</g>
		<g>
			<g>
				<path class="st2" d="M-1816.9-82.4l1.6-1.9l3.9-4.2h3.2l-5.2,5.6l5.5,7.4h-3.2l-4.2-5.7l-1.5,1.2v4.4h-2.7v-18.2h2.7v8.9
					L-1816.9-82.4L-1816.9-82.4z"/>
			</g>
			<g>
				<path class="st2" d="M-1803.1-75.6h-2.8v-18.2h2.8V-75.6z"/>
			</g>
			<g>
				<path class="st2" d="M-1791-75.6l-0.6-1.8h-0.1c-0.6,0.8-1.3,1.3-1.9,1.6s-1.4,0.4-2.4,0.4c-1.3,0-2.3-0.3-3-1s-1.1-1.7-1.1-2.9
					c0-1.3,0.5-2.3,1.5-3s2.5-1.1,4.5-1.1l2.2-0.1v-0.7c0-0.8-0.2-1.4-0.6-1.9s-1-0.6-1.8-0.6c-0.7,0-1.3,0.1-1.9,0.3
					s-1.2,0.4-1.8,0.7l-0.9-2c0.7-0.4,1.5-0.6,2.3-0.8s1.6-0.3,2.4-0.3c1.6,0,2.9,0.4,3.7,1.1s1.3,1.8,1.3,3.4v8.7L-1791-75.6
					L-1791-75.6z M-1795.1-77.4c1,0,1.8-0.3,2.4-0.8s0.9-1.3,0.9-2.4v-1.1l-1.7,0.1c-1.3,0-2.2,0.3-2.8,0.6s-0.9,1-0.9,1.8
					c0,0.6,0.2,1,0.5,1.3S-1795.8-77.4-1795.1-77.4z"/>
			</g>
			<g>
				<path class="st2" d="M-1776.5-79.3c0,1.3-0.5,2.2-1.4,2.9s-2.2,1-4,1c-1.7,0-3.1-0.3-4.2-0.8v-2.4c1.5,0.7,2.9,1.1,4.3,1.1
					c1.7,0,2.5-0.5,2.5-1.5c0-0.3-0.1-0.6-0.3-0.8s-0.5-0.4-0.9-0.7s-1-0.5-1.8-0.8c-1.5-0.6-2.5-1.2-3-1.7s-0.8-1.3-0.8-2.3
					c0-1.1,0.4-2,1.3-2.6s2.1-0.9,3.7-0.9c1.5,0,3,0.3,4.3,0.9l-0.9,2.1c-1.4-0.6-2.6-0.9-3.5-0.9c-1.5,0-2.2,0.4-2.2,1.2
					c0,0.4,0.2,0.8,0.6,1s1.2,0.7,2.5,1.2c1.1,0.4,1.8,0.8,2.3,1.1s0.8,0.7,1.1,1.2S-1776.5-79.9-1776.5-79.3z"/>
			</g>
			<g>
				<path class="st2" d="M-1765.4-75.6l-0.6-1.8h-0.1c-0.6,0.8-1.3,1.3-1.9,1.6s-1.4,0.4-2.4,0.4c-1.3,0-2.3-0.3-3-1
					s-1.1-1.7-1.1-2.9c0-1.3,0.5-2.3,1.5-3s2.5-1.1,4.5-1.1l2.2-0.1v-0.7c0-0.8-0.2-1.4-0.6-1.9s-1-0.6-1.8-0.6
					c-0.7,0-1.3,0.1-1.9,0.3s-1.2,0.4-1.8,0.7l-0.9-2c0.7-0.4,1.5-0.6,2.3-0.8s1.6-0.3,2.4-0.3c1.6,0,2.9,0.4,3.7,1.1
					s1.3,1.8,1.3,3.4v8.7L-1765.4-75.6L-1765.4-75.6z M-1769.5-77.4c1,0,1.8-0.3,2.4-0.8s0.9-1.3,0.9-2.4v-1.1l-1.7,0.1
					c-1.3,0-2.2,0.3-2.8,0.6s-0.9,1-0.9,1.8c0,0.6,0.2,1,0.5,1.3S-1770.2-77.4-1769.5-77.4z"/>
			</g>
		</g>
	</g>
	<g>
		<g>
			<path class="st2" d="M-1449.7-146.6c0,62.1-50.4,112.5-112.5,112.5c-62.1,0-112.5-50.4-112.5-112.5s50.4-112.5,112.5-112.5
				C-1500.1-259.1-1449.7-208.7-1449.7-146.6z"/>
		</g>
		<g>
			<path class="st3" d="M-1562.2-31.6c-63.4,0-115-51.6-115-115s51.6-115,115-115s115,51.6,115,115S-1498.8-31.6-1562.2-31.6z
				 M-1562.2-256.6c-60.7,0-110,49.3-110,110s49.3,110,110,110s110-49.3,110-110S-1501.6-256.6-1562.2-256.6z"/>
		</g>
		<g>
			<g>
				<path class="st3" d="M-1549.1-113.8h-17.5v-47.9l0.2-7.9l0.3-8.6c-2.9,2.9-4.9,4.8-6.1,5.7l-9.5,7.6l-8.4-10.5l26.7-21.2h14.4
					V-113.8z"/>
			</g>
		</g>
		<g>
			<g>
				<path class="st3" d="M-1584.8-82.4l1.6-1.9l3.9-4.2h3.2l-5.2,5.6l5.5,7.4h-3.2l-4.2-5.7l-1.5,1.2v4.4h-2.7v-18.2h2.7v8.9
					L-1584.8-82.4L-1584.8-82.4z"/>
			</g>
			<g>
				<path class="st3" d="M-1570.9-75.6h-2.8v-18.2h2.8V-75.6z"/>
			</g>
			<g>
				<path class="st3" d="M-1558.9-75.6l-0.6-1.8h-0.1c-0.6,0.8-1.3,1.3-1.9,1.6s-1.4,0.4-2.4,0.4c-1.3,0-2.3-0.3-3-1
					s-1.1-1.7-1.1-2.9c0-1.3,0.5-2.3,1.5-3s2.5-1.1,4.5-1.1l2.2-0.1v-0.7c0-0.8-0.2-1.4-0.6-1.9s-1-0.6-1.8-0.6
					c-0.7,0-1.3,0.1-1.9,0.3s-1.2,0.4-1.8,0.7l-0.9-2c0.7-0.4,1.5-0.6,2.3-0.8s1.6-0.3,2.4-0.3c1.6,0,2.9,0.4,3.7,1.1
					s1.3,1.8,1.3,3.4v8.7L-1558.9-75.6L-1558.9-75.6z M-1563-77.4c1,0,1.8-0.3,2.4-0.8s0.9-1.3,0.9-2.4v-1.1l-1.7,0.1
					c-1.3,0-2.2,0.3-2.8,0.6s-0.9,1-0.9,1.8c0,0.6,0.2,1,0.5,1.3S-1563.7-77.4-1563-77.4z"/>
			</g>
			<g>
				<path class="st3" d="M-1544.4-79.3c0,1.3-0.5,2.2-1.4,2.9s-2.2,1-4,1c-1.7,0-3.1-0.3-4.2-0.8v-2.4c1.5,0.7,2.9,1.1,4.3,1.1
					c1.7,0,2.5-0.5,2.5-1.5c0-0.3-0.1-0.6-0.3-0.8s-0.5-0.4-0.9-0.7s-1-0.5-1.8-0.8c-1.5-0.6-2.5-1.2-3-1.7s-0.8-1.3-0.8-2.3
					c0-1.1,0.4-2,1.3-2.6s2.1-0.9,3.7-0.9c1.5,0,3,0.3,4.3,0.9l-0.9,2.1c-1.4-0.6-2.6-0.9-3.5-0.9c-1.5,0-2.2,0.4-2.2,1.2
					c0,0.4,0.2,0.8,0.6,1s1.2,0.7,2.5,1.2c1.1,0.4,1.8,0.8,2.3,1.1s0.8,0.7,1.1,1.2S-1544.4-79.9-1544.4-79.3z"/>
			</g>
			<g>
				<path class="st3" d="M-1533.3-75.6l-0.6-1.8h-0.1c-0.6,0.8-1.3,1.3-1.9,1.6s-1.4,0.4-2.4,0.4c-1.3,0-2.3-0.3-3-1
					s-1.1-1.7-1.1-2.9c0-1.3,0.5-2.3,1.5-3s2.5-1.1,4.5-1.1l2.2-0.1v-0.7c0-0.8-0.2-1.4-0.6-1.9s-1-0.6-1.8-0.6
					c-0.7,0-1.3,0.1-1.9,0.3s-1.2,0.4-1.8,0.7l-0.9-2c0.7-0.4,1.5-0.6,2.3-0.8s1.6-0.3,2.4-0.3c1.6,0,2.9,0.4,3.7,1.1
					s1.3,1.8,1.3,3.4v8.7L-1533.3-75.6L-1533.3-75.6z M-1537.4-77.4c1,0,1.8-0.3,2.4-0.8s0.9-1.3,0.9-2.4v-1.1l-1.7,0.1
					c-1.3,0-2.2,0.3-2.8,0.6s-0.9,1-0.9,1.8c0,0.6,0.2,1,0.5,1.3S-1538.1-77.4-1537.4-77.4z"/>
			</g>
		</g>
	</g>
</g>
</svg>
