<?xml version="1.0" encoding="utf-8"?>
<!-- Generator: Adobe Illustrator 16.0.3, SVG Export Plug-In . SVG Version: 6.00 Build 0)  -->
<!DOCTYPE svg PUBLIC "-//W3C//DTD SVG 1.1//EN" "http://www.w3.org/Graphics/SVG/1.1/DTD/svg11.dtd">
<svg version="1.1" id="Warstwa_1" xmlns="http://www.w3.org/2000/svg" xmlns:xlink="http://www.w3.org/1999/xlink" x="0px" y="0px"
	 width="500px" height="125px" viewBox="-17.837 -0.425 500 125" enable-background="new -17.837 -0.425 500 125"
	 xml:space="preserve">
<g>
	<circle fill="#C83C78" stroke="#FFFFFF" stroke-width="5" stroke-miterlimit="10" cx="44.663" cy="62.075" r="60"/>
	<g>
		<g>
			<path id="SVGID_1_" fill="none" stroke="#FFFFFF" stroke-width="5" stroke-miterlimit="10" d="M44.663,2.076"/>
		</g>
	</g>
</g>
<g>
	<circle fill="#C83C78" cx="169.663" cy="62.075" r="60"/>
	<path fill="#AA3164" d="M229.663,62.075c0-1.336-0.06-2.657-0.146-3.976l-27.52-27.517l-8.616,8.653l-20.439-20.442l-4.423,15.656
		l7.942,7.943l-16.227,5.519l-8.51-8.51l-4.564,3.273l7.839,7.84l-5.39,16.325l-6.562-6.562l-15.956,3.992l20.521,20.519
		l-8.596,8.69l28.541,28.541c0.698,0.024,1.397,0.056,2.104,0.056C202.801,122.076,229.663,95.212,229.663,62.075z"/>
	<g>
		
			<path fill="none" stroke="#FFFFFF" stroke-width="5.6251" stroke-linecap="round" stroke-linejoin="round" stroke-miterlimit="10" d="
			M189.357,62.075c0,10.391-8.425,18.816-18.815,18.816s-18.815-8.425-18.815-18.816c0-10.388,8.425-18.813,18.815-18.813
			C180.932,43.261,189.357,51.687,189.357,62.075z"/>
		
			<line fill="none" stroke="#FFFFFF" stroke-width="5.6251" stroke-linecap="round" stroke-linejoin="round" stroke-miterlimit="10" x1="170.542" y1="32.476" x2="170.542" y2="20.389"/>
		
			<line fill="none" stroke="#FFFFFF" stroke-width="5.6251" stroke-linecap="round" stroke-linejoin="round" stroke-miterlimit="10" x1="149.611" y1="41.144" x2="141.066" y2="32.6"/>
		
			<line fill="none" stroke="#FFFFFF" stroke-width="5.6251" stroke-linecap="round" stroke-linejoin="round" stroke-miterlimit="10" x1="140.94" y1="62.075" x2="128.856" y2="62.075"/>
		
			<line fill="none" stroke="#FFFFFF" stroke-width="5.6251" stroke-linecap="round" stroke-linejoin="round" stroke-miterlimit="10" x1="149.611" y1="83.005" x2="141.066" y2="91.55"/>
		
			<line fill="none" stroke="#FFFFFF" stroke-width="5.6251" stroke-linecap="round" stroke-linejoin="round" stroke-miterlimit="10" x1="170.542" y1="91.675" x2="170.542" y2="103.761"/>
		
			<line fill="none" stroke="#FFFFFF" stroke-width="5.6251" stroke-linecap="round" stroke-linejoin="round" stroke-miterlimit="10" x1="191.475" y1="83.005" x2="200.018" y2="91.55"/>
		
			<line fill="none" stroke="#FFFFFF" stroke-width="5.6251" stroke-linecap="round" stroke-linejoin="round" stroke-miterlimit="10" x1="200.144" y1="62.075" x2="212.227" y2="62.075"/>
		
			<line fill="none" stroke="#FFFFFF" stroke-width="5.6251" stroke-linecap="round" stroke-linejoin="round" stroke-miterlimit="10" x1="191.475" y1="41.144" x2="200.018" y2="32.6"/>
	</g>
	<circle fill="none" stroke="#FFFFFF" stroke-width="5" stroke-miterlimit="10" cx="169.663" cy="62.075" r="60"/>
</g>
<g>
	<circle fill="#1B1464" cx="294.663" cy="62.076" r="60"/>
	<g>
		
			<path fill="none" stroke="#FFFFFF" stroke-width="5.6251" stroke-linecap="round" stroke-linejoin="round" stroke-miterlimit="10" d="
			M314.359,62.076c0,10.39-8.427,18.815-18.816,18.815c-10.389,0-18.814-8.425-18.814-18.815c0-10.388,8.426-18.814,18.814-18.814
			C305.932,43.262,314.359,51.688,314.359,62.076z"/>
		
			<line fill="none" stroke="#FFFFFF" stroke-width="5.6251" stroke-linecap="round" stroke-linejoin="round" stroke-miterlimit="10" x1="295.541" y1="32.476" x2="295.541" y2="20.39"/>
		
			<line fill="none" stroke="#FFFFFF" stroke-width="5.6251" stroke-linecap="round" stroke-linejoin="round" stroke-miterlimit="10" x1="274.612" y1="41.145" x2="266.067" y2="32.6"/>
		
			<line fill="none" stroke="#FFFFFF" stroke-width="5.6251" stroke-linecap="round" stroke-linejoin="round" stroke-miterlimit="10" x1="265.94" y1="62.076" x2="253.856" y2="62.076"/>
		
			<line fill="none" stroke="#FFFFFF" stroke-width="5.6251" stroke-linecap="round" stroke-linejoin="round" stroke-miterlimit="10" x1="274.612" y1="83.007" x2="266.067" y2="91.552"/>
		
			<line fill="none" stroke="#FFFFFF" stroke-width="5.6251" stroke-linecap="round" stroke-linejoin="round" stroke-miterlimit="10" x1="295.541" y1="91.675" x2="295.541" y2="103.761"/>
		
			<line fill="none" stroke="#FFFFFF" stroke-width="5.6251" stroke-linecap="round" stroke-linejoin="round" stroke-miterlimit="10" x1="316.475" y1="83.007" x2="325.019" y2="91.552"/>
		
			<line fill="none" stroke="#FFFFFF" stroke-width="5.6251" stroke-linecap="round" stroke-linejoin="round" stroke-miterlimit="10" x1="325.145" y1="62.076" x2="337.229" y2="62.076"/>
		
			<line fill="none" stroke="#FFFFFF" stroke-width="5.6251" stroke-linecap="round" stroke-linejoin="round" stroke-miterlimit="10" x1="316.475" y1="41.145" x2="325.019" y2="32.6"/>
	</g>
	<circle fill="none" stroke="#FFFFFF" stroke-width="5" stroke-miterlimit="10" cx="294.663" cy="62.076" r="60"/>
</g>
<g>
	<circle fill="#FFFFFF" cx="419.663" cy="62.076" r="60"/>
	<g>
		
			<path fill="none" stroke="#1B1464" stroke-width="5.6251" stroke-linecap="round" stroke-linejoin="round" stroke-miterlimit="10" d="
			M439.359,62.076c0,10.39-8.427,18.815-18.815,18.815c-10.391,0-18.814-8.425-18.814-18.815c0-10.388,8.426-18.814,18.814-18.814
			C430.932,43.261,439.359,51.688,439.359,62.076z"/>
		
			<line fill="none" stroke="#1B1464" stroke-width="5.6251" stroke-linecap="round" stroke-linejoin="round" stroke-miterlimit="10" x1="420.542" y1="32.476" x2="420.542" y2="20.39"/>
		
			<line fill="none" stroke="#1B1464" stroke-width="5.6251" stroke-linecap="round" stroke-linejoin="round" stroke-miterlimit="10" x1="399.613" y1="41.145" x2="391.066" y2="32.6"/>
		
			<line fill="none" stroke="#1B1464" stroke-width="5.6251" stroke-linecap="round" stroke-linejoin="round" stroke-miterlimit="10" x1="390.941" y1="62.076" x2="378.858" y2="62.076"/>
		
			<line fill="none" stroke="#1B1464" stroke-width="5.6251" stroke-linecap="round" stroke-linejoin="round" stroke-miterlimit="10" x1="399.613" y1="83.007" x2="391.066" y2="91.552"/>
		
			<line fill="none" stroke="#1B1464" stroke-width="5.6251" stroke-linecap="round" stroke-linejoin="round" stroke-miterlimit="10" x1="420.542" y1="91.675" x2="420.542" y2="103.761"/>
		
			<line fill="none" stroke="#1B1464" stroke-width="5.6251" stroke-linecap="round" stroke-linejoin="round" stroke-miterlimit="10" x1="441.475" y1="83.007" x2="450.019" y2="91.552"/>
		
			<line fill="none" stroke="#1B1464" stroke-width="5.6251" stroke-linecap="round" stroke-linejoin="round" stroke-miterlimit="10" x1="450.144" y1="62.076" x2="462.228" y2="62.076"/>
		
			<line fill="none" stroke="#1B1464" stroke-width="5.6251" stroke-linecap="round" stroke-linejoin="round" stroke-miterlimit="10" x1="441.475" y1="41.145" x2="450.019" y2="32.6"/>
	</g>
	<circle fill="none" stroke="#FFFFFF" stroke-width="5" stroke-miterlimit="10" cx="419.663" cy="62.076" r="60"/>
</g>
</svg>
