<?xml version="1.0" encoding="utf-8"?>
<!-- Generator: Adobe Illustrator 16.0.3, SVG Export Plug-In . SVG Version: 6.00 Build 0)  -->
<!DOCTYPE svg PUBLIC "-//W3C//DTD SVG 1.1//EN" "http://www.w3.org/Graphics/SVG/1.1/DTD/svg11.dtd">
<svg version="1.1" id="Warstwa_1" xmlns="http://www.w3.org/2000/svg" xmlns:xlink="http://www.w3.org/1999/xlink" x="0px" y="0px"
	 width="204px" height="68px" viewBox="-5.306 0.326 204 68" enable-background="new -5.306 0.326 204 68" xml:space="preserve">
<g>
	<circle fill="#788CD2" cx="28.694" cy="34.326" r="31.5"/>
	<path fill="#6982B8" d="M36.755,18.268l-12.966,0.652l-6.296,9.992l8.43,8.428l0.328,1.087l0.101,15.516l10.741,10.744
		C48.306,61.59,57.01,52.453,59.48,40.997L36.755,18.268z M35.992,33.235c-4.448,5.433-8.469,2.15-8.469,2.15
		c0-5.224,4.233-9.458,9.456-9.458C36.98,25.927,40.44,27.805,35.992,33.235z"/>
	
		<path fill="none" stroke="#FFFFFF" stroke-width="4.9219" stroke-linecap="round" stroke-linejoin="round" stroke-miterlimit="10" d="
		M18.909,27.292c0-5.269,4.393-9.635,9.662-9.635s9.354,4.221,9.354,9.489s-3.816,9.488-9.723,9.488v6.55"/>
	
		<line fill="none" stroke="#FFFFFF" stroke-width="4.9219" stroke-linecap="round" stroke-linejoin="round" stroke-miterlimit="10" x1="28.202" y1="52.044" x2="28.202" y2="53.028"/>
	<circle fill="none" stroke="#FFFFFF" stroke-width="5" stroke-miterlimit="10" cx="28.694" cy="34.326" r="31.5"/>
</g>
<g>
	<circle fill="#1B1464" cx="96.694" cy="34.326" r="31.5"/>
	
		<path fill="none" stroke="#FFFFFF" stroke-width="4.9219" stroke-linecap="round" stroke-linejoin="round" stroke-miterlimit="10" d="
		M86.908,27.292c0-5.269,4.393-9.635,9.663-9.635c5.268,0,9.354,4.221,9.354,9.489s-3.816,9.488-9.723,9.488v6.55"/>
	
		<line fill="none" stroke="#FFFFFF" stroke-width="4.9219" stroke-linecap="round" stroke-linejoin="round" stroke-miterlimit="10" x1="96.202" y1="52.044" x2="96.202" y2="53.028"/>
	<circle fill="none" stroke="#FFFFFF" stroke-width="5" stroke-miterlimit="10" cx="96.694" cy="34.326" r="31.5"/>
</g>
<g>
	<circle fill="#FFFFFF" cx="164.694" cy="34.326" r="31.5"/>
	
		<path fill="none" stroke="#1B1464" stroke-width="4.9219" stroke-linecap="round" stroke-linejoin="round" stroke-miterlimit="10" d="
		M154.909,27.292c0-5.269,4.394-9.635,9.662-9.635c5.268,0,9.354,4.221,9.354,9.489s-3.816,9.488-9.723,9.488v6.55"/>
	
		<line fill="none" stroke="#1B1464" stroke-width="4.9219" stroke-linecap="round" stroke-linejoin="round" stroke-miterlimit="10" x1="164.202" y1="52.044" x2="164.202" y2="53.028"/>
	<circle fill="none" stroke="#FFFFFF" stroke-width="5" stroke-miterlimit="10" cx="164.694" cy="34.326" r="31.5"/>
</g>
</svg>
