<?xml version="1.0" encoding="utf-8"?>
<!-- Generator: Adobe Illustrator 16.0.3, SVG Export Plug-In . SVG Version: 6.00 Build 0)  -->
<!DOCTYPE svg PUBLIC "-//W3C//DTD SVG 1.1//EN" "http://www.w3.org/Graphics/SVG/1.1/DTD/svg11.dtd">
<svg version="1.1" id="Warstwa_1" xmlns="http://www.w3.org/2000/svg" xmlns:xlink="http://www.w3.org/1999/xlink" x="0px" y="0px"
	 width="204px" height="68px" viewBox="-8.029 1.167 204 68" enable-background="new -8.029 1.167 204 68" xml:space="preserve">
<g>
	<g>
		<circle fill="#41507A" cx="25.971" cy="35.167" r="31.5"/>
	</g>
	<path fill="#293A5B" d="M54.761,47.946L29.188,22.374l-0.156,5.486l-1.858,7.177l-4.052,4.051H12.375l25.316,25.314
		C45.301,61.352,51.441,55.417,54.761,47.946z"/>
	
		<line fill="none" stroke="#FFFFFF" stroke-width="4.9219" stroke-linecap="round" stroke-linejoin="round" stroke-miterlimit="10" x1="32.335" y1="42.234" x2="40.094" y2="49.994"/>
	
		<circle fill="none" stroke="#FFFFFF" stroke-width="4.9219" stroke-linecap="round" stroke-linejoin="round" stroke-miterlimit="10" cx="19.687" cy="29.587" r="9.502"/>
	<g>
		<circle fill="none" stroke="#FFFFFF" stroke-width="5" stroke-miterlimit="10" cx="25.971" cy="35.167" r="31.5"/>
	</g>
</g>
<g>
	<g>
		<circle fill="#1B1464" cx="93.971" cy="35.167" r="31.5"/>
	</g>
	
		<line fill="none" stroke="#FFFFFF" stroke-width="4.9219" stroke-linecap="round" stroke-linejoin="round" stroke-miterlimit="10" x1="100.337" y1="42.234" x2="108.096" y2="49.994"/>
	
		<circle fill="none" stroke="#FFFFFF" stroke-width="4.9219" stroke-linecap="round" stroke-linejoin="round" stroke-miterlimit="10" cx="87.686" cy="29.587" r="9.502"/>
	<g>
		<circle fill="none" stroke="#FFFFFF" stroke-width="5" stroke-miterlimit="10" cx="93.971" cy="35.167" r="31.5"/>
	</g>
</g>
<g>
	<g>
		<circle fill="#FFFFFF" cx="161.971" cy="35.167" r="31.5"/>
	</g>
	
		<line fill="none" stroke="#1B1464" stroke-width="4.9219" stroke-linecap="round" stroke-linejoin="round" stroke-miterlimit="10" x1="168.337" y1="42.234" x2="176.096" y2="49.994"/>
	
		<circle fill="none" stroke="#1B1464" stroke-width="4.9219" stroke-linecap="round" stroke-linejoin="round" stroke-miterlimit="10" cx="155.688" cy="29.587" r="9.502"/>
	<g>
		<circle fill="none" stroke="#FFFFFF" stroke-width="5" stroke-miterlimit="10" cx="161.971" cy="35.167" r="31.5"/>
	</g>
</g>
</svg>
