<?xml version="1.0" encoding="utf-8"?>
<!-- Generator: Adobe Illustrator 16.0.3, SVG Export Plug-In . SVG Version: 6.00 Build 0)  -->
<!DOCTYPE svg PUBLIC "-//W3C//DTD SVG 1.1//EN" "http://www.w3.org/Graphics/SVG/1.1/DTD/svg11.dtd">
<svg version="1.1" id="Warstwa_1" xmlns="http://www.w3.org/2000/svg" xmlns:xlink="http://www.w3.org/1999/xlink" x="0px" y="0px"
	 width="500px" height="125.001px" viewBox="-20.338 -4.392 500 125.001" enable-background="new -20.338 -4.392 500 125.001"
	 xml:space="preserve">
<g>
	<circle fill="#349A68" stroke="#FFFFFF" stroke-width="5" stroke-miterlimit="10" cx="42.162" cy="58.109" r="60"/>
	<g>
		<g>
			<path id="SVGID_1_" fill="none" stroke="#FFFFFF" stroke-width="5" stroke-miterlimit="10" d="M42.161-1.892"/>
		</g>
	</g>
</g>
<g>
	<circle fill="#349A68" cx="167.161" cy="58.109" r="60"/>
	<path fill="#2C895C" d="M165.653,102.378l14.338,14.338c26.972-5.873,47.171-29.875,47.171-58.606c0-1.337-8.176-8.352-8.264-9.667
		l-27.518-27.518h-11.25l-2.733-1.328c0,0-7.424-7.659-7.424-7.425l-7.29,7.625l-4.621,1.864l-10.814-0.645l-0.773,3.141
		l5.923,7.234l-2.425,9.293l0.002,8.285l5.471,4.921l7.733,4.219l3.36,3.125l-1.408,11.328l-13.202-6.406l-4.317,2.123l0.879,8.061
		l5.468,7.783l12.422,4.926l-0.311,4.844L165.653,102.378z"/>
	
		<path fill="none" stroke="#FFFFFF" stroke-width="5.6251" stroke-linecap="round" stroke-linejoin="round" stroke-miterlimit="10" d="
		M189.539,22.953c-2.085-3.119-11.19-5.508-17.06,2.128c0-8.151-5.321-11.592-5.321-11.592s-5.32,3.44-5.32,11.592
		c-5.87-7.636-14.977-5.247-17.06-2.128c5.561,3.713,7.967,6.913,4.62,16.714c-3.595,10.528,4.115,17.704,17.76,17.704
		c13.644,0,21.354-7.176,17.758-17.704C181.572,29.866,183.974,26.666,189.539,22.953z"/>
	
		<line fill="none" stroke="#FFFFFF" stroke-width="5.6251" stroke-linecap="round" stroke-linejoin="round" stroke-miterlimit="10" x1="167.158" y1="57.371" x2="167.158" y2="99.815"/>
	
		<path fill="none" stroke="#FFFFFF" stroke-width="5.6251" stroke-linecap="round" stroke-linejoin="round" stroke-miterlimit="10" d="
		M186.759,80.753c-23.195,0.116-19.361,19.366-19.361,19.366S186.643,103.953,186.759,80.753z"/>
	
		<path fill="none" stroke="#FFFFFF" stroke-width="5.6251" stroke-linecap="round" stroke-linejoin="round" stroke-miterlimit="10" d="
		M147.56,66.537c23.195,0.117,19.362,19.365,19.362,19.365S147.676,89.737,147.56,66.537z"/>
	<circle fill="none" stroke="#FFFFFF" stroke-width="5" stroke-miterlimit="10" cx="167.161" cy="58.109" r="60"/>
</g>
<g>
	<circle fill="#1B1464" cx="292.162" cy="58.109" r="60"/>
	
		<path fill="none" stroke="#FFFFFF" stroke-width="5.6251" stroke-linecap="round" stroke-linejoin="round" stroke-miterlimit="10" d="
		M314.539,22.952c-2.085-3.118-11.188-5.508-17.061,2.127c0-8.151-5.32-11.591-5.32-11.591s-5.319,3.439-5.319,11.591
		c-5.87-7.635-14.977-5.245-17.06-2.127c5.561,3.714,7.967,6.915,4.619,16.715c-3.595,10.528,4.115,17.702,17.76,17.702
		s21.354-7.174,17.758-17.702C306.572,29.867,308.976,26.666,314.539,22.952z"/>
	
		<line fill="none" stroke="#FFFFFF" stroke-width="5.6251" stroke-linecap="round" stroke-linejoin="round" stroke-miterlimit="10" x1="292.159" y1="57.369" x2="292.159" y2="99.815"/>
	
		<path fill="none" stroke="#FFFFFF" stroke-width="5.6251" stroke-linecap="round" stroke-linejoin="round" stroke-miterlimit="10" d="
		M311.758,80.753c-23.193,0.116-19.359,19.366-19.359,19.366S311.646,103.953,311.758,80.753z"/>
	
		<path fill="none" stroke="#FFFFFF" stroke-width="5.6251" stroke-linecap="round" stroke-linejoin="round" stroke-miterlimit="10" d="
		M272.563,66.539c23.192,0.113,19.36,19.363,19.36,19.363S272.676,89.737,272.563,66.539z"/>
	<circle fill="none" stroke="#FFFFFF" stroke-width="5" stroke-miterlimit="10" cx="292.162" cy="58.109" r="60"/>
</g>
<g>
	<path fill="#FFFFFF" d="M477.162,58.109c0,33.135-26.86,60-60,60c-33.137,0-59.998-26.863-59.998-60
		c0-33.138,26.861-60.001,59.998-60.001C450.301-1.892,477.162,24.971,477.162,58.109z"/>
	<g>
		<g>
			<path id="SVGID_7_" fill="none" stroke="#1B1464" stroke-width="1.875" stroke-miterlimit="10" d="M417.162-1.892"/>
		</g>
	</g>
	
		<path fill="none" stroke="#1B1464" stroke-width="5.6251" stroke-linecap="round" stroke-linejoin="round" stroke-miterlimit="10" d="
		M439.541,22.952c-2.086-3.118-11.188-5.508-17.061,2.127c0-8.151-5.321-11.591-5.321-11.591s-5.319,3.439-5.319,11.591
		c-5.87-7.635-14.976-5.245-17.06-2.127c5.561,3.714,7.967,6.915,4.619,16.715c-3.596,10.528,4.114,17.702,17.76,17.702
		c13.644,0,21.354-7.174,17.758-17.702C431.573,29.867,433.978,26.666,439.541,22.952z"/>
	
		<line fill="none" stroke="#1B1464" stroke-width="5.6251" stroke-linecap="round" stroke-linejoin="round" stroke-miterlimit="10" x1="417.16" y1="57.369" x2="417.16" y2="99.815"/>
	
		<path fill="none" stroke="#1B1464" stroke-width="5.6251" stroke-linecap="round" stroke-linejoin="round" stroke-miterlimit="10" d="
		M436.76,80.753c-23.194,0.116-19.36,19.366-19.36,19.366S436.647,103.953,436.76,80.753z"/>
	
		<path fill="none" stroke="#1B1464" stroke-width="5.6251" stroke-linecap="round" stroke-linejoin="round" stroke-miterlimit="10" d="
		M397.565,66.539c23.191,0.113,19.359,19.363,19.359,19.363S397.677,89.737,397.565,66.539z"/>
	<path fill="none" stroke="#FFFFFF" stroke-width="5" stroke-miterlimit="10" d="M477.162,58.109c0,33.135-26.86,60-60,60
		c-33.137,0-59.998-26.863-59.998-60c0-33.138,26.861-60.001,59.998-60.001C450.301-1.892,477.162,24.971,477.162,58.109z"/>
</g>
</svg>
