<?xml version="1.0" encoding="utf-8"?>
<!-- Generator: Adobe Illustrator 16.0.3, SVG Export Plug-In . SVG Version: 6.00 Build 0)  -->
<!DOCTYPE svg PUBLIC "-//W3C//DTD SVG 1.1//EN" "http://www.w3.org/Graphics/SVG/1.1/DTD/svg11.dtd">
<svg version="1.1" id="Warstwa_1" xmlns="http://www.w3.org/2000/svg" xmlns:xlink="http://www.w3.org/1999/xlink" x="0px" y="0px"
	 width="500px" height="125px" viewBox="-10.641 0.109 500 125" enable-background="new -10.641 0.109 500 125"
	 xml:space="preserve">
<g>
	<circle fill="#67A3C6" stroke="#FFFFFF" stroke-width="5" stroke-miterlimit="10" cx="51.859" cy="62.609" r="60"/>
</g>
<g>
	<circle fill="#67A3C6" cx="176.859" cy="62.609" r="60"/>
	<path fill="#51809B" d="M236.859,62.609c0-0.686-0.028-1.364-0.053-2.043l-35.572-35.574l-3.354,4.498l-9.889-9.889l-4.6,4.294
		l-4.57-4.571l-3.773,24.652L156.03,24.958l-1.084,15.063l0.117,1.759l-10.499-1.199l-5.205,1.199l21.138,21.136l-26.763,1.919
		l3.927,3.926l-3.927,4.744l10.239,10.24l-4.614,3.236l35.577,35.576c0.64,0.021,1.278,0.049,1.923,0.049
		C209.999,122.608,236.859,95.748,236.859,62.609z"/>
	<g>
		
			<line fill="none" stroke="#FFFFFF" stroke-width="5.625" stroke-linecap="round" stroke-linejoin="round" stroke-miterlimit="10" x1="176.859" y1="21.253" x2="176.859" y2="103.964"/>
		
			<line fill="none" stroke="#FFFFFF" stroke-width="5.625" stroke-linecap="round" stroke-linejoin="round" stroke-miterlimit="10" x1="218.216" y1="62.609" x2="135.501" y2="62.609"/>
		
			<line fill="none" stroke="#FFFFFF" stroke-width="5.625" stroke-linecap="round" stroke-linejoin="round" stroke-miterlimit="10" x1="198.313" y1="84.062" x2="155.406" y2="41.158"/>
		
			<line fill="none" stroke="#FFFFFF" stroke-width="5.625" stroke-linecap="round" stroke-linejoin="round" stroke-miterlimit="10" x1="155.406" y1="84.062" x2="198.313" y2="41.158"/>
		<g>
			
				<polyline fill="none" stroke="#FFFFFF" stroke-width="5.625" stroke-linecap="round" stroke-linejoin="round" stroke-miterlimit="10" points="
				185.917,37.252 176.859,46.309 167.802,37.252 			"/>
			
				<polyline fill="none" stroke="#FFFFFF" stroke-width="5.625" stroke-linecap="round" stroke-linejoin="round" stroke-miterlimit="10" points="
				185.917,21.611 176.859,30.665 167.802,21.611 			"/>
		</g>
		<g>
			
				<polyline fill="none" stroke="#FFFFFF" stroke-width="5.625" stroke-linecap="round" stroke-linejoin="round" stroke-miterlimit="10" points="
				154.272,27.215 154.272,40.021 141.465,40.021 			"/>
		</g>
		<g>
			
				<polyline fill="none" stroke="#FFFFFF" stroke-width="5.625" stroke-linecap="round" stroke-linejoin="round" stroke-miterlimit="10" points="
				151.503,53.553 160.559,62.609 151.503,71.666 			"/>
			
				<polyline fill="none" stroke="#FFFFFF" stroke-width="5.625" stroke-linecap="round" stroke-linejoin="round" stroke-miterlimit="10" points="
				135.86,53.553 144.917,62.609 135.859,71.666 			"/>
		</g>
		<g>
			
				<polyline fill="none" stroke="#FFFFFF" stroke-width="5.625" stroke-linecap="round" stroke-linejoin="round" stroke-miterlimit="10" points="
				141.465,85.197 154.272,85.197 154.272,98.003 			"/>
		</g>
		<g>
			
				<polyline fill="none" stroke="#FFFFFF" stroke-width="5.625" stroke-linecap="round" stroke-linejoin="round" stroke-miterlimit="10" points="
				167.802,87.964 176.859,78.91 185.917,87.964 			"/>
			
				<polyline fill="none" stroke="#FFFFFF" stroke-width="5.625" stroke-linecap="round" stroke-linejoin="round" stroke-miterlimit="10" points="
				167.802,103.608 176.859,94.55 185.917,103.608 			"/>
		</g>
		<g>
			
				<polyline fill="none" stroke="#FFFFFF" stroke-width="5.625" stroke-linecap="round" stroke-linejoin="round" stroke-miterlimit="10" points="
				199.447,98.003 199.447,85.197 212.253,85.197 			"/>
		</g>
		<g>
			
				<polyline fill="none" stroke="#FFFFFF" stroke-width="5.625" stroke-linecap="round" stroke-linejoin="round" stroke-miterlimit="10" points="
				202.216,71.666 193.16,62.609 202.216,53.553 			"/>
			
				<polyline fill="none" stroke="#FFFFFF" stroke-width="5.625" stroke-linecap="round" stroke-linejoin="round" stroke-miterlimit="10" points="
				217.858,71.666 208.802,62.609 217.858,53.553 			"/>
		</g>
		<g>
			
				<polyline fill="none" stroke="#FFFFFF" stroke-width="5.625" stroke-linecap="round" stroke-linejoin="round" stroke-miterlimit="10" points="
				212.253,40.021 199.447,40.021 199.447,27.215 			"/>
		</g>
	</g>
	<circle fill="none" stroke="#FFFFFF" stroke-width="5" stroke-miterlimit="10" cx="176.859" cy="62.609" r="60"/>
</g>
<g>
	<circle fill="#1B1464" cx="301.859" cy="62.609" r="60"/>
	<g>
		
			<line fill="none" stroke="#FFFFFF" stroke-width="5.625" stroke-linecap="round" stroke-linejoin="round" stroke-miterlimit="10" x1="301.859" y1="21.252" x2="301.859" y2="103.966"/>
		
			<line fill="none" stroke="#FFFFFF" stroke-width="5.625" stroke-linecap="round" stroke-linejoin="round" stroke-miterlimit="10" x1="343.215" y1="62.609" x2="260.5" y2="62.609"/>
		
			<line fill="none" stroke="#FFFFFF" stroke-width="5.625" stroke-linecap="round" stroke-linejoin="round" stroke-miterlimit="10" x1="323.313" y1="84.062" x2="280.406" y2="41.156"/>
		
			<line fill="none" stroke="#FFFFFF" stroke-width="5.625" stroke-linecap="round" stroke-linejoin="round" stroke-miterlimit="10" x1="280.406" y1="84.062" x2="323.313" y2="41.156"/>
		<g>
			
				<polyline fill="none" stroke="#FFFFFF" stroke-width="5.625" stroke-linecap="round" stroke-linejoin="round" stroke-miterlimit="10" points="
				310.915,37.252 301.859,46.31 292.801,37.252 			"/>
			
				<polyline fill="none" stroke="#FFFFFF" stroke-width="5.625" stroke-linecap="round" stroke-linejoin="round" stroke-miterlimit="10" points="
				310.915,21.61 301.859,30.665 292.801,21.61 			"/>
		</g>
		<g>
			
				<polyline fill="none" stroke="#FFFFFF" stroke-width="5.625" stroke-linecap="round" stroke-linejoin="round" stroke-miterlimit="10" points="
				279.273,27.215 279.273,40.021 266.465,40.021 			"/>
		</g>
		<g>
			
				<polyline fill="none" stroke="#FFFFFF" stroke-width="5.625" stroke-linecap="round" stroke-linejoin="round" stroke-miterlimit="10" points="
				276.502,53.553 285.559,62.609 276.502,71.666 			"/>
			
				<polyline fill="none" stroke="#FFFFFF" stroke-width="5.625" stroke-linecap="round" stroke-linejoin="round" stroke-miterlimit="10" points="
				260.859,53.553 269.916,62.609 260.859,71.666 			"/>
		</g>
		<g>
			
				<polyline fill="none" stroke="#FFFFFF" stroke-width="5.625" stroke-linecap="round" stroke-linejoin="round" stroke-miterlimit="10" points="
				266.465,85.197 279.273,85.197 279.273,98.003 			"/>
		</g>
		<g>
			
				<polyline fill="none" stroke="#FFFFFF" stroke-width="5.625" stroke-linecap="round" stroke-linejoin="round" stroke-miterlimit="10" points="
				292.801,87.966 301.859,78.91 310.915,87.966 			"/>
			
				<polyline fill="none" stroke="#FFFFFF" stroke-width="5.625" stroke-linecap="round" stroke-linejoin="round" stroke-miterlimit="10" points="
				292.801,103.606 301.859,94.552 310.915,103.606 			"/>
		</g>
		<g>
			
				<polyline fill="none" stroke="#FFFFFF" stroke-width="5.625" stroke-linecap="round" stroke-linejoin="round" stroke-miterlimit="10" points="
				324.447,98.003 324.447,85.197 337.253,85.197 			"/>
		</g>
		<g>
			
				<polyline fill="none" stroke="#FFFFFF" stroke-width="5.625" stroke-linecap="round" stroke-linejoin="round" stroke-miterlimit="10" points="
				327.217,71.666 318.159,62.609 327.217,53.553 			"/>
			
				<polyline fill="none" stroke="#FFFFFF" stroke-width="5.625" stroke-linecap="round" stroke-linejoin="round" stroke-miterlimit="10" points="
				342.859,71.666 333.803,62.609 342.859,53.553 			"/>
		</g>
		<g>
			
				<polyline fill="none" stroke="#FFFFFF" stroke-width="5.625" stroke-linecap="round" stroke-linejoin="round" stroke-miterlimit="10" points="
				337.253,40.021 324.447,40.021 324.447,27.215 			"/>
		</g>
	</g>
	<circle fill="none" stroke="#FFFFFF" stroke-width="5" stroke-miterlimit="10" cx="301.859" cy="62.609" r="60"/>
</g>
<g>
	<circle fill="#FFFFFF" cx="426.859" cy="62.609" r="60"/>
	<g>
		
			<line fill="none" stroke="#1B1464" stroke-width="5.625" stroke-linecap="round" stroke-linejoin="round" stroke-miterlimit="10" x1="426.859" y1="21.253" x2="426.859" y2="103.964"/>
		
			<line fill="none" stroke="#1B1464" stroke-width="5.625" stroke-linecap="round" stroke-linejoin="round" stroke-miterlimit="10" x1="468.215" y1="62.609" x2="385.501" y2="62.609"/>
		
			<line fill="none" stroke="#1B1464" stroke-width="5.625" stroke-linecap="round" stroke-linejoin="round" stroke-miterlimit="10" x1="448.311" y1="84.062" x2="405.406" y2="41.157"/>
		
			<line fill="none" stroke="#1B1464" stroke-width="5.625" stroke-linecap="round" stroke-linejoin="round" stroke-miterlimit="10" x1="405.406" y1="84.062" x2="448.311" y2="41.157"/>
		<g>
			
				<polyline fill="none" stroke="#1B1464" stroke-width="5.625" stroke-linecap="round" stroke-linejoin="round" stroke-miterlimit="10" points="
				435.915,37.252 426.859,46.31 417.803,37.252 			"/>
			
				<polyline fill="none" stroke="#1B1464" stroke-width="5.625" stroke-linecap="round" stroke-linejoin="round" stroke-miterlimit="10" points="
				435.915,21.61 426.859,30.664 417.803,21.61 			"/>
		</g>
		<g>
			
				<polyline fill="none" stroke="#1B1464" stroke-width="5.625" stroke-linecap="round" stroke-linejoin="round" stroke-miterlimit="10" points="
				404.273,27.215 404.273,40.021 391.465,40.021 			"/>
		</g>
		<g>
			
				<polyline fill="none" stroke="#1B1464" stroke-width="5.625" stroke-linecap="round" stroke-linejoin="round" stroke-miterlimit="10" points="
				401.501,53.553 410.559,62.609 401.501,71.666 			"/>
			
				<polyline fill="none" stroke="#1B1464" stroke-width="5.625" stroke-linecap="round" stroke-linejoin="round" stroke-miterlimit="10" points="
				385.861,53.553 394.915,62.609 385.859,71.666 			"/>
		</g>
		<g>
			
				<polyline fill="none" stroke="#1B1464" stroke-width="5.625" stroke-linecap="round" stroke-linejoin="round" stroke-miterlimit="10" points="
				391.465,85.197 404.273,85.197 404.273,98.003 			"/>
		</g>
		<g>
			
				<polyline fill="none" stroke="#1B1464" stroke-width="5.625" stroke-linecap="round" stroke-linejoin="round" stroke-miterlimit="10" points="
				417.803,87.964 426.859,78.908 435.915,87.964 			"/>
			
				<polyline fill="none" stroke="#1B1464" stroke-width="5.625" stroke-linecap="round" stroke-linejoin="round" stroke-miterlimit="10" points="
				417.803,103.606 426.859,94.552 435.915,103.606 			"/>
		</g>
		<g>
			
				<polyline fill="none" stroke="#1B1464" stroke-width="5.625" stroke-linecap="round" stroke-linejoin="round" stroke-miterlimit="10" points="
				449.447,98.003 449.447,85.197 462.253,85.197 			"/>
		</g>
		<g>
			
				<polyline fill="none" stroke="#1B1464" stroke-width="5.625" stroke-linecap="round" stroke-linejoin="round" stroke-miterlimit="10" points="
				452.215,71.666 443.157,62.609 452.215,53.553 			"/>
			
				<polyline fill="none" stroke="#1B1464" stroke-width="5.625" stroke-linecap="round" stroke-linejoin="round" stroke-miterlimit="10" points="
				467.859,71.666 458.803,62.609 467.859,53.553 			"/>
		</g>
		<g>
			
				<polyline fill="none" stroke="#1B1464" stroke-width="5.625" stroke-linecap="round" stroke-linejoin="round" stroke-miterlimit="10" points="
				462.253,40.021 449.447,40.021 449.447,27.215 			"/>
		</g>
	</g>
	<circle fill="none" stroke="#FFFFFF" stroke-width="5" stroke-miterlimit="10" cx="426.859" cy="62.609" r="60"/>
</g>
</svg>
