<?xml version="1.0" encoding="utf-8"?>
<!-- Generator: Adobe Illustrator 19.0.1, SVG Export Plug-In . SVG Version: 6.00 Build 0)  -->
<svg version="1.1" xmlns="http://www.w3.org/2000/svg" xmlns:xlink="http://www.w3.org/1999/xlink" x="0px" y="0px"
	 viewBox="0 0 92.8 92.8" style="enable-background:new 0 0 92.8 92.8;" xml:space="preserve">
<style type="text/css">
	.st0{fill:#2E3192;}
	.st1{fill:#FFFFFF;}
	.st2{fill:#F26E25;}
	.st3{fill:#6EA1D4;}
	.st4{fill:#7DC178;}
	.st5{fill:#CA2127;}
	.st6{fill:#E16826;}
	.st7{fill:#4B85C5;}
	.st8{fill:#5B955C;}
	.st9{fill:#9E1D21;}
</style>
<g id="Layer_1">
</g>
<g id="Layer_2">
</g>
<g id="Layer_3">
	<g>
		<g id="g6226_6_" transform="matrix(0.09062452,0,0,0.09062452,5.0725801,5.0404446)">
			<g id="_x33_56._Play_6_">
				<g id="g6229_6_">
					<path id="path6231_5_" class="st2" d="M455.7-22.5c165.4,0,326.4,85.9,415,239.4c132.2,229,53.7,521.7-175.2,654
						c-75.4,43.5-157.7,64.2-238.9,64.2c-165.4,0-326.4-85.9-415-239.5c-132.2-229-53.8-521.8,175.2-654
						C292.1-1.8,374.4-22.5,455.7-22.5 M455.7-55.6c-89.3,0-177.7,23.7-255.5,68.7C81.8,81.4-2.9,191.8-38.3,323.8
						c-35.4,132.1-17.2,270,51.2,388.4c91.2,157.9,261.2,256,443.7,256c89.3,0,177.7-23.7,255.5-68.7
						c118.4-68.4,203.1-178.8,238.5-310.8c35.4-132.1,17.2-270-51.1-388.4C808.2,42.5,638.2-55.6,455.7-55.6L455.7-55.6z"/>
				</g>
			</g>
		</g>
		<path class="st6" d="M76.5,29C66.9,12.4,45.7,6.8,29.1,16.3C12.5,25.9,6.8,47.1,16.3,63.7c2.7,4.6,6.3,8.4,10.4,11.2
			c0-4.6,0.4-14.6,4.2-22.1c5.1-10,19.8-19.2,21-19.9s1.7-1,1.7-1s0.9,1.8,0.8,4.9s-0.2,15.6-4,21.7c-3.8,6.1-6.4,8.9-11.2,12.2
			c-3.8,2.6-7.8,5.1-9.4,6c10.2,5.5,23,5.8,33.8-0.5C80.4,66.9,86,45.6,76.5,29z"/>
	</g>
</g>
</svg>
