<?xml version="1.0" encoding="utf-8"?>
<!-- Generator: Adobe Illustrator 19.0.1, SVG Export Plug-In . SVG Version: 6.00 Build 0)  -->
<svg version="1.1" xmlns="http://www.w3.org/2000/svg" xmlns:xlink="http://www.w3.org/1999/xlink" x="0px" y="0px"
	 viewBox="0 0 92.8 92.8" style="enable-background:new 0 0 92.8 92.8;" xml:space="preserve">
<style type="text/css">
	.st0{fill:#2E3192;}
	.st1{fill:#FFFFFF;}
	.st2{fill:#F26E25;}
	.st3{fill:#6EA1D4;}
	.st4{fill:#7DC178;}
	.st5{fill:#CA2127;}
	.st6{fill:#E16826;}
	.st7{fill:#4B85C5;}
	.st8{fill:#5B955C;}
	.st9{fill:#9E1D21;}
</style>
<g id="Layer_1">
</g>
<g id="Layer_2">
</g>
<g id="Layer_3">
	<g>
		<g id="g6226_1_" transform="matrix(0.09062452,0,0,0.09062452,5.0725801,5.0404446)">
			<g id="_x33_56._Play_1_">
				<g id="g6229_1_">
					<path id="path6231_16_" class="st5" d="M455.7-22.5c165.4,0,326.4,85.9,415,239.4c132.2,229,53.7,521.7-175.2,654
						c-75.4,43.5-157.7,64.2-238.9,64.2c-165.4,0-326.4-85.9-415-239.5c-132.2-229-53.8-521.8,175.2-654
						C292.1-1.8,374.4-22.5,455.7-22.5 M455.7-55.6c-89.3,0-177.7,23.7-255.5,68.7C81.8,81.4-2.9,191.8-38.3,323.8
						c-35.4,132.1-17.2,270,51.2,388.4c91.2,157.9,261.2,256,443.7,256c89.3,0,177.7-23.7,255.5-68.7
						c118.4-68.4,203.1-178.8,238.5-310.8c35.4-132.1,17.2-270-51.1-388.4C808.2,42.5,638.2-55.6,455.7-55.6L455.7-55.6z"/>
				</g>
			</g>
		</g>
		<path class="st9" d="M76.5,29C66.9,12.4,45.7,6.8,29.1,16.3C12.5,25.9,6.8,47.1,16.3,63.7c6.2,10.8,17.3,16.9,28.9,17.3V69.4
			c-1.5-1.1-3-2.3-4.3-3.3c-1.6,0.2-9.4,0.7-16.5-6.3c-8-7.9-5.5-19.1-5.5-19.1s6.9-1.6,16.1,6.5c7.1,6.3,7,14.1,6.6,17.3
			c1.1,0.9,2.4,1.9,3.7,2.9v-5.2c-2-1.9-5-5.8-5.4-12.3c-0.5-9.5,7.5-15.2,7.5-15.2s5.3,2.9,6.4,13.3c0.8,7.4-3,12.1-5.3,14.2v5.4
			l4.1-2.9c-0.5-2.6-1.3-11.2,6.4-18.1c9.2-8.1,16.1-6.5,16.1-6.5s2.5,11.2-5.5,19.1c-6.1,6-12.8,6.5-15.5,6.4l-5.6,4V81
			c5.2-0.3,10.5-1.8,15.3-4.6C80.4,66.9,86,45.6,76.5,29z M38.6,46.4c0,0-6,0.5-10.8-5.2c-4.8-5.7-2.5-13-2.5-13s4.7-0.6,10.3,5.4
			C41.3,39.5,38.6,46.4,38.6,46.4z M42.8,37.3c0,0-4.4,0-7.6-4.5s-1-9.7-1-9.7s3.5-0.2,7.2,4.5C45.2,32.4,42.8,37.3,42.8,37.3z
			 M49.4,32c-1.3,1.7-2.8,2.6-2.8,2.6s-3.7-2.5-3.8-7.8c-0.1-5.4,4.8-8.3,4.8-8.3s3,1.8,3.4,7.7c0,0.7,0,1.3-0.1,1.9
			c0.1-0.2,0.3-0.4,0.4-0.6c3.8-4.7,7.2-4.5,7.2-4.5s2.1,5.2-1,9.7c-3.2,4.5-7.6,4.5-7.6,4.5S49,34.9,49.4,32z M65,41
			c-4.8,5.7-10.8,5.2-10.8,5.2s-2.6-6.9,3-12.9S67.5,28,67.5,28S69.8,35.3,65,41z"/>
	</g>
</g>
</svg>
