<?xml version="1.0" encoding="UTF-8" standalone="no"?>
<svg width="156px" height="156px" viewBox="0 0 156 156" version="1.1" xmlns="http://www.w3.org/2000/svg" xmlns:xlink="http://www.w3.org/1999/xlink" xmlns:sketch="http://www.bohemiancoding.com/sketch/ns">
    <title>Slice 1</title>
    <description>Created with Sketch (http://www.bohemiancoding.com/sketch)</description>
    <defs></defs>
    <g id="Page-1" stroke="none" stroke-width="1" fill="none" fill-rule="evenodd" sketch:type="MSPage">
        <rect id="Rectangle-1" stroke="#979797" fill="#049CDB" sketch:type="MSShapeGroup" x="0" y="0" width="156" height="156"></rect>
        <path d="M69.09375,89.8125 L69.09375,85.78125 C69.09375,82.7187347 69.7187438,80.132823 70.96875,78.0234375 C72.2187562,75.914052 74.4374841,73.859385 77.625,71.859375 C80.1562627,70.265617 81.976557,68.8281314 83.0859375,67.546875 C84.195318,66.2656186 84.75,64.7968833 84.75,63.140625 C84.75,61.8281184 84.1562559,60.7890663 82.96875,60.0234375 C81.7812441,59.2578087 80.2343845,58.875 78.328125,58.875 C73.6093514,58.875 68.0937816,60.5468583 61.78125,63.890625 L55.265625,51.140625 C63.0469139,46.7031028 71.1718327,44.484375 79.640625,44.484375 C86.6094098,44.484375 92.0781052,46.0156097 96.046875,49.078125 C100.015645,52.1406403 102,56.3124736 102,61.59375 C102,65.3750189 101.117196,68.6484237 99.3515625,71.4140625 C97.5859287,74.1797013 94.7656444,76.7968627 90.890625,79.265625 C87.6093586,81.3906356 85.5546916,82.9453076 84.7265625,83.9296875 C83.8984334,84.9140674 83.484375,86.0781183 83.484375,87.421875 L83.484375,89.8125 L69.09375,89.8125 Z M67.078125,106.21875 C67.078125,103.343736 67.9140541,101.125008 69.5859375,99.5625 C71.2578209,97.9999922 73.7187337,97.21875 76.96875,97.21875 C80.0937656,97.21875 82.4921791,98.0078046 84.1640625,99.5859375 C85.8359459,101.16407 86.671875,103.374986 86.671875,106.21875 C86.671875,109.062514 85.8046962,111.265617 84.0703125,112.828125 C82.3359288,114.390633 79.968765,115.171875 76.96875,115.171875 C73.8749845,115.171875 71.4531338,114.398445 69.703125,112.851562 C67.9531162,111.30468 67.078125,109.093764 67.078125,106.21875 Z" id="?" fill="#F7F7F7" sketch:type="MSShapeGroup"></path>
    </g>
</svg>