<?xml version="1.0" encoding="UTF-8" standalone="no"?>
<!-- Created with Inkscape (http://www.inkscape.org/) -->

<svg
   xmlns:dc="http://purl.org/dc/elements/1.1/"
   xmlns:cc="http://creativecommons.org/ns#"
   xmlns:rdf="http://www.w3.org/1999/02/22-rdf-syntax-ns#"
   xmlns:svg="http://www.w3.org/2000/svg"
   xmlns="http://www.w3.org/2000/svg"
   version="1.1"
   width="48"
   height="48"
   id="svg3102">
  <defs
     id="defs3104" />
  <metadata
     id="metadata3107">
    <rdf:RDF>
      <cc:Work
         rdf:about="">
        <dc:format>image/svg+xml</dc:format>
        <dc:type
           rdf:resource="http://purl.org/dc/dcmitype/StillImage" />
        <dc:title></dc:title>
      </cc:Work>
    </rdf:RDF>
  </metadata>
  <g
     transform="translate(-404.77112,-858.36051)"
     id="layer1">
    <path
       d="m 428.77112,875.02584 c -2.02533,0 -3.86,0.82134 -5.18667,2.148 -1.32666,1.32667 -2.148,3.16134 -2.148,5.18667 0,2.024 0.82134,3.85867 2.148,5.18533 1.32667,1.32667 3.16134,2.148 5.18667,2.148 2.02533,0 3.85867,-0.82133 5.18533,-2.148 1.32667,-1.32666 2.148,-3.16133 2.148,-5.18533 0,-2.02533 -0.82133,-3.86 -2.148,-5.18667 -1.32666,-1.32666 -3.16,-2.148 -5.18533,-2.148 z m -15.28667,10.20134 0,-5.73467 3.86934,0 c 0.256,-1.02533 0.648,-1.99733 1.15466,-2.89733 l -2.68533,-2.684 4.05467,-4.05467 2.57333,2.57333 c 1.04933,-0.66933 2.212,-1.176 3.452,-1.48666 l 0,-3.86934 5.73467,0 0,3.86934 c 1.052,0.26266 2.04933,0.668 2.968,1.19333 l 2.83466,-2.83467 4.05467,4.05467 -2.752,2.752 c 0.648,1.032 1.14133,2.17067 1.44533,3.384 l 3.868,0 0,5.73467 -3.868,0 c -0.31066,1.24 -0.81866,2.40266 -1.488,3.452 l 2.79467,2.79466 -4.05467,4.05467 -2.90533,-2.90533 c -0.89867,0.50533 -1.872,0.89733 -2.89733,1.15466 l 0,3.868 -5.73467,0 0,-3.868 c -1.21333,-0.304 -2.352,-0.79733 -3.384,-1.44533 l -2.64133,2.64133 -4.05467,-4.05466 2.724,-2.724 c -0.52533,-0.91867 -0.93067,-1.916 -1.19333,-2.968 l -3.86934,0 z"
       id="path3034"
       style="fill:#000000;stroke:none" />
  </g>
</svg>
