<?xml version="1.0" encoding="UTF-8" standalone="no"?>
<!-- Created with Inkscape (http://www.inkscape.org/) -->

<svg
   xmlns:dc="http://purl.org/dc/elements/1.1/"
   xmlns:cc="http://creativecommons.org/ns#"
   xmlns:rdf="http://www.w3.org/1999/02/22-rdf-syntax-ns#"
   xmlns:svg="http://www.w3.org/2000/svg"
   xmlns="http://www.w3.org/2000/svg"
   version="1.1"
   width="48"
   height="48"
   viewBox="0 0 38.400002 38.399998"
   id="svg2985"
   style="fill-rule:evenodd">
  <metadata
     id="metadata3033">
    <rdf:RDF>
      <cc:Work
         rdf:about="">
        <dc:format>image/svg+xml</dc:format>
        <dc:type
           rdf:resource="http://purl.org/dc/dcmitype/StillImage" />
        <dc:title></dc:title>
      </cc:Work>
    </rdf:RDF>
  </metadata>
  <defs
     id="defs3031" />
  <path
     d="m 28.97813,26.715694 c 0.624,0.624 0.624,1.63734 0,2.2624 -0.62506,0.624 -1.6384,0.624 -2.2624,0 l -7.51573,-7.5168 -7.5168,7.5168 c -0.624,0.624 -1.63733,0.624 -2.26133,0 -0.62507,-0.62506 -0.62507,-1.63733 0,-2.2624 l 7.51573,-7.51573 -7.51573,-7.51573 c -0.62507,-0.62507 -0.62507,-1.6384 0,-2.2624001 0.624,-0.62507 1.63733,-0.62507 2.26133,0 L 19.2,16.937564 26.71573,9.4207639 c 0.624,-0.624 1.63734,-0.624 2.2624,0 0.624,0.6250701 0.624,1.6384001 0,2.2624001 l -7.5168,7.5168 7.5168,7.51573 z"
     id="path3027"
     style="fill:#2c2c2b;stroke:none" />
</svg>
