<?xml version="1.0" encoding="UTF-8" standalone="no"?>
<!-- Created with Inkscape (http://www.inkscape.org/) -->

<svg
   xmlns:dc="http://purl.org/dc/elements/1.1/"
   xmlns:cc="http://creativecommons.org/ns#"
   xmlns:rdf="http://www.w3.org/1999/02/22-rdf-syntax-ns#"
   xmlns:svg="http://www.w3.org/2000/svg"
   xmlns="http://www.w3.org/2000/svg"
   version="1.1"
   width="48"
   height="48"
   id="svg3102">
  <defs
     id="defs3104" />
  <metadata
     id="metadata3107">
    <rdf:RDF>
      <cc:Work
         rdf:about="">
        <dc:format>image/svg+xml</dc:format>
        <dc:type
           rdf:resource="http://purl.org/dc/dcmitype/StillImage" />
        <dc:title></dc:title>
      </cc:Work>
    </rdf:RDF>
  </metadata>
  <g
     transform="translate(-386.07143,-849.71933)"
     id="layer1">
    <path
       d="m 392.5861,862.91933 7.70933,0 c 0.22667,-0.36267 0.49467,-0.69867 0.796,-1 l 0.012,-0.012 c 1.01867,-1.01867 2.424,-1.652 3.968,-1.652 l 6.17067,0 c 1.54267,0 2.948,0.63333 3.968,1.652 l 0.0107,0.012 c 0.30133,0.30133 0.56933,0.63733 0.79733,1 l 1.71333,0 9.82134,0 c 1.63866,0 2.968,1.32933 2.968,2.968 0,0.324 -0.052,0.636 -0.148,0.928 L 425.51413,884.95 c -0.0133,0.0507 -0.028,0.10133 -0.0439,0.152 l -0.002,0.0107 -0.0174,0.0493 -0.005,0.0187 -0.0146,0.0413 -0.01,0.0254 -0.002,0.006 c -0.14272,0.38261 -0.35872,0.72128 -0.62805,1.00394 l -0.007,0.007 -0.0347,0.0347 -0.016,0.016 -0.0267,0.0254 c -0.26667,0.26 -0.584,0.47067 -0.944,0.616 l -0.056,0.0227 -0.007,0.002 -0.048,0.0187 -0.0227,0.009 -0.0107,0.004 -0.0587,0.0187 -0.002,0.001 -0.0187,0.005 -0.0547,0.0174 -0.0733,0.0199 -0.012,0.004 -0.0121,0.002 -0.0119,0.003 -0.007,0.002 -0.004,0.001 -0.012,0.002 -0.012,0.003 c -0.04,0.01 -0.08,0.0187 -0.12,0.0267 l -0.0121,10e-4 -0.012,0.003 -0.005,0.001 -0.006,10e-4 -0.0121,10e-4 -0.012,0.002 -0.012,0.003 -0.012,10e-4 -0.024,0.004 -0.0119,0.002 -0.0121,0.001 -0.024,0.004 -0.012,10e-4 -0.024,0.002 -0.0121,0.003 -0.012,10e-4 -0.0119,10e-4 -0.0107,10e-4 -0.0133,0.001 -0.016,10e-4 -0.006,10e-4 -0.0119,10e-4 -0.0121,0 -0.0121,10e-4 -0.0119,0.001 -0.006,0 -0.005,10e-4 -0.0121,10e-4 -0.0121,0 -0.0119,10e-4 -0.0121,0 -0.006,10e-4 -0.005,0 -0.012,0 -0.012,0.001 -0.012,0 -0.012,10e-4 -0.007,0 -0.004,0 -0.012,10e-4 -0.0107,0 -0.0133,0 -0.0107,0 -0.0107,10e-4 -10e-4,0 -0.012,0 -0.0121,0 -0.0119,0 -0.0121,0 -0.012,0 0,0.004 -25.14533,0 c -0.0414,0 -0.0827,-10e-4 -0.12534,-0.003 l -0.007,-0.001 -0.0201,0 -0.0466,-0.003 -0.028,-0.002 -0.0373,-0.003 -0.0386,-0.004 -0.0267,-0.002 -0.048,-0.005 -0.0174,-0.002 -0.056,-0.009 -0.007,-10e-4 -0.064,-0.0107 -10e-4,0 -0.0626,-0.0114 -0.0107,-10e-4 -0.0519,-0.0119 -0.0201,-0.004 -0.0427,-0.0107 -0.007,-0.002 -0.0386,-0.01 -0.016,-0.004 -0.036,-0.0107 -0.004,-10e-4 -0.0573,-0.016 -0.01,-0.002 -0.0146,-0.005 -0.0547,-0.0174 -0.006,-0.003 -0.06,-0.0213 -10e-4,0 -0.0574,-0.0213 -0.0107,-0.005 -0.048,-0.0187 -0.0187,-0.007 -0.04,-0.0174 -0.0267,-0.0121 -0.0133,-0.005 -0.0519,-0.0254 0,0 -0.056,-0.0281 -0.007,-0.004 -0.0133,-0.006 -0.0507,-0.0267 -0.005,-0.002 -0.0547,-0.0307 -0.002,-10e-4 -0.0507,-0.0307 -0.0107,-0.005 -0.0427,-0.0267 -0.0187,-0.012 -0.0333,-0.0227 -0.0254,-0.0174 -0.0267,-0.0174 -0.0333,-0.0227 -0.002,-10e-4 c -0.0373,-0.028 -0.0747,-0.056 -0.11067,-0.084 l -0.004,-0.003 -0.048,-0.0386 -0.004,-0.004 -0.0439,-0.0361 -0.0107,-0.01 -0.005,-0.005 c -0.0333,-0.0281 -0.064,-0.0574 -0.0947,-0.0867 l -0.005,-0.004 -0.0213,-0.0213 -0.0293,-0.0279 -0.0147,-0.016 -0.0347,-0.036 -0.01,-0.007 -0.04,-0.0439 -10e-4,-10e-4 -0.0413,-0.0467 -0.004,-0.005 -0.0373,-0.0427 -0.01,-0.0107 -0.0293,-0.0373 -0.0147,-0.0187 -0.002,-0.004 -0.0413,-0.0521 0,-10e-4 -0.036,-0.0494 -0.007,-0.0121 -0.0386,-0.0546 -0.005,-0.01 -0.0333,-0.0507 -0.001,-0.001 -0.0333,-0.0519 -0.004,-0.006 -0.028,-0.048 -0.009,-0.0133 -0.0226,-0.0414 -0.012,-0.0213 -0.0174,-0.0333 -0.016,-0.0306 -0.004,-0.009 c -0.0199,-0.0373 -0.0386,-0.076 -0.056,-0.11467 l -0.002,-0.006 -0.005,-0.01 -0.024,-0.0574 0,0 -0.024,-0.0587 -0.004,-0.009 -0.0187,-0.0507 -0.006,-0.0174 -0.016,-0.0427 -0.007,-0.0254 -0.012,-0.036 -0.0107,-0.0333 -0.001,-0.005 -0.0187,-0.0653 -0.005,-0.0174 -0.0147,-0.0533 -0.002,-0.007 -0.0146,-0.0627 0,-0.001 -0.0133,-0.0613 -4.868,-18.16933 c -0.42266,-1.58133 0.516,-3.20667 2.09734,-3.62933 0.256,-0.0681 0.51333,-0.1 0.76533,-0.1 l 0,-0.004 z m 21.31866,2.968 c 0,-1.46533 -1.19866,-2.664 -2.66266,-2.664 l -6.17067,0 c -1.46533,0 -2.664,1.19867 -2.664,2.664 l -4.91067,18.32667 25.14534,0 4.91066,-18.32667 -13.648,0 z"
       id="path3006"
       style="fill:#000000;stroke:none" />
  </g>
</svg>
