<?xml version="1.0" encoding="UTF-8" standalone="no"?>
<!-- Created with Inkscape (http://www.inkscape.org/) -->

<svg
   xmlns:dc="http://purl.org/dc/elements/1.1/"
   xmlns:cc="http://creativecommons.org/ns#"
   xmlns:rdf="http://www.w3.org/1999/02/22-rdf-syntax-ns#"
   xmlns:svg="http://www.w3.org/2000/svg"
   xmlns="http://www.w3.org/2000/svg"
   version="1.1"
   width="48"
   height="48"
   id="svg3102">
  <defs
     id="defs3104" />
  <metadata
     id="metadata3107">
    <rdf:RDF>
      <cc:Work
         rdf:about="">
        <dc:format>image/svg+xml</dc:format>
        <dc:type
           rdf:resource="http://purl.org/dc/dcmitype/StillImage" />
        <dc:title></dc:title>
      </cc:Work>
    </rdf:RDF>
  </metadata>
  <g
     transform="translate(-389.58323,-851.52381)"
     id="layer1">
    <path
       d="m 413.40056,869.93581 0,8.67867"
       id="path3012"
       style="fill:#666666;stroke:none" />
    <path
       d="m 409.77656,869.95581 0.81867,8.63867"
       id="path3014"
       style="fill:#666666;stroke:none" />
    <path
       d="m 417.02456,869.95581 -0.81866,8.63867"
       id="path3016"
       style="fill:#666666;stroke:none" />
    <path
       d="m 406.39656,864.94114 14.008,0"
       id="path3018"
       style="fill:#666666;stroke:none" />
    <path
       d="m 411.02856,864.94114 0,-1.588 c 0,-0.68666 0.56267,-1.24933 1.25067,-1.24933 l 2.24267,0 c 0.688,0 1.25066,0.56267 1.25066,1.24933 l 0,1.588"
       id="path3020"
       style="fill:#666666;stroke:none" />
    <path
       d="m 407.99656,862.29448 0,-1.27334 c 0,-0.99733 0.41067,-1.908 1.072,-2.57066 l -0.002,-0.002 c 0.66,-0.66 1.57067,-1.06933 2.57333,-1.06933 l 3.88667,0 c 0.99733,0 1.90933,0.41067 2.57067,1.072 l 0.002,-0.002 c 0.66,0.66 1.06933,1.57066 1.06933,2.57333 l 0,1.27333 6.552,0 c 0.81467,0 1.476,0.66134 1.476,1.47734 0,0.81466 -0.66133,1.476 -1.476,1.476 l -8.028,0 -8.21866,0 -8.028,0 c -0.816,0 -1.47734,-0.66134 -1.47734,-1.476 0,-0.816 0.66134,-1.47734 1.47734,-1.47734 l 6.55066,0 z m -6.02533,3.92933 23.224,0 c 0.81467,0 1.476,0.66133 1.476,1.47733 0,0.0894 -0.007,0.17734 -0.0227,0.26267 l -2.52267,24.37733 c -0.0773,0.75867 -0.71733,1.324 -1.464,1.32267 l 0,0.004 -18.15733,0 c -0.8,0 -1.452,-0.63734 -1.476,-1.432 l -2.52267,-24.38528 c -0.0827,-0.80934 0.50667,-1.532 1.31467,-1.61467 0.0507,-0.005 0.10133,-0.009 0.15067,-0.009 l 0,-0.004 z m 21.59067,2.95333 -19.95867,0 2.22933,21.53734 15.50134,0 2.228,-21.53734 z m -11.456,3.24934 c 0,-0.81467 0.66133,-1.476 1.47733,-1.476 0.81467,0 1.476,0.66133 1.476,1.476 l 0,15.03866 c 0,0.81467 -0.66133,1.476 -1.476,1.476 -0.816,0 -1.47733,-0.66133 -1.47733,-1.476 l 0,-15.03866 z m -6.26667,0.172 c -0.0759,-0.808 0.51733,-1.52667 1.32667,-1.60267 0.808,-0.076 1.52666,0.51733 1.60266,1.32667 l 1.41867,14.97066 c 0.0761,0.808 -0.51733,1.52667 -1.32667,1.60267 -0.80933,0.076 -1.52666,-0.51733 -1.60266,-1.32667 l -1.41867,-14.97066 z m 12.55867,-0.276 c 0.0761,-0.80934 0.79333,-1.40267 1.60266,-1.32667 0.80934,0.076 1.40267,0.79467 1.32667,1.60267 l -1.41867,14.97066 c -0.0761,0.80934 -0.79466,1.40267 -1.60266,1.32667 -0.80934,-0.076 -1.40267,-0.79467 -1.32667,-1.60267 l 1.41867,-14.97066 z m -2.18267,-10.028 0,-1.27334 c 0,-0.188 -0.0773,-0.36 -0.20267,-0.48533 l 0.002,-0.003 -0.002,-0.002 c -0.12266,-0.12267 -0.29466,-0.19867 -0.48666,-0.19867 l -3.88667,0 c -0.188,0 -0.36,0.0787 -0.48533,0.20267 l -0.002,-0.003 -0.002,0.003 c -0.12267,0.12266 -0.19867,0.29466 -0.19867,0.48666 l 0,1.27334 5.26534,0 z"
       id="path3022"
       style="fill:#000000;stroke:none" />
  </g>
</svg>
