<?xml version="1.0" encoding="UTF-8" standalone="no"?>
<!-- Created with Inkscape (http://www.inkscape.org/) -->

<svg
   xmlns:dc="http://purl.org/dc/elements/1.1/"
   xmlns:cc="http://creativecommons.org/ns#"
   xmlns:rdf="http://www.w3.org/1999/02/22-rdf-syntax-ns#"
   xmlns:svg="http://www.w3.org/2000/svg"
   xmlns="http://www.w3.org/2000/svg"
   version="1.1"
   width="48"
   height="48"
   id="svg3102">
  <defs
     id="defs3104" />
  <metadata
     id="metadata3107">
    <rdf:RDF>
      <cc:Work
         rdf:about="">
        <dc:format>image/svg+xml</dc:format>
        <dc:type
           rdf:resource="http://purl.org/dc/dcmitype/StillImage" />
        <dc:title></dc:title>
      </cc:Work>
    </rdf:RDF>
  </metadata>
  <g
     transform="translate(-396.89237,-855.22696)"
     id="layer1">
    <path
       d="m 432.27237,874.76829 c 0.25467,-0.22533 0.58933,-0.36133 0.956,-0.36133 0.50533,0 0.95067,0.25867 1.21067,0.65067 l 4.45733,5.82666 c 0.48533,0.63467 0.364,1.54267 -0.272,2.028 -0.63467,0.484 -1.54267,0.36267 -2.028,-0.272 l -2.30667,-3.01466 c -0.11333,0.54533 -0.252,1.08133 -0.41333,1.608 -0.888,2.89333 -2.47333,5.48266 -4.56133,7.57066 -3.31334,3.31334 -7.89067,5.364 -12.94667,5.364 -0.8,0 -1.45067,-0.64933 -1.45067,-1.45066 0,-0.80134 0.65067,-1.45067 1.45067,-1.45067 0.524,0 1.04267,-0.0254 1.55333,-0.0773 3.63467,-0.364 6.89867,-1.99067 9.34267,-4.436 1.648,-1.64667 2.924,-3.66534 3.692,-5.91867 0.19867,-0.58267 0.364,-1.18133 0.492,-1.79333 l -3.24667,2.484 c -0.63466,0.48533 -1.54266,0.364 -2.028,-0.272 -0.484,-0.63467 -0.36266,-1.54267 0.272,-2.028 l 5.82667,-4.45734 z m -18.69067,2.15867 c 0.636,-0.48533 1.544,-0.364 2.02934,0.272 0.484,0.63467 0.36266,1.54267 -0.272,2.028 l -5.82934,4.46 c -0.25466,0.22267 -0.588,0.35867 -0.95333,0.35867 -0.50533,0 -0.94933,-0.25734 -1.20933,-0.64934 l -4.46,-5.82666 c -0.484,-0.636 -0.36267,-1.544 0.272,-2.02934 0.63466,-0.484 1.54266,-0.36266 2.028,0.272 l 2.30666,3.01467 c 0.116,-0.55467 0.25734,-1.09867 0.42267,-1.63333 0.888,-2.884 2.47067,-5.464 4.552,-7.54534 3.31333,-3.31333 7.892,-5.364 12.94667,-5.364 0.80133,0 1.45066,0.65067 1.45066,1.45067 0,0.80133 -0.64933,1.45067 -1.45066,1.45067 -0.50534,0 -1.004,0.0254 -1.49734,0.072 -3.65733,0.35333 -6.94133,1.984 -9.39866,4.44133 -1.636,1.636 -2.90534,3.63867 -3.676,5.87333 -0.20534,0.59734 -0.376,1.21067 -0.508,1.83867 l 3.24666,-2.484 z"
       id="path3028"
       style="fill:#000000;stroke:none" />
  </g>
</svg>
