<?xml version="1.0" encoding="UTF-8" standalone="no"?>
<!-- Created with Inkscape (http://www.inkscape.org/) -->

<svg
   xmlns:dc="http://purl.org/dc/elements/1.1/"
   xmlns:cc="http://creativecommons.org/ns#"
   xmlns:rdf="http://www.w3.org/1999/02/22-rdf-syntax-ns#"
   xmlns:svg="http://www.w3.org/2000/svg"
   xmlns="http://www.w3.org/2000/svg"
   version="1.1"
   width="100"
   height="100"
   viewBox="0 0 100 100"
   id="Capa_1"
   xml:space="preserve"><metadata
   id="metadata9"><rdf:RDF><cc:Work
       rdf:about=""><dc:format>image/svg+xml</dc:format><dc:type
         rdf:resource="http://purl.org/dc/dcmitype/StillImage" /><dc:title></dc:title></cc:Work></rdf:RDF></metadata><defs
   id="defs7" />
<path fill="#156ca9"    d="m 96.915912,3.0811173 c -0.38845,-0.3677337 -0.85329,-0.5526716 -1.39668,-0.5526716 -10.12231,0 -18.48022,1.3766805 -25.073,4.1307554 -6.59279,2.7540749 -13.535458,7.7573939 -20.82658,15.0092439 -3.10253,3.141802 -6.515669,6.923389 -10.238704,11.344761 l -22.048308,1.16318 c -0.620506,0.07855 -1.124623,0.388441 -1.512349,0.931116 L 2.7889543,57.447855 c -0.465558,0.775454 -0.368448,1.532343 0.290616,2.269238 l 3.723035,3.723035 c 0.349169,0.349168 0.794733,0.523396 1.338122,0.523396 0.232779,0 0.407006,-0.01928 0.523396,-0.05855 L 24.720872,58.95949 41.068238,75.30757 36.123471,91.363606 c -0.193507,0.698337 -0.03856,1.318128 0.465558,1.860803 l 3.723035,3.723749 c 0.426999,0.348455 0.873278,0.523396 1.338122,0.523396 0.349882,0 0.659778,-0.07783 0.931116,-0.232779 l 22.34035,-13.031337 c 0.54339,-0.387727 0.85329,-0.891843 0.93112,-1.512349 l 1.16318,-22.049022 c 4.42137,-3.723036 8.20367,-7.135461 11.34476,-10.238704 6.90482,-6.943382 11.8196,-13.933177 14.74719,-20.972241 2.9283,-7.039064 4.3921,-15.387689 4.3921,-25.0444446 -7.2e-4,-0.5041164 -0.19423,-0.9403984 -0.58409,-1.3095601 z m -14.0767,22.0204597 c -1.08535,1.08535 -2.4042,1.628739 -3.95582,1.628739 -1.55162,0 -2.86975,-0.542675 -3.95581,-1.628739 -1.08535,-1.086063 -1.62874,-2.404906 -1.62874,-3.956528 0,-1.550907 0.54267,-2.86975 1.62874,-3.955814 1.08535,-1.085349 2.40419,-1.628738 3.95581,-1.628738 1.55162,0 2.86975,0.542674 3.95582,1.628738 1.08535,1.086064 1.62873,2.404907 1.62873,3.955814 0,1.551622 -0.54196,2.869751 -1.62873,3.956528 z"
   id="path3"  />
</svg>