<?xml version="1.0" encoding="UTF-8" standalone="no"?>
<!-- Created with Inkscape (http://www.inkscape.org/) -->

<svg
   xmlns:dc="http://purl.org/dc/elements/1.1/"
   xmlns:cc="http://creativecommons.org/ns#"
   xmlns:rdf="http://www.w3.org/1999/02/22-rdf-syntax-ns#"
   xmlns:svg="http://www.w3.org/2000/svg"
   xmlns="http://www.w3.org/2000/svg"
   version="1.1"
   width="100"
   height="100"
   viewBox="0 0 100 100"
   id="Capa_1"
   xml:space="preserve"><metadata
   id="metadata9"><rdf:RDF><cc:Work
       rdf:about=""><dc:format>image/svg+xml</dc:format><dc:type
         rdf:resource="http://purl.org/dc/dcmitype/StillImage" /><dc:title></dc:title></cc:Work></rdf:RDF></metadata><defs
   id="defs7" />

<path fill="#156ca9"    d="M 92.985444,84.140042 61.873954,35.095592 V 10.416984 h 3.958875 c 1.071894,0 2.000311,-0.392478 2.782972,-1.175896 0.784188,-0.782662 1.175898,-1.711084 1.175898,-2.7829774 0,-1.0718945 -0.391702,-1.9995516 -1.175898,-2.7829736 C 67.83314,2.8917108 66.904723,2.5 65.832829,2.5 H 34.166414 c -1.072653,0 -2.000312,0.3917023 -2.783738,1.175137 -0.783421,0.783422 -1.175132,1.7110791 -1.175132,2.7829736 0,1.0718934 0.391701,2.0003154 1.175132,2.7829774 0.784186,0.783426 1.711845,1.175896 2.783738,1.175896 h 3.958109 V 35.094832 L 7.0145536,84.139286 C 4.7060363,87.810445 4.2627015,90.954768 5.6853136,93.572255 7.1079256,96.190499 10.004774,97.5 14.375093,97.5 h 71.251331 c 4.36956,0 7.265648,-1.309501 8.68826,-3.927745 1.422615,-2.617487 0.979282,-5.76105 -1.32924,-9.432213 z M 27.981768,65.832825 44.804881,39.299662 46.041509,37.382096 V 35.094073 10.416224 h 7.916225 v 24.677849 2.288023 l 1.236624,1.917566 16.823114,26.533163 H 27.981768 z"
   id="path3"  /></svg>