<?xml version="1.0" encoding="UTF-8" standalone="no"?>
<!-- Created with Inkscape (http://www.inkscape.org/) -->

<svg
   xmlns:dc="http://purl.org/dc/elements/1.1/"
   xmlns:cc="http://creativecommons.org/ns#"
   xmlns:rdf="http://www.w3.org/1999/02/22-rdf-syntax-ns#"
   xmlns:svg="http://www.w3.org/2000/svg"
   xmlns="http://www.w3.org/2000/svg"
   version="1.1"
   width="100"
   height="100"
   viewBox="0 0 100 100"
   id="Capa_1"
   xml:space="preserve"><metadata
   id="metadata9"><rdf:RDF><cc:Work
       rdf:about=""><dc:format>image/svg+xml</dc:format><dc:type
         rdf:resource="http://purl.org/dc/dcmitype/StillImage" /><dc:title></dc:title></cc:Work></rdf:RDF></metadata><defs
   id="defs7" />

<path fill="#156ca9"    d="M 88.961022,5.6404625 C 88.144113,4.4675105 87.045144,3.6097598 85.664881,3.0656689 84.785552,2.6895984 83.864605,2.500773 82.901275,2.500773 V 2.5 H 17.097957 c -0.962562,0 -1.88274,0.1887909 -2.762069,0.5649002 C 12.954856,3.6089868 11.855887,4.4675105 11.039751,5.6396939 10.223614,6.8118773 9.815162,8.108908 9.815162,9.5323275 V 90.467673 c 0,1.423419 0.408457,2.72045 1.224589,3.893406 0.816136,1.172179 1.915105,2.030703 3.296137,2.574021 0.87856,0.37607 1.799507,0.5649 2.762069,0.5649 1.968279,0 3.70459,-0.690516 5.212015,-2.071548 l 27.69003,-26.623431 27.69003,26.624199 c 1.465034,1.337877 3.202113,2.007583 5.211242,2.007583 1.046564,0 1.96828,-0.166465 2.763607,-0.50093 1.380263,-0.544091 2.479232,-1.402615 3.296141,-2.575567 0.816132,-1.172183 1.223816,-2.468441 1.223816,-3.892633 V 9.5330961 c 0,-1.4234195 -0.408457,-2.7204502 -1.223816,-3.8926336 z"
   id="path3"  /></svg>