<?xml version="1.0" encoding="UTF-8" standalone="no"?>
<!-- Created with Inkscape (http://www.inkscape.org/) -->

<svg
   xmlns:dc="http://purl.org/dc/elements/1.1/"
   xmlns:cc="http://creativecommons.org/ns#"
   xmlns:rdf="http://www.w3.org/1999/02/22-rdf-syntax-ns#"
   xmlns:svg="http://www.w3.org/2000/svg"
   xmlns="http://www.w3.org/2000/svg"
   version="1.1"
   width="100"
   height="100"
   viewBox="0 0 100 100"
   id="Capa_1"
   xml:space="preserve"><metadata
   id="metadata9"><rdf:RDF><cc:Work
       rdf:about=""><dc:format>image/svg+xml</dc:format><dc:type
         rdf:resource="http://purl.org/dc/dcmitype/StillImage" /><dc:title></dc:title></cc:Work></rdf:RDF></metadata><defs
   id="defs7" />
<path fill="#156ca9"    d="M 95.38799,85.054952 75.80596,65.472922 c 4.71944,-6.812542 7.08022,-14.406404 7.08022,-22.779482 0,-5.442606 -1.05671,-10.647663 -3.16942,-15.614471 C 77.60474,22.111461 74.74995,17.829972 71.15308,14.233101 67.55621,10.63623 63.27542,7.7814374 58.308611,5.6694231 53.340402,3.5567081 48.135345,2.500701 42.692739,2.500701 c -5.442606,0 -10.647663,1.0560071 -15.614471,3.1687221 C 22.11076,7.7814374 17.829271,10.63623 14.2324,14.233101 c -3.596871,3.596871 -6.4516643,7.879061 -8.5636783,12.845868 -2.112715,4.967508 -3.168722,10.171865 -3.168722,15.614471 0,5.442606 1.056007,10.646261 3.168722,15.61447 2.112014,4.966807 4.9668073,9.247595 8.5636783,12.844466 3.596871,3.597572 7.879061,6.451665 12.845868,8.56438 4.967508,2.112715 10.171865,3.168722 15.614471,3.168722 8.37448,0 15.96764,-2.360775 22.780181,-7.080223 l 19.58203,19.524569 c 1.36994,1.446317 3.08113,2.169475 5.13779,2.169475 1.97887,0 3.69287,-0.723158 5.13778,-2.169475 C 96.77684,93.884209 97.5,92.170913 97.5,90.192038 c 7e-4,-2.016014 -0.70284,-3.72931 -2.11201,-5.137086 z M 60.762583,60.761883 c -5.005347,5.005348 -11.028162,7.507671 -18.069844,7.507671 -7.040982,0 -13.063797,-2.503024 -18.069144,-7.507671 -5.005348,-5.005348 -7.507671,-11.027461 -7.507671,-18.069144 0,-7.040982 2.503024,-13.064497 7.507671,-18.069144 5.004647,-5.005348 11.028162,-7.507671 18.069144,-7.507671 7.040982,0 13.063796,2.503024 18.069844,7.507671 5.005347,5.004647 7.508377,11.028162 7.508377,18.069144 0,7.041683 -2.50373,13.063796 -7.508377,18.069144 z"
   id="path3"  />
</svg>