<?xml version="1.0" encoding="UTF-8" standalone="no"?>
<!-- Created with Inkscape (http://www.inkscape.org/) -->

<svg
   xmlns:dc="http://purl.org/dc/elements/1.1/"
   xmlns:cc="http://creativecommons.org/ns#"
   xmlns:rdf="http://www.w3.org/1999/02/22-rdf-syntax-ns#"
   xmlns:svg="http://www.w3.org/2000/svg"
   xmlns="http://www.w3.org/2000/svg"
   version="1.1"
   width="100"
   height="100"
   viewBox="0 0 100 100"
   id="Capa_1"
   xml:space="preserve"><metadata
   id="metadata9"><rdf:RDF><cc:Work
       rdf:about=""><dc:format>image/svg+xml</dc:format><dc:type
         rdf:resource="http://purl.org/dc/dcmitype/StillImage" /><dc:title></dc:title></cc:Work></rdf:RDF></metadata><defs
   id="defs7" />
<path fill="#156ca9"    d="M 96.44003,46.3425 C 91.49158,38.24928 84.83767,31.746335 76.47962,26.833664 68.12092,21.920993 59.295034,19.464657 50,19.464657 c -9.295034,0 -18.121575,2.455685 -26.480274,7.369007 C 15.161027,31.746335 8.507774,38.24928 3.559966,46.3425 2.853322,47.579452 2.5,48.798835 2.5,50.00065 c 0,1.201815 0.353322,2.421199 1.059966,3.6575 4.947808,8.09387 11.601061,14.597466 19.95976,19.508836 8.358699,4.913322 17.18524,7.368356 26.480274,7.368356 9.295034,0 18.12158,-2.447226 26.47962,-7.341678 C 84.83767,68.299212 91.49223,61.787157 96.44003,53.65815 97.14668,52.421849 97.5,51.203116 97.5,50.00065 97.5,48.798835 97.14668,47.579452 96.44003,46.3425 z M 38.627979,31.843287 c 3.16298,-3.162979 6.95322,-4.744794 11.37137,-4.744794 0.706644,0 1.307877,0.247911 1.803048,0.742431 0.494521,0.494521 0.742432,1.095754 0.742432,1.802397 0,0.707295 -0.247911,1.307877 -0.74113,1.801747 -0.494521,0.495171 -1.096404,0.742432 -1.803048,0.742432 -3.03935,0 -5.637535,1.078184 -7.793254,3.233904 -2.15637,2.15637 -3.233904,4.753904 -3.233904,7.793253 0,0.707295 -0.247911,1.307877 -0.742431,1.803048 -0.495172,0.495171 -1.095754,0.742432 -1.802398,0.742432 -0.707294,0 -1.307876,-0.247911 -1.803048,-0.742432 -0.495171,-0.495171 -0.742431,-1.096404 -0.742431,-1.803048 0,-4.4175 1.581815,-8.20839 4.744794,-11.37137 z M 73.03425,67.310171 C 65.948288,71.60339 58.270205,73.75065 50,73.75065 c -8.270205,0 -15.948288,-2.146609 -23.034247,-6.440479 C 19.879795,63.016301 13.986541,57.246027 9.285993,50.00065 14.658048,41.65952 21.390685,35.421404 29.483904,31.286952 27.328185,34.96202 26.25,38.938356 26.25,43.214657 c 0,6.538733 2.324247,12.130719 6.971438,16.778562 4.647192,4.647842 10.24048,6.971438 16.778562,6.971438 6.538733,0 12.130719,-2.324246 16.778562,-6.971438 C 71.42705,55.346027 73.75,49.75339 73.75,43.214657 c 0,-4.276301 -1.07818,-8.253288 -3.23455,-11.927705 8.09321,4.134452 14.82585,10.373219 20.19791,18.713698 -4.69925,7.245377 -10.5925,13.015 -17.67911,17.309521 z"
   id="path3"
    />
</svg>