<?xml version="1.0" encoding="UTF-8" standalone="no"?>
<!-- Created with Inkscape (http://www.inkscape.org/) -->

<svg
   xmlns:dc="http://purl.org/dc/elements/1.1/"
   xmlns:cc="http://creativecommons.org/ns#"
   xmlns:rdf="http://www.w3.org/1999/02/22-rdf-syntax-ns#"
   xmlns:svg="http://www.w3.org/2000/svg"
   xmlns="http://www.w3.org/2000/svg"
   version="1.1"
   width="40"
   height="40"
   viewBox="-277 400.5 40.4 40.4"
   id="Layer_1"
   xml:space="preserve"><metadata
   id="metadata17"><rdf:RDF><cc:Work
       rdf:about=""><dc:format>image/svg+xml</dc:format><dc:type
         rdf:resource="http://purl.org/dc/dcmitype/StillImage" /><dc:title></dc:title></cc:Work></rdf:RDF></metadata><defs
   id="defs15" />
<style
   type="text/css"
   id="style3" />
<g
   id="g5">
	<g
   transform="translate(-1.5406782,-8.3881361)"
   id="g3288_5_">
		<path
   d="m -255.3,449.3 c -11.2,0 -20.2,-9.1 -20.2,-20.2 0,-11.2 9.1,-20.2 20.2,-20.2 11.1,0 20.2,9.1 20.2,20.2 0.1,11.1 -9,20.2 -20.2,20.2 z"
   id="path144_5_"
   style="fill:#c6e9fa" />
		<path
   d="m -255,426.9 c 2.3,0 4.2,-1.8 4.2,-4.2 0,-2.3 -1.9,-4.2 -4.2,-4.2 -2.3,0 -4.2,1.9 -4.2,4.2 0,2.4 1.9,4.2 4.2,4.2 z"
   id="path146_11_"
   style="fill:#575757" />
		<g
   transform="translate(-41.059729,-941.61186)"
   id="g148_5_">
			<path
   d="m -203.1,1381.4 v -5.4 c 0,-3 -2.4,-6.3 -6,-6.3 h -4.9 -4.9 c -3.6,0 -6,3.2 -6,6.3 v 5.4 c 1.2,1.3 2.4,2.3 4.1,3.1 v -7.5 h 0.8 v 7.9 c 1.9,0.8 3.9,1.4 6,1.4 2.2,0 4.2,-0.5 6,-1.4 v -7.9 h 0.7 v 7.7 c 1.7,-0.8 3.1,-2 4.2,-3.3 z"
   id="path150_5_"
   style="fill:#575757" />
		</g>
	</g>
	<path
   d="m -256.8,440.9 c -11.2,0 -20.2,-9.1 -20.2,-20.2 0,-11.1 9.1,-20.2 20.2,-20.2 11.1,0 20.2,9.1 20.2,20.2 0,11.1 -9,20.2 -20.2,20.2 z m 0,-39.4 c -10.6,0 -19,8.6 -19,19 0,10.6 8.6,19 19,19 10.6,0 19,-8.6 19,-19 0.2,-10.4 -8.4,-19 -19,-19 z"
   id="path3025_73_"
   style="fill:#6d6e70" />
</g>
</svg>