<?xml version="1.0" encoding="utf-8"?>
<!-- Generator: Adobe Illustrator 16.0.0, SVG Export Plug-In . SVG Version: 6.00 Build 0)  -->
<!DOCTYPE svg PUBLIC "-//W3C//DTD SVG 1.1//EN" "http://www.w3.org/Graphics/SVG/1.1/DTD/svg11.dtd">
<svg version="1.1" id="Layer_1" xmlns="http://www.w3.org/2000/svg" xmlns:xlink="http://www.w3.org/1999/xlink" x="0px" y="0px"
	 width="40.395px" height="40.395px" viewBox="0 0 40.395 40.395" enable-background="new 0 0 40.395 40.395" xml:space="preserve">
<g>
	<path fill="#F399C0" d="M20.196,0.504C9.081,0.504,0.197,9.38,0.197,20.196c0,10.945,9.014,19.693,19.999,19.693
		c11.116,0,20-8.878,20-19.693C40.326,9.38,31.312,0.504,20.196,0.504z"/>
	<path id="path3025_69_" fill="#6D6E70" d="M20.197,40.395C9,40.395,0,31.287,0,20.197C0,9.105,9.105,0,20.197,0
		c11.09,0,20.197,9.105,20.197,20.197C40.395,31.287,31.395,40.395,20.197,40.395z M20.197,1.047
		C9.613,1.047,1.154,9.631,1.154,20.09c0,10.584,8.584,19.045,19.043,19.045c10.584,0,19.043-8.586,19.043-19.045
		C39.365,9.631,30.781,1.047,20.197,1.047z"/>
	<g id="g3014_4_" transform="translate(-6.6762713,-4.4508474)">
		<g id="g290_4_" transform="translate(-35.923728,-218.14915)">
			
				<path id="path292_4_" fill="#595958" stroke="#595958" stroke-width="2.205" stroke-linecap="round" stroke-linejoin="round" stroke-miterlimit="10" d="
				M60.977,252.389c0-1.434,0.66-2.096,1.874-2.096c0.551,0,1.103,0.221,1.433,0.551c0.332,0.33,0.441,0.883,0.441,1.545
				c0,0.66-0.22,1.213-0.551,1.543c-0.332,0.33-0.772,0.551-1.434,0.551c-0.552,0-0.992-0.109-1.323-0.441
				C61.086,253.711,60.977,253.049,60.977,252.389z M63.953,246.545h-2.316l-0.769-15.436h3.856L63.953,246.545z"/>
		</g>
	</g>
</g>
</svg>
