<?xml version="1.0" encoding="utf-8"?>
<!-- Generator: Adobe Illustrator 16.0.0, SVG Export Plug-In . SVG Version: 6.00 Build 0)  -->
<!DOCTYPE svg PUBLIC "-//W3C//DTD SVG 1.1//EN" "http://www.w3.org/Graphics/SVG/1.1/DTD/svg11.dtd">
<svg version="1.1" id="Layer_1" xmlns="http://www.w3.org/2000/svg" xmlns:xlink="http://www.w3.org/1999/xlink" x="0px" y="0px"
	 width="40.4px" height="40.4px" viewBox="0 0 40.4 40.4" enable-background="new 0 0 40.4 40.4" xml:space="preserve">
<g>
	<g id="g3264_5_" transform="translate(-3.4237292,0.68474578)">
		<path id="path157_5_" fill="#C6E9FA" d="M23.623,39.716c-11.199,0-20.199-9.101-20.199-20.2c0-11.2,9.1-20.2,20.199-20.2
			c11.101,0,20.2,9.101,20.2,20.2C43.925,30.615,34.823,39.716,23.623,39.716z"/>
		<g id="g159_5_" transform="translate(-39.176678,-860.68475)">
			<path id="path161_5_" fill="#575757" stroke="#575757" stroke-width="0.8" stroke-linejoin="round" stroke-miterlimit="10" d="
				M48.211,880.888l-0.781-0.91c1.953-1.563,2.994-2.996,2.994-4.038c0-0.129,0-0.261,0-0.521c-0.131,0.13-0.26,0.13-0.521,0.13
				c-0.131,0-0.26,0-0.39,0c-0.521,0-0.78-0.13-1.042-0.389c-0.26-0.262-0.391-0.651-0.391-1.173c0-0.392,0.131-0.781,0.52-1.172
				c0.392-0.392,0.783-0.521,1.172-0.521c0.652,0,1.173,0.261,1.694,0.781s0.651,1.172,0.651,1.952c0,0.521-0.13,1.043-0.393,1.693
				c-0.259,0.651-0.521,1.173-0.91,1.693C50.293,879.064,49.513,879.846,48.211,880.888L48.211,880.888z M53.289,880.888
				l-0.783-0.91c1.953-1.563,2.996-2.996,2.996-4.038c0-0.129,0-0.261,0-0.521c-0.13,0.13-0.26,0.13-0.521,0.13
				c-0.129,0-0.26,0-0.389,0c-0.393,0-0.783-0.13-1.043-0.389c-0.26-0.262-0.392-0.651-0.392-1.173c0-0.392,0.132-0.781,0.521-1.172
				c0.393-0.392,0.781-0.521,1.174-0.521c0.65,0,1.172,0.261,1.693,0.781c0.519,0.521,0.65,1.172,0.65,1.952
				c0,0.521-0.132,1.043-0.391,1.693c-0.26,0.651-0.521,1.173-0.91,1.693C55.502,878.935,54.592,879.846,53.289,880.888
				L53.289,880.888z"/>
		</g>
		<g id="g163_5_" transform="translate(-39.176678,-860.68475)">
			<path id="path165_5_" fill="#575757" stroke="#575757" stroke-width="0.8" stroke-linejoin="round" stroke-miterlimit="10" d="
				M76.947,881.458l0.782,0.911c-1.952,1.563-2.995,2.995-2.995,4.037c0,0.13,0,0.26,0,0.521c0.129-0.132,0.26-0.132,0.521-0.132
				c0.129,0,0.259,0,0.389,0c0.521,0,0.783,0.132,1.043,0.393c0.26,0.259,0.391,0.651,0.391,1.171c0,0.391-0.131,0.782-0.521,1.173
				c-0.392,0.391-0.78,0.521-1.173,0.521c-0.65,0-1.172-0.262-1.693-0.783c-0.52-0.519-0.651-1.17-0.651-1.952
				c0-0.521,0.132-1.043,0.392-1.693c0.26-0.651,0.521-1.172,0.91-1.691C74.863,883.282,75.777,882.499,76.947,881.458
				L76.947,881.458z M71.871,881.458l0.779,0.911c-1.953,1.563-2.996,2.995-2.996,4.037c0,0.13,0,0.26,0,0.521
				c0.131-0.132,0.264-0.132,0.522-0.132c0.129,0,0.259,0,0.392,0c0.389,0,0.78,0.132,1.04,0.393
				c0.263,0.259,0.392,0.651,0.392,1.171c0,0.391-0.129,0.782-0.521,1.173c-0.391,0.391-0.781,0.521-1.173,0.521
				c-0.651,0-1.171-0.262-1.69-0.783c-0.521-0.519-0.651-1.17-0.651-1.952c0-0.521,0.13-1.042,0.39-1.693
				c0.262-0.651,0.521-1.172,0.912-1.691C69.785,883.282,70.568,882.499,71.871,881.458L71.871,881.458z"/>
		</g>
		<g id="g167_5_" transform="translate(-39.176678,-860.68475)">
			<path id="path169_5_" fill="#575757" stroke="#575757" stroke-width="0.8" stroke-linejoin="round" stroke-miterlimit="10" d="
				M57.346,881.889v-1.562h1.562v1.562H57.346z"/>
			<path id="path171_5_" fill="#575757" stroke="#575757" stroke-width="0.8" stroke-linejoin="round" stroke-miterlimit="10" d="
				M61.774,881.889v-1.562h1.69v1.562H61.774z"/>
			<path id="path173_5_" fill="#575757" stroke="#575757" stroke-width="0.8" stroke-linejoin="round" stroke-miterlimit="10" d="
				M66.332,881.889v-1.562h1.562v1.562H66.332z"/>
		</g>
	</g>
	<path id="path3025_74_" fill="#6D6E70" d="M20.197,40.395C9,40.395,0,31.288,0,20.197S9.106,0,20.197,0s20.197,9.106,20.197,20.197
		S31.395,40.395,20.197,40.395z M20.197,1.048c-10.584,0-19.042,8.584-19.042,19.043c0,10.584,8.582,19.044,19.042,19.044
		c10.584,0,19.043-8.586,19.043-19.044C39.365,9.632,30.781,1.048,20.197,1.048z"/>
</g>
</svg>
