<?xml version="1.0" encoding="UTF-8" standalone="no"?>
<!-- Created with Inkscape (http://www.inkscape.org/) -->

<svg
   xmlns:dc="http://purl.org/dc/elements/1.1/"
   xmlns:cc="http://creativecommons.org/ns#"
   xmlns:rdf="http://www.w3.org/1999/02/22-rdf-syntax-ns#"
   xmlns:svg="http://www.w3.org/2000/svg"
   xmlns="http://www.w3.org/2000/svg"
   version="1.1"
   width="40"
   height="40"
   viewBox="-554 801 40.4 40.4"
   id="Layer_1"
   xml:space="preserve"><metadata
   id="metadata23"><rdf:RDF><cc:Work
       rdf:about=""><dc:format>image/svg+xml</dc:format><dc:type
         rdf:resource="http://purl.org/dc/dcmitype/StillImage" /><dc:title></dc:title></cc:Work></rdf:RDF></metadata><defs
   id="defs21" />
<style
   type="text/css"
   id="style3" />
<g
   id="Layer_1_6_">
	<g
   id="g6">
		<path
   d="m -533.8,801.5 c -11.1,0 -20,8.9 -20,19.7 0,10.9 9,19.7 20,19.7 11.1,0 20,-8.9 20,-19.7 0.1,-10.8 -8.9,-19.7 -20,-19.7 z"
   id="path8"
   style="fill:#c6e9fa" />
		<g
   transform="translate(-44.483458,-1039.0898)"
   id="g135_5_">
			<path
   d="m -493.7,1860 c 0,-0.9 0,-2 0.1,-2.9 1.9,-0.1 7.4,-0.9 7.7,-0.9 0.1,0 0.1,0 0.1,0.1 0,3.7 -0.1,8.9 -0.1,12.4 l 1.9,0.1 c 0,1 0,1.9 0,2.8 -1.3,0 -3.2,0 -4.7,0 -1.5,0 -3.2,0 -4.7,0 0,-0.9 0,-1.9 0,-2.8 l 1.8,-0.1 c 0.1,0 0.1,-0.1 0.1,-0.2 v -8.4 l -2.2,-0.1 0,0 z m 7.6,-10.1 c 0,1.9 -1.5,3.1 -3.2,3.1 -1.5,0 -3,-1.2 -3,-3 0,-1.5 1.2,-2.8 3.1,-2.8 2,0 3.1,1.3 3.1,2.7 l 0,0 z"
   id="path137_5_"
   style="fill:#575757;stroke:#575757;stroke-miterlimit:10" />
		</g>
		<g
   id="Warstwa_2">
			<g
   id="g13">
				<g
   id="g15">
					<path
   d="m -533.8,802.1 c 10.5,0 19.1,8.6 19.1,19.1 0,10.5 -8.6,19.1 -19.1,19.1 -10.5,0 -19.1,-8.6 -19.1,-19.1 0,-10.5 8.6,-19.1 19.1,-19.1 m 0,-1.1 c -11.2,0 -20.2,9 -20.2,20.2 0,11.2 9,20.2 20.2,20.2 11.2,0 20.2,-9 20.2,-20.2 0,-11.2 -9,-20.2 -20.2,-20.2 l 0,0 z"
   id="path17"
   style="fill:#595958" />
				</g>
			</g>
		</g>
	</g>
</g>
</svg>