<?xml version="1.0" encoding="utf-8"?>
<!-- Generator: Adobe Illustrator 16.0.0, SVG Export Plug-In . SVG Version: 6.00 Build 0)  -->
<!DOCTYPE svg PUBLIC "-//W3C//DTD SVG 1.1//EN" "http://www.w3.org/Graphics/SVG/1.1/DTD/svg11.dtd">
<svg version="1.1" id="Layer_1" xmlns="http://www.w3.org/2000/svg" xmlns:xlink="http://www.w3.org/1999/xlink" x="0px" y="0px"
	 width="40.396px" height="40.395px" viewBox="0 0 40.396 40.395" enable-background="new 0 0 40.396 40.395" xml:space="preserve">
<g>
	<path fill="#FFDE40" d="M19.999,1C8.883,1,0,9.876,0,20.692c0,10.945,9.015,19.693,19.999,19.693c11.116,0,20-8.878,20-19.693
		C40.13,9.876,31.115,1,19.999,1z"/>
	<path id="path3025_76_" fill="#6D6E70" d="M20.198,40.395c-11.197,0-20.197-9.106-20.197-20.197S9.107,0,20.198,0
		s20.197,9.106,20.197,20.197S31.396,40.395,20.198,40.395z M20.198,1.048c-10.583,0-19.042,8.584-19.042,19.043
		c0,10.584,8.582,19.044,19.042,19.044c10.584,0,19.043-8.586,19.043-19.044C39.365,9.632,30.782,1.048,20.198,1.048z"/>
	<g>
		<path id="path3027_9_" fill="#575757" d="M25.001,5.491h-9.108l0,0l0,0l0,0v0.465c0.104,0,0.567,0.308,0.567,1.439v24.695
			c0,2.162,1.749,3.909,3.91,3.909s3.91-1.747,3.91-3.909V7.396c0-1.439,0.617-1.439,0.617-1.439L25.001,5.491z M23.406,16.553
			h-6.071V6.521h6.071V16.553z"/>
		<path id="path3029_9_" fill="#575757" d="M20.525,15.678c0,0.722-0.566,1.286-1.287,1.286c-0.771,0-1.339-0.564-1.339-1.286
			c0-0.721,0.567-1.284,1.339-1.284C19.959,14.394,20.525,14.957,20.525,15.678z"/>
		<path id="path3033_9_" fill="#575757" d="M22.995,11.614c0,0.72-0.567,1.286-1.339,1.286c-0.72,0-1.286-0.566-1.286-1.286
			c0-0.721,0.566-1.286,1.286-1.286C22.428,10.328,22.995,10.894,22.995,11.614z"/>
		<path id="path3037_9_" fill="#575757" d="M19.238,9.299c0,0.565-0.463,1.029-1.029,1.029S17.18,9.864,17.18,9.299
			s0.463-1.029,1.029-1.029S19.238,8.733,19.238,9.299z"/>
	</g>
</g>
</svg>
