<?xml version="1.0" encoding="utf-8"?>
<!-- Generator: Adobe Illustrator 16.0.0, SVG Export Plug-In . SVG Version: 6.00 Build 0)  -->
<!DOCTYPE svg PUBLIC "-//W3C//DTD SVG 1.1//EN" "http://www.w3.org/Graphics/SVG/1.1/DTD/svg11.dtd">
<svg version="1.1" id="Layer_1" xmlns="http://www.w3.org/2000/svg" xmlns:xlink="http://www.w3.org/1999/xlink" x="0px" y="0px"
	 width="40.395px" height="40.395px" viewBox="0 0 40.395 40.395" enable-background="new 0 0 40.395 40.395" xml:space="preserve">
<g>
	<g id="g3208_8_" transform="translate(-18.488136,-27.047459)">
		<g id="g3177_8_" transform="translate(18.490826,27.015176)">
			<path id="path3179_14_" fill="#9FC9EB" d="M20.194,40.427c-11.196,0-20.196-9.106-20.196-20.197
				c0-11.197,9.105-20.197,20.196-20.197S40.39,9.138,40.39,20.23C40.497,31.32,31.39,40.427,20.194,40.427z"/>
			<path id="path3181_8_" fill="#575757" d="M20.199,28.555h-2.05c-0.441,0-0.684-0.361-0.684-0.682
				c-0.079-0.805-0.443-1.49-0.883-2.173c-0.484-0.681-0.925-1.244-1.368-1.928c-0.805-1.247-1.126-2.494-1.126-3.98
				c0-2.614,1.688-4.983,4.182-5.669c2.613-0.764,4.785-0.119,6.593,1.809c0.805,0.926,1.367,2.052,1.446,3.296
				c0.242,2.05-0.44,3.861-1.688,5.468c-0.562,0.803-1.126,1.567-1.487,2.492c-0.079,0.201-0.079,0.562-0.202,0.884
				c-0.12,0.484-0.36,0.685-0.804,0.685C21.688,28.555,21.003,28.555,20.199,28.555L20.199,28.555z M18.833,27.067h2.613
				c0.119,0,0.119-0.122,0.241-0.122c0.202-1.005,0.806-1.808,1.368-2.732c0.44-0.645,1.004-1.248,1.245-2.009
				c0.442-1.169,0.683-2.292,0.442-3.539c-0.563-2.051-2.614-3.619-4.986-3.378c-1.366,0.081-2.49,0.643-3.297,1.812
				c-1.125,1.446-1.125,3.052-0.562,4.621c0.201,0.804,0.686,1.487,1.125,2.051C17.827,24.817,18.512,25.819,18.833,27.067z"/>
			<path id="path3183_8_" fill="#575757" d="M20.321,29.922h1.688c0.484,0,0.563,0.202,0.563,0.681v2.251
				c0,0.445-0.2,0.563-0.563,0.685h-0.201c-0.242,0-0.48,0-0.683,0.239c-0.122,0.203-0.361,0.324-0.563,0.203h-0.362
				c-0.322,0-0.684-0.121-0.886-0.321c-0.119-0.121-0.239-0.242-0.48-0.242h-0.321c-0.362,0-0.562-0.242-0.562-0.683v-2.251
				c0-0.36,0.2-0.562,0.562-0.562H20.321L20.321,29.922z"/>
			<path id="path3185_8_" fill="#575757" d="M21.327,7.209l-1.007,4.663l-1.007-4.663c-0.119-0.563,0.202-1.125,0.766-1.247
				c0.562-0.121,1.124,0.242,1.248,0.803V7.209z"/>
			<path id="path3187_8_" fill="#575757" d="M12.722,9.139l2.252,4.218l-3.858-2.854c-0.442-0.321-0.563-1.003-0.201-1.486
				c0.321-0.441,1.003-0.562,1.446-0.202C12.602,8.815,12.722,8.898,12.722,9.139z"/>
			<path id="path3189_8_" fill="#575757" d="M27.678,9.139l-2.252,4.218l3.858-2.854c0.443-0.321,0.564-1.003,0.242-1.486
				c-0.362-0.441-1.045-0.562-1.488-0.202C27.798,8.815,27.678,8.898,27.678,9.139z"/>
			<path id="path3191_8_" fill="#575757" d="M8.623,15.731l3.979,2.732l-4.784-0.682c-0.562-0.119-1.005-0.682-0.883-1.246
				c0.122-0.604,0.683-1.046,1.245-0.926C8.421,15.609,8.501,15.731,8.623,15.731z"/>
			<path id="path3193_8_" fill="#575757" d="M31.657,15.731l-3.979,2.732l4.783-0.682c0.562-0.119,1.004-0.682,0.885-1.246
				c-0.08-0.604-0.643-1.046-1.245-0.926C31.899,15.609,31.779,15.731,31.657,15.731z"/>
		</g>
	</g>
	<path id="path3025_81_" fill="#6D6E70" d="M20.197,40.395C9,40.395,0,31.288,0,20.197S9.105,0,20.197,0
		c11.09,0,20.197,9.106,20.197,20.197S31.395,40.395,20.197,40.395z M20.197,1.048c-10.584,0-19.043,8.584-19.043,19.043
		c0,10.584,8.583,19.044,19.043,19.044c10.584,0,19.043-8.586,19.043-19.044C39.365,9.632,30.781,1.048,20.197,1.048z"/>
</g>
</svg>
