<?xml version="1.0" encoding="utf-8"?>
<!-- Generator: Adobe Illustrator 16.0.0, SVG Export Plug-In . SVG Version: 6.00 Build 0)  -->
<!DOCTYPE svg PUBLIC "-//W3C//DTD SVG 1.1//EN" "http://www.w3.org/Graphics/SVG/1.1/DTD/svg11.dtd">
<svg version="1.1" id="Layer_1" xmlns="http://www.w3.org/2000/svg" xmlns:xlink="http://www.w3.org/1999/xlink" x="0px" y="0px"
	 width="40.4px" height="40.4px" viewBox="0 0 40.4 40.4" enable-background="new 0 0 40.4 40.4" xml:space="preserve">
<g>
	<g id="layer1_5_" transform="translate(-411.22857,-457.87647)">
		<g id="g3334_5_">
			<path id="path310_5_" fill="#FFDE40" d="M431.43,498.277c-11.201,0-20.201-9.101-20.201-20.2s9.102-20.2,20.201-20.2
				s20.199,9.101,20.199,20.2S442.629,498.277,431.43,498.277z"/>
			<path id="path312_5_" fill="#575757" d="M431.499,470.896c5.745,0,9.308,5.401,10.57,7.584c-1.149,2.183-4.825,7.468-10.57,7.468
				s-9.308-5.4-10.572-7.468C422.191,476.297,425.868,470.896,431.499,470.896 M431.499,468.714c-8.618,0-12.984,9.766-12.984,9.766
				s4.366,9.651,12.984,9.651s12.983-9.767,12.983-9.767S440.232,468.714,431.499,468.714L431.499,468.714z"/>
			<path id="path314_5_" fill="#575757" d="M431.499,476.297c1.149,0,2.183,0.918,2.183,2.183c0,1.264-0.918,2.183-2.183,2.183
				c-1.264,0-2.069-1.034-2.069-2.183S430.35,476.297,431.499,476.297 M431.499,474.115c-2.413,0-4.367,1.952-4.367,4.366
				c0,2.413,1.954,4.366,4.367,4.366s4.366-1.954,4.366-4.366C435.865,476.067,433.912,474.115,431.499,474.115L431.499,474.115z"/>
		</g>
	</g>
	<path id="path3025_75_" fill="#6D6E70" d="M20.197,40.395C9,40.395,0,31.288,0,20.197S9.106,0,20.197,0s20.197,9.106,20.197,20.197
		S31.395,40.395,20.197,40.395z M20.197,1.048c-10.584,0-19.042,8.584-19.042,19.043c0,10.584,8.583,19.044,19.042,19.044
		c10.584,0,19.043-8.586,19.043-19.044C39.365,9.632,30.781,1.048,20.197,1.048z"/>
</g>
</svg>
