<?xml version="1.0" encoding="utf-8"?>
<!-- Generator: Adobe Illustrator 16.0.0, SVG Export Plug-In . SVG Version: 6.00 Build 0)  -->
<!DOCTYPE svg PUBLIC "-//W3C//DTD SVG 1.1//EN" "http://www.w3.org/Graphics/SVG/1.1/DTD/svg11.dtd">
<svg version="1.1" id="Layer_1" xmlns="http://www.w3.org/2000/svg" xmlns:xlink="http://www.w3.org/1999/xlink" x="0px" y="0px"
	 width="40.396px" height="40.395px" viewBox="0 0 40.396 40.395" enable-background="new 0 0 40.396 40.395" xml:space="preserve">
<g>
	<path fill="#FFFFFF" d="M20,1C8.885,1,0,9.876,0,20.692c0,10.945,9.016,19.693,20,19.693c11.115,0,20-8.878,20-19.693
		C40.131,9.876,31.115,1,20,1z"/>
	<path id="path39_2_" fill="#595958" d="M19.553,16.086c0.121,0,0.121,0,0.242,0c3.75,0,7.381,0,11.131,0
		c1.09,0,1.816,1.089,1.211,2.057c-0.242,0.484-0.727,0.727-1.332,0.727c-2.178,0-4.477,0-6.654,0c-0.363,0-0.605,0.241-0.482,0.604
		c0,0.242,0.24,0.242,0.361,0.363c0.121,0,0.121,0,0.242,0c2.783,0-1.574,0,1.209,0c0.848,0,1.453,0.483,1.453,1.331
		c0,0.727-0.484,1.331-1.211,1.452c-0.242,0-0.482,0-0.727,0c-2.66,0,1.938,0-0.846,0c-0.121,0-0.242,0-0.242,0
		c-0.24,0-0.363,0.242-0.363,0.484c0,0.241,0.123,0.362,0.363,0.483c0.121,0,0.242,0,0.242,0c2.42,0-2.42,0,0,0
		c0.484,0,0.969,0,1.33,0.362c0.363,0.364,0.607,0.969,0.363,1.452c-0.121,0.484-0.604,0.968-1.209,0.968c-0.123,0-0.363,0-0.484,0
		c-2.662,0,1.814,0-0.848,0c-0.121,0-0.24,0-0.363,0c-0.242,0-0.361,0.243-0.361,0.484c0,0.243,0.242,0.363,0.361,0.363
		c0.123,0,0.123,0,0.242,0c1.938,0-2.299,0-0.361,0c0.967,0,1.572,0.604,1.572,1.452c0,0.726-0.605,1.33-1.33,1.33
		c-0.123,0-0.242,0-0.365,0c-3.992,0-1.936,0-6.049,0c-0.969,0-1.936-0.12-2.904-0.604c-1.814-0.726-2.904-2.178-3.389-3.993
		c-0.361-1.33-0.361-2.782-0.121-4.113c0.244-1.332,0.605-2.662,1.453-3.751c0.484-0.727,1.209-1.331,1.936-1.815
		c2.178-1.452,4.234-2.783,6.414-4.234c0.605-0.363,1.209-0.483,1.814-0.243c0.846,0.364,1.211,1.452,0.727,2.3
		c-0.121,0.242-0.484,0.605-0.727,0.726c-0.727,0.604-1.453,1.089-2.299,1.694C19.674,15.965,19.553,15.965,19.553,16.086
		L19.553,16.086z"/>
	<path id="path3025_148_" fill="#6D6E70" d="M20.199,40.395c-11.197,0-20.197-9.106-20.197-20.197S9.107,0,20.199,0
		c11.09,0,20.197,9.106,20.197,20.197S31.396,40.395,20.199,40.395z M20.199,1.048c-10.584,0-19.043,8.584-19.043,19.043
		c0,10.584,8.584,19.044,19.043,19.044c10.584,0,19.043-8.586,19.043-19.044C39.367,9.632,30.783,1.048,20.199,1.048z"/>
</g>
</svg>
