<?xml version="1.0" encoding="UTF-8" standalone="no"?>
<!-- Created with Inkscape (http://www.inkscape.org/) -->

<svg
   xmlns:dc="http://purl.org/dc/elements/1.1/"
   xmlns:cc="http://creativecommons.org/ns#"
   xmlns:rdf="http://www.w3.org/1999/02/22-rdf-syntax-ns#"
   xmlns:svg="http://www.w3.org/2000/svg"
   xmlns="http://www.w3.org/2000/svg"
   version="1.1"
   width="40"
   height="40"
   viewBox="-554 801 40 40"
   id="Warstwa_1"
   xml:space="preserve"><metadata
   id="metadata22"><rdf:RDF><cc:Work
       rdf:about=""><dc:format>image/svg+xml</dc:format><dc:type
         rdf:resource="http://purl.org/dc/dcmitype/StillImage" /><dc:title></dc:title></cc:Work></rdf:RDF></metadata><defs
   id="defs20" />
<style
   type="text/css"
   id="style3" />

<g
   transform="matrix(0.99009901,0,0,0.99009901,-5.4851485,7.930693)"
   id="g2991"><g
     id="Layer_1">
	<g
   id="g6">
		<path
   d="m -533.7,801.9 c -11.1,0 -20,8.9 -20,19.7 0,10.9 9,19.7 20,19.7 11.1,0 20,-8.9 20,-19.7 0.1,-10.8 -8.9,-19.7 -20,-19.7 z"
   id="path8"
   style="fill:#abe0f9" />
		<path
   d="m -534.1,817 c 0.1,0 0.1,0 0.2,0 3.7,0 7.4,0 11.1,0 1.1,0 1.8,1.1 1.2,2.1 -0.2,0.5 -0.7,0.7 -1.3,0.7 -2.2,0 -4.5,0 -6.7,0 -0.4,0 -0.6,0.2 -0.5,0.6 0,0.2 0.2,0.2 0.4,0.4 0.1,0 0.1,0 0.2,0 2.8,0 -1.6,0 1.2,0 0.8,0 1.5,0.5 1.5,1.3 0,0.7 -0.5,1.3 -1.2,1.5 -0.2,0 -0.5,0 -0.7,0 -2.7,0 1.9,0 -0.8,0 -0.1,0 -0.2,0 -0.2,0 -0.2,0 -0.4,0.2 -0.4,0.5 0,0.2 0.1,0.4 0.4,0.5 0.1,0 0.2,0 0.2,0 2.4,0 -2.4,0 0,0 0.5,0 1,0 1.3,0.4 0.4,0.4 0.6,1 0.4,1.5 -0.1,0.5 -0.6,1 -1.2,1 -0.1,0 -0.4,0 -0.5,0 -2.7,0 1.8,0 -0.8,0 -0.1,0 -0.2,0 -0.4,0 -0.2,0 -0.4,0.2 -0.4,0.5 0,0.2 0.2,0.4 0.4,0.4 0.1,0 0.1,0 0.2,0 1.9,0 -2.3,0 -0.4,0 1,0 1.6,0.6 1.6,1.5 0,0.7 -0.6,1.3 -1.3,1.3 -0.1,0 -0.2,0 -0.4,0 -4,0 -1.9,0 -6,0 -1,0 -1.9,-0.1 -2.9,-0.6 -1.8,-0.7 -2.9,-2.2 -3.4,-4 -0.4,-1.3 -0.4,-2.8 -0.1,-4.1 0.2,-1.3 0.6,-2.7 1.5,-3.8 0.5,-0.7 1.2,-1.3 1.9,-1.8 2.2,-1.5 4.2,-2.8 6.4,-4.2 0.6,-0.4 1.2,-0.5 1.8,-0.2 0.8,0.4 1.2,1.5 0.7,2.3 -0.1,0.2 -0.5,0.6 -0.7,0.7 -0.7,0.6 -1.5,1.1 -2.3,1.7 0.1,-0.3 0,-0.3 0,-0.2 l 0,0 z"
   id="path39_1_"
   style="fill:#595958" />
	</g>
</g><g
     id="Warstwa_2">
	<g
   id="g12">
		<g
   id="g14">
			<path
   d="m -533.8,802.1 c 10.5,0 19.1,8.6 19.1,19.1 0,10.5 -8.6,19.1 -19.1,19.1 -10.5,0 -19.1,-8.6 -19.1,-19.1 0,-10.5 8.6,-19.1 19.1,-19.1 m 0,-1.1 c -11.2,0 -20.2,9 -20.2,20.2 0,11.2 9,20.2 20.2,20.2 11.2,0 20.2,-9 20.2,-20.2 0,-11.2 -9,-20.2 -20.2,-20.2 l 0,0 z"
   id="path16"
   style="fill:#595958" />
		</g>
	</g>
</g></g>
</svg>