<?xml version="1.0" encoding="utf-8"?>
<!-- Generator: Adobe Illustrator 16.0.0, SVG Export Plug-In . SVG Version: 6.00 Build 0)  -->
<!DOCTYPE svg PUBLIC "-//W3C//DTD SVG 1.1//EN" "http://www.w3.org/Graphics/SVG/1.1/DTD/svg11.dtd">
<svg version="1.1" id="Layer_1" xmlns="http://www.w3.org/2000/svg" xmlns:xlink="http://www.w3.org/1999/xlink" x="0px" y="0px"
	 width="40.395px" height="40.395px" viewBox="0 0 40.395 40.395" enable-background="new 0 0 40.395 40.395" xml:space="preserve">
<g>
	<path id="path3179_12_" fill="#9AADE8" d="M20.197,40.394C9,40.394,0,31.287,0,20.196C0,9,9.107,0,20.197,0
		s20.196,9.105,20.196,20.196C40.5,31.287,31.394,40.394,20.197,40.394z"/>
	<path id="path3025_79_" fill="#6D6E70" d="M20.197,40.395C9,40.395,0,31.288,0,20.197S9.107,0,20.197,0
		c11.092,0,20.197,9.106,20.197,20.197S31.395,40.395,20.197,40.395z M20.197,1.048c-10.583,0-19.041,8.584-19.041,19.043
		c0,10.584,8.582,19.044,19.041,19.044c10.584,0,19.043-8.586,19.043-19.044C39.365,9.632,30.781,1.048,20.197,1.048z"/>
</g>
<g id="g3394_2_" transform="translate(-9.2440683,-4.1084745)">
	<g id="miu_3_" transform="translate(-33.356339,-1397.8915)">
		<path id="editor_pencil_pen_edit_write_glyph_3_" fill="#585858" d="M66.4,1427l2.3,2.3l5.2-5.199l-2.3-2.301L66.4,1427z
			 M72.9,1420.5l-1,1l2.3,2.3l1-1c0.3-0.3,0-0.699,0-0.699l-1.6-1.601C73.5,1420.5,73.2,1420.2,72.9,1420.5L72.9,1420.5z
			 M66.1,1427.3l-0.5,2.801l2.8-0.5L66.1,1427.3z"/>
	</g>
	<rect id="rect69_2_" x="28.244" y="14.109" fill="none" stroke="#585858" stroke-miterlimit="10" width="5.1" height="5.101"/>
	<rect id="rect71_2_" x="28.244" y="21.908" fill="none" stroke="#585858" stroke-miterlimit="10" width="5.1" height="5.101"/>
	<rect id="rect73_2_" x="28.244" y="29.709" fill="none" stroke="#585858" stroke-miterlimit="10" width="5.1" height="5.1"/>
	<rect id="rect75_2_" x="17.944" y="15.809" fill="#585858" width="8.5" height="1.8"/>
	<rect id="rect77_2_" x="18.044" y="23.408" fill="#585858" width="8.5" height="1.801"/>
	<rect id="rect79_2_" x="18.044" y="31.309" fill="#585858" width="8.5" height="1.8"/>
	<rect id="rect81_2_" x="29.844" y="15.709" fill="#585858" width="1.9" height="1.899"/>
	<rect id="rect83_2_" x="29.844" y="23.509" fill="#585858" width="1.9" height="1.899"/>
</g>
</svg>
