<?xml version="1.0" encoding="utf-8"?>
<!-- Generator: Adobe Illustrator 16.0.0, SVG Export Plug-In . SVG Version: 6.00 Build 0)  -->
<!DOCTYPE svg PUBLIC "-//W3C//DTD SVG 1.1//EN" "http://www.w3.org/Graphics/SVG/1.1/DTD/svg11.dtd">
<svg version="1.1" id="Layer_1" xmlns="http://www.w3.org/2000/svg" xmlns:xlink="http://www.w3.org/1999/xlink" x="0px" y="0px"
	 width="40.396px" height="40.395px" viewBox="0 0 40.396 40.395" enable-background="new 0 0 40.396 40.395" xml:space="preserve">
<g>
	<path id="path3225_10_" fill="#F399C0" d="M20.197,40.394C9,40.394,0,31.288,0,20.197C0,9,9.107,0,20.197,0
		s20.197,9.106,20.197,20.197C40.5,31.288,31.395,40.394,20.197,40.394z"/>
	<path id="path146_10_" fill="#575757" d="M28.844,21.839c2.023,0,3.693-1.582,3.693-3.694c0-2.022-1.67-3.693-3.693-3.693
		s-3.695,1.671-3.695,3.693C25.238,20.257,26.908,21.839,28.844,21.839z"/>
	<g>
		<g>
			<g>
				<path fill="#575757" d="M28.024,12.472c0-0.497-0.405-0.899-0.899-0.899H10.773c-0.494,0-0.896,0.402-0.896,0.899v14.356
					c0,0.496,0.402,0.898,0.896,0.898h12.059l-0.059,1.794h-12c-1.482,0-2.691-1.209-2.691-2.692V12.472
					c0-1.489,1.209-2.693,2.691-2.693h16.352c1.485,0,2.691,1.205,2.691,2.693l-0.061,0.474l-1.686-0.111L28.024,12.472z"/>
			</g>
		</g>
	</g>
	<g>
		<path fill="#575757" d="M32.537,22.72h-3.693l-4.2,0.036c0,0-8.033-0.231-8.285-0.231c-0.053,0-0.104,0.01-0.155,0.015
			l-3.246-5.636c-0.184-0.316-0.584-0.423-0.899-0.243c-0.317,0.184-0.425,0.585-0.243,0.9l3.251,5.649
			c-0.169,0.25-0.267,0.549-0.267,0.873c0,0.729,0.503,1.338,1.177,1.507l7.019,0.491c1.32,0.313,1.29,1.127,1.29,3.246v4.136
			l-0.016-4.136v4.915h2.72c4.002-2.259,6.96-6.148,7.965-10.764C34.269,23.016,33.459,22.72,32.537,22.72z"/>
	</g>
	<path id="path3025_70_" fill="#6D6E70" d="M20.197,40.395C9,40.395,0,31.288,0,20.197S9.106,0,20.197,0s20.197,9.106,20.197,20.197
		S31.395,40.395,20.197,40.395z M20.197,1.048c-10.584,0-19.042,8.584-19.042,19.043c0,10.584,8.583,19.044,19.042,19.044
		c10.584,0,19.043-8.586,19.043-19.044C39.365,9.632,30.781,1.048,20.197,1.048z"/>
</g>
</svg>
