<?xml version="1.0" encoding="utf-8"?>
<!-- Generator: Adobe Illustrator 16.0.0, SVG Export Plug-In . SVG Version: 6.00 Build 0)  -->
<!DOCTYPE svg PUBLIC "-//W3C//DTD SVG 1.1//EN" "http://www.w3.org/Graphics/SVG/1.1/DTD/svg11.dtd">
<svg version="1.1" id="Layer_1" xmlns="http://www.w3.org/2000/svg" xmlns:xlink="http://www.w3.org/1999/xlink" x="0px" y="0px"
	 width="40.395px" height="40.395px" viewBox="0 0 40.395 40.395" enable-background="new 0 0 40.395 40.395" xml:space="preserve">
<g>
	<path id="path3179_16_" fill="#FFFFFF" d="M20.197,40.394C9,40.394,0,31.287,0,20.196C0,9,9.107,0,20.197,0
		s20.196,9.105,20.196,20.196C40.5,31.287,31.394,40.394,20.197,40.394z"/>
	<g id="g3236_6_" transform="translate(-11.127119,-9.7576275)">
		<g id="g3223_6_" transform="translate(11.129809,9.7253447)">
			<path id="path3227_6_" fill="#585858" d="M28.698,11.229h-7.301c-0.496,0-0.886,0.389-1.203,0.778
				c-0.285-0.39-0.709-0.778-1.205-0.778h-7.299c-0.709,0-2.092,0.389-2.092,2.09v13.323c0,0.567,0.495,1.1,1.1,1.1h7.582
				c1.027,0,1.418,1.699,1.418,1.699v0.176h0.885h0.213v-0.176c0,0,0.391-1.699,1.418-1.699h7.582c0.602,0,1.098-0.532,1.098-1.1
				V13.319C30.894,11.618,29.512,11.229,28.698,11.229z M29.406,26.111c0,0,0,0.105-0.105,0.105h-0.105h-7.088
				c-0.496,0-0.92,0.318-1.205,0.496V13.035c0-0.21,0.178-0.424,0.391-0.424h7.902c0.105,0,0.211,0.107,0.211,0.213V26.111z
				 M19.486,13.035v13.785c-0.283-0.177-0.674-0.495-1.205-0.495h-7.086h-0.107l-0.105-0.107V12.824
				c0-0.106,0.105-0.213,0.213-0.213h7.899C19.413,12.611,19.486,12.824,19.486,13.035z"/>
		</g>
	</g>
	<path id="path3025_83_" fill="#6D6E70" d="M20.197,40.395C9,40.395,0,31.288,0,20.197S9.107,0,20.197,0
		c11.092,0,20.197,9.106,20.197,20.197S31.395,40.395,20.197,40.395z M20.197,1.048c-10.583,0-19.041,8.584-19.041,19.043
		c0,10.584,8.582,19.044,19.041,19.044c10.584,0,19.043-8.586,19.043-19.044C39.365,9.632,30.781,1.048,20.197,1.048z"/>
</g>
</svg>
