<?xml version="1.0" encoding="utf-8"?>
<!-- Generator: Adobe Illustrator 16.0.0, SVG Export Plug-In . SVG Version: 6.00 Build 0)  -->
<!DOCTYPE svg PUBLIC "-//W3C//DTD SVG 1.1//EN" "http://www.w3.org/Graphics/SVG/1.1/DTD/svg11.dtd">
<svg version="1.1" id="Layer_1" xmlns="http://www.w3.org/2000/svg" xmlns:xlink="http://www.w3.org/1999/xlink" x="0px" y="0px"
	 width="40.4px" height="40.4px" viewBox="0 0 40.4 40.4" enable-background="new 0 0 40.4 40.4" xml:space="preserve">
<g>
	<g>
		<path fill="#F399C0" d="M19.999,1C8.884,1,0,9.876,0,20.692c0,10.945,9.015,19.693,19.999,19.693c11.116,0,20-8.878,20-19.693
			C40.13,9.876,31.115,1,19.999,1z"/>
		<path id="path3025_92_" fill="#6D6E70" d="M20.198,40.395c-11.197,0-20.197-9.106-20.197-20.197S9.107,0,20.198,0
			s20.197,9.106,20.197,20.197S31.396,40.395,20.198,40.395z M20.198,1.048c-10.584,0-19.042,8.584-19.042,19.043
			c0,10.584,8.583,19.044,19.042,19.044c10.584,0,19.043-8.586,19.043-19.044C39.366,9.632,30.782,1.048,20.198,1.048z"/>
	</g>
	<g id="g3363" transform="translate(-4.4508475,-7.3610172)">
		<path id="path92" fill="#575757" d="M18.9,30.265c0-0.123,0-0.123,0-0.245c0-3.801,0-7.479,0-11.281
			c0-1.103,1.104-1.84,2.083-1.227c0.491,0.246,0.737,0.737,0.737,1.35c0,2.207,0,4.536,0,6.745c0,0.367,0.244,0.612,0.611,0.489
			c0.246,0,0.246-0.245,0.371-0.367c0-0.122,0-0.122,0-0.245c0-2.82,0-5.764,0-8.584c0-0.858,0.487-1.471,1.346-1.471
			c0.736,0,1.349,0.491,1.472,1.226c0,0.245,0,0.492,0,0.737c0,2.698,0,5.394,0,8.216c0,0.122,0,0.244,0,0.244
			c0,0.245,0.245,0.368,0.49,0.368c0.246,0,0.37-0.124,0.491-0.368c0-0.123,0-0.244,0-0.244c0-2.453,0-4.905,0-7.357
			c0-0.492,0-0.982,0.368-1.35c0.368-0.367,0.981-0.613,1.472-0.367c0.492,0.122,0.979,0.614,0.979,1.226c0,0.123,0,0.368,0,0.492
			c0,2.697,0,5.518,0,8.214c0,0.124,0,0.246,0,0.369c0,0.245,0.245,0.368,0.492,0.368c0.245,0,0.366-0.246,0.366-0.368
			s0-0.123,0-0.245c0-1.963,0-3.803,0-5.764c0-0.981,0.614-1.594,1.472-1.594c0.737,0,1.349,0.612,1.349,1.349
			c0,0.123,0,0.245,0,0.368c0,4.047,0,8.093,0,12.262c0,0.982-0.121,1.962-0.611,2.944c-0.737,1.838-2.209,2.943-4.047,3.433
			c-1.349,0.368-2.821,0.368-4.168,0.124c-1.349-0.246-2.699-0.613-3.804-1.472c-0.735-0.492-1.348-1.226-1.84-1.962
			c-1.47-2.207-2.818-4.292-4.29-6.499c-0.368-0.614-0.491-1.226-0.247-1.839c0.368-0.859,1.474-1.226,2.332-0.735
			c0.244,0.121,0.613,0.49,0.735,0.735c0.612,0.736,1.104,1.471,1.716,2.33C18.776,30.142,18.776,30.142,18.9,30.265L18.9,30.265z"
			/>
	</g>
</g>
</svg>
