<?xml version="1.0" encoding="utf-8"?>
<!-- Generator: Adobe Illustrator 19.1.0, SVG Export Plug-In . SVG Version: 6.00 Build 0)  -->
<svg version="1.1" id="Layer_1" xmlns="http://www.w3.org/2000/svg" xmlns:xlink="http://www.w3.org/1999/xlink" x="0px" y="0px"
	 viewBox="0 0 40.395 40.395" enable-background="new 0 0 40.395 40.395" xml:space="preserve">
<g>
	<path fill="#9FC9EB" d="M20.406,1C9.518,1,0.815,9.754,0.815,20.421c0,10.795,8.831,19.422,19.591,19.422
		c10.889,0,19.592-8.756,19.592-19.422C40.126,9.754,31.296,1,20.406,1z"/>
	<path id="path3025_1_" fill="#6D6E70" d="M20.197,40.395C9,40.395,0,31.288,0,20.197S9.106,0,20.197,0s20.197,9.106,20.197,20.197
		S31.394,40.395,20.197,40.395z M20.197,1.048c-10.584,0-19.042,8.584-19.042,19.043c0,10.584,8.583,19.044,19.042,19.044
		c10.584,0,19.043-8.586,19.043-19.044C39.365,9.632,30.781,1.048,20.197,1.048z"/>
	<path fill="none" stroke="#595958" stroke-width="2" stroke-linecap="round" stroke-linejoin="round" stroke-miterlimit="10" d="
		M17.316,27.496v-7.769c0-2.023,1.507-3.793,3.531-3.793c2.023,0,3.661,1.638,3.661,3.662l0.152,8.366
		c0,2.745-1.825,5.171-5.201,5.171c-2.836,0-5.133-2.297-5.133-5.134V14.381c0-3.351,1.601-7.12,6.333-7.12
		c4.732,0,6.332,3.552,6.332,6.937v8.973"/>
</g>
</svg>
