<?xml version="1.0" encoding="utf-8"?>
<!-- Generator: Adobe Illustrator 16.0.0, SVG Export Plug-In . SVG Version: 6.00 Build 0)  -->
<!DOCTYPE svg PUBLIC "-//W3C//DTD SVG 1.1//EN" "http://www.w3.org/Graphics/SVG/1.1/DTD/svg11.dtd">
<svg version="1.1" id="Layer_1" xmlns="http://www.w3.org/2000/svg" xmlns:xlink="http://www.w3.org/1999/xlink" x="0px" y="0px"
	 width="40.399px" height="40.4px" viewBox="0 0 40.399 40.4" enable-background="new 0 0 40.399 40.4" xml:space="preserve">
<g>
	<g>
		<g>
			<path fill="#F399C0" d="M20.003,1C8.888,1,0.004,9.876,0.004,20.692c0,10.945,9.015,19.693,19.999,19.693
				c11.116,0,20-8.878,20-19.693C40.134,9.876,31.119,1,20.003,1z"/>
			<path id="path3025_93_" fill="#6D6E70" d="M20.202,40.395c-11.197,0-20.197-9.106-20.197-20.197S9.111,0,20.202,0
				s20.197,9.106,20.197,20.197S31.399,40.395,20.202,40.395z M20.202,1.048C9.618,1.048,1.16,9.632,1.16,20.091
				c0,10.584,8.583,19.044,19.042,19.044c10.584,0,19.043-8.586,19.043-19.044C39.37,9.632,30.786,1.048,20.202,1.048z"/>
		</g>
	</g>
	<g id="g3350" transform="translate(4.9644068,-1.5406781)">
		<polygon id="polygon101" fill="#575757" points="19.667,14.991 23.116,9.415 7.319,9.415 10.771,14.991 7.326,28.665 
			14.361,28.665 14.364,34.834 16.089,34.834 16.087,28.665 23.123,28.664 		"/>
	</g>
</g>
</svg>
