<?xml version="1.0" encoding="utf-8"?>
<!-- Generator: Adobe Illustrator 16.0.0, SVG Export Plug-In . SVG Version: 6.00 Build 0)  -->
<!DOCTYPE svg PUBLIC "-//W3C//DTD SVG 1.1//EN" "http://www.w3.org/Graphics/SVG/1.1/DTD/svg11.dtd">
<svg version="1.1" id="Layer_1" xmlns="http://www.w3.org/2000/svg" xmlns:xlink="http://www.w3.org/1999/xlink" x="0px" y="0px"
	 width="40.398px" height="40.4px" viewBox="0 0 40.398 40.4" enable-background="new 0 0 40.398 40.4" xml:space="preserve">
<g>
	<path id="path120_3_" fill="#D2F943" d="M20.199,40.4C9,40.4,0,31.299,0,20.199C0,9,9.1,0,20.199,0
		c11.099,0,20.198,9.1,20.198,20.199C40.499,31.299,31.397,40.4,20.199,40.4z"/>
	<g id="g3331_4_" transform="translate(-9.0728816,3.2525426)">
		<path id="path110_4_" fill="#585858" d="M40.175,27.03c-0.993-0.124-1.861-0.373-2.729-0.497c-1.614-0.247-3.229-0.62-4.84-0.867
			c-0.124,0-0.25,0-0.373,0c-1.611,0.371-3.102,0.497-4.713,0.371c-2.234-0.248-4.22-0.991-5.957-2.355
			c-1.738-1.367-2.979-3.104-3.475-5.337c-0.621-2.606,0-4.964,1.613-7.072c1.613-2.11,3.723-3.352,6.204-3.972
			c1.364-0.371,2.729-0.497,4.095-0.371c3.102,0.248,5.831,1.365,7.939,3.723c1.241,1.365,1.987,2.853,2.234,4.714
			c0.373,2.604-0.373,4.84-2.108,6.824c-0.373,0.497-0.497,0.497-0.126,0.993c0.746,1.241,1.367,2.358,2.111,3.6
			C40.052,26.906,40.052,26.906,40.175,27.03z M35.46,22.44c0.497-0.497,0.993-0.993,1.366-1.491
			c1.611-2.107,2.109-4.342,1.241-6.824c-0.746-1.984-2.11-3.349-3.849-4.342C31.986,8.541,29.505,8.17,26.9,8.664
			c-2.234,0.373-4.219,1.366-5.709,3.103c-0.992,1.117-1.612,2.607-1.735,4.095c-0.126,2.108,0.494,3.847,1.984,5.337
			c1.861,1.984,4.093,2.853,6.701,3.102c1.364,0.124,2.728,0,4.093-0.372c0.123,0,0.373-0.124,0.496,0
			c1.117,0.246,2.109,0.372,3.227,0.62c0.373,0.123,0.62,0.123,1.117,0.247C36.33,23.928,35.957,23.183,35.46,22.44z"/>
		<path id="path112_4_" fill="#585858" d="M26.154,12.884c0.746-0.371,1.367-0.621,2.234-0.744c0.744-0.123,1.365-0.123,2.107,0
			c0.871,0.247,1.615,0.62,1.738,1.613c0.249,0.991-0.123,1.862-0.867,2.482c-0.25,0.123-0.498,0.371-0.744,0.494
			c-0.621,0.373-0.746,0.373-0.746,1.24c-0.621,0-1.24,0-1.861,0c-0.123-0.867,0.126-1.611,0.87-2.232
			c0.247-0.122,0.497-0.248,0.62-0.496l0.123-0.123c0.248-0.25,0.373-0.496,0.248-0.87c-0.123-0.371-0.494-0.371-0.744-0.371
			c-0.371,0-0.867,0.124-1.24,0.247c-0.371,0.124-0.621,0.25-0.992,0.374C26.65,14.001,26.404,13.504,26.154,12.884z"/>
		<path id="path114_4_" fill="#585858" d="M28.885,21.323c-0.993,0-1.491-0.621-1.241-1.614c0.123-0.62,0.744-0.744,1.364-0.744
			s0.993,0.374,1.116,0.744C30.373,20.578,29.877,21.323,28.885,21.323z"/>
		<path id="path122_4_" fill="#585858" d="M40.175,27.03c-0.993-0.124-1.861-0.373-2.729-0.497c-1.614-0.247-3.229-0.62-4.84-0.867
			c-0.124,0-0.25,0-0.373,0c-1.611,0.371-3.102,0.497-4.713,0.371c-2.234-0.248-4.22-0.991-5.957-2.355
			c-1.738-1.367-2.979-3.104-3.475-5.337c-0.621-2.606,0-4.964,1.613-7.072c1.613-2.11,3.723-3.352,6.204-3.972
			c1.364-0.371,2.729-0.497,4.095-0.371c3.102,0.248,5.831,1.365,7.939,3.723c1.241,1.365,1.987,2.853,2.234,4.714
			c0.373,2.604-0.373,4.84-2.108,6.824c-0.373,0.497-0.497,0.497-0.126,0.993c0.746,1.241,1.367,2.358,2.111,3.6
			C40.052,26.906,40.052,26.906,40.175,27.03z M35.46,22.44c0.497-0.497,0.993-0.993,1.366-1.491
			c1.611-2.107,2.109-4.342,1.241-6.824c-0.746-1.984-2.11-3.349-3.849-4.342C31.986,8.541,29.505,8.17,26.9,8.664
			c-2.234,0.373-4.219,1.366-5.709,3.103c-0.992,1.117-1.612,2.607-1.735,4.095c-0.126,2.108,0.494,3.847,1.984,5.337
			c1.861,1.984,4.093,2.853,6.701,3.102c1.364,0.124,2.728,0,4.093-0.372c0.123,0,0.373-0.124,0.496,0
			c1.117,0.246,2.109,0.372,3.227,0.62c0.373,0.123,0.62,0.123,1.117,0.247C36.33,23.928,35.957,23.183,35.46,22.44z"/>
		<path id="path124_4_" fill="#585858" d="M26.154,12.884c0.746-0.371,1.367-0.621,2.234-0.744c0.744-0.123,1.365-0.123,2.107,0
			c0.871,0.247,1.615,0.62,1.738,1.613c0.249,0.991-0.123,1.862-0.867,2.482c-0.25,0.123-0.498,0.371-0.744,0.494
			c-0.621,0.373-0.746,0.373-0.746,1.24c-0.621,0-1.24,0-1.861,0c-0.123-0.867,0.126-1.611,0.87-2.232
			c0.247-0.122,0.497-0.248,0.62-0.496l0.123-0.123c0.248-0.25,0.373-0.496,0.248-0.87c-0.123-0.371-0.494-0.371-0.744-0.371
			c-0.371,0-0.867,0.124-1.24,0.247c-0.371,0.124-0.621,0.25-0.992,0.374C26.65,14.001,26.404,13.504,26.154,12.884z"/>
		<path id="path126_4_" fill="#585858" d="M28.885,21.323c-0.993,0-1.491-0.621-1.241-1.614c0.123-0.62,0.744-0.744,1.364-0.744
			s0.993,0.374,1.116,0.744C30.373,20.578,29.877,21.323,28.885,21.323z"/>
	</g>
	<path id="path3025_78_" fill="#6D6E70" d="M20.197,40.395C9,40.395,0,31.288,0,20.197S9.106,0,20.197,0s20.197,9.106,20.197,20.197
		S31.395,40.395,20.197,40.395z M20.197,1.048c-10.584,0-19.042,8.584-19.042,19.043c0,10.584,8.582,19.044,19.042,19.044
		c10.584,0,19.043-8.586,19.043-19.044C39.365,9.632,30.781,1.048,20.197,1.048z"/>
</g>
</svg>
