<?xml version="1.0" encoding="UTF-8" standalone="no"?>
<!-- Created with Inkscape (http://www.inkscape.org/) -->

<svg
   xmlns:dc="http://purl.org/dc/elements/1.1/"
   xmlns:cc="http://creativecommons.org/ns#"
   xmlns:rdf="http://www.w3.org/1999/02/22-rdf-syntax-ns#"
   xmlns:svg="http://www.w3.org/2000/svg"
   xmlns="http://www.w3.org/2000/svg"
   version="1.1"
   width="40.397999"
   height="40.400002"
   viewBox="0 0 40.398 40.4"
   id="Layer_1"
   xml:space="preserve"><metadata
   id="metadata18"><rdf:RDF><cc:Work
       rdf:about=""><dc:format>image/svg+xml</dc:format><dc:type
         rdf:resource="http://purl.org/dc/dcmitype/StillImage" /><dc:title></dc:title></cc:Work></rdf:RDF></metadata><defs
   id="defs16">
	
	
	
</defs>
<path
   d="M 20.199,40.4 C 9,40.4 0,31.299 0,20.199 0,9 9.1,0 20.199,0 c 11.099,0 20.198,9.1 20.198,20.199 0.102,11.1 -9,20.201 -20.198,20.201 z"
   id="path120_3_"
   style="fill:#ffffff" /><g
   transform="translate(-9.0728816,3.2525426)"
   id="g3331_4_">
		<path
   d="m 40.175,27.03 c -0.993,-0.124 -1.861,-0.373 -2.729,-0.497 -1.614,-0.247 -3.229,-0.62 -4.84,-0.867 -0.124,0 -0.25,0 -0.373,0 -1.611,0.371 -3.102,0.497 -4.713,0.371 -2.234,-0.248 -4.22,-0.991 -5.957,-2.355 -1.738,-1.367 -2.979,-3.104 -3.475,-5.337 -0.621,-2.606 0,-4.964 1.613,-7.072 1.613,-2.11 3.723,-3.352 6.204,-3.972 C 27.269,6.93 28.634,6.804 30,6.93 c 3.102,0.248 5.831,1.365 7.939,3.723 1.241,1.365 1.987,2.853 2.234,4.714 0.373,2.604 -0.373,4.84 -2.108,6.824 -0.373,0.497 -0.497,0.497 -0.126,0.993 0.746,1.241 1.367,2.358 2.111,3.6 0.002,0.122 0.002,0.122 0.125,0.246 z M 35.46,22.44 c 0.497,-0.497 0.993,-0.993 1.366,-1.491 1.611,-2.107 2.109,-4.342 1.241,-6.824 C 37.321,12.141 35.957,10.776 34.218,9.783 31.986,8.541 29.505,8.17 26.9,8.664 c -2.234,0.373 -4.219,1.366 -5.709,3.103 -0.992,1.117 -1.612,2.607 -1.735,4.095 -0.126,2.108 0.494,3.847 1.984,5.337 1.861,1.984 4.093,2.853 6.701,3.102 1.364,0.124 2.728,0 4.093,-0.372 0.123,0 0.373,-0.124 0.496,0 1.117,0.246 2.109,0.372 3.227,0.62 0.373,0.123 0.62,0.123 1.117,0.247 C 36.33,23.928 35.957,23.183 35.46,22.44 z"
   id="path110_4_"
   style="fill:#585858" />
		<path
   d="m 26.154,12.884 c 0.746,-0.371 1.367,-0.621 2.234,-0.744 0.744,-0.123 1.365,-0.123 2.107,0 0.871,0.247 1.615,0.62 1.738,1.613 0.249,0.991 -0.123,1.862 -0.867,2.482 -0.25,0.123 -0.498,0.371 -0.744,0.494 -0.621,0.373 -0.746,0.373 -0.746,1.24 -0.621,0 -1.24,0 -1.861,0 -0.123,-0.867 0.126,-1.611 0.87,-2.232 0.247,-0.122 0.497,-0.248 0.62,-0.496 l 0.123,-0.123 c 0.248,-0.25 0.373,-0.496 0.248,-0.87 -0.123,-0.371 -0.494,-0.371 -0.744,-0.371 -0.371,0 -0.867,0.124 -1.24,0.247 -0.371,0.124 -0.621,0.25 -0.992,0.374 -0.25,-0.497 -0.496,-0.994 -0.746,-1.614 z"
   id="path112_4_"
   style="fill:#585858" />
		<path
   d="m 28.885,21.323 c -0.993,0 -1.491,-0.621 -1.241,-1.614 0.123,-0.62 0.744,-0.744 1.364,-0.744 0.62,0 0.993,0.374 1.116,0.744 0.249,0.869 -0.247,1.614 -1.239,1.614 z"
   id="path114_4_"
   style="fill:#585858" />
		<path
   d="m 40.175,27.03 c -0.993,-0.124 -1.861,-0.373 -2.729,-0.497 -1.614,-0.247 -3.229,-0.62 -4.84,-0.867 -0.124,0 -0.25,0 -0.373,0 -1.611,0.371 -3.102,0.497 -4.713,0.371 -2.234,-0.248 -4.22,-0.991 -5.957,-2.355 -1.738,-1.367 -2.979,-3.104 -3.475,-5.337 -0.621,-2.606 0,-4.964 1.613,-7.072 1.613,-2.11 3.723,-3.352 6.204,-3.972 C 27.269,6.93 28.634,6.804 30,6.93 c 3.102,0.248 5.831,1.365 7.939,3.723 1.241,1.365 1.987,2.853 2.234,4.714 0.373,2.604 -0.373,4.84 -2.108,6.824 -0.373,0.497 -0.497,0.497 -0.126,0.993 0.746,1.241 1.367,2.358 2.111,3.6 0.002,0.122 0.002,0.122 0.125,0.246 z M 35.46,22.44 c 0.497,-0.497 0.993,-0.993 1.366,-1.491 1.611,-2.107 2.109,-4.342 1.241,-6.824 C 37.321,12.141 35.957,10.776 34.218,9.783 31.986,8.541 29.505,8.17 26.9,8.664 c -2.234,0.373 -4.219,1.366 -5.709,3.103 -0.992,1.117 -1.612,2.607 -1.735,4.095 -0.126,2.108 0.494,3.847 1.984,5.337 1.861,1.984 4.093,2.853 6.701,3.102 1.364,0.124 2.728,0 4.093,-0.372 0.123,0 0.373,-0.124 0.496,0 1.117,0.246 2.109,0.372 3.227,0.62 0.373,0.123 0.62,0.123 1.117,0.247 C 36.33,23.928 35.957,23.183 35.46,22.44 z"
   id="path122_4_"
   style="fill:#585858" />
		<path
   d="m 26.154,12.884 c 0.746,-0.371 1.367,-0.621 2.234,-0.744 0.744,-0.123 1.365,-0.123 2.107,0 0.871,0.247 1.615,0.62 1.738,1.613 0.249,0.991 -0.123,1.862 -0.867,2.482 -0.25,0.123 -0.498,0.371 -0.744,0.494 -0.621,0.373 -0.746,0.373 -0.746,1.24 -0.621,0 -1.24,0 -1.861,0 -0.123,-0.867 0.126,-1.611 0.87,-2.232 0.247,-0.122 0.497,-0.248 0.62,-0.496 l 0.123,-0.123 c 0.248,-0.25 0.373,-0.496 0.248,-0.87 -0.123,-0.371 -0.494,-0.371 -0.744,-0.371 -0.371,0 -0.867,0.124 -1.24,0.247 -0.371,0.124 -0.621,0.25 -0.992,0.374 -0.25,-0.497 -0.496,-0.994 -0.746,-1.614 z"
   id="path124_4_"
   style="fill:#585858" />
		<path
   d="m 28.885,21.323 c -0.993,0 -1.491,-0.621 -1.241,-1.614 0.123,-0.62 0.744,-0.744 1.364,-0.744 0.62,0 0.993,0.374 1.116,0.744 0.249,0.869 -0.247,1.614 -1.239,1.614 z"
   id="path126_4_"
   style="fill:#585858" />
	</g><path
   d="M 20.197,40.395 C 9,40.395 0,31.288 0,20.197 0,9.106 9.106,0 20.197,0 c 11.091,0 20.197,9.106 20.197,20.197 0,11.091 -8.999,20.198 -20.197,20.198 z m 0,-39.347 c -10.584,0 -19.042,8.584 -19.042,19.043 0,10.584 8.582,19.044 19.042,19.044 10.584,0 19.043,-8.586 19.043,-19.044 C 39.365,9.632 30.781,1.048 20.197,1.048 z"
   id="path3025_78_"
   style="fill:#6d6e70" />
</svg>