<?xml version="1.0" encoding="utf-8"?>
<!-- Generator: Adobe Illustrator 16.0.0, SVG Export Plug-In . SVG Version: 6.00 Build 0)  -->
<!DOCTYPE svg PUBLIC "-//W3C//DTD SVG 1.1//EN" "http://www.w3.org/Graphics/SVG/1.1/DTD/svg11.dtd">
<svg version="1.1" id="Layer_1" xmlns="http://www.w3.org/2000/svg" xmlns:xlink="http://www.w3.org/1999/xlink" x="0px" y="0px"
	 width="40.395px" height="40.395px" viewBox="0 0 40.395 40.395" enable-background="new 0 0 40.395 40.395" xml:space="preserve">
<g>
	<path fill="#ABE0F9" d="M19.998,0.5C8.883,0.5,0,9.376,0,20.192c0,10.945,9.014,19.693,19.998,19.693c11.117,0,20-8.878,20-19.693
		C40.129,9.376,31.115,0.5,19.998,0.5z"/>
	<g id="g3480_4_" transform="translate(0.17118651,-6.847458)">
		<path id="path11_4_" fill="#585858" d="M10.447,39.247c0-7.364,0-14.605,0-21.971c1.569,0,3.138,0,4.587,0
			c0.604,0,0.846-0.121,1.086-0.846c0.483-1.932,2.294-3.38,4.225-3.38c1.934,0,3.865,1.448,4.227,3.38
			c0.121,0.604,0.363,0.725,0.967,0.725c1.447,0,3.018,0,4.465,0c0,7.363,0,14.606,0,21.972
			C23.485,39.247,16.966,39.247,10.447,39.247z M12.741,19.33c0,5.913,0,11.829,0,17.743c4.948,0,9.777,0,14.727,0
			c0-5.914,0-11.83,0-17.743C22.518,19.33,17.689,19.33,12.741,19.33z"/>
		<path id="path13_4_" fill="#585858" d="M20.344,27.055c0.244,0.481,0.604,0.964,0.848,1.448c1.326-0.844,2.535-1.69,3.861-2.534
			c0.242,0.481,0.604,0.844,0.846,1.325c-1.811,1.209-3.5,2.415-5.311,3.622c-0.604-1.087-1.088-2.051-1.691-3.018
			C19.381,27.537,19.741,27.295,20.344,27.055z"/>
		<path id="path15_4_" fill="#585858" d="M18.897,22.588c0.483-0.242,0.967-0.483,1.327-0.725c0.242,0.482,0.483,0.846,0.846,1.326
			c1.329-0.844,2.536-1.688,3.864-2.532c0.24,0.482,0.604,0.844,0.844,1.326c-1.811,1.206-3.5,2.415-5.312,3.622
			C19.984,24.641,19.501,23.674,18.897,22.588z"/>
		<path id="path17_4_" fill="#585858" d="M14.673,21.863c0.844,0,1.689,0,2.533,0c0,0.846,0,1.57,0,2.414c-0.844,0-1.689,0-2.533,0
			C14.673,23.553,14.673,22.709,14.673,21.863z"/>
		<path id="path19_4_" fill="#585858" d="M17.087,31.762c0,0.846,0,1.57,0,2.414c-0.845,0-1.691,0-2.535,0c0-0.844,0-1.568,0-2.414
			C15.395,31.762,16.12,31.762,17.087,31.762z"/>
		<path id="path21_4_" fill="#585858" d="M14.551,29.346c0-0.843,0-1.567,0-2.415c0.844,0,1.568,0,2.535,0c0,0.729,0,1.572,0,2.415
			C16.242,29.346,15.395,29.346,14.551,29.346z"/>
	</g>
	<path id="path3025_66_" fill="#6D6E70" d="M20.197,40.395C9,40.395,0,31.288,0,20.197S9.105,0,20.197,0
		c11.09,0,20.197,9.106,20.197,20.197S31.395,40.395,20.197,40.395z M20.197,1.048c-10.584,0-19.043,8.584-19.043,19.043
		c0,10.584,8.582,19.044,19.043,19.044c10.584,0,19.043-8.586,19.043-19.044C39.365,9.632,30.781,1.048,20.197,1.048z"/>
</g>
</svg>
