<?xml version="1.0" encoding="utf-8"?>
<!-- Generator: Adobe Illustrator 16.0.0, SVG Export Plug-In . SVG Version: 6.00 Build 0)  -->
<!DOCTYPE svg PUBLIC "-//W3C//DTD SVG 1.1//EN" "http://www.w3.org/Graphics/SVG/1.1/DTD/svg11.dtd">
<svg version="1.1" id="Layer_1" xmlns="http://www.w3.org/2000/svg" xmlns:xlink="http://www.w3.org/1999/xlink" x="0px" y="0px"
	 width="40.396px" height="40.395px" viewBox="0 0 40.396 40.395" enable-background="new 0 0 40.396 40.395" xml:space="preserve">
<g>
	<g>
		<path fill="#ABE0F9" d="M19.999,1C8.884,1,0,9.876,0,20.692c0,10.945,9.015,19.693,19.999,19.693c11.116,0,20-8.878,20-19.693
			C40.13,9.876,31.115,1,19.999,1z"/>
		<path id="path3025_87_" fill="#6D6E70" d="M20.198,40.395c-11.197,0-20.197-9.106-20.197-20.197S9.107,0,20.198,0
			s20.197,9.106,20.197,20.197S31.396,40.395,20.198,40.395z M20.198,1.048c-10.584,0-19.042,8.584-19.042,19.043
			c0,10.584,8.583,19.044,19.042,19.044c10.584,0,19.043-8.586,19.043-19.044C39.366,9.632,30.782,1.048,20.198,1.048z"/>
	</g>
	<g>
		<g>
			
				<rect x="9.693" y="15.847" fill="#585858" stroke="#585858" stroke-width="0.3" stroke-miterlimit="10" width="8.087" height="1.264"/>
			
				<rect x="9.693" y="19.134" fill="#585858" stroke="#585858" stroke-width="0.3" stroke-miterlimit="10" width="8.087" height="1.263"/>
			
				<rect x="9.693" y="22.42" fill="#585858" stroke="#585858" stroke-width="0.3" stroke-miterlimit="10" width="8.087" height="1.265"/>
			<path fill="#585858" stroke="#585858" stroke-width="0.3" stroke-miterlimit="10" d="M18.876,27.051H8.769
				c-0.35,0-0.633-0.283-0.633-0.632V13.782c0-0.348,0.283-0.632,0.633-0.632h10.107c0.344,0,0.62,0.276,0.629,0.617
				c0,0.005-0.002,0.01-0.002,0.015v12.637c0,0.005,0.002,0.01,0.002,0.015C19.496,26.775,19.22,27.051,18.876,27.051z
				 M23.325,27.051h-1.926c-0.344,0-0.621-0.276-0.629-0.617c0-0.005,0-0.01,0-0.015V13.782c0-0.005,0-0.01,0-0.015
				c0.008-0.341,0.285-0.617,0.629-0.617h10.108c0.348,0,0.632,0.284,0.632,0.632v12.637c0,0.349-0.284,0.632-0.632,0.632h-2.339
				l-0.447,1.264h2.786c1.045,0,1.895-0.85,1.895-1.896V13.782c0-1.045-0.85-1.896-1.895-1.896H21.399
				c-0.486,0-0.926,0.189-1.262,0.491c-0.336-0.302-0.775-0.491-1.262-0.491H8.769c-1.047,0-1.896,0.851-1.896,1.896v12.637
				c0,1.045,0.85,1.896,1.896,1.896h10.107c0.486,0,0.926-0.188,1.262-0.491c0.336,0.303,0.775,0.491,1.262,0.491h1.43
				L23.325,27.051z"/>
			
				<rect x="22.325" y="15.847" fill="#585858" stroke="#585858" stroke-width="0.3" stroke-miterlimit="10" width="8.087" height="1.264"/>
			
				<rect x="22.325" y="19.134" fill="#585858" stroke="#585858" stroke-width="0.3" stroke-miterlimit="10" width="4.504" height="1.263"/>
			
				<rect x="22.325" y="22.42" fill="#585858" stroke="#585858" stroke-width="0.3" stroke-miterlimit="10" width="2.114" height="1.265"/>
		</g>
	</g>
	<g>
		<path fill="#585858" stroke="#585858" stroke-width="0.3" stroke-miterlimit="10" d="M25.842,34.273l0.638-1.715l-3.98-1.481
			l-0.637,1.715c-0.184,0.489,0.327,0.713,0.327,0.713l2.939,1.094C25.129,34.6,25.659,34.763,25.842,34.273L25.842,34.273z"/>
		<g>
			<polygon fill="#585858" stroke="#585858" stroke-width="0.3" stroke-miterlimit="10" points="29.287,18.934 27.716,20.02 
				29.764,20.782 			"/>
			
				<rect x="21.802" y="24.982" transform="matrix(0.3486 -0.9373 0.9373 0.3486 -8.3073 42.2533)" fill="#585858" stroke="#585858" stroke-width="0.3" stroke-miterlimit="10" width="8.886" height="4.243"/>
		</g>
	</g>
</g>
</svg>
