<?xml version="1.0" encoding="utf-8"?>
<!-- Generator: Adobe Illustrator 16.0.0, SVG Export Plug-In . SVG Version: 6.00 Build 0)  -->
<!DOCTYPE svg PUBLIC "-//W3C//DTD SVG 1.1//EN" "http://www.w3.org/Graphics/SVG/1.1/DTD/svg11.dtd">
<svg version="1.1" id="Layer_1" xmlns="http://www.w3.org/2000/svg" xmlns:xlink="http://www.w3.org/1999/xlink" x="0px" y="0px"
	 width="40.396px" height="40.395px" viewBox="0 0 40.396 40.395" enable-background="new 0 0 40.396 40.395" xml:space="preserve">
<g id="g3115_1_" transform="translate(0.00268962,-0.03228277)">
	<g>
		<path fill="#ABE0F9" d="M19.996,1.032c-11.115,0-19.999,8.876-19.999,19.692c0,10.945,9.015,19.693,19.999,19.693
			c11.116,0,20-8.878,20-19.693C40.127,9.908,31.113,1.032,19.996,1.032z"/>
		<path id="path3025_89_" fill="#6D6E70" d="M20.196,40.427c-11.197,0-20.197-9.106-20.197-20.197S9.105,0.032,20.196,0.032
			S40.393,9.139,40.393,20.23S31.393,40.427,20.196,40.427z M20.196,1.08C9.612,1.08,1.154,9.664,1.154,20.123
			c0,10.584,8.583,19.044,19.042,19.044c10.584,0,19.043-8.586,19.043-19.044C39.364,9.664,30.78,1.08,20.196,1.08z"/>
	</g>
	<g>
		<path id="path3119_1_" fill="#585858" d="M24.891,25.297c0,0.449-0.326,0.897-0.896,0.897h-5.871
			c-0.447,0-0.938-0.327-0.938-0.897l0,0c0-0.487,0.367-0.937,0.938-0.937h5.871C24.565,24.36,24.891,24.727,24.891,25.297
			L24.891,25.297z"/>
		<path id="path3121_1_" fill="#585858" d="M24.891,18.247c0,0.489-0.326,0.937-0.896,0.937h-7.012c-0.49,0-0.938-0.326-0.938-0.937
			l0,0c0-0.449,0.327-0.897,0.938-0.897h7.012C24.565,17.35,24.891,17.797,24.891,18.247L24.891,18.247z"/>
		<path id="path3123_1_" fill="#585858" d="M24.891,15.027c0,0.488-0.326,0.938-0.896,0.938h-7.012c-0.49,0-0.938-0.327-0.938-0.938
			l0,0c0-0.449,0.327-0.897,0.938-0.897h7.012C24.565,14.13,24.891,14.456,24.891,15.027L24.891,15.027z"/>
		<path id="path3125_1_" fill="#585858" d="M24.891,21.711c0,0.448-0.326,0.937-0.896,0.937H20.53c-0.448,0-0.897-0.367-0.897-0.937
			l0,0c0-0.45,0.326-0.897,0.897-0.897h3.466C24.565,20.895,24.891,21.262,24.891,21.711L24.891,21.711z"/>
		<path id="path3127_1_" fill="#585858" d="M17.677,23.544l-2.65-2.649l-5.99,5.992l2.648,2.649L17.677,23.544z M10.177,31.043
			l1.141-1.139l-2.65-2.65l-1.141,1.141c-0.326,0.326,0,0.693,0,0.693l1.835,1.835C9.362,31.043,9.85,31.37,10.177,31.043z
			 M18.001,23.219l0.571-3.22l-3.219,0.571L18.001,23.219z"/>
		<path id="path3129_1_" fill="#585858" d="M26.644,9.524H14.455c-1.507,0-2.647,1.141-2.647,2.649v10.679l0.324-0.326l1.387-1.141
			v-9.089c0-0.49,0.326-0.938,0.937-0.938h12.188c0.447,0,0.896,0.367,0.896,0.937v15.732c0,0.489-0.327,0.937-0.896,0.937H14.455
			c-0.243,0-0.61-0.121-0.692-0.367l-1.264,1.305c0.449,0.569,1.143,0.774,1.956,0.774h12.188c1.466,0,2.648-1.141,2.648-2.649
			V12.296C29.292,10.665,28.11,9.524,26.644,9.524z"/>
	</g>
</g>
</svg>
