<?xml version="1.0" encoding="utf-8"?>
<!-- Generator: Adobe Illustrator 16.0.0, SVG Export Plug-In . SVG Version: 6.00 Build 0)  -->
<!DOCTYPE svg PUBLIC "-//W3C//DTD SVG 1.1//EN" "http://www.w3.org/Graphics/SVG/1.1/DTD/svg11.dtd">
<svg version="1.1" id="Layer_1" xmlns="http://www.w3.org/2000/svg" xmlns:xlink="http://www.w3.org/1999/xlink" x="0px" y="0px"
	 width="40.396px" height="40.395px" viewBox="0 0 40.396 40.395" enable-background="new 0 0 40.396 40.395" xml:space="preserve">
<g>
	<path fill="#F399C0" d="M19.999,1C8.884,1,0,9.876,0,20.692c0,10.945,9.015,19.693,19.999,19.693c11.116,0,20-8.878,20-19.693
		C40.13,9.876,31.115,1,19.999,1z"/>
	<path id="path3025_68_" fill="#6D6E70" d="M20.198,40.395c-11.197,0-20.197-9.106-20.197-20.197S9.107,0,20.198,0
		s20.197,9.106,20.197,20.197S31.396,40.395,20.198,40.395z M20.198,1.048c-10.584,0-19.042,8.584-19.042,19.043
		c0,10.584,8.583,19.044,19.042,19.044c10.584,0,19.043-8.586,19.043-19.044C39.366,9.632,30.782,1.048,20.198,1.048z"/>
	<g>
		<path fill="#585858" d="M20.46,9.812c-7.814,0-13.667,3.819-13.667,8.971c0,5.046,3.381,5.535,3.89,5.535s2.489-0.419,2.541-0.121
			s-0.776,0.604-0.263,1.91c0.77,1.962,2.716,2.696,3.889,2.696c1.174,0,2.488-0.507,2.769-0.631
			c0.278-0.121,1.401-0.875,2.138-0.735c0.735,0.141,0.561,0.98,1.541,1.508c1.154,0.617,2.277,0.909,4.816-0.107
			c2.542-1.015,2-2.505,2.229-2.539c0.227-0.035,2.871-1.139,2.871-4.188C33.213,15.56,28.273,9.813,20.46,9.812z M30.585,22.835
			c-0.224,0-0.467-0.041-0.728-0.135c-0.445-0.157-0.722-0.582-0.866-0.983c-0.333,0.188-0.729,0.3-1.187,0.323
			c-0.041,0.003-0.08,0.004-0.119,0.004c-0.975,0-1.728-0.632-2.186-1.292c-0.152,0.453-0.297,0.819-0.4,1.006
			c-0.104,0.183-0.275,0.37-0.496,0.546c0.1,0.219,0.165,0.426,0.195,0.619c0.045,0.032,0.086,0.071,0.117,0.122
			c0.336,0.538,1.039,0.737,1.883,0.533c0.805-0.196,1.096-0.714,1.123-0.818c0.012-0.225,0.195-0.403,0.42-0.403
			c0.232,0,0.421,0.188,0.421,0.421c0,0.497-0.613,1.339-1.767,1.617c-0.277,0.067-0.549,0.101-0.809,0.101
			c-0.602,0-1.135-0.18-1.541-0.509c-0.219,0.438-0.605,0.772-0.996,1.014c-0.504,0.312-1.031,0.468-1.577,0.468
			c-0.349,0-0.706-0.062-1.071-0.193c-0.218-0.075-0.333-0.314-0.256-0.535c0.077-0.219,0.315-0.332,0.536-0.258
			c0.688,0.245,1.319,0.181,1.923-0.195c0.85-0.525,0.877-1.039,0.685-1.521c-0.556,0.289-1.204,0.498-1.772,0.537
			c-0.121,0.007-0.243,0.012-0.363,0.012c-1.09,0-2.131-0.338-3.173-1.026c-0.032-0.022-0.058-0.046-0.083-0.075
			c-0.288,0.186-0.544,0.328-0.717,0.386c-0.086,0.028-0.171,0.061-0.254,0.095c-0.354,0.133-0.738,0.278-1.327,0.278
			c-0.368,0-0.815-0.055-1.386-0.207c-0.225-0.061-0.357-0.291-0.299-0.514c0.036-0.134,0.131-0.233,0.252-0.283
			c0.377-0.511,0.239-1.59,0.073-2.559c-0.923,0.566-1.997,0.82-2.735,0.992c-0.183,0.044-0.401,0.095-0.521,0.132
			c-0.196,0.432-0.739,1.229-1.282,1.636c-0.074,0.057-0.162,0.084-0.248,0.084c-0.13,0-0.256-0.059-0.34-0.168
			c-0.139-0.188-0.102-0.451,0.085-0.588c0.415-0.312,0.845-0.96,0.991-1.249c-0.078-0.046-0.17-0.086-0.268-0.129
			c-0.468-0.208-1.176-0.517-1.101-1.651c0.046-0.698,0.763-1.997,1.97-1.997c1.145,0,1.926,0.499,2.29,0.795
			c0.181,0.148,0.207,0.413,0.059,0.592c-0.146,0.182-0.411,0.209-0.591,0.062c-0.277-0.227-0.873-0.606-1.758-0.606
			c-0.689,0-1.11,0.899-1.131,1.21c-0.035,0.545,0.164,0.633,0.601,0.825c0.196,0.087,0.415,0.188,0.604,0.345
			c0.127-0.034,0.275-0.069,0.447-0.109c0.761-0.177,1.912-0.447,2.762-1.068c0.002-0.002,0.008-0.006,0.01-0.008
			c-0.072-0.462-0.117-0.863-0.075-1.18c0.04-0.298,0.097-0.517,0.171-0.69c-0.025,0.001-0.047,0.001-0.072,0.001
			c-0.396,0-0.816-0.077-1.184-0.319c-0.51-0.34-0.811-0.918-0.896-1.722c-0.148-1.431,1.521-2.245,2.115-2.419
			c0.224-0.065,0.457,0.064,0.521,0.287c0.065,0.224-0.062,0.456-0.286,0.521c-0.549,0.159-1.59,0.79-1.511,1.521
			c0.054,0.542,0.231,0.916,0.524,1.107c0.518,0.345,1.366,0.116,1.76-0.002c0.039-0.038,0.08-0.079,0.121-0.124
			c0.124-0.136,0.246-0.309,0.377-0.488c0.525-0.722,1.314-1.796,2.947-1.293c0.663-0.618,1.461-0.568,1.992-0.532
			c0.109,0.006,0.209,0.014,0.295,0.014c0.053-0.071,0.126-0.212,0.18-0.312c0.217-0.405,0.515-0.96,1.103-1.087
			c0.407-0.088,0.847,0.054,1.34,0.432c0.185,0.143,0.218,0.408,0.075,0.59c-0.141,0.185-0.405,0.219-0.589,0.079
			c-0.272-0.212-0.503-0.31-0.65-0.277c-0.206,0.044-0.39,0.386-0.534,0.661c-0.191,0.356-0.389,0.726-0.793,0.751
			c-0.148,0.011-0.309,0-0.479-0.011c-0.489-0.033-0.993-0.065-1.396,0.336c-0.252,0.251-0.241,0.601-0.117,0.833
			c0.047,0.088,0.182,0.286,0.408,0.243c0.228-0.043,0.447,0.108,0.491,0.335c0.043,0.23-0.108,0.448-0.337,0.491
			c-0.072,0.014-0.145,0.021-0.216,0.021c-0.446,0-0.858-0.256-1.09-0.696c-0.165-0.314-0.235-0.725-0.136-1.123
			c-0.859-0.188-1.266,0.289-1.812,1.042c-0.138,0.19-0.281,0.388-0.438,0.558c-0.034,0.038-0.065,0.069-0.102,0.104
			c-0.041,0.085-0.11,0.153-0.196,0.194c-0.125,0.111-0.235,0.2-0.324,0.271c-0.281,0.219-0.356,0.279-0.428,0.815
			c-0.042,0.31,0.059,0.877,0.165,1.476c0.189,1.092,0.403,2.306,0.045,3.172c0.781,0.124,1.168-0.026,1.573-0.18
			c0.094-0.033,0.188-0.069,0.285-0.104c0.497-0.168,2.114-1.428,2.496-1.812c-0.485-0.554-0.706-1.317-0.706-1.733
			c0-0.23,0.188-0.419,0.42-0.419c0.232,0,0.42,0.188,0.42,0.419c0,0.191,0.15,0.878,0.605,1.289c0.25,0.229,0.543,0.324,0.896,0.29
			c1.305-0.123,1.443-2.314,1.443-2.337c0.012-0.231,0.211-0.408,0.443-0.397c0.23,0.013,0.41,0.211,0.395,0.443
			c-0.059,1.09-0.592,2.977-2.201,3.13c-0.071,0.006-0.142,0.01-0.211,0.01c-0.299,0-0.58-0.063-0.838-0.184
			c-0.247,0.268-0.836,0.759-1.439,1.202c0.932,0.576,1.859,0.828,2.824,0.761c0.963-0.065,2.084-0.723,2.307-1.119
			c0.292-0.517,1.033-3.013,1.033-3.999c0-1.163,0.547-2.447,1.127-2.64c0.221-0.073,0.459,0.046,0.533,0.267
			c0.07,0.211-0.037,0.437-0.24,0.521c-0.121,0.097-0.396,0.588-0.52,1.23c0.602-0.003,0.947,0.595,1.154,0.949
			c0.139,0.239,0.312,0.543,0.457,0.564c0.557,0.093,0.871-0.238,0.954-0.343c0.126-0.157,0.141-0.283,0.13-0.313
			c-0.001,0-0.006-0.004-0.018-0.009c-0.218-0.085-0.324-0.329-0.238-0.544c0.084-0.218,0.328-0.323,0.545-0.239
			c0.441,0.175,0.648,0.62,0.513,1.107c-0.171,0.618-0.846,1.197-1.702,1.197c-0.105,0-0.213-0.009-0.322-0.026
			c-0.535-0.09-0.818-0.579-1.047-0.975c-0.291-0.507-0.376-0.56-0.496-0.514c-0.037,0.539-0.194,1.282-0.383,2.001
			c0.117,0.493,0.848,1.674,1.912,1.621c0.866-0.044,1.345-0.453,1.463-1.253c0.035-0.229,0.25-0.389,0.479-0.354
			c0.229,0.034,0.389,0.248,0.354,0.478c-0.058,0.37-0.173,0.694-0.348,0.967c0.001,0.03,0.001,0.06-0.004,0.09
			c-0.005,0.146,0.181,0.69,0.437,0.781c0.672,0.238,1.02-0.078,1.168-0.285c0.186-0.263,0.185-0.533,0.143-0.585
			c-0.174-0.153-0.188-0.419-0.031-0.594c0.154-0.173,0.42-0.185,0.594-0.031c0.376,0.337,0.402,0.998,0.061,1.572
			C31.815,22.423,31.299,22.835,30.585,22.835z"/>
	</g>
</g>
</svg>
