<?xml version="1.0" encoding="utf-8"?>
<!-- Generator: Adobe Illustrator 16.0.0, SVG Export Plug-In . SVG Version: 6.00 Build 0)  -->
<!DOCTYPE svg PUBLIC "-//W3C//DTD SVG 1.1//EN" "http://www.w3.org/Graphics/SVG/1.1/DTD/svg11.dtd">
<svg version="1.1" id="Layer_1" xmlns="http://www.w3.org/2000/svg" xmlns:xlink="http://www.w3.org/1999/xlink" x="0px" y="0px"
	 width="40.398px" height="40.4px" viewBox="0 0 40.398 40.4" enable-background="new 0 0 40.398 40.4" xml:space="preserve">
<g>
	<path id="path120_7_" fill="#FFFFFF" d="M20.199,40.4C9,40.4,0,31.299,0,20.199C0,9,9.1,0,20.199,0
		c11.099,0,20.198,9.1,20.198,20.199C40.499,31.299,31.397,40.4,20.199,40.4z"/>
	<path id="path3025_147_" fill="#6D6E70" d="M20.197,40.395C9,40.395,0,31.288,0,20.197S9.106,0,20.197,0
		s20.197,9.106,20.197,20.197S31.395,40.395,20.197,40.395z M20.197,1.048c-10.584,0-19.042,8.584-19.042,19.043
		c0,10.584,8.582,19.044,19.042,19.044c10.584,0,19.043-8.586,19.043-19.044C39.365,9.632,30.781,1.048,20.197,1.048z"/>
	<g id="g2998" transform="translate(2.738983,8.7305088)">
		<g id="g301" transform="translate(-45.688982,-140.33051)">
			
				<path id="path303" fill="#585858" stroke="#585858" stroke-width="1.2" stroke-linecap="round" stroke-linejoin="round" stroke-miterlimit="10" d="
				M61.822,157.961v-0.927c0-1.274,0.232-1.316,0.579-2.126c0.348-0.811,1.158-1.737,2.201-2.665c1.505-1.273,2.432-2.2,2.779-2.896
				c0.348-0.579,0.579-1.389,0.579-2.316c0-1.158-0.348-1.968-1.042-2.547c-0.695-0.579-1.737-0.927-3.127-0.927
				c-0.812,0-1.737,0.116-2.549,0.348c-0.811,0.231-1.737,0.579-2.778,1.158l-0.928-2.201c2.086-1.043,4.285-1.622,6.486-1.622
				c2.084,0,3.706,0.464,4.864,1.506c1.158,1.042,1.737,2.432,1.737,4.401c0,0.811-0.116,1.505-0.348,2.084s-0.58,1.158-0.927,1.737
				c-0.463,0.579-1.273,1.39-2.663,2.664c-1.158,0.926-1.854,1.737-2.201,2.316s-0.579,0.505-0.579,1.547v0.579h-2.085V157.961z
				 M61.48,162.791c0-1.187,0.548-1.734,1.552-1.734c0.457,0,0.913,0.183,1.187,0.457c0.274,0.273,0.365,0.73,0.365,1.277
				c0,0.548-0.183,1.005-0.456,1.278c-0.273,0.274-0.639,0.457-1.187,0.457c-0.456,0-0.822-0.091-1.096-0.366
				C61.663,163.887,61.48,163.431,61.48,162.791z"/>
		</g>
	</g>
</g>
</svg>
