<?xml version="1.0" encoding="utf-8"?>
<!-- Generator: Adobe Illustrator 16.0.0, SVG Export Plug-In . SVG Version: 6.00 Build 0)  -->
<!DOCTYPE svg PUBLIC "-//W3C//DTD SVG 1.1//EN" "http://www.w3.org/Graphics/SVG/1.1/DTD/svg11.dtd">
<svg version="1.1" id="Layer_1" xmlns="http://www.w3.org/2000/svg" xmlns:xlink="http://www.w3.org/1999/xlink" x="0px" y="0px"
	 width="40.395px" height="40.395px" viewBox="0 0 40.395 40.395" enable-background="new 0 0 40.395 40.395" xml:space="preserve">
<g>
	<path fill="#ABE0F9" d="M20.166,0.667c-11.115,0-20,8.876-20,19.692c0,10.945,9.016,19.693,20,19.693c11.115,0,20-8.878,20-19.693
		C40.297,9.543,31.281,0.667,20.166,0.667z"/>
	<g>
		<g>
			<g>
				<g>
					<path fill="#585858" d="M29.766,29.488H17.154c-1.307,0-2.367-1.062-2.367-2.364V11.357c0-1.304,1.061-2.364,2.367-2.364
						h12.611c1.303,0,2.361,1.061,2.361,2.364v15.767C32.127,28.427,31.068,29.488,29.766,29.488z M17.154,10.569
						c-0.438,0-0.79,0.354-0.79,0.788v15.767c0,0.435,0.353,0.786,0.79,0.786h12.611c0.432,0,0.787-0.352,0.787-0.786V11.357
						c0-0.435-0.355-0.788-0.787-0.788H17.154z"/>
				</g>
			</g>
			<g>
				<g>
					<rect x="18.307" y="13.933" fill="#585858" width="10.092" height="1.577"/>
				</g>
			</g>
			<g>
				<g>
					<rect x="18.307" y="18.035" fill="#585858" width="10.092" height="1.575"/>
				</g>
			</g>
			<g>
				<g>
					<rect x="18.307" y="22.135" fill="#585858" width="10.092" height="1.577"/>
				</g>
			</g>
		</g>
		<g>
			<g id="XMLID_4_">
				<g>
					<path fill="#ABE0F9" d="M27.97,25.628c0.438,1.227-0.202,2.582-1.427,3.022L14.67,32.907c-1.229,0.441-2.586-0.199-3.021-1.428
						L6.325,16.639c-0.438-1.226,0.2-2.582,1.427-3.023l11.87-4.257c1.228-0.44,2.585,0.198,3.026,1.426L27.97,25.628z"/>
				</g>
			</g>
			<g>
				<path fill="#585858" d="M26.543,28.649L14.67,32.908c-1.226,0.439-2.586-0.2-3.023-1.429L6.325,16.639
					c-0.44-1.227,0.2-2.582,1.427-3.023l11.872-4.257c1.226-0.44,2.583,0.2,3.024,1.427l5.321,14.841
					C28.408,26.854,27.768,28.211,26.543,28.649z M8.286,15.1c-0.411,0.146-0.626,0.599-0.477,1.009l5.321,14.839
					c0.146,0.41,0.598,0.623,1.008,0.478l11.87-4.26c0.411-0.146,0.624-0.598,0.475-1.008l-5.319-14.84
					c-0.146-0.408-0.599-0.622-1.008-0.477L8.286,15.1z"/>
			</g>
		</g>
		<g>
			<g>
				
					<rect x="10.479" y="16.127" transform="matrix(0.9413 -0.3376 0.3376 0.9413 -4.7992 6.2339)" fill="#585858" width="10.089" height="1.576"/>
			</g>
		</g>
		<g>
			<g>
				
					<rect x="11.863" y="19.988" transform="matrix(0.9413 -0.3375 0.3375 0.9413 -6.0203 6.9255)" fill="#585858" width="10.086" height="1.576"/>
			</g>
		</g>
		<g>
			<g>
				
					<rect x="13.247" y="23.847" transform="matrix(0.9413 -0.3377 0.3377 0.9413 -7.2448 7.6239)" fill="#585858" width="10.087" height="1.577"/>
			</g>
		</g>
	</g>
	<path id="path3025_65_" fill="#6D6E70" d="M20.197,40.395C9,40.395,0,31.288,0,20.197S9.106,0,20.197,0s20.197,9.106,20.197,20.197
		S31.395,40.395,20.197,40.395z M20.197,1.048c-10.584,0-19.042,8.584-19.042,19.043c0,10.584,8.582,19.044,19.042,19.044
		c10.584,0,19.043-8.586,19.043-19.044C39.365,9.632,30.781,1.048,20.197,1.048z"/>
</g>
</svg>
