<?xml version="1.0" encoding="utf-8"?>
<!-- Generator: Adobe Illustrator 16.0.0, SVG Export Plug-In . SVG Version: 6.00 Build 0)  -->
<!DOCTYPE svg PUBLIC "-//W3C//DTD SVG 1.1//EN" "http://www.w3.org/Graphics/SVG/1.1/DTD/svg11.dtd">
<svg version="1.1" id="Layer_1" xmlns="http://www.w3.org/2000/svg" xmlns:xlink="http://www.w3.org/1999/xlink" x="0px" y="0px"
	 width="40.395px" height="40.395px" viewBox="0 0 40.395 40.395" enable-background="new 0 0 40.395 40.395" xml:space="preserve">
<g>
	<path id="path3225_11_" fill="#D2F943" d="M20.197,40.395C9,40.395,0,31.289,0,20.197C0,9,9.105,0,20.197,0
		c11.091,0,20.196,9.107,20.196,20.197C40.501,31.289,31.394,40.395,20.197,40.395z"/>
	<path fill="#575757" d="M24.91,10.739c-0.03-0.24-0.153-0.463-0.349-0.607c-0.191-0.152-0.439-0.212-0.68-0.174L8.098,12.254
		c-0.242,0.035-0.114-0.198-0.071,0.042l2.482,14.987c0.045,0.261,0.193,0.477,0.396,0.61c0.174,0.116,0.39,0.173,0.613,0.143
		C19.979,26.96,25.991,19.199,24.91,10.739z M17.823,20.922c0.236-1.394,1.563-2.462,2.957-2.224
		c0.299,0.052,0.576,0.166,0.838,0.309c-0.779,1.587-1.895,2.987-3.27,4.105C17.877,22.52,17.689,21.718,17.823,20.922z
		 M12.154,26.097l-2.042-12.293l13.084-1.911c0.084,1.341-0.047,2.651-0.342,3.909c-0.461-0.206-0.949-0.363-1.469-0.452
		c-3.298-0.562-6.418,1.653-6.978,4.95c-0.288,1.714,0.172,3.378,1.141,4.66C14.492,25.475,13.354,25.866,12.154,26.097z"/>
	<g>
		<g>
			<path fill="#575757" d="M24.565,26.081c-0.301,0-0.602-0.127-0.823-0.335c-0.22-0.22-0.335-0.521-0.335-0.823
				c0-0.312,0.115-0.603,0.335-0.822c0.43-0.43,1.218-0.43,1.646,0c0.21,0.22,0.336,0.51,0.336,0.822
				c0,0.303-0.126,0.604-0.348,0.823C25.167,25.954,24.866,26.081,24.565,26.081z"/>
		</g>
		<g>
			<path fill="#575757" d="M30.548,30.443c-0.531-0.36-0.672-1.077-0.312-1.611l0,0c0.371-0.521,1.089-0.658,1.611-0.301l0,0
				c0.531,0.359,0.672,1.077,0.301,1.611l0,0c-0.219,0.323-0.579,0.509-0.95,0.509l0,0C30.967,30.651,30.745,30.583,30.548,30.443z
				 M27.306,28.23c-0.533-0.36-0.672-1.077-0.314-1.608l0,0c0.359-0.523,1.079-0.661,1.611-0.304l0,0
				c0.533,0.359,0.672,1.079,0.301,1.611l0,0c-0.221,0.323-0.58,0.509-0.95,0.509l0,0C27.722,28.438,27.503,28.37,27.306,28.23z"/>
		</g>
	</g>
</g>
<path id="path3025_71_" fill="#6D6E70" d="M20.197,40.395C9,40.395,0,31.288,0,20.197S9.106,0,20.197,0s20.197,9.106,20.197,20.197
	S31.395,40.395,20.197,40.395z M20.197,1.048c-10.584,0-19.042,8.584-19.042,19.043c0,10.584,8.582,19.044,19.042,19.044
	c10.584,0,19.043-8.586,19.043-19.044C39.365,9.632,30.781,1.048,20.197,1.048z"/>
</svg>
