<?xml version="1.0" encoding="UTF-8" standalone="no"?>
<!-- Created with Inkscape (http://www.inkscape.org/) -->

<svg
   xmlns:dc="http://purl.org/dc/elements/1.1/"
   xmlns:cc="http://creativecommons.org/ns#"
   xmlns:rdf="http://www.w3.org/1999/02/22-rdf-syntax-ns#"
   xmlns:svg="http://www.w3.org/2000/svg"
   xmlns="http://www.w3.org/2000/svg"
   version="1.1"
   width="100"
   height="100"
   viewBox="0 0 100 100"
   id="Layer_1"
   xml:space="preserve"><metadata
     id="metadata9"><rdf:RDF><cc:Work
         rdf:about=""><dc:format>image/svg+xml</dc:format><dc:type
           rdf:resource="http://purl.org/dc/dcmitype/StillImage" /><dc:title></dc:title></cc:Work></rdf:RDF></metadata><defs
     id="defs7" /><path fill="#e9712b"      d="M 95.784049,23.645043 87.448805,15.3098 c -1.143463,-1.144215 -2.533676,-1.715946 -4.167628,-1.715946 -1.6347,0 -3.024908,0.571731 -4.168371,1.715946 L 38.90652,55.577769 20.887194,37.496752 c -1.144215,-1.144215 -2.533674,-1.715947 -4.167626,-1.715947 -1.634701,0 -3.024159,0.571732 -4.168374,1.715947 L 4.2159492,45.832 c -1.1442197,1.144214 -1.7159491,2.533671 -1.7159491,4.168375 0,1.633948 0.5717294,3.024161 1.7159491,4.167624 l 22.1869488,22.186952 8.336,8.335245 c 1.143464,1.144217 2.532922,1.71595 4.167622,1.71595 1.633954,0 3.023411,-0.572487 4.167626,-1.71595 l 8.335999,-8.335245 44.373904,-44.373904 c 1.143463,-1.144219 1.71595,-2.533676 1.71595,-4.168375 7.52e-4,-1.633953 -0.572487,-3.02341 -1.71595,-4.167629 z"
     id="path3" /></svg>