<?xml version="1.0" encoding="UTF-8" standalone="no"?>
<!-- Created with Inkscape (http://www.inkscape.org/) -->

<svg
   xmlns:dc="http://purl.org/dc/elements/1.1/"
   xmlns:cc="http://creativecommons.org/ns#"
   xmlns:rdf="http://www.w3.org/1999/02/22-rdf-syntax-ns#"
   xmlns:svg="http://www.w3.org/2000/svg"
   xmlns="http://www.w3.org/2000/svg"
   version="1.1"
   width="100"
   height="100"
   viewBox="0 0 100 100"
   id="Capa_1"
   xml:space="preserve"><metadata
   id="metadata13"><rdf:RDF><cc:Work
       rdf:about=""><dc:format>image/svg+xml</dc:format><dc:type
         rdf:resource="http://purl.org/dc/dcmitype/StillImage" /><dc:title></dc:title></cc:Work></rdf:RDF></metadata><defs
   id="defs11" />
<g
   transform="matrix(0.70073983,0,0,0.70073983,-25.680252,-1.154358)"
   id="g3">
	<path fill="#bf5619"    d="M 87.144,15.644 H 55.858 c -4.346,0 -8.039,1.521 -11.081,4.562 -3.041,3.042 -4.562,6.735 -4.562,11.081 v 31.285 c 0,4.346 1.52,8.039 4.562,11.08 3.042,3.041 6.736,4.562 11.081,4.562 h 18.25 c 2.172,0 4.019,0.761 5.54,2.281 1.521,1.52 2.281,3.368 2.281,5.541 v 2.606 c 0,5.758 -2.037,10.672 -6.11,14.746 -4.074,4.073 -8.989,6.11 -14.747,6.11 h -5.214 c -1.413,0 -2.635,0.517 -3.667,1.548 -1.032,1.032 -1.548,2.254 -1.548,3.666 v 10.43 c 0,1.411 0.516,2.635 1.548,3.666 1.033,1.031 2.254,1.549 3.667,1.549 h 5.214 c 5.649,0 11.04,-1.102 16.173,-3.301 5.133,-2.199 9.573,-5.174 13.321,-8.922 3.747,-3.747 6.721,-8.187 8.921,-13.32 2.199,-5.133 3.299,-10.523 3.299,-16.172 V 31.286 c 0,-4.346 -1.521,-8.039 -4.562,-11.08 -3.041,-3.041 -6.735,-4.562 -11.08,-4.562 z"
   id="path5"  />
	<path fill="#bf5619"    d="m 171.223,20.206 c -3.041,-3.041 -6.734,-4.562 -11.08,-4.562 h -31.285 c -4.346,0 -8.039,1.521 -11.08,4.562 -3.041,3.042 -4.562,6.735 -4.562,11.081 v 31.285 c 0,4.346 1.521,8.039 4.562,11.08 3.041,3.041 6.734,4.562 11.08,4.562 h 18.25 c 2.172,0 4.02,0.761 5.541,2.281 1.519,1.521 2.281,3.368 2.281,5.541 v 2.606 c 0,5.758 -2.037,10.672 -6.111,14.746 -4.074,4.073 -8.988,6.11 -14.746,6.11 h -5.215 c -1.412,0 -2.635,0.517 -3.666,1.548 -1.033,1.032 -1.549,2.254 -1.549,3.666 v 10.43 c 0,1.411 0.516,2.635 1.549,3.666 1.031,1.031 2.254,1.549 3.666,1.549 h 5.215 c 5.648,0 11.039,-1.102 16.172,-3.301 5.132,-2.199 9.572,-5.174 13.32,-8.922 3.748,-3.747 6.723,-8.188 8.922,-13.32 2.199,-5.132 3.299,-10.523 3.299,-16.172 V 31.286 c -0.001,-4.346 -1.52,-8.039 -4.563,-11.08 z"
   id="path7"  />
</g>
</svg>