<?xml version="1.0" encoding="UTF-8" standalone="no"?>
<!-- Created with Inkscape (http://www.inkscape.org/) -->

<svg
   xmlns:dc="http://purl.org/dc/elements/1.1/"
   xmlns:cc="http://creativecommons.org/ns#"
   xmlns:rdf="http://www.w3.org/1999/02/22-rdf-syntax-ns#"
   xmlns:svg="http://www.w3.org/2000/svg"
   xmlns="http://www.w3.org/2000/svg"
   version="1.1"
   width="100"
   height="100"
   viewBox="0 0 100 100"
   id="Capa_1"
   xml:space="preserve"><metadata
   id="metadata13"><rdf:RDF><cc:Work
       rdf:about=""><dc:format>image/svg+xml</dc:format><dc:type
         rdf:resource="http://purl.org/dc/dcmitype/StillImage" /><dc:title></dc:title></cc:Work></rdf:RDF></metadata><defs
   id="defs11" />
<g
   transform="matrix(0.75913155,0,0,0.75913155,-31.986587,-5.4177418)"
   id="g3">
	<path fill="#bf5619"    d="m 146.087,31.897 c -2.416,-4.643 -5.593,-8.5 -9.53,-11.569 -3.938,-3.068 -8.393,-5.485 -13.361,-7.251 C 118.225,11.313 113.16,10.43 108,10.43 c -5.16,0 -10.225,0.882 -15.195,2.647 -4.97,1.766 -9.424,4.183 -13.362,7.251 -3.937,3.069 -7.115,6.925 -9.532,11.569 -2.417,4.644 -3.625,9.654 -3.625,15.032 0,8.419 2.798,15.697 8.392,21.835 2.445,2.661 4.468,5.024 6.07,7.088 1.603,2.063 3.219,4.657 4.848,7.78 1.629,3.123 2.553,6.043 2.77,8.759 -2.553,1.521 -3.829,3.748 -3.829,6.682 0,2.01 0.679,3.748 2.037,5.214 -1.358,1.467 -2.037,3.205 -2.037,5.215 0,2.825 1.223,5.024 3.667,6.601 -0.707,1.248 -1.06,2.524 -1.06,3.828 0,2.498 0.855,4.428 2.566,5.784 1.71,1.358 3.815,2.037 6.314,2.037 1.086,2.39 2.716,4.291 4.888,5.703 2.172,1.412 4.535,2.118 7.088,2.118 2.553,0 4.916,-0.706 7.088,-2.118 2.173,-1.412 3.803,-3.313 4.889,-5.703 2.498,0 4.604,-0.679 6.314,-2.037 1.711,-1.356 2.566,-3.286 2.566,-5.784 0,-1.304 -0.354,-2.58 -1.061,-3.828 2.444,-1.576 3.667,-3.776 3.667,-6.601 0,-2.01 -0.68,-3.748 -2.037,-5.215 1.357,-1.466 2.037,-3.204 2.037,-5.214 0,-2.934 -1.276,-5.16 -3.83,-6.682 0.218,-2.716 1.142,-5.636 2.771,-8.759 1.631,-3.123 3.246,-5.717 4.849,-7.78 1.603,-2.064 3.626,-4.427 6.069,-7.088 5.594,-6.138 8.393,-13.416 8.393,-21.835 0,-5.378 -1.209,-10.388 -3.628,-15.032 z m -12.342,29.697 c -0.544,0.597 -1.372,1.493 -2.485,2.688 -1.113,1.195 -1.941,2.09 -2.484,2.688 -6.952,8.311 -10.781,16.403 -11.487,24.279 H 98.712 C 98.006,83.373 94.177,75.281 87.224,66.97 c -0.543,-0.597 -1.371,-1.493 -2.485,-2.688 -1.113,-1.195 -1.942,-2.09 -2.485,-2.688 -3.693,-4.291 -5.54,-9.18 -5.54,-14.665 0,-3.911 0.937,-7.55 2.811,-10.918 1.875,-3.368 4.319,-6.124 7.333,-8.27 3.014,-2.146 6.354,-3.829 10.021,-5.051 3.666,-1.223 7.373,-1.833 11.121,-1.833 3.748,0 7.455,0.61 11.121,1.833 3.666,1.222 7.006,2.905 10.021,5.051 3.014,2.146 5.459,4.903 7.332,8.27 1.873,3.368 2.811,7.007 2.811,10.918 0,5.485 -1.846,10.374 -5.54,14.665 z"
   id="path5"  />
	<path fill="#bf5619"    d="m 116.107,35.198 c -2.688,-0.869 -5.391,-1.304 -8.106,-1.304 -0.706,0 -1.317,0.257 -1.833,0.774 -0.516,0.516 -0.774,1.127 -0.774,1.833 0,0.706 0.258,1.317 0.774,1.833 0.516,0.515 1.127,0.774 1.833,0.774 2.825,0 5.703,0.679 8.638,2.036 2.932,1.358 4.397,3.286 4.397,5.785 0,0.706 0.257,1.318 0.774,1.833 0.517,0.515 1.127,0.773 1.832,0.773 0.707,0 1.317,-0.257 1.834,-0.773 0.516,-0.516 0.773,-1.127 0.773,-1.833 0,-2.825 -1.02,-5.269 -3.055,-7.332 -2.035,-2.063 -4.399,-3.531 -7.087,-4.399 z"
   id="path7"  />
</g>
</svg>