<?xml version="1.0" encoding="UTF-8" standalone="no"?>
<!-- Created with Inkscape (http://www.inkscape.org/) -->

<svg
   xmlns:dc="http://purl.org/dc/elements/1.1/"
   xmlns:cc="http://creativecommons.org/ns#"
   xmlns:rdf="http://www.w3.org/1999/02/22-rdf-syntax-ns#"
   xmlns:svg="http://www.w3.org/2000/svg"
   xmlns="http://www.w3.org/2000/svg"
   version="1.1"
   width="48"
   height="48"
   id="svg3075">
  <defs
     id="defs3077" />
  <metadata
     id="metadata3080">
    <rdf:RDF>
      <cc:Work
         rdf:about="">
        <dc:format>image/svg+xml</dc:format>
        <dc:type
           rdf:resource="http://purl.org/dc/dcmitype/StillImage" />
        <dc:title></dc:title>
      </cc:Work>
    </rdf:RDF>
  </metadata>
  <g
     transform="translate(-283.2143,-601.14792)"
     id="layer1">
    <g
       transform="matrix(1.0666667,0,0,1.0666667,-18.880953,-43.276527)"
       id="g3094">
      <path
         d="m 283.21429,604.1479 45,0 0,45 -45,0 0,-45 z"
         id="path2991"
         style="fill:none;stroke:none" />
      <path
         d="m 308.23677,616.15165 15.9975,0 0.46875,0 0,0.46875 0,10.0025 0,17.47375 -16.46625,0 c -1.51,0 -2.87875,-0.6125 -3.86875,-1.6025 -0.98875,-0.99 -1.60125,-2.3575 -1.60125,-3.8675 l 0,-17.005 c 0,-1.51 0.6125,-2.87875 1.60125,-3.8675 0.99,-0.99 2.35875,-1.6025 3.86875,-1.6025 z m 14.285,2.155 -14.285,0 c -0.91625,0 -1.745,0.37125 -2.34498,0.97 -0.59875,0.6 -0.97002,1.42875 -0.97002,2.345 0,0.915 0.37127,1.745 0.97002,2.34375 0.6,0.6 1.42873,0.97125 2.34498,0.97125 l 14.285,0 0,-6.63 z"
         id="path3007"
         style="fill:#ffffff;stroke:none" />
      <path
         d="m 286.01552,615.22165 5.3125,0 0,-5.3125 3.75,0 0,5.3125 5.3125,0 0,3.75 -5.3125,0 0,5.3125 -3.75,0 0,-5.3125 -5.3125,0 0,-3.75 z"
         id="path3009"
         style="fill:#ffffff;stroke:none" />
    </g>
  </g>
</svg>
