<?xml version="1.0" encoding="UTF-8" standalone="no"?>
<!-- Created with Inkscape (http://www.inkscape.org/) -->

<svg
   xmlns:dc="http://purl.org/dc/elements/1.1/"
   xmlns:cc="http://creativecommons.org/ns#"
   xmlns:rdf="http://www.w3.org/1999/02/22-rdf-syntax-ns#"
   xmlns:svg="http://www.w3.org/2000/svg"
   xmlns="http://www.w3.org/2000/svg"
   version="1.1"
   width="48"
   height="48"
   id="svg3075">
  <defs
     id="defs3077" />
  <metadata
     id="metadata3080">
    <rdf:RDF>
      <cc:Work
         rdf:about="">
        <dc:format>image/svg+xml</dc:format>
        <dc:type
           rdf:resource="http://purl.org/dc/dcmitype/StillImage" />
        <dc:title></dc:title>
      </cc:Work>
    </rdf:RDF>
  </metadata>
  <g
     transform="translate(-279.36786,-606.2198)"
     id="layer1">
    <g
       transform="matrix(1.0666667,0,0,1.0666667,-18.624523,-43.614652)"
       id="g3123">
      <path
         d="m 279.36785,609.21978 45,0 0,45 -45,0 0,-45 z"
         id="path2997"
         style="fill:none;stroke:none" />
      <path
         d="m 298.16535,648.81353 -0.86374,0 0,-0.86375 0,-16.47 10.61,-10.61125 11.32624,0 0,27.945 -21.0725,0 z m 10.96875,-26.2175 0,10.105 -10.105,0 0,14.385 18.48125,0 0,-24.49 -8.37625,0 z m -1.7275,8.3775 0,-7.155 -7.15625,7.155 7.15625,0 z"
         id="path3001"
         style="fill:#ffffff;stroke:none" />
      <path
         d="m 284.49786,619.93853 5.31374,0 0,-5.3125 3.75,0 0,5.3125 5.3125,0 0,3.75125 -5.3125,0 0,5.31125 -3.75,0 0,-5.31125 -5.31374,0 0,-3.75125 z"
         id="path3003"
         style="fill:#ffffff;stroke:none" />
    </g>
  </g>
</svg>
