<?xml version="1.0" encoding="UTF-8" standalone="no"?>
<!-- Created with Inkscape (http://www.inkscape.org/) -->

<svg
   xmlns:dc="http://purl.org/dc/elements/1.1/"
   xmlns:cc="http://creativecommons.org/ns#"
   xmlns:rdf="http://www.w3.org/1999/02/22-rdf-syntax-ns#"
   xmlns:svg="http://www.w3.org/2000/svg"
   xmlns="http://www.w3.org/2000/svg"
   version="1.1"
   width="48"
   height="48"
   id="svg3075">
  <defs
     id="defs3077" />
  <metadata
     id="metadata3080">
    <rdf:RDF>
      <cc:Work
         rdf:about="">
        <dc:format>image/svg+xml</dc:format>
        <dc:type
           rdf:resource="http://purl.org/dc/dcmitype/StillImage" />
        <dc:title></dc:title>
      </cc:Work>
    </rdf:RDF>
  </metadata>
  <g
     transform="translate(-284.5078,-611.42782)"
     id="layer1">
    <g
       id="g3149">
      <path
         d="m 284.5078,611.42782 48,0 0,48 -48,0 0,-48 z"
         id="path2993"
         style="fill:none;stroke:none" />
      <path
         d="m 319.88647,620.71849 c 0.46,-0.45867 1.06266,-0.69067 1.664,-0.69067 0.6,0 1.20266,0.23067 1.66533,0.69333 l 10e-4,-0.003 c 0.46,0.46 0.69066,1.064 0.69066,1.668 0,0.60267 -0.22933,1.20667 -0.69066,1.668 l -11.37334,11.37334 11.37334,11.37466 0,0.004 c 0.46,0.46133 0.69066,1.06267 0.69066,1.664 0,0.6 -0.23066,1.20267 -0.692,1.66533 l 10e-4,0.002 c -0.45867,0.45866 -1.064,0.68933 -1.66667,0.68933 -0.604,0 -1.208,-0.22933 -1.668,-0.68933 l -11.37461,-11.37462 -11.37333,11.37467 -0.004,0 c -0.46133,0.46 -1.064,0.68933 -1.664,0.68933 -0.6,0 -1.20267,-0.22933 -1.66533,-0.692 l -0.002,0.002 c -0.46,-0.46 -0.69066,-1.064 -0.69066,-1.668 0,-0.604 0.23066,-1.20667 0.69066,-1.668 l 11.37467,-11.37467 -11.37467,-11.37333 0,-0.004 c -0.46,-0.46133 -0.69066,-1.06267 -0.69066,-1.664 0,-0.6 0.23066,-1.20267 0.69333,-1.66533 l -0.002,-0.002 c 0.46,-0.45866 1.064,-0.69066 1.668,-0.69066 0.60266,0 1.20666,0.23066 1.668,0.69066 l 11.37333,11.37467 11.37467,-11.37467 0.004,0 z"
         id="path3019"
         style="fill:#ffffff;stroke:none" />
    </g>
  </g>
</svg>
