<?xml version="1.0" encoding="UTF-8" standalone="no"?>
<!-- Created with Inkscape (http://www.inkscape.org/) -->

<svg
   xmlns:dc="http://purl.org/dc/elements/1.1/"
   xmlns:cc="http://creativecommons.org/ns#"
   xmlns:rdf="http://www.w3.org/1999/02/22-rdf-syntax-ns#"
   xmlns:svg="http://www.w3.org/2000/svg"
   xmlns="http://www.w3.org/2000/svg"
   version="1.1"
   width="48"
   height="48"
   id="svg3075">
  <defs
     id="defs3077" />
  <metadata
     id="metadata3080">
    <rdf:RDF>
      <cc:Work
         rdf:about="">
        <dc:format>image/svg+xml</dc:format>
        <dc:type
           rdf:resource="http://purl.org/dc/dcmitype/StillImage" />
        <dc:title></dc:title>
      </cc:Work>
    </rdf:RDF>
  </metadata>
  <g
     transform="translate(-282.15908,-610.78107)"
     id="layer1">
    <g
       id="g3180">
      <path
         d="m 282.15908,610.78107 48,0 0,48 -48,0 0,-48 z"
         id="path2995"
         style="fill:none;stroke:none" />
      <path
         d="m 291.75908,649.18107 28.8,0"
         id="path3011"
         style="fill:#000000;stroke:none" />
      <path
         d="m 306.15908,620.38107 0,24"
         id="path3015"
         style="fill:#000000;stroke:none" />
      <path
         d="m 304.65908,620.38107 c 0,-0.828 0.672,-1.5 1.5,-1.5 0.828,0 1.5,0.672 1.5,1.5 l 0,20.38 7.04,-7.04 c 0.58533,-0.58533 1.53467,-0.58533 2.12,0 0.58668,0.58533 0.58668,1.536 0,2.12133 l -9.58267,9.58267 -0.0333,0.0347 -1.044,1.04266 -1.03466,-1.03466 -0.0254,-0.0253 0,0 -0.0254,-0.0253 -9.57466,-9.57467 c -0.58534,-0.58533 -0.58534,-1.536 0,-2.12133 0.58533,-0.58534 1.53466,-0.58534 2.12,0 l 7.04,7.04 0,-20.38 z m -12.9,30.3 c -0.828,0 -1.5,-0.67067 -1.5,-1.5 0,-0.828 0.672,-1.5 1.5,-1.5 l 28.8,0 c 0.828,0 1.5,0.672 1.5,1.5 0,0.82933 -0.672,1.5 -1.5,1.5 l -28.8,0 z"
         id="path3017"
         style="fill:#ffffff;stroke:none" />
    </g>
  </g>
</svg>
