<?xml version="1.0" encoding="utf-8"?>
<!-- Generator: Adobe Illustrator 18.1.1, SVG Export Plug-In . SVG Version: 6.00 Build 0)  -->
<svg version="1.1" xmlns="http://www.w3.org/2000/svg" xmlns:xlink="http://www.w3.org/1999/xlink" x="0px" y="0px" width="28px"
	 height="32px" viewBox="0 0 28 32" enable-background="new 0 0 28 32" xml:space="preserve">
<g id="Layer_4">
</g>
<g id="Layer_10_copy_2" display="none">
</g>
<g id="not_2_copy">
	<g id="pop1_copy_2" display="none">
	</g>
	<g id="pop1_copy_3">
	</g>
</g>
<g id="Layer_1">
</g>
<g id="Layer_24">
</g>
<g id="not_2">
	<g id="pop1_copy">
	</g>
	<g id="Layer_10_copy">
	</g>
	<g id="Layer_14" display="none">
	</g>
	<g id="Layer_14_copy" display="none">
	</g>
	<g id="Layer_14_copy_2" display="none">
	</g>
	<g id="Layer_14_copy_4">
	</g>
	<g id="Layer_14_copy_3" display="none">
	</g>
	<g id="Layer_14_copy_5">
	</g>
</g>
<g id="not" display="none">
	<g id="pop1" display="inline">
	</g>
	<g id="Layer_10" display="inline">
	</g>
</g>
<g id="zak" display="none">
	<g id="pop1_1_">
	</g>
</g>
<g id="Layer_3" display="none">
</g>
<g id="Layer_2">
</g>
<g id="Layer_5" display="none">
</g>
<g id="Layer_25">
	<g>
		<path fill="#EBC3CB" d="M18.1,19.8c0,0.3-0.2,0.5-0.4,0.5H4.5c-0.2,0-0.4-0.2-0.4-0.5V6.7c0-0.3,0.2-0.5,0.4-0.5h13.2
			c0.2,0,0.4,0.2,0.4,0.5V19.8z"/>
		<path fill="#FFF29D" d="M20.9,22.2c0,0.3-0.2,0.5-0.4,0.5H7.3c-0.2,0-0.4-0.2-0.4-0.5V9.1c0-0.3,0.2-0.5,0.4-0.5h13.2
			c0.2,0,0.4,0.2,0.4,0.5V22.2z"/>
		<path fill="#B7DDF2" d="M23.9,25c0,0.3-0.2,0.5-0.4,0.5H10.3c-0.2,0-0.4-0.2-0.4-0.5V11.9c0-0.3,0.2-0.5,0.4-0.5h13.2
			c0.2,0,0.4,0.2,0.4,0.5V25z"/>
	</g>
</g>
<g id="Layer_26" display="none">
</g>
<g id="Layer_27" display="none">
</g>
<g id="Layer_28" display="none">
</g>
</svg>
