<?xml version="1.0" encoding="utf-8"?>
<!-- Generator: Adobe Illustrator 18.1.1, SVG Export Plug-In . SVG Version: 6.00 Build 0)  -->
<svg version="1.1" xmlns="http://www.w3.org/2000/svg" xmlns:xlink="http://www.w3.org/1999/xlink" x="0px" y="0px" width="28px"
	 height="32px" viewBox="0 0 28 32" enable-background="new 0 0 28 32" xml:space="preserve">
<g id="Layer_4">
</g>
<g id="Layer_10_copy_2" display="none">
</g>
<g id="not_2_copy">
	<g id="pop1_copy_2" display="none">
	</g>
	<g id="pop1_copy_3">
	</g>
</g>
<g id="Layer_1">
</g>
<g id="Layer_24">
</g>
<g id="not_2">
	<g id="pop1_copy">
	</g>
	<g id="Layer_10_copy">
	</g>
	<g id="Layer_14" display="none">
	</g>
	<g id="Layer_14_copy" display="none">
	</g>
	<g id="Layer_14_copy_2" display="none">
	</g>
	<g id="Layer_14_copy_4">
	</g>
	<g id="Layer_14_copy_3" display="none">
	</g>
	<g id="Layer_14_copy_5">
	</g>
</g>
<g id="not" display="none">
	<g id="pop1" display="inline">
	</g>
	<g id="Layer_10" display="inline">
	</g>
</g>
<g id="zak" display="none">
	<g id="pop1_1_">
	</g>
</g>
<g id="Layer_3" display="none">
</g>
<g id="Layer_2">
</g>
<g id="Layer_5" display="none">
</g>
<g id="Layer_25">
	<g>
		<path fill="#FFFFFF" d="M21.9,7.5H6.1C5.5,7.5,5,8,5,8.6l0.4,3.6c0,0.6,0.5,1.1,1.1,1.1h0.7l1.4,4.7h5.1h0.7h5.1l1.4-4.7h0.7
			c0.6,0,1.1-0.5,1.1-1.1L23,8.6C23,8,22.5,7.5,21.9,7.5z"/>
		<path fill="#FFFFFF" d="M18,20.6h-8c-0.4,0-0.7,0-0.7,0.4l0.2,3.9c0,0.5,0.3,0.7,0.7,0.7l7.7-0.8c0.4,0,0.7-0.2,0.7-0.7l0.1-3.1
			C18.7,20.6,18.4,20.6,18,20.6z"/>
	</g>
</g>
<g id="Layer_26" display="none">
</g>
<g id="Layer_27" display="none">
</g>
<g id="Layer_28" display="none">
</g>
</svg>
