<?xml version="1.0" encoding="utf-8"?>
<!-- Generator: Adobe Illustrator 18.1.1, SVG Export Plug-In . SVG Version: 6.00 Build 0)  -->
<svg version="1.1" xmlns="http://www.w3.org/2000/svg" xmlns:xlink="http://www.w3.org/1999/xlink" x="0px" y="0px" width="32px"
	 height="32px" viewBox="0 0 32 32" enable-background="new 0 0 32 32" xml:space="preserve">
<g id="Layer_4">
</g>
<g id="Layer_10_copy_2" display="none">
</g>
<g id="not_2_copy">
	<g id="pop1_copy_2" display="none">
	</g>
	<g id="pop1_copy_3">
	</g>
</g>
<g id="Layer_1">
	<g>
		<defs>
			<rect id="SVGID_1_" x="540.6" y="-262.8" width="1009.4" height="286.5"/>
		</defs>
		<clipPath id="SVGID_2_">
			<use xlink:href="#SVGID_1_"  overflow="visible"/>
		</clipPath>
		<g clip-path="url(#SVGID_2_)">
			
				<image overflow="visible" width="1920" height="1080" xlink:href="35AA65F2.jpg"  transform="matrix(1 0 0 1 21.2701 -673.3267)">
			</image>
		</g>
	</g>
</g>
<g id="not_2">
	<g id="pop1_copy">
	</g>
	<g id="Layer_10_copy">
	</g>
	<g id="Layer_14" display="none">
	</g>
	<g id="Layer_14_copy" display="none">
	</g>
	<g id="Layer_14_copy_2" display="none">
	</g>
	<g id="Layer_14_copy_4">
	</g>
	<g id="Layer_14_copy_3" display="none">
	</g>
	<g id="Layer_14_copy_5">
		<g>
			<g>
				<path fill="#686868" d="M8.2,12.9v-2.2h4h2v-2V8.4h3.4v0.3v2h2h4v2.2h2v-2.2c0-1.1-0.9-2-2-2h-4V6.4h-7.4v2.3h-4
					c-1.1,0-2,0.9-2,2v2.2H8.2z"/>
			</g>
			<polygon fill="#686868" points="19.8,12.9 19.8,14.9 19.8,14.1 19.8,21.9 12.1,21.9 12.1,14.1 12.1,14.9 12.1,12.9 10.1,12.9 
				10.1,23.9 21.5,23.9 21.8,23.9 21.8,12.9 			"/>
		</g>
	</g>
</g>
<g id="not" display="none">
	<g id="pop1" display="inline">
	</g>
	<g id="Layer_10" display="inline">
	</g>
</g>
<g id="zak" display="none">
	<g id="pop1_1_">
	</g>
</g>
<g id="Layer_3" display="none">
</g>
<g id="Layer_2">
</g>
<g id="Layer_5">
</g>
</svg>
