<?xml version="1.0" encoding="utf-8"?>
<!-- Generator: Adobe Illustrator 18.1.1, SVG Export Plug-In . SVG Version: 6.00 Build 0)  -->
<svg version="1.1" xmlns="http://www.w3.org/2000/svg" xmlns:xlink="http://www.w3.org/1999/xlink" x="0px" y="0px" width="28px"
	 height="32px" viewBox="0 0 28 32" enable-background="new 0 0 28 32" xml:space="preserve">
<g id="Layer_4">
</g>
<g id="Layer_10_copy_2" display="none">
</g>
<g id="not_2_copy">
	<g id="pop1_copy_2" display="none">
	</g>
	<g id="pop1_copy_3">
	</g>
</g>
<g id="Layer_1">
</g>
<g id="Layer_24">
</g>
<g id="not_2">
	<g id="pop1_copy">
	</g>
	<g id="Layer_10_copy">
	</g>
	<g id="Layer_14" display="none">
	</g>
	<g id="Layer_14_copy" display="none">
	</g>
	<g id="Layer_14_copy_2" display="none">
	</g>
	<g id="Layer_14_copy_4">
	</g>
	<g id="Layer_14_copy_3" display="none">
	</g>
	<g id="Layer_14_copy_5">
	</g>
</g>
<g id="not" display="none">
	<g id="pop1" display="inline">
	</g>
	<g id="Layer_10" display="inline">
	</g>
</g>
<g id="zak" display="none">
	<g id="pop1_1_">
	</g>
</g>
<g id="Layer_3" display="none">
</g>
<g id="Layer_2">
</g>
<g id="Layer_5" display="none">
</g>
<g id="Layer_25">
	<g>
		<g>
			<path fill="#FFFFFF" d="M23.9,8.7c0,0.3-0.4,0.6-1,0.6H5.1c-0.5,0-1-0.3-1-0.6V8c0-0.3,0.4-0.6,1-0.6h17.9c0.5,0,1,0.3,1,0.6V8.7
				z"/>
			<path fill="#FFFFFF" d="M15.7,7.8c0,0.5-0.6,1-1.3,1h-1c-0.7,0-1.3-0.4-1.3-1V7.4c0-0.5,0.6-1,1.3-1h1c0.7,0,1.3,0.4,1.3,1V7.8z"
				/>
		</g>
		<path fill="#FFFFFF" d="M20.2,24.4c0,0.6-0.9,0.8-1.6,0.8H9.3c-0.7,0-1.6-0.1-1.6-0.8L6.4,12.7C6.4,12.1,7,12,7.6,12h12.6
			c0.7,0,1.2,0.1,1.2,0.8L20.2,24.4z"/>
	</g>
</g>
<g id="Layer_26" display="none">
</g>
<g id="Layer_27" display="none">
</g>
<g id="Layer_28" display="none">
</g>
</svg>
