<?xml version="1.0" encoding="utf-8"?>
<!-- Generator: Adobe Illustrator 18.1.1, SVG Export Plug-In . SVG Version: 6.00 Build 0)  -->
<svg version="1.1" xmlns="http://www.w3.org/2000/svg" xmlns:xlink="http://www.w3.org/1999/xlink" x="0px" y="0px" width="32px"
	 height="32px" viewBox="0 0 32 32" enable-background="new 0 0 32 32" xml:space="preserve">
<g id="Layer_4">
</g>
<g id="Layer_10_copy_2" display="none">
</g>
<g id="not_2_copy">
	<g id="pop1_copy_2" display="none">
	</g>
	<g id="pop1_copy_3">
	</g>
</g>
<g id="Layer_1">
	<path fill="#5084C4" d="M15,23.9h2v-2.1c1.2-0.2,2.3-0.6,3.2-1.3l1.5,1.5l1.4-1.4l-1.5-1.5c0.7-0.9,1.2-2,1.3-3.2H25v-2h-2.1
		c-0.2-1.2-0.6-2.3-1.3-3.2l1.5-1.5l-1.4-1.4l-1.5,1.5c-0.9-0.7-2-1.2-3.2-1.3V5.9h-2V8c-1.2,0.2-2.3,0.6-3.2,1.3l-1.5-1.5L8.9,9.3
		l1.5,1.5c-0.7,0.9-1.2,2-1.3,3.2H7v2h2.1c0.2,1.2,0.6,2.3,1.3,3.2l-1.5,1.5l1.4,1.4l1.5-1.5c0.9,0.7,2,1.2,3.2,1.3V23.9z M16,19.9
		c-2.8,0-5-2.2-5-5s2.2-5,5-5s5,2.2,5,5S18.8,19.9,16,19.9z"/>
</g>
<g id="not_2">
	<g id="pop1_copy">
	</g>
	<g id="Layer_10_copy">
	</g>
	<g id="Layer_14" display="none">
	</g>
	<g id="Layer_14_copy" display="none">
	</g>
	<g id="Layer_14_copy_2" display="none">
	</g>
	<g id="Layer_14_copy_4">
	</g>
	<g id="Layer_14_copy_3" display="none">
	</g>
	<g id="Layer_14_copy_5">
	</g>
</g>
<g id="not" display="none">
	<g id="pop1" display="inline">
	</g>
	<g id="Layer_10" display="inline">
	</g>
</g>
<g id="zak" display="none">
	<g id="pop1_1_">
	</g>
</g>
<g id="Layer_3" display="none">
</g>
<g id="Layer_2">
</g>
<g id="Layer_5">
</g>
</svg>
