<?xml version="1.0" encoding="utf-8"?>
<!-- Generator: Adobe Illustrator 18.1.1, SVG Export Plug-In . SVG Version: 6.00 Build 0)  -->
<svg version="1.1" xmlns="http://www.w3.org/2000/svg" xmlns:xlink="http://www.w3.org/1999/xlink" x="0px" y="0px" width="28px"
	 height="32px" viewBox="0 0 28 32" enable-background="new 0 0 28 32" xml:space="preserve">
<g id="Layer_4">
</g>
<g id="Layer_10_copy_2" display="none">
</g>
<g id="not_2_copy">
	<g id="pop1_copy_2" display="none">
	</g>
	<g id="pop1_copy_3">
	</g>
</g>
<g id="Layer_1">
</g>
<g id="Layer_24">
</g>
<g id="not_2">
	<g id="pop1_copy">
	</g>
	<g id="Layer_10_copy">
	</g>
	<g id="Layer_14" display="none">
	</g>
	<g id="Layer_14_copy" display="none">
	</g>
	<g id="Layer_14_copy_2" display="none">
	</g>
	<g id="Layer_14_copy_4">
	</g>
	<g id="Layer_14_copy_3" display="none">
	</g>
	<g id="Layer_14_copy_5">
	</g>
</g>
<g id="not" display="none">
	<g id="pop1" display="inline">
	</g>
	<g id="Layer_10" display="inline">
	</g>
</g>
<g id="zak" display="none">
	<g id="pop1_1_">
	</g>
</g>
<g id="Layer_3" display="none">
</g>
<g id="Layer_2">
</g>
<g id="Layer_5" display="none">
</g>
<g id="Layer_25">
	<path fill="#FFFFFF" d="M22.2,7.4H5.8c-1.1,0-1.7,0.7-1.7,2.2v11.1c0,1.5,0.6,2.2,1.7,2.2h5.7l4.9,3.4c0,0,0,0,0,0l0,0l0,0
		c0.1,0,0.1,0.1,0.2,0.1c0.2,0,0.3-0.1,0.3-0.3v-0.2v-0.6v-2.4h5.2c1.1,0,1.7-0.7,1.7-2.2V9.6C23.9,8.2,23.3,7.4,22.2,7.4z"/>
</g>
<g id="Layer_26" display="none">
</g>
<g id="Layer_27" display="none">
</g>
<g id="Layer_28" display="none">
</g>
</svg>
