<?xml version="1.0" encoding="utf-8"?>
<!-- Generator: Adobe Illustrator 19.1.0, SVG Export Plug-In . SVG Version: 6.00 Build 0)  -->
<svg version="1.1" xmlns="http://www.w3.org/2000/svg" xmlns:xlink="http://www.w3.org/1999/xlink" x="0px" y="0px"
	 viewBox="0 0 47.9 47.9" style="enable-background:new 0 0 47.9 47.9;" xml:space="preserve" xmlns:sodipodi="sodipodi.com/sodipodi">
<style type="text/css">
	.st0{fill:#F8F6FB;}
	.st1{fill:none;stroke:#BBBBBB;stroke-miterlimit:10;}
	.st2{display:none;}
	.st3{fill:#E8E8E8;stroke:#868686;stroke-miterlimit:10;}
	.st4{fill:#F8F6FB;stroke:#868686;stroke-miterlimit:10;}
	.st5{fill:#BDBEC1;}
	.st6{fill:#FFFFFF;}
	.st7{display:inline;fill:#ED3995;}
	.st8{fill:#FFFEEF;stroke:#BDBEC1;stroke-miterlimit:10;}
	.st9{fill:#FAA21B;}
	.st10{fill:#EE2F2E;}
	.st11{display:inline;fill:#ED1C24;}
	.st12{fill:#373737;}
	.st13{fill:#FFFFFF;stroke:#34C4F3;stroke-width:1.883;}
	.st14{fill:#D5D5D5;}
	.st15{opacity:0.7;}
	.st16{opacity:0.7;fill:#FFFFFF;}
	.st17{fill:#F5F5F5;}
	.st18{opacity:0.5;}
	.st19{fill:#ECECEC;}
	.st20{opacity:0.25;}
	.st21{fill:none;stroke:#34C4F3;stroke-width:1.883;}
	.st22{fill:#33669A;}
	.st23{fill:#33669A;stroke:#33669A;stroke-width:1.883;}
	.st24{fill:none;stroke:#33669B;stroke-width:4;stroke-linecap:round;stroke-miterlimit:10;}
	.st25{fill:#34C4F3;}
	.st26{fill:#33669B;stroke:#33669B;stroke-width:4;stroke-linecap:round;stroke-miterlimit:10;}
	.st27{fill:#E6E6EA;stroke:#868686;stroke-miterlimit:10;}
	.st28{display:inline;}
	.st29{fill:#ED1C24;}
	.st30{fill:#E9EAEB;stroke:#CCCCCC;stroke-miterlimit:10;}
	.st31{display:inline;fill:#FFFFFF;stroke:#34C4F3;stroke-width:1.883;}
</style>
<g id="GRAFIKA">
</g>
<g id="ekstra">
</g>
<g id="obrys">
</g>
<g id="Layer_13" class="st2">
</g>
<g id="INFO">
</g>
<g id="Layer_1">
</g>
<g id="Layer_3">
	<g id="elt">
	</g>
	<g id="Layer_5">
	</g>
</g>
<g id="Layer_18" class="st2">
</g>
<g id="Layer_4">
</g>
<g id="Layer_6" class="st2">
</g>
<g id="op1">
</g>
<g id="op1_copy">
	<g>
		<g>
			
				<path id="path2983_130_" sodipodi:cy="23.074537" sodipodi:cx="23.625267" sodipodi:rx="22.096125" sodipodi:ry="22.096125" sodipodi:type="arc" class="st22" d="
				M47,24c0,12.7-10.3,23-23,23c-12.7,0-23-10.3-23-23v0c0-12.7,10.3-23,23-23C36.7,0.9,47,11.2,47,24C47,24,47,24,47,24z"/>
			<path class="st22" d="M24,47.9c-13.2,0-24-10.7-24-24C0,10.8,10.7,0,24,0c0,0,0,0,0,0c6.4,0,12.4,2.5,16.9,7
				c4.5,4.5,7,10.5,7,16.9L47,24h0.9c0,6.4-2.5,12.4-7,16.9C36.4,45.4,30.4,47.9,24,47.9C24,47.9,24,47.9,24,47.9z M24,1.9
				C24,1.9,24,1.9,24,1.9C11.8,1.9,1.9,11.8,1.9,24c0,5.9,2.3,11.4,6.5,15.6C12.5,43.8,18.1,46,24,46c0,0,0,0,0,0
				c5.9,0,11.4-2.3,15.6-6.5C43.7,35.4,46,29.9,46,24v0c0-5.9-2.3-11.4-6.5-15.6C35.4,4.2,29.9,1.9,24,1.9z"/>
		</g>
		<g>
			<g id="layer1_7_" transform="translate(-411.22857,-457.87647)">
				<g id="g3334_7_">
					<path id="path312_7_" class="st6" d="M435.2,471.6c7.8,0,12.7,7.4,14.4,10.3c-1.6,3-6.6,10.2-14.4,10.2
						c-7.8,0-12.7-7.3-14.4-10.2C422.5,478.9,427.5,471.6,435.2,471.6 M435.2,468.6c-11.7,0-17.7,13.3-17.7,13.3s5.9,13.1,17.7,13.1
						c11.7,0,17.7-13.3,17.7-13.3S447.1,468.6,435.2,468.6L435.2,468.6z"/>
					<path id="path314_7_" class="st6" d="M435.2,478.9c1.6,0,3,1.2,3,3c0,1.7-1.2,3-3,3c-1.7,0-2.8-1.4-2.8-3
						C432.4,480.4,433.6,478.9,435.2,478.9 M435.2,476c-3.3,0-5.9,2.7-5.9,5.9c0,3.3,2.7,5.9,5.9,5.9c3.3,0,5.9-2.7,5.9-5.9
						C441.1,478.6,438.5,476,435.2,476L435.2,476z"/>
				</g>
			</g>
		</g>
	</g>
</g>
<g id="Layer_16">
</g>
<g id="RAMKA" class="st2">
</g>
<g id="RAMKA_copy" class="st2">
</g>
<g id="Layer_19">
</g>
<g id="Warstwa_19" class="st2">
</g>
</svg>
