<?xml version="1.0" encoding="UTF-8" standalone="no"?>
<!-- Generator: Adobe Illustrator 19.1.0, SVG Export Plug-In . SVG Version: 6.00 Build 0)  -->

<svg
   xmlns:dc="http://purl.org/dc/elements/1.1/"
   xmlns:cc="http://creativecommons.org/ns#"
   xmlns:rdf="http://www.w3.org/1999/02/22-rdf-syntax-ns#"
   xmlns:svg="http://www.w3.org/2000/svg"
   xmlns="http://www.w3.org/2000/svg"
   xmlns:sodipodi="http://sodipodi.sourceforge.net/DTD/sodipodi-0.dtd"
   xmlns:inkscape="http://www.inkscape.org/namespaces/inkscape"
   version="1.1"
   id="svg2"
   sodipodi:docname="ICON_KZD_WWW_SHOW.svg"
   inkscape:version="0.91 r13725"
   x="0px"
   y="0px"
   viewBox="-333.1 397 47.9 47.9"
   style="enable-background:new -333.1 397 47.9 47.9;"
   xml:space="preserve"><metadata
     id="metadata12"><rdf:RDF><cc:Work
         rdf:about=""><dc:format>image/svg+xml</dc:format><dc:type
           rdf:resource="http://purl.org/dc/dcmitype/StillImage" /><dc:title></dc:title></cc:Work></rdf:RDF></metadata><defs
     id="defs10" /><sodipodi:namedview
     pagecolor="#ffffff"
     bordercolor="#666666"
     borderopacity="1"
     objecttolerance="10"
     gridtolerance="10"
     guidetolerance="10"
     inkscape:pageopacity="0"
     inkscape:pageshadow="2"
     inkscape:window-width="1920"
     inkscape:window-height="1017"
     id="namedview8"
     showgrid="false"
     inkscape:zoom="4.9269309"
     inkscape:cx="23.950001"
     inkscape:cy="23.950001"
     inkscape:window-x="1912"
     inkscape:window-y="-8"
     inkscape:window-maximized="1"
     inkscape:current-layer="svg2" /><style
     type="text/css"
     id="style3">
	.st0{display:none;}
	.st1{fill:#34C4F3;}
	.st2{fill:#33669A;}
</style><path
     id="path22_1_"
     class="st1"
     d="M-309.1,444.9c-13.2,0-24-10.7-24-24c0-13.1,10.7-23.9,24-23.9l0,0c6.4,0,12.4,2.5,16.9,7  s7,10.5,7,16.9v0.1c0,6.4-2.5,12.4-7,16.9S-302.7,444.9-309.1,444.9L-309.1,444.9z M-309.1,398.9L-309.1,398.9  c-12.2,0-22.1,9.9-22.1,22.1c0,5.9,2.3,11.4,6.5,15.6c4.1,4.2,9.7,6.4,15.6,6.4l0,0c5.9,0,11.4-2.3,15.6-6.5  c4.1-4.1,6.4-9.6,6.4-15.5l0,0c0-5.9-2.3-11.4-6.5-15.6C-297.7,401.2-303.2,398.9-309.1,398.9z" /><polygon
     class="st2"
     points="-297.5,426.3 -298.6,424.3 -308,429.8 -308,408.8 -310.3,408.8 -310.3,429.8 -319.8,424.4 -320.9,426.3 -309.2,433.1 -309.2,433.1 -309.2,433.1 -309.2,433.1 -309.2,433.1 "
     id="polygon6"
     transform="matrix(-0.70925395,-0.70495307,0.70495307,-0.70925395,-825.25132,501.53896)"
     style="fill:#33669a" /></svg>