<?xml version="1.0" encoding="UTF-8" standalone="no"?>
<!-- Generator: Adobe Illustrator 19.1.0, SVG Export Plug-In . SVG Version: 6.00 Build 0)  -->

<svg
   xmlns:dc="http://purl.org/dc/elements/1.1/"
   xmlns:cc="http://creativecommons.org/ns#"
   xmlns:rdf="http://www.w3.org/1999/02/22-rdf-syntax-ns#"
   xmlns:svg="http://www.w3.org/2000/svg"
   xmlns="http://www.w3.org/2000/svg"
   xmlns:sodipodi="http://sodipodi.sourceforge.net/DTD/sodipodi-0.dtd"
   xmlns:inkscape="http://www.inkscape.org/namespaces/inkscape"
   version="1.1"
   x="0px"
   y="0px"
   viewBox="0 0 47.9 47.9"
   style="enable-background:new 0 0 47.9 47.9;"
   xml:space="preserve"
   id="svg2"
   inkscape:version="0.91 r13725"
   sodipodi:docname="ICON_KZD_DEFAULT.svg"><metadata
     id="metadata41"><rdf:RDF><cc:Work
         rdf:about=""><dc:format>image/svg+xml</dc:format><dc:type
           rdf:resource="http://purl.org/dc/dcmitype/StillImage" /></cc:Work></rdf:RDF></metadata><defs
     id="defs39" /><sodipodi:namedview
     pagecolor="#ffffff"
     bordercolor="#666666"
     borderopacity="1"
     objecttolerance="10"
     gridtolerance="10"
     guidetolerance="10"
     inkscape:pageopacity="0"
     inkscape:pageshadow="2"
     inkscape:window-width="1920"
     inkscape:window-height="1017"
     id="namedview37"
     showgrid="false"
     inkscape:zoom="5.7288226"
     inkscape:cx="-8.5844482"
     inkscape:cy="-8.5245765"
     inkscape:window-x="1912"
     inkscape:window-y="-8"
     inkscape:window-maximized="1"
     inkscape:current-layer="g20" /><style
     type="text/css"
     id="style4">
	.st0{fill:#F8F6FB;}
	.st1{fill:none;stroke:#BBBBBB;stroke-miterlimit:10;}
	.st2{display:none;}
	.st3{fill:#E8E8E8;stroke:#868686;stroke-miterlimit:10;}
	.st4{fill:#F8F6FB;stroke:#868686;stroke-miterlimit:10;}
	.st5{fill:#BDBEC1;}
	.st6{fill:#FFFFFF;}
	.st7{display:inline;fill:#ED3995;}
	.st8{fill:#FFFEEF;stroke:#BDBEC1;stroke-miterlimit:10;}
	.st9{fill:#FAA21B;}
	.st10{fill:#EE2F2E;}
	.st11{display:inline;fill:#ED1C24;}
	.st12{fill:#373737;}
	.st13{fill:#FFFFFF;stroke:#34C4F3;stroke-width:1.883;}
	.st14{fill:#D5D5D5;}
	.st15{opacity:0.7;}
	.st16{opacity:0.7;fill:#FFFFFF;}
	.st17{fill:#F5F5F5;}
	.st18{opacity:0.5;}
	.st19{fill:#ECECEC;}
	.st20{opacity:0.25;}
	.st21{fill:none;stroke:#34C4F3;stroke-width:1.883;}
	.st22{fill:#33669A;}
	.st23{fill:#33669A;stroke:#33669A;stroke-width:1.883;}
	.st24{fill:none;stroke:#33669B;stroke-width:4;stroke-linecap:round;stroke-miterlimit:10;}
	.st25{fill:#34C4F3;}
	.st26{fill:#33669B;stroke:#33669B;stroke-width:4;stroke-linecap:round;stroke-miterlimit:10;}
	.st27{fill:#E6E6EA;stroke:#868686;stroke-miterlimit:10;}
	.st28{display:inline;}
	.st29{fill:#ED1C24;}
	.st30{fill:#E9EAEB;stroke:#CCCCCC;stroke-miterlimit:10;}
	.st31{display:inline;fill:#FFFFFF;stroke:#34C4F3;stroke-width:1.883;}
</style><g
     id="GRAFIKA" /><g
     id="ekstra" /><g
     id="obrys" /><g
     id="Layer_13"
     class="st2" /><g
     id="INFO" /><g
     id="Layer_1" /><g
     id="Layer_3"><g
       id="elt" /><g
       id="Layer_5" /></g><g
     id="Layer_18"
     class="st2" /><g
     id="Layer_4" /><g
     id="Layer_6"
     class="st2" /><g
     id="op1" /><g
     id="op1_copy"><g
       id="g20"><path
         class="st25"
         d="M24,47.9c-13.2,0-24-10.7-24-24C0,10.8,10.7,0,24,0c0,0,0,0,0,0c6.4,0,12.4,2.5,16.9,7    c4.5,4.5,7,10.5,7,16.9L47,24h0.9c0,6.4-2.5,12.4-7,16.9C36.4,45.4,30.4,47.9,24,47.9C24,47.9,24,47.9,24,47.9z M24,1.9    C24,1.9,24,1.9,24,1.9C11.8,1.9,1.9,11.8,1.9,24c0,5.9,2.3,11.4,6.5,15.6C12.5,43.8,18.1,46,24,46c0,0,0,0,0,0    c5.9,0,11.4-2.3,15.6-6.5C43.7,35.4,46,29.9,46,24v0c0-5.9-2.3-11.4-6.5-15.6C35.4,4.2,29.9,1.9,24,1.9z"
         id="path22" /><text
         xml:space="preserve"
         style="font-style:normal;font-weight:normal;font-size:40px;line-height:125%;font-family:sans-serif;letter-spacing:0px;word-spacing:0px;fill:#33669a;fill-opacity:1;stroke:none;stroke-width:1px;stroke-linecap:butt;stroke-linejoin:miter;stroke-opacity:1"
         x="11.366103"
         y="46.043648"
         id="text4181"
         sodipodi:linespacing="125%"><tspan
           sodipodi:role="line"
           id="tspan4183"
           x="11.366103"
           y="46.043648" /></text>
<rect
         style="fill:#33669a;fill-opacity:1"
         id="rect4156"
         width="2.2692273"
         height="25.834278"
         x="31.601982"
         y="-21.364399"
         transform="matrix(0.50514072,0.86303699,-0.86303699,0.50514072,0,0)" /><rect
         style="fill:#33669a;fill-opacity:1"
         id="rect4156-8"
         width="2.2692273"
         height="25.834278"
         x="22.779551"
         y="11.243256" /><rect
         style="fill:#33669a;fill-opacity:1"
         id="rect4156-3"
         width="2.2692273"
         height="25.834278"
         x="-10.188323"
         y="19.72216"
         transform="matrix(0.5,-0.8660254,0.8660254,0.5,0,0)" /></g></g><g
     id="Layer_16" /><g
     id="RAMKA"
     class="st2" /><g
     id="RAMKA_copy"
     class="st2" /><g
     id="Layer_19" /><g
     id="Warstwa_19"
     class="st2" /></svg>