<?xml version="1.0" encoding="utf-8"?>
<!-- Generator: Adobe Illustrator 19.1.0, SVG Export Plug-In . SVG Version: 6.00 Build 0)  -->
<svg version="1.1"
	 id="svg2" xmlns:dc="http://purl.org/dc/elements/1.1/" xmlns:cc="http://creativecommons.org/ns#" xmlns:rdf="http://www.w3.org/1999/02/22-rdf-syntax-ns#" xmlns:svg="http://www.w3.org/2000/svg" xmlns:sodipodi="http://sodipodi.sourceforge.net/DTD/sodipodi-0.dtd" xmlns:inkscape="http://www.inkscape.org/namespaces/inkscape" sodipodi:docname="ICON_KZD_DEFAULT.svg" inkscape:version="0.91 r13725"
	 xmlns="http://www.w3.org/2000/svg" xmlns:xlink="http://www.w3.org/1999/xlink" x="0px" y="0px" viewBox="-333.1 397 47.9 47.9"
	 style="enable-background:new -333.1 397 47.9 47.9;" xml:space="preserve">
<style type="text/css">
	.st0{display:none;}
	.st1{fill:#34C4F3;}
	.st2{fill:#33669A;}
</style>
<path id="path22_1_" class="st1" d="M-309.1,444.9c-13.2,0-24-10.7-24-24c0-13.1,10.7-23.9,24-23.9l0,0c6.4,0,12.4,2.5,16.9,7
	s7,10.5,7,16.9v0.1c0,6.4-2.5,12.4-7,16.9S-302.7,444.9-309.1,444.9L-309.1,444.9z M-309.1,398.9L-309.1,398.9
	c-12.2,0-22.1,9.9-22.1,22.1c0,5.9,2.3,11.4,6.5,15.6c4.1,4.2,9.7,6.4,15.6,6.4l0,0c5.9,0,11.4-2.3,15.6-6.5
	c4.1-4.1,6.4-9.6,6.4-15.5l0,0c0-5.9-2.3-11.4-6.5-15.6C-297.7,401.2-303.2,398.9-309.1,398.9z"/>
<polygon class="st2" points="-309.2,433.1 -297.5,426.3 -298.6,424.3 -308,429.8 -308,408.8 -310.3,408.8 -310.3,429.8 
	-319.8,424.4 -320.9,426.3 -309.2,433.1 -309.2,433.1 -309.2,433.1 -309.2,433.1 "/>
</svg>
