<?xml version="1.0" encoding="utf-8"?>
<!-- Generator: Adobe Illustrator 19.1.0, SVG Export Plug-In . SVG Version: 6.00 Build 0)  -->
<svg version="1.1" xmlns="http://www.w3.org/2000/svg" xmlns:xlink="http://www.w3.org/1999/xlink" x="0px" y="0px"
	 viewBox="0 0 47.9 47.9" style="enable-background:new 0 0 47.9 47.9;" xml:space="preserve">
<style type="text/css">
	.st0{fill:#F8F6FB;}
	.st1{fill:none;stroke:#BBBBBB;stroke-miterlimit:10;}
	.st2{display:none;}
	.st3{fill:#E8E8E8;stroke:#868686;stroke-miterlimit:10;}
	.st4{fill:#F8F6FB;stroke:#868686;stroke-miterlimit:10;}
	.st5{fill:#BDBEC1;}
	.st6{fill:#FFFFFF;}
	.st7{display:inline;fill:#ED3995;}
	.st8{fill:#FFFEEF;stroke:#BDBEC1;stroke-miterlimit:10;}
	.st9{fill:#FAA21B;}
	.st10{fill:#EE2F2E;}
	.st11{display:inline;fill:#ED1C24;}
	.st12{fill:#373737;}
	.st13{fill:#FFFFFF;stroke:#34C4F3;stroke-width:1.883;}
	.st14{fill:#D5D5D5;}
	.st15{opacity:0.7;}
	.st16{opacity:0.7;fill:#FFFFFF;}
	.st17{fill:#F5F5F5;}
	.st18{opacity:0.5;}
	.st19{fill:#ECECEC;}
	.st20{opacity:0.25;}
	.st21{fill:none;stroke:#34C4F3;stroke-width:1.883;}
	.st22{fill:#33669A;}
	.st23{fill:#33669A;stroke:#33669A;stroke-width:1.883;}
	.st24{fill:none;stroke:#33669B;stroke-width:4;stroke-linecap:round;stroke-miterlimit:10;}
	.st25{fill:#34C4F3;}
	.st26{fill:#33669B;stroke:#33669B;stroke-width:4;stroke-linecap:round;stroke-miterlimit:10;}
	.st27{fill:#E6E6EA;stroke:#868686;stroke-miterlimit:10;}
	.st28{display:inline;}
	.st29{fill:#ED1C24;}
	.st30{fill:#E9EAEB;stroke:#CCCCCC;stroke-miterlimit:10;}
	.st31{display:inline;fill:#FFFFFF;stroke:#34C4F3;stroke-width:1.883;}
</style>
<g id="GRAFIKA">
</g>
<g id="ekstra">
</g>
<g id="obrys">
</g>
<g id="Layer_13" class="st2">
</g>
<g id="INFO">
</g>
<g id="Layer_1">
</g>
<g id="Layer_3">
	<g id="elt">
	</g>
	<g id="Layer_5">
	</g>
</g>
<g id="Layer_18" class="st2">
</g>
<g id="Layer_4">
</g>
<g id="Layer_6" class="st2">
</g>
<g id="op1">
</g>
<g id="op1_copy">
	<g>
		<path class="st25" d="M24,47.9c-13.2,0-24-10.7-24-24C0,10.8,10.7,0,24,0c0,0,0,0,0,0c6.4,0,12.4,2.5,16.9,7
			c4.5,4.5,7,10.5,7,16.9L47,24h0.9c0,6.4-2.5,12.4-7,16.9C36.4,45.4,30.4,47.9,24,47.9C24,47.9,24,47.9,24,47.9z M24,1.9
			C24,1.9,24,1.9,24,1.9C11.8,1.9,1.9,11.8,1.9,24c0,5.9,2.3,11.4,6.5,15.6C12.5,43.8,18.1,46,24,46c0,0,0,0,0,0
			c5.9,0,11.4-2.3,15.6-6.5C43.7,35.4,46,29.9,46,24v0c0-5.9-2.3-11.4-6.5-15.6C35.4,4.2,29.9,1.9,24,1.9z"/>
		<g>
			<path class="st22" d="M17.7,22c0,1.4-0.4,2.5-1.3,3.3c-0.8,0.8-2,1.2-3.6,1.2h-1v4.3H8.3V17.9h4.4c1.6,0,2.8,0.4,3.7,1.1
				S17.7,20.7,17.7,22z M11.8,23.7h0.6c0.5,0,0.9-0.1,1.2-0.4c0.3-0.3,0.5-0.7,0.5-1.2c0-0.9-0.5-1.3-1.4-1.3h-0.9V23.7z"/>
			<path class="st22" d="M30.6,24.1c0,2.1-0.6,3.8-1.8,5c-1.2,1.2-2.8,1.7-5,1.7h-4.2V17.9h4.4c2.1,0,3.7,0.5,4.8,1.6
				C30.1,20.5,30.6,22.1,30.6,24.1z M27,24.2c0-1.2-0.2-2.1-0.7-2.6c-0.5-0.6-1.2-0.9-2.1-0.9h-1v7.2H24c1.1,0,1.8-0.3,2.3-0.9
				S27,25.4,27,24.2z"/>
			<path class="st22" d="M36.3,30.8h-3.4V17.9h7.6v2.8h-4.2v2.5h3.8v2.8h-3.8V30.8z"/>
		</g>
	</g>
</g>
<g id="Layer_16">
</g>
<g id="RAMKA" class="st2">
</g>
<g id="RAMKA_copy" class="st2">
</g>
<g id="Layer_19">
</g>
<g id="Warstwa_19" class="st2">
</g>
</svg>
