<?xml version="1.0" encoding="UTF-8" standalone="no"?>
<!-- Created with Inkscape (http://www.inkscape.org/) -->

<svg
   xmlns:dc="http://purl.org/dc/elements/1.1/"
   xmlns:cc="http://creativecommons.org/ns#"
   xmlns:rdf="http://www.w3.org/1999/02/22-rdf-syntax-ns#"
   xmlns:svg="http://www.w3.org/2000/svg"
   xmlns="http://www.w3.org/2000/svg"
   version="1.1"
   width="100"
   height="100"
   viewBox="0 0 100 100"
   id="Layer_1"
   xml:space="preserve"><metadata
   id="metadata9"><rdf:RDF><cc:Work
       rdf:about=""><dc:format>image/svg+xml</dc:format><dc:type
         rdf:resource="http://purl.org/dc/dcmitype/StillImage" /><dc:title></dc:title></cc:Work></rdf:RDF></metadata><defs
   id="defs7" />   
<path fill="#3b8e7f"
	d="M 96.950054,48.574876 75.839465,29.332759 c -0.587062,-0.476394 -1.228104,-0.568164 -1.92448,-0.274636 -0.696376,0.29355 -1.045238,0.824587 -1.045238,1.594515 V 42.967427 H 4.2591582 c -0.5135096,0 -0.9352491,0.164652 -1.2645407,0.494618 C 2.665313,43.791997 2.5,44.213749 2.5,44.726585 v 10.555632 c 0,0.512836 0.1646523,0.934575 0.4946175,1.263867 0.3299523,0.329304 0.7517048,0.493944 1.2645407,0.493944 H 72.870421 v 12.314789 c 0,0.734164 0.349514,1.265219 1.045237,1.59451 0.69705,0.294198 1.338097,0.182875 1.925158,-0.329304 L 96.951401,51.157256 C 97.317799,50.790859 97.5,50.351566 97.5,49.838056 c 0,-0.475725 -0.183523,-0.896787 -0.549946,-1.263193 z"
	id="path3" />
</svg>