<?xml version="1.0" encoding="UTF-8" standalone="no"?>
<!-- Created with Inkscape (http://www.inkscape.org/) -->

<svg
   xmlns:dc="http://purl.org/dc/elements/1.1/"
   xmlns:cc="http://creativecommons.org/ns#"
   xmlns:rdf="http://www.w3.org/1999/02/22-rdf-syntax-ns#"
   xmlns:svg="http://www.w3.org/2000/svg"
   xmlns="http://www.w3.org/2000/svg"
   version="1.1"
   width="100"
   height="100"
   viewBox="0 0 100 100"
   id="Capa_1"
   xml:space="preserve"><metadata
   id="metadata15"><rdf:RDF><cc:Work
       rdf:about=""><dc:format>image/svg+xml</dc:format><dc:type
         rdf:resource="http://purl.org/dc/dcmitype/StillImage" /><dc:title></dc:title></cc:Work></rdf:RDF></metadata><defs
   id="defs13" />
<g
   transform="matrix(0.65068493,0,0,0.65068493,-20.273972,2.5000001)"
   id="g3"  >
	<path fill="#3b8e7f"    d="m 126.251,96.464 c 0,1.413 -0.517,2.636 -1.548,3.667 -1.032,1.032 -2.255,1.548 -3.667,1.548 H 94.965 c -1.413,0 -2.635,-0.516 -3.667,-1.548 C 90.266,99.1 89.75,97.877 89.75,96.464 V 83.429 H 35 v 39.107 c 0,3.584 1.276,6.653 3.829,9.206 2.553,2.553 5.622,3.829 9.207,3.829 h 119.929 c 3.584,0 6.653,-1.276 9.206,-3.829 2.554,-2.553 3.829,-5.622 3.829,-9.206 V 83.429 h -54.749 v 13.035 z"
   id="path5" />
	<rect fill="#3b8e7f"
   width="20.858999"
   height="10.429"
   x="97.570999"
   y="83.429001"
   id="rect7" />
	<path fill="#3b8e7f"    d="m 177.171,35.115 c -2.553,-2.553 -5.622,-3.829 -9.206,-3.829 h -28.68 V 18.25 c 0,-2.173 -0.76,-4.019 -2.281,-5.54 -1.52,-1.52 -3.367,-2.281 -5.539,-2.281 H 84.536 c -2.172,0 -4.019,0.761 -5.54,2.281 -1.521,1.52 -2.281,3.367 -2.281,5.54 V 31.286 H 48.036 c -3.585,0 -6.654,1.276 -9.207,3.829 C 36.276,37.668 35,40.736 35,44.321 V 75.607 H 181 V 44.321 c 0,-3.585 -1.275,-6.653 -3.829,-9.206 z M 128.857,31.286 H 87.143 V 20.857 h 41.714 v 10.429 z"
   id="path9" />
</g>
</svg>