<?xml version="1.0" encoding="UTF-8" standalone="no"?>
<!-- Created with Inkscape (http://www.inkscape.org/) -->

<svg
   xmlns:dc="http://purl.org/dc/elements/1.1/"
   xmlns:cc="http://creativecommons.org/ns#"
   xmlns:rdf="http://www.w3.org/1999/02/22-rdf-syntax-ns#"
   xmlns:svg="http://www.w3.org/2000/svg"
   xmlns="http://www.w3.org/2000/svg"
   version="1.1"
   width="320"
   height="320"
   id="svg2">
  <metadata
     id="metadata14">
    <rdf:RDF>
      <cc:Work
         rdf:about="">
        <dc:format>image/svg+xml</dc:format>
        <dc:type
           rdf:resource="http://purl.org/dc/dcmitype/StillImage" />
        <dc:title></dc:title>
      </cc:Work>
    </rdf:RDF>
  </metadata>
  <defs
     id="defs4" />
  <g
     transform="matrix(1.5856302,0,0,1.5856302,-38.243416,-38.243416)"
     id="g6">
    <path
       d="m 132.7,96.3 q 0,3.35 -1.9,5.2 -2,1.85 -5.9,1.85 -7.75,0 -7.75,-7.05 0,-7 7.75,-7 7.8,0 7.8,7 m -0.65,65.95 -14.3,0 0,-52.4 14.3,0 0,52.4"
       id="path8"
       style="fill:#ffffff;stroke:none" />
    <path
       d="m 186.25,103.35 0,-34.05 q 0,-20 -20,-20 l -82.45,0 q -20,0 -20,20 l 0,111.45 q 0,20 20,20 l 14.15,0"
       id="path10"
       style="fill:none;stroke:#ffffff;stroke-width:10;stroke-linecap:round;stroke-linejoin:round" />
  </g>
</svg>
