<?xml version="1.0" encoding="UTF-8" standalone="no"?>
<!-- Created with Inkscape (http://www.inkscape.org/) -->

<svg
   xmlns:dc="http://purl.org/dc/elements/1.1/"
   xmlns:cc="http://creativecommons.org/ns#"
   xmlns:rdf="http://www.w3.org/1999/02/22-rdf-syntax-ns#"
   xmlns:svg="http://www.w3.org/2000/svg"
   xmlns="http://www.w3.org/2000/svg"
   version="1.1"
   width="320"
   height="320"
   id="svg2">
  <metadata
     id="metadata16">
    <rdf:RDF>
      <cc:Work
         rdf:about="">
        <dc:format>image/svg+xml</dc:format>
        <dc:type
           rdf:resource="http://purl.org/dc/dcmitype/StillImage" />
        <dc:title></dc:title>
      </cc:Work>
    </rdf:RDF>
  </metadata>
  <defs
     id="defs4" />
  <g
     transform="matrix(2.1052632,0,0,2.1052632,-103.21053,-103.1579)"
     id="g6">
    <path
       d="m 165,165.7 -29,0 q -1.25,0 -2.1,0.9 -0.9,0.85 -0.9,2.1 0,1.25 0.9,2.15 0.85,0.85 2.1,0.85 l 29,0 q 1.25,0 2.15,-0.85 0.85,-0.9 0.85,-2.15 0,-1.25 -0.85,-2.1 -0.9,-0.9 -2.15,-0.9 m 0.85,-8.25 q 3.85,0 6.5,2.7 2.75,2.75 2.75,6.55 l 0,6.85 q 0,3.85 -2.75,6.55 -2.65,2.7 -6.5,2.7 l -81.45,0 q -3.8,0 -6.55,-2.7 -2.7,-2.7 -2.7,-6.55 l 0,-6.85 q 0,-3.8 2.7,-6.55 2.75,-2.7 6.55,-2.7 l 81.45,0 m -70.8,-66.2 0,14.45 14.45,0 0,-13.65 q -1.85,1.95 -4.05,5.15 -2.2,3.2 -3.3,5.45 l -0.9,0.6 -1.5,1.15 -0.7,-1.85 -0.35,-0.8 -1.35,-2.55 q -0.65,-0.8 -1.45,-1.05 1.35,-1.4 2.45,-1.4 0.95,0 2.1,2.55 l 0.35,0.85 q 2.15,-3.65 6.7,-8.15 l 0.85,-0.75 -13.3,0 m 16.3,-1.05 0,17.3 -18.1,0 0,-18.05 17.45,0 q 0.85,-0.6 1.6,-1 l 0.45,0.6 -1.4,1.15 m -6.65,30.9 q -2.2,3.2 -3.3,5.45 l -0.9,0.6 -1.5,1.15 -0.7,-1.85 -0.35,-0.8 -1.35,-2.55 q -0.65,-0.8 -1.45,-1.05 1.35,-1.4 2.45,-1.4 0.95,0 2.1,2.55 l 0.35,0.85 q 2.15,-3.65 6.7,-8.15 l 0.85,-0.75 -13.3,0 0,14.45 14.45,0 0,-13.65 q -1.85,1.95 -4.05,5.15 m 5.9,-7 0,17.3 -18.1,0 0,-18.05 17.45,0 1.6,-1 0.45,0.6 -1.4,1.15"
       id="path8"
       style="fill:#ffffff;stroke:none" />
    <path
       d="M 167.05,67.2 83,67.2 q -9.55,0 -9.55,9.6 l 0,60.85 q 0,9.55 9.55,9.55 l 84.05,0 q 9.55,0 9.55,-9.55 l 0,-60.85 q 0,-9.6 -9.55,-9.6 m -1.2,90.25 -81.45,0 q -3.8,0 -6.55,2.7 -2.7,2.75 -2.7,6.55 l 0,6.85 q 0,3.85 2.7,6.55 2.75,2.7 6.55,2.7 l 81.45,0 q 3.85,0 6.5,-2.7 2.75,-2.7 2.75,-6.55 l 0,-6.85 q 0,-3.8 -2.75,-6.55 -2.65,-2.7 -6.5,-2.7"
       id="path10"
       style="fill:none;stroke:#ffffff;stroke-width:6;stroke-linecap:round;stroke-linejoin:round" />
    <path
       d="m 118.55,97.8 37.05,0 m -37.05,24 37.05,0"
       id="path12"
       style="fill:none;stroke:#ffffff;stroke-width:3;stroke-linecap:round;stroke-linejoin:round" />
  </g>
</svg>
