<?xml version="1.0" encoding="UTF-8" standalone="no"?>
<!-- Created with Inkscape (http://www.inkscape.org/) -->

<svg
   xmlns:dc="http://purl.org/dc/elements/1.1/"
   xmlns:cc="http://creativecommons.org/ns#"
   xmlns:rdf="http://www.w3.org/1999/02/22-rdf-syntax-ns#"
   xmlns:svg="http://www.w3.org/2000/svg"
   xmlns="http://www.w3.org/2000/svg"
   version="1.1"
   width="320"
   height="320"
   id="svg2">
  <metadata
     id="metadata22">
    <rdf:RDF>
      <cc:Work
         rdf:about="">
        <dc:format>image/svg+xml</dc:format>
        <dc:type
           rdf:resource="http://purl.org/dc/dcmitype/StillImage" />
        <dc:title></dc:title>
      </cc:Work>
    </rdf:RDF>
  </metadata>
  <defs
     id="defs4" />
  <g
     transform="matrix(0.35425832,0,0,0.35425832,18.113073,53.713648)"
     id="g6">
    <path
       d="m 507.25,353.25 6.6,10 11.8,17.85 q -1.2,-2.9 -0.6,-6.6 1.1,-7.4 9.85,-11.35 4.7,-2.15 9.05,0.85 4.65,3.2 12.95,14.8 l 0.4,-7.7 q 0.05,-4.4 3.15,-6.8 1.65,-1.3 6.35,-2.9 7.05,-2.4 14.45,4.9 2.4,2.35 4.9,5.85 l 2.9,4.15 q -0.55,-3.6 0.45,-7.6 2,-8.05 10.1,-9.9 6,-1.4 10.75,1.15 2.95,1.6 4.5,4 l 21.8,33.6 21.8,33.6 q 5.2,7.85 1.8,16.6 -2.6,6.85 -7.4,9.6 l -37.4,21.2 q -22.95,13 -37.3,21.4 -2.55,1.5 -5.1,-0.5 L 526.9,469.8 480.7,440.45 q -1.7,-1.4 -2.6,-3.85 -1.75,-4.85 1.95,-10.75 3.75,-4.35 9.65,-3.95 3.4,0.25 6.6,1.85 22.85,12.5 24.75,12.1 1.15,-0.2 2.15,-2.1 1,-1.9 0.5,-2.9 -33.5,-54.5 -51.4,-81.2 l -0.45,-0.75 q -1.5,-2.8 -1.5,-7.1 -0.05,-6.35 4.3,-9.6 l 1.95,-1.25 q 5,-2.75 10.95,-0.8 4.1,1.35 6.05,3.2 l 0.75,0.9 q 4.4,6.15 12.9,19"
       id="path8"
       style="fill:#ffffff;stroke:none" />
    <path
       d="m 650.9,74.4 -43.15,-8.4 -4.4,0.3 q -1.5,0.5 -2.95,1.6 l -25.05,19.15 q -3.65,2.65 0.3,3.4 l 43.1,8.45 q 3.7,0.8 7.35,-1.95 l 25,-19 q 3.6,-2.75 -0.2,-3.55 M 471.85,348.9 Q 429.9,340 404.05,318.3 378.2,296.65 383.6,274.85 q 5.4,-21.75 38.95,-31 7.1,-1.9 14.6,-3 m 119,-138.2 q -15.45,11.7 -24.2,26.8 -3.05,3.6 1.05,4.6 l 42.1,11.5 q 3.75,1.2 6.9,-2.65 5.05,-5 10.3,-11.55 5.2,-6.6 13.5,-14.25 3,-3.7 -0.95,-4.8 L 563.1,100.9 q -4,-1 -6.95,1.75 m -57.35,80.3 46.85,11.5 q 4.05,1.1 6.4,-3.05 4.85,-15.1 16.15,-28.65 2.3,-4.1 -1.85,-5.2 L 522.3,146.1 q -4.05,-1.05 -6.45,3.05 -12.7,11.15 -18.95,28.75 -2.35,4 1.9,5.05 m -25.1,50.9 46.8,12.85 q 4.15,1.25 5.9,-3.4 l 13.35,-31.85 q 1.6,-4.55 -2.75,-5.8 l -45.95,-12.7 q -4.25,-1.2 -5.95,3.35 -9.45,15.25 -14.15,31.95 -1.65,4.4 2.75,5.6 m 2.9,97.1 -1.05,-0.2 Q 447.5,324.8 429.8,310.2 q -17.65,-14.6 -14.55,-29.25 3.1,-14.7 25.2,-20.9 l 4,-1 5.6,-1.05 m 10.55,-4.8 -10.1,32.35 q -1.45,4.5 2.95,5.5 l 49.3,10.95 q 4.3,1 5.75,-3.65 l 10.1,-32.25 0.35,-1.8 q 0.1,-3 -3.3,-3.85 L 466.4,249.6 q -4.35,-1 -5.8,3.6 m 33,80.15 q 17.4,1.3 32.1,-2.85 22.05,-6.2 25.15,-20.85 3.05,-14.3 -13.6,-28.55 m -30,72.15 q 21.4,0.5 40.15,-4.65 33.55,-9.1 38.95,-30.9 5.25,-21.2 -19.1,-42.4"
       id="path10"
       style="fill:none;stroke:#ffffff;stroke-width:6;stroke-linecap:round;stroke-linejoin:round" />
    <path
       d="m 669.35,391 79.3,-121.35 q 2.2,-3.3 -2.65,-4.55 L 573.95,221.95 M 447.15,191.1 272.65,147.3 q -4.85,-1.2 -7.05,2.1 L 123.65,364.7 m 219.6,79.45 133.5,32.65"
       id="path12"
       style="fill:none;stroke:#ffffff;stroke-width:25;stroke-linecap:round;stroke-linejoin:round" />
    <path
       d="m 240.45,150.3 q -12.9,-4.45 -17.1,-16 -4.6,-12.45 3.75,-26.15 8.3,-13.65 24.65,-20.45 16.35,-6.7 31.15,-2.6 14.85,4.1 19.4,16.6 4.65,12.6 -3.65,26.25 l -0.45,0.75 m -67.8,38.05 q -20.25,-6.45 -26.8,-24.3 -6.85,-18.75 5.65,-39.25 12.5,-20.5 36.9,-30.65 24.55,-10.05 46.8,-3.9 22.3,6.2 29.1,24.9 6.95,18.85 -5.55,39.35 l -0.45,0.75 m -65.5,0.1 q -5.5,-2.3 -7.45,-7.55 -2.3,-6.25 1.9,-13.1 4.15,-6.85 12.3,-10.2 8.15,-3.35 15.55,-1.3 7.45,2.05 9.75,8.3 2.3,6.25 -1.85,13.1 l -0.45,0.75 m -42.8,204.5 q 86.2,27.85 130.5,62.8 M 240.65,310.6 q 95.85,29.5 149.8,70.9"
       id="path14"
       style="fill:none;stroke:#ffffff;stroke-width:5;stroke-linecap:round;stroke-linejoin:round" />
    <path
       d="m 221.75,348.85 q -41.8,10.8 -88.75,33.5 -43.9,21.2 -88.8,51.1 M 227.95,537.5 q 24.4,-40.45 55.35,-70.95 35.05,-34.55 75.75,-53.45 m -226.25,0.5 98.25,51.55 m -186.7,-31 183.35,103.5 M 208.5,383 l 80.55,40.25 m 69.85,-10.6 -136.9,-64 m -50.6,47.2 87,46.75"
       id="path16"
       style="fill:none;stroke:#ffffff;stroke-width:10;stroke-linecap:round;stroke-linejoin:round" />
    <path
       d="m 670.3,83.2 -4.2,2.75 M 585.5,62.4 q -2.1,1.3 -4.15,2.7 m -35.45,27.5 -3.7,3.35 m 22.95,-19.3 -3.95,3.05 m -49.6,49.4 -3.1,3.95 m -11.8,16.2 -2.8,4.15 m 34.1,-43.3 -3.4,3.7 m 88.25,17.2 -3.4,3.65 m 21.2,-21.15 -3.7,3.4 m -45.4,53.15 -2.8,4.15 m 17.7,-24.3 -3.1,3.95 m -25.25,37.4 -2.5,4.3 m -94.25,-3.05 -2.25,4.55 m 14.2,-26.6 -2.5,4.35 m -29.35,63.8 -1.7,4.65 m 10.95,-27.9 -1.95,4.65 m -22.5,67.35 -0.6,2.2 m 7.55,-26.45 -0.8,2.45 -0.7,2.4 m 103.85,-31.9 -1.95,4.6 m 12.55,-27.35 -2.2,4.5 m -25.9,65.8 -1.5,4.8 m 9.75,-29.15 -1.7,4.7 m -13.45,43.85 -0.7,2.55 m 129.35,-212.8 -3.95,3.05"
       id="path18"
       style="fill:none;stroke:#ffffff;stroke-width:10;stroke-linecap:round;stroke-linejoin:round" />
  </g>
</svg>
