<?xml version="1.0" encoding="utf-8"?>
<!-- Generator: Adobe Illustrator 18.1.1, SVG Export Plug-In . SVG Version: 6.00 Build 0)  -->
<svg version="1.1" id="Layer_1" xmlns="http://www.w3.org/2000/svg" xmlns:xlink="http://www.w3.org/1999/xlink" x="0px" y="0px"
	 viewBox="0 0 46 46" enable-background="new 0 0 46 46" xml:space="preserve">
<circle opacity="0.5" fill="#001022" cx="23" cy="23" r="23"/>
<g id="g4693_1_" transform="matrix(0.0643595,0,0,0.0643595,4.2636059,3.5399201)">
	<path id="path4695_1_" fill="#FFFFFF" d="M580.1,194.7H239.3l-26.4-57c-3.1-6.6-9.7-10.9-17-10.9
		h-6.6c-7.3,0-14,4.3-17,10.9l-26.1,56.9H1.3v6.2h142.1L44.6,416.6c-2.7,5.8-2.2,12.6,1.3,17.9c1.4,2.2,3.3,4.1,5.4,5.5h-50v6.2
		h578.7V440h-50c1-0.7,2-1.5,2.9-2.4c3.5-3.5,5.5-8.3,5.5-13.3l-0.8-137.6c-0.5-49.3-30.5-81.2-79.2-85.7h121.7V194.7z M189.5,200.9
		h6.6l52.8,114.2H137.7L189.5,200.9z M84.5,432.2l34.2-75.1h149.6l34.6,75.1c1.5,3.2,3.8,5.9,6.7,7.8H77.8
		C80.6,438.1,83,435.4,84.5,432.2z M496.5,424.6c0.1,6.5,3.4,12.1,8.4,15.5h-49.5c15.3-3.3,29.2-9.3,41.1-17.8L496.5,424.6z
		 M496,357.4c-13.1,30.2-35,43.7-70.3,43.7c-20.9,0-43.3-9.2-43.3-35.2c0-25,32.9-28.7,52.5-28.7h61L496,357.4z M355.9,259.6
		l2.7,3.6c3,4,7.5,6.7,12.5,7.3c5,0.7,10-0.7,14-3.7c21.9-16.9,40.8-24.4,61.3-24.4c43.7,0,49.1,25.4,49.3,44.6v8.4H435
		c-69.7,0-94.5,36.5-94.5,70.7c0,36.6,23.9,64.9,59.4,74h-64.4c2.2-1.4,4-3.3,5.5-5.5c3.4-5.4,3.9-12.2,1.2-18l-99.9-215.6h192.3
		c-25.8,2.4-50,13-75.2,32.6C351.3,239.8,349.7,251.4,355.9,259.6z"/>
</g>
</svg>
