<?xml version="1.0" encoding="UTF-8" standalone="no"?>
<!-- Created with Inkscape (http://www.inkscape.org/) -->

<svg
   xmlns:dc="http://purl.org/dc/elements/1.1/"
   xmlns:cc="http://creativecommons.org/ns#"
   xmlns:rdf="http://www.w3.org/1999/02/22-rdf-syntax-ns#"
   xmlns:svg="http://www.w3.org/2000/svg"
   xmlns="http://www.w3.org/2000/svg"
   version="1.1"
   width="48"
   height="48"
   viewBox="0 0 38.400002 38.399998"
   id="svg3013"
   style="fill-rule:evenodd">
  <metadata
     id="metadata3029">
    <rdf:RDF>
      <cc:Work
         rdf:about="">
        <dc:format>image/svg+xml</dc:format>
        <dc:type
           rdf:resource="http://purl.org/dc/dcmitype/StillImage" />
        <dc:title></dc:title>
      </cc:Work>
    </rdf:RDF>
  </metadata>
  <defs
     id="defs3027" />
  <path
     d="m 45.721392,23.074537 a 22.096125,22.096125 0 1 1 -44.1922496,0 22.096125,22.096125 0 1 1 44.1922496,0 z"
     transform="matrix(0.83341912,0,0,0.83341912,-0.48974807,-0.03076136)"
     id="path2983"
     style="fill:none;stroke:#00c7ff;stroke-width:1.88301039;stroke-opacity:1" />
  <g
     transform="matrix(0.04571383,0,0,0.04571383,43.163691,4.246916)"
     id="g3961" />
  <g
     transform="matrix(0.04571383,0,0,0.04571383,43.163691,4.246916)"
     id="g3963" />
  <g
     transform="matrix(0.04571383,0,0,0.04571383,43.163691,4.246916)"
     id="g3965" />
  <g
     transform="matrix(0.04571383,0,0,0.04571383,43.163691,4.246916)"
     id="g3967" />
  <g
     transform="matrix(0.04571383,0,0,0.04571383,43.163691,4.246916)"
     id="g3969" />
  <g
     transform="matrix(0.04571383,0,0,0.04571383,43.163691,4.246916)"
     id="g3971" />
  <g
     transform="matrix(0.04571383,0,0,0.04571383,43.163691,4.246916)"
     id="g3973" />
  <g
     transform="matrix(0.04571383,0,0,0.04571383,43.163691,4.246916)"
     id="g3975" />
  <g
     transform="matrix(0.04571383,0,0,0.04571383,43.163691,4.246916)"
     id="g3977" />
  <g
     transform="matrix(0.04571383,0,0,0.04571383,43.163691,4.246916)"
     id="g3979" />
  <g
     transform="matrix(0.04571383,0,0,0.04571383,43.163691,4.246916)"
     id="g3981" />
  <g
     transform="matrix(0.04571383,0,0,0.04571383,43.163691,4.246916)"
     id="g3983" />
  <g
     transform="matrix(0.04571383,0,0,0.04571383,43.163691,4.246916)"
     id="g3985" />
  <g
     transform="matrix(0.04571383,0,0,0.04571383,43.163691,4.246916)"
     id="g3987" />
  <g
     transform="matrix(0.04571383,0,0,0.04571383,43.163691,4.246916)"
     id="g3989" />
  <g
     transform="matrix(0.06874618,0,0,0.06874618,6.6942401,6.9421096)"
     id="g3807" />
  <g
     transform="matrix(0.06874618,0,0,0.06874618,6.6942401,6.9421096)"
     id="g3809" />
  <g
     transform="matrix(0.06874618,0,0,0.06874618,6.6942401,6.9421096)"
     id="g3811" />
  <g
     transform="matrix(0.06874618,0,0,0.06874618,6.6942401,6.9421096)"
     id="g3813" />
  <g
     transform="matrix(0.06874618,0,0,0.06874618,6.6942401,6.9421096)"
     id="g3815" />
  <g
     transform="matrix(0.06874618,0,0,0.06874618,6.6942401,6.9421096)"
     id="g3817" />
  <g
     transform="matrix(0.06874618,0,0,0.06874618,6.6942401,6.9421096)"
     id="g3819" />
  <g
     transform="matrix(0.06874618,0,0,0.06874618,6.6942401,6.9421096)"
     id="g3821" />
  <g
     transform="matrix(0.06874618,0,0,0.06874618,6.6942401,6.9421096)"
     id="g3823" />
  <g
     transform="matrix(0.06874618,0,0,0.06874618,6.6942401,6.9421096)"
     id="g3825" />
  <g
     transform="matrix(0.06874618,0,0,0.06874618,6.6942401,6.9421096)"
     id="g3827" />
  <g
     transform="matrix(0.06874618,0,0,0.06874618,6.6942401,6.9421096)"
     id="g3829" />
  <g
     transform="matrix(0.06874618,0,0,0.06874618,6.6942401,6.9421096)"
     id="g3831" />
  <g
     transform="matrix(0.06874618,0,0,0.06874618,6.6942401,6.9421096)"
     id="g3833" />
  <g
     transform="matrix(0.06874618,0,0,0.06874618,6.6942401,6.9421096)"
     id="g3835" />
  <g
     transform="matrix(0.80000004,0,0,0.80000004,6.8150226,6.4378103)"
     id="g4379"
     style="fill:#33659a;fill-opacity:1" />
  <g
     transform="matrix(0.80000004,0,0,0.80000004,6.8150226,6.4378103)"
     id="g4381"
     style="fill:#33659a;fill-opacity:1" />
  <g
     transform="matrix(0.80000004,0,0,0.80000004,6.8150226,6.4378103)"
     id="g4383"
     style="fill:#33659a;fill-opacity:1" />
  <g
     transform="matrix(0.80000004,0,0,0.80000004,6.8150226,6.4378103)"
     id="g4385"
     style="fill:#33659a;fill-opacity:1" />
  <g
     transform="matrix(0.80000004,0,0,0.80000004,6.8150226,6.4378103)"
     id="g4387"
     style="fill:#33659a;fill-opacity:1" />
  <g
     transform="matrix(0.80000004,0,0,0.80000004,6.8150226,6.4378103)"
     id="g4389"
     style="fill:#33659a;fill-opacity:1" />
  <g
     transform="matrix(0.80000004,0,0,0.80000004,6.8150226,6.4378103)"
     id="g4391"
     style="fill:#33659a;fill-opacity:1" />
  <g
     transform="matrix(0.80000004,0,0,0.80000004,6.8150226,6.4378103)"
     id="g4393"
     style="fill:#33659a;fill-opacity:1" />
  <g
     transform="matrix(0.80000004,0,0,0.80000004,6.8150226,6.4378103)"
     id="g4395"
     style="fill:#33659a;fill-opacity:1" />
  <g
     transform="matrix(0.80000004,0,0,0.80000004,6.8150226,6.4378103)"
     id="g4397"
     style="fill:#33659a;fill-opacity:1" />
  <g
     transform="matrix(0.80000004,0,0,0.80000004,6.8150226,6.4378103)"
     id="g4399"
     style="fill:#33659a;fill-opacity:1" />
  <g
     transform="matrix(0.80000004,0,0,0.80000004,6.8150226,6.4378103)"
     id="g4401"
     style="fill:#33659a;fill-opacity:1" />
  <g
     transform="matrix(0.80000004,0,0,0.80000004,6.8150226,6.4378103)"
     id="g4403"
     style="fill:#33659a;fill-opacity:1" />
  <g
     transform="matrix(0.80000004,0,0,0.80000004,6.8150226,6.4378103)"
     id="g4405"
     style="fill:#33659a;fill-opacity:1" />
  <g
     transform="matrix(0.80000004,0,0,0.80000004,6.8150226,6.4378103)"
     id="g4407"
     style="fill:#33659a;fill-opacity:1" />
  <g
     transform="matrix(0.08395392,0,0,0.08395392,5.1053608,5.7443854)"
     id="g4546"
     style="fill:#33659a;fill-opacity:1" />
  <g
     transform="matrix(0.08395392,0,0,0.08395392,5.1053608,5.7443854)"
     id="g4548"
     style="fill:#33659a;fill-opacity:1" />
  <g
     transform="matrix(0.08395392,0,0,0.08395392,5.1053608,5.7443854)"
     id="g4550"
     style="fill:#33659a;fill-opacity:1" />
  <g
     transform="matrix(0.08395392,0,0,0.08395392,5.1053608,5.7443854)"
     id="g4552"
     style="fill:#33659a;fill-opacity:1" />
  <g
     transform="matrix(0.08395392,0,0,0.08395392,5.1053608,5.7443854)"
     id="g4554"
     style="fill:#33659a;fill-opacity:1" />
  <g
     transform="matrix(0.08395392,0,0,0.08395392,5.1053608,5.7443854)"
     id="g4556"
     style="fill:#33659a;fill-opacity:1" />
  <g
     transform="matrix(0.08395392,0,0,0.08395392,5.1053608,5.7443854)"
     id="g4558"
     style="fill:#33659a;fill-opacity:1" />
  <g
     transform="matrix(0.08395392,0,0,0.08395392,5.1053608,5.7443854)"
     id="g4560"
     style="fill:#33659a;fill-opacity:1" />
  <g
     transform="matrix(0.08395392,0,0,0.08395392,5.1053608,5.7443854)"
     id="g4562"
     style="fill:#33659a;fill-opacity:1" />
  <g
     transform="matrix(0.08395392,0,0,0.08395392,5.1053608,5.7443854)"
     id="g4564"
     style="fill:#33659a;fill-opacity:1" />
  <g
     transform="matrix(0.08395392,0,0,0.08395392,5.1053608,5.7443854)"
     id="g4566"
     style="fill:#33659a;fill-opacity:1" />
  <g
     transform="matrix(0.08395392,0,0,0.08395392,5.1053608,5.7443854)"
     id="g4568"
     style="fill:#33659a;fill-opacity:1" />
  <g
     transform="matrix(0.08395392,0,0,0.08395392,5.1053608,5.7443854)"
     id="g4570"
     style="fill:#33659a;fill-opacity:1" />
  <g
     transform="matrix(0.08395392,0,0,0.08395392,5.1053608,5.7443854)"
     id="g4572"
     style="fill:#33659a;fill-opacity:1" />
  <g
     transform="matrix(0.08395392,0,0,0.08395392,5.1053608,5.7443854)"
     id="g4574"
     style="fill:#33659a;fill-opacity:1" />
  <g
     transform="matrix(0.52586763,0,0,0.52586763,6.5791087,6.4193423)"
     id="g3916"
     style="fill:#33659a;fill-opacity:1">
    <g
       id="g3874"
       style="fill:#33659a;fill-opacity:1">
      <g
         id="g3876"
         style="fill:#33659a;fill-opacity:1">
        <path
           d="M 42.504,39.673 29.88,16.027 V 4.021 h 1.249 c 0.553,0 1,-0.447 1,-1 V 1 c 0,-0.552 -0.447,-1 -1,-1 H 29.88 17.042 15.898 c -0.553,0 -1,0.448 -1,1 v 2.021 c 0,0.553 0.447,1 1,1 h 1.144 V 16.028 L 5.421,39.57 C 2.451,44.226 4.519,48 10.042,48 h 27.999 c 5.522,0 7.52,-3.729 4.463,-8.327 z M 20.628,17.798 21.041,16.961 V 16.028 4.021 h 4.839 v 12.007 1.001 l 0.471,0.883 5.41,10.132 h -16.19 l 5.057,-10.246 z"
           id="path3878"
           style="fill:#33659a;fill-opacity:1" />
      </g>
    </g>
    <g
       id="g3880"
       style="fill:#33659a;fill-opacity:1" />
    <g
       id="g3882"
       style="fill:#33659a;fill-opacity:1" />
    <g
       id="g3884"
       style="fill:#33659a;fill-opacity:1" />
    <g
       id="g3886"
       style="fill:#33659a;fill-opacity:1" />
    <g
       id="g3888"
       style="fill:#33659a;fill-opacity:1" />
    <g
       id="g3890"
       style="fill:#33659a;fill-opacity:1" />
    <g
       id="g3892"
       style="fill:#33659a;fill-opacity:1" />
    <g
       id="g3894"
       style="fill:#33659a;fill-opacity:1" />
    <g
       id="g3896"
       style="fill:#33659a;fill-opacity:1" />
    <g
       id="g3898"
       style="fill:#33659a;fill-opacity:1" />
    <g
       id="g3900"
       style="fill:#33659a;fill-opacity:1" />
    <g
       id="g3902"
       style="fill:#33659a;fill-opacity:1" />
    <g
       id="g3904"
       style="fill:#33659a;fill-opacity:1" />
    <g
       id="g3906"
       style="fill:#33659a;fill-opacity:1" />
    <g
       id="g3908"
       style="fill:#33659a;fill-opacity:1" />
  </g>
</svg>
