<?xml version="1.0" encoding="UTF-8" standalone="no"?>
<!-- Created with Inkscape (http://www.inkscape.org/) -->

<svg
   xmlns:dc="http://purl.org/dc/elements/1.1/"
   xmlns:cc="http://creativecommons.org/ns#"
   xmlns:rdf="http://www.w3.org/1999/02/22-rdf-syntax-ns#"
   xmlns:svg="http://www.w3.org/2000/svg"
   xmlns="http://www.w3.org/2000/svg"
   version="1.1"
   width="100%"
   height="100%"
   viewBox="0 0 46 46"
   id="Layer_1"
   xml:space="preserve"><metadata
   id="metadata4205"><rdf:RDF><cc:Work
       rdf:about=""><dc:format>image/svg+xml</dc:format><dc:type
         rdf:resource="http://purl.org/dc/dcmitype/StillImage" /><dc:title></dc:title></cc:Work></rdf:RDF></metadata><defs
   id="defs4203" />
<circle
   cx="23"
   cy="23"
   r="23"
   id="circle4197"
   style="opacity:0.5;fill:#001022" />

<g
   id="g6429"
   style="fill:#ffffff"><g
     id="g6424"
     style="fill:#ffffff"><g
       id="g6420"
       style="fill:#ffffff"><path
         d="m 37.705462,33.750682 -1.859807,-7.439025 c -0.02892,-0.11603 -0.07438,-0.224369 -0.132022,-0.323999 0.106298,-0.294939 0.164688,-0.612744 0.164688,-0.943752 V 12.781182 c 0,-1.537714 -1.250943,-2.7887243 -2.788725,-2.7887243 H 12.484381 c -1.537919,0 -2.7888606,1.2510103 -2.7888606,2.7887243 v 12.262589 c 0,0.331074 0.058321,0.64888 0.1648913,0.94382 -0.057776,0.0997 -0.1034395,0.2079 -0.1323621,0.32393 l -1.8748471,7.499116 c -0.0933,0.373336 -0.0094,0.768994 0.2274995,1.072235 0.2368228,0.303446 0.6002233,0.480723 0.9851965,0.480723 H 36.50801 c 4.08e-4,0 8.86e-4,0 0.0012,0 0.690461,0 1.249921,-0.559731 1.249921,-1.24992 -6.9e-5,-0.126175 -0.01878,-0.248052 -0.05363,-0.362993 z M 25.954425,33.409535 c -2.72e-4,0 -6.13e-4,1.35e-4 -0.0011,0 H 19.62029 c -0.07309,0 -0.142503,-0.03252 -0.189254,-0.0886 -0.04689,-0.056 -0.06656,-0.129913 -0.05356,-0.202049 l 0.493521,-2.738843 c 0.02117,-0.117527 0.123451,-0.202795 0.242811,-0.202795 h 5.346138 c 0.11936,0 0.221648,0.08547 0.242675,0.202795 l 0.489435,2.716998 c 0.0058,0.02096 0.0089,0.04294 0.0089,0.06581 2.04e-4,0.13631 -0.110312,0.246691 -0.246554,0.246691 z m 7.488023,-8.365629 c 0,0.142503 -0.08507,0.265201 -0.206879,0.321004 H 12.338136 c -0.121954,-0.0556 -0.207084,-0.178501 -0.207084,-0.321004 V 12.781182 c 0,-0.194698 0.158495,-0.353056 0.353261,-0.353056 h 20.605146 c 0.194563,0 0.353057,0.158289 0.353057,0.353056 l -6.8e-5,12.262724 0,0 z"
         id="path3910"
         style="fill:#ffffff;fill-opacity:1;fill-rule:evenodd" /><path
         d="m 22.853271,14.59519 c -1.182889,0 -2.262678,0.444111 -3.04045,1.25067 -0.771308,0.79948 -1.195887,1.906287 -1.195887,3.116193 0,1.21358 0.424307,2.323858 1.195002,3.126128 0.777841,0.80969 1.85797,1.255569 3.041335,1.255569 1.28524,0 2.441453,-0.46582 3.256109,-1.311236 0.262275,-0.272482 0.258192,-0.704751 -0.0096,-0.972402 l -0.09371,-0.0937 c -0.13243,-0.132363 -0.31277,-0.204634 -0.500458,-0.203001 -0.187553,0.0028 -0.365714,0.08099 -0.494674,0.217495 -0.510734,0.540474 -1.277141,0.838271 -2.157809,0.838271 -0.769538,0 -1.460339,-0.276769 -1.945486,-0.779745 -0.367347,-0.380958 -0.612064,-0.886452 -0.713462,-1.460611 h 6.069673 c 0.185918,0 0.36408,-0.07459 0.494537,-0.20688 0.130457,-0.132566 0.202456,-0.31168 0.199598,-0.497804 -0.01859,-1.200923 -0.431997,-2.28779 -1.163766,-3.059913 -0.744767,-0.786211 -1.789238,-1.219026 -2.941027,-1.219026 z m -2.587357,3.459382 c 0.133724,-0.481676 0.376875,-0.897885 0.718839,-1.224878 0.485827,-0.464729 1.131918,-0.710195 1.868518,-0.710195 1.265437,0 2.171965,0.725508 2.478949,1.935073 h -5.066306 z"
         id="path3916"
         style="fill:#ffffff;fill-opacity:1;fill-rule:evenodd" /></g></g></g></svg>