<?xml version="1.0" encoding="utf-8"?>
<!-- Generator: Adobe Illustrator 18.1.1, SVG Export Plug-In . SVG Version: 6.00 Build 0)  -->
<svg version="1.1" id="Layer_1" xmlns="http://www.w3.org/2000/svg" xmlns:xlink="http://www.w3.org/1999/xlink" x="0px" y="0px"
	 viewBox="0 0 46 46" enable-background="new 0 0 46 46" xml:space="preserve">
<circle opacity="0.5" fill="#001022" cx="23" cy="22.9" r="23"/>
<g id="g6832_1_" transform="matrix(1.1084823,0,0,1.1084823,7.8288503,6.2797558)">
	<g id="g6834_1_">
		<rect id="rect6836_1_" x="5" y="11.3" fill="#FFFFFF" width="14.7" height="1.5"/>
		<rect id="rect6838_1_" x="5" y="7.7" fill="#FFFFFF" width="14.7" height="1.5"/>
		<path id="path6840_1_" fill="#FFFFFF" d="M29.7,7.8l-2.4-2.1c-0.3-0.3-0.8-0.3-1.1,0l-1.5,1.8
			l3.7,3.2l1.5-1.8C30.1,8.6,30,8.1,29.7,7.8z"/>
		<path id="path6842_1_" fill="#FFFFFF" d="M24.3,7.9l-0.5,0.6V2.8H0.9v24.5h22.9V15.9l4.1-4.8
			L24.3,7.9z M22,25.5H2.7V5.2H22v5.4l-4.3,4.9H5V17h11.5l-0.2,0.2l3.6,3.2l2.1-2.4L22,25.5L22,25.5z"/>
		<polygon id="polygon6844_1_" fill="#FFFFFF" points="15.9,17.6 14.8,22.3 15,22.5 19.6,20.8 		"/>
		
			<circle id="circle6846_1_" fill="#FFFFFF" cx="8" cy="21.7" r="2.3">
		</circle>
	</g>
</g>
</svg>
