<?xml version="1.0" encoding="UTF-8" standalone="no"?>
<!-- Created with Inkscape (http://www.inkscape.org/) -->

<svg
   xmlns:dc="http://purl.org/dc/elements/1.1/"
   xmlns:cc="http://creativecommons.org/ns#"
   xmlns:rdf="http://www.w3.org/1999/02/22-rdf-syntax-ns#"
   xmlns:svg="http://www.w3.org/2000/svg"
   xmlns="http://www.w3.org/2000/svg"
   xmlns:sodipodi="http://sodipodi.sourceforge.net/DTD/sodipodi-0.dtd"
   xmlns:inkscape="http://www.inkscape.org/namespaces/inkscape"
   version="1.1"
   width="48"
   height="48"
   viewBox="0 0 38.400002 38.399998"
   id="svg3013"
   style="fill-rule:evenodd"
   inkscape:version="0.48.5 r10040"
   sodipodi:docname="lektury-szkolne.svg">
  <sodipodi:namedview
     pagecolor="#ffffff"
     bordercolor="#666666"
     borderopacity="1"
     objecttolerance="10"
     gridtolerance="10"
     guidetolerance="10"
     inkscape:pageopacity="0"
     inkscape:pageshadow="2"
     inkscape:window-width="1600"
     inkscape:window-height="848"
     id="namedview6"
     showgrid="false"
     inkscape:zoom="7.7899597"
     inkscape:cx="39.511257"
     inkscape:cy="24.012232"
     inkscape:window-x="-8"
     inkscape:window-y="588"
     inkscape:window-maximized="1"
     inkscape:current-layer="svg3013"
     fit-margin-top="0"
     fit-margin-left="0"
     fit-margin-right="0"
     fit-margin-bottom="0" />
  <metadata
     id="metadata3029">
    <rdf:RDF>
      <cc:Work
         rdf:about="">
        <dc:format>image/svg+xml</dc:format>
        <dc:type
           rdf:resource="http://purl.org/dc/dcmitype/StillImage" />
        <dc:title></dc:title>
      </cc:Work>
    </rdf:RDF>
  </metadata>
  <defs
     id="defs3027" />
  <path
     sodipodi:type="arc"
     style="fill:none;stroke:#00c7ff;stroke-width:1.88301038999999990;stroke-opacity:1"
     id="path2983"
     sodipodi:cx="23.625267"
     sodipodi:cy="23.074537"
     sodipodi:rx="22.096125"
     sodipodi:ry="22.096125"
     d="m 45.721392,23.074537 a 22.096125,22.096125 0 1 1 -44.1922496,0 22.096125,22.096125 0 1 1 44.1922496,0 z"
     transform="matrix(0.83341912,0,0,0.83341912,-0.48974807,-0.03076136)" />
  <g
     transform="matrix(0.04571383,0,0,0.04571383,43.163691,4.246916)"
     id="g3961" />
  <g
     transform="matrix(0.04571383,0,0,0.04571383,43.163691,4.246916)"
     id="g3963" />
  <g
     transform="matrix(0.04571383,0,0,0.04571383,43.163691,4.246916)"
     id="g3965" />
  <g
     transform="matrix(0.04571383,0,0,0.04571383,43.163691,4.246916)"
     id="g3967" />
  <g
     transform="matrix(0.04571383,0,0,0.04571383,43.163691,4.246916)"
     id="g3969" />
  <g
     transform="matrix(0.04571383,0,0,0.04571383,43.163691,4.246916)"
     id="g3971" />
  <g
     transform="matrix(0.04571383,0,0,0.04571383,43.163691,4.246916)"
     id="g3973" />
  <g
     transform="matrix(0.04571383,0,0,0.04571383,43.163691,4.246916)"
     id="g3975" />
  <g
     transform="matrix(0.04571383,0,0,0.04571383,43.163691,4.246916)"
     id="g3977" />
  <g
     transform="matrix(0.04571383,0,0,0.04571383,43.163691,4.246916)"
     id="g3979" />
  <g
     transform="matrix(0.04571383,0,0,0.04571383,43.163691,4.246916)"
     id="g3981" />
  <g
     transform="matrix(0.04571383,0,0,0.04571383,43.163691,4.246916)"
     id="g3983" />
  <g
     transform="matrix(0.04571383,0,0,0.04571383,43.163691,4.246916)"
     id="g3985" />
  <g
     transform="matrix(0.04571383,0,0,0.04571383,43.163691,4.246916)"
     id="g3987" />
  <g
     transform="matrix(0.04571383,0,0,0.04571383,43.163691,4.246916)"
     id="g3989" />
  <g
     transform="matrix(0.06874618,0,0,0.06874618,6.6942401,6.9421096)"
     id="g3807" />
  <g
     transform="matrix(0.06874618,0,0,0.06874618,6.6942401,6.9421096)"
     id="g3809" />
  <g
     transform="matrix(0.06874618,0,0,0.06874618,6.6942401,6.9421096)"
     id="g3811" />
  <g
     transform="matrix(0.06874618,0,0,0.06874618,6.6942401,6.9421096)"
     id="g3813" />
  <g
     transform="matrix(0.06874618,0,0,0.06874618,6.6942401,6.9421096)"
     id="g3815" />
  <g
     transform="matrix(0.06874618,0,0,0.06874618,6.6942401,6.9421096)"
     id="g3817" />
  <g
     transform="matrix(0.06874618,0,0,0.06874618,6.6942401,6.9421096)"
     id="g3819" />
  <g
     transform="matrix(0.06874618,0,0,0.06874618,6.6942401,6.9421096)"
     id="g3821" />
  <g
     transform="matrix(0.06874618,0,0,0.06874618,6.6942401,6.9421096)"
     id="g3823" />
  <g
     transform="matrix(0.06874618,0,0,0.06874618,6.6942401,6.9421096)"
     id="g3825" />
  <g
     transform="matrix(0.06874618,0,0,0.06874618,6.6942401,6.9421096)"
     id="g3827" />
  <g
     transform="matrix(0.06874618,0,0,0.06874618,6.6942401,6.9421096)"
     id="g3829" />
  <g
     transform="matrix(0.06874618,0,0,0.06874618,6.6942401,6.9421096)"
     id="g3831" />
  <g
     transform="matrix(0.06874618,0,0,0.06874618,6.6942401,6.9421096)"
     id="g3833" />
  <g
     transform="matrix(0.06874618,0,0,0.06874618,6.6942401,6.9421096)"
     id="g3835" />
  <g
     transform="matrix(0.80000004,0,0,0.80000004,6.8150226,6.4378103)"
     id="g4379"
     style="fill:#33659a;fill-opacity:1" />
  <g
     transform="matrix(0.80000004,0,0,0.80000004,6.8150226,6.4378103)"
     id="g4381"
     style="fill:#33659a;fill-opacity:1" />
  <g
     transform="matrix(0.80000004,0,0,0.80000004,6.8150226,6.4378103)"
     id="g4383"
     style="fill:#33659a;fill-opacity:1" />
  <g
     transform="matrix(0.80000004,0,0,0.80000004,6.8150226,6.4378103)"
     id="g4385"
     style="fill:#33659a;fill-opacity:1" />
  <g
     transform="matrix(0.80000004,0,0,0.80000004,6.8150226,6.4378103)"
     id="g4387"
     style="fill:#33659a;fill-opacity:1" />
  <g
     transform="matrix(0.80000004,0,0,0.80000004,6.8150226,6.4378103)"
     id="g4389"
     style="fill:#33659a;fill-opacity:1" />
  <g
     transform="matrix(0.80000004,0,0,0.80000004,6.8150226,6.4378103)"
     id="g4391"
     style="fill:#33659a;fill-opacity:1" />
  <g
     transform="matrix(0.80000004,0,0,0.80000004,6.8150226,6.4378103)"
     id="g4393"
     style="fill:#33659a;fill-opacity:1" />
  <g
     transform="matrix(0.80000004,0,0,0.80000004,6.8150226,6.4378103)"
     id="g4395"
     style="fill:#33659a;fill-opacity:1" />
  <g
     transform="matrix(0.80000004,0,0,0.80000004,6.8150226,6.4378103)"
     id="g4397"
     style="fill:#33659a;fill-opacity:1" />
  <g
     transform="matrix(0.80000004,0,0,0.80000004,6.8150226,6.4378103)"
     id="g4399"
     style="fill:#33659a;fill-opacity:1" />
  <g
     transform="matrix(0.80000004,0,0,0.80000004,6.8150226,6.4378103)"
     id="g4401"
     style="fill:#33659a;fill-opacity:1" />
  <g
     transform="matrix(0.80000004,0,0,0.80000004,6.8150226,6.4378103)"
     id="g4403"
     style="fill:#33659a;fill-opacity:1" />
  <g
     transform="matrix(0.80000004,0,0,0.80000004,6.8150226,6.4378103)"
     id="g4405"
     style="fill:#33659a;fill-opacity:1" />
  <g
     transform="matrix(0.80000004,0,0,0.80000004,6.8150226,6.4378103)"
     id="g4407"
     style="fill:#33659a;fill-opacity:1" />
  <g
     transform="matrix(0.08395392,0,0,0.08395392,5.1053608,5.7443854)"
     id="g4546"
     style="fill:#33659a;fill-opacity:1" />
  <g
     transform="matrix(0.08395392,0,0,0.08395392,5.1053608,5.7443854)"
     id="g4548"
     style="fill:#33659a;fill-opacity:1" />
  <g
     transform="matrix(0.08395392,0,0,0.08395392,5.1053608,5.7443854)"
     id="g4550"
     style="fill:#33659a;fill-opacity:1" />
  <g
     transform="matrix(0.08395392,0,0,0.08395392,5.1053608,5.7443854)"
     id="g4552"
     style="fill:#33659a;fill-opacity:1" />
  <g
     transform="matrix(0.08395392,0,0,0.08395392,5.1053608,5.7443854)"
     id="g4554"
     style="fill:#33659a;fill-opacity:1" />
  <g
     transform="matrix(0.08395392,0,0,0.08395392,5.1053608,5.7443854)"
     id="g4556"
     style="fill:#33659a;fill-opacity:1" />
  <g
     transform="matrix(0.08395392,0,0,0.08395392,5.1053608,5.7443854)"
     id="g4558"
     style="fill:#33659a;fill-opacity:1" />
  <g
     transform="matrix(0.08395392,0,0,0.08395392,5.1053608,5.7443854)"
     id="g4560"
     style="fill:#33659a;fill-opacity:1" />
  <g
     transform="matrix(0.08395392,0,0,0.08395392,5.1053608,5.7443854)"
     id="g4562"
     style="fill:#33659a;fill-opacity:1" />
  <g
     transform="matrix(0.08395392,0,0,0.08395392,5.1053608,5.7443854)"
     id="g4564"
     style="fill:#33659a;fill-opacity:1" />
  <g
     transform="matrix(0.08395392,0,0,0.08395392,5.1053608,5.7443854)"
     id="g4566"
     style="fill:#33659a;fill-opacity:1" />
  <g
     transform="matrix(0.08395392,0,0,0.08395392,5.1053608,5.7443854)"
     id="g4568"
     style="fill:#33659a;fill-opacity:1" />
  <g
     transform="matrix(0.08395392,0,0,0.08395392,5.1053608,5.7443854)"
     id="g4570"
     style="fill:#33659a;fill-opacity:1" />
  <g
     transform="matrix(0.08395392,0,0,0.08395392,5.1053608,5.7443854)"
     id="g4572"
     style="fill:#33659a;fill-opacity:1" />
  <g
     transform="matrix(0.08395392,0,0,0.08395392,5.1053608,5.7443854)"
     id="g4574"
     style="fill:#33659a;fill-opacity:1" />
  <g
     transform="matrix(0.06391589,0,0,0.06391589,4.3663022,4.2587944)"
     id="g4697"
     style="fill:#33659a;fill-opacity:1" />
  <g
     transform="matrix(0.06391589,0,0,0.06391589,4.3663022,4.2587944)"
     id="g4699"
     style="fill:#33659a;fill-opacity:1" />
  <g
     transform="matrix(0.06391589,0,0,0.06391589,4.3663022,4.2587944)"
     id="g4701"
     style="fill:#33659a;fill-opacity:1" />
  <g
     transform="matrix(0.06391589,0,0,0.06391589,4.3663022,4.2587944)"
     id="g4703"
     style="fill:#33659a;fill-opacity:1" />
  <g
     transform="matrix(0.06391589,0,0,0.06391589,4.3663022,4.2587944)"
     id="g4705"
     style="fill:#33659a;fill-opacity:1" />
  <g
     transform="matrix(0.06391589,0,0,0.06391589,4.3663022,4.2587944)"
     id="g4707"
     style="fill:#33659a;fill-opacity:1" />
  <g
     transform="matrix(0.06391589,0,0,0.06391589,4.3663022,4.2587944)"
     id="g4709"
     style="fill:#33659a;fill-opacity:1" />
  <g
     transform="matrix(0.06391589,0,0,0.06391589,4.3663022,4.2587944)"
     id="g4711"
     style="fill:#33659a;fill-opacity:1" />
  <g
     transform="matrix(0.06391589,0,0,0.06391589,4.3663022,4.2587944)"
     id="g4713"
     style="fill:#33659a;fill-opacity:1" />
  <g
     transform="matrix(0.06391589,0,0,0.06391589,4.3663022,4.2587944)"
     id="g4715"
     style="fill:#33659a;fill-opacity:1" />
  <g
     transform="matrix(0.06391589,0,0,0.06391589,4.3663022,4.2587944)"
     id="g4717"
     style="fill:#33659a;fill-opacity:1" />
  <g
     transform="matrix(0.06391589,0,0,0.06391589,4.3663022,4.2587944)"
     id="g4719"
     style="fill:#33659a;fill-opacity:1" />
  <g
     transform="matrix(0.06391589,0,0,0.06391589,4.3663022,4.2587944)"
     id="g4721"
     style="fill:#33659a;fill-opacity:1" />
  <g
     transform="matrix(0.06391589,0,0,0.06391589,4.3663022,4.2587944)"
     id="g4723"
     style="fill:#33659a;fill-opacity:1" />
  <g
     transform="matrix(0.06391589,0,0,0.06391589,4.3663022,4.2587944)"
     id="g4725"
     style="fill:#33659a;fill-opacity:1" />
  <g
     transform="matrix(0.80000004,0,0,0.80000004,6.6979261,6.8956035)"
     id="g4908"
     style="fill:#33659a;fill-opacity:1" />
  <g
     transform="matrix(0.80000004,0,0,0.80000004,6.6979261,6.8956035)"
     id="g4910"
     style="fill:#33659a;fill-opacity:1" />
  <g
     transform="matrix(0.80000004,0,0,0.80000004,6.6979261,6.8956035)"
     id="g4912"
     style="fill:#33659a;fill-opacity:1" />
  <g
     transform="matrix(0.80000004,0,0,0.80000004,6.6979261,6.8956035)"
     id="g4914"
     style="fill:#33659a;fill-opacity:1" />
  <g
     transform="matrix(0.80000004,0,0,0.80000004,6.6979261,6.8956035)"
     id="g4916"
     style="fill:#33659a;fill-opacity:1" />
  <g
     transform="matrix(0.80000004,0,0,0.80000004,6.6979261,6.8956035)"
     id="g4918"
     style="fill:#33659a;fill-opacity:1" />
  <g
     transform="matrix(0.80000004,0,0,0.80000004,6.6979261,6.8956035)"
     id="g4920"
     style="fill:#33659a;fill-opacity:1" />
  <g
     transform="matrix(0.80000004,0,0,0.80000004,6.6979261,6.8956035)"
     id="g4922"
     style="fill:#33659a;fill-opacity:1" />
  <g
     transform="matrix(0.80000004,0,0,0.80000004,6.6979261,6.8956035)"
     id="g4924"
     style="fill:#33659a;fill-opacity:1" />
  <g
     transform="matrix(0.80000004,0,0,0.80000004,6.6979261,6.8956035)"
     id="g4926"
     style="fill:#33659a;fill-opacity:1" />
  <g
     transform="matrix(0.80000004,0,0,0.80000004,6.6979261,6.8956035)"
     id="g4928"
     style="fill:#33659a;fill-opacity:1" />
  <g
     transform="matrix(0.80000004,0,0,0.80000004,6.6979261,6.8956035)"
     id="g4930"
     style="fill:#33659a;fill-opacity:1" />
  <g
     transform="matrix(0.80000004,0,0,0.80000004,6.6979261,6.8956035)"
     id="g4932"
     style="fill:#33659a;fill-opacity:1" />
  <g
     transform="matrix(0.80000004,0,0,0.80000004,6.6979261,6.8956035)"
     id="g4934"
     style="fill:#33659a;fill-opacity:1" />
  <g
     transform="matrix(0.80000004,0,0,0.80000004,6.6979261,6.8956035)"
     id="g4936"
     style="fill:#33659a;fill-opacity:1" />
  <g
     transform="matrix(0.80000004,0,0,0.80000004,20.401808,12.383081)"
     id="g5796"
     style="fill:#33659a;fill-opacity:1" />
  <g
     transform="matrix(0.80000004,0,0,0.80000004,20.401808,12.383081)"
     id="g5798"
     style="fill:#33659a;fill-opacity:1" />
  <g
     transform="matrix(0.80000004,0,0,0.80000004,20.401808,12.383081)"
     id="g5800"
     style="fill:#33659a;fill-opacity:1" />
  <g
     transform="matrix(0.80000004,0,0,0.80000004,20.401808,12.383081)"
     id="g5802"
     style="fill:#33659a;fill-opacity:1" />
  <g
     transform="matrix(0.80000004,0,0,0.80000004,20.401808,12.383081)"
     id="g5804"
     style="fill:#33659a;fill-opacity:1" />
  <g
     transform="matrix(0.80000004,0,0,0.80000004,20.401808,12.383081)"
     id="g5806"
     style="fill:#33659a;fill-opacity:1" />
  <g
     transform="matrix(0.80000004,0,0,0.80000004,20.401808,12.383081)"
     id="g5808"
     style="fill:#33659a;fill-opacity:1" />
  <g
     transform="matrix(0.80000004,0,0,0.80000004,20.401808,12.383081)"
     id="g5810"
     style="fill:#33659a;fill-opacity:1" />
  <g
     transform="matrix(0.80000004,0,0,0.80000004,20.401808,12.383081)"
     id="g5812"
     style="fill:#33659a;fill-opacity:1" />
  <g
     transform="matrix(0.80000004,0,0,0.80000004,20.401808,12.383081)"
     id="g5814"
     style="fill:#33659a;fill-opacity:1" />
  <g
     transform="matrix(0.80000004,0,0,0.80000004,20.401808,12.383081)"
     id="g5816"
     style="fill:#33659a;fill-opacity:1" />
  <g
     transform="matrix(0.80000004,0,0,0.80000004,20.401808,12.383081)"
     id="g5818"
     style="fill:#33659a;fill-opacity:1" />
  <g
     transform="matrix(0.80000004,0,0,0.80000004,20.401808,12.383081)"
     id="g5820"
     style="fill:#33659a;fill-opacity:1" />
  <g
     transform="matrix(0.80000004,0,0,0.80000004,20.401808,12.383081)"
     id="g5822"
     style="fill:#33659a;fill-opacity:1" />
  <g
     transform="matrix(0.80000004,0,0,0.80000004,20.401808,12.383081)"
     id="g5824"
     style="fill:#33659a;fill-opacity:1" />
  <g
     transform="matrix(0.09062452,0,0,0.09062452,4.8183904,4.9395825)"
     id="g6233" />
  <g
     transform="matrix(0.09062452,0,0,0.09062452,4.8183904,4.9395825)"
     id="g6235" />
  <g
     transform="matrix(0.09062452,0,0,0.09062452,4.8183904,4.9395825)"
     id="g6237" />
  <g
     transform="matrix(0.09062452,0,0,0.09062452,4.8183904,4.9395825)"
     id="g6239" />
  <g
     transform="matrix(0.09062452,0,0,0.09062452,4.8183904,4.9395825)"
     id="g6241" />
  <g
     transform="matrix(0.09062452,0,0,0.09062452,4.8183904,4.9395825)"
     id="g6243" />
  <g
     transform="matrix(0.09062452,0,0,0.09062452,4.8183904,4.9395825)"
     id="g6245" />
  <g
     transform="matrix(0.09062452,0,0,0.09062452,4.8183904,4.9395825)"
     id="g6247" />
  <g
     transform="matrix(0.09062452,0,0,0.09062452,4.8183904,4.9395825)"
     id="g6249" />
  <g
     transform="matrix(0.09062452,0,0,0.09062452,4.8183904,4.9395825)"
     id="g6251" />
  <g
     transform="matrix(0.09062452,0,0,0.09062452,4.8183904,4.9395825)"
     id="g6253" />
  <g
     transform="matrix(0.09062452,0,0,0.09062452,4.8183904,4.9395825)"
     id="g6255" />
  <g
     transform="matrix(0.09062452,0,0,0.09062452,4.8183904,4.9395825)"
     id="g6257" />
  <g
     transform="matrix(0.09062452,0,0,0.09062452,4.8183904,4.9395825)"
     id="g6259" />
  <g
     transform="matrix(0.09062452,0,0,0.09062452,4.8183904,4.9395825)"
     id="g6261" />
  <g
     transform="matrix(0.0567675,0,0,0.0567675,5.9286505,4.1622967)"
     id="g6631" />
  <g
     transform="matrix(0.0567675,0,0,0.0567675,5.9286505,4.1622967)"
     id="g6633" />
  <g
     transform="matrix(0.0567675,0,0,0.0567675,5.9286505,4.1622967)"
     id="g6635" />
  <g
     transform="matrix(0.0567675,0,0,0.0567675,5.9286505,4.1622967)"
     id="g6637" />
  <g
     transform="matrix(0.0567675,0,0,0.0567675,5.9286505,4.1622967)"
     id="g6639" />
  <g
     transform="matrix(0.0567675,0,0,0.0567675,5.9286505,4.1622967)"
     id="g6641" />
  <g
     transform="matrix(0.0567675,0,0,0.0567675,5.9286505,4.1622967)"
     id="g6643" />
  <g
     transform="matrix(0.0567675,0,0,0.0567675,5.9286505,4.1622967)"
     id="g6645" />
  <g
     transform="matrix(0.0567675,0,0,0.0567675,5.9286505,4.1622967)"
     id="g6647" />
  <g
     transform="matrix(0.0567675,0,0,0.0567675,5.9286505,4.1622967)"
     id="g6649" />
  <g
     transform="matrix(0.0567675,0,0,0.0567675,5.9286505,4.1622967)"
     id="g6651" />
  <g
     transform="matrix(0.0567675,0,0,0.0567675,5.9286505,4.1622967)"
     id="g6653" />
  <g
     transform="matrix(0.0567675,0,0,0.0567675,5.9286505,4.1622967)"
     id="g6655" />
  <g
     transform="matrix(0.0567675,0,0,0.0567675,5.9286505,4.1622967)"
     id="g6657" />
  <g
     transform="matrix(0.0567675,0,0,0.0567675,5.9286505,4.1622967)"
     id="g6659" />
  <g
     transform="matrix(1.1084823,0,0,1.1084823,7.8288503,6.2797558)"
     id="g6832"
     style="fill:#33659a;fill-opacity:1">
    <g
       id="g6834"
       style="fill:#33659a;fill-opacity:1">
      <rect
         x="3.306"
         y="8.6719999"
         style="fill:#33659a;fill-opacity:1"
         width="11.777"
         height="1.179"
         id="rect6836" />
      <rect
         x="3.306"
         y="5.7820001"
         style="fill:#33659a;fill-opacity:1"
         width="11.777"
         height="1.1799999"
         id="rect6838" />
      <path
         inkscape:connector-curvature="0"
         style="fill:#33659a;fill-opacity:1"
         d="M 23.054,5.909 21.106,4.224 C 20.839,3.992 20.46,3.987 20.265,4.21 L 19.045,5.617 21.97,8.15 23.19,6.742 C 23.385,6.52 23.322,6.139 23.054,5.909 z"
         id="path6840" />
      <path
         inkscape:connector-curvature="0"
         style="fill:#33659a;fill-opacity:1"
         d="M 18.725,5.986 18.33,6.443 V 1.85 H 0 V 21.454 H 18.33 V 12.349 L 21.646,8.522 18.725,5.986 z M 16.913,20.062 H 1.418 V 3.764 h 15.495 v 4.314 l -3.417,3.945 H 3.306 v 1.179 h 9.169 l -0.128,0.148 2.918,2.534 1.647,-1.901 0.001,6.079 0,0 z"
         id="path6842" />
      <polygon
         style="fill:#33659a;fill-opacity:1"
         points="12.015,13.731 11.108,17.477 11.256,17.608 14.937,16.266 "
         id="polygon6844" />
      <circle
         d="m 7.5860002,17.006001 c 0,1.033324 -0.8376753,1.871 -1.871,1.871 -1.0333248,0 -1.8710001,-0.837676 -1.8710001,-1.871 0,-1.033325 0.8376753,-1.871001 1.8710001,-1.871001 1.0333247,0 1.871,0.837676 1.871,1.871001 z"
         sodipodi:ry="1.8710001"
         sodipodi:rx="1.8710001"
         sodipodi:cy="17.006001"
         sodipodi:cx="5.7150002"
         style="fill:#33659a;fill-opacity:1"
         cx="5.7150002"
         cy="17.006001"
         r="1.8710001"
         id="circle6846" />
    </g>
  </g>
  <g
     transform="matrix(1.1084823,0,0,1.1084823,7.9315466,6.690541)"
     id="g6848"
     style="fill:#33659a;fill-opacity:1" />
  <g
     transform="matrix(1.1084823,0,0,1.1084823,7.9315466,6.690541)"
     id="g6850"
     style="fill:#33659a;fill-opacity:1" />
  <g
     transform="matrix(1.1084823,0,0,1.1084823,7.9315466,6.690541)"
     id="g6852"
     style="fill:#33659a;fill-opacity:1" />
  <g
     transform="matrix(1.1084823,0,0,1.1084823,7.9315466,6.690541)"
     id="g6854"
     style="fill:#33659a;fill-opacity:1" />
  <g
     transform="matrix(1.1084823,0,0,1.1084823,7.9315466,6.690541)"
     id="g6856"
     style="fill:#33659a;fill-opacity:1" />
  <g
     transform="matrix(1.1084823,0,0,1.1084823,7.9315466,6.690541)"
     id="g6858"
     style="fill:#33659a;fill-opacity:1" />
  <g
     transform="matrix(1.1084823,0,0,1.1084823,7.9315466,6.690541)"
     id="g6860"
     style="fill:#33659a;fill-opacity:1" />
  <g
     transform="matrix(1.1084823,0,0,1.1084823,7.9315466,6.690541)"
     id="g6862"
     style="fill:#33659a;fill-opacity:1" />
  <g
     transform="matrix(1.1084823,0,0,1.1084823,7.9315466,6.690541)"
     id="g6864"
     style="fill:#33659a;fill-opacity:1" />
  <g
     transform="matrix(1.1084823,0,0,1.1084823,7.9315466,6.690541)"
     id="g6866"
     style="fill:#33659a;fill-opacity:1" />
  <g
     transform="matrix(1.1084823,0,0,1.1084823,7.9315466,6.690541)"
     id="g6868"
     style="fill:#33659a;fill-opacity:1" />
  <g
     transform="matrix(1.1084823,0,0,1.1084823,7.9315466,6.690541)"
     id="g6870"
     style="fill:#33659a;fill-opacity:1" />
  <g
     transform="matrix(1.1084823,0,0,1.1084823,7.9315466,6.690541)"
     id="g6872"
     style="fill:#33659a;fill-opacity:1" />
  <g
     transform="matrix(1.1084823,0,0,1.1084823,7.9315466,6.690541)"
     id="g6874"
     style="fill:#33659a;fill-opacity:1" />
  <g
     transform="matrix(1.1084823,0,0,1.1084823,7.9315466,6.690541)"
     id="g6876"
     style="fill:#33659a;fill-opacity:1" />
</svg>
