<?xml version="1.0" encoding="UTF-8" standalone="no"?>
<!-- Created with Inkscape (http://www.inkscape.org/) -->

<svg
   xmlns:dc="http://purl.org/dc/elements/1.1/"
   xmlns:cc="http://creativecommons.org/ns#"
   xmlns:rdf="http://www.w3.org/1999/02/22-rdf-syntax-ns#"
   xmlns:svg="http://www.w3.org/2000/svg"
   xmlns="http://www.w3.org/2000/svg"
   version="1.1"
   width="100%"
   height="100%"
   viewBox="0 0 46 46"
   id="Layer_1"
   xml:space="preserve"><metadata
   id="metadata4205"><rdf:RDF><cc:Work
       rdf:about=""><dc:format>image/svg+xml</dc:format><dc:type
         rdf:resource="http://purl.org/dc/dcmitype/StillImage" /><dc:title></dc:title></cc:Work></rdf:RDF></metadata><defs
   id="defs4203" />
<circle
   cx="23"
   cy="23"
   r="23"
   id="circle4197"
   style="opacity:0.5;fill:#001022" />

<path
   d="m 35.682115,20.712352 c -0.737236,-1.78e-4 -1.423141,0.204906 -2.007512,0.561195 -0.219843,0.134075 -0.495165,0.138995 -0.719631,0.0128 -0.224467,-0.126192 -0.362809,-0.363758 -0.362809,-0.621298 v -4.632646 c 0,-0.712874 -0.599189,-1.28622 -1.312241,-1.28622 h -5.675255 c -0.252028,0 -0.485326,-0.133246 -0.613415,-0.350243 -0.128089,-0.217058 -0.132178,-0.485801 -0.01019,-0.706355 0.309404,-0.558883 0.485445,-1.203001 0.485445,-1.886121 0,-2.1476318 -1.74108,-3.8898973 -3.889306,-3.8898973 -2.147573,0 -3.888357,1.7428585 -3.888357,3.8905493 0,0.683001 0.176041,1.326823 0.485267,1.885528 0.122161,0.220673 0.118486,0.489476 -0.0097,0.70671 -0.128208,0.217235 -0.361683,0.349829 -0.61383,0.349829 h -5.675077 c -0.713171,0 -1.304773,0.573346 -1.304773,1.28622 v 4.518783 c 0,0.250783 0.131942,0.483073 0.34728,0.611577 0.215338,0.128503 0.482658,0.134549 0.703213,0.01523 0.549281,-0.297075 1.178106,-0.465766 1.846408,-0.465588 2.147988,-2.96e-4 3.889008,1.741258 3.889008,3.889009 0,2.147929 -1.74102,3.889246 -3.889008,3.888653 -0.668361,0 -1.297186,-0.16875 -1.846468,-0.465706 -0.220791,-0.119376 -0.488052,-0.113804 -0.703627,0.01482 -0.215516,0.128681 -0.346865,0.361149 -0.346865,0.612051 v 4.786874 c 0,0.71323 0.591543,1.291199 1.304773,1.291199 h 19.404443 c 0.712874,0 1.312241,-0.577969 1.312241,-1.291199 v -4.900737 c 0,-0.257363 0.138935,-0.494691 0.363164,-0.620883 0.224229,-0.126073 0.499433,-0.121687 0.719276,0.01227 0.584252,0.356289 1.270335,0.561314 2.007393,0.561314 2.148047,5.93e-4 3.888713,-1.740724 3.888713,-3.888653 5.9e-5,-2.147751 -1.740666,-3.889365 -3.888594,-3.889068 z"
   id="path4087"
   style="fill:#ffffff;fill-opacity:1;fill-rule:evenodd" /></svg>