<?xml version="1.0" encoding="UTF-8" standalone="no"?>
<!-- Created with Inkscape (http://www.inkscape.org/) -->

<svg
   xmlns:dc="http://purl.org/dc/elements/1.1/"
   xmlns:cc="http://creativecommons.org/ns#"
   xmlns:rdf="http://www.w3.org/1999/02/22-rdf-syntax-ns#"
   xmlns:svg="http://www.w3.org/2000/svg"
   xmlns="http://www.w3.org/2000/svg"
   version="1.1"
   width="48"
   height="48"
   viewBox="0 0 38.400002 38.399998"
   id="svg3013"
   style="fill-rule:evenodd">
  <metadata
     id="metadata3029">
    <rdf:RDF>
      <cc:Work
         rdf:about="">
        <dc:format>image/svg+xml</dc:format>
        <dc:type
           rdf:resource="http://purl.org/dc/dcmitype/StillImage" />
        <dc:title></dc:title>
      </cc:Work>
    </rdf:RDF>
  </metadata>
  <defs
     id="defs3027" />
  <path
     d="m 45.721392,23.074537 a 22.096125,22.096125 0 1 1 -44.1922496,0 22.096125,22.096125 0 1 1 44.1922496,0 z"
     transform="matrix(0.83341912,0,0,0.83341912,-0.48974807,-0.03076136)"
     id="path2983"
     style="fill:none;stroke:#00c7ff;stroke-width:1.88301039;stroke-opacity:1" />
  <g
     transform="matrix(0.04571383,0,0,0.04571383,43.163691,4.246916)"
     id="g3961" />
  <g
     transform="matrix(0.04571383,0,0,0.04571383,43.163691,4.246916)"
     id="g3963" />
  <g
     transform="matrix(0.04571383,0,0,0.04571383,43.163691,4.246916)"
     id="g3965" />
  <g
     transform="matrix(0.04571383,0,0,0.04571383,43.163691,4.246916)"
     id="g3967" />
  <g
     transform="matrix(0.04571383,0,0,0.04571383,43.163691,4.246916)"
     id="g3969" />
  <g
     transform="matrix(0.04571383,0,0,0.04571383,43.163691,4.246916)"
     id="g3971" />
  <g
     transform="matrix(0.04571383,0,0,0.04571383,43.163691,4.246916)"
     id="g3973" />
  <g
     transform="matrix(0.04571383,0,0,0.04571383,43.163691,4.246916)"
     id="g3975" />
  <g
     transform="matrix(0.04571383,0,0,0.04571383,43.163691,4.246916)"
     id="g3977" />
  <g
     transform="matrix(0.04571383,0,0,0.04571383,43.163691,4.246916)"
     id="g3979" />
  <g
     transform="matrix(0.04571383,0,0,0.04571383,43.163691,4.246916)"
     id="g3981" />
  <g
     transform="matrix(0.04571383,0,0,0.04571383,43.163691,4.246916)"
     id="g3983" />
  <g
     transform="matrix(0.04571383,0,0,0.04571383,43.163691,4.246916)"
     id="g3985" />
  <g
     transform="matrix(0.04571383,0,0,0.04571383,43.163691,4.246916)"
     id="g3987" />
  <g
     transform="matrix(0.04571383,0,0,0.04571383,43.163691,4.246916)"
     id="g3989" />
  <g
     transform="matrix(0.06874618,0,0,0.06874618,6.6942401,6.9421096)"
     id="g3807" />
  <g
     transform="matrix(0.06874618,0,0,0.06874618,6.6942401,6.9421096)"
     id="g3809" />
  <g
     transform="matrix(0.06874618,0,0,0.06874618,6.6942401,6.9421096)"
     id="g3811" />
  <g
     transform="matrix(0.06874618,0,0,0.06874618,6.6942401,6.9421096)"
     id="g3813" />
  <g
     transform="matrix(0.06874618,0,0,0.06874618,6.6942401,6.9421096)"
     id="g3815" />
  <g
     transform="matrix(0.06874618,0,0,0.06874618,6.6942401,6.9421096)"
     id="g3817" />
  <g
     transform="matrix(0.06874618,0,0,0.06874618,6.6942401,6.9421096)"
     id="g3819" />
  <g
     transform="matrix(0.06874618,0,0,0.06874618,6.6942401,6.9421096)"
     id="g3821" />
  <g
     transform="matrix(0.06874618,0,0,0.06874618,6.6942401,6.9421096)"
     id="g3823" />
  <g
     transform="matrix(0.06874618,0,0,0.06874618,6.6942401,6.9421096)"
     id="g3825" />
  <g
     transform="matrix(0.06874618,0,0,0.06874618,6.6942401,6.9421096)"
     id="g3827" />
  <g
     transform="matrix(0.06874618,0,0,0.06874618,6.6942401,6.9421096)"
     id="g3829" />
  <g
     transform="matrix(0.06874618,0,0,0.06874618,6.6942401,6.9421096)"
     id="g3831" />
  <g
     transform="matrix(0.06874618,0,0,0.06874618,6.6942401,6.9421096)"
     id="g3833" />
  <g
     transform="matrix(0.06874618,0,0,0.06874618,6.6942401,6.9421096)"
     id="g3835" />
  <g
     transform="matrix(0.80000004,0,0,0.80000004,6.8150226,6.4378103)"
     id="g4379"
     style="fill:#33659a;fill-opacity:1" />
  <g
     transform="matrix(0.80000004,0,0,0.80000004,6.8150226,6.4378103)"
     id="g4381"
     style="fill:#33659a;fill-opacity:1" />
  <g
     transform="matrix(0.80000004,0,0,0.80000004,6.8150226,6.4378103)"
     id="g4383"
     style="fill:#33659a;fill-opacity:1" />
  <g
     transform="matrix(0.80000004,0,0,0.80000004,6.8150226,6.4378103)"
     id="g4385"
     style="fill:#33659a;fill-opacity:1" />
  <g
     transform="matrix(0.80000004,0,0,0.80000004,6.8150226,6.4378103)"
     id="g4387"
     style="fill:#33659a;fill-opacity:1" />
  <g
     transform="matrix(0.80000004,0,0,0.80000004,6.8150226,6.4378103)"
     id="g4389"
     style="fill:#33659a;fill-opacity:1" />
  <g
     transform="matrix(0.80000004,0,0,0.80000004,6.8150226,6.4378103)"
     id="g4391"
     style="fill:#33659a;fill-opacity:1" />
  <g
     transform="matrix(0.80000004,0,0,0.80000004,6.8150226,6.4378103)"
     id="g4393"
     style="fill:#33659a;fill-opacity:1" />
  <g
     transform="matrix(0.80000004,0,0,0.80000004,6.8150226,6.4378103)"
     id="g4395"
     style="fill:#33659a;fill-opacity:1" />
  <g
     transform="matrix(0.80000004,0,0,0.80000004,6.8150226,6.4378103)"
     id="g4397"
     style="fill:#33659a;fill-opacity:1" />
  <g
     transform="matrix(0.80000004,0,0,0.80000004,6.8150226,6.4378103)"
     id="g4399"
     style="fill:#33659a;fill-opacity:1" />
  <g
     transform="matrix(0.80000004,0,0,0.80000004,6.8150226,6.4378103)"
     id="g4401"
     style="fill:#33659a;fill-opacity:1" />
  <g
     transform="matrix(0.80000004,0,0,0.80000004,6.8150226,6.4378103)"
     id="g4403"
     style="fill:#33659a;fill-opacity:1" />
  <g
     transform="matrix(0.80000004,0,0,0.80000004,6.8150226,6.4378103)"
     id="g4405"
     style="fill:#33659a;fill-opacity:1" />
  <g
     transform="matrix(0.80000004,0,0,0.80000004,6.8150226,6.4378103)"
     id="g4407"
     style="fill:#33659a;fill-opacity:1" />
  <g
     transform="matrix(0.08395392,0,0,0.08395392,5.1053608,5.7443854)"
     id="g4546"
     style="fill:#33659a;fill-opacity:1" />
  <g
     transform="matrix(0.08395392,0,0,0.08395392,5.1053608,5.7443854)"
     id="g4548"
     style="fill:#33659a;fill-opacity:1" />
  <g
     transform="matrix(0.08395392,0,0,0.08395392,5.1053608,5.7443854)"
     id="g4550"
     style="fill:#33659a;fill-opacity:1" />
  <g
     transform="matrix(0.08395392,0,0,0.08395392,5.1053608,5.7443854)"
     id="g4552"
     style="fill:#33659a;fill-opacity:1" />
  <g
     transform="matrix(0.08395392,0,0,0.08395392,5.1053608,5.7443854)"
     id="g4554"
     style="fill:#33659a;fill-opacity:1" />
  <g
     transform="matrix(0.08395392,0,0,0.08395392,5.1053608,5.7443854)"
     id="g4556"
     style="fill:#33659a;fill-opacity:1" />
  <g
     transform="matrix(0.08395392,0,0,0.08395392,5.1053608,5.7443854)"
     id="g4558"
     style="fill:#33659a;fill-opacity:1" />
  <g
     transform="matrix(0.08395392,0,0,0.08395392,5.1053608,5.7443854)"
     id="g4560"
     style="fill:#33659a;fill-opacity:1" />
  <g
     transform="matrix(0.08395392,0,0,0.08395392,5.1053608,5.7443854)"
     id="g4562"
     style="fill:#33659a;fill-opacity:1" />
  <g
     transform="matrix(0.08395392,0,0,0.08395392,5.1053608,5.7443854)"
     id="g4564"
     style="fill:#33659a;fill-opacity:1" />
  <g
     transform="matrix(0.08395392,0,0,0.08395392,5.1053608,5.7443854)"
     id="g4566"
     style="fill:#33659a;fill-opacity:1" />
  <g
     transform="matrix(0.08395392,0,0,0.08395392,5.1053608,5.7443854)"
     id="g4568"
     style="fill:#33659a;fill-opacity:1" />
  <g
     transform="matrix(0.08395392,0,0,0.08395392,5.1053608,5.7443854)"
     id="g4570"
     style="fill:#33659a;fill-opacity:1" />
  <g
     transform="matrix(0.08395392,0,0,0.08395392,5.1053608,5.7443854)"
     id="g4572"
     style="fill:#33659a;fill-opacity:1" />
  <g
     transform="matrix(0.08395392,0,0,0.08395392,5.1053608,5.7443854)"
     id="g4574"
     style="fill:#33659a;fill-opacity:1" />
  <g
     transform="matrix(0.06391589,0,0,0.06391589,4.3663022,4.2587944)"
     id="g4697"
     style="fill:#33659a;fill-opacity:1" />
  <g
     transform="matrix(0.06391589,0,0,0.06391589,4.3663022,4.2587944)"
     id="g4699"
     style="fill:#33659a;fill-opacity:1" />
  <g
     transform="matrix(0.06391589,0,0,0.06391589,4.3663022,4.2587944)"
     id="g4701"
     style="fill:#33659a;fill-opacity:1" />
  <g
     transform="matrix(0.06391589,0,0,0.06391589,4.3663022,4.2587944)"
     id="g4703"
     style="fill:#33659a;fill-opacity:1" />
  <g
     transform="matrix(0.06391589,0,0,0.06391589,4.3663022,4.2587944)"
     id="g4705"
     style="fill:#33659a;fill-opacity:1" />
  <g
     transform="matrix(0.06391589,0,0,0.06391589,4.3663022,4.2587944)"
     id="g4707"
     style="fill:#33659a;fill-opacity:1" />
  <g
     transform="matrix(0.06391589,0,0,0.06391589,4.3663022,4.2587944)"
     id="g4709"
     style="fill:#33659a;fill-opacity:1" />
  <g
     transform="matrix(0.06391589,0,0,0.06391589,4.3663022,4.2587944)"
     id="g4711"
     style="fill:#33659a;fill-opacity:1" />
  <g
     transform="matrix(0.06391589,0,0,0.06391589,4.3663022,4.2587944)"
     id="g4713"
     style="fill:#33659a;fill-opacity:1" />
  <g
     transform="matrix(0.06391589,0,0,0.06391589,4.3663022,4.2587944)"
     id="g4715"
     style="fill:#33659a;fill-opacity:1" />
  <g
     transform="matrix(0.06391589,0,0,0.06391589,4.3663022,4.2587944)"
     id="g4717"
     style="fill:#33659a;fill-opacity:1" />
  <g
     transform="matrix(0.06391589,0,0,0.06391589,4.3663022,4.2587944)"
     id="g4719"
     style="fill:#33659a;fill-opacity:1" />
  <g
     transform="matrix(0.06391589,0,0,0.06391589,4.3663022,4.2587944)"
     id="g4721"
     style="fill:#33659a;fill-opacity:1" />
  <g
     transform="matrix(0.06391589,0,0,0.06391589,4.3663022,4.2587944)"
     id="g4723"
     style="fill:#33659a;fill-opacity:1" />
  <g
     transform="matrix(0.06391589,0,0,0.06391589,4.3663022,4.2587944)"
     id="g4725"
     style="fill:#33659a;fill-opacity:1" />
  <g
     transform="matrix(0.80000004,0,0,0.80000004,6.6979261,6.8956035)"
     id="g4908"
     style="fill:#33659a;fill-opacity:1" />
  <g
     transform="matrix(0.80000004,0,0,0.80000004,6.6979261,6.8956035)"
     id="g4910"
     style="fill:#33659a;fill-opacity:1" />
  <g
     transform="matrix(0.80000004,0,0,0.80000004,6.6979261,6.8956035)"
     id="g4912"
     style="fill:#33659a;fill-opacity:1" />
  <g
     transform="matrix(0.80000004,0,0,0.80000004,6.6979261,6.8956035)"
     id="g4914"
     style="fill:#33659a;fill-opacity:1" />
  <g
     transform="matrix(0.80000004,0,0,0.80000004,6.6979261,6.8956035)"
     id="g4916"
     style="fill:#33659a;fill-opacity:1" />
  <g
     transform="matrix(0.80000004,0,0,0.80000004,6.6979261,6.8956035)"
     id="g4918"
     style="fill:#33659a;fill-opacity:1" />
  <g
     transform="matrix(0.80000004,0,0,0.80000004,6.6979261,6.8956035)"
     id="g4920"
     style="fill:#33659a;fill-opacity:1" />
  <g
     transform="matrix(0.80000004,0,0,0.80000004,6.6979261,6.8956035)"
     id="g4922"
     style="fill:#33659a;fill-opacity:1" />
  <g
     transform="matrix(0.80000004,0,0,0.80000004,6.6979261,6.8956035)"
     id="g4924"
     style="fill:#33659a;fill-opacity:1" />
  <g
     transform="matrix(0.80000004,0,0,0.80000004,6.6979261,6.8956035)"
     id="g4926"
     style="fill:#33659a;fill-opacity:1" />
  <g
     transform="matrix(0.80000004,0,0,0.80000004,6.6979261,6.8956035)"
     id="g4928"
     style="fill:#33659a;fill-opacity:1" />
  <g
     transform="matrix(0.80000004,0,0,0.80000004,6.6979261,6.8956035)"
     id="g4930"
     style="fill:#33659a;fill-opacity:1" />
  <g
     transform="matrix(0.80000004,0,0,0.80000004,6.6979261,6.8956035)"
     id="g4932"
     style="fill:#33659a;fill-opacity:1" />
  <g
     transform="matrix(0.80000004,0,0,0.80000004,6.6979261,6.8956035)"
     id="g4934"
     style="fill:#33659a;fill-opacity:1" />
  <g
     transform="matrix(0.80000004,0,0,0.80000004,6.6979261,6.8956035)"
     id="g4936"
     style="fill:#33659a;fill-opacity:1" />
  <g
     transform="matrix(0.06376829,0,0,0.06376829,-35.463722,14.562237)"
     id="g4062"
     style="fill:#33659a;fill-opacity:1">
    <g
       id="g4020"
       style="fill:#33659a;fill-opacity:1">
      <g
         transform="matrix(0.74360254,0,0,0.74360254,699.4886,-123.0194)"
         id="g4125"
         style="fill:#33659a;fill-opacity:1">
        <g
           id="g4083"
           style="fill:#33659a;fill-opacity:1">
          <g
             id="g4085"
             style="fill:#33659a;fill-opacity:1">
            <path
               d="m 423.658,234.356 c -12.438,-0.003 -24.01,3.457 -33.869,9.468 -3.709,2.262 -8.354,2.345 -12.141,0.216 -3.787,-2.129 -6.121,-6.137 -6.121,-10.482 V 155.4 c 0,-12.027 -10.109,-21.7 -22.139,-21.7 H 253.64 c -4.252,0 -8.188,-2.248 -10.349,-5.909 -2.161,-3.662 -2.23,-8.196 -0.172,-11.917 5.22,-9.429 8.19,-20.296 8.19,-31.821 0,-36.233 -29.374,-65.627 -65.617,-65.627 -36.232,0 -65.601,29.404 -65.601,65.638 0,11.523 2.97,22.385 8.187,31.811 2.061,3.723 1.999,8.258 -0.163,11.923 -2.163,3.665 -6.102,5.902 -10.356,5.902 H 22.014 c -12.032,0 -22.013,9.673 -22.013,21.7 v 76.237 c 0,4.231 2.226,8.15 5.859,10.318 3.633,2.168 8.143,2.27 11.864,0.257 9.267,-5.012 19.876,-7.858 31.151,-7.855 36.239,-0.005 65.612,29.377 65.612,65.612 0,36.238 -29.373,65.616 -65.612,65.606 -11.276,0 -21.885,-2.847 -31.152,-7.857 -3.725,-2.014 -8.234,-1.92 -11.871,0.25 C 2.216,360.139 0,364.061 0,368.294 v 80.76 c 0,12.033 9.98,21.784 22.013,21.784 h 327.375 c 12.027,0 22.139,-9.751 22.139,-21.784 v -82.681 c 0,-4.342 2.344,-8.346 6.127,-10.475 3.783,-2.127 8.426,-2.053 12.135,0.207 9.857,6.011 21.432,9.47 33.867,9.47 36.24,0.01 65.607,-29.368 65.607,-65.606 0.001,-36.235 -29.367,-65.618 -65.605,-65.613 z"
               id="path4087"
               style="fill:#33659a;fill-opacity:1" />
          </g>
        </g>
        <g
           id="g4089"
           style="fill:#33659a;fill-opacity:1" />
        <g
           id="g4091"
           style="fill:#33659a;fill-opacity:1" />
        <g
           id="g4093"
           style="fill:#33659a;fill-opacity:1" />
        <g
           id="g4095"
           style="fill:#33659a;fill-opacity:1" />
        <g
           id="g4097"
           style="fill:#33659a;fill-opacity:1" />
        <g
           id="g4099"
           style="fill:#33659a;fill-opacity:1" />
        <g
           id="g4101"
           style="fill:#33659a;fill-opacity:1" />
        <g
           id="g4103"
           style="fill:#33659a;fill-opacity:1" />
        <g
           id="g4105"
           style="fill:#33659a;fill-opacity:1" />
        <g
           id="g4107"
           style="fill:#33659a;fill-opacity:1" />
        <g
           id="g4109"
           style="fill:#33659a;fill-opacity:1" />
        <g
           id="g4111"
           style="fill:#33659a;fill-opacity:1" />
        <g
           id="g4113"
           style="fill:#33659a;fill-opacity:1" />
        <g
           id="g4115"
           style="fill:#33659a;fill-opacity:1" />
        <g
           id="g4117"
           style="fill:#33659a;fill-opacity:1" />
      </g>
    </g>
    <g
       id="g4026"
       style="fill:#33659a;fill-opacity:1" />
    <g
       id="g4028"
       style="fill:#33659a;fill-opacity:1" />
    <g
       id="g4030"
       style="fill:#33659a;fill-opacity:1" />
    <g
       id="g4032"
       style="fill:#33659a;fill-opacity:1" />
    <g
       id="g4034"
       style="fill:#33659a;fill-opacity:1" />
    <g
       id="g4036"
       style="fill:#33659a;fill-opacity:1" />
    <g
       id="g4038"
       style="fill:#33659a;fill-opacity:1" />
    <g
       id="g4040"
       style="fill:#33659a;fill-opacity:1" />
    <g
       id="g4042"
       style="fill:#33659a;fill-opacity:1" />
    <g
       id="g4044"
       style="fill:#33659a;fill-opacity:1" />
    <g
       id="g4046"
       style="fill:#33659a;fill-opacity:1" />
    <g
       id="g4048"
       style="fill:#33659a;fill-opacity:1" />
    <g
       id="g4050"
       style="fill:#33659a;fill-opacity:1" />
    <g
       id="g4052"
       style="fill:#33659a;fill-opacity:1" />
    <g
       id="g4054"
       style="fill:#33659a;fill-opacity:1" />
  </g>
</svg>
