<?xml version="1.0" encoding="utf-8"?>
<!-- Generator: Adobe Illustrator 18.1.1, SVG Export Plug-In . SVG Version: 6.00 Build 0)  -->
<svg version="1.1" id="Layer_1" xmlns="http://www.w3.org/2000/svg" xmlns:xlink="http://www.w3.org/1999/xlink" x="0px" y="0px"
	 viewBox="0 0 46 46" enable-background="new 0 0 46 46" xml:space="preserve">
<circle opacity="0.5" fill="#001022" cx="23" cy="23" r="23"/>
<g id="g6623_1_" transform="matrix(0.0567675,0,0,0.0567675,5.8259542,4.3676893)">
	<g id="g6625_1_">
		<path id="path6627_1_" fill="#FFFFFF" d="M588.4,440.4l-135-186.2l-5-8.7
			c-4.2-5.8-11-11.7-20.6-17.5c-9.6-5.8-20.6-8.7-33.1-8.7H212.1c-12.5,0-23.7,3.1-33.7,9.4c-10,6.2-16.5,11.5-19.4,15.6
			c-2.9,4.2-4.8,7.5-5.6,10l-135,186.2c-6.7,9.2-10,19.2-10,30c0,14.2,5.2,26.5,15.6,36.9s22.7,15.6,36.9,15.6
			c6.7,0,13.3-1.3,20-3.7l81.2-23.7v81.2h282.5v-81.2l81.2,23.7c6.7,2.5,13.3,3.7,20,3.7c14.2,0,26.5-5.2,36.9-15.6
			c10.4-10.4,15.6-22.7,15.6-36.9C598.4,459.6,595,449.6,588.4,440.4z M444.6,391.7l-10-3.7c-14.2-3.3-26.9-3.3-38.1,0
			s-19.4,9.6-24.4,18.7s-7.7,18.7-8.1,28.7s3.1,19.8,10.6,29.4c7.5,9.6,18.3,16.5,32.5,20.6h1.3l-105,35l-105-35h2.5
			c13.3-4.2,23.7-11,31.2-20.6c7.5-9.6,11-19.4,10.6-29.4s-3.1-19.6-8.1-28.7s-13.1-15.4-24.4-18.7c-11.2-3.3-24-3.3-38.1,0l-10,3.7
			V282.9l141.2,46.2l141.2-46.2V391.7z"/>
		<path id="path6629_1_" fill="#FFFFFF" d="M305.3,197.9c25.4,0,47.1-9,65-26.9
			c17.9-17.9,26.9-39.6,26.9-65c0-25.4-9-47.1-26.9-65c-17.9-17.9-39.6-26.9-65-26.9c-25.4,0-47.1,9-65,26.9s-26.9,39.6-26.9,65
			s9,47.1,26.9,65S279.8,197.9,305.3,197.9z"/>
	</g>
</g>
</svg>
