<?xml version="1.0" encoding="UTF-8" standalone="no"?>
<!-- Created with Inkscape (http://www.inkscape.org/) -->

<svg
   xmlns:dc="http://purl.org/dc/elements/1.1/"
   xmlns:cc="http://creativecommons.org/ns#"
   xmlns:rdf="http://www.w3.org/1999/02/22-rdf-syntax-ns#"
   xmlns:svg="http://www.w3.org/2000/svg"
   xmlns="http://www.w3.org/2000/svg"
   xmlns:sodipodi="http://sodipodi.sourceforge.net/DTD/sodipodi-0.dtd"
   xmlns:inkscape="http://www.inkscape.org/namespaces/inkscape"
   version="1.1"
   width="48"
   height="48"
   viewBox="0 0 38.400002 38.399998"
   id="svg3013"
   style="fill-rule:evenodd"
   inkscape:version="0.48.5 r10040"
   sodipodi:docname="multimedia-edukacyjne.svg">
  <sodipodi:namedview
     pagecolor="#ffffff"
     bordercolor="#666666"
     borderopacity="1"
     objecttolerance="10"
     gridtolerance="10"
     guidetolerance="10"
     inkscape:pageopacity="0"
     inkscape:pageshadow="2"
     inkscape:window-width="1600"
     inkscape:window-height="848"
     id="namedview6"
     showgrid="false"
     inkscape:zoom="7.7899597"
     inkscape:cx="39.511257"
     inkscape:cy="24.012232"
     inkscape:window-x="-8"
     inkscape:window-y="588"
     inkscape:window-maximized="1"
     inkscape:current-layer="svg3013"
     fit-margin-top="0"
     fit-margin-left="0"
     fit-margin-right="0"
     fit-margin-bottom="0" />
  <metadata
     id="metadata3029">
    <rdf:RDF>
      <cc:Work
         rdf:about="">
        <dc:format>image/svg+xml</dc:format>
        <dc:type
           rdf:resource="http://purl.org/dc/dcmitype/StillImage" />
        <dc:title></dc:title>
      </cc:Work>
    </rdf:RDF>
  </metadata>
  <defs
     id="defs3027" />
  <path
     sodipodi:type="arc"
     style="fill:none;stroke:#00c7ff;stroke-width:1.88301038999999990;stroke-opacity:1"
     id="path2983"
     sodipodi:cx="23.625267"
     sodipodi:cy="23.074537"
     sodipodi:rx="22.096125"
     sodipodi:ry="22.096125"
     d="m 45.721392,23.074537 a 22.096125,22.096125 0 1 1 -44.1922496,0 22.096125,22.096125 0 1 1 44.1922496,0 z"
     transform="matrix(0.83341912,0,0,0.83341912,-0.48974807,-0.03076136)" />
  <g
     transform="matrix(0.04571383,0,0,0.04571383,43.163691,4.246916)"
     id="g3961" />
  <g
     transform="matrix(0.04571383,0,0,0.04571383,43.163691,4.246916)"
     id="g3963" />
  <g
     transform="matrix(0.04571383,0,0,0.04571383,43.163691,4.246916)"
     id="g3965" />
  <g
     transform="matrix(0.04571383,0,0,0.04571383,43.163691,4.246916)"
     id="g3967" />
  <g
     transform="matrix(0.04571383,0,0,0.04571383,43.163691,4.246916)"
     id="g3969" />
  <g
     transform="matrix(0.04571383,0,0,0.04571383,43.163691,4.246916)"
     id="g3971" />
  <g
     transform="matrix(0.04571383,0,0,0.04571383,43.163691,4.246916)"
     id="g3973" />
  <g
     transform="matrix(0.04571383,0,0,0.04571383,43.163691,4.246916)"
     id="g3975" />
  <g
     transform="matrix(0.04571383,0,0,0.04571383,43.163691,4.246916)"
     id="g3977" />
  <g
     transform="matrix(0.04571383,0,0,0.04571383,43.163691,4.246916)"
     id="g3979" />
  <g
     transform="matrix(0.04571383,0,0,0.04571383,43.163691,4.246916)"
     id="g3981" />
  <g
     transform="matrix(0.04571383,0,0,0.04571383,43.163691,4.246916)"
     id="g3983" />
  <g
     transform="matrix(0.04571383,0,0,0.04571383,43.163691,4.246916)"
     id="g3985" />
  <g
     transform="matrix(0.04571383,0,0,0.04571383,43.163691,4.246916)"
     id="g3987" />
  <g
     transform="matrix(0.04571383,0,0,0.04571383,43.163691,4.246916)"
     id="g3989" />
  <g
     transform="matrix(0.06874618,0,0,0.06874618,6.6942401,6.9421096)"
     id="g3807" />
  <g
     transform="matrix(0.06874618,0,0,0.06874618,6.6942401,6.9421096)"
     id="g3809" />
  <g
     transform="matrix(0.06874618,0,0,0.06874618,6.6942401,6.9421096)"
     id="g3811" />
  <g
     transform="matrix(0.06874618,0,0,0.06874618,6.6942401,6.9421096)"
     id="g3813" />
  <g
     transform="matrix(0.06874618,0,0,0.06874618,6.6942401,6.9421096)"
     id="g3815" />
  <g
     transform="matrix(0.06874618,0,0,0.06874618,6.6942401,6.9421096)"
     id="g3817" />
  <g
     transform="matrix(0.06874618,0,0,0.06874618,6.6942401,6.9421096)"
     id="g3819" />
  <g
     transform="matrix(0.06874618,0,0,0.06874618,6.6942401,6.9421096)"
     id="g3821" />
  <g
     transform="matrix(0.06874618,0,0,0.06874618,6.6942401,6.9421096)"
     id="g3823" />
  <g
     transform="matrix(0.06874618,0,0,0.06874618,6.6942401,6.9421096)"
     id="g3825" />
  <g
     transform="matrix(0.06874618,0,0,0.06874618,6.6942401,6.9421096)"
     id="g3827" />
  <g
     transform="matrix(0.06874618,0,0,0.06874618,6.6942401,6.9421096)"
     id="g3829" />
  <g
     transform="matrix(0.06874618,0,0,0.06874618,6.6942401,6.9421096)"
     id="g3831" />
  <g
     transform="matrix(0.06874618,0,0,0.06874618,6.6942401,6.9421096)"
     id="g3833" />
  <g
     transform="matrix(0.06874618,0,0,0.06874618,6.6942401,6.9421096)"
     id="g3835" />
  <g
     transform="matrix(0.80000004,0,0,0.80000004,6.8150226,6.4378103)"
     id="g4379"
     style="fill:#33659a;fill-opacity:1" />
  <g
     transform="matrix(0.80000004,0,0,0.80000004,6.8150226,6.4378103)"
     id="g4381"
     style="fill:#33659a;fill-opacity:1" />
  <g
     transform="matrix(0.80000004,0,0,0.80000004,6.8150226,6.4378103)"
     id="g4383"
     style="fill:#33659a;fill-opacity:1" />
  <g
     transform="matrix(0.80000004,0,0,0.80000004,6.8150226,6.4378103)"
     id="g4385"
     style="fill:#33659a;fill-opacity:1" />
  <g
     transform="matrix(0.80000004,0,0,0.80000004,6.8150226,6.4378103)"
     id="g4387"
     style="fill:#33659a;fill-opacity:1" />
  <g
     transform="matrix(0.80000004,0,0,0.80000004,6.8150226,6.4378103)"
     id="g4389"
     style="fill:#33659a;fill-opacity:1" />
  <g
     transform="matrix(0.80000004,0,0,0.80000004,6.8150226,6.4378103)"
     id="g4391"
     style="fill:#33659a;fill-opacity:1" />
  <g
     transform="matrix(0.80000004,0,0,0.80000004,6.8150226,6.4378103)"
     id="g4393"
     style="fill:#33659a;fill-opacity:1" />
  <g
     transform="matrix(0.80000004,0,0,0.80000004,6.8150226,6.4378103)"
     id="g4395"
     style="fill:#33659a;fill-opacity:1" />
  <g
     transform="matrix(0.80000004,0,0,0.80000004,6.8150226,6.4378103)"
     id="g4397"
     style="fill:#33659a;fill-opacity:1" />
  <g
     transform="matrix(0.80000004,0,0,0.80000004,6.8150226,6.4378103)"
     id="g4399"
     style="fill:#33659a;fill-opacity:1" />
  <g
     transform="matrix(0.80000004,0,0,0.80000004,6.8150226,6.4378103)"
     id="g4401"
     style="fill:#33659a;fill-opacity:1" />
  <g
     transform="matrix(0.80000004,0,0,0.80000004,6.8150226,6.4378103)"
     id="g4403"
     style="fill:#33659a;fill-opacity:1" />
  <g
     transform="matrix(0.80000004,0,0,0.80000004,6.8150226,6.4378103)"
     id="g4405"
     style="fill:#33659a;fill-opacity:1" />
  <g
     transform="matrix(0.80000004,0,0,0.80000004,6.8150226,6.4378103)"
     id="g4407"
     style="fill:#33659a;fill-opacity:1" />
  <g
     transform="matrix(0.08395392,0,0,0.08395392,5.1053608,5.7443854)"
     id="g4546"
     style="fill:#33659a;fill-opacity:1" />
  <g
     transform="matrix(0.08395392,0,0,0.08395392,5.1053608,5.7443854)"
     id="g4548"
     style="fill:#33659a;fill-opacity:1" />
  <g
     transform="matrix(0.08395392,0,0,0.08395392,5.1053608,5.7443854)"
     id="g4550"
     style="fill:#33659a;fill-opacity:1" />
  <g
     transform="matrix(0.08395392,0,0,0.08395392,5.1053608,5.7443854)"
     id="g4552"
     style="fill:#33659a;fill-opacity:1" />
  <g
     transform="matrix(0.08395392,0,0,0.08395392,5.1053608,5.7443854)"
     id="g4554"
     style="fill:#33659a;fill-opacity:1" />
  <g
     transform="matrix(0.08395392,0,0,0.08395392,5.1053608,5.7443854)"
     id="g4556"
     style="fill:#33659a;fill-opacity:1" />
  <g
     transform="matrix(0.08395392,0,0,0.08395392,5.1053608,5.7443854)"
     id="g4558"
     style="fill:#33659a;fill-opacity:1" />
  <g
     transform="matrix(0.08395392,0,0,0.08395392,5.1053608,5.7443854)"
     id="g4560"
     style="fill:#33659a;fill-opacity:1" />
  <g
     transform="matrix(0.08395392,0,0,0.08395392,5.1053608,5.7443854)"
     id="g4562"
     style="fill:#33659a;fill-opacity:1" />
  <g
     transform="matrix(0.08395392,0,0,0.08395392,5.1053608,5.7443854)"
     id="g4564"
     style="fill:#33659a;fill-opacity:1" />
  <g
     transform="matrix(0.08395392,0,0,0.08395392,5.1053608,5.7443854)"
     id="g4566"
     style="fill:#33659a;fill-opacity:1" />
  <g
     transform="matrix(0.08395392,0,0,0.08395392,5.1053608,5.7443854)"
     id="g4568"
     style="fill:#33659a;fill-opacity:1" />
  <g
     transform="matrix(0.08395392,0,0,0.08395392,5.1053608,5.7443854)"
     id="g4570"
     style="fill:#33659a;fill-opacity:1" />
  <g
     transform="matrix(0.08395392,0,0,0.08395392,5.1053608,5.7443854)"
     id="g4572"
     style="fill:#33659a;fill-opacity:1" />
  <g
     transform="matrix(0.08395392,0,0,0.08395392,5.1053608,5.7443854)"
     id="g4574"
     style="fill:#33659a;fill-opacity:1" />
  <g
     transform="matrix(0.06391589,0,0,0.06391589,4.3663022,4.2587944)"
     id="g4697"
     style="fill:#33659a;fill-opacity:1" />
  <g
     transform="matrix(0.06391589,0,0,0.06391589,4.3663022,4.2587944)"
     id="g4699"
     style="fill:#33659a;fill-opacity:1" />
  <g
     transform="matrix(0.06391589,0,0,0.06391589,4.3663022,4.2587944)"
     id="g4701"
     style="fill:#33659a;fill-opacity:1" />
  <g
     transform="matrix(0.06391589,0,0,0.06391589,4.3663022,4.2587944)"
     id="g4703"
     style="fill:#33659a;fill-opacity:1" />
  <g
     transform="matrix(0.06391589,0,0,0.06391589,4.3663022,4.2587944)"
     id="g4705"
     style="fill:#33659a;fill-opacity:1" />
  <g
     transform="matrix(0.06391589,0,0,0.06391589,4.3663022,4.2587944)"
     id="g4707"
     style="fill:#33659a;fill-opacity:1" />
  <g
     transform="matrix(0.06391589,0,0,0.06391589,4.3663022,4.2587944)"
     id="g4709"
     style="fill:#33659a;fill-opacity:1" />
  <g
     transform="matrix(0.06391589,0,0,0.06391589,4.3663022,4.2587944)"
     id="g4711"
     style="fill:#33659a;fill-opacity:1" />
  <g
     transform="matrix(0.06391589,0,0,0.06391589,4.3663022,4.2587944)"
     id="g4713"
     style="fill:#33659a;fill-opacity:1" />
  <g
     transform="matrix(0.06391589,0,0,0.06391589,4.3663022,4.2587944)"
     id="g4715"
     style="fill:#33659a;fill-opacity:1" />
  <g
     transform="matrix(0.06391589,0,0,0.06391589,4.3663022,4.2587944)"
     id="g4717"
     style="fill:#33659a;fill-opacity:1" />
  <g
     transform="matrix(0.06391589,0,0,0.06391589,4.3663022,4.2587944)"
     id="g4719"
     style="fill:#33659a;fill-opacity:1" />
  <g
     transform="matrix(0.06391589,0,0,0.06391589,4.3663022,4.2587944)"
     id="g4721"
     style="fill:#33659a;fill-opacity:1" />
  <g
     transform="matrix(0.06391589,0,0,0.06391589,4.3663022,4.2587944)"
     id="g4723"
     style="fill:#33659a;fill-opacity:1" />
  <g
     transform="matrix(0.06391589,0,0,0.06391589,4.3663022,4.2587944)"
     id="g4725"
     style="fill:#33659a;fill-opacity:1" />
  <g
     transform="matrix(0.80000004,0,0,0.80000004,6.6979261,6.8956035)"
     id="g4908"
     style="fill:#33659a;fill-opacity:1" />
  <g
     transform="matrix(0.80000004,0,0,0.80000004,6.6979261,6.8956035)"
     id="g4910"
     style="fill:#33659a;fill-opacity:1" />
  <g
     transform="matrix(0.80000004,0,0,0.80000004,6.6979261,6.8956035)"
     id="g4912"
     style="fill:#33659a;fill-opacity:1" />
  <g
     transform="matrix(0.80000004,0,0,0.80000004,6.6979261,6.8956035)"
     id="g4914"
     style="fill:#33659a;fill-opacity:1" />
  <g
     transform="matrix(0.80000004,0,0,0.80000004,6.6979261,6.8956035)"
     id="g4916"
     style="fill:#33659a;fill-opacity:1" />
  <g
     transform="matrix(0.80000004,0,0,0.80000004,6.6979261,6.8956035)"
     id="g4918"
     style="fill:#33659a;fill-opacity:1" />
  <g
     transform="matrix(0.80000004,0,0,0.80000004,6.6979261,6.8956035)"
     id="g4920"
     style="fill:#33659a;fill-opacity:1" />
  <g
     transform="matrix(0.80000004,0,0,0.80000004,6.6979261,6.8956035)"
     id="g4922"
     style="fill:#33659a;fill-opacity:1" />
  <g
     transform="matrix(0.80000004,0,0,0.80000004,6.6979261,6.8956035)"
     id="g4924"
     style="fill:#33659a;fill-opacity:1" />
  <g
     transform="matrix(0.80000004,0,0,0.80000004,6.6979261,6.8956035)"
     id="g4926"
     style="fill:#33659a;fill-opacity:1" />
  <g
     transform="matrix(0.80000004,0,0,0.80000004,6.6979261,6.8956035)"
     id="g4928"
     style="fill:#33659a;fill-opacity:1" />
  <g
     transform="matrix(0.80000004,0,0,0.80000004,6.6979261,6.8956035)"
     id="g4930"
     style="fill:#33659a;fill-opacity:1" />
  <g
     transform="matrix(0.80000004,0,0,0.80000004,6.6979261,6.8956035)"
     id="g4932"
     style="fill:#33659a;fill-opacity:1" />
  <g
     transform="matrix(0.80000004,0,0,0.80000004,6.6979261,6.8956035)"
     id="g4934"
     style="fill:#33659a;fill-opacity:1" />
  <g
     transform="matrix(0.80000004,0,0,0.80000004,6.6979261,6.8956035)"
     id="g4936"
     style="fill:#33659a;fill-opacity:1" />
  <g
     transform="matrix(0.80000004,0,0,0.80000004,20.401808,12.383081)"
     id="g5796"
     style="fill:#33659a;fill-opacity:1" />
  <g
     transform="matrix(0.80000004,0,0,0.80000004,20.401808,12.383081)"
     id="g5798"
     style="fill:#33659a;fill-opacity:1" />
  <g
     transform="matrix(0.80000004,0,0,0.80000004,20.401808,12.383081)"
     id="g5800"
     style="fill:#33659a;fill-opacity:1" />
  <g
     transform="matrix(0.80000004,0,0,0.80000004,20.401808,12.383081)"
     id="g5802"
     style="fill:#33659a;fill-opacity:1" />
  <g
     transform="matrix(0.80000004,0,0,0.80000004,20.401808,12.383081)"
     id="g5804"
     style="fill:#33659a;fill-opacity:1" />
  <g
     transform="matrix(0.80000004,0,0,0.80000004,20.401808,12.383081)"
     id="g5806"
     style="fill:#33659a;fill-opacity:1" />
  <g
     transform="matrix(0.80000004,0,0,0.80000004,20.401808,12.383081)"
     id="g5808"
     style="fill:#33659a;fill-opacity:1" />
  <g
     transform="matrix(0.80000004,0,0,0.80000004,20.401808,12.383081)"
     id="g5810"
     style="fill:#33659a;fill-opacity:1" />
  <g
     transform="matrix(0.80000004,0,0,0.80000004,20.401808,12.383081)"
     id="g5812"
     style="fill:#33659a;fill-opacity:1" />
  <g
     transform="matrix(0.80000004,0,0,0.80000004,20.401808,12.383081)"
     id="g5814"
     style="fill:#33659a;fill-opacity:1" />
  <g
     transform="matrix(0.80000004,0,0,0.80000004,20.401808,12.383081)"
     id="g5816"
     style="fill:#33659a;fill-opacity:1" />
  <g
     transform="matrix(0.80000004,0,0,0.80000004,20.401808,12.383081)"
     id="g5818"
     style="fill:#33659a;fill-opacity:1" />
  <g
     transform="matrix(0.80000004,0,0,0.80000004,20.401808,12.383081)"
     id="g5820"
     style="fill:#33659a;fill-opacity:1" />
  <g
     transform="matrix(0.80000004,0,0,0.80000004,20.401808,12.383081)"
     id="g5822"
     style="fill:#33659a;fill-opacity:1" />
  <g
     transform="matrix(0.80000004,0,0,0.80000004,20.401808,12.383081)"
     id="g5824"
     style="fill:#33659a;fill-opacity:1" />
  <g
     transform="matrix(0.09062452,0,0,0.09062452,4.8183904,4.9395825)"
     id="g6233" />
  <g
     transform="matrix(0.09062452,0,0,0.09062452,4.8183904,4.9395825)"
     id="g6235" />
  <g
     transform="matrix(0.09062452,0,0,0.09062452,4.8183904,4.9395825)"
     id="g6237" />
  <g
     transform="matrix(0.09062452,0,0,0.09062452,4.8183904,4.9395825)"
     id="g6239" />
  <g
     transform="matrix(0.09062452,0,0,0.09062452,4.8183904,4.9395825)"
     id="g6241" />
  <g
     transform="matrix(0.09062452,0,0,0.09062452,4.8183904,4.9395825)"
     id="g6243" />
  <g
     transform="matrix(0.09062452,0,0,0.09062452,4.8183904,4.9395825)"
     id="g6245" />
  <g
     transform="matrix(0.09062452,0,0,0.09062452,4.8183904,4.9395825)"
     id="g6247" />
  <g
     transform="matrix(0.09062452,0,0,0.09062452,4.8183904,4.9395825)"
     id="g6249" />
  <g
     transform="matrix(0.09062452,0,0,0.09062452,4.8183904,4.9395825)"
     id="g6251" />
  <g
     transform="matrix(0.09062452,0,0,0.09062452,4.8183904,4.9395825)"
     id="g6253" />
  <g
     transform="matrix(0.09062452,0,0,0.09062452,4.8183904,4.9395825)"
     id="g6255" />
  <g
     transform="matrix(0.09062452,0,0,0.09062452,4.8183904,4.9395825)"
     id="g6257" />
  <g
     transform="matrix(0.09062452,0,0,0.09062452,4.8183904,4.9395825)"
     id="g6259" />
  <g
     transform="matrix(0.09062452,0,0,0.09062452,4.8183904,4.9395825)"
     id="g6261" />
  <g
     transform="matrix(0.0567675,0,0,0.0567675,5.8259542,4.3676893)"
     id="g6623"
     style="fill:#33659a;fill-opacity:1">
    <g
       id="g6625"
       style="fill:#33659a;fill-opacity:1">
      <path
         inkscape:connector-curvature="0"
         style="fill:#33659a;fill-opacity:1"
         d="m 464,352 -108,-149 -4,-7 c -3.333,-4.665 -8.833,-9.331 -16.5,-14 -7.667,-4.667 -16.5,-7 -26.5,-7 H 163 c -10,0 -19,2.5 -27,7.5 -8,5 -13.167,9.167 -15.5,12.5 -2.333,3.333 -3.833,6 -4.5,8 L 8,352 c -5.333,7.333 -8,15.333 -8,24 0,11.333 4.167,21.167 12.5,29.5 8.333,8.333 18.167,12.5 29.5,12.5 5.333,0 10.667,-1 16,-3 l 65,-19 v 65 h 226 v -65 l 65,19 c 5.333,2 10.667,3 16,3 11.333,0 21.167,-4.167 29.5,-12.5 8.333,-8.333 12.5,-18.167 12.5,-29.5 0,-8.667 -2.667,-16.667 -8,-24 z m -115,-39 -8,-3 c -11.333,-2.667 -21.5,-2.667 -30.5,0 -9,2.667 -15.5,7.667 -19.5,15 -4,7.333 -6.167,15 -6.5,23 -0.333,8 2.5,15.833 8.5,23.5 6,7.667 14.667,13.167 26,16.5 h 1 l -84,28 -84,-28 h 2 c 10.667,-3.333 19,-8.833 25,-16.5 6,-7.667 8.833,-15.5 8.5,-23.5 -0.333,-8 -2.5,-15.667 -6.5,-23 -4,-7.333 -10.5,-12.333 -19.5,-15 -9,-2.667 -19.167,-2.667 -30.5,0 l -8,3 v -87 l 113,37 113,-37 v 87 z"
         id="path6627" />
      <path
         inkscape:connector-curvature="0"
         style="fill:#33659a;fill-opacity:1"
         d="m 237.5,158 c 20.334,0 37.667,-7.167 52,-21.5 14.333,-14.334 21.5,-31.667 21.5,-52 0,-20.334 -7.167,-37.667 -21.5,-52 C 275.167,18.167 257.833,11 237.5,11 c -20.334,0 -37.667,7.167 -52,21.5 -14.333,14.333 -21.5,31.667 -21.5,52 0,20.333 7.167,37.667 21.5,52 14.333,14.333 31.667,21.5 52,21.5 z"
         id="path6629" />
    </g>
  </g>
  <g
     transform="matrix(0.0567675,0,0,0.0567675,5.9286505,4.1622967)"
     id="g6631" />
  <g
     transform="matrix(0.0567675,0,0,0.0567675,5.9286505,4.1622967)"
     id="g6633" />
  <g
     transform="matrix(0.0567675,0,0,0.0567675,5.9286505,4.1622967)"
     id="g6635" />
  <g
     transform="matrix(0.0567675,0,0,0.0567675,5.9286505,4.1622967)"
     id="g6637" />
  <g
     transform="matrix(0.0567675,0,0,0.0567675,5.9286505,4.1622967)"
     id="g6639" />
  <g
     transform="matrix(0.0567675,0,0,0.0567675,5.9286505,4.1622967)"
     id="g6641" />
  <g
     transform="matrix(0.0567675,0,0,0.0567675,5.9286505,4.1622967)"
     id="g6643" />
  <g
     transform="matrix(0.0567675,0,0,0.0567675,5.9286505,4.1622967)"
     id="g6645" />
  <g
     transform="matrix(0.0567675,0,0,0.0567675,5.9286505,4.1622967)"
     id="g6647" />
  <g
     transform="matrix(0.0567675,0,0,0.0567675,5.9286505,4.1622967)"
     id="g6649" />
  <g
     transform="matrix(0.0567675,0,0,0.0567675,5.9286505,4.1622967)"
     id="g6651" />
  <g
     transform="matrix(0.0567675,0,0,0.0567675,5.9286505,4.1622967)"
     id="g6653" />
  <g
     transform="matrix(0.0567675,0,0,0.0567675,5.9286505,4.1622967)"
     id="g6655" />
  <g
     transform="matrix(0.0567675,0,0,0.0567675,5.9286505,4.1622967)"
     id="g6657" />
  <g
     transform="matrix(0.0567675,0,0,0.0567675,5.9286505,4.1622967)"
     id="g6659" />
</svg>
