<?xml version="1.0" encoding="UTF-8" standalone="no"?>
<!-- Created with Inkscape (http://www.inkscape.org/) -->

<svg
   xmlns:dc="http://purl.org/dc/elements/1.1/"
   xmlns:cc="http://creativecommons.org/ns#"
   xmlns:rdf="http://www.w3.org/1999/02/22-rdf-syntax-ns#"
   xmlns:svg="http://www.w3.org/2000/svg"
   xmlns="http://www.w3.org/2000/svg"
   version="1.1"
   width="100%"
   height="100%"
   viewBox="0 0 46 46"
   id="Layer_1"
   xml:space="preserve"><metadata
   id="metadata4205"><rdf:RDF><cc:Work
       rdf:about=""><dc:format>image/svg+xml</dc:format><dc:type
         rdf:resource="http://purl.org/dc/dcmitype/StillImage" /><dc:title></dc:title></cc:Work></rdf:RDF></metadata><defs
   id="defs4203" />
<circle
   cx="23"
   cy="23"
   r="23"
   id="circle4197"
   style="opacity:0.5;fill:#001022" />

<path
   d="m 35.642803,9.2750443 c -0.240704,-0.1158328 -0.528252,-0.070117 -0.720905,0.114929 -1.469751,1.4104787 -4.002257,3.4956947 -7.720504,5.4196647 -0.162603,0.0842 -0.281448,0.233925 -0.326335,0.411439 -0.303365,1.198094 -0.898721,2.50577 -1.769275,3.886725 l -0.354352,0.561993 0.660654,-2.877368 c 0.05385,-0.234603 -0.02847,-0.479599 -0.212988,-0.634143 -0.184594,-0.154544 -0.440285,-0.192503 -0.661708,-0.09813 l -0.07644,0.03223 c -7.502169,3.157988 -9.71926,8.049551 -10.373135,10.684031 -0.226921,0.914387 -0.340118,1.81981 -0.336277,2.691569 0.0015,0.336352 0.02049,0.656888 0.05649,0.956863 l -5.0000906,5.098978 c -0.241833,0.246502 -0.244469,0.640545 -0.00587,0.890361 0.1255483,0.131423 0.2940255,0.198 0.4631052,0.198 0.1521341,0 0.3046448,-0.054 0.426578,-0.162979 L 23.431104,24.108947 c 0.06748,0.0044 -7.823157,8.26992 -7.751684,8.26992 1.070964,0 2.550355,-0.493683 4.278131,-1.427199 2.329836,-1.259023 4.933664,-3.19105 7.52981,-5.587162 0.213289,-0.19672 0.267439,-0.512512 0.132025,-0.769181 -0.135414,-0.256595 -0.426427,-0.390202 -0.709457,-0.32498 l -1.608931,0.369339 0.562218,-0.354427 c 1.569165,-0.989323 3.03613,-1.620077 4.359998,-1.87509 0.143171,-0.02764 0.272787,-0.103331 0.367155,-0.21457 3.11408,-3.671553 4.43245,-7.299348 4.989998,-9.696138 0.202595,-0.871156 0.344863,-1.742312 0.422286,-2.5892925 0.02425,-0.2660087 -0.119072,-0.5192894 -0.35985,-0.6351222 z"
   id="path4024"
   style="fill:#ffffff;fill-opacity:1;fill-rule:evenodd" /></svg>