<?xml version="1.0" encoding="UTF-8" standalone="no"?>
<!-- Created with Inkscape (http://www.inkscape.org/) -->

<svg
   xmlns:dc="http://purl.org/dc/elements/1.1/"
   xmlns:cc="http://creativecommons.org/ns#"
   xmlns:rdf="http://www.w3.org/1999/02/22-rdf-syntax-ns#"
   xmlns:svg="http://www.w3.org/2000/svg"
   xmlns="http://www.w3.org/2000/svg"
   xmlns:sodipodi="http://sodipodi.sourceforge.net/DTD/sodipodi-0.dtd"
   xmlns:inkscape="http://www.inkscape.org/namespaces/inkscape"
   version="1.1"
   width="48"
   height="48"
   viewBox="0 0 38.400002 38.399998"
   id="svg3013"
   style="fill-rule:evenodd"
   inkscape:version="0.48.5 r10040"
   sodipodi:docname="programy-nauczania.svg">
  <sodipodi:namedview
     pagecolor="#ffffff"
     bordercolor="#666666"
     borderopacity="1"
     objecttolerance="10"
     gridtolerance="10"
     guidetolerance="10"
     inkscape:pageopacity="0"
     inkscape:pageshadow="2"
     inkscape:window-width="1600"
     inkscape:window-height="848"
     id="namedview6"
     showgrid="false"
     inkscape:zoom="5.5083333"
     inkscape:cx="90.105923"
     inkscape:cy="-10.404524"
     inkscape:window-x="-8"
     inkscape:window-y="588"
     inkscape:window-maximized="1"
     inkscape:current-layer="svg3013"
     fit-margin-top="0"
     fit-margin-left="0"
     fit-margin-right="0"
     fit-margin-bottom="0" />
  <metadata
     id="metadata3029">
    <rdf:RDF>
      <cc:Work
         rdf:about="">
        <dc:format>image/svg+xml</dc:format>
        <dc:type
           rdf:resource="http://purl.org/dc/dcmitype/StillImage" />
        <dc:title></dc:title>
      </cc:Work>
    </rdf:RDF>
  </metadata>
  <defs
     id="defs3027" />
  <path
     sodipodi:type="arc"
     style="fill:none;stroke:#00c7ff;stroke-width:1.88301038999999990;stroke-opacity:1"
     id="path2983"
     sodipodi:cx="23.625267"
     sodipodi:cy="23.074537"
     sodipodi:rx="22.096125"
     sodipodi:ry="22.096125"
     d="m 45.721392,23.074537 a 22.096125,22.096125 0 1 1 -44.1922496,0 22.096125,22.096125 0 1 1 44.1922496,0 z"
     transform="matrix(0.83341912,0,0,0.83341912,-0.48974807,-0.03076136)" />
  <g
     transform="matrix(0.04500003,0,0,0.04500003,7.2000007,7.1999987)"
     id="g3957"
     style="fill:#33659a;fill-opacity:1">
    <path
       id="path3959"
       d="m 455.229,78.105 c 50.367,50.367 78.104,117.333 78.104,188.563 0,71.229 -27.739,138.194 -78.104,188.561 -50.368,50.366 -117.333,78.104 -188.562,78.104 -71.229,0 -138.195,-27.738 -188.562,-78.104 C 27.738,404.862 0,337.896 0,266.668 0,195.439 27.736,128.472 78.104,78.105 128.472,27.738 195.438,0 266.667,0 337.896,0 404.861,27.738 455.229,78.105 z m -23.571,353.554 c 32.843,-32.843 54.681,-73.754 63.686,-118.262 -7.019,10.331 -13.732,14.165 -17.888,-8.961 -4.281,-37.703 -38.911,-13.618 -60.688,-27.011 -22.919,15.447 -74.43,-30.032 -65.676,21.263 13.507,23.137 72.921,-30.964 43.307,17.99 -18.893,34.176 -69.085,109.86 -62.555,149.093 0.823,57.158 -58.404,11.919 -78.81,-7.041 -13.727,-37.979 -4.678,-104.362 -40.572,-122.962 -38.959,-1.691 -72.398,-5.232 -87.497,-48.786 -9.086,-31.161 9.669,-77.549 43.062,-84.71 48.88,-30.711 66.341,35.965 112.183,37.205 14.233,-14.893 53.029,-19.628 56.246,-36.328 -30.078,-5.308 38.16,-25.291 -2.879,-36.657 -22.642,2.663 -37.229,23.476 -25.193,41.124 -43.874,10.23 -45.279,-63.492 -87.454,-40.238 -1.072,36.765 -68.865,11.919 -23.456,4.464 15.602,-6.816 -25.448,-26.57 -3.271,-22.98 10.894,-0.592 47.569,-13.444 37.644,-22.084 20.421,-12.677 37.583,30.359 57.572,-0.98 14.431,-24.097 -6.052,-28.546 -24.141,-16.332 -10.198,-11.418 18.006,-36.081 42.882,-46.738 8.29,-3.552 16.208,-5.487 22.263,-4.939 12.531,14.475 35.703,16.982 36.916,-1.741 -31.031,-14.861 -65.247,-22.712 -100.672,-22.712 -50.845,0 -99.203,16.158 -139.223,46.036 10.755,4.927 16.86,11.062 6.499,18.904 -8.05,23.987 -40.713,56.186 -69.387,51.627 -14.889,25.674 -24.694,53.961 -28.885,83.608 24.016,7.946 29.554,23.672 24.394,28.932 -12.237,10.671 -19.759,25.797 -23.633,42.355 7.817,47.832 30.298,91.914 65.245,126.862 44.069,44.069 102.663,68.34 164.99,68.34 62.325,0 120.92,-24.271 164.991,-68.341 z"
       inkscape:connector-curvature="0"
       style="fill:#33659a;fill-opacity:1" />
  </g>
  <g
     transform="matrix(0.04571383,0,0,0.04571383,43.163691,4.246916)"
     id="g3961" />
  <g
     transform="matrix(0.04571383,0,0,0.04571383,43.163691,4.246916)"
     id="g3963" />
  <g
     transform="matrix(0.04571383,0,0,0.04571383,43.163691,4.246916)"
     id="g3965" />
  <g
     transform="matrix(0.04571383,0,0,0.04571383,43.163691,4.246916)"
     id="g3967" />
  <g
     transform="matrix(0.04571383,0,0,0.04571383,43.163691,4.246916)"
     id="g3969" />
  <g
     transform="matrix(0.04571383,0,0,0.04571383,43.163691,4.246916)"
     id="g3971" />
  <g
     transform="matrix(0.04571383,0,0,0.04571383,43.163691,4.246916)"
     id="g3973" />
  <g
     transform="matrix(0.04571383,0,0,0.04571383,43.163691,4.246916)"
     id="g3975" />
  <g
     transform="matrix(0.04571383,0,0,0.04571383,43.163691,4.246916)"
     id="g3977" />
  <g
     transform="matrix(0.04571383,0,0,0.04571383,43.163691,4.246916)"
     id="g3979" />
  <g
     transform="matrix(0.04571383,0,0,0.04571383,43.163691,4.246916)"
     id="g3981" />
  <g
     transform="matrix(0.04571383,0,0,0.04571383,43.163691,4.246916)"
     id="g3983" />
  <g
     transform="matrix(0.04571383,0,0,0.04571383,43.163691,4.246916)"
     id="g3985" />
  <g
     transform="matrix(0.04571383,0,0,0.04571383,43.163691,4.246916)"
     id="g3987" />
  <g
     transform="matrix(0.04571383,0,0,0.04571383,43.163691,4.246916)"
     id="g3989" />
  <g
     transform="matrix(0.06874618,0,0,0.06874618,6.6942401,6.9421096)"
     id="g3807" />
  <g
     transform="matrix(0.06874618,0,0,0.06874618,6.6942401,6.9421096)"
     id="g3809" />
  <g
     transform="matrix(0.06874618,0,0,0.06874618,6.6942401,6.9421096)"
     id="g3811" />
  <g
     transform="matrix(0.06874618,0,0,0.06874618,6.6942401,6.9421096)"
     id="g3813" />
  <g
     transform="matrix(0.06874618,0,0,0.06874618,6.6942401,6.9421096)"
     id="g3815" />
  <g
     transform="matrix(0.06874618,0,0,0.06874618,6.6942401,6.9421096)"
     id="g3817" />
  <g
     transform="matrix(0.06874618,0,0,0.06874618,6.6942401,6.9421096)"
     id="g3819" />
  <g
     transform="matrix(0.06874618,0,0,0.06874618,6.6942401,6.9421096)"
     id="g3821" />
  <g
     transform="matrix(0.06874618,0,0,0.06874618,6.6942401,6.9421096)"
     id="g3823" />
  <g
     transform="matrix(0.06874618,0,0,0.06874618,6.6942401,6.9421096)"
     id="g3825" />
  <g
     transform="matrix(0.06874618,0,0,0.06874618,6.6942401,6.9421096)"
     id="g3827" />
  <g
     transform="matrix(0.06874618,0,0,0.06874618,6.6942401,6.9421096)"
     id="g3829" />
  <g
     transform="matrix(0.06874618,0,0,0.06874618,6.6942401,6.9421096)"
     id="g3831" />
  <g
     transform="matrix(0.06874618,0,0,0.06874618,6.6942401,6.9421096)"
     id="g3833" />
  <g
     transform="matrix(0.06874618,0,0,0.06874618,6.6942401,6.9421096)"
     id="g3835" />
</svg>
