<?xml version="1.0" encoding="utf-8"?>
<!-- Generator: Adobe Illustrator 18.1.1, SVG Export Plug-In . SVG Version: 6.00 Build 0)  -->
<svg version="1.1" id="Layer_1" xmlns="http://www.w3.org/2000/svg" xmlns:xlink="http://www.w3.org/1999/xlink" x="0px" y="0px"
	 viewBox="0 0 46 46" enable-background="new 0 0 46 46" xml:space="preserve">
<circle opacity="0.5" fill="#001022" cx="23" cy="23" r="23"/>
<g id="g3957_1_" transform="matrix(0.04500003,0,0,0.04500003,7.2000007,7.1999987)">
	<path id="path3959_1_" fill="#FFFFFF" d="M587.2,113.9c63,63,97.6,146.7,97.6,235.7
		c0,89-34.7,172.7-97.6,235.7c-63,63-146.7,97.6-235.7,97.6s-172.7-34.7-235.7-97.6c-63-63-97.6-146.7-97.6-235.7
		c0-89,34.7-172.7,97.6-235.7s146.7-97.6,235.7-97.6S524.3,51,587.2,113.9z M557.8,555.9c41.1-41.1,68.4-92.2,79.6-147.8
		c-8.8,12.9-17.2,17.7-22.4-11.2c-5.4-47.1-48.6-17-75.9-33.8c-28.6,19.3-93-37.5-82.1,26.6c16.9,28.9,91.2-38.7,54.1,22.5
		c-23.6,42.7-86.4,137.3-78.2,186.4c1,71.4-73,14.9-98.5-8.8c-17.2-47.5-5.8-130.5-50.7-153.7c-48.7-2.1-90.5-6.5-109.4-61
		c-11.4-39,12.1-96.9,53.8-105.9c61.1-38.4,82.9,45,140.2,46.5c17.8-18.6,66.3-24.5,70.3-45.4c-37.6-6.6,47.7-31.6-3.6-45.8
		c-28.3,3.3-46.5,29.3-31.5,51.4c-54.8,12.8-56.6-79.4-109.3-50.3c-1.3,46-86.1,14.9-29.3,5.6c19.5-8.5-31.8-33.2-4.1-28.7
		c13.6-0.7,59.5-16.8,47.1-27.6c25.5-15.8,47,37.9,72-1.2c18-30.1-7.6-35.7-30.2-20.4c-12.7-14.3,22.5-45.1,53.6-58.4
		c10.4-4.4,20.3-6.9,27.8-6.2c15.7,18.1,44.6,21.2,46.1-2.2C438.6,67.8,395.8,58,351.5,58c-63.6,0-124,20.2-174,57.5
		c13.4,6.2,21.1,13.8,8.1,23.6c-10.1,30-50.9,70.2-86.7,64.5C80.3,235.8,68,271.1,62.8,308.2c30,9.9,36.9,29.6,30.5,36.2
		c-15.3,13.3-24.7,32.2-29.5,52.9c9.8,59.8,37.9,114.9,81.6,158.6c55.1,55.1,128.3,85.4,206.2,85.4
		C429.4,641.3,502.7,611,557.8,555.9z"/>
</g>
</svg>
