<?xml version="1.0" encoding="UTF-8" standalone="no"?>
<!-- Created with Inkscape (http://www.inkscape.org/) -->

<svg
   xmlns:dc="http://purl.org/dc/elements/1.1/"
   xmlns:cc="http://creativecommons.org/ns#"
   xmlns:rdf="http://www.w3.org/1999/02/22-rdf-syntax-ns#"
   xmlns:svg="http://www.w3.org/2000/svg"
   xmlns="http://www.w3.org/2000/svg"
   version="1.1"
   width="100%"
   height="100%"
   viewBox="0 0 46 46"
   id="Layer_1"
   xml:space="preserve"><metadata
   id="metadata16"><rdf:RDF><cc:Work
       rdf:about=""><dc:format>image/svg+xml</dc:format><dc:type
         rdf:resource="http://purl.org/dc/dcmitype/StillImage" /><dc:title></dc:title></cc:Work></rdf:RDF></metadata><defs
   id="defs14" />
<circle
   cx="22.6"
   cy="23"
   r="23"
   transform="translate(0.39999962,0)"
   id="circle3"
   style="opacity:0.5;fill:#001022" />

<g
   transform="matrix(0.03102385,0,0,0.03102385,7.8321038,8.0152936)"
   id="g3247"
   style="fill:#ffffff"><g
     id="g3191"
     style="fill:#ffffff">
	<rect
   width="801.88202"
   height="466.883"
   x="86.629997"
   y="477.33701"
   id="rect3193"
   style="fill:#ffffff" />
	<polygon
   points="249.686,442.337 248.13,444.645 379.565,444.645 381.121,442.337 464.058,319.269 332.623,319.269 "
   id="polygon3195"
   style="fill:#ffffff" />
	<polygon
   points="509.804,442.337 508.249,444.645 639.684,444.645 641.24,442.337 724.177,319.269 592.742,319.269 "
   id="polygon3197"
   style="fill:#ffffff" />
	<polygon
   points="86.629,444.645 119.447,444.645 121.002,442.337 203.939,319.269 86.629,319.269 86.629,442.337 "
   id="polygon3199"
   style="fill:#ffffff" />
	<polygon
   points="768.368,444.645 888.511,444.645 888.511,442.337 888.511,319.269 852.861,319.269 769.923,442.337 "
   id="polygon3201"
   style="fill:#ffffff" />
	<polygon
   points="212.22,157.935 325.025,258.6 452.4,226.185 339.596,125.519 "
   id="polygon3203"
   style="fill:#ffffff" />
	<polygon
   points="464.304,93.783 577.108,194.448 704.484,162.033 591.68,61.367 "
   id="polygon3205"
   style="fill:#ffffff" />
	<polygon
   points="716.388,29.631 829.192,130.296 863.742,121.504 832.821,0 "
   id="polygon3207"
   style="fill:#ffffff" />
	<polygon
   points="87.512,189.672 55.708,197.765 86.629,319.269 200.316,290.337 "
   id="polygon3209"
   style="fill:#ffffff" />
</g><g
     id="g3211"
     style="fill:#ffffff">
</g><g
     id="g3213"
     style="fill:#ffffff">
</g><g
     id="g3215"
     style="fill:#ffffff">
</g><g
     id="g3217"
     style="fill:#ffffff">
</g><g
     id="g3219"
     style="fill:#ffffff">
</g><g
     id="g3221"
     style="fill:#ffffff">
</g><g
     id="g3223"
     style="fill:#ffffff">
</g><g
     id="g3225"
     style="fill:#ffffff">
</g><g
     id="g3227"
     style="fill:#ffffff">
</g><g
     id="g3229"
     style="fill:#ffffff">
</g><g
     id="g3231"
     style="fill:#ffffff">
</g><g
     id="g3233"
     style="fill:#ffffff">
</g><g
     id="g3235"
     style="fill:#ffffff">
</g><g
     id="g3237"
     style="fill:#ffffff">
</g><g
     id="g3239"
     style="fill:#ffffff">
</g></g></svg>