<?xml version="1.0" encoding="utf-8"?>
<!-- Generator: Adobe Illustrator 18.1.1, SVG Export Plug-In . SVG Version: 6.00 Build 0)  -->
<svg version="1.1" id="Layer_1" xmlns="http://www.w3.org/2000/svg" xmlns:xlink="http://www.w3.org/1999/xlink" x="0px" y="0px"
	 viewBox="0 0 46 46" enable-background="new 0 0 46 46" xml:space="preserve">
<circle opacity="0.5" fill="#001022" cx="23" cy="23" r="23"/>
<g id="g6226_1_" transform="matrix(0.09062452,0,0,0.09062452,5.0725801,5.0404446)">
	<g id="_x33_56._Play_1_">
		<g id="g6229_1_">
			<path id="path6231_1_" fill="#FFFFFF" d="M369.4,100.3c-54.2-93.9-174.2-126-268.1-71.8
				C7.5,82.7-24.7,202.7,29.5,296.6c54.2,93.9,174.2,126,268.1,71.8C391.5,314.2,423.6,194.2,369.4,100.3z M278,334.4
				c-75.1,43.4-171.1,17.6-214.5-57.5C20.1,201.8,45.9,105.8,121,62.5c75.1-43.4,171.1-17.6,214.5,57.5
				C378.8,195,353.1,291,278,334.4z M270.1,190.5l-102.8-59.9c-9.4-5.5-16.9-1.1-16.9,9.7l0.5,119c0,10.8,7.7,15.2,17.1,9.8
				l102-58.9C279.5,204.7,279.5,195.9,270.1,190.5z"/>
		</g>
	</g>
</g>
</svg>
