<?xml version="1.0" encoding="utf-8"?>
<!-- Generator: Adobe Illustrator 18.1.1, SVG Export Plug-In . SVG Version: 6.00 Build 0)  -->
<svg version="1.1" id="Layer_1" xmlns="http://www.w3.org/2000/svg" xmlns:xlink="http://www.w3.org/1999/xlink" x="0px" y="0px"
	 viewBox="0 0 46 46" enable-background="new 0 0 46 46" xml:space="preserve">
<circle opacity="0.5" fill="#001022" cx="23" cy="23" r="23"/>
<g id="g4896" transform="matrix(0.80000004,0,0,0.80000004,7.1087113,6.7929072)">
	<g id="g4898">
		<g id="g4900">
			<path id="path4902" fill="#FFFFFF" d="M11.8,20.8c2.8,0,5.1-2.3,5.1-5.1v-4.9
				c0-2.8-2.3-5.1-5.1-5.1s-5.1,2.3-5.1,5.1v4.9C6.7,18.5,9,20.8,11.8,20.8z"/>
			<path id="path4904" fill="#FFFFFF" d="M19.4,12c-0.7,0-1.2,0.6-1.2,1.2v5
				c0,3.5-2.8,6.3-6.3,6.3c-3.5,0-6.3-2.8-6.3-6.3v-5C5.5,12.5,5,12,4.3,12S3,12.5,3,13.2v5c0,4.2,3,7.7,6.9,8.6v7.7H7.9
				c-1,0-1.9,0.8-1.9,1.9s0.8,1.8,1.9,1.8h7.8c1,0,1.9-0.8,1.9-1.8c0-1-0.8-1.9-1.9-1.9h-2.1v-7.7c4-0.9,6.9-4.4,6.9-8.6v-5
				C20.6,12.5,20.1,12,19.4,12z"/>
			<path id="path4906" fill="#FFFFFF" d="M36.4,2c0-0.4-0.2-0.8-0.5-1c-0.3-0.2-0.7-0.3-1.1-0.2
				l-6.7,1.8c-0.5,0.1-0.9,0.6-0.9,1.2l0,8.8c-0.3-0.1-0.6-0.1-0.9-0.1c-1.5,0-2.7,0.9-2.7,1.9s1.2,1.9,2.7,1.9
				c1.5,0,2.7-0.9,2.7-1.9V6.5L34.6,5v5.2c-0.3-0.1-0.6-0.1-0.9-0.1c-1.5,0-2.7,0.9-2.7,1.9s1.2,1.9,2.7,1.9c1.5,0,2.7-0.9,2.7-1.9
				L36.4,2z"/>
		</g>
	</g>
</g>
</svg>
