<?xml version="1.0" encoding="UTF-8" standalone="no"?>
<!-- Created with Inkscape (http://www.inkscape.org/) -->

<svg
   xmlns:dc="http://purl.org/dc/elements/1.1/"
   xmlns:cc="http://creativecommons.org/ns#"
   xmlns:rdf="http://www.w3.org/1999/02/22-rdf-syntax-ns#"
   xmlns:svg="http://www.w3.org/2000/svg"
   xmlns="http://www.w3.org/2000/svg"
   version="1.1"
   width="48"
   height="48"
   viewBox="0 0 38.400002 38.399998"
   id="svg3013"
   style="fill-rule:evenodd">
  <metadata
     id="metadata3029">
    <rdf:RDF>
      <cc:Work
         rdf:about="">
        <dc:format>image/svg+xml</dc:format>
        <dc:type
           rdf:resource="http://purl.org/dc/dcmitype/StillImage" />
        <dc:title></dc:title>
      </cc:Work>
    </rdf:RDF>
  </metadata>
  <defs
     id="defs3027" />
  <path
     d="m 45.721392,23.074537 a 22.096125,22.096125 0 1 1 -44.1922496,0 22.096125,22.096125 0 1 1 44.1922496,0 z"
     transform="matrix(0.83341912,0,0,0.83341912,-0.48974807,-0.03076136)"
     id="path2983"
     style="fill:none;stroke:#00c7ff;stroke-width:1.88301039;stroke-opacity:1" />
  <g
     transform="matrix(0.04571383,0,0,0.04571383,43.163691,4.246916)"
     id="g3961" />
  <g
     transform="matrix(0.04571383,0,0,0.04571383,43.163691,4.246916)"
     id="g3963" />
  <g
     transform="matrix(0.04571383,0,0,0.04571383,43.163691,4.246916)"
     id="g3965" />
  <g
     transform="matrix(0.04571383,0,0,0.04571383,43.163691,4.246916)"
     id="g3967" />
  <g
     transform="matrix(0.04571383,0,0,0.04571383,43.163691,4.246916)"
     id="g3969" />
  <g
     transform="matrix(0.04571383,0,0,0.04571383,43.163691,4.246916)"
     id="g3971" />
  <g
     transform="matrix(0.04571383,0,0,0.04571383,43.163691,4.246916)"
     id="g3973" />
  <g
     transform="matrix(0.04571383,0,0,0.04571383,43.163691,4.246916)"
     id="g3975" />
  <g
     transform="matrix(0.04571383,0,0,0.04571383,43.163691,4.246916)"
     id="g3977" />
  <g
     transform="matrix(0.04571383,0,0,0.04571383,43.163691,4.246916)"
     id="g3979" />
  <g
     transform="matrix(0.04571383,0,0,0.04571383,43.163691,4.246916)"
     id="g3981" />
  <g
     transform="matrix(0.04571383,0,0,0.04571383,43.163691,4.246916)"
     id="g3983" />
  <g
     transform="matrix(0.04571383,0,0,0.04571383,43.163691,4.246916)"
     id="g3985" />
  <g
     transform="matrix(0.04571383,0,0,0.04571383,43.163691,4.246916)"
     id="g3987" />
  <g
     transform="matrix(0.04571383,0,0,0.04571383,43.163691,4.246916)"
     id="g3989" />
  <g
     transform="matrix(0.06874618,0,0,0.06874618,6.6942401,6.9421096)"
     id="g3807" />
  <g
     transform="matrix(0.06874618,0,0,0.06874618,6.6942401,6.9421096)"
     id="g3809" />
  <g
     transform="matrix(0.06874618,0,0,0.06874618,6.6942401,6.9421096)"
     id="g3811" />
  <g
     transform="matrix(0.06874618,0,0,0.06874618,6.6942401,6.9421096)"
     id="g3813" />
  <g
     transform="matrix(0.06874618,0,0,0.06874618,6.6942401,6.9421096)"
     id="g3815" />
  <g
     transform="matrix(0.06874618,0,0,0.06874618,6.6942401,6.9421096)"
     id="g3817" />
  <g
     transform="matrix(0.06874618,0,0,0.06874618,6.6942401,6.9421096)"
     id="g3819" />
  <g
     transform="matrix(0.06874618,0,0,0.06874618,6.6942401,6.9421096)"
     id="g3821" />
  <g
     transform="matrix(0.06874618,0,0,0.06874618,6.6942401,6.9421096)"
     id="g3823" />
  <g
     transform="matrix(0.06874618,0,0,0.06874618,6.6942401,6.9421096)"
     id="g3825" />
  <g
     transform="matrix(0.06874618,0,0,0.06874618,6.6942401,6.9421096)"
     id="g3827" />
  <g
     transform="matrix(0.06874618,0,0,0.06874618,6.6942401,6.9421096)"
     id="g3829" />
  <g
     transform="matrix(0.06874618,0,0,0.06874618,6.6942401,6.9421096)"
     id="g3831" />
  <g
     transform="matrix(0.06874618,0,0,0.06874618,6.6942401,6.9421096)"
     id="g3833" />
  <g
     transform="matrix(0.06874618,0,0,0.06874618,6.6942401,6.9421096)"
     id="g3835" />
  <g
     transform="matrix(0.80000004,0,0,0.80000004,6.8150226,6.4378103)"
     id="g4379"
     style="fill:#33659a;fill-opacity:1" />
  <g
     transform="matrix(0.80000004,0,0,0.80000004,6.8150226,6.4378103)"
     id="g4381"
     style="fill:#33659a;fill-opacity:1" />
  <g
     transform="matrix(0.80000004,0,0,0.80000004,6.8150226,6.4378103)"
     id="g4383"
     style="fill:#33659a;fill-opacity:1" />
  <g
     transform="matrix(0.80000004,0,0,0.80000004,6.8150226,6.4378103)"
     id="g4385"
     style="fill:#33659a;fill-opacity:1" />
  <g
     transform="matrix(0.80000004,0,0,0.80000004,6.8150226,6.4378103)"
     id="g4387"
     style="fill:#33659a;fill-opacity:1" />
  <g
     transform="matrix(0.80000004,0,0,0.80000004,6.8150226,6.4378103)"
     id="g4389"
     style="fill:#33659a;fill-opacity:1" />
  <g
     transform="matrix(0.80000004,0,0,0.80000004,6.8150226,6.4378103)"
     id="g4391"
     style="fill:#33659a;fill-opacity:1" />
  <g
     transform="matrix(0.80000004,0,0,0.80000004,6.8150226,6.4378103)"
     id="g4393"
     style="fill:#33659a;fill-opacity:1" />
  <g
     transform="matrix(0.80000004,0,0,0.80000004,6.8150226,6.4378103)"
     id="g4395"
     style="fill:#33659a;fill-opacity:1" />
  <g
     transform="matrix(0.80000004,0,0,0.80000004,6.8150226,6.4378103)"
     id="g4397"
     style="fill:#33659a;fill-opacity:1" />
  <g
     transform="matrix(0.80000004,0,0,0.80000004,6.8150226,6.4378103)"
     id="g4399"
     style="fill:#33659a;fill-opacity:1" />
  <g
     transform="matrix(0.80000004,0,0,0.80000004,6.8150226,6.4378103)"
     id="g4401"
     style="fill:#33659a;fill-opacity:1" />
  <g
     transform="matrix(0.80000004,0,0,0.80000004,6.8150226,6.4378103)"
     id="g4403"
     style="fill:#33659a;fill-opacity:1" />
  <g
     transform="matrix(0.80000004,0,0,0.80000004,6.8150226,6.4378103)"
     id="g4405"
     style="fill:#33659a;fill-opacity:1" />
  <g
     transform="matrix(0.80000004,0,0,0.80000004,6.8150226,6.4378103)"
     id="g4407"
     style="fill:#33659a;fill-opacity:1" />
  <g
     transform="matrix(0.41553563,0,0,0.41553563,3.8251828,4.6243484)"
     id="g3077"
     style="fill:#33659a;fill-opacity:1">
    <g
       id="g3035"
       style="fill:#33659a;fill-opacity:1">
	<g
   id="g3037"
   style="fill:#33659a;fill-opacity:1">
		<path
   d="m 62.125,19.688 c -6.221,0 -11.327,4.809 -11.825,10.902 -0.184,-0.008 -0.364,-0.027 -0.55,-0.027 -0.186,0 -0.366,0.019 -0.549,0.027 -0.497,-6.094 -5.605,-10.902 -11.826,-10.902 -6.22,0 -11.328,4.809 -11.826,10.901 -0.183,-0.008 -0.364,-0.027 -0.549,-0.027 -0.439,0 -0.87,0.027 -1.297,0.073 C 23.228,24.52 18.11,19.687 11.875,19.687 5.327,19.688 0,25.016 0,31.563 c 0,6.547 5.327,11.874 11.875,11.874 0.439,0 0.87,-0.025 1.297,-0.072 0.475,6.114 5.593,10.948 11.828,10.948 6.22,0 11.328,-4.81 11.826,-10.901 0.183,0.008 0.363,0.026 0.549,0.026 0.186,0 0.366,-0.021 0.55,-0.026 0.496,6.094 5.604,10.901 11.825,10.901 6.221,0 11.328,-4.81 11.826,-10.901 0.183,0.008 0.363,0.026 0.549,0.026 C 68.673,43.438 74,38.109 74,31.563 74,25.017 68.673,19.688 62.125,19.688 z M 2,31.563 c 0,-5.445 4.43,-9.875 9.875,-9.875 5.266,0 9.57,4.146 9.848,9.345 -4.618,1.329 -8.089,5.384 -8.543,10.308 -0.428,0.06 -0.862,0.099 -1.306,0.099 C 6.429,41.438 2,37.007 2,31.563 z m 19.606,1.614 c -0.585,3.538 -3.051,6.438 -6.338,7.647 0.586,-3.537 3.051,-6.439 6.338,-7.647 z M 25,52.313 c -5.266,0 -9.57,-4.146 -9.848,-9.345 4.618,-1.329 8.089,-5.385 8.543,-10.308 0.428,-0.059 0.862,-0.099 1.306,-0.099 0.186,0 0.368,0.019 0.552,0.025 0.45,5.218 4.28,9.476 9.286,10.568 -0.371,5.114 -4.637,9.159 -9.839,9.159 z m 2.605,-19.391 c 3.757,1.031 6.62,4.225 7.165,8.156 -3.757,-1.032 -6.62,-4.224 -7.165,-8.156 z m 9.218,8.488 c -0.45,-5.216 -4.28,-9.474 -9.286,-10.569 0.372,-5.108 4.636,-9.153 9.839,-9.153 5.203,0 9.467,4.046 9.84,9.153 -5.006,1.096 -8.836,5.354 -9.286,10.569 -0.185,0.01 -0.365,0.027 -0.552,0.027 -0.187,0.001 -0.371,-0.018 -0.555,-0.027 z m 10.323,-8.488 c -0.545,3.934 -3.408,7.125 -7.166,8.156 0.545,-3.932 3.409,-7.125 7.166,-8.156 z m 2.604,19.391 c -5.202,0 -9.467,-4.045 -9.839,-9.153 5.006,-1.095 8.836,-5.353 9.286,-10.568 0.185,-0.01 0.365,-0.025 0.552,-0.025 0.187,0 0.368,0.019 0.553,0.025 0.449,5.218 4.279,9.476 9.285,10.568 -0.369,5.108 -4.635,9.153 -9.837,9.153 z m 2.605,-19.391 c 3.756,1.031 6.619,4.225 7.164,8.156 -3.755,-1.032 -6.619,-4.224 -7.164,-8.156 z m 9.77,8.516 c -0.186,0 -0.368,-0.019 -0.552,-0.026 -0.45,-5.216 -4.279,-9.474 -9.286,-10.569 0.372,-5.108 4.636,-9.153 9.839,-9.153 5.444,0 9.875,4.43 9.875,9.875 0,5.442 -4.431,9.873 -9.876,9.873 z"
   id="path3039"
   style="fill:#33659a;fill-opacity:1" />

	</g>

</g>
    <g
       id="g3041"
       style="fill:#33659a;fill-opacity:1">
</g>
    <g
       id="g3043"
       style="fill:#33659a;fill-opacity:1">
</g>
    <g
       id="g3045"
       style="fill:#33659a;fill-opacity:1">
</g>
    <g
       id="g3047"
       style="fill:#33659a;fill-opacity:1">
</g>
    <g
       id="g3049"
       style="fill:#33659a;fill-opacity:1">
</g>
    <g
       id="g3051"
       style="fill:#33659a;fill-opacity:1">
</g>
    <g
       id="g3053"
       style="fill:#33659a;fill-opacity:1">
</g>
    <g
       id="g3055"
       style="fill:#33659a;fill-opacity:1">
</g>
    <g
       id="g3057"
       style="fill:#33659a;fill-opacity:1">
</g>
    <g
       id="g3059"
       style="fill:#33659a;fill-opacity:1">
</g>
    <g
       id="g3061"
       style="fill:#33659a;fill-opacity:1">
</g>
    <g
       id="g3063"
       style="fill:#33659a;fill-opacity:1">
</g>
    <g
       id="g3065"
       style="fill:#33659a;fill-opacity:1">
</g>
    <g
       id="g3067"
       style="fill:#33659a;fill-opacity:1">
</g>
    <g
       id="g3069"
       style="fill:#33659a;fill-opacity:1">
</g>
  </g>
</svg>
