<?xml version="1.0" encoding="utf-8"?>
<!-- Generator: Adobe Illustrator 18.1.1, SVG Export Plug-In . SVG Version: 6.00 Build 0)  -->
<svg version="1.1" id="Layer_1" xmlns="http://www.w3.org/2000/svg" xmlns:xlink="http://www.w3.org/1999/xlink" x="0px" y="0px"
	 viewBox="0 0 46 46" enable-background="new 0 0 46 46" xml:space="preserve">
<circle opacity="0.5" fill="#001022" cx="23" cy="23" r="23"/>
<g id="g4540_1_" transform="matrix(0.08395392,0,0,0.08395392,5.2505953,5.7443854)">
	<g id="g4542_1_">
		<path id="path4544_1_" fill="#FFFFFF" d="M392.9,149.1c-1.7-12.7-1.9-34.7,9.9-42
			c0.2-0.1,0.4-0.3,0.6-0.5c9.7-3.1,16.4-7.4,11.1-13.3l-142.6-43L40.9,82.5c0,0-26.4,3.8-24.1,44.9c1.3,22.4,8.3,33.3,14.4,38.7
			l-19,5.7c-5.3,5.8,1.4,10.2,11.1,13.3c0.2,0.2,0.3,0.4,0.6,0.5c11.8,7.4,11.6,29.3,9.9,42c-42.5,12.1-27.2,16-27.2,16l9.3,2.3
			C9.4,251.8,2.9,263,4.1,284.3c2.4,41.1,24.1,43.9,24.1,43.9l151.1,49.1l228.1-55.3c0,0,15.2-3.9-27.2-16
			c-1.7-12.7-1.9-34.6,9.9-42c0.2-0.1,0.4-0.3,0.6-0.5c9.7-3.1,16.4-7.4,11.1-13.3l-9.9-3c6.6-4,16.5-14.4,18.1-41.5
			c1.1-18.6-3.8-29.5-9.4-35.9l19.6-4.7C420.1,165.1,435.4,161.2,392.9,149.1z M202.1,148.6l38.4-7.9l129.6-26.6l19.3-4
			c-6.2,11.3-5.9,26.8-4.9,36.7c0.2,2.2,0.5,4.3,0.7,5.9l-21.1,5.3l-163.6,40.7L202.1,148.6z M37.3,188.6l19.3,4l124.5,25.6
			l10.9,2.2l0,0l0,0l32.6,6.7l1.6,50L58.1,235.2l-16.6-4.1c0.2-1.6,0.5-3.6,0.7-5.9C43.3,215.3,43.5,199.9,37.3,188.6z M29.8,125.4
			c-0.2-10.9,1.7-18.8,5.6-22.8c2.5-2.6,5.5-3.1,7.5-3.1c1.1,0,1.8,0.1,1.9,0.1l99.5,32.4l49.6,16.2l-1.6,50.4l-139.3-39l-7.3-2.1
			c-0.3-0.1-0.6-0.1-0.9-0.1C44.3,157.3,30.5,156,29.8,125.4z M179.7,355.5L33.1,314.4c-0.3-0.1-0.6-0.1-0.9-0.1
			c-0.6,0-14.4-1.3-15-31.9c-0.2-10.9,1.7-18.8,5.6-22.9c2.5-2.6,5.5-3.1,7.5-3.1c1.1,0,1.8,0.1,1.9,0.1c0,0,0,0,0,0l149.1,48.6
			L179.7,355.5z M371.8,303.7c0.2,2.3,0.5,4.3,0.7,5.9l-184.8,46l1.6-50l39.5-8.1l5.8,1.4l21.9-7.1L357.4,271l19.3-4
			C370.5,278.3,370.8,293.8,371.8,303.7z M382,235.8c-0.3,0-0.7,0.1-1,0.2l-13.9,3.9L234.4,277l-1.6-50.4l43.5-14.2l105.4-34.4
			c0,0,5.5-1.2,9.6,2.9c3.9,4,5.9,11.9,5.6,22.8C396.3,234.4,382.5,235.7,382,235.8z"/>
	</g>
</g>
</svg>
