<?xml version="1.0" encoding="utf-8"?>
<!-- Generator: Adobe Illustrator 18.1.1, SVG Export Plug-In . SVG Version: 6.00 Build 0)  -->
<svg version="1.1" id="Layer_1" xmlns="http://www.w3.org/2000/svg" xmlns:xlink="http://www.w3.org/1999/xlink" x="0px" y="0px"
	 viewBox="0 0 46 46" enable-background="new 0 0 46 46" xml:space="preserve">
<circle opacity="0.5" fill="#001022" cx="23" cy="23" r="23"/>
<path id="path3153_1_" fill="#FFFFFF" d="M15.4,25.1h-3.5v5.3c0,0.8-0.2,1.3-0.5,1.7c-0.4,0.4-0.8,0.6-1.3,0.6c-0.6,0-1-0.2-1.4-0.6
	c-0.3-0.4-0.5-1-0.5-1.7V16.1c0-0.8,0.2-1.4,0.6-1.8c0.4-0.4,1-0.5,1.8-0.5h4.8c1.4,0,2.5,0.1,3.3,0.3c0.8,0.2,1.4,0.6,2,1.1
	c0.6,0.5,1,1.1,1.3,1.8c0.3,0.7,0.4,1.5,0.4,2.4c0,1.9-0.6,3.3-1.8,4.3C19.4,24.7,17.7,25.1,15.4,25.1z M14.5,16.6h-2.5v5.7h2.5
	c0.9,0,1.6-0.1,2.2-0.3c0.6-0.2,1.1-0.5,1.4-0.9c0.3-0.4,0.5-1,0.5-1.7c0-0.8-0.2-1.5-0.7-2C17.3,16.9,16.2,16.6,14.5,16.6z"/>
<path id="path3155_1_" fill="#FFFFFF" d="M32.4,25.1h-3.5v5.3c0,0.8-0.2,1.3-0.5,1.7c-0.4,0.4-0.8,0.6-1.3,0.6c-0.6,0-1-0.2-1.4-0.6
	c-0.3-0.4-0.5-1-0.5-1.7V16.1c0-0.8,0.2-1.4,0.6-1.8c0.4-0.4,1-0.5,1.8-0.5h4.8c1.4,0,2.5,0.1,3.3,0.3c0.8,0.2,1.4,0.6,2,1.1
	c0.6,0.5,1,1.1,1.3,1.8c0.3,0.7,0.4,1.5,0.4,2.4c0,1.9-0.6,3.3-1.8,4.3C36.4,24.7,34.7,25.1,32.4,25.1z M31.5,16.6h-2.5v5.7h2.5
	c0.9,0,1.6-0.1,2.2-0.3c0.6-0.2,1.1-0.5,1.4-0.9c0.3-0.4,0.5-1,0.5-1.7c0-0.8-0.2-1.5-0.7-2C34.3,16.9,33.1,16.6,31.5,16.6z"/>
</svg>
