<?xml version="1.0" encoding="UTF-8" standalone="no"?>
<!-- Created with Inkscape (http://www.inkscape.org/) -->

<svg
   xmlns:dc="http://purl.org/dc/elements/1.1/"
   xmlns:cc="http://creativecommons.org/ns#"
   xmlns:rdf="http://www.w3.org/1999/02/22-rdf-syntax-ns#"
   xmlns:svg="http://www.w3.org/2000/svg"
   xmlns="http://www.w3.org/2000/svg"
   version="1.1"
   width="48"
   height="48"
   viewBox="0 0 38.400002 38.399998"
   id="svg3013"
   style="fill-rule:evenodd">
  <metadata
     id="metadata3029">
    <rdf:RDF>
      <cc:Work
         rdf:about="">
        <dc:format>image/svg+xml</dc:format>
        <dc:type
           rdf:resource="http://purl.org/dc/dcmitype/StillImage" />
        <dc:title></dc:title>
      </cc:Work>
    </rdf:RDF>
  </metadata>
  <defs
     id="defs3027" />
  <path
     d="m 45.721392,23.074537 a 22.096125,22.096125 0 1 1 -44.1922496,0 22.096125,22.096125 0 1 1 44.1922496,0 z"
     transform="matrix(0.83341912,0,0,0.83341912,-0.48974826,-0.03076155)"
     id="path2983"
     style="fill:none;stroke:#00c7ff;stroke-width:1.88301039;stroke-opacity:1" />
  <g
     transform="matrix(0.04571383,0,0,0.04571383,43.163691,4.246916)"
     id="g3961" />
  <g
     transform="matrix(0.04571383,0,0,0.04571383,43.163691,4.246916)"
     id="g3963" />
  <g
     transform="matrix(0.04571383,0,0,0.04571383,43.163691,4.246916)"
     id="g3965" />
  <g
     transform="matrix(0.04571383,0,0,0.04571383,43.163691,4.246916)"
     id="g3967" />
  <g
     transform="matrix(0.04571383,0,0,0.04571383,43.163691,4.246916)"
     id="g3969" />
  <g
     transform="matrix(0.04571383,0,0,0.04571383,43.163691,4.246916)"
     id="g3971" />
  <g
     transform="matrix(0.04571383,0,0,0.04571383,43.163691,4.246916)"
     id="g3973" />
  <g
     transform="matrix(0.04571383,0,0,0.04571383,43.163691,4.246916)"
     id="g3975" />
  <g
     transform="matrix(0.04571383,0,0,0.04571383,43.163691,4.246916)"
     id="g3977" />
  <g
     transform="matrix(0.04571383,0,0,0.04571383,43.163691,4.246916)"
     id="g3979" />
  <g
     transform="matrix(0.04571383,0,0,0.04571383,43.163691,4.246916)"
     id="g3981" />
  <g
     transform="matrix(0.04571383,0,0,0.04571383,43.163691,4.246916)"
     id="g3983" />
  <g
     transform="matrix(0.04571383,0,0,0.04571383,43.163691,4.246916)"
     id="g3985" />
  <g
     transform="matrix(0.04571383,0,0,0.04571383,43.163691,4.246916)"
     id="g3987" />
  <g
     transform="matrix(0.04571383,0,0,0.04571383,43.163691,4.246916)"
     id="g3989" />
  <g
     transform="matrix(0.06874618,0,0,0.06874618,6.6942401,6.9421096)"
     id="g3807" />
  <g
     transform="matrix(0.06874618,0,0,0.06874618,6.6942401,6.9421096)"
     id="g3809" />
  <g
     transform="matrix(0.06874618,0,0,0.06874618,6.6942401,6.9421096)"
     id="g3811" />
  <g
     transform="matrix(0.06874618,0,0,0.06874618,6.6942401,6.9421096)"
     id="g3813" />
  <g
     transform="matrix(0.06874618,0,0,0.06874618,6.6942401,6.9421096)"
     id="g3815" />
  <g
     transform="matrix(0.06874618,0,0,0.06874618,6.6942401,6.9421096)"
     id="g3817" />
  <g
     transform="matrix(0.06874618,0,0,0.06874618,6.6942401,6.9421096)"
     id="g3819" />
  <g
     transform="matrix(0.06874618,0,0,0.06874618,6.6942401,6.9421096)"
     id="g3821" />
  <g
     transform="matrix(0.06874618,0,0,0.06874618,6.6942401,6.9421096)"
     id="g3823" />
  <g
     transform="matrix(0.06874618,0,0,0.06874618,6.6942401,6.9421096)"
     id="g3825" />
  <g
     transform="matrix(0.06874618,0,0,0.06874618,6.6942401,6.9421096)"
     id="g3827" />
  <g
     transform="matrix(0.06874618,0,0,0.06874618,6.6942401,6.9421096)"
     id="g3829" />
  <g
     transform="matrix(0.06874618,0,0,0.06874618,6.6942401,6.9421096)"
     id="g3831" />
  <g
     transform="matrix(0.06874618,0,0,0.06874618,6.6942401,6.9421096)"
     id="g3833" />
  <g
     transform="matrix(0.06874618,0,0,0.06874618,6.6942401,6.9421096)"
     id="g3835" />
  <g
     transform="matrix(0.80000004,0,0,0.80000004,6.8150226,6.4378103)"
     id="g4379"
     style="fill:#33659a;fill-opacity:1" />
  <g
     transform="matrix(0.80000004,0,0,0.80000004,6.8150226,6.4378103)"
     id="g4381"
     style="fill:#33659a;fill-opacity:1" />
  <g
     transform="matrix(0.80000004,0,0,0.80000004,6.8150226,6.4378103)"
     id="g4383"
     style="fill:#33659a;fill-opacity:1" />
  <g
     transform="matrix(0.80000004,0,0,0.80000004,6.8150226,6.4378103)"
     id="g4385"
     style="fill:#33659a;fill-opacity:1" />
  <g
     transform="matrix(0.80000004,0,0,0.80000004,6.8150226,6.4378103)"
     id="g4387"
     style="fill:#33659a;fill-opacity:1" />
  <g
     transform="matrix(0.80000004,0,0,0.80000004,6.8150226,6.4378103)"
     id="g4389"
     style="fill:#33659a;fill-opacity:1" />
  <g
     transform="matrix(0.80000004,0,0,0.80000004,6.8150226,6.4378103)"
     id="g4391"
     style="fill:#33659a;fill-opacity:1" />
  <g
     transform="matrix(0.80000004,0,0,0.80000004,6.8150226,6.4378103)"
     id="g4393"
     style="fill:#33659a;fill-opacity:1" />
  <g
     transform="matrix(0.80000004,0,0,0.80000004,6.8150226,6.4378103)"
     id="g4395"
     style="fill:#33659a;fill-opacity:1" />
  <g
     transform="matrix(0.80000004,0,0,0.80000004,6.8150226,6.4378103)"
     id="g4397"
     style="fill:#33659a;fill-opacity:1" />
  <g
     transform="matrix(0.80000004,0,0,0.80000004,6.8150226,6.4378103)"
     id="g4399"
     style="fill:#33659a;fill-opacity:1" />
  <g
     transform="matrix(0.80000004,0,0,0.80000004,6.8150226,6.4378103)"
     id="g4401"
     style="fill:#33659a;fill-opacity:1" />
  <g
     transform="matrix(0.80000004,0,0,0.80000004,6.8150226,6.4378103)"
     id="g4403"
     style="fill:#33659a;fill-opacity:1" />
  <g
     transform="matrix(0.80000004,0,0,0.80000004,6.8150226,6.4378103)"
     id="g4405"
     style="fill:#33659a;fill-opacity:1" />
  <g
     transform="matrix(0.80000004,0,0,0.80000004,6.8150226,6.4378103)"
     id="g4407"
     style="fill:#33659a;fill-opacity:1" />
  <g
     transform="matrix(0.08395392,0,0,0.08395392,5.1053608,5.7443854)"
     id="g4546"
     style="fill:#33659a;fill-opacity:1" />
  <g
     transform="matrix(0.08395392,0,0,0.08395392,5.1053608,5.7443854)"
     id="g4548"
     style="fill:#33659a;fill-opacity:1" />
  <g
     transform="matrix(0.08395392,0,0,0.08395392,5.1053608,5.7443854)"
     id="g4550"
     style="fill:#33659a;fill-opacity:1" />
  <g
     transform="matrix(0.08395392,0,0,0.08395392,5.1053608,5.7443854)"
     id="g4552"
     style="fill:#33659a;fill-opacity:1" />
  <g
     transform="matrix(0.08395392,0,0,0.08395392,5.1053608,5.7443854)"
     id="g4554"
     style="fill:#33659a;fill-opacity:1" />
  <g
     transform="matrix(0.08395392,0,0,0.08395392,5.1053608,5.7443854)"
     id="g4556"
     style="fill:#33659a;fill-opacity:1" />
  <g
     transform="matrix(0.08395392,0,0,0.08395392,5.1053608,5.7443854)"
     id="g4558"
     style="fill:#33659a;fill-opacity:1" />
  <g
     transform="matrix(0.08395392,0,0,0.08395392,5.1053608,5.7443854)"
     id="g4560"
     style="fill:#33659a;fill-opacity:1" />
  <g
     transform="matrix(0.08395392,0,0,0.08395392,5.1053608,5.7443854)"
     id="g4562"
     style="fill:#33659a;fill-opacity:1" />
  <g
     transform="matrix(0.08395392,0,0,0.08395392,5.1053608,5.7443854)"
     id="g4564"
     style="fill:#33659a;fill-opacity:1" />
  <g
     transform="matrix(0.08395392,0,0,0.08395392,5.1053608,5.7443854)"
     id="g4566"
     style="fill:#33659a;fill-opacity:1" />
  <g
     transform="matrix(0.08395392,0,0,0.08395392,5.1053608,5.7443854)"
     id="g4568"
     style="fill:#33659a;fill-opacity:1" />
  <g
     transform="matrix(0.08395392,0,0,0.08395392,5.1053608,5.7443854)"
     id="g4570"
     style="fill:#33659a;fill-opacity:1" />
  <g
     transform="matrix(0.08395392,0,0,0.08395392,5.1053608,5.7443854)"
     id="g4572"
     style="fill:#33659a;fill-opacity:1" />
  <g
     transform="matrix(0.08395392,0,0,0.08395392,5.1053608,5.7443854)"
     id="g4574"
     style="fill:#33659a;fill-opacity:1" />
  <g
     transform="matrix(0.06391589,0,0,0.06391589,4.3663022,4.2587944)"
     id="g4697"
     style="fill:#33659a;fill-opacity:1" />
  <g
     transform="matrix(0.06391589,0,0,0.06391589,4.3663022,4.2587944)"
     id="g4699"
     style="fill:#33659a;fill-opacity:1" />
  <g
     transform="matrix(0.06391589,0,0,0.06391589,4.3663022,4.2587944)"
     id="g4701"
     style="fill:#33659a;fill-opacity:1" />
  <g
     transform="matrix(0.06391589,0,0,0.06391589,4.3663022,4.2587944)"
     id="g4703"
     style="fill:#33659a;fill-opacity:1" />
  <g
     transform="matrix(0.06391589,0,0,0.06391589,4.3663022,4.2587944)"
     id="g4705"
     style="fill:#33659a;fill-opacity:1" />
  <g
     transform="matrix(0.06391589,0,0,0.06391589,4.3663022,4.2587944)"
     id="g4707"
     style="fill:#33659a;fill-opacity:1" />
  <g
     transform="matrix(0.06391589,0,0,0.06391589,4.3663022,4.2587944)"
     id="g4709"
     style="fill:#33659a;fill-opacity:1" />
  <g
     transform="matrix(0.06391589,0,0,0.06391589,4.3663022,4.2587944)"
     id="g4711"
     style="fill:#33659a;fill-opacity:1" />
  <g
     transform="matrix(0.06391589,0,0,0.06391589,4.3663022,4.2587944)"
     id="g4713"
     style="fill:#33659a;fill-opacity:1" />
  <g
     transform="matrix(0.06391589,0,0,0.06391589,4.3663022,4.2587944)"
     id="g4715"
     style="fill:#33659a;fill-opacity:1" />
  <g
     transform="matrix(0.06391589,0,0,0.06391589,4.3663022,4.2587944)"
     id="g4717"
     style="fill:#33659a;fill-opacity:1" />
  <g
     transform="matrix(0.06391589,0,0,0.06391589,4.3663022,4.2587944)"
     id="g4719"
     style="fill:#33659a;fill-opacity:1" />
  <g
     transform="matrix(0.06391589,0,0,0.06391589,4.3663022,4.2587944)"
     id="g4721"
     style="fill:#33659a;fill-opacity:1" />
  <g
     transform="matrix(0.06391589,0,0,0.06391589,4.3663022,4.2587944)"
     id="g4723"
     style="fill:#33659a;fill-opacity:1" />
  <g
     transform="matrix(0.06391589,0,0,0.06391589,4.3663022,4.2587944)"
     id="g4725"
     style="fill:#33659a;fill-opacity:1" />
  <g
     transform="matrix(0.80000004,0,0,0.80000004,6.6979261,6.8956035)"
     id="g4908"
     style="fill:#33659a;fill-opacity:1" />
  <g
     transform="matrix(0.80000004,0,0,0.80000004,6.6979261,6.8956035)"
     id="g4910"
     style="fill:#33659a;fill-opacity:1" />
  <g
     transform="matrix(0.80000004,0,0,0.80000004,6.6979261,6.8956035)"
     id="g4912"
     style="fill:#33659a;fill-opacity:1" />
  <g
     transform="matrix(0.80000004,0,0,0.80000004,6.6979261,6.8956035)"
     id="g4914"
     style="fill:#33659a;fill-opacity:1" />
  <g
     transform="matrix(0.80000004,0,0,0.80000004,6.6979261,6.8956035)"
     id="g4916"
     style="fill:#33659a;fill-opacity:1" />
  <g
     transform="matrix(0.80000004,0,0,0.80000004,6.6979261,6.8956035)"
     id="g4918"
     style="fill:#33659a;fill-opacity:1" />
  <g
     transform="matrix(0.80000004,0,0,0.80000004,6.6979261,6.8956035)"
     id="g4920"
     style="fill:#33659a;fill-opacity:1" />
  <g
     transform="matrix(0.80000004,0,0,0.80000004,6.6979261,6.8956035)"
     id="g4922"
     style="fill:#33659a;fill-opacity:1" />
  <g
     transform="matrix(0.80000004,0,0,0.80000004,6.6979261,6.8956035)"
     id="g4924"
     style="fill:#33659a;fill-opacity:1" />
  <g
     transform="matrix(0.80000004,0,0,0.80000004,6.6979261,6.8956035)"
     id="g4926"
     style="fill:#33659a;fill-opacity:1" />
  <g
     transform="matrix(0.80000004,0,0,0.80000004,6.6979261,6.8956035)"
     id="g4928"
     style="fill:#33659a;fill-opacity:1" />
  <g
     transform="matrix(0.80000004,0,0,0.80000004,6.6979261,6.8956035)"
     id="g4930"
     style="fill:#33659a;fill-opacity:1" />
  <g
     transform="matrix(0.80000004,0,0,0.80000004,6.6979261,6.8956035)"
     id="g4932"
     style="fill:#33659a;fill-opacity:1" />
  <g
     transform="matrix(0.80000004,0,0,0.80000004,6.6979261,6.8956035)"
     id="g4934"
     style="fill:#33659a;fill-opacity:1" />
  <g
     transform="matrix(0.80000004,0,0,0.80000004,6.6979261,6.8956035)"
     id="g4936"
     style="fill:#33659a;fill-opacity:1" />
  <g
     transform="matrix(0.80000004,0,0,0.80000004,20.401808,12.383081)"
     id="g5796"
     style="fill:#33659a;fill-opacity:1" />
  <g
     transform="matrix(0.80000004,0,0,0.80000004,20.401808,12.383081)"
     id="g5798"
     style="fill:#33659a;fill-opacity:1" />
  <g
     transform="matrix(0.80000004,0,0,0.80000004,20.401808,12.383081)"
     id="g5800"
     style="fill:#33659a;fill-opacity:1" />
  <g
     transform="matrix(0.80000004,0,0,0.80000004,20.401808,12.383081)"
     id="g5802"
     style="fill:#33659a;fill-opacity:1" />
  <g
     transform="matrix(0.80000004,0,0,0.80000004,20.401808,12.383081)"
     id="g5804"
     style="fill:#33659a;fill-opacity:1" />
  <g
     transform="matrix(0.80000004,0,0,0.80000004,20.401808,12.383081)"
     id="g5806"
     style="fill:#33659a;fill-opacity:1" />
  <g
     transform="matrix(0.80000004,0,0,0.80000004,20.401808,12.383081)"
     id="g5808"
     style="fill:#33659a;fill-opacity:1" />
  <g
     transform="matrix(0.80000004,0,0,0.80000004,20.401808,12.383081)"
     id="g5810"
     style="fill:#33659a;fill-opacity:1" />
  <g
     transform="matrix(0.80000004,0,0,0.80000004,20.401808,12.383081)"
     id="g5812"
     style="fill:#33659a;fill-opacity:1" />
  <g
     transform="matrix(0.80000004,0,0,0.80000004,20.401808,12.383081)"
     id="g5814"
     style="fill:#33659a;fill-opacity:1" />
  <g
     transform="matrix(0.80000004,0,0,0.80000004,20.401808,12.383081)"
     id="g5816"
     style="fill:#33659a;fill-opacity:1" />
  <g
     transform="matrix(0.80000004,0,0,0.80000004,20.401808,12.383081)"
     id="g5818"
     style="fill:#33659a;fill-opacity:1" />
  <g
     transform="matrix(0.80000004,0,0,0.80000004,20.401808,12.383081)"
     id="g5820"
     style="fill:#33659a;fill-opacity:1" />
  <g
     transform="matrix(0.80000004,0,0,0.80000004,20.401808,12.383081)"
     id="g5822"
     style="fill:#33659a;fill-opacity:1" />
  <g
     transform="matrix(0.80000004,0,0,0.80000004,20.401808,12.383081)"
     id="g5824"
     style="fill:#33659a;fill-opacity:1" />
  <g
     transform="matrix(0.09062452,0,0,0.09062452,4.8183904,4.9395825)"
     id="g6233" />
  <g
     transform="matrix(0.09062452,0,0,0.09062452,4.8183904,4.9395825)"
     id="g6235" />
  <g
     transform="matrix(0.09062452,0,0,0.09062452,4.8183904,4.9395825)"
     id="g6237" />
  <g
     transform="matrix(0.09062452,0,0,0.09062452,4.8183904,4.9395825)"
     id="g6239" />
  <g
     transform="matrix(0.09062452,0,0,0.09062452,4.8183904,4.9395825)"
     id="g6241" />
  <g
     transform="matrix(0.09062452,0,0,0.09062452,4.8183904,4.9395825)"
     id="g6243" />
  <g
     transform="matrix(0.09062452,0,0,0.09062452,4.8183904,4.9395825)"
     id="g6245" />
  <g
     transform="matrix(0.09062452,0,0,0.09062452,4.8183904,4.9395825)"
     id="g6247" />
  <g
     transform="matrix(0.09062452,0,0,0.09062452,4.8183904,4.9395825)"
     id="g6249" />
  <g
     transform="matrix(0.09062452,0,0,0.09062452,4.8183904,4.9395825)"
     id="g6251" />
  <g
     transform="matrix(0.09062452,0,0,0.09062452,4.8183904,4.9395825)"
     id="g6253" />
  <g
     transform="matrix(0.09062452,0,0,0.09062452,4.8183904,4.9395825)"
     id="g6255" />
  <g
     transform="matrix(0.09062452,0,0,0.09062452,4.8183904,4.9395825)"
     id="g6257" />
  <g
     transform="matrix(0.09062452,0,0,0.09062452,4.8183904,4.9395825)"
     id="g6259" />
  <g
     transform="matrix(0.09062452,0,0,0.09062452,4.8183904,4.9395825)"
     id="g6261" />
  <g
     transform="matrix(0.0567675,0,0,0.0567675,5.9286505,4.1622967)"
     id="g6631" />
  <g
     transform="matrix(0.0567675,0,0,0.0567675,5.9286505,4.1622967)"
     id="g6633" />
  <g
     transform="matrix(0.0567675,0,0,0.0567675,5.9286505,4.1622967)"
     id="g6635" />
  <g
     transform="matrix(0.0567675,0,0,0.0567675,5.9286505,4.1622967)"
     id="g6637" />
  <g
     transform="matrix(0.0567675,0,0,0.0567675,5.9286505,4.1622967)"
     id="g6639" />
  <g
     transform="matrix(0.0567675,0,0,0.0567675,5.9286505,4.1622967)"
     id="g6641" />
  <g
     transform="matrix(0.0567675,0,0,0.0567675,5.9286505,4.1622967)"
     id="g6643" />
  <g
     transform="matrix(0.0567675,0,0,0.0567675,5.9286505,4.1622967)"
     id="g6645" />
  <g
     transform="matrix(0.0567675,0,0,0.0567675,5.9286505,4.1622967)"
     id="g6647" />
  <g
     transform="matrix(0.0567675,0,0,0.0567675,5.9286505,4.1622967)"
     id="g6649" />
  <g
     transform="matrix(0.0567675,0,0,0.0567675,5.9286505,4.1622967)"
     id="g6651" />
  <g
     transform="matrix(0.0567675,0,0,0.0567675,5.9286505,4.1622967)"
     id="g6653" />
  <g
     transform="matrix(0.0567675,0,0,0.0567675,5.9286505,4.1622967)"
     id="g6655" />
  <g
     transform="matrix(0.0567675,0,0,0.0567675,5.9286505,4.1622967)"
     id="g6657" />
  <g
     transform="matrix(0.0567675,0,0,0.0567675,5.9286505,4.1622967)"
     id="g6659" />
  <g
     transform="matrix(1.1084823,0,0,1.1084823,7.9315466,6.690541)"
     id="g6848"
     style="fill:#33659a;fill-opacity:1" />
  <g
     transform="matrix(1.1084823,0,0,1.1084823,7.9315466,6.690541)"
     id="g6850"
     style="fill:#33659a;fill-opacity:1" />
  <g
     transform="matrix(1.1084823,0,0,1.1084823,7.9315466,6.690541)"
     id="g6852"
     style="fill:#33659a;fill-opacity:1" />
  <g
     transform="matrix(1.1084823,0,0,1.1084823,7.9315466,6.690541)"
     id="g6854"
     style="fill:#33659a;fill-opacity:1" />
  <g
     transform="matrix(1.1084823,0,0,1.1084823,7.9315466,6.690541)"
     id="g6856"
     style="fill:#33659a;fill-opacity:1" />
  <g
     transform="matrix(1.1084823,0,0,1.1084823,7.9315466,6.690541)"
     id="g6858"
     style="fill:#33659a;fill-opacity:1" />
  <g
     transform="matrix(1.1084823,0,0,1.1084823,7.9315466,6.690541)"
     id="g6860"
     style="fill:#33659a;fill-opacity:1" />
  <g
     transform="matrix(1.1084823,0,0,1.1084823,7.9315466,6.690541)"
     id="g6862"
     style="fill:#33659a;fill-opacity:1" />
  <g
     transform="matrix(1.1084823,0,0,1.1084823,7.9315466,6.690541)"
     id="g6864"
     style="fill:#33659a;fill-opacity:1" />
  <g
     transform="matrix(1.1084823,0,0,1.1084823,7.9315466,6.690541)"
     id="g6866"
     style="fill:#33659a;fill-opacity:1" />
  <g
     transform="matrix(1.1084823,0,0,1.1084823,7.9315466,6.690541)"
     id="g6868"
     style="fill:#33659a;fill-opacity:1" />
  <g
     transform="matrix(1.1084823,0,0,1.1084823,7.9315466,6.690541)"
     id="g6870"
     style="fill:#33659a;fill-opacity:1" />
  <g
     transform="matrix(1.1084823,0,0,1.1084823,7.9315466,6.690541)"
     id="g6872"
     style="fill:#33659a;fill-opacity:1" />
  <g
     transform="matrix(1.1084823,0,0,1.1084823,7.9315466,6.690541)"
     id="g6874"
     style="fill:#33659a;fill-opacity:1" />
  <g
     transform="matrix(1.1084823,0,0,1.1084823,7.9315466,6.690541)"
     id="g6876"
     style="fill:#33659a;fill-opacity:1" />
  <g
     transform="matrix(0.80000004,0,0,0.80000004,8.1878236,7.563406)"
     id="g7061"
     style="fill:#33659a;fill-opacity:1" />
  <g
     transform="matrix(0.80000004,0,0,0.80000004,8.1878236,7.563406)"
     id="g7063"
     style="fill:#33659a;fill-opacity:1" />
  <g
     transform="matrix(0.80000004,0,0,0.80000004,8.1878236,7.563406)"
     id="g7065"
     style="fill:#33659a;fill-opacity:1" />
  <g
     transform="matrix(0.80000004,0,0,0.80000004,8.1878236,7.563406)"
     id="g7067"
     style="fill:#33659a;fill-opacity:1" />
  <g
     transform="matrix(0.80000004,0,0,0.80000004,8.1878236,7.563406)"
     id="g7069"
     style="fill:#33659a;fill-opacity:1" />
  <g
     transform="matrix(0.80000004,0,0,0.80000004,8.1878236,7.563406)"
     id="g7071"
     style="fill:#33659a;fill-opacity:1" />
  <g
     transform="matrix(0.80000004,0,0,0.80000004,8.1878236,7.563406)"
     id="g7073"
     style="fill:#33659a;fill-opacity:1" />
  <g
     transform="matrix(0.80000004,0,0,0.80000004,8.1878236,7.563406)"
     id="g7075"
     style="fill:#33659a;fill-opacity:1" />
  <g
     transform="matrix(0.80000004,0,0,0.80000004,8.1878236,7.563406)"
     id="g7077"
     style="fill:#33659a;fill-opacity:1" />
  <g
     transform="matrix(0.80000004,0,0,0.80000004,8.1878236,7.563406)"
     id="g7079"
     style="fill:#33659a;fill-opacity:1" />
  <g
     transform="matrix(0.80000004,0,0,0.80000004,8.1878236,7.563406)"
     id="g7081"
     style="fill:#33659a;fill-opacity:1" />
  <g
     transform="matrix(0.80000004,0,0,0.80000004,8.1878236,7.563406)"
     id="g7083"
     style="fill:#33659a;fill-opacity:1" />
  <g
     transform="matrix(0.80000004,0,0,0.80000004,8.1878236,7.563406)"
     id="g7085"
     style="fill:#33659a;fill-opacity:1" />
  <g
     transform="matrix(0.80000004,0,0,0.80000004,8.1878236,7.563406)"
     id="g7087"
     style="fill:#33659a;fill-opacity:1" />
  <g
     transform="matrix(0.80000004,0,0,0.80000004,8.1878236,7.563406)"
     id="g7089"
     style="fill:#33659a;fill-opacity:1" />
  <path
     d="m 13.092026,20.964999 -2.766098,0 0,4.220334 c -4e-6,0.60339 -0.142376,1.061016 -0.4271178,1.372879 -0.2847495,0.311863 -0.6440705,0.467796 -1.0779643,0.467796 -0.4542395,0 -0.8203401,-0.154238 -1.0983038,-0.462711 C 7.4445754,26.254823 7.3055919,25.802283 7.3055939,25.205672 l 0,-11.491508 c -2e-6,-0.664391 0.1525406,-1.138966 0.4576267,-1.423726 0.3050813,-0.28473 0.7898265,-0.427103 1.4542345,-0.427118 l 3.8745709,0 c 1.145753,1.5e-5 2.027105,0.08815 2.644064,0.264406 0.610158,0.169506 1.137274,0.450862 1.581353,0.844067 0.444056,0.393233 0.781342,0.874588 1.011863,1.444066 0.230495,0.569502 0.345749,1.210178 0.345762,1.92203 -1.3e-5,1.518651 -0.467808,2.669495 -1.403388,3.452538 -0.935603,0.783056 -2.328818,1.17458 -4.179654,1.174572 z m -0.732203,-6.833885 -2.033895,0 0,4.555924 2.033895,0 c 0.711856,8e-6 1.30677,-0.07457 1.784744,-0.223727 0.477957,-0.149145 0.842361,-0.393212 1.093218,-0.732204 0.250837,-0.338973 0.376261,-0.783039 0.376271,-1.332201 -10e-6,-0.657615 -0.19323,-1.193207 -0.579659,-1.606777 -0.433907,-0.440665 -1.325431,-0.661003 -2.674574,-0.661015 z"
     id="path3153"
     style="font-size:23.18448639px;font-style:normal;font-variant:normal;font-weight:normal;font-stretch:normal;line-height:125%;letter-spacing:0px;word-spacing:0px;fill:#33659a;fill-opacity:1;stroke:none;font-family:Arial Rounded MT Bold;-inkscape-font-specification:Arial Rounded MT Bold" />
  <path
     d="m 26.678566,20.964999 -2.766099,0 0,4.220334 c -3e-6,0.60339 -0.142376,1.061016 -0.427118,1.372879 -0.284748,0.311863 -0.64407,0.467796 -1.077964,0.467796 -0.454238,0 -0.82034,-0.154238 -1.098302,-0.462711 -0.277968,-0.308474 -0.416951,-0.761014 -0.416949,-1.357625 l 0,-11.491508 c -2e-6,-0.664391 0.15254,-1.138966 0.457627,-1.423726 0.305082,-0.28473 0.789826,-0.427103 1.454234,-0.427118 l 3.874571,0 c 1.145752,1.5e-5 2.027105,0.08815 2.644063,0.264406 0.610158,0.169506 1.137275,0.450862 1.581353,0.844067 0.444055,0.393233 0.781342,0.874588 1.011863,1.444066 0.230495,0.569502 0.345749,1.210178 0.345761,1.92203 -1.2e-5,1.518651 -0.467806,2.669495 -1.403386,3.452538 -0.935602,0.783056 -2.328819,1.17458 -4.179654,1.174572 z m -0.732203,-6.833885 -2.033896,0 0,4.555924 2.033896,0 c 0.711857,8e-6 1.306769,-0.07457 1.784743,-0.223727 0.477957,-0.149145 0.842362,-0.393212 1.093218,-0.732204 0.250837,-0.338973 0.37626,-0.783039 0.37627,-1.332201 -10e-6,-0.657615 -0.193229,-1.193207 -0.579659,-1.606777 -0.433907,-0.440665 -1.325429,-0.661003 -2.674572,-0.661015 z"
     id="path3155"
     style="font-size:23.18448639px;font-style:normal;font-variant:normal;font-weight:normal;font-stretch:normal;line-height:125%;letter-spacing:0px;word-spacing:0px;fill:#33659a;fill-opacity:1;stroke:none;font-family:Arial Rounded MT Bold;-inkscape-font-specification:Arial Rounded MT Bold" />
</svg>
