<?xml version="1.0" encoding="utf-8"?>
<!-- Generator: Adobe Illustrator 18.1.1, SVG Export Plug-In . SVG Version: 6.00 Build 0)  -->
<svg version="1.1" id="Layer_1" xmlns="http://www.w3.org/2000/svg" xmlns:xlink="http://www.w3.org/1999/xlink" x="0px" y="0px"
	 viewBox="0 0 46 46" enable-background="new 0 0 46 46" xml:space="preserve">
<circle opacity="0.5" fill="#001022" cx="23" cy="23" r="23"/>
<g id="g5786_1_" transform="matrix(0.80000004,0,0,0.80000004,6.0243259,5.8105178)">
	<g id="g5788_1_">
		<path id="path5790_1_" fill="#FFFFFF" d="M38.2,22.6c0-1.1-0.9-2-2-2H4.6c-1.1,0-2,0.9-2,2v1.3
			h2.5v13.2c0,1.6,1.3,3,3,3h24.8c1.6,0,3-1.3,3-3V23.9h2.4V22.6L38.2,22.6z"/>
		<path id="path5792_1_" fill="#FFFFFF" d="M28,15.2h1.8c1.3,0,2.4-1.1,2.4-2.4V2.4
			c0-1.1-0.9-1.9-1.9-1.9c-1.1,0-1.9,0.9-1.9,1.9v8.9h-1.7c-0.5-0.3-1-0.5-1.6-0.5h-9c-1.7,0-3,1.4-3,3v4.8H28L28,15.2z"/>
		
			<circle id="circle5794_1_" fill="#FFFFFF" cx="20.5" cy="4.8" r="4.3">
		</circle>
	</g>
</g>
</svg>
