<?xml version="1.0" encoding="UTF-8" standalone="no"?>
<!-- Created with Inkscape (http://www.inkscape.org/) -->

<svg
   xmlns:dc="http://purl.org/dc/elements/1.1/"
   xmlns:cc="http://creativecommons.org/ns#"
   xmlns:rdf="http://www.w3.org/1999/02/22-rdf-syntax-ns#"
   xmlns:svg="http://www.w3.org/2000/svg"
   xmlns="http://www.w3.org/2000/svg"
   version="1.1"
   width="48"
   height="48"
   viewBox="0 0 38.400002 38.399998"
   id="svg3013"
   style="fill-rule:evenodd">
  <metadata
     id="metadata3029">
    <rdf:RDF>
      <cc:Work
         rdf:about="">
        <dc:format>image/svg+xml</dc:format>
        <dc:type
           rdf:resource="http://purl.org/dc/dcmitype/StillImage" />
        <dc:title></dc:title>
      </cc:Work>
    </rdf:RDF>
  </metadata>
  <defs
     id="defs3027" />
  <path
     d="m 45.721392,23.074537 a 22.096125,22.096125 0 1 1 -44.1922496,0 22.096125,22.096125 0 1 1 44.1922496,0 z"
     transform="matrix(0.83341912,0,0,0.83341912,-0.48974826,-0.03076155)"
     id="path2983"
     style="fill:none;stroke:#00c7ff;stroke-width:1.88301039;stroke-opacity:1" />
  <g
     transform="matrix(0.04571383,0,0,0.04571383,43.163691,4.246916)"
     id="g3961" />
  <g
     transform="matrix(0.04571383,0,0,0.04571383,43.163691,4.246916)"
     id="g3963" />
  <g
     transform="matrix(0.04571383,0,0,0.04571383,43.163691,4.246916)"
     id="g3965" />
  <g
     transform="matrix(0.04571383,0,0,0.04571383,43.163691,4.246916)"
     id="g3967" />
  <g
     transform="matrix(0.04571383,0,0,0.04571383,43.163691,4.246916)"
     id="g3969" />
  <g
     transform="matrix(0.04571383,0,0,0.04571383,43.163691,4.246916)"
     id="g3971" />
  <g
     transform="matrix(0.04571383,0,0,0.04571383,43.163691,4.246916)"
     id="g3973" />
  <g
     transform="matrix(0.04571383,0,0,0.04571383,43.163691,4.246916)"
     id="g3975" />
  <g
     transform="matrix(0.04571383,0,0,0.04571383,43.163691,4.246916)"
     id="g3977" />
  <g
     transform="matrix(0.04571383,0,0,0.04571383,43.163691,4.246916)"
     id="g3979" />
  <g
     transform="matrix(0.04571383,0,0,0.04571383,43.163691,4.246916)"
     id="g3981" />
  <g
     transform="matrix(0.04571383,0,0,0.04571383,43.163691,4.246916)"
     id="g3983" />
  <g
     transform="matrix(0.04571383,0,0,0.04571383,43.163691,4.246916)"
     id="g3985" />
  <g
     transform="matrix(0.04571383,0,0,0.04571383,43.163691,4.246916)"
     id="g3987" />
  <g
     transform="matrix(0.04571383,0,0,0.04571383,43.163691,4.246916)"
     id="g3989" />
  <g
     transform="matrix(0.06874618,0,0,0.06874618,6.6942401,6.9421096)"
     id="g3807" />
  <g
     transform="matrix(0.06874618,0,0,0.06874618,6.6942401,6.9421096)"
     id="g3809" />
  <g
     transform="matrix(0.06874618,0,0,0.06874618,6.6942401,6.9421096)"
     id="g3811" />
  <g
     transform="matrix(0.06874618,0,0,0.06874618,6.6942401,6.9421096)"
     id="g3813" />
  <g
     transform="matrix(0.06874618,0,0,0.06874618,6.6942401,6.9421096)"
     id="g3815" />
  <g
     transform="matrix(0.06874618,0,0,0.06874618,6.6942401,6.9421096)"
     id="g3817" />
  <g
     transform="matrix(0.06874618,0,0,0.06874618,6.6942401,6.9421096)"
     id="g3819" />
  <g
     transform="matrix(0.06874618,0,0,0.06874618,6.6942401,6.9421096)"
     id="g3821" />
  <g
     transform="matrix(0.06874618,0,0,0.06874618,6.6942401,6.9421096)"
     id="g3823" />
  <g
     transform="matrix(0.06874618,0,0,0.06874618,6.6942401,6.9421096)"
     id="g3825" />
  <g
     transform="matrix(0.06874618,0,0,0.06874618,6.6942401,6.9421096)"
     id="g3827" />
  <g
     transform="matrix(0.06874618,0,0,0.06874618,6.6942401,6.9421096)"
     id="g3829" />
  <g
     transform="matrix(0.06874618,0,0,0.06874618,6.6942401,6.9421096)"
     id="g3831" />
  <g
     transform="matrix(0.06874618,0,0,0.06874618,6.6942401,6.9421096)"
     id="g3833" />
  <g
     transform="matrix(0.06874618,0,0,0.06874618,6.6942401,6.9421096)"
     id="g3835" />
  <g
     transform="matrix(0.80000004,0,0,0.80000004,6.8150226,6.4378103)"
     id="g4379"
     style="fill:#33659a;fill-opacity:1" />
  <g
     transform="matrix(0.80000004,0,0,0.80000004,6.8150226,6.4378103)"
     id="g4381"
     style="fill:#33659a;fill-opacity:1" />
  <g
     transform="matrix(0.80000004,0,0,0.80000004,6.8150226,6.4378103)"
     id="g4383"
     style="fill:#33659a;fill-opacity:1" />
  <g
     transform="matrix(0.80000004,0,0,0.80000004,6.8150226,6.4378103)"
     id="g4385"
     style="fill:#33659a;fill-opacity:1" />
  <g
     transform="matrix(0.80000004,0,0,0.80000004,6.8150226,6.4378103)"
     id="g4387"
     style="fill:#33659a;fill-opacity:1" />
  <g
     transform="matrix(0.80000004,0,0,0.80000004,6.8150226,6.4378103)"
     id="g4389"
     style="fill:#33659a;fill-opacity:1" />
  <g
     transform="matrix(0.80000004,0,0,0.80000004,6.8150226,6.4378103)"
     id="g4391"
     style="fill:#33659a;fill-opacity:1" />
  <g
     transform="matrix(0.80000004,0,0,0.80000004,6.8150226,6.4378103)"
     id="g4393"
     style="fill:#33659a;fill-opacity:1" />
  <g
     transform="matrix(0.80000004,0,0,0.80000004,6.8150226,6.4378103)"
     id="g4395"
     style="fill:#33659a;fill-opacity:1" />
  <g
     transform="matrix(0.80000004,0,0,0.80000004,6.8150226,6.4378103)"
     id="g4397"
     style="fill:#33659a;fill-opacity:1" />
  <g
     transform="matrix(0.80000004,0,0,0.80000004,6.8150226,6.4378103)"
     id="g4399"
     style="fill:#33659a;fill-opacity:1" />
  <g
     transform="matrix(0.80000004,0,0,0.80000004,6.8150226,6.4378103)"
     id="g4401"
     style="fill:#33659a;fill-opacity:1" />
  <g
     transform="matrix(0.80000004,0,0,0.80000004,6.8150226,6.4378103)"
     id="g4403"
     style="fill:#33659a;fill-opacity:1" />
  <g
     transform="matrix(0.80000004,0,0,0.80000004,6.8150226,6.4378103)"
     id="g4405"
     style="fill:#33659a;fill-opacity:1" />
  <g
     transform="matrix(0.80000004,0,0,0.80000004,6.8150226,6.4378103)"
     id="g4407"
     style="fill:#33659a;fill-opacity:1" />
  <g
     transform="matrix(0.08395392,0,0,0.08395392,5.1053608,5.7443854)"
     id="g4546"
     style="fill:#33659a;fill-opacity:1" />
  <g
     transform="matrix(0.08395392,0,0,0.08395392,5.1053608,5.7443854)"
     id="g4548"
     style="fill:#33659a;fill-opacity:1" />
  <g
     transform="matrix(0.08395392,0,0,0.08395392,5.1053608,5.7443854)"
     id="g4550"
     style="fill:#33659a;fill-opacity:1" />
  <g
     transform="matrix(0.08395392,0,0,0.08395392,5.1053608,5.7443854)"
     id="g4552"
     style="fill:#33659a;fill-opacity:1" />
  <g
     transform="matrix(0.08395392,0,0,0.08395392,5.1053608,5.7443854)"
     id="g4554"
     style="fill:#33659a;fill-opacity:1" />
  <g
     transform="matrix(0.08395392,0,0,0.08395392,5.1053608,5.7443854)"
     id="g4556"
     style="fill:#33659a;fill-opacity:1" />
  <g
     transform="matrix(0.08395392,0,0,0.08395392,5.1053608,5.7443854)"
     id="g4558"
     style="fill:#33659a;fill-opacity:1" />
  <g
     transform="matrix(0.08395392,0,0,0.08395392,5.1053608,5.7443854)"
     id="g4560"
     style="fill:#33659a;fill-opacity:1" />
  <g
     transform="matrix(0.08395392,0,0,0.08395392,5.1053608,5.7443854)"
     id="g4562"
     style="fill:#33659a;fill-opacity:1" />
  <g
     transform="matrix(0.08395392,0,0,0.08395392,5.1053608,5.7443854)"
     id="g4564"
     style="fill:#33659a;fill-opacity:1" />
  <g
     transform="matrix(0.08395392,0,0,0.08395392,5.1053608,5.7443854)"
     id="g4566"
     style="fill:#33659a;fill-opacity:1" />
  <g
     transform="matrix(0.08395392,0,0,0.08395392,5.1053608,5.7443854)"
     id="g4568"
     style="fill:#33659a;fill-opacity:1" />
  <g
     transform="matrix(0.08395392,0,0,0.08395392,5.1053608,5.7443854)"
     id="g4570"
     style="fill:#33659a;fill-opacity:1" />
  <g
     transform="matrix(0.08395392,0,0,0.08395392,5.1053608,5.7443854)"
     id="g4572"
     style="fill:#33659a;fill-opacity:1" />
  <g
     transform="matrix(0.08395392,0,0,0.08395392,5.1053608,5.7443854)"
     id="g4574"
     style="fill:#33659a;fill-opacity:1" />
  <g
     transform="matrix(0.06391589,0,0,0.06391589,4.3663022,4.2587944)"
     id="g4697"
     style="fill:#33659a;fill-opacity:1" />
  <g
     transform="matrix(0.06391589,0,0,0.06391589,4.3663022,4.2587944)"
     id="g4699"
     style="fill:#33659a;fill-opacity:1" />
  <g
     transform="matrix(0.06391589,0,0,0.06391589,4.3663022,4.2587944)"
     id="g4701"
     style="fill:#33659a;fill-opacity:1" />
  <g
     transform="matrix(0.06391589,0,0,0.06391589,4.3663022,4.2587944)"
     id="g4703"
     style="fill:#33659a;fill-opacity:1" />
  <g
     transform="matrix(0.06391589,0,0,0.06391589,4.3663022,4.2587944)"
     id="g4705"
     style="fill:#33659a;fill-opacity:1" />
  <g
     transform="matrix(0.06391589,0,0,0.06391589,4.3663022,4.2587944)"
     id="g4707"
     style="fill:#33659a;fill-opacity:1" />
  <g
     transform="matrix(0.06391589,0,0,0.06391589,4.3663022,4.2587944)"
     id="g4709"
     style="fill:#33659a;fill-opacity:1" />
  <g
     transform="matrix(0.06391589,0,0,0.06391589,4.3663022,4.2587944)"
     id="g4711"
     style="fill:#33659a;fill-opacity:1" />
  <g
     transform="matrix(0.06391589,0,0,0.06391589,4.3663022,4.2587944)"
     id="g4713"
     style="fill:#33659a;fill-opacity:1" />
  <g
     transform="matrix(0.06391589,0,0,0.06391589,4.3663022,4.2587944)"
     id="g4715"
     style="fill:#33659a;fill-opacity:1" />
  <g
     transform="matrix(0.06391589,0,0,0.06391589,4.3663022,4.2587944)"
     id="g4717"
     style="fill:#33659a;fill-opacity:1" />
  <g
     transform="matrix(0.06391589,0,0,0.06391589,4.3663022,4.2587944)"
     id="g4719"
     style="fill:#33659a;fill-opacity:1" />
  <g
     transform="matrix(0.06391589,0,0,0.06391589,4.3663022,4.2587944)"
     id="g4721"
     style="fill:#33659a;fill-opacity:1" />
  <g
     transform="matrix(0.06391589,0,0,0.06391589,4.3663022,4.2587944)"
     id="g4723"
     style="fill:#33659a;fill-opacity:1" />
  <g
     transform="matrix(0.06391589,0,0,0.06391589,4.3663022,4.2587944)"
     id="g4725"
     style="fill:#33659a;fill-opacity:1" />
  <g
     transform="matrix(0.80000004,0,0,0.80000004,6.6979261,6.8956035)"
     id="g4908"
     style="fill:#33659a;fill-opacity:1" />
  <g
     transform="matrix(0.80000004,0,0,0.80000004,6.6979261,6.8956035)"
     id="g4910"
     style="fill:#33659a;fill-opacity:1" />
  <g
     transform="matrix(0.80000004,0,0,0.80000004,6.6979261,6.8956035)"
     id="g4912"
     style="fill:#33659a;fill-opacity:1" />
  <g
     transform="matrix(0.80000004,0,0,0.80000004,6.6979261,6.8956035)"
     id="g4914"
     style="fill:#33659a;fill-opacity:1" />
  <g
     transform="matrix(0.80000004,0,0,0.80000004,6.6979261,6.8956035)"
     id="g4916"
     style="fill:#33659a;fill-opacity:1" />
  <g
     transform="matrix(0.80000004,0,0,0.80000004,6.6979261,6.8956035)"
     id="g4918"
     style="fill:#33659a;fill-opacity:1" />
  <g
     transform="matrix(0.80000004,0,0,0.80000004,6.6979261,6.8956035)"
     id="g4920"
     style="fill:#33659a;fill-opacity:1" />
  <g
     transform="matrix(0.80000004,0,0,0.80000004,6.6979261,6.8956035)"
     id="g4922"
     style="fill:#33659a;fill-opacity:1" />
  <g
     transform="matrix(0.80000004,0,0,0.80000004,6.6979261,6.8956035)"
     id="g4924"
     style="fill:#33659a;fill-opacity:1" />
  <g
     transform="matrix(0.80000004,0,0,0.80000004,6.6979261,6.8956035)"
     id="g4926"
     style="fill:#33659a;fill-opacity:1" />
  <g
     transform="matrix(0.80000004,0,0,0.80000004,6.6979261,6.8956035)"
     id="g4928"
     style="fill:#33659a;fill-opacity:1" />
  <g
     transform="matrix(0.80000004,0,0,0.80000004,6.6979261,6.8956035)"
     id="g4930"
     style="fill:#33659a;fill-opacity:1" />
  <g
     transform="matrix(0.80000004,0,0,0.80000004,6.6979261,6.8956035)"
     id="g4932"
     style="fill:#33659a;fill-opacity:1" />
  <g
     transform="matrix(0.80000004,0,0,0.80000004,6.6979261,6.8956035)"
     id="g4934"
     style="fill:#33659a;fill-opacity:1" />
  <g
     transform="matrix(0.80000004,0,0,0.80000004,6.6979261,6.8956035)"
     id="g4936"
     style="fill:#33659a;fill-opacity:1" />
  <g
     transform="matrix(0.80000004,0,0,0.80000004,20.401808,12.383081)"
     id="g5796"
     style="fill:#33659a;fill-opacity:1" />
  <g
     transform="matrix(0.80000004,0,0,0.80000004,20.401808,12.383081)"
     id="g5798"
     style="fill:#33659a;fill-opacity:1" />
  <g
     transform="matrix(0.80000004,0,0,0.80000004,20.401808,12.383081)"
     id="g5800"
     style="fill:#33659a;fill-opacity:1" />
  <g
     transform="matrix(0.80000004,0,0,0.80000004,20.401808,12.383081)"
     id="g5802"
     style="fill:#33659a;fill-opacity:1" />
  <g
     transform="matrix(0.80000004,0,0,0.80000004,20.401808,12.383081)"
     id="g5804"
     style="fill:#33659a;fill-opacity:1" />
  <g
     transform="matrix(0.80000004,0,0,0.80000004,20.401808,12.383081)"
     id="g5806"
     style="fill:#33659a;fill-opacity:1" />
  <g
     transform="matrix(0.80000004,0,0,0.80000004,20.401808,12.383081)"
     id="g5808"
     style="fill:#33659a;fill-opacity:1" />
  <g
     transform="matrix(0.80000004,0,0,0.80000004,20.401808,12.383081)"
     id="g5810"
     style="fill:#33659a;fill-opacity:1" />
  <g
     transform="matrix(0.80000004,0,0,0.80000004,20.401808,12.383081)"
     id="g5812"
     style="fill:#33659a;fill-opacity:1" />
  <g
     transform="matrix(0.80000004,0,0,0.80000004,20.401808,12.383081)"
     id="g5814"
     style="fill:#33659a;fill-opacity:1" />
  <g
     transform="matrix(0.80000004,0,0,0.80000004,20.401808,12.383081)"
     id="g5816"
     style="fill:#33659a;fill-opacity:1" />
  <g
     transform="matrix(0.80000004,0,0,0.80000004,20.401808,12.383081)"
     id="g5818"
     style="fill:#33659a;fill-opacity:1" />
  <g
     transform="matrix(0.80000004,0,0,0.80000004,20.401808,12.383081)"
     id="g5820"
     style="fill:#33659a;fill-opacity:1" />
  <g
     transform="matrix(0.80000004,0,0,0.80000004,20.401808,12.383081)"
     id="g5822"
     style="fill:#33659a;fill-opacity:1" />
  <g
     transform="matrix(0.80000004,0,0,0.80000004,20.401808,12.383081)"
     id="g5824"
     style="fill:#33659a;fill-opacity:1" />
  <g
     transform="matrix(0.09062452,0,0,0.09062452,4.8183904,4.9395825)"
     id="g6233" />
  <g
     transform="matrix(0.09062452,0,0,0.09062452,4.8183904,4.9395825)"
     id="g6235" />
  <g
     transform="matrix(0.09062452,0,0,0.09062452,4.8183904,4.9395825)"
     id="g6237" />
  <g
     transform="matrix(0.09062452,0,0,0.09062452,4.8183904,4.9395825)"
     id="g6239" />
  <g
     transform="matrix(0.09062452,0,0,0.09062452,4.8183904,4.9395825)"
     id="g6241" />
  <g
     transform="matrix(0.09062452,0,0,0.09062452,4.8183904,4.9395825)"
     id="g6243" />
  <g
     transform="matrix(0.09062452,0,0,0.09062452,4.8183904,4.9395825)"
     id="g6245" />
  <g
     transform="matrix(0.09062452,0,0,0.09062452,4.8183904,4.9395825)"
     id="g6247" />
  <g
     transform="matrix(0.09062452,0,0,0.09062452,4.8183904,4.9395825)"
     id="g6249" />
  <g
     transform="matrix(0.09062452,0,0,0.09062452,4.8183904,4.9395825)"
     id="g6251" />
  <g
     transform="matrix(0.09062452,0,0,0.09062452,4.8183904,4.9395825)"
     id="g6253" />
  <g
     transform="matrix(0.09062452,0,0,0.09062452,4.8183904,4.9395825)"
     id="g6255" />
  <g
     transform="matrix(0.09062452,0,0,0.09062452,4.8183904,4.9395825)"
     id="g6257" />
  <g
     transform="matrix(0.09062452,0,0,0.09062452,4.8183904,4.9395825)"
     id="g6259" />
  <g
     transform="matrix(0.09062452,0,0,0.09062452,4.8183904,4.9395825)"
     id="g6261" />
  <g
     transform="matrix(0.0567675,0,0,0.0567675,5.9286505,4.1622967)"
     id="g6631" />
  <g
     transform="matrix(0.0567675,0,0,0.0567675,5.9286505,4.1622967)"
     id="g6633" />
  <g
     transform="matrix(0.0567675,0,0,0.0567675,5.9286505,4.1622967)"
     id="g6635" />
  <g
     transform="matrix(0.0567675,0,0,0.0567675,5.9286505,4.1622967)"
     id="g6637" />
  <g
     transform="matrix(0.0567675,0,0,0.0567675,5.9286505,4.1622967)"
     id="g6639" />
  <g
     transform="matrix(0.0567675,0,0,0.0567675,5.9286505,4.1622967)"
     id="g6641" />
  <g
     transform="matrix(0.0567675,0,0,0.0567675,5.9286505,4.1622967)"
     id="g6643" />
  <g
     transform="matrix(0.0567675,0,0,0.0567675,5.9286505,4.1622967)"
     id="g6645" />
  <g
     transform="matrix(0.0567675,0,0,0.0567675,5.9286505,4.1622967)"
     id="g6647" />
  <g
     transform="matrix(0.0567675,0,0,0.0567675,5.9286505,4.1622967)"
     id="g6649" />
  <g
     transform="matrix(0.0567675,0,0,0.0567675,5.9286505,4.1622967)"
     id="g6651" />
  <g
     transform="matrix(0.0567675,0,0,0.0567675,5.9286505,4.1622967)"
     id="g6653" />
  <g
     transform="matrix(0.0567675,0,0,0.0567675,5.9286505,4.1622967)"
     id="g6655" />
  <g
     transform="matrix(0.0567675,0,0,0.0567675,5.9286505,4.1622967)"
     id="g6657" />
  <g
     transform="matrix(0.0567675,0,0,0.0567675,5.9286505,4.1622967)"
     id="g6659" />
  <g
     transform="matrix(1.1084823,0,0,1.1084823,7.9315466,6.690541)"
     id="g6848"
     style="fill:#33659a;fill-opacity:1" />
  <g
     transform="matrix(1.1084823,0,0,1.1084823,7.9315466,6.690541)"
     id="g6850"
     style="fill:#33659a;fill-opacity:1" />
  <g
     transform="matrix(1.1084823,0,0,1.1084823,7.9315466,6.690541)"
     id="g6852"
     style="fill:#33659a;fill-opacity:1" />
  <g
     transform="matrix(1.1084823,0,0,1.1084823,7.9315466,6.690541)"
     id="g6854"
     style="fill:#33659a;fill-opacity:1" />
  <g
     transform="matrix(1.1084823,0,0,1.1084823,7.9315466,6.690541)"
     id="g6856"
     style="fill:#33659a;fill-opacity:1" />
  <g
     transform="matrix(1.1084823,0,0,1.1084823,7.9315466,6.690541)"
     id="g6858"
     style="fill:#33659a;fill-opacity:1" />
  <g
     transform="matrix(1.1084823,0,0,1.1084823,7.9315466,6.690541)"
     id="g6860"
     style="fill:#33659a;fill-opacity:1" />
  <g
     transform="matrix(1.1084823,0,0,1.1084823,7.9315466,6.690541)"
     id="g6862"
     style="fill:#33659a;fill-opacity:1" />
  <g
     transform="matrix(1.1084823,0,0,1.1084823,7.9315466,6.690541)"
     id="g6864"
     style="fill:#33659a;fill-opacity:1" />
  <g
     transform="matrix(1.1084823,0,0,1.1084823,7.9315466,6.690541)"
     id="g6866"
     style="fill:#33659a;fill-opacity:1" />
  <g
     transform="matrix(1.1084823,0,0,1.1084823,7.9315466,6.690541)"
     id="g6868"
     style="fill:#33659a;fill-opacity:1" />
  <g
     transform="matrix(1.1084823,0,0,1.1084823,7.9315466,6.690541)"
     id="g6870"
     style="fill:#33659a;fill-opacity:1" />
  <g
     transform="matrix(1.1084823,0,0,1.1084823,7.9315466,6.690541)"
     id="g6872"
     style="fill:#33659a;fill-opacity:1" />
  <g
     transform="matrix(1.1084823,0,0,1.1084823,7.9315466,6.690541)"
     id="g6874"
     style="fill:#33659a;fill-opacity:1" />
  <g
     transform="matrix(1.1084823,0,0,1.1084823,7.9315466,6.690541)"
     id="g6876"
     style="fill:#33659a;fill-opacity:1" />
  <g
     transform="matrix(0.80000004,0,0,0.80000004,8.1878236,7.563406)"
     id="g7061"
     style="fill:#33659a;fill-opacity:1" />
  <g
     transform="matrix(0.80000004,0,0,0.80000004,8.1878236,7.563406)"
     id="g7063"
     style="fill:#33659a;fill-opacity:1" />
  <g
     transform="matrix(0.80000004,0,0,0.80000004,8.1878236,7.563406)"
     id="g7065"
     style="fill:#33659a;fill-opacity:1" />
  <g
     transform="matrix(0.80000004,0,0,0.80000004,8.1878236,7.563406)"
     id="g7067"
     style="fill:#33659a;fill-opacity:1" />
  <g
     transform="matrix(0.80000004,0,0,0.80000004,8.1878236,7.563406)"
     id="g7069"
     style="fill:#33659a;fill-opacity:1" />
  <g
     transform="matrix(0.80000004,0,0,0.80000004,8.1878236,7.563406)"
     id="g7071"
     style="fill:#33659a;fill-opacity:1" />
  <g
     transform="matrix(0.80000004,0,0,0.80000004,8.1878236,7.563406)"
     id="g7073"
     style="fill:#33659a;fill-opacity:1" />
  <g
     transform="matrix(0.80000004,0,0,0.80000004,8.1878236,7.563406)"
     id="g7075"
     style="fill:#33659a;fill-opacity:1" />
  <g
     transform="matrix(0.80000004,0,0,0.80000004,8.1878236,7.563406)"
     id="g7077"
     style="fill:#33659a;fill-opacity:1" />
  <g
     transform="matrix(0.80000004,0,0,0.80000004,8.1878236,7.563406)"
     id="g7079"
     style="fill:#33659a;fill-opacity:1" />
  <g
     transform="matrix(0.80000004,0,0,0.80000004,8.1878236,7.563406)"
     id="g7081"
     style="fill:#33659a;fill-opacity:1" />
  <g
     transform="matrix(0.80000004,0,0,0.80000004,8.1878236,7.563406)"
     id="g7083"
     style="fill:#33659a;fill-opacity:1" />
  <g
     transform="matrix(0.80000004,0,0,0.80000004,8.1878236,7.563406)"
     id="g7085"
     style="fill:#33659a;fill-opacity:1" />
  <g
     transform="matrix(0.80000004,0,0,0.80000004,8.1878236,7.563406)"
     id="g7087"
     style="fill:#33659a;fill-opacity:1" />
  <g
     transform="matrix(0.80000004,0,0,0.80000004,8.1878236,7.563406)"
     id="g7089"
     style="fill:#33659a;fill-opacity:1" />
  <path
     d="M 30.965123,23.107775 H 30.407541 V 9.1680159 c 0,-0.307901 -0.249249,-0.55759 -0.557596,-0.55759 H 19.757568 V 8.0528355 c 0,-0.3079022 -0.249248,-0.5575904 -0.557597,-0.5575904 -0.307782,0 -0.557583,0.2496882 -0.557583,0.5575904 V 8.6104259 H 8.5500049 c -0.3077901,0 -0.5575898,0.249689 -0.5575898,0.55759 V 23.107775 H 7.4348243 c -0.3077901,0 -0.5575898,0.249689 -0.5575898,0.557591 0,0.307901 0.2497997,0.55759 0.5575898,0.55759 H 18.642388 v 2.565585 l -4.1836,4.410875 c -0.211886,0.223427 -0.202963,0.576326 0.02063,0.788264 0.223593,0.212053 0.576547,0.202629 0.788432,-0.02079 l 3.374537,-3.557929 v 3.174195 c 0,0.307901 0.249801,0.55759 0.557583,0.55759 0.308349,0 0.557597,-0.249689 0.557597,-0.55759 v -3.174195 l 3.375098,3.557929 c 0.10981,0.115591 0.257042,0.173856 0.404796,0.173856 0.137724,0 0.275462,-0.05074 0.38363,-0.153059 0.223588,-0.211938 0.232515,-0.564837 0.02068,-0.788264 L 19.757614,26.788541 V 24.222957 H 30.96517 c 0.308348,0 0.557598,-0.24969 0.557598,-0.55759 0,-0.307902 -0.24925,-0.557592 -0.557598,-0.557592 z M 9.1075948,9.7256069 H 29.292361 V 23.107775 H 9.1075948 V 9.7256069 z"
     id="path14746"
     style="fill:#33659a;fill-opacity:1" />
</svg>
