<?xml version="1.0" encoding="utf-8"?>
<!-- Generator: Adobe Illustrator 18.1.1, SVG Export Plug-In . SVG Version: 6.00 Build 0)  -->
<svg version="1.1" id="Layer_1" xmlns="http://www.w3.org/2000/svg" xmlns:xlink="http://www.w3.org/1999/xlink" x="0px" y="0px"
	 viewBox="0 0 46 46" enable-background="new 0 0 46 46" xml:space="preserve">
<circle opacity="0.5" fill="#001022" cx="23" cy="23.2" r="23"/>
<g id="g3799_1_" transform="matrix(0.06874618,0,0,0.06874618,6.6942401,6.9421096)">
	<g id="g3801_1_">
		<path id="path3803_1_" fill="#FFFFFF" d="M432.4,292.1c-26.5,1.6-61.3,28.1-94.9,43.3
			C296.3,354,232.2,339,232.2,339c9.9-4.6,50.1-14.2,58.2-17.8c43-18.9,39.3-58.4,18.9-58c-27.1,0.5-43,7.1-97,14.5
			c-40.9,5.6-89.3,3.5-112.6,12.4c-32.8,12.5-85.6,96.8-85.6,96.8L95.8,466c0,0,50.5-49.8,75.1-49.8c56,0,58.3-0.8,110.3-3.6
			c22.1-1.2,26.7-2.1,39.4-6.4c67.4-22.8,139.9-83.5,141.2-90.8C464.9,298.5,446.4,291.2,432.4,292.1z"/>
		<path id="path3805_1_" fill="#FFFFFF" d="M95.8,234.8c2.2,1.4,5.1,1.7,7.5,0.6
			c43.7-19.6,88-19.6,131.7,0c2,0.9,4.4,0.9,6.5,0c43.7-19.6,88-19.6,131.7,0c1,0.5,2.1,0.7,3.2,0.7c1.5,0,3-0.4,4.3-1.3
			c2.2-1.4,3.6-3.9,3.6-6.6V32.8c0-5.4-4.5-7.1-4.7-7.2C356,15.1,332,9.7,308,9.7c-21.1,0-42.2,4.2-63,12.3V118c0,3.8-3,6.8-6.8,6.8
			c-3.8,0-6.8-3.1-6.8-6.8V22.1c-20.7-8.2-41.9-12.3-63-12.3c-24,0-48,5.3-71.5,15.9c-0.1,0.1-4.7,2.4-4.7,7.2v195.4
			C92.2,230.9,93.6,233.4,95.8,234.8z M107.9,191.1c19.9-7.9,40.2-11.9,60.4-11.9c22.8,0,45.8,5.1,68.2,15.2c1,0.4,2.2,0.4,3.2,0
			c22.4-10.1,45.4-15.2,68.2-15.2c20.2,0,40.5,4,60.4,11.9v25.4c-20.2-7.6-40.7-11.5-61.2-11.5c-23.2,0-46.4,4.9-69,14.6
			c-22.7-9.7-45.9-14.6-69-14.6c-20.5,0-41,3.8-61.2,11.5L107.9,191.1L107.9,191.1z"/>
	</g>
</g>
</svg>
