<?xml version="1.0" encoding="UTF-8" standalone="no"?>
<!-- Created with Inkscape (http://www.inkscape.org/) -->

<svg
   xmlns:dc="http://purl.org/dc/elements/1.1/"
   xmlns:cc="http://creativecommons.org/ns#"
   xmlns:rdf="http://www.w3.org/1999/02/22-rdf-syntax-ns#"
   xmlns:svg="http://www.w3.org/2000/svg"
   xmlns="http://www.w3.org/2000/svg"
   version="1.1"
   width="46"
   height="46"
   viewBox="0 0 36.800002 36.799998"
   id="svg3013"
   style="fill-rule:evenodd">
  <metadata
     id="metadata3029">
    <rdf:RDF>
      <cc:Work
         rdf:about="">
        <dc:format>image/svg+xml</dc:format>
        <dc:type
           rdf:resource="http://purl.org/dc/dcmitype/StillImage" />
        <dc:title></dc:title>
      </cc:Work>
    </rdf:RDF>
  </metadata>
  <defs
     id="defs3027" />
  <g
     transform="matrix(0.04571383,0,0,0.04571383,42.363691,3.4469159)"
     id="g3961" />
  <g
     transform="matrix(0.04571383,0,0,0.04571383,42.363691,3.4469159)"
     id="g3963" />
  <g
     transform="matrix(0.04571383,0,0,0.04571383,42.363691,3.4469159)"
     id="g3965" />
  <g
     transform="matrix(0.04571383,0,0,0.04571383,42.363691,3.4469159)"
     id="g3967" />
  <g
     transform="matrix(0.04571383,0,0,0.04571383,42.363691,3.4469159)"
     id="g3969" />
  <g
     transform="matrix(0.04571383,0,0,0.04571383,42.363691,3.4469159)"
     id="g3971" />
  <g
     transform="matrix(0.04571383,0,0,0.04571383,42.363691,3.4469159)"
     id="g3973" />
  <g
     transform="matrix(0.04571383,0,0,0.04571383,42.363691,3.4469159)"
     id="g3975" />
  <g
     transform="matrix(0.04571383,0,0,0.04571383,42.363691,3.4469159)"
     id="g3977" />
  <g
     transform="matrix(0.04571383,0,0,0.04571383,42.363691,3.4469159)"
     id="g3979" />
  <g
     transform="matrix(0.04571383,0,0,0.04571383,42.363691,3.4469159)"
     id="g3981" />
  <g
     transform="matrix(0.04571383,0,0,0.04571383,42.363691,3.4469159)"
     id="g3983" />
  <g
     transform="matrix(0.04571383,0,0,0.04571383,42.363691,3.4469159)"
     id="g3985" />
  <g
     transform="matrix(0.04571383,0,0,0.04571383,42.363691,3.4469159)"
     id="g3987" />
  <g
     transform="matrix(0.04571383,0,0,0.04571383,42.363691,3.4469159)"
     id="g3989" />
  <g
     transform="matrix(0.06874618,0,0,0.06874618,5.89424,6.1421095)"
     id="g3807" />
  <g
     transform="matrix(0.06874618,0,0,0.06874618,5.89424,6.1421095)"
     id="g3809" />
  <g
     transform="matrix(0.06874618,0,0,0.06874618,5.89424,6.1421095)"
     id="g3811" />
  <g
     transform="matrix(0.06874618,0,0,0.06874618,5.89424,6.1421095)"
     id="g3813" />
  <g
     transform="matrix(0.06874618,0,0,0.06874618,5.89424,6.1421095)"
     id="g3815" />
  <g
     transform="matrix(0.06874618,0,0,0.06874618,5.89424,6.1421095)"
     id="g3817" />
  <g
     transform="matrix(0.06874618,0,0,0.06874618,5.89424,6.1421095)"
     id="g3819" />
  <g
     transform="matrix(0.06874618,0,0,0.06874618,5.89424,6.1421095)"
     id="g3821" />
  <g
     transform="matrix(0.06874618,0,0,0.06874618,5.89424,6.1421095)"
     id="g3823" />
  <g
     transform="matrix(0.06874618,0,0,0.06874618,5.89424,6.1421095)"
     id="g3825" />
  <g
     transform="matrix(0.06874618,0,0,0.06874618,5.89424,6.1421095)"
     id="g3827" />
  <g
     transform="matrix(0.06874618,0,0,0.06874618,5.89424,6.1421095)"
     id="g3829" />
  <g
     transform="matrix(0.06874618,0,0,0.06874618,5.89424,6.1421095)"
     id="g3831" />
  <g
     transform="matrix(0.06874618,0,0,0.06874618,5.89424,6.1421095)"
     id="g3833" />
  <g
     transform="matrix(0.06874618,0,0,0.06874618,5.89424,6.1421095)"
     id="g3835" />
  <g
     transform="matrix(0.80000004,0,0,0.80000004,6.0150225,5.6378102)"
     id="g4379"
     style="fill:#33659a;fill-opacity:1" />
  <g
     transform="matrix(0.80000004,0,0,0.80000004,6.0150225,5.6378102)"
     id="g4381"
     style="fill:#33659a;fill-opacity:1" />
  <g
     transform="matrix(0.80000004,0,0,0.80000004,6.0150225,5.6378102)"
     id="g4383"
     style="fill:#33659a;fill-opacity:1" />
  <g
     transform="matrix(0.80000004,0,0,0.80000004,6.0150225,5.6378102)"
     id="g4385"
     style="fill:#33659a;fill-opacity:1" />
  <g
     transform="matrix(0.80000004,0,0,0.80000004,6.0150225,5.6378102)"
     id="g4387"
     style="fill:#33659a;fill-opacity:1" />
  <g
     transform="matrix(0.80000004,0,0,0.80000004,6.0150225,5.6378102)"
     id="g4389"
     style="fill:#33659a;fill-opacity:1" />
  <g
     transform="matrix(0.80000004,0,0,0.80000004,6.0150225,5.6378102)"
     id="g4391"
     style="fill:#33659a;fill-opacity:1" />
  <g
     transform="matrix(0.80000004,0,0,0.80000004,6.0150225,5.6378102)"
     id="g4393"
     style="fill:#33659a;fill-opacity:1" />
  <g
     transform="matrix(0.80000004,0,0,0.80000004,6.0150225,5.6378102)"
     id="g4395"
     style="fill:#33659a;fill-opacity:1" />
  <g
     transform="matrix(0.80000004,0,0,0.80000004,6.0150225,5.6378102)"
     id="g4397"
     style="fill:#33659a;fill-opacity:1" />
  <g
     transform="matrix(0.80000004,0,0,0.80000004,6.0150225,5.6378102)"
     id="g4399"
     style="fill:#33659a;fill-opacity:1" />
  <g
     transform="matrix(0.80000004,0,0,0.80000004,6.0150225,5.6378102)"
     id="g4401"
     style="fill:#33659a;fill-opacity:1" />
  <g
     transform="matrix(0.80000004,0,0,0.80000004,6.0150225,5.6378102)"
     id="g4403"
     style="fill:#33659a;fill-opacity:1" />
  <g
     transform="matrix(0.80000004,0,0,0.80000004,6.0150225,5.6378102)"
     id="g4405"
     style="fill:#33659a;fill-opacity:1" />
  <g
     transform="matrix(0.80000004,0,0,0.80000004,6.0150225,5.6378102)"
     id="g4407"
     style="fill:#33659a;fill-opacity:1" />
  <g
     transform="matrix(0.08395392,0,0,0.08395392,4.3053607,4.9443853)"
     id="g4546"
     style="fill:#33659a;fill-opacity:1" />
  <g
     transform="matrix(0.08395392,0,0,0.08395392,4.3053607,4.9443853)"
     id="g4548"
     style="fill:#33659a;fill-opacity:1" />
  <g
     transform="matrix(0.08395392,0,0,0.08395392,4.3053607,4.9443853)"
     id="g4550"
     style="fill:#33659a;fill-opacity:1" />
  <g
     transform="matrix(0.08395392,0,0,0.08395392,4.3053607,4.9443853)"
     id="g4552"
     style="fill:#33659a;fill-opacity:1" />
  <g
     transform="matrix(0.08395392,0,0,0.08395392,4.3053607,4.9443853)"
     id="g4554"
     style="fill:#33659a;fill-opacity:1" />
  <g
     transform="matrix(0.08395392,0,0,0.08395392,4.3053607,4.9443853)"
     id="g4556"
     style="fill:#33659a;fill-opacity:1" />
  <g
     transform="matrix(0.08395392,0,0,0.08395392,4.3053607,4.9443853)"
     id="g4558"
     style="fill:#33659a;fill-opacity:1" />
  <g
     transform="matrix(0.08395392,0,0,0.08395392,4.3053607,4.9443853)"
     id="g4560"
     style="fill:#33659a;fill-opacity:1" />
  <g
     transform="matrix(0.08395392,0,0,0.08395392,4.3053607,4.9443853)"
     id="g4562"
     style="fill:#33659a;fill-opacity:1" />
  <g
     transform="matrix(0.08395392,0,0,0.08395392,4.3053607,4.9443853)"
     id="g4564"
     style="fill:#33659a;fill-opacity:1" />
  <g
     transform="matrix(0.08395392,0,0,0.08395392,4.3053607,4.9443853)"
     id="g4566"
     style="fill:#33659a;fill-opacity:1" />
  <g
     transform="matrix(0.08395392,0,0,0.08395392,4.3053607,4.9443853)"
     id="g4568"
     style="fill:#33659a;fill-opacity:1" />
  <g
     transform="matrix(0.08395392,0,0,0.08395392,4.3053607,4.9443853)"
     id="g4570"
     style="fill:#33659a;fill-opacity:1" />
  <g
     transform="matrix(0.08395392,0,0,0.08395392,4.3053607,4.9443853)"
     id="g4572"
     style="fill:#33659a;fill-opacity:1" />
  <g
     transform="matrix(0.08395392,0,0,0.08395392,4.3053607,4.9443853)"
     id="g4574"
     style="fill:#33659a;fill-opacity:1" />
  <g
     transform="matrix(0.06391589,0,0,0.06391589,3.5663021,3.4587943)"
     id="g4697"
     style="fill:#33659a;fill-opacity:1" />
  <g
     transform="matrix(0.06391589,0,0,0.06391589,3.5663021,3.4587943)"
     id="g4699"
     style="fill:#33659a;fill-opacity:1" />
  <g
     transform="matrix(0.06391589,0,0,0.06391589,3.5663021,3.4587943)"
     id="g4701"
     style="fill:#33659a;fill-opacity:1" />
  <g
     transform="matrix(0.06391589,0,0,0.06391589,3.5663021,3.4587943)"
     id="g4703"
     style="fill:#33659a;fill-opacity:1" />
  <g
     transform="matrix(0.06391589,0,0,0.06391589,3.5663021,3.4587943)"
     id="g4705"
     style="fill:#33659a;fill-opacity:1" />
  <g
     transform="matrix(0.06391589,0,0,0.06391589,3.5663021,3.4587943)"
     id="g4707"
     style="fill:#33659a;fill-opacity:1" />
  <g
     transform="matrix(0.06391589,0,0,0.06391589,3.5663021,3.4587943)"
     id="g4709"
     style="fill:#33659a;fill-opacity:1" />
  <g
     transform="matrix(0.06391589,0,0,0.06391589,3.5663021,3.4587943)"
     id="g4711"
     style="fill:#33659a;fill-opacity:1" />
  <g
     transform="matrix(0.06391589,0,0,0.06391589,3.5663021,3.4587943)"
     id="g4713"
     style="fill:#33659a;fill-opacity:1" />
  <g
     transform="matrix(0.06391589,0,0,0.06391589,3.5663021,3.4587943)"
     id="g4715"
     style="fill:#33659a;fill-opacity:1" />
  <g
     transform="matrix(0.06391589,0,0,0.06391589,3.5663021,3.4587943)"
     id="g4717"
     style="fill:#33659a;fill-opacity:1" />
  <g
     transform="matrix(0.06391589,0,0,0.06391589,3.5663021,3.4587943)"
     id="g4719"
     style="fill:#33659a;fill-opacity:1" />
  <g
     transform="matrix(0.06391589,0,0,0.06391589,3.5663021,3.4587943)"
     id="g4721"
     style="fill:#33659a;fill-opacity:1" />
  <g
     transform="matrix(0.06391589,0,0,0.06391589,3.5663021,3.4587943)"
     id="g4723"
     style="fill:#33659a;fill-opacity:1" />
  <g
     transform="matrix(0.06391589,0,0,0.06391589,3.5663021,3.4587943)"
     id="g4725"
     style="fill:#33659a;fill-opacity:1" />
  <g
     transform="matrix(0.80000004,0,0,0.80000004,5.897926,6.0956034)"
     id="g4908"
     style="fill:#33659a;fill-opacity:1" />
  <g
     transform="matrix(0.80000004,0,0,0.80000004,5.897926,6.0956034)"
     id="g4910"
     style="fill:#33659a;fill-opacity:1" />
  <g
     transform="matrix(0.80000004,0,0,0.80000004,5.897926,6.0956034)"
     id="g4912"
     style="fill:#33659a;fill-opacity:1" />
  <g
     transform="matrix(0.80000004,0,0,0.80000004,5.897926,6.0956034)"
     id="g4914"
     style="fill:#33659a;fill-opacity:1" />
  <g
     transform="matrix(0.80000004,0,0,0.80000004,5.897926,6.0956034)"
     id="g4916"
     style="fill:#33659a;fill-opacity:1" />
  <g
     transform="matrix(0.80000004,0,0,0.80000004,5.897926,6.0956034)"
     id="g4918"
     style="fill:#33659a;fill-opacity:1" />
  <g
     transform="matrix(0.80000004,0,0,0.80000004,5.897926,6.0956034)"
     id="g4920"
     style="fill:#33659a;fill-opacity:1" />
  <g
     transform="matrix(0.80000004,0,0,0.80000004,5.897926,6.0956034)"
     id="g4922"
     style="fill:#33659a;fill-opacity:1" />
  <g
     transform="matrix(0.80000004,0,0,0.80000004,5.897926,6.0956034)"
     id="g4924"
     style="fill:#33659a;fill-opacity:1" />
  <g
     transform="matrix(0.80000004,0,0,0.80000004,5.897926,6.0956034)"
     id="g4926"
     style="fill:#33659a;fill-opacity:1" />
  <g
     transform="matrix(0.80000004,0,0,0.80000004,5.897926,6.0956034)"
     id="g4928"
     style="fill:#33659a;fill-opacity:1" />
  <g
     transform="matrix(0.80000004,0,0,0.80000004,5.897926,6.0956034)"
     id="g4930"
     style="fill:#33659a;fill-opacity:1" />
  <g
     transform="matrix(0.80000004,0,0,0.80000004,5.897926,6.0956034)"
     id="g4932"
     style="fill:#33659a;fill-opacity:1" />
  <g
     transform="matrix(0.80000004,0,0,0.80000004,5.897926,6.0956034)"
     id="g4934"
     style="fill:#33659a;fill-opacity:1" />
  <g
     transform="matrix(0.80000004,0,0,0.80000004,5.897926,6.0956034)"
     id="g4936"
     style="fill:#33659a;fill-opacity:1" />
  <g
     transform="translate(-0.80000008,-0.80000008)"
     id="g4722">
    <g
       id="g4716">
      <g
         id="g4710">
        <g
           id="g4706">
          <circle
             cx="23"
             cy="23"
             r="23"
             transform="matrix(0.80000004,0,0,0.80000004,0.80000008,0.79999808)"
             id="circle4197"
             style="opacity:0.5;fill:#001022" />
          <path
             d="m 29.311118,19.447944 c 0.459453,-0.693957 0.688883,-1.457857 0.688883,-2.292242 0,-0.965747 -0.355868,-1.804563 -1.068198,-2.51778 -0.712674,-0.712478 -1.556515,-1.068642 -2.531424,-1.068642 l -2.475126,0 c 0.449897,-0.928068 0.67524,-1.828207 0.67524,-2.699975 0,-1.0969625 -0.164521,-1.9687805 -0.492355,-2.6156983 C 23.77995,7.6064904 23.30173,7.1308323 22.67353,6.825992 22.04518,6.5212994 21.33758,6.3691001 20.550087,6.3691001 c -0.478366,0 -0.900091,0.1734257 -1.265713,0.5204302 -0.403054,0.3936984 -0.693711,0.9000909 -0.871768,1.5188854 -0.178156,0.6185958 -0.321192,1.2116778 -0.428915,1.7789013 -0.107716,0.567174 -0.274301,0.967963 -0.499203,1.20232 -0.4595,0.496887 -0.961017,1.097062 -1.504796,1.800132 -0.946883,1.228031 -1.58917,1.954695 -1.926521,2.179792 l -3.853138,0 c -0.4968865,0 -0.9211715,0.176036 -1.272755,0.527326 -0.3514373,0.351633 -0.5272774,0.775868 -0.5272774,1.272804 l 0,9.000067 c 0,0.496935 0.175643,0.921023 0.5272774,1.272658 0.3517806,0.351632 0.7758685,0.527571 1.272755,0.527571 l 4.049816,0 c 0.20628,0 0.853052,0.187467 1.940606,0.562496 1.153213,0.403203 2.168069,0.710162 3.044565,0.921171 0.876596,0.21101 1.764914,0.316564 2.665005,0.316564 l 1.30748,0 0.506543,0 c 1.321812,0 2.385825,-0.377591 3.192183,-1.132378 0.806061,-0.754787 1.204685,-1.78368 1.195425,-3.086828 0.562494,-0.721932 0.843692,-1.556317 0.843692,-2.503102 0,-0.206133 -0.0139,-0.407684 -0.04211,-0.604754 0.356117,-0.627908 0.534617,-1.302951 0.534617,-2.024884 -1.22e-4,-0.337546 -0.04227,-0.661154 -0.126739,-0.970328 z M 27.89828,18.309507 c -0.201601,0.431179 -0.452458,0.651499 -0.752422,0.660759 0.14057,0.159436 0.25785,0.382319 0.351632,0.668001 0.09369,0.286024 0.140237,0.546093 0.140237,0.780596 0,0.646573 -0.248099,1.204537 -0.745034,1.67315 0.168938,0.299866 0.253221,0.623475 0.253221,0.970182 0,0.346904 -0.08191,0.691444 -0.24608,1.033571 -0.16387,0.341833 -0.386703,0.588009 -0.667851,0.737944 0.04684,0.281198 0.07009,0.543777 0.07009,0.787491 0,1.56558 -0.900091,2.348393 -2.70032,2.348393 l -1.701079,0 c -1.228426,0 -2.83134,-0.34198 -4.809677,-1.026529 -0.04693,-0.01872 -0.182687,-0.06812 -0.407833,-0.147662 -0.225145,-0.07954 -0.391481,-0.138213 -0.49935,-0.17559 -0.107874,-0.03778 -0.27179,-0.09166 -0.492258,-0.161812 -0.220416,-0.07048 -0.398326,-0.12211 -0.534369,-0.154754 -0.135855,-0.03269 -0.290655,-0.06319 -0.463935,-0.09137 -0.173372,-0.02812 -0.321095,-0.04211 -0.442952,-0.04211 l -0.449997,0 0,-8.999723 0.449997,0 c 0.149985,0 0.316367,-0.0423 0.499202,-0.126493 0.182786,-0.08442 0.370399,-0.210959 0.562543,-0.379757 0.192243,-0.168797 0.372567,-0.335182 0.541414,-0.49935 0.168797,-0.164028 0.356263,-0.370252 0.562594,-0.618597 0.206232,-0.248542 0.367936,-0.447681 0.485212,-0.597713 0.117131,-0.149985 0.264748,-0.342274 0.442904,-0.576632 0.178057,-0.234306 0.285977,-0.374979 0.32346,-0.421919 0.515554,-0.637411 0.876496,-1.063963 1.082727,-1.2797 0.384389,-0.403006 0.663273,-0.916295 0.8367,-1.539769 0.173619,-0.623571 0.316563,-1.2118745 0.428669,-1.7649135 0.112397,-0.5530859 0.290753,-0.9516588 0.534813,-1.1954244 0.899795,0 1.49997,0.2202215 1.799884,0.6609076 0.299867,0.4405868 0.449898,1.1203598 0.449898,2.0391173 0,0.553087 -0.225194,1.305411 -0.675289,2.256924 -0.449897,0.951611 -0.674698,1.699306 -0.674698,2.243035 l 4.949906,0 c 0.469256,0 0.88625,0.180372 1.251724,0.541513 0.36577,0.360892 0.548851,0.780351 0.548851,1.258618 -1.23e-4,0.328089 -0.100975,0.707848 -0.302526,1.139619 z"
             id="path2988"
             style="fill:#ffffff;fill-opacity:1" />
        </g>
      </g>
    </g>
  </g>
</svg>
