<?xml version="1.0" encoding="UTF-8" standalone="no"?>
<!-- Created with Inkscape (http://www.inkscape.org/) -->

<svg
   xmlns:dc="http://purl.org/dc/elements/1.1/"
   xmlns:cc="http://creativecommons.org/ns#"
   xmlns:rdf="http://www.w3.org/1999/02/22-rdf-syntax-ns#"
   xmlns:svg="http://www.w3.org/2000/svg"
   xmlns="http://www.w3.org/2000/svg"
   xmlns:sodipodi="http://sodipodi.sourceforge.net/DTD/sodipodi-0.dtd"
   xmlns:inkscape="http://www.inkscape.org/namespaces/inkscape"
   version="1.1"
   width="48"
   height="48"
   viewBox="0 0 38.400002 38.399998"
   id="svg3013"
   style="fill-rule:evenodd"
   inkscape:version="0.48.5 r10040"
   sodipodi:docname="generator-kart-pracy.svg">
  <sodipodi:namedview
     pagecolor="#ffffff"
     bordercolor="#666666"
     borderopacity="1"
     objecttolerance="10"
     gridtolerance="10"
     guidetolerance="10"
     inkscape:pageopacity="0"
     inkscape:pageshadow="2"
     inkscape:window-width="1600"
     inkscape:window-height="848"
     id="namedview6"
     showgrid="false"
     inkscape:zoom="7.7899597"
     inkscape:cx="39.511257"
     inkscape:cy="24.012232"
     inkscape:window-x="-8"
     inkscape:window-y="588"
     inkscape:window-maximized="1"
     inkscape:current-layer="svg3013"
     fit-margin-top="0"
     fit-margin-left="0"
     fit-margin-right="0"
     fit-margin-bottom="0" />
  <metadata
     id="metadata3029">
    <rdf:RDF>
      <cc:Work
         rdf:about="">
        <dc:format>image/svg+xml</dc:format>
        <dc:type
           rdf:resource="http://purl.org/dc/dcmitype/StillImage" />
        <dc:title></dc:title>
      </cc:Work>
    </rdf:RDF>
  </metadata>
  <defs
     id="defs3027" />
  <path
     sodipodi:type="arc"
     style="fill:none;stroke:#00c7ff;stroke-width:1.88301038999999990;stroke-opacity:1"
     id="path2983"
     sodipodi:cx="23.625267"
     sodipodi:cy="23.074537"
     sodipodi:rx="22.096125"
     sodipodi:ry="22.096125"
     d="m 45.721392,23.074537 a 22.096125,22.096125 0 1 1 -44.1922496,0 22.096125,22.096125 0 1 1 44.1922496,0 z"
     transform="matrix(0.83341912,0,0,0.83341912,-0.48974807,-0.03076136)" />
  <g
     transform="matrix(0.04571383,0,0,0.04571383,43.163691,4.246916)"
     id="g3961" />
  <g
     transform="matrix(0.04571383,0,0,0.04571383,43.163691,4.246916)"
     id="g3963" />
  <g
     transform="matrix(0.04571383,0,0,0.04571383,43.163691,4.246916)"
     id="g3965" />
  <g
     transform="matrix(0.04571383,0,0,0.04571383,43.163691,4.246916)"
     id="g3967" />
  <g
     transform="matrix(0.04571383,0,0,0.04571383,43.163691,4.246916)"
     id="g3969" />
  <g
     transform="matrix(0.04571383,0,0,0.04571383,43.163691,4.246916)"
     id="g3971" />
  <g
     transform="matrix(0.04571383,0,0,0.04571383,43.163691,4.246916)"
     id="g3973" />
  <g
     transform="matrix(0.04571383,0,0,0.04571383,43.163691,4.246916)"
     id="g3975" />
  <g
     transform="matrix(0.04571383,0,0,0.04571383,43.163691,4.246916)"
     id="g3977" />
  <g
     transform="matrix(0.04571383,0,0,0.04571383,43.163691,4.246916)"
     id="g3979" />
  <g
     transform="matrix(0.04571383,0,0,0.04571383,43.163691,4.246916)"
     id="g3981" />
  <g
     transform="matrix(0.04571383,0,0,0.04571383,43.163691,4.246916)"
     id="g3983" />
  <g
     transform="matrix(0.04571383,0,0,0.04571383,43.163691,4.246916)"
     id="g3985" />
  <g
     transform="matrix(0.04571383,0,0,0.04571383,43.163691,4.246916)"
     id="g3987" />
  <g
     transform="matrix(0.04571383,0,0,0.04571383,43.163691,4.246916)"
     id="g3989" />
  <g
     transform="matrix(0.06874618,0,0,0.06874618,6.6942401,6.9421096)"
     id="g3807" />
  <g
     transform="matrix(0.06874618,0,0,0.06874618,6.6942401,6.9421096)"
     id="g3809" />
  <g
     transform="matrix(0.06874618,0,0,0.06874618,6.6942401,6.9421096)"
     id="g3811" />
  <g
     transform="matrix(0.06874618,0,0,0.06874618,6.6942401,6.9421096)"
     id="g3813" />
  <g
     transform="matrix(0.06874618,0,0,0.06874618,6.6942401,6.9421096)"
     id="g3815" />
  <g
     transform="matrix(0.06874618,0,0,0.06874618,6.6942401,6.9421096)"
     id="g3817" />
  <g
     transform="matrix(0.06874618,0,0,0.06874618,6.6942401,6.9421096)"
     id="g3819" />
  <g
     transform="matrix(0.06874618,0,0,0.06874618,6.6942401,6.9421096)"
     id="g3821" />
  <g
     transform="matrix(0.06874618,0,0,0.06874618,6.6942401,6.9421096)"
     id="g3823" />
  <g
     transform="matrix(0.06874618,0,0,0.06874618,6.6942401,6.9421096)"
     id="g3825" />
  <g
     transform="matrix(0.06874618,0,0,0.06874618,6.6942401,6.9421096)"
     id="g3827" />
  <g
     transform="matrix(0.06874618,0,0,0.06874618,6.6942401,6.9421096)"
     id="g3829" />
  <g
     transform="matrix(0.06874618,0,0,0.06874618,6.6942401,6.9421096)"
     id="g3831" />
  <g
     transform="matrix(0.06874618,0,0,0.06874618,6.6942401,6.9421096)"
     id="g3833" />
  <g
     transform="matrix(0.06874618,0,0,0.06874618,6.6942401,6.9421096)"
     id="g3835" />
  <g
     transform="matrix(0.80000004,0,0,0.80000004,6.8150226,6.4378103)"
     id="g4379"
     style="fill:#33659a;fill-opacity:1" />
  <g
     transform="matrix(0.80000004,0,0,0.80000004,6.8150226,6.4378103)"
     id="g4381"
     style="fill:#33659a;fill-opacity:1" />
  <g
     transform="matrix(0.80000004,0,0,0.80000004,6.8150226,6.4378103)"
     id="g4383"
     style="fill:#33659a;fill-opacity:1" />
  <g
     transform="matrix(0.80000004,0,0,0.80000004,6.8150226,6.4378103)"
     id="g4385"
     style="fill:#33659a;fill-opacity:1" />
  <g
     transform="matrix(0.80000004,0,0,0.80000004,6.8150226,6.4378103)"
     id="g4387"
     style="fill:#33659a;fill-opacity:1" />
  <g
     transform="matrix(0.80000004,0,0,0.80000004,6.8150226,6.4378103)"
     id="g4389"
     style="fill:#33659a;fill-opacity:1" />
  <g
     transform="matrix(0.80000004,0,0,0.80000004,6.8150226,6.4378103)"
     id="g4391"
     style="fill:#33659a;fill-opacity:1" />
  <g
     transform="matrix(0.80000004,0,0,0.80000004,6.8150226,6.4378103)"
     id="g4393"
     style="fill:#33659a;fill-opacity:1" />
  <g
     transform="matrix(0.80000004,0,0,0.80000004,6.8150226,6.4378103)"
     id="g4395"
     style="fill:#33659a;fill-opacity:1" />
  <g
     transform="matrix(0.80000004,0,0,0.80000004,6.8150226,6.4378103)"
     id="g4397"
     style="fill:#33659a;fill-opacity:1" />
  <g
     transform="matrix(0.80000004,0,0,0.80000004,6.8150226,6.4378103)"
     id="g4399"
     style="fill:#33659a;fill-opacity:1" />
  <g
     transform="matrix(0.80000004,0,0,0.80000004,6.8150226,6.4378103)"
     id="g4401"
     style="fill:#33659a;fill-opacity:1" />
  <g
     transform="matrix(0.80000004,0,0,0.80000004,6.8150226,6.4378103)"
     id="g4403"
     style="fill:#33659a;fill-opacity:1" />
  <g
     transform="matrix(0.80000004,0,0,0.80000004,6.8150226,6.4378103)"
     id="g4405"
     style="fill:#33659a;fill-opacity:1" />
  <g
     transform="matrix(0.80000004,0,0,0.80000004,6.8150226,6.4378103)"
     id="g4407"
     style="fill:#33659a;fill-opacity:1" />
  <g
     transform="matrix(0.08395392,0,0,0.08395392,5.1053608,5.7443854)"
     id="g4546"
     style="fill:#33659a;fill-opacity:1" />
  <g
     transform="matrix(0.08395392,0,0,0.08395392,5.1053608,5.7443854)"
     id="g4548"
     style="fill:#33659a;fill-opacity:1" />
  <g
     transform="matrix(0.08395392,0,0,0.08395392,5.1053608,5.7443854)"
     id="g4550"
     style="fill:#33659a;fill-opacity:1" />
  <g
     transform="matrix(0.08395392,0,0,0.08395392,5.1053608,5.7443854)"
     id="g4552"
     style="fill:#33659a;fill-opacity:1" />
  <g
     transform="matrix(0.08395392,0,0,0.08395392,5.1053608,5.7443854)"
     id="g4554"
     style="fill:#33659a;fill-opacity:1" />
  <g
     transform="matrix(0.08395392,0,0,0.08395392,5.1053608,5.7443854)"
     id="g4556"
     style="fill:#33659a;fill-opacity:1" />
  <g
     transform="matrix(0.08395392,0,0,0.08395392,5.1053608,5.7443854)"
     id="g4558"
     style="fill:#33659a;fill-opacity:1" />
  <g
     transform="matrix(0.08395392,0,0,0.08395392,5.1053608,5.7443854)"
     id="g4560"
     style="fill:#33659a;fill-opacity:1" />
  <g
     transform="matrix(0.08395392,0,0,0.08395392,5.1053608,5.7443854)"
     id="g4562"
     style="fill:#33659a;fill-opacity:1" />
  <g
     transform="matrix(0.08395392,0,0,0.08395392,5.1053608,5.7443854)"
     id="g4564"
     style="fill:#33659a;fill-opacity:1" />
  <g
     transform="matrix(0.08395392,0,0,0.08395392,5.1053608,5.7443854)"
     id="g4566"
     style="fill:#33659a;fill-opacity:1" />
  <g
     transform="matrix(0.08395392,0,0,0.08395392,5.1053608,5.7443854)"
     id="g4568"
     style="fill:#33659a;fill-opacity:1" />
  <g
     transform="matrix(0.08395392,0,0,0.08395392,5.1053608,5.7443854)"
     id="g4570"
     style="fill:#33659a;fill-opacity:1" />
  <g
     transform="matrix(0.08395392,0,0,0.08395392,5.1053608,5.7443854)"
     id="g4572"
     style="fill:#33659a;fill-opacity:1" />
  <g
     transform="matrix(0.08395392,0,0,0.08395392,5.1053608,5.7443854)"
     id="g4574"
     style="fill:#33659a;fill-opacity:1" />
  <g
     transform="matrix(0.06391589,0,0,0.06391589,4.3663022,4.2587944)"
     id="g4697"
     style="fill:#33659a;fill-opacity:1" />
  <g
     transform="matrix(0.06391589,0,0,0.06391589,4.3663022,4.2587944)"
     id="g4699"
     style="fill:#33659a;fill-opacity:1" />
  <g
     transform="matrix(0.06391589,0,0,0.06391589,4.3663022,4.2587944)"
     id="g4701"
     style="fill:#33659a;fill-opacity:1" />
  <g
     transform="matrix(0.06391589,0,0,0.06391589,4.3663022,4.2587944)"
     id="g4703"
     style="fill:#33659a;fill-opacity:1" />
  <g
     transform="matrix(0.06391589,0,0,0.06391589,4.3663022,4.2587944)"
     id="g4705"
     style="fill:#33659a;fill-opacity:1" />
  <g
     transform="matrix(0.06391589,0,0,0.06391589,4.3663022,4.2587944)"
     id="g4707"
     style="fill:#33659a;fill-opacity:1" />
  <g
     transform="matrix(0.06391589,0,0,0.06391589,4.3663022,4.2587944)"
     id="g4709"
     style="fill:#33659a;fill-opacity:1" />
  <g
     transform="matrix(0.06391589,0,0,0.06391589,4.3663022,4.2587944)"
     id="g4711"
     style="fill:#33659a;fill-opacity:1" />
  <g
     transform="matrix(0.06391589,0,0,0.06391589,4.3663022,4.2587944)"
     id="g4713"
     style="fill:#33659a;fill-opacity:1" />
  <g
     transform="matrix(0.06391589,0,0,0.06391589,4.3663022,4.2587944)"
     id="g4715"
     style="fill:#33659a;fill-opacity:1" />
  <g
     transform="matrix(0.06391589,0,0,0.06391589,4.3663022,4.2587944)"
     id="g4717"
     style="fill:#33659a;fill-opacity:1" />
  <g
     transform="matrix(0.06391589,0,0,0.06391589,4.3663022,4.2587944)"
     id="g4719"
     style="fill:#33659a;fill-opacity:1" />
  <g
     transform="matrix(0.06391589,0,0,0.06391589,4.3663022,4.2587944)"
     id="g4721"
     style="fill:#33659a;fill-opacity:1" />
  <g
     transform="matrix(0.06391589,0,0,0.06391589,4.3663022,4.2587944)"
     id="g4723"
     style="fill:#33659a;fill-opacity:1" />
  <g
     transform="matrix(0.06391589,0,0,0.06391589,4.3663022,4.2587944)"
     id="g4725"
     style="fill:#33659a;fill-opacity:1" />
  <g
     transform="matrix(0.80000004,0,0,0.80000004,6.6979261,6.8956035)"
     id="g4908"
     style="fill:#33659a;fill-opacity:1" />
  <g
     transform="matrix(0.80000004,0,0,0.80000004,6.6979261,6.8956035)"
     id="g4910"
     style="fill:#33659a;fill-opacity:1" />
  <g
     transform="matrix(0.80000004,0,0,0.80000004,6.6979261,6.8956035)"
     id="g4912"
     style="fill:#33659a;fill-opacity:1" />
  <g
     transform="matrix(0.80000004,0,0,0.80000004,6.6979261,6.8956035)"
     id="g4914"
     style="fill:#33659a;fill-opacity:1" />
  <g
     transform="matrix(0.80000004,0,0,0.80000004,6.6979261,6.8956035)"
     id="g4916"
     style="fill:#33659a;fill-opacity:1" />
  <g
     transform="matrix(0.80000004,0,0,0.80000004,6.6979261,6.8956035)"
     id="g4918"
     style="fill:#33659a;fill-opacity:1" />
  <g
     transform="matrix(0.80000004,0,0,0.80000004,6.6979261,6.8956035)"
     id="g4920"
     style="fill:#33659a;fill-opacity:1" />
  <g
     transform="matrix(0.80000004,0,0,0.80000004,6.6979261,6.8956035)"
     id="g4922"
     style="fill:#33659a;fill-opacity:1" />
  <g
     transform="matrix(0.80000004,0,0,0.80000004,6.6979261,6.8956035)"
     id="g4924"
     style="fill:#33659a;fill-opacity:1" />
  <g
     transform="matrix(0.80000004,0,0,0.80000004,6.6979261,6.8956035)"
     id="g4926"
     style="fill:#33659a;fill-opacity:1" />
  <g
     transform="matrix(0.80000004,0,0,0.80000004,6.6979261,6.8956035)"
     id="g4928"
     style="fill:#33659a;fill-opacity:1" />
  <g
     transform="matrix(0.80000004,0,0,0.80000004,6.6979261,6.8956035)"
     id="g4930"
     style="fill:#33659a;fill-opacity:1" />
  <g
     transform="matrix(0.80000004,0,0,0.80000004,6.6979261,6.8956035)"
     id="g4932"
     style="fill:#33659a;fill-opacity:1" />
  <g
     transform="matrix(0.80000004,0,0,0.80000004,6.6979261,6.8956035)"
     id="g4934"
     style="fill:#33659a;fill-opacity:1" />
  <g
     transform="matrix(0.80000004,0,0,0.80000004,6.6979261,6.8956035)"
     id="g4936"
     style="fill:#33659a;fill-opacity:1" />
  <g
     transform="matrix(0.80000004,0,0,0.80000004,20.401808,12.383081)"
     id="g5796"
     style="fill:#33659a;fill-opacity:1" />
  <g
     transform="matrix(0.80000004,0,0,0.80000004,20.401808,12.383081)"
     id="g5798"
     style="fill:#33659a;fill-opacity:1" />
  <g
     transform="matrix(0.80000004,0,0,0.80000004,20.401808,12.383081)"
     id="g5800"
     style="fill:#33659a;fill-opacity:1" />
  <g
     transform="matrix(0.80000004,0,0,0.80000004,20.401808,12.383081)"
     id="g5802"
     style="fill:#33659a;fill-opacity:1" />
  <g
     transform="matrix(0.80000004,0,0,0.80000004,20.401808,12.383081)"
     id="g5804"
     style="fill:#33659a;fill-opacity:1" />
  <g
     transform="matrix(0.80000004,0,0,0.80000004,20.401808,12.383081)"
     id="g5806"
     style="fill:#33659a;fill-opacity:1" />
  <g
     transform="matrix(0.80000004,0,0,0.80000004,20.401808,12.383081)"
     id="g5808"
     style="fill:#33659a;fill-opacity:1" />
  <g
     transform="matrix(0.80000004,0,0,0.80000004,20.401808,12.383081)"
     id="g5810"
     style="fill:#33659a;fill-opacity:1" />
  <g
     transform="matrix(0.80000004,0,0,0.80000004,20.401808,12.383081)"
     id="g5812"
     style="fill:#33659a;fill-opacity:1" />
  <g
     transform="matrix(0.80000004,0,0,0.80000004,20.401808,12.383081)"
     id="g5814"
     style="fill:#33659a;fill-opacity:1" />
  <g
     transform="matrix(0.80000004,0,0,0.80000004,20.401808,12.383081)"
     id="g5816"
     style="fill:#33659a;fill-opacity:1" />
  <g
     transform="matrix(0.80000004,0,0,0.80000004,20.401808,12.383081)"
     id="g5818"
     style="fill:#33659a;fill-opacity:1" />
  <g
     transform="matrix(0.80000004,0,0,0.80000004,20.401808,12.383081)"
     id="g5820"
     style="fill:#33659a;fill-opacity:1" />
  <g
     transform="matrix(0.80000004,0,0,0.80000004,20.401808,12.383081)"
     id="g5822"
     style="fill:#33659a;fill-opacity:1" />
  <g
     transform="matrix(0.80000004,0,0,0.80000004,20.401808,12.383081)"
     id="g5824"
     style="fill:#33659a;fill-opacity:1" />
  <g
     transform="matrix(0.09062452,0,0,0.09062452,4.8183904,4.9395825)"
     id="g6233" />
  <g
     transform="matrix(0.09062452,0,0,0.09062452,4.8183904,4.9395825)"
     id="g6235" />
  <g
     transform="matrix(0.09062452,0,0,0.09062452,4.8183904,4.9395825)"
     id="g6237" />
  <g
     transform="matrix(0.09062452,0,0,0.09062452,4.8183904,4.9395825)"
     id="g6239" />
  <g
     transform="matrix(0.09062452,0,0,0.09062452,4.8183904,4.9395825)"
     id="g6241" />
  <g
     transform="matrix(0.09062452,0,0,0.09062452,4.8183904,4.9395825)"
     id="g6243" />
  <g
     transform="matrix(0.09062452,0,0,0.09062452,4.8183904,4.9395825)"
     id="g6245" />
  <g
     transform="matrix(0.09062452,0,0,0.09062452,4.8183904,4.9395825)"
     id="g6247" />
  <g
     transform="matrix(0.09062452,0,0,0.09062452,4.8183904,4.9395825)"
     id="g6249" />
  <g
     transform="matrix(0.09062452,0,0,0.09062452,4.8183904,4.9395825)"
     id="g6251" />
  <g
     transform="matrix(0.09062452,0,0,0.09062452,4.8183904,4.9395825)"
     id="g6253" />
  <g
     transform="matrix(0.09062452,0,0,0.09062452,4.8183904,4.9395825)"
     id="g6255" />
  <g
     transform="matrix(0.09062452,0,0,0.09062452,4.8183904,4.9395825)"
     id="g6257" />
  <g
     transform="matrix(0.09062452,0,0,0.09062452,4.8183904,4.9395825)"
     id="g6259" />
  <g
     transform="matrix(0.09062452,0,0,0.09062452,4.8183904,4.9395825)"
     id="g6261" />
  <g
     transform="matrix(0.0567675,0,0,0.0567675,5.9286505,4.1622967)"
     id="g6631" />
  <g
     transform="matrix(0.0567675,0,0,0.0567675,5.9286505,4.1622967)"
     id="g6633" />
  <g
     transform="matrix(0.0567675,0,0,0.0567675,5.9286505,4.1622967)"
     id="g6635" />
  <g
     transform="matrix(0.0567675,0,0,0.0567675,5.9286505,4.1622967)"
     id="g6637" />
  <g
     transform="matrix(0.0567675,0,0,0.0567675,5.9286505,4.1622967)"
     id="g6639" />
  <g
     transform="matrix(0.0567675,0,0,0.0567675,5.9286505,4.1622967)"
     id="g6641" />
  <g
     transform="matrix(0.0567675,0,0,0.0567675,5.9286505,4.1622967)"
     id="g6643" />
  <g
     transform="matrix(0.0567675,0,0,0.0567675,5.9286505,4.1622967)"
     id="g6645" />
  <g
     transform="matrix(0.0567675,0,0,0.0567675,5.9286505,4.1622967)"
     id="g6647" />
  <g
     transform="matrix(0.0567675,0,0,0.0567675,5.9286505,4.1622967)"
     id="g6649" />
  <g
     transform="matrix(0.0567675,0,0,0.0567675,5.9286505,4.1622967)"
     id="g6651" />
  <g
     transform="matrix(0.0567675,0,0,0.0567675,5.9286505,4.1622967)"
     id="g6653" />
  <g
     transform="matrix(0.0567675,0,0,0.0567675,5.9286505,4.1622967)"
     id="g6655" />
  <g
     transform="matrix(0.0567675,0,0,0.0567675,5.9286505,4.1622967)"
     id="g6657" />
  <g
     transform="matrix(0.0567675,0,0,0.0567675,5.9286505,4.1622967)"
     id="g6659" />
  <g
     transform="matrix(1.1084823,0,0,1.1084823,7.9315466,6.690541)"
     id="g6848"
     style="fill:#33659a;fill-opacity:1" />
  <g
     transform="matrix(1.1084823,0,0,1.1084823,7.9315466,6.690541)"
     id="g6850"
     style="fill:#33659a;fill-opacity:1" />
  <g
     transform="matrix(1.1084823,0,0,1.1084823,7.9315466,6.690541)"
     id="g6852"
     style="fill:#33659a;fill-opacity:1" />
  <g
     transform="matrix(1.1084823,0,0,1.1084823,7.9315466,6.690541)"
     id="g6854"
     style="fill:#33659a;fill-opacity:1" />
  <g
     transform="matrix(1.1084823,0,0,1.1084823,7.9315466,6.690541)"
     id="g6856"
     style="fill:#33659a;fill-opacity:1" />
  <g
     transform="matrix(1.1084823,0,0,1.1084823,7.9315466,6.690541)"
     id="g6858"
     style="fill:#33659a;fill-opacity:1" />
  <g
     transform="matrix(1.1084823,0,0,1.1084823,7.9315466,6.690541)"
     id="g6860"
     style="fill:#33659a;fill-opacity:1" />
  <g
     transform="matrix(1.1084823,0,0,1.1084823,7.9315466,6.690541)"
     id="g6862"
     style="fill:#33659a;fill-opacity:1" />
  <g
     transform="matrix(1.1084823,0,0,1.1084823,7.9315466,6.690541)"
     id="g6864"
     style="fill:#33659a;fill-opacity:1" />
  <g
     transform="matrix(1.1084823,0,0,1.1084823,7.9315466,6.690541)"
     id="g6866"
     style="fill:#33659a;fill-opacity:1" />
  <g
     transform="matrix(1.1084823,0,0,1.1084823,7.9315466,6.690541)"
     id="g6868"
     style="fill:#33659a;fill-opacity:1" />
  <g
     transform="matrix(1.1084823,0,0,1.1084823,7.9315466,6.690541)"
     id="g6870"
     style="fill:#33659a;fill-opacity:1" />
  <g
     transform="matrix(1.1084823,0,0,1.1084823,7.9315466,6.690541)"
     id="g6872"
     style="fill:#33659a;fill-opacity:1" />
  <g
     transform="matrix(1.1084823,0,0,1.1084823,7.9315466,6.690541)"
     id="g6874"
     style="fill:#33659a;fill-opacity:1" />
  <g
     transform="matrix(1.1084823,0,0,1.1084823,7.9315466,6.690541)"
     id="g6876"
     style="fill:#33659a;fill-opacity:1" />
  <g
     transform="matrix(0.84392802,0,0,0.84392802,7.3662435,7.563406)"
     id="g7057"
     style="fill:#33659a;fill-opacity:1">
    <path
       inkscape:connector-curvature="0"
       style="fill:#33659a;fill-opacity:1"
       d="m 27.961,1.867 v 11.204 c 0,0.319 -0.258,0.578 -0.578,0.578 H 12.144 c -0.319,0 -0.578,-0.259 -0.578,-0.578 v -0.885 l 1.156,-0.775 v 1.082 H 26.804 V 2.444 H 12.721 V 6.673 C 12.67,6.712 12.615,6.746 12.567,6.79 L 12.405,6.902 C 12.21,6.392 11.913,5.99 11.566,5.66 V 1.867 c 0,-0.319 0.26,-0.578 0.578,-0.578 h 15.239 c 0.32,0 0.578,0.258 0.578,0.578 z M 14.316,9.461 15.008,8.997 H 15.007 C 15.008,8.993 15.01,8.993 15.012,8.99 15.364,8.641 15.418,8.122 15.2,7.713 L 20.799,3.914 20.545,3.539 14.899,7.369 C 14.722,7.241 14.524,7.16 14.316,7.153 14.02,7.143 13.719,7.243 13.493,7.47 c 0,0 -0.005,0.006 -0.007,0.006 L 13.348,7.572 12.094,8.428 V 8.064 C 11.861,5.295 8.652,5.336 8.652,5.336 H 7.262 L 6.094,7.258 4.92,5.337 H 3.587 C -0.034,5.405 0.094,8.064 0.094,8.064 v 6.206 h 0.002 c 0.001,0.016 -0.002,0.035 -0.002,0.048 0,0.591 0.477,1.066 1.066,1.066 0.587,0 1.064,-0.477 1.064,-1.066 0,-0.013 0,-0.032 -0.002,-0.048 H 2.224 V 8.53 H 2.89 L 2.882,26.613 c 0,0.795 0.646,1.441 1.438,1.441 0.795,0 1.439,-0.646 1.439,-1.441 V 14.943 H 6.4 v 11.683 l 0.012,0.013 c 0.01,0.781 0.646,1.415 1.432,1.415 0.789,0 1.431,-0.643 1.431,-1.432 L 9.271,8.5 h 0.693 v 1.888 c 0,0.002 0,0.007 0,0.009 0,0.587 0.477,1.065 1.063,1.065 0.173,0 0.328,-0.049 0.475,-0.125 l 0.005,0.007 1.84,-1.234 0.969,-0.649 z M 6.073,4.874 C 7.419,4.874 8.51,3.783 8.51,2.437 8.51,1.091 7.419,0 6.073,0 4.727,0 3.636,1.092 3.636,2.437 c 0,1.345 1.091,2.437 2.437,2.437 z"
       id="path7059" />
  </g>
  <g
     transform="matrix(0.80000004,0,0,0.80000004,8.1878236,7.563406)"
     id="g7061"
     style="fill:#33659a;fill-opacity:1" />
  <g
     transform="matrix(0.80000004,0,0,0.80000004,8.1878236,7.563406)"
     id="g7063"
     style="fill:#33659a;fill-opacity:1" />
  <g
     transform="matrix(0.80000004,0,0,0.80000004,8.1878236,7.563406)"
     id="g7065"
     style="fill:#33659a;fill-opacity:1" />
  <g
     transform="matrix(0.80000004,0,0,0.80000004,8.1878236,7.563406)"
     id="g7067"
     style="fill:#33659a;fill-opacity:1" />
  <g
     transform="matrix(0.80000004,0,0,0.80000004,8.1878236,7.563406)"
     id="g7069"
     style="fill:#33659a;fill-opacity:1" />
  <g
     transform="matrix(0.80000004,0,0,0.80000004,8.1878236,7.563406)"
     id="g7071"
     style="fill:#33659a;fill-opacity:1" />
  <g
     transform="matrix(0.80000004,0,0,0.80000004,8.1878236,7.563406)"
     id="g7073"
     style="fill:#33659a;fill-opacity:1" />
  <g
     transform="matrix(0.80000004,0,0,0.80000004,8.1878236,7.563406)"
     id="g7075"
     style="fill:#33659a;fill-opacity:1" />
  <g
     transform="matrix(0.80000004,0,0,0.80000004,8.1878236,7.563406)"
     id="g7077"
     style="fill:#33659a;fill-opacity:1" />
  <g
     transform="matrix(0.80000004,0,0,0.80000004,8.1878236,7.563406)"
     id="g7079"
     style="fill:#33659a;fill-opacity:1" />
  <g
     transform="matrix(0.80000004,0,0,0.80000004,8.1878236,7.563406)"
     id="g7081"
     style="fill:#33659a;fill-opacity:1" />
  <g
     transform="matrix(0.80000004,0,0,0.80000004,8.1878236,7.563406)"
     id="g7083"
     style="fill:#33659a;fill-opacity:1" />
  <g
     transform="matrix(0.80000004,0,0,0.80000004,8.1878236,7.563406)"
     id="g7085"
     style="fill:#33659a;fill-opacity:1" />
  <g
     transform="matrix(0.80000004,0,0,0.80000004,8.1878236,7.563406)"
     id="g7087"
     style="fill:#33659a;fill-opacity:1" />
  <g
     transform="matrix(0.80000004,0,0,0.80000004,8.1878236,7.563406)"
     id="g7089"
     style="fill:#33659a;fill-opacity:1" />
</svg>
