<?xml version="1.0" encoding="utf-8"?>
<!-- Generator: Adobe Illustrator 18.1.1, SVG Export Plug-In . SVG Version: 6.00 Build 0)  -->
<svg version="1.1" id="Layer_1" xmlns="http://www.w3.org/2000/svg" xmlns:xlink="http://www.w3.org/1999/xlink" x="0px" y="0px"
	 viewBox="0 0 46 46" enable-background="new 0 0 46 46" xml:space="preserve">
<circle opacity="0.5" fill="#001022" cx="23" cy="23" r="23"/>
<g id="g7057_1_" transform="matrix(0.84392802,0,0,0.84392802,7.3662435,7.563406)">
	<path id="path7059_1_" fill="#FFFFFF" d="M36,3.3v14c0,0.4-0.3,0.7-0.7,0.7h-19
		c-0.4,0-0.7-0.3-0.7-0.7v-1.1l1.4-1v1.4h17.6V4H16.9v5.3c-0.1,0-0.1,0.1-0.2,0.1l-0.2,0.1c-0.2-0.6-0.6-1.1-1-1.6V3.3
		c0-0.4,0.3-0.7,0.7-0.7h19C35.6,2.6,36,2.9,36,3.3z M18.9,12.8l0.9-0.6h0c0,0,0,0,0,0c0.4-0.4,0.5-1.1,0.2-1.6l7-4.7l-0.3-0.5
		l-7.1,4.8c-0.2-0.2-0.5-0.3-0.7-0.3c-0.4,0-0.7,0.1-1,0.4c0,0,0,0,0,0l-0.2,0.1l-1.6,1.1v-0.5c-0.3-3.5-4.3-3.4-4.3-3.4h-1.7
		L8.6,10L7.2,7.6H5.5C1,7.7,1.1,11.1,1.1,11.1v7.8h0c0,0,0,0,0,0.1c0,0.7,0.6,1.3,1.3,1.3c0.7,0,1.3-0.6,1.3-1.3c0,0,0,0,0-0.1h0
		v-7.2h0.8l0,22.6c0,1,0.8,1.8,1.8,1.8c1,0,1.8-0.8,1.8-1.8V19.7H9v14.6l0,0c0,1,0.8,1.8,1.8,1.8c1,0,1.8-0.8,1.8-1.8l0-22.7h0.9V14
		c0,0,0,0,0,0c0,0.7,0.6,1.3,1.3,1.3c0.2,0,0.4-0.1,0.6-0.2l0,0l2.3-1.5L18.9,12.8z M8.6,7.1c1.7,0,3-1.4,3-3s-1.4-3-3-3s-3,1.4-3,3
		S6.9,7.1,8.6,7.1z"/>
</g>
</svg>
