<?xml version="1.0" encoding="UTF-8" standalone="no"?>
<!-- Created with Inkscape (http://www.inkscape.org/) -->

<svg
   xmlns:dc="http://purl.org/dc/elements/1.1/"
   xmlns:cc="http://creativecommons.org/ns#"
   xmlns:rdf="http://www.w3.org/1999/02/22-rdf-syntax-ns#"
   xmlns:svg="http://www.w3.org/2000/svg"
   xmlns="http://www.w3.org/2000/svg"
   version="1.1"
   width="48"
   height="48"
   viewBox="0 0 38.400002 38.399998"
   id="svg3013"
   style="fill-rule:evenodd">
  <metadata
     id="metadata3029">
    <rdf:RDF>
      <cc:Work
         rdf:about="">
        <dc:format>image/svg+xml</dc:format>
        <dc:type
           rdf:resource="http://purl.org/dc/dcmitype/StillImage" />
        <dc:title></dc:title>
      </cc:Work>
    </rdf:RDF>
  </metadata>
  <defs
     id="defs3027" />
  <path
     d="m 45.721392,23.074537 a 22.096125,22.096125 0 1 1 -44.1922496,0 22.096125,22.096125 0 1 1 44.1922496,0 z"
     transform="matrix(0.83341912,0,0,0.83341912,-0.48974807,-0.03076136)"
     id="path2983"
     style="fill:none;stroke:#00c7ff;stroke-width:1.88301039;stroke-opacity:1" />
  <g
     transform="matrix(0.04571383,0,0,0.04571383,43.163691,4.246916)"
     id="g3961" />
  <g
     transform="matrix(0.04571383,0,0,0.04571383,43.163691,4.246916)"
     id="g3963" />
  <g
     transform="matrix(0.04571383,0,0,0.04571383,43.163691,4.246916)"
     id="g3965" />
  <g
     transform="matrix(0.04571383,0,0,0.04571383,43.163691,4.246916)"
     id="g3967" />
  <g
     transform="matrix(0.04571383,0,0,0.04571383,43.163691,4.246916)"
     id="g3969" />
  <g
     transform="matrix(0.04571383,0,0,0.04571383,43.163691,4.246916)"
     id="g3971" />
  <g
     transform="matrix(0.04571383,0,0,0.04571383,43.163691,4.246916)"
     id="g3973" />
  <g
     transform="matrix(0.04571383,0,0,0.04571383,43.163691,4.246916)"
     id="g3975" />
  <g
     transform="matrix(0.04571383,0,0,0.04571383,43.163691,4.246916)"
     id="g3977" />
  <g
     transform="matrix(0.04571383,0,0,0.04571383,43.163691,4.246916)"
     id="g3979" />
  <g
     transform="matrix(0.04571383,0,0,0.04571383,43.163691,4.246916)"
     id="g3981" />
  <g
     transform="matrix(0.04571383,0,0,0.04571383,43.163691,4.246916)"
     id="g3983" />
  <g
     transform="matrix(0.04571383,0,0,0.04571383,43.163691,4.246916)"
     id="g3985" />
  <g
     transform="matrix(0.04571383,0,0,0.04571383,43.163691,4.246916)"
     id="g3987" />
  <g
     transform="matrix(0.04571383,0,0,0.04571383,43.163691,4.246916)"
     id="g3989" />
  <g
     transform="matrix(0.06874618,0,0,0.06874618,6.6942401,6.9421096)"
     id="g3807" />
  <g
     transform="matrix(0.06874618,0,0,0.06874618,6.6942401,6.9421096)"
     id="g3809" />
  <g
     transform="matrix(0.06874618,0,0,0.06874618,6.6942401,6.9421096)"
     id="g3811" />
  <g
     transform="matrix(0.06874618,0,0,0.06874618,6.6942401,6.9421096)"
     id="g3813" />
  <g
     transform="matrix(0.06874618,0,0,0.06874618,6.6942401,6.9421096)"
     id="g3815" />
  <g
     transform="matrix(0.06874618,0,0,0.06874618,6.6942401,6.9421096)"
     id="g3817" />
  <g
     transform="matrix(0.06874618,0,0,0.06874618,6.6942401,6.9421096)"
     id="g3819" />
  <g
     transform="matrix(0.06874618,0,0,0.06874618,6.6942401,6.9421096)"
     id="g3821" />
  <g
     transform="matrix(0.06874618,0,0,0.06874618,6.6942401,6.9421096)"
     id="g3823" />
  <g
     transform="matrix(0.06874618,0,0,0.06874618,6.6942401,6.9421096)"
     id="g3825" />
  <g
     transform="matrix(0.06874618,0,0,0.06874618,6.6942401,6.9421096)"
     id="g3827" />
  <g
     transform="matrix(0.06874618,0,0,0.06874618,6.6942401,6.9421096)"
     id="g3829" />
  <g
     transform="matrix(0.06874618,0,0,0.06874618,6.6942401,6.9421096)"
     id="g3831" />
  <g
     transform="matrix(0.06874618,0,0,0.06874618,6.6942401,6.9421096)"
     id="g3833" />
  <g
     transform="matrix(0.06874618,0,0,0.06874618,6.6942401,6.9421096)"
     id="g3835" />
  <g
     transform="matrix(0.80000004,0,0,0.80000004,6.8150226,6.4378103)"
     id="g4379"
     style="fill:#33659a;fill-opacity:1" />
  <g
     transform="matrix(0.80000004,0,0,0.80000004,6.8150226,6.4378103)"
     id="g4381"
     style="fill:#33659a;fill-opacity:1" />
  <g
     transform="matrix(0.80000004,0,0,0.80000004,6.8150226,6.4378103)"
     id="g4383"
     style="fill:#33659a;fill-opacity:1" />
  <g
     transform="matrix(0.80000004,0,0,0.80000004,6.8150226,6.4378103)"
     id="g4385"
     style="fill:#33659a;fill-opacity:1" />
  <g
     transform="matrix(0.80000004,0,0,0.80000004,6.8150226,6.4378103)"
     id="g4387"
     style="fill:#33659a;fill-opacity:1" />
  <g
     transform="matrix(0.80000004,0,0,0.80000004,6.8150226,6.4378103)"
     id="g4389"
     style="fill:#33659a;fill-opacity:1" />
  <g
     transform="matrix(0.80000004,0,0,0.80000004,6.8150226,6.4378103)"
     id="g4391"
     style="fill:#33659a;fill-opacity:1" />
  <g
     transform="matrix(0.80000004,0,0,0.80000004,6.8150226,6.4378103)"
     id="g4393"
     style="fill:#33659a;fill-opacity:1" />
  <g
     transform="matrix(0.80000004,0,0,0.80000004,6.8150226,6.4378103)"
     id="g4395"
     style="fill:#33659a;fill-opacity:1" />
  <g
     transform="matrix(0.80000004,0,0,0.80000004,6.8150226,6.4378103)"
     id="g4397"
     style="fill:#33659a;fill-opacity:1" />
  <g
     transform="matrix(0.80000004,0,0,0.80000004,6.8150226,6.4378103)"
     id="g4399"
     style="fill:#33659a;fill-opacity:1" />
  <g
     transform="matrix(0.80000004,0,0,0.80000004,6.8150226,6.4378103)"
     id="g4401"
     style="fill:#33659a;fill-opacity:1" />
  <g
     transform="matrix(0.80000004,0,0,0.80000004,6.8150226,6.4378103)"
     id="g4403"
     style="fill:#33659a;fill-opacity:1" />
  <g
     transform="matrix(0.80000004,0,0,0.80000004,6.8150226,6.4378103)"
     id="g4405"
     style="fill:#33659a;fill-opacity:1" />
  <g
     transform="matrix(0.80000004,0,0,0.80000004,6.8150226,6.4378103)"
     id="g4407"
     style="fill:#33659a;fill-opacity:1" />
  <g
     transform="matrix(0.06408625,0,0,0.06408625,6.9308767,6.8213352)"
     id="g4908">
    <g
       id="g4866"
       style="fill:#33659a;fill-opacity:1">
	<g
   id="g4868"
   style="fill:#33659a;fill-opacity:1">
		<path
   d="m 292.41,236.617 -42.814,-27.769 c 5.495,-15.665 4.255,-33.162 -3.707,-48.011 l 35.117,-31.373 c 19.292,12.035 45.001,9.686 61.771,-7.085 19.521,-19.52 19.521,-51.171 0,-70.692 -19.522,-19.521 -51.175,-19.521 -70.694,0 -15.378,15.378 -18.632,38.274 -9.788,56.848 l -35.121,31.378 c -16.812,-11.635 -38.258,-13.669 -56.688,-6.078 l -40.5,-55.733 c 14.528,-19.074 13.095,-46.421 -4.331,-63.849 -19.004,-19.004 -49.816,-19.004 -68.821,0 -19.005,19.005 -19.005,49.818 0,68.822 13.646,13.646 33.374,17.491 50.451,11.545 l 40.505,55.738 c -20.002,23.461 -18.936,58.729 3.242,80.906 0.426,0.426 0.864,0.825 1.303,1.237 l -39.242,68.874 c -16.31,-3.857 -34.179,0.564 -46.899,13.286 -19.521,19.522 -19.521,51.175 0,70.694 19.521,19.521 51.173,19.521 70.693,0 19.317,-19.315 19.508,-50.503 0.593,-70.069 l 39.239,-68.867 c 19.705,5.658 41.737,0.978 57.573,-14.033 l 42.855,27.79 c -2.736,12.706 0.821,26.498 10.696,36.372 15.469,15.469 40.544,15.469 56.012,0 15.468,-15.466 15.468,-40.543 0,-56.011 -14.024,-14.019 -35.947,-15.328 -51.445,-3.92 z M 83.129,338.906 c -0.951,1.078 -1.846,2.096 -2.724,2.973 -1.094,1.093 -2.589,2.425 -4.444,2.998 -2.33,0.719 -4.711,0.086 -6.536,-1.739 -4.772,-4.771 -2.947,-13.799 4.246,-20.989 7.195,-7.195 16.219,-9.021 20.993,-4.247 1.824,1.822 2.457,4.205 1.737,6.536 -0.572,1.855 -1.904,3.354 -2.997,4.444 -0.878,0.876 -1.896,1.771 -2.975,2.722 -1.245,1.096 -2.535,2.229 -3.805,3.497 -1.269,1.269 -2.4,2.559 -3.495,3.805 z M 279.56,59.17 c 7.193,-7.193 16.219,-9.02 20.991,-4.247 1.823,1.823 2.458,4.205 1.737,6.537 -0.572,1.856 -1.905,3.354 -2.997,4.446 -0.876,0.875 -1.894,1.77 -2.974,2.72 -1.246,1.097 -2.534,2.229 -3.805,3.498 -1.271,1.271 -2.403,2.562 -3.5,3.808 -0.948,1.076 -1.846,2.097 -2.72,2.973 -1.093,1.093 -2.591,2.425 -4.446,2.998 -2.332,0.719 -4.712,0.086 -6.536,-1.739 -4.769,-4.773 -2.944,-13.802 4.25,-20.994 z M 73.322,37.854 c -0.928,1.05 -1.799,2.042 -2.648,2.895 -1.063,1.063 -2.521,2.358 -4.329,2.919 -2.269,0.698 -4.587,0.083 -6.364,-1.691 -4.646,-4.647 -2.866,-13.436 4.138,-20.438 7.003,-7.004 15.788,-8.782 20.436,-4.135 1.776,1.776 2.395,4.095 1.692,6.363 -0.561,1.807 -1.854,3.265 -2.918,4.326 -0.854,0.854 -1.846,1.727 -2.896,2.648 -1.213,1.066 -2.469,2.17 -3.704,3.406 -1.237,1.237 -2.342,2.495 -3.407,3.707 z m 86.645,117.906 c 8.593,-8.594 19.371,-10.774 25.073,-5.073 2.18,2.181 2.937,5.024 2.078,7.81 -0.688,2.218 -2.277,4.005 -3.583,5.312 -1.047,1.047 -2.265,2.112 -3.553,3.248 -1.486,1.311 -3.026,2.662 -4.544,4.179 -1.518,1.519 -2.87,3.058 -4.178,4.547 -1.136,1.287 -2.205,2.505 -3.251,3.55 -1.306,1.31 -3.093,2.896 -5.311,3.582 -2.784,0.859 -5.628,0.104 -7.811,-2.077 -5.698,-5.706 -3.513,-16.484 5.08,-25.078 z M 299.11,262.103 c -0.868,0.866 -2.056,1.923 -3.524,2.376 -1.846,0.569 -3.729,0.068 -5.178,-1.377 -3.783,-3.781 -2.338,-10.933 3.365,-16.633 5.697,-5.7 12.849,-7.146 16.632,-3.362 1.443,1.443 1.945,3.33 1.376,5.179 -0.453,1.471 -1.51,2.656 -2.375,3.521 -0.694,0.692 -1.5,1.402 -2.355,2.155 -0.984,0.866 -2.008,1.766 -3.013,2.771 -1.007,1.006 -1.907,2.026 -2.771,3.016 -0.755,0.855 -1.465,1.66 -2.157,2.354 z"
   id="path4870"
   style="fill:#33659a;fill-opacity:1" />

	</g>

</g>
    <g
       id="g4872">
</g>
    <g
       id="g4874">
</g>
    <g
       id="g4876">
</g>
    <g
       id="g4878">
</g>
    <g
       id="g4880">
</g>
    <g
       id="g4882">
</g>
    <g
       id="g4884">
</g>
    <g
       id="g4886">
</g>
    <g
       id="g4888">
</g>
    <g
       id="g4890">
</g>
    <g
       id="g4892">
</g>
    <g
       id="g4894">
</g>
    <g
       id="g4896">
</g>
    <g
       id="g4898">
</g>
    <g
       id="g4900">
</g>
  </g>
</svg>
