<?xml version="1.0" encoding="UTF-8" standalone="no"?>
<!-- Created with Inkscape (http://www.inkscape.org/) -->

<svg
   xmlns:dc="http://purl.org/dc/elements/1.1/"
   xmlns:cc="http://creativecommons.org/ns#"
   xmlns:rdf="http://www.w3.org/1999/02/22-rdf-syntax-ns#"
   xmlns:svg="http://www.w3.org/2000/svg"
   xmlns="http://www.w3.org/2000/svg"
   version="1.1"
   width="96"
   height="48"
   viewBox="0 0 76.800004 38.399998"
   id="svg3013"
   style="fill-rule:evenodd">
  <metadata
     id="metadata3029">
    <rdf:RDF>
      <cc:Work
         rdf:about="">
        <dc:format>image/svg+xml</dc:format>
        <dc:type
           rdf:resource="http://purl.org/dc/dcmitype/StillImage" />
        <dc:title></dc:title>
      </cc:Work>
    </rdf:RDF>
  </metadata>
  <defs
     id="defs3027" />
  <g
     transform="matrix(0.04571383,0,0,0.04571383,43.163691,4.246916)"
     id="g3961" />
  <g
     transform="matrix(0.04571383,0,0,0.04571383,43.163691,4.246916)"
     id="g3963" />
  <g
     transform="matrix(0.04571383,0,0,0.04571383,43.163691,4.246916)"
     id="g3965" />
  <g
     transform="matrix(0.04571383,0,0,0.04571383,43.163691,4.246916)"
     id="g3967" />
  <g
     transform="matrix(0.04571383,0,0,0.04571383,43.163691,4.246916)"
     id="g3969" />
  <g
     transform="matrix(0.04571383,0,0,0.04571383,43.163691,4.246916)"
     id="g3971" />
  <g
     transform="matrix(0.04571383,0,0,0.04571383,43.163691,4.246916)"
     id="g3973" />
  <g
     transform="matrix(0.04571383,0,0,0.04571383,43.163691,4.246916)"
     id="g3975" />
  <g
     transform="matrix(0.04571383,0,0,0.04571383,43.163691,4.246916)"
     id="g3977" />
  <g
     transform="matrix(0.04571383,0,0,0.04571383,43.163691,4.246916)"
     id="g3979" />
  <g
     transform="matrix(0.04571383,0,0,0.04571383,43.163691,4.246916)"
     id="g3981" />
  <g
     transform="matrix(0.04571383,0,0,0.04571383,43.163691,4.246916)"
     id="g3983" />
  <g
     transform="matrix(0.04571383,0,0,0.04571383,43.163691,4.246916)"
     id="g3985" />
  <g
     transform="matrix(0.04571383,0,0,0.04571383,43.163691,4.246916)"
     id="g3987" />
  <g
     transform="matrix(0.04571383,0,0,0.04571383,43.163691,4.246916)"
     id="g3989" />
  <g
     transform="matrix(0.06874618,0,0,0.06874618,6.6942401,6.9421096)"
     id="g3807" />
  <g
     transform="matrix(0.06874618,0,0,0.06874618,6.6942401,6.9421096)"
     id="g3809" />
  <g
     transform="matrix(0.06874618,0,0,0.06874618,6.6942401,6.9421096)"
     id="g3811" />
  <g
     transform="matrix(0.06874618,0,0,0.06874618,6.6942401,6.9421096)"
     id="g3813" />
  <g
     transform="matrix(0.06874618,0,0,0.06874618,6.6942401,6.9421096)"
     id="g3815" />
  <g
     transform="matrix(0.06874618,0,0,0.06874618,6.6942401,6.9421096)"
     id="g3817" />
  <g
     transform="matrix(0.06874618,0,0,0.06874618,6.6942401,6.9421096)"
     id="g3819" />
  <g
     transform="matrix(0.06874618,0,0,0.06874618,6.6942401,6.9421096)"
     id="g3821" />
  <g
     transform="matrix(0.06874618,0,0,0.06874618,6.6942401,6.9421096)"
     id="g3823" />
  <g
     transform="matrix(0.06874618,0,0,0.06874618,6.6942401,6.9421096)"
     id="g3825" />
  <g
     transform="matrix(0.06874618,0,0,0.06874618,6.6942401,6.9421096)"
     id="g3827" />
  <g
     transform="matrix(0.06874618,0,0,0.06874618,6.6942401,6.9421096)"
     id="g3829" />
  <g
     transform="matrix(0.06874618,0,0,0.06874618,6.6942401,6.9421096)"
     id="g3831" />
  <g
     transform="matrix(0.06874618,0,0,0.06874618,6.6942401,6.9421096)"
     id="g3833" />
  <g
     transform="matrix(0.06874618,0,0,0.06874618,6.6942401,6.9421096)"
     id="g3835" />
  <g
     transform="matrix(0.80000004,0,0,0.80000004,6.8150226,6.4378103)"
     id="g4379"
     style="fill:#33659a;fill-opacity:1" />
  <g
     transform="matrix(0.80000004,0,0,0.80000004,6.8150226,6.4378103)"
     id="g4381"
     style="fill:#33659a;fill-opacity:1" />
  <g
     transform="matrix(0.80000004,0,0,0.80000004,6.8150226,6.4378103)"
     id="g4383"
     style="fill:#33659a;fill-opacity:1" />
  <g
     transform="matrix(0.80000004,0,0,0.80000004,6.8150226,6.4378103)"
     id="g4385"
     style="fill:#33659a;fill-opacity:1" />
  <g
     transform="matrix(0.80000004,0,0,0.80000004,6.8150226,6.4378103)"
     id="g4387"
     style="fill:#33659a;fill-opacity:1" />
  <g
     transform="matrix(0.80000004,0,0,0.80000004,6.8150226,6.4378103)"
     id="g4389"
     style="fill:#33659a;fill-opacity:1" />
  <g
     transform="matrix(0.80000004,0,0,0.80000004,6.8150226,6.4378103)"
     id="g4391"
     style="fill:#33659a;fill-opacity:1" />
  <g
     transform="matrix(0.80000004,0,0,0.80000004,6.8150226,6.4378103)"
     id="g4393"
     style="fill:#33659a;fill-opacity:1" />
  <g
     transform="matrix(0.80000004,0,0,0.80000004,6.8150226,6.4378103)"
     id="g4395"
     style="fill:#33659a;fill-opacity:1" />
  <g
     transform="matrix(0.80000004,0,0,0.80000004,6.8150226,6.4378103)"
     id="g4397"
     style="fill:#33659a;fill-opacity:1" />
  <g
     transform="matrix(0.80000004,0,0,0.80000004,6.8150226,6.4378103)"
     id="g4399"
     style="fill:#33659a;fill-opacity:1" />
  <g
     transform="matrix(0.80000004,0,0,0.80000004,6.8150226,6.4378103)"
     id="g4401"
     style="fill:#33659a;fill-opacity:1" />
  <g
     transform="matrix(0.80000004,0,0,0.80000004,6.8150226,6.4378103)"
     id="g4403"
     style="fill:#33659a;fill-opacity:1" />
  <g
     transform="matrix(0.80000004,0,0,0.80000004,6.8150226,6.4378103)"
     id="g4405"
     style="fill:#33659a;fill-opacity:1" />
  <g
     transform="matrix(0.80000004,0,0,0.80000004,6.8150226,6.4378103)"
     id="g4407"
     style="fill:#33659a;fill-opacity:1" />
  <g
     transform="translate(-39.182037,-0.014888)"
     id="g5947">
    <path
       d="m 103.25238,22.00012 -2.74379,-1.779611 c 0.35216,-1.003912 0.27269,-2.125229 -0.23757,-3.076845 l 2.25052,-2.010578 c 1.23635,0.771278 2.88395,0.620739 3.95867,-0.454051 1.25103,-1.250964 1.25103,-3.279358 0,-4.530386 -1.25109,-1.2510273 -3.27961,-1.2510273 -4.53051,0 -0.98552,0.985519 -1.19406,2.452838 -0.62728,3.643176 l -2.25077,2.010898 c -1.077418,-0.745644 -2.451812,-0.875995 -3.632922,-0.389516 l -2.595493,-3.571719 c 0.931045,-1.222381 0.83921,-2.9749481 -0.277557,-4.0918433 -1.217895,-1.2178951 -3.192521,-1.2178951 -4.41048,0 -1.217959,1.2179592 -1.217959,3.1926493 0,4.4105443 0.874521,0.874521 2.138814,1.120932 3.233215,0.739875 l 2.595814,3.57204 c -1.281853,1.503527 -1.213537,3.763721 0.207768,5.184962 0.0273,0.0273 0.05537,0.05287 0.0835,0.07927 l -2.514873,4.413876 c -1.045246,-0.247181 -2.190404,0.03614 -3.005581,0.85145 -1.251027,1.251092 -1.251027,3.279614 0,4.530513 1.251028,1.251028 3.279486,1.251028 4.53045,0 1.237954,-1.237826 1.250194,-3.236548 0.038,-4.490459 l 2.51468,-4.413428 c 1.26282,0.3626 2.674768,0.06268 3.689638,-0.899322 l 2.746411,1.780957 c -0.17534,0.814279 0.0526,1.698157 0.68547,2.330945 0.99135,0.99135 2.59831,0.99135 3.5896,0 0.99128,-0.991158 0.99128,-2.598249 0,-3.589535 -0.89875,-0.898425 -2.30371,-0.982314 -3.29692,-0.251218 z m -13.412034,6.555318 c -0.06095,0.06909 -0.118303,0.134325 -0.174571,0.190528 -0.07011,0.07005 -0.165919,0.15541 -0.284799,0.192131 -0.149321,0.04608 -0.301911,0.0055 -0.418868,-0.111446 -0.30582,-0.305755 -0.188862,-0.884326 0.27211,-1.345106 0.461101,-0.461101 1.039415,-0.578122 1.345363,-0.272175 0.116893,0.116766 0.15746,0.269483 0.111318,0.418868 -0.03666,0.11888 -0.122021,0.214945 -0.192067,0.284799 -0.05627,0.05614 -0.121507,0.113497 -0.190656,0.174443 -0.07979,0.07024 -0.162459,0.142848 -0.243849,0.22411 -0.08133,0.08132 -0.153807,0.163997 -0.223981,0.243848 z M 102.42887,10.628207 c 0.46097,-0.460973 1.03942,-0.578058 1.34524,-0.272174 0.11683,0.116829 0.15752,0.269482 0.11131,0.418931 -0.0366,0.118944 -0.12208,0.214946 -0.19206,0.284928 -0.0561,0.05607 -0.12138,0.113432 -0.19059,0.174314 -0.0799,0.0703 -0.1624,0.142849 -0.24385,0.224174 -0.0815,0.08145 -0.154,0.164189 -0.2243,0.244041 -0.0608,0.06896 -0.11831,0.134388 -0.17432,0.190528 -0.07,0.07005 -0.16605,0.155409 -0.28493,0.192131 -0.14945,0.04608 -0.30197,0.0055 -0.41886,-0.111446 -0.30563,-0.305884 -0.18867,-0.884519 0.27236,-1.345427 z M 89.211852,9.2621443 c -0.05947,0.067291 -0.115291,0.1308641 -0.1697,0.1855297 -0.06812,0.068124 -0.161562,0.1511154 -0.27743,0.1870678 -0.145411,0.044732 -0.293963,0.00532 -0.407845,-0.1083699 -0.297744,-0.2978088 -0.183671,-0.8610628 0.265189,-1.3097948 0.448796,-0.4488601 1.011794,-0.5628054 1.309667,-0.2649966 0.113817,0.1138172 0.153486,0.2624332 0.108434,0.4077808 -0.03595,0.1158039 -0.118816,0.2092416 -0.187004,0.2772371 -0.05473,0.05473 -0.118303,0.110677 -0.185594,0.1697004 -0.07774,0.068316 -0.158229,0.1390672 -0.237375,0.2182778 -0.07927,0.079275 -0.15009,0.1598952 -0.218342,0.2375677 z m 5.552753,7.5561537 c 0.550693,-0.550758 1.241415,-0.690466 1.606835,-0.32511 0.139708,0.139772 0.188221,0.321969 0.133171,0.500514 -0.04409,0.142143 -0.145924,0.256665 -0.229621,0.340426 -0.0671,0.0671 -0.145155,0.13535 -0.227699,0.208152 -0.09523,0.08402 -0.193925,0.170598 -0.291207,0.267817 -0.09728,0.09735 -0.183928,0.195975 -0.267753,0.2914 -0.0728,0.08248 -0.14131,0.160536 -0.208344,0.227506 -0.0837,0.08395 -0.198219,0.185594 -0.340362,0.229557 -0.178416,0.05505 -0.360678,0.0067 -0.500578,-0.133107 -0.365163,-0.365676 -0.225135,-1.056398 0.325558,-1.607155 z m 8.917155,6.815124 c -0.0556,0.0555 -0.13176,0.123238 -0.22584,0.152269 -0.1183,0.03646 -0.23898,0.0044 -0.33184,-0.08825 -0.24244,-0.24231 -0.14983,-0.700655 0.21565,-1.065947 0.3651,-0.365291 0.82344,-0.45796 1.06588,-0.215458 0.0925,0.09248 0.12465,0.213408 0.0882,0.331903 -0.029,0.09427 -0.0968,0.170213 -0.15221,0.225648 -0.0445,0.04435 -0.0961,0.08985 -0.15092,0.138106 -0.0631,0.0555 -0.12869,0.113176 -0.19309,0.177583 -0.0645,0.06447 -0.12222,0.129838 -0.17759,0.193284 -0.0484,0.05479 -0.0939,0.106383 -0.13823,0.150859 z"
       id="path4870"
       style="fill:#000000;fill-opacity:1;fill-rule:evenodd" />
  </g>
  <path
     d="m 25.670339,21.985232 -2.743788,-1.779611 c 0.352154,-1.003912 0.272687,-2.125229 -0.237568,-3.076845 L 24.9395,15.118198 c 1.236352,0.771278 2.883945,0.620739 3.958672,-0.454051 1.251027,-1.250964 1.251027,-3.279358 0,-4.530386 -1.251092,-1.2510273 -3.279614,-1.2510273 -4.530514,0 -0.985518,0.985519 -1.194055,2.452838 -0.627276,3.643176 l -2.250773,2.010898 C 20.412191,15.042191 19.037797,14.91184 17.856687,15.398319 L 15.261194,11.8266 c 0.931045,-1.222381 0.83921,-2.9749481 -0.277557,-4.0918433 -1.217895,-1.2178951 -3.192521,-1.2178951 -4.41048,0 -1.2179592,1.2179592 -1.2179592,3.1926493 0,4.4105443 0.874521,0.874521 2.138814,1.120932 3.233215,0.739875 l 2.595814,3.57204 c -1.281853,1.503527 -1.213537,3.763721 0.207768,5.184962 0.0273,0.0273 0.05537,0.05287 0.0835,0.07927 l -2.514873,4.413876 c -1.045246,-0.247181 -2.190404,0.03615 -3.005581,0.85145 -1.2510275,1.251092 -1.2510275,3.279614 0,4.530513 1.251028,1.251028 3.279486,1.251028 4.53045,0 1.237954,-1.237826 1.250194,-3.236548 0.038,-4.490459 L 18.25613,22.6134 c 1.26282,0.3626 2.674768,0.06268 3.689638,-0.899322 l 2.746416,1.780957 c -0.17534,0.814279 0.05261,1.698157 0.685466,2.330945 0.991351,0.99135 2.598313,0.99135 3.589599,0 0.991287,-0.991158 0.991287,-2.598249 0,-3.589535 -0.898745,-0.898425 -2.303708,-0.982314 -3.296917,-0.251218 z M 12.258305,28.54055 c -0.06095,0.06909 -0.118303,0.134325 -0.174571,0.190528 -0.07011,0.07005 -0.165919,0.15541 -0.284799,0.192131 -0.149321,0.04608 -0.301911,0.0055 -0.418868,-0.111446 -0.30582,-0.305755 -0.188862,-0.884326 0.27211,-1.345106 0.461101,-0.461101 1.039415,-0.578122 1.345363,-0.272175 0.116893,0.116766 0.15746,0.269483 0.111318,0.418868 -0.03666,0.11888 -0.122021,0.214945 -0.192067,0.284799 -0.05627,0.05614 -0.121507,0.113497 -0.190656,0.174443 -0.07979,0.07024 -0.162459,0.142848 -0.243849,0.22411 -0.08132,0.08132 -0.153807,0.163997 -0.223981,0.243848 z M 24.846831,10.613319 c 0.460972,-0.460973 1.039415,-0.578058 1.345235,-0.272174 0.116829,0.116829 0.157524,0.269482 0.111317,0.418931 -0.03666,0.118944 -0.122084,0.214946 -0.192066,0.284928 -0.05614,0.05607 -0.12138,0.113432 -0.190593,0.174314 -0.07985,0.0703 -0.162394,0.142849 -0.243848,0.224174 -0.08145,0.08145 -0.153999,0.164189 -0.224302,0.244041 -0.06075,0.06896 -0.118303,0.134388 -0.174314,0.190528 -0.07005,0.07005 -0.166048,0.155409 -0.284928,0.192131 -0.149449,0.04608 -0.301974,0.0055 -0.418868,-0.111446 -0.305627,-0.305884 -0.188669,-0.884519 0.272367,-1.345427 z M 11.629811,9.2472563 c -0.05947,0.067291 -0.115291,0.1308641 -0.1697,0.1855297 -0.06812,0.068124 -0.161562,0.1511154 -0.27743,0.1870678 -0.145411,0.044732 -0.293963,0.00532 -0.407845,-0.1083699 -0.297744,-0.2978088 -0.183671,-0.8610628 0.265189,-1.3097948 0.448796,-0.4488601 1.011794,-0.5628054 1.309667,-0.2649966 0.113817,0.1138172 0.153486,0.2624332 0.108434,0.4077808 -0.03595,0.1158039 -0.118816,0.2092416 -0.187004,0.2772371 -0.05473,0.05473 -0.118303,0.110677 -0.185594,0.1697004 -0.07774,0.068316 -0.158229,0.1390672 -0.237375,0.2182778 -0.07927,0.079275 -0.15009,0.1598952 -0.218342,0.2375677 z m 5.552753,7.5561537 c 0.550693,-0.550758 1.241415,-0.690466 1.606835,-0.32511 0.139708,0.139772 0.188221,0.321969 0.133171,0.500514 -0.04409,0.142143 -0.145924,0.256665 -0.229621,0.340426 -0.0671,0.0671 -0.145155,0.13535 -0.227699,0.208152 -0.09523,0.08402 -0.193925,0.170598 -0.291207,0.267817 -0.09728,0.09735 -0.183928,0.195975 -0.267753,0.2914 -0.0728,0.08248 -0.14131,0.160536 -0.208344,0.227506 -0.0837,0.08395 -0.198219,0.185594 -0.340362,0.229557 -0.178416,0.05505 -0.360678,0.0067 -0.500578,-0.133107 -0.365163,-0.365676 -0.225135,-1.056398 0.325558,-1.607155 z m 8.917153,6.815124 c -0.05563,0.0555 -0.131761,0.123238 -0.22584,0.152269 -0.118303,0.03646 -0.238977,0.0044 -0.331838,-0.08825 -0.242439,-0.24231 -0.149834,-0.700655 0.21565,-1.065947 0.365099,-0.365291 0.823444,-0.45796 1.065882,-0.215458 0.09248,0.09248 0.124648,0.213408 0.08818,0.331903 -0.02903,0.09427 -0.09677,0.170213 -0.152205,0.225648 -0.04448,0.04435 -0.09613,0.08985 -0.150923,0.138106 -0.06306,0.0555 -0.128685,0.113176 -0.193092,0.177583 -0.06453,0.06447 -0.122212,0.129838 -0.177583,0.193284 -0.04838,0.05479 -0.09389,0.106383 -0.138234,0.150859 z"
     id="path5979"
     style="fill:#ffffff;fill-opacity:1;fill-rule:evenodd" />
</svg>
