<?xml version="1.0" encoding="UTF-8" standalone="no"?>
<!-- Created with Inkscape (http://www.inkscape.org/) -->

<svg
   xmlns:dc="http://purl.org/dc/elements/1.1/"
   xmlns:cc="http://creativecommons.org/ns#"
   xmlns:rdf="http://www.w3.org/1999/02/22-rdf-syntax-ns#"
   xmlns:svg="http://www.w3.org/2000/svg"
   xmlns="http://www.w3.org/2000/svg"
   version="1.1"
   width="100%"
   height="100%"
   viewBox="0 0 46 46"
   id="Layer_1"
   xml:space="preserve"><metadata
   id="metadata16"><rdf:RDF><cc:Work
       rdf:about=""><dc:format>image/svg+xml</dc:format><dc:type
         rdf:resource="http://purl.org/dc/dcmitype/StillImage" /><dc:title></dc:title></cc:Work></rdf:RDF></metadata><defs
   id="defs14" />
<circle
   cx="22.6"
   cy="23"
   r="23"
   transform="translate(0.39999962,0)"
   id="circle3"
   style="opacity:0.5;fill:#001022" />

<path
   d="m 19.326949,16.169573 -2.354262,-0.0034 c 0.878316,-1.379578 2.011721,-2.452671 3.301305,-3.08058 -0.388409,0.851273 -0.70331,1.906338 -0.947043,3.084016 z m 5.754424,6.161211 c -0.02983,-1.767091 -0.169129,-3.300857 -0.370082,-4.599157 l -4.080912,-0.0059 c -0.204838,1.297851 -0.348468,2.831269 -0.383579,4.598061 l 4.834573,0.007 z m 3.786879,-6.147515 c -0.148113,-0.233125 -0.3026,-0.460523 -0.466749,-0.678459 -0.977971,-1.298898 -2.162323,-2.208938 -3.447425,-2.678027 0.445134,0.894004 0.798732,2.048375 1.064826,3.352452 l 2.849348,0.004 z m -6.142385,-3.71601 c -0.03994,0.0014 -0.08018,0.002 -0.119975,0.004 -0.436767,0.12854 -1.14939,1.375544 -1.679239,3.700422 l 3.492945,0.005 c -0.533434,-2.373037 -1.260102,-3.62268 -1.693731,-3.709436 z m -3.670292,5.256151 -2.905873,-0.0042 c -0.595438,1.367476 -0.971297,2.92938 -1.062983,4.597115 l 3.605348,0.0051 c 0.03138,-1.564245 0.151201,-3.138899 0.363508,-4.598061 z m 5.868821,15.666605 c 1.491185,-0.539161 2.809854,-1.659816 3.814519,-3.172167 l -2.777035,-0.004 C 25.696732,31.44626 25.352,32.537182 24.924396,33.390049 z M 19.068922,28.649719 C 18.848198,27.183734 18.71906,25.562913 18.690474,23.875905 l -3.606246,-0.0051 c 0.0883,1.708473 0.472675,3.336266 1.124042,4.77491 l 2.860652,0.004 z M 35.606424,17.812955 c 0.684335,1.635711 1.061887,3.430293 1.059098,5.31163 -0.01091,7.573409 -6.180932,13.734619 -13.753245,13.734619 -4.48e-4,0 -1.49e-4,0 -7.97e-4,0 h -0.02007 c -1.869983,-0.0026 -3.681646,-0.377701 -5.352668,-1.08659 -2.556509,1.529583 -4.905342,2.466168 -6.681248,2.466168 -0.9302595,0 -1.7033429,-0.256931 -2.2667581,-0.820197 C 6.6484902,35.476041 8.4956133,31.367289 10.234217,28.454842 9.5262252,26.777744 9.1541511,24.960353 9.1567906,23.085241 9.1678467,15.511832 15.337872,9.3504724 22.910982,9.3504724 h 0.01987 c 1.858329,0.00264 3.630649,0.3764567 5.248183,1.0495866 2.87141,-1.7510541 7.226335,-3.8240313 9.240247,-1.810568 1.677446,1.677546 0.638069,5.213868 -1.812859,9.223464 z m -5.76827,-6.586922 c 2.038315,1.193217 3.743053,2.895614 4.939507,4.931289 1.85549,-3.29742 2.330954,-5.680468 1.542631,-6.4687906 -0.717155,-0.7170058 -2.960457,-0.4575849 -6.482138,1.5375016 z m -19.125684,11.8612 c -5.98e-4,0.429148 0.346774,0.777616 0.776071,0.778213 l 2.039211,0.0029 c 0.07849,1.682974 0.418739,3.301603 0.995701,4.77476 l -1.129171,-0.0015 c -2.99e-4,0 -7.97e-4,0 -0.0011,0 -0.428649,0 -0.77652,0.347223 -0.777167,0.776071 -5.98e-4,0.429148 0.346774,0.777616 0.776072,0.778213 l 1.858129,0.0026 c 0.278844,0.506093 0.588167,0.988678 0.929015,1.441283 0.577708,0.767207 1.220907,1.419519 1.912065,1.954696 0.442196,-0.290348 0.896494,-0.60246 1.360952,-0.935041 -0.739517,-0.494438 -1.425296,-1.14954 -2.031442,-1.954696 -0.122813,-0.163053 -0.2395,-0.331983 -0.353299,-0.503602 l 2.282795,0.0033 c 0.08815,0.412015 0.183721,0.807745 0.287858,1.181712 0.09219,0.330439 0.189001,0.640061 0.290498,0.928866 0.427903,-0.314901 0.86482,-0.648628 1.308559,-0.998639 -0.03402,-0.111309 -0.06793,-0.226303 -0.101796,-0.347522 -0.06823,-0.24448 -0.132424,-0.499219 -0.193183,-0.762077 l 1.6511,0.0023 c 0.580199,-0.488961 1.170059,-1.005163 1.769232,-1.551795 l -3.720641,-0.0053 C 20.4108,27.204551 20.274789,25.580643 20.244808,23.878046 l 4.834125,0.007 c -0.03357,1.697267 -0.167884,3.178193 -0.359823,4.442926 0.581593,-0.538863 1.170208,-1.102477 1.765347,-1.695873 0.08053,-0.901773 0.130732,-1.824712 0.149209,-2.744862 l 2.448139,0.0036 c 0.469238,-0.525018 0.916116,-1.042764 1.340433,-1.552442 l -3.786381,-0.0054 c -0.02689,-1.564544 -0.142087,-3.139347 -0.350161,-4.599156 l 3.403748,0.0048 c 0.561573,1.295661 0.907999,2.73804 1.023042,4.250191 0.478851,-0.58473 0.925728,-1.156861 1.345413,-1.716541 -0.159168,-0.876622 -0.389505,-1.725406 -0.692752,-2.531309 l 1.063432,0.0015 c 2.99e-4,0 7.97e-4,0 0.0011,0 0.428649,0 0.776519,-0.347223 0.777167,-0.776072 5.98e-4,-0.429147 -0.346775,-0.777615 -0.776072,-0.778213 l -1.765845,-0.0025 c -0.3026,-0.569939 -0.642253,-1.111939 -1.021946,-1.616139 -1.776255,-2.358943 -4.160846,-3.660032 -6.725074,-3.663618 -0.04149,0 -0.08237,0.0034 -0.12371,0.004 -0.0384,-0.0026 -0.07709,-0.0043 -0.116238,-0.0043 -0.07724,0 -0.153243,0.0057 -0.228345,0.01569 -3.003635,0.192288 -5.641771,2.224178 -7.259902,5.242156 l -1.777649,-0.0025 c -2.98e-4,0 -7.97e-4,0 -0.0011,0 -0.42865,0 -0.77652,0.347223 -0.777168,0.776072 -5.97e-4,0.429148 0.346775,0.777615 0.776072,0.778213 l 1.07135,0.0015 c -0.535625,1.402437 -0.868704,2.956074 -0.951077,4.597264 l -2.03946,-0.0029 c -2.99e-4,0 -7.97e-4,0 -0.0011,0 -0.42865,0 -0.77647,0.347373 -0.777117,0.776022 z m 5.16551,11.843073 c -0.974684,-0.582091 -1.883927,-1.288639 -2.706465,-2.113517 -0.819598,-0.82189 -1.521664,-1.72944 -2.099671,-2.701832 -1.8528501,3.359573 -2.0839833,5.502174 -1.3819182,6.204389 0.7654632,0.765812 3.0375512,0.335768 6.1880542,-1.38904 z M 32.408907,22.341192 c -0.547279,0.689466 -1.120007,1.377735 -1.712507,2.058983 -0.140044,1.547312 -0.522378,2.994323 -1.099339,4.264634 l -2.965089,-0.0042 c -0.798582,0.763472 -1.617882,1.507023 -2.446744,2.221239 -0.508234,1.825659 -1.114131,2.789784 -1.492729,2.860354 -0.03247,-0.0012 -0.06499,-0.0015 -0.09731,-0.0032 -0.147017,-0.04771 -0.435821,-0.286463 -0.769697,-0.926525 -0.771838,0.598078 -1.542631,1.161842 -2.30421,1.683771 0.912829,0.45385 1.88318,0.72368 2.885056,0.790515 0.07879,0.01071 0.158521,0.01648 0.239351,0.01663 4.48e-4,0 0.0018,1.49e-4 0.0025,0 0.0381,0 0.0757,-0.0017 0.113151,-0.004 0.04427,7.97e-4 0.08815,0.0043 0.132574,0.0043 5.98e-4,0 0.01071,0 0.01136,0 3.137156,0 5.920764,-2.007836 7.631727,-5.082988 l 1.874166,0.0026 c 2.99e-4,0 7.97e-4,0 0.0011,0 0.42865,0 0.77652,-0.347223 0.777167,-0.776072 5.98e-4,-0.429148 -0.346774,-0.777615 -0.776072,-0.778213 l -1.141173,-0.0015 c 0.575567,-1.447807 0.934444,-3.061954 1.020253,-4.771971 l 2.039709,0.0029 c 2.99e-4,0 7.97e-4,0 0.0011,0 0.42865,0 0.77652,-0.347222 0.777117,-0.776071 6.48e-4,-0.429148 -0.346774,-0.777616 -0.776071,-0.778213 l -1.925363,-0.003 z"
   id="path3048"
   style="fill:#ffffff;fill-opacity:1;fill-rule:evenodd" /></svg>