<?xml version="1.0" encoding="UTF-8" standalone="no"?>
<!-- Created with Inkscape (http://www.inkscape.org/) -->

<svg
   xmlns:dc="http://purl.org/dc/elements/1.1/"
   xmlns:cc="http://creativecommons.org/ns#"
   xmlns:rdf="http://www.w3.org/1999/02/22-rdf-syntax-ns#"
   xmlns:svg="http://www.w3.org/2000/svg"
   xmlns="http://www.w3.org/2000/svg"
   version="1.1"
   width="48"
   height="48"
   viewBox="0 0 38.400002 38.399998"
   id="svg3013"
   style="fill-rule:evenodd">
  <metadata
     id="metadata3029">
    <rdf:RDF>
      <cc:Work
         rdf:about="">
        <dc:format>image/svg+xml</dc:format>
        <dc:type
           rdf:resource="http://purl.org/dc/dcmitype/StillImage" />
        <dc:title></dc:title>
      </cc:Work>
    </rdf:RDF>
  </metadata>
  <defs
     id="defs3027" />
  <path
     d="m 45.721392,23.074537 a 22.096125,22.096125 0 1 1 -44.1922496,0 22.096125,22.096125 0 1 1 44.1922496,0 z"
     transform="matrix(0.83341912,0,0,0.83341912,-0.48974807,-0.03076136)"
     id="path2983"
     style="fill:none;stroke:#00c7ff;stroke-width:1.88301039;stroke-opacity:1" />
  <g
     transform="matrix(0.04571383,0,0,0.04571383,43.163691,4.246916)"
     id="g3961" />
  <g
     transform="matrix(0.04571383,0,0,0.04571383,43.163691,4.246916)"
     id="g3963" />
  <g
     transform="matrix(0.04571383,0,0,0.04571383,43.163691,4.246916)"
     id="g3965" />
  <g
     transform="matrix(0.04571383,0,0,0.04571383,43.163691,4.246916)"
     id="g3967" />
  <g
     transform="matrix(0.04571383,0,0,0.04571383,43.163691,4.246916)"
     id="g3969" />
  <g
     transform="matrix(0.04571383,0,0,0.04571383,43.163691,4.246916)"
     id="g3971" />
  <g
     transform="matrix(0.04571383,0,0,0.04571383,43.163691,4.246916)"
     id="g3973" />
  <g
     transform="matrix(0.04571383,0,0,0.04571383,43.163691,4.246916)"
     id="g3975" />
  <g
     transform="matrix(0.04571383,0,0,0.04571383,43.163691,4.246916)"
     id="g3977" />
  <g
     transform="matrix(0.04571383,0,0,0.04571383,43.163691,4.246916)"
     id="g3979" />
  <g
     transform="matrix(0.04571383,0,0,0.04571383,43.163691,4.246916)"
     id="g3981" />
  <g
     transform="matrix(0.04571383,0,0,0.04571383,43.163691,4.246916)"
     id="g3983" />
  <g
     transform="matrix(0.04571383,0,0,0.04571383,43.163691,4.246916)"
     id="g3985" />
  <g
     transform="matrix(0.04571383,0,0,0.04571383,43.163691,4.246916)"
     id="g3987" />
  <g
     transform="matrix(0.04571383,0,0,0.04571383,43.163691,4.246916)"
     id="g3989" />
  <g
     transform="matrix(0.06874618,0,0,0.06874618,6.6942401,6.9421096)"
     id="g3807" />
  <g
     transform="matrix(0.06874618,0,0,0.06874618,6.6942401,6.9421096)"
     id="g3809" />
  <g
     transform="matrix(0.06874618,0,0,0.06874618,6.6942401,6.9421096)"
     id="g3811" />
  <g
     transform="matrix(0.06874618,0,0,0.06874618,6.6942401,6.9421096)"
     id="g3813" />
  <g
     transform="matrix(0.06874618,0,0,0.06874618,6.6942401,6.9421096)"
     id="g3815" />
  <g
     transform="matrix(0.06874618,0,0,0.06874618,6.6942401,6.9421096)"
     id="g3817" />
  <g
     transform="matrix(0.06874618,0,0,0.06874618,6.6942401,6.9421096)"
     id="g3819" />
  <g
     transform="matrix(0.06874618,0,0,0.06874618,6.6942401,6.9421096)"
     id="g3821" />
  <g
     transform="matrix(0.06874618,0,0,0.06874618,6.6942401,6.9421096)"
     id="g3823" />
  <g
     transform="matrix(0.06874618,0,0,0.06874618,6.6942401,6.9421096)"
     id="g3825" />
  <g
     transform="matrix(0.06874618,0,0,0.06874618,6.6942401,6.9421096)"
     id="g3827" />
  <g
     transform="matrix(0.06874618,0,0,0.06874618,6.6942401,6.9421096)"
     id="g3829" />
  <g
     transform="matrix(0.06874618,0,0,0.06874618,6.6942401,6.9421096)"
     id="g3831" />
  <g
     transform="matrix(0.06874618,0,0,0.06874618,6.6942401,6.9421096)"
     id="g3833" />
  <g
     transform="matrix(0.06874618,0,0,0.06874618,6.6942401,6.9421096)"
     id="g3835" />
  <g
     transform="matrix(0.80000004,0,0,0.80000004,6.8150226,6.4378103)"
     id="g4379"
     style="fill:#33659a;fill-opacity:1" />
  <g
     transform="matrix(0.80000004,0,0,0.80000004,6.8150226,6.4378103)"
     id="g4381"
     style="fill:#33659a;fill-opacity:1" />
  <g
     transform="matrix(0.80000004,0,0,0.80000004,6.8150226,6.4378103)"
     id="g4383"
     style="fill:#33659a;fill-opacity:1" />
  <g
     transform="matrix(0.80000004,0,0,0.80000004,6.8150226,6.4378103)"
     id="g4385"
     style="fill:#33659a;fill-opacity:1" />
  <g
     transform="matrix(0.80000004,0,0,0.80000004,6.8150226,6.4378103)"
     id="g4387"
     style="fill:#33659a;fill-opacity:1" />
  <g
     transform="matrix(0.80000004,0,0,0.80000004,6.8150226,6.4378103)"
     id="g4389"
     style="fill:#33659a;fill-opacity:1" />
  <g
     transform="matrix(0.80000004,0,0,0.80000004,6.8150226,6.4378103)"
     id="g4391"
     style="fill:#33659a;fill-opacity:1" />
  <g
     transform="matrix(0.80000004,0,0,0.80000004,6.8150226,6.4378103)"
     id="g4393"
     style="fill:#33659a;fill-opacity:1" />
  <g
     transform="matrix(0.80000004,0,0,0.80000004,6.8150226,6.4378103)"
     id="g4395"
     style="fill:#33659a;fill-opacity:1" />
  <g
     transform="matrix(0.80000004,0,0,0.80000004,6.8150226,6.4378103)"
     id="g4397"
     style="fill:#33659a;fill-opacity:1" />
  <g
     transform="matrix(0.80000004,0,0,0.80000004,6.8150226,6.4378103)"
     id="g4399"
     style="fill:#33659a;fill-opacity:1" />
  <g
     transform="matrix(0.80000004,0,0,0.80000004,6.8150226,6.4378103)"
     id="g4401"
     style="fill:#33659a;fill-opacity:1" />
  <g
     transform="matrix(0.80000004,0,0,0.80000004,6.8150226,6.4378103)"
     id="g4403"
     style="fill:#33659a;fill-opacity:1" />
  <g
     transform="matrix(0.80000004,0,0,0.80000004,6.8150226,6.4378103)"
     id="g4405"
     style="fill:#33659a;fill-opacity:1" />
  <g
     transform="matrix(0.80000004,0,0,0.80000004,6.8150226,6.4378103)"
     id="g4407"
     style="fill:#33659a;fill-opacity:1" />
  <g
     transform="matrix(0.08395392,0,0,0.08395392,5.1053608,5.7443854)"
     id="g4546"
     style="fill:#33659a;fill-opacity:1" />
  <g
     transform="matrix(0.08395392,0,0,0.08395392,5.1053608,5.7443854)"
     id="g4548"
     style="fill:#33659a;fill-opacity:1" />
  <g
     transform="matrix(0.08395392,0,0,0.08395392,5.1053608,5.7443854)"
     id="g4550"
     style="fill:#33659a;fill-opacity:1" />
  <g
     transform="matrix(0.08395392,0,0,0.08395392,5.1053608,5.7443854)"
     id="g4552"
     style="fill:#33659a;fill-opacity:1" />
  <g
     transform="matrix(0.08395392,0,0,0.08395392,5.1053608,5.7443854)"
     id="g4554"
     style="fill:#33659a;fill-opacity:1" />
  <g
     transform="matrix(0.08395392,0,0,0.08395392,5.1053608,5.7443854)"
     id="g4556"
     style="fill:#33659a;fill-opacity:1" />
  <g
     transform="matrix(0.08395392,0,0,0.08395392,5.1053608,5.7443854)"
     id="g4558"
     style="fill:#33659a;fill-opacity:1" />
  <g
     transform="matrix(0.08395392,0,0,0.08395392,5.1053608,5.7443854)"
     id="g4560"
     style="fill:#33659a;fill-opacity:1" />
  <g
     transform="matrix(0.08395392,0,0,0.08395392,5.1053608,5.7443854)"
     id="g4562"
     style="fill:#33659a;fill-opacity:1" />
  <g
     transform="matrix(0.08395392,0,0,0.08395392,5.1053608,5.7443854)"
     id="g4564"
     style="fill:#33659a;fill-opacity:1" />
  <g
     transform="matrix(0.08395392,0,0,0.08395392,5.1053608,5.7443854)"
     id="g4566"
     style="fill:#33659a;fill-opacity:1" />
  <g
     transform="matrix(0.08395392,0,0,0.08395392,5.1053608,5.7443854)"
     id="g4568"
     style="fill:#33659a;fill-opacity:1" />
  <g
     transform="matrix(0.08395392,0,0,0.08395392,5.1053608,5.7443854)"
     id="g4570"
     style="fill:#33659a;fill-opacity:1" />
  <g
     transform="matrix(0.08395392,0,0,0.08395392,5.1053608,5.7443854)"
     id="g4572"
     style="fill:#33659a;fill-opacity:1" />
  <g
     transform="matrix(0.08395392,0,0,0.08395392,5.1053608,5.7443854)"
     id="g4574"
     style="fill:#33659a;fill-opacity:1" />
  <g
     transform="matrix(0.03984196,0,0,0.03984196,7.0083838,7.0083815)"
     id="g3086"
     style="fill:#33659a;fill-opacity:1">
    <g
       id="g3046"
       style="fill:#33659a;fill-opacity:1">
	<path
   d="m 232.247,168.849 -47.272,-0.069 c 17.636,-27.701 40.394,-49.248 66.288,-61.856 -7.799,17.093 -14.122,38.278 -19.016,61.925 z m 115.545,123.713 c -0.599,-35.482 -3.396,-66.279 -7.431,-92.348 l -81.942,-0.119 c -4.113,26.06 -6.997,56.85 -7.702,92.326 l 97.075,0.141 z M 423.83,169.124 c -2.974,-4.681 -6.076,-9.247 -9.372,-13.623 -19.637,-26.081 -43.418,-44.354 -69.222,-53.773 8.938,17.951 16.038,41.13 21.381,67.315 l 57.213,0.081 z M 300.495,94.509 c -0.802,0.028 -1.61,0.041 -2.409,0.081 -8.77,2.581 -23.079,27.62 -33.718,74.302 l 70.136,0.1 C 323.793,121.343 309.202,96.251 300.495,94.509 z m -73.697,105.54 -58.348,-0.084 c -11.956,27.458 -19.503,58.82 -21.344,92.307 l 72.393,0.103 c 0.63,-31.409 3.036,-63.027 7.299,-92.326 z M 344.64,514.624 c 29.942,-10.826 56.42,-33.328 76.593,-63.695 l -55.761,-0.081 c -5.324,24.746 -12.246,46.651 -20.832,63.776 z M 227.066,419.442 c -4.432,-29.436 -7.025,-61.981 -7.599,-95.855 l -72.411,-0.103 c 1.773,34.305 9.491,66.99 22.57,95.877 l 57.44,0.081 z M 559.128,201.847 c 13.741,32.844 21.322,68.878 21.266,106.654 -0.219,152.069 -124.109,275.782 -276.156,275.782 -0.009,0 -0.003,0 -0.016,0 h -0.403 c -37.548,-0.053 -73.925,-7.584 -107.478,-21.818 -51.333,30.713 -98.496,49.519 -134.155,49.519 -18.679,0 -34.202,-5.159 -45.515,-16.469 -38.999,-39.005 -1.91,-121.506 33,-179.986 C 35.455,381.854 27.984,345.362 28.037,307.711 28.259,155.642 152.149,31.926 304.212,31.926 h 0.399 c 37.314,0.053 72.901,7.559 105.38,21.075 57.656,-35.16 145.1,-76.784 185.538,-36.355 33.682,33.684 12.812,104.691 -36.401,185.201 z M 443.305,69.586 c 40.928,23.959 75.158,58.142 99.182,99.017 37.257,-66.21 46.804,-114.06 30.975,-129.889 -14.4,-14.397 -59.444,-9.188 -130.157,30.872 z M 59.274,307.751 c -0.012,8.617 6.963,15.614 15.583,15.626 l 40.946,0.059 c 1.576,33.793 8.408,66.294 19.993,95.874 l -22.673,-0.031 c -0.006,0 -0.016,0 -0.022,0 -8.607,0 -15.592,6.972 -15.605,15.583 -0.012,8.617 6.963,15.614 15.583,15.626 l 37.31,0.053 c 5.599,10.162 11.81,19.852 18.654,28.94 11.6,15.405 24.515,28.503 38.393,39.249 8.879,-5.83 18.001,-12.097 27.327,-18.775 -14.849,-9.928 -28.619,-23.082 -40.79,-39.249 -2.466,-3.274 -4.809,-6.666 -7.094,-10.112 l 45.837,0.066 c 1.77,8.273 3.689,16.219 5.78,23.728 1.851,6.635 3.795,12.852 5.833,18.651 8.592,-6.323 17.365,-13.024 26.275,-20.052 -0.683,-2.235 -1.364,-4.544 -2.044,-6.978 -1.37,-4.909 -2.659,-10.024 -3.879,-15.302 l 33.153,0.047 c 11.65,-9.818 23.494,-20.183 35.525,-31.159 l -74.708,-0.106 c -4.641,-29.065 -7.372,-61.672 -7.974,-95.859 l 97.066,0.14 c -0.674,34.08 -3.371,63.816 -7.225,89.211 11.678,-10.82 23.497,-22.137 35.447,-34.052 1.617,-18.107 2.625,-36.639 2.996,-55.115 l 49.157,0.072 c 9.422,-10.542 18.395,-20.938 26.915,-31.172 l -76.028,-0.109 c -0.54,-31.415 -2.853,-63.036 -7.031,-92.348 l 68.345,0.097 c 11.276,26.016 18.232,54.978 20.542,85.341 9.615,-11.741 18.588,-23.229 27.015,-34.467 -3.196,-17.602 -7.821,-34.645 -13.91,-50.827 l 21.353,0.031 c 0.006,0 0.016,0 0.022,0 8.607,0 15.592,-6.972 15.605,-15.583 0.012,-8.617 -6.963,-15.614 -15.583,-15.626 l -35.457,-0.05 C 453.83,157.729 447.01,146.846 439.386,136.722 403.72,89.356 355.839,63.231 304.351,63.159 c -0.833,0 -1.654,0.069 -2.484,0.081 -0.771,-0.053 -1.548,-0.087 -2.334,-0.087 -1.551,0 -3.077,0.115 -4.585,0.315 -60.311,3.861 -113.283,44.66 -145.774,105.259 l -35.694,-0.05 c -0.006,0 -0.016,0 -0.022,0 -8.607,0 -15.592,6.972 -15.605,15.583 -0.012,8.617 6.963,15.614 15.583,15.626 l 21.512,0.031 c -10.755,28.16 -17.443,59.356 -19.097,92.31 L 74.9,292.169 c -0.006,0 -0.016,0 -0.022,0 -8.607,0 -15.591,6.975 -15.604,15.582 z m 103.72,237.801 C 143.423,533.864 125.166,519.677 108.65,503.114 92.193,486.611 78.096,468.388 66.49,448.863 c -37.204,67.458 -41.845,110.48 -27.748,124.58 15.37,15.377 60.992,6.742 124.252,-27.891 z m 331.93,-252.781 c -10.989,13.844 -22.489,27.664 -34.386,41.343 -2.812,31.069 -10.489,60.124 -22.074,85.631 l -59.537,-0.084 c -16.035,15.33 -32.486,30.26 -49.129,44.601 -10.205,36.658 -22.371,56.017 -29.973,57.434 -0.652,-0.025 -1.305,-0.031 -1.954,-0.065 -2.952,-0.958 -8.751,-5.752 -15.455,-18.604 -15.498,12.009 -30.975,23.329 -46.267,33.809 18.329,9.113 37.813,14.531 57.93,15.873 1.582,0.215 3.183,0.331 4.806,0.334 0.009,0 0.037,0.003 0.05,0 0.765,0 1.52,-0.034 2.272,-0.081 0.889,0.016 1.77,0.087 2.662,0.087 0.012,0 0.215,0 0.228,0 62.992,0 118.885,-40.316 153.24,-102.063 l 37.632,0.053 c 0.006,0 0.016,0 0.022,0 8.607,0 15.592,-6.972 15.605,-15.583 0.012,-8.617 -6.963,-15.614 -15.583,-15.626 l -22.914,-0.031 c 11.557,-29.071 18.763,-61.482 20.486,-95.818 l 40.956,0.059 c 0.006,0 0.016,0 0.022,0 8.607,0 15.592,-6.972 15.604,-15.583 0.013,-8.617 -6.963,-15.614 -15.583,-15.626 l -38.66,-0.06 z"
   id="path3048"
   style="fill:#33659a;fill-opacity:1" />

</g>
    <g
       id="g3050"
       style="fill:#33659a;fill-opacity:1">
</g>
    <g
       id="g3052"
       style="fill:#33659a;fill-opacity:1">
</g>
    <g
       id="g3054"
       style="fill:#33659a;fill-opacity:1">
</g>
    <g
       id="g3056"
       style="fill:#33659a;fill-opacity:1">
</g>
    <g
       id="g3058"
       style="fill:#33659a;fill-opacity:1">
</g>
    <g
       id="g3060"
       style="fill:#33659a;fill-opacity:1">
</g>
    <g
       id="g3062"
       style="fill:#33659a;fill-opacity:1">
</g>
    <g
       id="g3064"
       style="fill:#33659a;fill-opacity:1">
</g>
    <g
       id="g3066"
       style="fill:#33659a;fill-opacity:1">
</g>
    <g
       id="g3068"
       style="fill:#33659a;fill-opacity:1">
</g>
    <g
       id="g3070"
       style="fill:#33659a;fill-opacity:1">
</g>
    <g
       id="g3072"
       style="fill:#33659a;fill-opacity:1">
</g>
    <g
       id="g3074"
       style="fill:#33659a;fill-opacity:1">
</g>
    <g
       id="g3076"
       style="fill:#33659a;fill-opacity:1">
</g>
    <g
       id="g3078"
       style="fill:#33659a;fill-opacity:1">
</g>
  </g>
</svg>
