<?xml version="1.0" encoding="UTF-8" standalone="no"?>
<!-- Created with Inkscape (http://www.inkscape.org/) -->

<svg
   xmlns:dc="http://purl.org/dc/elements/1.1/"
   xmlns:cc="http://creativecommons.org/ns#"
   xmlns:rdf="http://www.w3.org/1999/02/22-rdf-syntax-ns#"
   xmlns:svg="http://www.w3.org/2000/svg"
   xmlns="http://www.w3.org/2000/svg"
   version="1.1"
   width="48"
   height="48"
   viewBox="0 0 38.400002 38.399998"
   id="svg3013"
   style="fill-rule:evenodd">
  <metadata
     id="metadata3029">
    <rdf:RDF>
      <cc:Work
         rdf:about="">
        <dc:format>image/svg+xml</dc:format>
        <dc:type
           rdf:resource="http://purl.org/dc/dcmitype/StillImage" />
        <dc:title></dc:title>
      </cc:Work>
    </rdf:RDF>
  </metadata>
  <defs
     id="defs3027" />
  <path
     d="m 37.615334,19.199999 a 18.415333,18.415333 0 0 1 -36.83066589,0 18.415333,18.415333 0 1 1 36.83066589,0 z"
     id="path2983"
     style="fill:none;stroke:#00c7ff;stroke-width:1.56933689;stroke-opacity:1" />
  <g
     transform="matrix(0.04571383,0,0,0.04571383,43.163691,4.246916)"
     id="g3961" />
  <g
     transform="matrix(0.04571383,0,0,0.04571383,43.163691,4.246916)"
     id="g3963" />
  <g
     transform="matrix(0.04571383,0,0,0.04571383,43.163691,4.246916)"
     id="g3965" />
  <g
     transform="matrix(0.04571383,0,0,0.04571383,43.163691,4.246916)"
     id="g3967" />
  <g
     transform="matrix(0.04571383,0,0,0.04571383,43.163691,4.246916)"
     id="g3969" />
  <g
     transform="matrix(0.04571383,0,0,0.04571383,43.163691,4.246916)"
     id="g3971" />
  <g
     transform="matrix(0.04571383,0,0,0.04571383,43.163691,4.246916)"
     id="g3973" />
  <g
     transform="matrix(0.04571383,0,0,0.04571383,43.163691,4.246916)"
     id="g3975" />
  <g
     transform="matrix(0.04571383,0,0,0.04571383,43.163691,4.246916)"
     id="g3977" />
  <g
     transform="matrix(0.04571383,0,0,0.04571383,43.163691,4.246916)"
     id="g3979" />
  <g
     transform="matrix(0.04571383,0,0,0.04571383,43.163691,4.246916)"
     id="g3981" />
  <g
     transform="matrix(0.04571383,0,0,0.04571383,43.163691,4.246916)"
     id="g3983" />
  <g
     transform="matrix(0.04571383,0,0,0.04571383,43.163691,4.246916)"
     id="g3985" />
  <g
     transform="matrix(0.04571383,0,0,0.04571383,43.163691,4.246916)"
     id="g3987" />
  <g
     transform="matrix(0.04571383,0,0,0.04571383,43.163691,4.246916)"
     id="g3989" />
  <g
     transform="matrix(0.06874618,0,0,0.06874618,6.6942401,6.9421096)"
     id="g3807" />
  <g
     transform="matrix(0.06874618,0,0,0.06874618,6.6942401,6.9421096)"
     id="g3809" />
  <g
     transform="matrix(0.06874618,0,0,0.06874618,6.6942401,6.9421096)"
     id="g3811" />
  <g
     transform="matrix(0.06874618,0,0,0.06874618,6.6942401,6.9421096)"
     id="g3813" />
  <g
     transform="matrix(0.06874618,0,0,0.06874618,6.6942401,6.9421096)"
     id="g3815" />
  <g
     transform="matrix(0.06874618,0,0,0.06874618,6.6942401,6.9421096)"
     id="g3817" />
  <g
     transform="matrix(0.06874618,0,0,0.06874618,6.6942401,6.9421096)"
     id="g3819" />
  <g
     transform="matrix(0.06874618,0,0,0.06874618,6.6942401,6.9421096)"
     id="g3821" />
  <g
     transform="matrix(0.06874618,0,0,0.06874618,6.6942401,6.9421096)"
     id="g3823" />
  <g
     transform="matrix(0.06874618,0,0,0.06874618,6.6942401,6.9421096)"
     id="g3825" />
  <g
     transform="matrix(0.06874618,0,0,0.06874618,6.6942401,6.9421096)"
     id="g3827" />
  <g
     transform="matrix(0.06874618,0,0,0.06874618,6.6942401,6.9421096)"
     id="g3829" />
  <g
     transform="matrix(0.06874618,0,0,0.06874618,6.6942401,6.9421096)"
     id="g3831" />
  <g
     transform="matrix(0.06874618,0,0,0.06874618,6.6942401,6.9421096)"
     id="g3833" />
  <g
     transform="matrix(0.06874618,0,0,0.06874618,6.6942401,6.9421096)"
     id="g3835" />
  <g
     transform="matrix(0.80000004,0,0,0.80000004,6.8150226,6.4378103)"
     id="g4379"
     style="fill:#33659a;fill-opacity:1" />
  <g
     transform="matrix(0.80000004,0,0,0.80000004,6.8150226,6.4378103)"
     id="g4381"
     style="fill:#33659a;fill-opacity:1" />
  <g
     transform="matrix(0.80000004,0,0,0.80000004,6.8150226,6.4378103)"
     id="g4383"
     style="fill:#33659a;fill-opacity:1" />
  <g
     transform="matrix(0.80000004,0,0,0.80000004,6.8150226,6.4378103)"
     id="g4385"
     style="fill:#33659a;fill-opacity:1" />
  <g
     transform="matrix(0.80000004,0,0,0.80000004,6.8150226,6.4378103)"
     id="g4387"
     style="fill:#33659a;fill-opacity:1" />
  <g
     transform="matrix(0.80000004,0,0,0.80000004,6.8150226,6.4378103)"
     id="g4389"
     style="fill:#33659a;fill-opacity:1" />
  <g
     transform="matrix(0.80000004,0,0,0.80000004,6.8150226,6.4378103)"
     id="g4391"
     style="fill:#33659a;fill-opacity:1" />
  <g
     transform="matrix(0.80000004,0,0,0.80000004,6.8150226,6.4378103)"
     id="g4393"
     style="fill:#33659a;fill-opacity:1" />
  <g
     transform="matrix(0.80000004,0,0,0.80000004,6.8150226,6.4378103)"
     id="g4395"
     style="fill:#33659a;fill-opacity:1" />
  <g
     transform="matrix(0.80000004,0,0,0.80000004,6.8150226,6.4378103)"
     id="g4397"
     style="fill:#33659a;fill-opacity:1" />
  <g
     transform="matrix(0.80000004,0,0,0.80000004,6.8150226,6.4378103)"
     id="g4399"
     style="fill:#33659a;fill-opacity:1" />
  <g
     transform="matrix(0.80000004,0,0,0.80000004,6.8150226,6.4378103)"
     id="g4401"
     style="fill:#33659a;fill-opacity:1" />
  <g
     transform="matrix(0.80000004,0,0,0.80000004,6.8150226,6.4378103)"
     id="g4403"
     style="fill:#33659a;fill-opacity:1" />
  <g
     transform="matrix(0.80000004,0,0,0.80000004,6.8150226,6.4378103)"
     id="g4405"
     style="fill:#33659a;fill-opacity:1" />
  <g
     transform="matrix(0.80000004,0,0,0.80000004,6.8150226,6.4378103)"
     id="g4407"
     style="fill:#33659a;fill-opacity:1" />
  <g
     transform="matrix(0.08395392,0,0,0.08395392,5.1053608,5.7443854)"
     id="g4546"
     style="fill:#33659a;fill-opacity:1" />
  <g
     transform="matrix(0.08395392,0,0,0.08395392,5.1053608,5.7443854)"
     id="g4548"
     style="fill:#33659a;fill-opacity:1" />
  <g
     transform="matrix(0.08395392,0,0,0.08395392,5.1053608,5.7443854)"
     id="g4550"
     style="fill:#33659a;fill-opacity:1" />
  <g
     transform="matrix(0.08395392,0,0,0.08395392,5.1053608,5.7443854)"
     id="g4552"
     style="fill:#33659a;fill-opacity:1" />
  <g
     transform="matrix(0.08395392,0,0,0.08395392,5.1053608,5.7443854)"
     id="g4554"
     style="fill:#33659a;fill-opacity:1" />
  <g
     transform="matrix(0.08395392,0,0,0.08395392,5.1053608,5.7443854)"
     id="g4556"
     style="fill:#33659a;fill-opacity:1" />
  <g
     transform="matrix(0.08395392,0,0,0.08395392,5.1053608,5.7443854)"
     id="g4558"
     style="fill:#33659a;fill-opacity:1" />
  <g
     transform="matrix(0.08395392,0,0,0.08395392,5.1053608,5.7443854)"
     id="g4560"
     style="fill:#33659a;fill-opacity:1" />
  <g
     transform="matrix(0.08395392,0,0,0.08395392,5.1053608,5.7443854)"
     id="g4562"
     style="fill:#33659a;fill-opacity:1" />
  <g
     transform="matrix(0.08395392,0,0,0.08395392,5.1053608,5.7443854)"
     id="g4564"
     style="fill:#33659a;fill-opacity:1" />
  <g
     transform="matrix(0.08395392,0,0,0.08395392,5.1053608,5.7443854)"
     id="g4566"
     style="fill:#33659a;fill-opacity:1" />
  <g
     transform="matrix(0.08395392,0,0,0.08395392,5.1053608,5.7443854)"
     id="g4568"
     style="fill:#33659a;fill-opacity:1" />
  <g
     transform="matrix(0.08395392,0,0,0.08395392,5.1053608,5.7443854)"
     id="g4570"
     style="fill:#33659a;fill-opacity:1" />
  <g
     transform="matrix(0.08395392,0,0,0.08395392,5.1053608,5.7443854)"
     id="g4572"
     style="fill:#33659a;fill-opacity:1" />
  <g
     transform="matrix(0.08395392,0,0,0.08395392,5.1053608,5.7443854)"
     id="g4574"
     style="fill:#33659a;fill-opacity:1" />
  <g
     transform="matrix(0.04544877,0,0,0.04544877,7.2781286,5.6781492)"
     id="g3"
     style="fill:#33659a;fill-opacity:1">
    <g
       id="g5"
       style="fill:#33659a;fill-opacity:1">
      <polygon
         points="50.136,450.644 50.136,467.831 29.94,467.831 29.94,485.021 11.958,485.021 11.958,519.397 517.202,519.397 517.202,485.021 497.726,485.021 497.726,467.831 479.019,467.831 479.019,450.644 "
         id="polygon7"
         style="fill:#33659a;fill-opacity:1" />
      <polygon
         points="300.429,441.675 346.764,441.675 346.764,199.539 406.55,199.539 406.55,441.675 452.885,441.675 452.885,199.539 497.726,199.539 497.726,169.645 23.915,169.645 23.915,199.539 70.25,199.539 70.25,441.675 116.584,441.675 116.584,199.539 176.371,199.539 176.371,441.675 222.706,441.675 222.706,199.539 300.429,199.539 "
         id="polygon9"
         style="fill:#33659a;fill-opacity:1" />
      <polygon
         points="264.58,5.231 0,155.819 524.629,155.819 "
         id="polygon11"
         style="fill:#33659a;fill-opacity:1" />
    </g>
  </g>
</svg>
