<?xml version="1.0" encoding="UTF-8" standalone="no"?>
<!-- Created with Inkscape (http://www.inkscape.org/) -->

<svg
   xmlns:dc="http://purl.org/dc/elements/1.1/"
   xmlns:cc="http://creativecommons.org/ns#"
   xmlns:rdf="http://www.w3.org/1999/02/22-rdf-syntax-ns#"
   xmlns:svg="http://www.w3.org/2000/svg"
   xmlns="http://www.w3.org/2000/svg"
   xmlns:sodipodi="http://sodipodi.sourceforge.net/DTD/sodipodi-0.dtd"
   xmlns:inkscape="http://www.inkscape.org/namespaces/inkscape"
   version="1.1"
   width="48"
   height="48"
   viewBox="0 0 38.400002 38.399998"
   id="svg3013"
   style="fill-rule:evenodd"
   inkscape:version="0.48.5 r10040"
   sodipodi:docname="mapy.svg">
  <sodipodi:namedview
     pagecolor="#ffffff"
     bordercolor="#666666"
     borderopacity="1"
     objecttolerance="10"
     gridtolerance="10"
     guidetolerance="10"
     inkscape:pageopacity="0"
     inkscape:pageshadow="2"
     inkscape:window-width="1600"
     inkscape:window-height="848"
     id="namedview6"
     showgrid="false"
     inkscape:zoom="5.5083333"
     inkscape:cx="90.105923"
     inkscape:cy="11.38065"
     inkscape:window-x="-8"
     inkscape:window-y="588"
     inkscape:window-maximized="1"
     inkscape:current-layer="svg3013"
     fit-margin-top="0"
     fit-margin-left="0"
     fit-margin-right="0"
     fit-margin-bottom="0" />
  <metadata
     id="metadata3029">
    <rdf:RDF>
      <cc:Work
         rdf:about="">
        <dc:format>image/svg+xml</dc:format>
        <dc:type
           rdf:resource="http://purl.org/dc/dcmitype/StillImage" />
        <dc:title></dc:title>
      </cc:Work>
    </rdf:RDF>
  </metadata>
  <defs
     id="defs3027" />
  <path
     sodipodi:type="arc"
     style="fill:none;stroke:#00c7ff;stroke-width:1.88301038999999990;stroke-opacity:1"
     id="path2983"
     sodipodi:cx="23.625267"
     sodipodi:cy="23.074537"
     sodipodi:rx="22.096125"
     sodipodi:ry="22.096125"
     d="m 45.721392,23.074537 a 22.096125,22.096125 0 1 1 -44.1922496,0 22.096125,22.096125 0 1 1 44.1922496,0 z"
     transform="matrix(0.83341912,0,0,0.83341912,-0.48974807,-0.03076136)" />
  <g
     transform="matrix(0.04571383,0,0,0.04571383,43.163691,4.246916)"
     id="g3961" />
  <g
     transform="matrix(0.04571383,0,0,0.04571383,43.163691,4.246916)"
     id="g3963" />
  <g
     transform="matrix(0.04571383,0,0,0.04571383,43.163691,4.246916)"
     id="g3965" />
  <g
     transform="matrix(0.04571383,0,0,0.04571383,43.163691,4.246916)"
     id="g3967" />
  <g
     transform="matrix(0.04571383,0,0,0.04571383,43.163691,4.246916)"
     id="g3969" />
  <g
     transform="matrix(0.04571383,0,0,0.04571383,43.163691,4.246916)"
     id="g3971" />
  <g
     transform="matrix(0.04571383,0,0,0.04571383,43.163691,4.246916)"
     id="g3973" />
  <g
     transform="matrix(0.04571383,0,0,0.04571383,43.163691,4.246916)"
     id="g3975" />
  <g
     transform="matrix(0.04571383,0,0,0.04571383,43.163691,4.246916)"
     id="g3977" />
  <g
     transform="matrix(0.04571383,0,0,0.04571383,43.163691,4.246916)"
     id="g3979" />
  <g
     transform="matrix(0.04571383,0,0,0.04571383,43.163691,4.246916)"
     id="g3981" />
  <g
     transform="matrix(0.04571383,0,0,0.04571383,43.163691,4.246916)"
     id="g3983" />
  <g
     transform="matrix(0.04571383,0,0,0.04571383,43.163691,4.246916)"
     id="g3985" />
  <g
     transform="matrix(0.04571383,0,0,0.04571383,43.163691,4.246916)"
     id="g3987" />
  <g
     transform="matrix(0.04571383,0,0,0.04571383,43.163691,4.246916)"
     id="g3989" />
  <g
     transform="matrix(0.06874618,0,0,0.06874618,6.6942401,6.9421096)"
     id="g3807" />
  <g
     transform="matrix(0.06874618,0,0,0.06874618,6.6942401,6.9421096)"
     id="g3809" />
  <g
     transform="matrix(0.06874618,0,0,0.06874618,6.6942401,6.9421096)"
     id="g3811" />
  <g
     transform="matrix(0.06874618,0,0,0.06874618,6.6942401,6.9421096)"
     id="g3813" />
  <g
     transform="matrix(0.06874618,0,0,0.06874618,6.6942401,6.9421096)"
     id="g3815" />
  <g
     transform="matrix(0.06874618,0,0,0.06874618,6.6942401,6.9421096)"
     id="g3817" />
  <g
     transform="matrix(0.06874618,0,0,0.06874618,6.6942401,6.9421096)"
     id="g3819" />
  <g
     transform="matrix(0.06874618,0,0,0.06874618,6.6942401,6.9421096)"
     id="g3821" />
  <g
     transform="matrix(0.06874618,0,0,0.06874618,6.6942401,6.9421096)"
     id="g3823" />
  <g
     transform="matrix(0.06874618,0,0,0.06874618,6.6942401,6.9421096)"
     id="g3825" />
  <g
     transform="matrix(0.06874618,0,0,0.06874618,6.6942401,6.9421096)"
     id="g3827" />
  <g
     transform="matrix(0.06874618,0,0,0.06874618,6.6942401,6.9421096)"
     id="g3829" />
  <g
     transform="matrix(0.06874618,0,0,0.06874618,6.6942401,6.9421096)"
     id="g3831" />
  <g
     transform="matrix(0.06874618,0,0,0.06874618,6.6942401,6.9421096)"
     id="g3833" />
  <g
     transform="matrix(0.06874618,0,0,0.06874618,6.6942401,6.9421096)"
     id="g3835" />
  <g
     transform="matrix(0.7451438,0,0,0.7451438,6.3779715,4.257462)"
     id="g4155"
     style="fill:#33659a;fill-opacity:1">
    <path
       inkscape:connector-curvature="0"
       style="fill:#33659a;fill-opacity:1"
       d="M 36.785,12.556 15.787,2.525 C 15.543,2.407 15.248,2.509 15.133,2.752 l -4.57,9.565 h 2.49 L 16.407,5.289 34.612,13.985 28.919,25.9 25.714,24.37 v 6.299 l 1.971,0.941 c 0.246,0.119 0.537,0.012 0.654,-0.232 l 8.678,-18.171 c 0.118,-0.242 0.014,-0.535 -0.232,-0.651 z"
       id="path4157" />
    <path
       inkscape:connector-curvature="0"
       style="fill:#33659a;fill-opacity:1"
       d="M 23.764,13.472 H 0.492 C 0.223,13.472 0,13.691 0,13.96 v 20.139 c 0,0.27 0.223,0.491 0.492,0.491 h 23.271 c 0.271,0 0.492,-0.221 0.492,-0.491 V 13.96 c 0.001,-0.269 -0.22,-0.488 -0.491,-0.488 z M 22.42,28.906 h -1.475 c -0.859,-2.203 -1.916,-5.287 -3.521,-4.875 -1.881,0.48 -2.82,4.875 -2.82,4.875 0,0 -0.963,-4.959 -3.617,-7.614 C 8.332,18.637 5.76,28.906 5.76,28.906 H 2.246 V 15.699 H 22.42 v 13.207 z"
       id="path4159" />
    <circle
       d="m 7.1479999,18.533001 c 0,0.909061 -0.7369393,1.646 -1.646,1.646 -0.9090608,0 -1.6460001,-0.736939 -1.6460001,-1.646 0,-0.909061 0.7369393,-1.646 1.6460001,-1.646 0.9090607,0 1.646,0.736939 1.646,1.646 z"
       sodipodi:ry="1.646"
       sodipodi:rx="1.646"
       sodipodi:cy="18.533001"
       sodipodi:cx="5.5019999"
       style="fill:#33659a;fill-opacity:1"
       cx="5.5019999"
       cy="18.533001"
       r="1.646"
       id="circle4161" />
    <path
       inkscape:connector-curvature="0"
       style="fill:#33659a;fill-opacity:1"
       d="m 16.545,19.695 c 0.369,0 0.715,-0.039 1.023,-0.1 0.359,0.152 0.797,0.245 1.268,0.245 1.215,0 2.197,-0.593 2.197,-1.325 0,-0.73 -0.982,-1.323 -2.197,-1.323 -0.455,0 -0.877,0.083 -1.227,0.228 -0.145,-0.141 -0.338,-0.228 -0.553,-0.228 h -0.318 c -0.408,0 -0.729,0.309 -0.775,0.702 -0.982,0.103 -1.713,0.459 -1.713,0.883 0,0.507 1.027,0.918 2.295,0.918 z"
       id="path4163" />
  </g>
</svg>
