<?xml version="1.0" encoding="utf-8"?>
<!-- Generator: Adobe Illustrator 18.1.1, SVG Export Plug-In . SVG Version: 6.00 Build 0)  -->
<svg version="1.1" id="Layer_1" xmlns="http://www.w3.org/2000/svg" xmlns:xlink="http://www.w3.org/1999/xlink" x="0px" y="0px"
	 viewBox="0 0 46 46" enable-background="new 0 0 46 46" xml:space="preserve">
<circle opacity="0.5" fill="#001022" cx="23" cy="23" r="23"/>
<g id="g4155_1_" transform="matrix(0.7451438,0,0,0.7451438,6.3779715,4.257462)">
	<path id="path4157_1_" fill="#FFFFFF" d="M46.8,15.7L20.6,3.2c-0.3-0.1-0.7,0-0.8,0.3l-5.7,12
		h3.1l4.2-8.8l22.8,10.9L37,32.4l-4-1.9v7.9l2.5,1.2c0.3,0.1,0.7,0,0.8-0.3l10.8-22.7C47.2,16.2,47.1,15.8,46.8,15.7z"/>
	<path id="path4159_1_" fill="#FFFFFF" d="M30.5,16.8H1.4c-0.3,0-0.6,0.3-0.6,0.6v25.2
		c0,0.3,0.3,0.6,0.6,0.6h29.1c0.3,0,0.6-0.3,0.6-0.6V17.4C31.1,17.1,30.9,16.8,30.5,16.8z M28.8,36.1H27c-1.1-2.8-2.4-6.6-4.4-6.1
		c-2.4,0.6-3.5,6.1-3.5,6.1s-1.2-6.2-4.5-9.5C11.2,23.3,8,36.1,8,36.1H3.6V19.6h25.2V36.1z"/>
		<circle id="circle4161_1_" fill="#FFFFFF" cx="7.7" cy="23.2" r="2.1">
	</circle>
	<path id="path4163_1_" fill="#FFFFFF" d="M21.5,24.6c0.5,0,0.9,0,1.3-0.1c0.4,0.2,1,0.3,1.6,0.3
		c1.5,0,2.7-0.7,2.7-1.7c0-0.9-1.2-1.7-2.7-1.7c-0.6,0-1.1,0.1-1.5,0.3c-0.2-0.2-0.4-0.3-0.7-0.3h-0.4c-0.5,0-0.9,0.4-1,0.9
		c-1.2,0.1-2.1,0.6-2.1,1.1C18.6,24.1,19.9,24.6,21.5,24.6z"/>
</g>
</svg>
