<?xml version="1.0" encoding="utf-8"?>
<!-- Generator: Adobe Illustrator 18.1.1, SVG Export Plug-In . SVG Version: 6.00 Build 0)  -->
<svg version="1.1" xmlns="http://www.w3.org/2000/svg" xmlns:xlink="http://www.w3.org/1999/xlink" x="0px" y="0px"
	 viewBox="0 0 72 67" enable-background="new 0 0 72 67" xml:space="preserve">
<g id="Layer_1">
</g>
<g id="Layer_4">
	<g>
		<path fill="#575757" d="M72,6.9C72,3.1,68.9,0,65.1,0H6.9C3.1,0,0,3.1,0,6.9v53.3C0,63.9,3.1,67,6.9,67h58.3
			c3.8,0,6.9-3.1,6.9-6.9V6.9z M69,59.9c0,1.7-1.4,3.1-3.1,3.1H7.1C5.4,63,4,61.6,4,59.9V7.1C4,5.4,5.4,4,7.1,4h58.8
			C67.6,4,69,5.4,69,7.1V59.9z"/>
		<path fill="#575757" d="M55.5,14H16.6c-1,0-1.9,1-1.9,2s0.8,2,1.9,2h38.9c1,0,1.9-1,1.9-2S56.6,14,55.5,14z"/>
		<path fill="#575757" d="M55.5,27H16.6c-1,0-1.9,0.5-1.9,1.5c0,1,0.8,1.5,1.9,1.5h38.9c1,0,1.9-0.5,1.9-1.5
			C57.4,27.5,56.6,27,55.5,27z"/>
		<path fill="#575757" d="M55.5,38H16.6c-1,0-1.9,0.5-1.9,1.5c0,1,0.8,1.5,1.9,1.5h38.9c1,0,1.9-0.5,1.9-1.5
			C57.4,38.5,56.6,38,55.5,38z"/>
		<path fill="#575757" d="M55.5,49H16.6c-1,0-1.9,0.5-1.9,1.5s0.8,1.5,1.9,1.5h38.9c1,0,1.9-0.5,1.9-1.5S56.6,49,55.5,49z"/>
	</g>
</g>
<g id="Layer_3" display="none">
	<g id="Layer_2" display="inline">
	</g>
</g>
<g id="Layer_5" display="none">
</g>
</svg>
