<?xml version="1.0" encoding="utf-8"?>
<!-- Generator: Adobe Illustrator 18.1.1, SVG Export Plug-In . SVG Version: 6.00 Build 0)  -->
<svg version="1.1" xmlns="http://www.w3.org/2000/svg" xmlns:xlink="http://www.w3.org/1999/xlink" x="0px" y="0px"
	 viewBox="0 0 72 67" enable-background="new 0 0 72 67" xml:space="preserve">
<g id="Layer_1">
</g>
<g id="Layer_4">
	<g>
		<path fill="#575757" d="M72,6.9C72,3.1,68.9,0,65.1,0H6.9C3.1,0,0,3.1,0,6.9v53.3C0,63.9,3.1,67,6.9,67h58.3
			c3.8,0,6.9-3.1,6.9-6.9V6.9z M6.7,4H65c1.7,0,3,1.4,3,3.1V49H54v-4c3-0.5,4.5-2.8,4.5-5.5c0-3.1-2.5-5.6-5.6-5.6
			c-3.1,0-5.4,2.5-5.4,5.6c0,2.6,1.4,4.8,4.4,5.4v4H34v-4c2-0.5,4.2-2.8,4.2-5.5c0-3.1-2.6-5.6-5.7-5.6c-3.1,0-5.7,2.5-5.7,5.6
			c0,2.6,2.2,4.8,4.2,5.4v4H16v-8c3-0.1,5.4-2.6,5.4-5.6c0-3.1-2.5-5.6-5.6-5.6c-0.2,0-0.4,0-0.7,0c-0.2,0-0.4,0-0.7,0
			c-3.1,0-5.4,2.5-5.4,5.6c0,2.8,1.9,5.1,4.9,5.5v8H4V7.1C4,5.4,4.9,4,6.7,4z M65,63H6.7C4.9,63,4,61.6,4,59.9V53h10v3.4
			c0,0.7,0.3,1.2,1,1.2s1-0.6,1-1.2V53h15v3.3c0,0.7,0.8,1.2,1.5,1.2c0.7,0,1.5-0.6,1.5-1.2V53h18v1.9c0,0.7,0.3,1.2,1,1.2
			s1-0.6,1-1.2V53h14v6.9C68,61.6,66.7,63,65,63z"/>
		<path fill="#575757" d="M42.1,32.5c6.9,0,12.5-5.6,12.5-12.5C54.6,13,49,7.4,42.1,7.4c-6.9,0-12.5,5.6-12.5,12.5
			C29.6,26.9,35.2,32.5,42.1,32.5z M42.1,11.1c4.9,0,8.8,3.9,8.8,8.8c0,4.9-3.9,8.8-8.8,8.8s-8.8-3.9-8.8-8.8
			C33.3,15.1,37.2,11.1,42.1,11.1z"/>
	</g>
</g>
<g id="Layer_3" display="none">
	<g id="Layer_2" display="inline">
	</g>
</g>
<g id="Layer_5" display="none">
</g>
</svg>
