<?xml version="1.0" encoding="utf-8"?>
<!-- Generator: Adobe Illustrator 18.1.1, SVG Export Plug-In . SVG Version: 6.00 Build 0)  -->
<svg version="1.1" xmlns="http://www.w3.org/2000/svg" xmlns:xlink="http://www.w3.org/1999/xlink" x="0px" y="0px"
	 viewBox="0 0 72 67" enable-background="new 0 0 72 67" xml:space="preserve">
<g id="Layer_1">
</g>
<g id="Layer_4">
	<g>
		<path fill="#575757" d="M72,6.9C72,3.1,68.9,0,65.1,0H6.9C3.1,0,0,3.1,0,6.9v53.3C0,63.9,3.1,67,6.9,67h58.3
			c3.8,0,6.9-3.1,6.9-6.9V6.9z M68,7v44H19V4h27v21.9c0,0.9,0.4,1.6,1.2,1.8c0.8,0.2,1.6-0.2,2-1l4-7.8l4,7.8c0.3,0.6,1,1,1.7,1
			c0.1,0,0.5,0,0.6-0.1c0.8-0.2,1.6-1,1.6-1.8V4h4.2C66.9,4,68,5.3,68,7z M6.9,4H15v9H6.9C5.7,13,5,13.3,4,13.8V7C4,5.3,5.1,4,6.9,4
			z M6.9,17H15v8H6.9C5.7,25,5,25.4,4,25.9v-6C4,18.2,5.1,17,6.9,17z M6.9,29H15v8H6.9C5.7,37,5,37.8,4,38.2V32
			C4,30.3,5.1,29,6.9,29z M6.9,41H15v10H6.9C5.7,51,5,51.1,4,51.6v-7.2C4,42.6,5.1,41,6.9,41z M4,59.8v-2.1C4,56,5.1,54,6.9,54H10v9
			H6.9C5.1,63,4,61.6,4,59.8z M65.2,63H14v-9h54v5.8C68,61.6,66.9,63,65.2,63z"/>
	</g>
</g>
<g id="Layer_3" display="none">
	<g id="Layer_2" display="inline">
	</g>
</g>
<g id="Layer_5" display="none">
</g>
</svg>
