<?xml version="1.0" encoding="utf-8"?>
<!-- Generator: Adobe Illustrator 18.1.1, SVG Export Plug-In . SVG Version: 6.00 Build 0)  -->
<svg version="1.1" xmlns="http://www.w3.org/2000/svg" xmlns:xlink="http://www.w3.org/1999/xlink" x="0px" y="0px"
	 viewBox="0 0 72 67" enable-background="new 0 0 72 67" xml:space="preserve">
<g id="Layer_1">
</g>
<g id="Layer_4">
	<g>
		<path fill="#575757" d="M72,6.9C72,3.1,68.9,0,65.1,0H6.9C3.1,0,0,3.1,0,6.9v53.3C0,63.9,3.1,67,6.9,67h58.3
			c3.8,0,6.9-3.1,6.9-6.9V6.9z M69,59.9c0,1.7-1.4,3.1-3.1,3.1H7.1C5.4,63,4,61.6,4,59.9V7.1C4,5.4,5.4,4,7.1,4h58.8
			C67.6,4,69,5.4,69,7.1V59.9z"/>
		<path fill="#575757" d="M49.3,31.3L31,19.3c-0.9-0.6-2.1-0.7-3.1-0.1c-1,0.5-1.6,1.5-1.6,2.6l0,24.1c0,1.1,0.6,2.1,1.6,2.6
			c0.4,0.2,0.9,0.4,1.4,0.4c0.6,0,1.1-0.2,1.6-0.5l18.4-12.1c1.4-0.9,1.8-2.8,0.9-4.2C50,31.8,49.7,31.5,49.3,31.3z"/>
	</g>
</g>
<g id="Layer_3" display="none">
	<g id="Layer_2" display="inline">
	</g>
</g>
<g id="Layer_5" display="none">
</g>
</svg>
