<?xml version="1.0" encoding="utf-8"?>
<!-- Generator: Adobe Illustrator 18.1.1, SVG Export Plug-In . SVG Version: 6.00 Build 0)  -->
<svg version="1.1" xmlns="http://www.w3.org/2000/svg" xmlns:xlink="http://www.w3.org/1999/xlink" x="0px" y="0px"
	 viewBox="0 0 72 67" enable-background="new 0 0 72 67" xml:space="preserve">
<g id="Layer_1">
</g>
<g id="Layer_4">
	<g>
		<path fill="#575757" d="M72,6.9C72,3.1,68.9,0,65.1,0H6.9C3.1,0,0,3.1,0,6.9v53.3C0,63.9,3.1,67,6.9,67h58.3
			c3.8,0,6.9-3.1,6.9-6.9V6.9z M20,4h32v3c0,0.8-1,1-1.8,1H22c-0.8,0-2-0.2-2-1V4z M52,63H20v-3.5c0-0.8,1.1-1.5,2-1.5h28.2
			c0.8,0,1.8,0.7,1.8,1.5V63z M68,59.7c0,1.7-1.1,3.3-2.8,3.3H65v-2.3c0-0.3-0.3-0.7-0.6-0.7h-4.3c-0.3,0-0.1,0.4-0.1,0.7V63h-5
			v-3.5c0-2.9-1.9-5.5-4.8-5.5H22c-2.9,0-5,2.6-5,5.5V63h-4v-2.3c0-0.3-0.5-0.7-0.8-0.7H7.9C7.6,60,7,60.4,7,60.7V63H6.9
			C5.1,63,4,61.4,4,59.7V6.9C4,5.1,5.1,4,6.9,4H7v1.9C7,6.1,7.6,6,7.9,6h4.3C12.5,6,13,6.1,13,5.9V4h4v3c0,2.9,2.1,5,5,5h28.2
			c2.9,0,4.8-2.1,4.8-5V4h5v1.9C60,6.1,59.8,6,60.1,6h4.3C64.7,6,65,6.1,65,5.9V4h0.2C66.9,4,68,5.1,68,6.9V59.7z"/>
		<path fill="#575757" d="M56,24.2c0-2.9-2.3-5.2-5.2-5.2H22.2c-2.9,0-5.2,2.3-5.2,5.2v18.5c0,2.9,2.3,5.2,5.2,5.2h28.5
			c2.9,0,5.2-2.3,5.2-5.2V24.2z M51,42.5c0,0.8-0.7,1.5-1.5,1.5h-28c-0.8,0-1.5-0.7-1.5-1.5v-19c0-0.8,0.7-1.5,1.5-1.5h28
			c0.8,0,1.5,0.7,1.5,1.5V42.5z"/>
		<path fill="#575757" d="M65,35.5c0-0.3-0.2-0.5-0.5-0.5h-4c-0.3,0-0.5,0.2-0.5,0.5v3c0,0.3,0.2,0.5,0.5,0.5h4
			c0.3,0,0.5-0.2,0.5-0.5V35.5z"/>
		<path fill="#575757" d="M65,44.5c0-0.3-0.2-0.5-0.5-0.5h-4c-0.3,0-0.5,0.2-0.5,0.5v3c0,0.3,0.2,0.5,0.5,0.5h4
			c0.3,0,0.5-0.2,0.5-0.5V44.5z"/>
		<path fill="#575757" d="M65,52.5c0-0.3-0.2-0.5-0.5-0.5h-4c-0.3,0-0.5,0.2-0.5,0.5v3c0,0.3,0.2,0.5,0.5,0.5h4
			c0.3,0,0.5-0.2,0.5-0.5V52.5z"/>
		<path fill="#575757" d="M65,11.5c0-0.3-0.2-0.5-0.5-0.5h-4c-0.3,0-0.5,0.2-0.5,0.5v3c0,0.3,0.2,0.5,0.5,0.5h4
			c0.3,0,0.5-0.2,0.5-0.5V11.5z"/>
		<path fill="#575757" d="M65,19.5c0-0.3-0.2-0.5-0.5-0.5h-4c-0.3,0-0.5,0.2-0.5,0.5v3c0,0.3,0.2,0.5,0.5,0.5h4
			c0.3,0,0.5-0.2,0.5-0.5V19.5z"/>
		<path fill="#575757" d="M65,27.5c0-0.3-0.2-0.5-0.5-0.5h-4c-0.3,0-0.5,0.2-0.5,0.5v3c0,0.3,0.2,0.5,0.5,0.5h4
			c0.3,0,0.5-0.2,0.5-0.5V27.5z"/>
		<path fill="#575757" d="M12,35.5c0-0.3-0.2-0.5-0.5-0.5h-4C7.2,35,7,35.2,7,35.5v3C7,38.8,7.2,39,7.5,39h4c0.3,0,0.5-0.2,0.5-0.5
			V35.5z"/>
		<path fill="#575757" d="M12,44.5c0-0.3-0.2-0.5-0.5-0.5h-4C7.2,44,7,44.2,7,44.5v3C7,47.8,7.2,48,7.5,48h4c0.3,0,0.5-0.2,0.5-0.5
			V44.5z"/>
		<path fill="#575757" d="M12,52.5c0-0.3-0.2-0.5-0.5-0.5h-4C7.2,52,7,52.2,7,52.5v3C7,55.8,7.2,56,7.5,56h4c0.3,0,0.5-0.2,0.5-0.5
			V52.5z"/>
		<path fill="#575757" d="M12,11.5c0-0.3-0.2-0.5-0.5-0.5h-4C7.2,11,7,11.2,7,11.5v3C7,14.8,7.2,15,7.5,15h4c0.3,0,0.5-0.2,0.5-0.5
			V11.5z"/>
		<path fill="#575757" d="M12,19.5c0-0.3-0.2-0.5-0.5-0.5h-4C7.2,19,7,19.2,7,19.5v3C7,22.8,7.2,23,7.5,23h4c0.3,0,0.5-0.2,0.5-0.5
			V19.5z"/>
		<path fill="#575757" d="M12,27.5c0-0.3-0.2-0.5-0.5-0.5h-4C7.2,27,7,27.2,7,27.5v3C7,30.8,7.2,31,7.5,31h4c0.3,0,0.5-0.2,0.5-0.5
			V27.5z"/>
	</g>
</g>
<g id="Layer_3" display="none">
	<g id="Layer_2" display="inline">
	</g>
</g>
<g id="Layer_5" display="none">
</g>
</svg>
