<?xml version="1.0" encoding="UTF-8" standalone="no"?>
<!-- Created with Inkscape (http://www.inkscape.org/) -->

<svg
   xmlns:dc="http://purl.org/dc/elements/1.1/"
   xmlns:cc="http://creativecommons.org/ns#"
   xmlns:rdf="http://www.w3.org/1999/02/22-rdf-syntax-ns#"
   xmlns:svg="http://www.w3.org/2000/svg"
   xmlns="http://www.w3.org/2000/svg"
   version="1.1"
   width="48"
   height="48"
   viewBox="0 0 38.400002 38.399998"
   id="svg3187"
   style="fill-rule:evenodd">
  <metadata
     id="metadata3201">
    <rdf:RDF>
      <cc:Work
         rdf:about="">
        <dc:format>image/svg+xml</dc:format>
        <dc:type
           rdf:resource="http://purl.org/dc/dcmitype/StillImage" />
        <dc:title></dc:title>
      </cc:Work>
    </rdf:RDF>
  </metadata>
  <defs
     id="defs3199" />
  <path
     d="m 29.605301,12.3861 c 0.586666,0.294933 0.826666,1.0128 0.533333,1.6032 -0.298667,0.5904 -1.013333,0.829333 -1.605333,0.5344 L 19.199967,9.8575663 9.8719667,14.5237 c -0.592,0.294933 -1.3120001,0.056 -1.6053334,-0.5344 C 7.9733,13.3989 8.2133,12.681033 8.7999666,12.3861 l 9.8666674,-4.9333338 0.533333,-0.2672 0.538667,0.2672 9.866667,4.9333338 z m -1.738667,6.002133 c 0,-0.662933 0.538667,-1.200533 1.2,-1.200533 0.666667,0 1.2,0.5376 1.2,1.200533 l 0,9.866134 c 0,0.662933 -0.533333,1.2 -1.2,1.2 l -19.733334,0 c -0.6613334,0 -1.2,-0.537067 -1.2,-1.2 l 0,-9.866134 c 0,-0.662933 0.5386666,-1.200533 1.2,-1.200533 0.6666667,0 1.2,0.5376 1.2,1.200533 l 0,8.666134 17.333334,0 0,-8.666134 z"
     id="path3195"
     style="fill:#ffffff;stroke:none" />
</svg>
