<?xml version="1.0" encoding="UTF-8" standalone="no"?>
<!-- Created with Inkscape (http://www.inkscape.org/) -->

<svg
   xmlns:dc="http://purl.org/dc/elements/1.1/"
   xmlns:cc="http://creativecommons.org/ns#"
   xmlns:rdf="http://www.w3.org/1999/02/22-rdf-syntax-ns#"
   xmlns:svg="http://www.w3.org/2000/svg"
   xmlns="http://www.w3.org/2000/svg"
   version="1.1"
   width="47.999989"
   height="47.999985"
   id="svg3120">
  <defs
     id="defs3122" />
  <metadata
     id="metadata3125">
    <rdf:RDF>
      <cc:Work
         rdf:about="">
        <dc:format>image/svg+xml</dc:format>
        <dc:type
           rdf:resource="http://purl.org/dc/dcmitype/StillImage" />
        <dc:title></dc:title>
      </cc:Work>
    </rdf:RDF>
  </metadata>
  <path
     d="m 0,0 47.999987,0 0,47.999987 L 0,47.999987 0,0 z"
     id="path2993"
     style="fill:none;stroke:none" />
  <path
     d="m 23.999996,7.5367693 10.426825,0 0.823171,0 0,0.8231704 0,31.2801113 0,0.823171 -0.823171,0 -20.853289,0 -0.823532,0 0,-0.823171 0,-20.853285 0,-0.340976 0.22939,-0.229024 0.007,-0.0073 0.0051,-0.0048 0.0091,-0.0095 10.41731,-10.4173142 0.241467,-0.2410975 0.34061,0 z m 0.82317,1.6463409 0,9.6036558 c 0,0.45439 -0.368414,0.82317 -0.82317,0.82317 l -9.603293,0 0,19.206579 19.206578,0 0,-29.6334048 -8.780119,0 z m -1.646341,8.7801188 0,-7.615972 -7.616339,7.615972 7.616339,0 z"
     id="path3005"
     style="fill:#ffffff;stroke:none" />
</svg>
