<?xml version="1.0" encoding="UTF-8" standalone="no"?>
<!-- Created with Inkscape (http://www.inkscape.org/) -->

<svg
   xmlns:dc="http://purl.org/dc/elements/1.1/"
   xmlns:cc="http://creativecommons.org/ns#"
   xmlns:rdf="http://www.w3.org/1999/02/22-rdf-syntax-ns#"
   xmlns:svg="http://www.w3.org/2000/svg"
   xmlns="http://www.w3.org/2000/svg"
   version="1.1"
   width="47.999996"
   height="48"
   id="svg3120">
  <defs
     id="defs3122" />
  <metadata
     id="metadata3125">
    <rdf:RDF>
      <cc:Work
         rdf:about="">
        <dc:format>image/svg+xml</dc:format>
        <dc:type
           rdf:resource="http://purl.org/dc/dcmitype/StillImage" />
        <dc:title></dc:title>
      </cc:Work>
    </rdf:RDF>
  </metadata>
  <path
     d="m 0,0 47.999998,0 0,48 L 0,48 0,0 z"
     id="path2991"
     style="fill:none;stroke:none" />
  <path
     d="m 40.767397,31.486062 c -1.69317,-2.222195 -5.875243,-2.22878 -9.013901,-1.912317 2.729999,1.743659 5.90817,2.914024 9.428413,3.218049 l -1.924024,0 c -3.475609,-0.3 -6.608048,-1.381098 -9.297438,-2.99561 l -0.09037,0.01317 c -3.944268,0.577317 -8.111341,1.516098 -11.965975,2.813049 -2.830243,4.641219 -6.242194,8.269389 -9.4997544,9.05195 l -1.9240243,0 -0.066951,-0.0011 0.089268,0 c 0.01061,-3.66e-4 0.021585,-0.0018 0.032195,-0.0022 l -0.3501219,0 C 3.9208153,38.302281 10.548253,33.923745 14.402521,33.923745 11.898253,34.70594 6.5681322,38.373257 7.8745955,41.252891 11.581058,39.213623 18.004716,30.563014 21.905082,21.280941 19.584472,16.875332 18.924106,11.859844 20.416057,7.4556982 l 0.960366,-0.617561 c 0.562317,-0.1946341 1.670488,-1.1154877 2.39561,0.2773171 1.242439,2.3875608 0.740853,4.5739017 0.168292,6.8458537 0.103903,-3.278781 -0.804146,-6.1895123 -1.991341,-6.7836586 -1.039024,3.6453656 -0.636585,7.7773166 0.922317,11.6454866 0.591951,-1.61817 1.094268,-3.239633 1.479512,-4.832926 -0.08744,1.798902 -0.438658,3.822439 -0.999512,5.936707 1.567683,3.36 4.013414,6.45878 7.14439,8.781219 0.291951,-0.05012 0.575488,-0.09585 0.848414,-0.135732 3.060366,-0.447805 8.831707,-1.034268 10.897317,1.677073 l -1.474025,1.236585 z m -22.630242,0.750732 c 3.087073,-1.273902 7.22817,-2.482317 10.64817,-3.200488 -2.558048,-1.770731 -4.656951,-4.03939 -6.198292,-6.55756 -1.104147,3.326341 -2.652439,6.740853 -4.449878,9.758048 z"
     id="path3001"
     style="fill:#ffffff;stroke:none" />
</svg>
