<?xml version="1.0" encoding="UTF-8" standalone="no"?>
<!-- Created with Inkscape (http://www.inkscape.org/) -->

<svg
   xmlns:dc="http://purl.org/dc/elements/1.1/"
   xmlns:cc="http://creativecommons.org/ns#"
   xmlns:rdf="http://www.w3.org/1999/02/22-rdf-syntax-ns#"
   xmlns:svg="http://www.w3.org/2000/svg"
   xmlns="http://www.w3.org/2000/svg"
   version="1.1"
   width="47.999989"
   height="47.999989"
   id="svg3120">
  <defs
     id="defs3122" />
  <metadata
     id="metadata3125">
    <rdf:RDF>
      <cc:Work
         rdf:about="">
        <dc:format>image/svg+xml</dc:format>
        <dc:type
           rdf:resource="http://purl.org/dc/dcmitype/StillImage" />
        <dc:title></dc:title>
      </cc:Work>
    </rdf:RDF>
  </metadata>
  <path
     d="m 0,0 47.999987,0 0,47.999987 L 0,47.999987 0,0 z"
     id="path2997"
     style="fill:none;stroke:none" />
  <path
     d="m 18.499388,8.7892652 c 2.330487,0 4.214633,1.8870728 4.214633,4.2142668 0,2.327198 -1.884146,4.214267 -4.214633,4.214267 -2.326829,0 -4.210974,-1.887072 -4.210974,-4.214267 0,-2.327194 1.884145,-4.2142668 4.210974,-4.2142668 z M 29.496941,30.782188 c 2.326829,0 4.214633,1.887073 4.214633,4.214267 0,2.32756 -1.887804,4.214267 -4.214633,4.214267 -2.326828,0 -4.214632,-1.886707 -4.214632,-4.214267 0,-2.327194 1.887804,-4.214267 4.214632,-4.214267 z m 0,1.097561 c -1.719511,0 -3.117072,1.395365 -3.117072,3.116706 0,1.721707 1.397564,3.116706 3.117072,3.116706 1.723174,0 3.117072,-1.394999 3.117072,-3.116706 0,-1.721341 -1.393898,-3.116706 -3.117072,-3.116706 z m 0,-12.094024 c 2.326829,0 4.214633,1.887076 4.214633,4.214271 0,2.32719 -1.887804,4.214266 -4.214633,4.214266 -2.326828,0 -4.214632,-1.887076 -4.214632,-4.214266 0,-2.327195 1.887804,-4.214271 4.214632,-4.214271 z m 0,1.097561 c -1.719511,0 -3.117072,1.394999 -3.117072,3.11671 0,1.721706 1.397564,3.116706 3.117072,3.116706 1.723174,0 3.117072,-1.395 3.117072,-3.116706 0,-1.721711 -1.393898,-3.11671 -3.117072,-3.11671 z m 0,-12.0940208 c 2.326829,0 4.214633,1.8870728 4.214633,4.2142668 0,2.327195 -1.887804,4.214267 -4.214633,4.214267 -2.326828,0 -4.214632,-1.887072 -4.214632,-4.214267 0,-2.327194 1.887804,-4.2142668 4.214632,-4.2142668 z m 0,1.0975606 c -1.719511,0 -3.117072,1.3953662 -3.117072,3.1167062 0,1.721711 1.397564,3.116707 3.117072,3.116707 1.723174,0 3.117072,-1.394996 3.117072,-3.116707 0,-1.72134 -1.393898,-3.1167062 -3.117072,-3.1167062 z M 18.499388,30.782185 c 2.330487,0 4.214633,1.887072 4.214633,4.214267 0,2.32756 -1.884146,4.214266 -4.214633,4.214266 -2.326829,0 -4.210974,-1.886706 -4.210974,-4.214266 0,-2.327195 1.884145,-4.214267 4.210974,-4.214267 z m 0,1.09756 c -1.719515,0 -3.113414,1.395366 -3.113414,3.116707 0,1.721706 1.393899,3.116706 3.113414,3.116706 1.72317,0 3.117072,-1.395 3.117072,-3.116706 0,-1.721341 -1.393902,-3.116707 -3.117072,-3.116707 z m 0,-12.09402 c 2.330487,0 4.214633,1.887073 4.214633,4.214267 0,2.327194 -1.884146,4.214267 -4.214633,4.214267 -2.326829,0 -4.210974,-1.887073 -4.210974,-4.214267 0,-2.327194 1.884145,-4.214267 4.210974,-4.214267 z"
     id="path2999"
     style="fill:#ffffff;stroke:none" />
</svg>
