<?xml version="1.0" encoding="UTF-8" standalone="no"?>
<!-- Generator: Adobe Illustrator 16.0.4, SVG Export Plug-In . SVG Version: 6.00 Build 0)  -->

<svg
   xmlns:dc="http://purl.org/dc/elements/1.1/"
   xmlns:cc="http://creativecommons.org/ns#"
   xmlns:rdf="http://www.w3.org/1999/02/22-rdf-syntax-ns#"
   xmlns:svg="http://www.w3.org/2000/svg"
   xmlns="http://www.w3.org/2000/svg"
   xmlns:sodipodi="http://sodipodi.sourceforge.net/DTD/sodipodi-0.dtd"
   xmlns:inkscape="http://www.inkscape.org/namespaces/inkscape"
   version="1.1"
   id="Layer_1"
   x="0px"
   y="0px"
   width="44px"
   height="44px"
   viewBox="0 0 44 44"
   style="enable-background:new 0 0 44 44;"
   xml:space="preserve"
   inkscape:version="0.48.4 r9939"
   sodipodi:docname="709-plus-toolbar@2x.svg"><metadata
   id="metadata42"><rdf:RDF><cc:Work
       rdf:about=""><dc:format>image/svg+xml</dc:format><dc:type
         rdf:resource="http://purl.org/dc/dcmitype/StillImage" /></cc:Work></rdf:RDF></metadata><defs
   id="defs40">
	
</defs><sodipodi:namedview
   pagecolor="#ffffff"
   bordercolor="#666666"
   borderopacity="1"
   objecttolerance="10"
   gridtolerance="10"
   guidetolerance="10"
   inkscape:pageopacity="0"
   inkscape:pageshadow="2"
   inkscape:window-width="787"
   inkscape:window-height="480"
   id="namedview38"
   showgrid="false"
   inkscape:zoom="5.3636364"
   inkscape:cx="58.449153"
   inkscape:cy="22"
   inkscape:window-x="0"
   inkscape:window-y="0"
   inkscape:window-maximized="0"
   inkscape:current-layer="Layer_1" />
<g
   id="g4"
   transform="matrix(0.98150477,-0.98150477,0.98150477,0.98150477,-21.186394,21.999816)">
		<path
   style="fill:#d63030"
   inkscape:connector-curvature="0"
   id="path6"
   d="M 43,21 H 23 V 1 C 23,0.448 22.553,0 22,0 21.447,0 21,0.448 21,1 V 21 H 1 c -0.553,0 -1,0.448 -1,1 0,0.553 0.447,1 1,1 h 20 v 20 c 0,0.553 0.447,1 1,1 0.553,0 1,-0.447 1,-1 V 23 h 20 c 0.553,0 1,-0.447 1,-1 0,-0.552 -0.447,-1 -1,-1 z" />
	</g>
<g
   id="g8">
</g>
<g
   id="g10">
</g>
<g
   id="g12">
</g>
<g
   id="g14">
</g>
<g
   id="g16">
</g>
<g
   id="g18">
</g>
<g
   id="g20">
</g>
<g
   id="g22">
</g>
<g
   id="g24">
</g>
<g
   id="g26">
</g>
<g
   id="g28">
</g>
<g
   id="g30">
</g>
<g
   id="g32">
</g>
<g
   id="g34">
</g>
<g
   id="g36">
</g>
</svg>