<?xml version="1.0" encoding="UTF-8" standalone="no"?>
<!-- Generator: Adobe Illustrator 16.0.4, SVG Export Plug-In . SVG Version: 6.00 Build 0)  -->

<svg
   xmlns:dc="http://purl.org/dc/elements/1.1/"
   xmlns:cc="http://creativecommons.org/ns#"
   xmlns:rdf="http://www.w3.org/1999/02/22-rdf-syntax-ns#"
   xmlns:svg="http://www.w3.org/2000/svg"
   xmlns="http://www.w3.org/2000/svg"
   xmlns:sodipodi="http://sodipodi.sourceforge.net/DTD/sodipodi-0.dtd"
   xmlns:inkscape="http://www.inkscape.org/namespaces/inkscape"
   version="1.1"
   id="Layer_1"
   x="0px"
   y="0px"
   width="32px"
   height="44px"
   viewBox="0 0 32 44"
   style="enable-background:new 0 0 32 44;"
   xml:space="preserve"
   inkscape:version="0.48.4 r9939"
   sodipodi:docname="703-download-toolbar@2x.svg"><metadata
   id="metadata42"><rdf:RDF><cc:Work
       rdf:about=""><dc:format>image/svg+xml</dc:format><dc:type
         rdf:resource="http://purl.org/dc/dcmitype/StillImage" /></cc:Work></rdf:RDF></metadata><defs
   id="defs40" /><sodipodi:namedview
   pagecolor="#ffffff"
   bordercolor="#666666"
   borderopacity="1"
   objecttolerance="10"
   gridtolerance="10"
   guidetolerance="10"
   inkscape:pageopacity="0"
   inkscape:pageshadow="2"
   inkscape:window-width="1165"
   inkscape:window-height="775"
   id="namedview38"
   showgrid="false"
   inkscape:zoom="5.3636364"
   inkscape:cx="16"
   inkscape:cy="22"
   inkscape:window-x="0"
   inkscape:window-y="0"
   inkscape:window-maximized="0"
   inkscape:current-layer="Layer_1" />
<g
   id="_x37_03-download-toolbar_x40_2x.png"
   transform="matrix(0,-1.2913136,1,0,-12.525424,42.847458)">
	<g
   id="g4">
		<path
   d="m 30,14 h -8 c -0.553,0 -1,0.448 -1,1 0,0.553 0.447,1 1,1 h 8 V 42 H 2 V 16 h 8 c 0.553,0 1,-0.447 1,-1 0,-0.552 -0.447,-1 -1,-1 H 2 c -1.104,0 -2,0.896 -2,2 v 26 c 0,1.104 0.896,2 2,2 h 28 c 1.104,0 2,-0.896 2,-2 V 16 c 0,-1.104 -0.896,-2 -2,-2 z M 10,26 c -0.553,0 -1,0.447 -1,1 0,0.276 0.112,0.526 0.293,0.707 l 6,6 C 15.474,33.888 15.724,34 16,34 c 0.276,0 0.526,-0.112 0.707,-0.293 l 6,-6 C 22.888,27.526 23,27.276 23,27 c 0,-0.553 -0.447,-1 -1,-1 -0.276,0 -0.526,0.112 -0.707,0.293 L 17,30.586 V 1 C 17,0.447 16.553,0 16,0 15.448,0 15,0.447 15,1 V 30.586 L 10.707,26.293 C 10.526,26.112 10.276,26 10,26 z"
   id="path6"
   inkscape:connector-curvature="0" />
	</g>
</g>
<g
   id="g8">
</g>
<g
   id="g10">
</g>
<g
   id="g12">
</g>
<g
   id="g14">
</g>
<g
   id="g16">
</g>
<g
   id="g18">
</g>
<g
   id="g20">
</g>
<g
   id="g22">
</g>
<g
   id="g24">
</g>
<g
   id="g26">
</g>
<g
   id="g28">
</g>
<g
   id="g30">
</g>
<g
   id="g32">
</g>
<g
   id="g34">
</g>
<g
   id="g36">
</g>
</svg>