<?xml version="1.0" encoding="UTF-8" standalone="no"?>
<!-- Created with Inkscape (http://www.inkscape.org/) -->

<svg
   xmlns:dc="http://purl.org/dc/elements/1.1/"
   xmlns:cc="http://creativecommons.org/ns#"
   xmlns:rdf="http://www.w3.org/1999/02/22-rdf-syntax-ns#"
   xmlns:svg="http://www.w3.org/2000/svg"
   xmlns="http://www.w3.org/2000/svg"
   version="1.1"
   width="100"
   height="100"
   viewBox="0 0 100 100"
   id="Capa_1"
   xml:space="preserve"><metadata
   id="metadata9"><rdf:RDF><cc:Work
       rdf:about=""><dc:format>image/svg+xml</dc:format><dc:type
         rdf:resource="http://purl.org/dc/dcmitype/StillImage" /><dc:title></dc:title></cc:Work></rdf:RDF></metadata><defs
   id="defs7" />
<path
   d="m 3.44989,71.990124 4.75883,4.758821 c 0.63443,0.6356 1.36467,0.952232 2.19071,0.952232 0.82371,0 1.55395,-0.316632 2.18838,-0.952232 L 49.99942,39.338511 87.40985,76.747777 c 0.634432,0.6356 1.364671,0.952232 2.189549,0.952232 0.824878,0 1.555116,-0.316632 2.189548,-0.952232 l 4.758821,-4.758821 C 97.183368,71.354524 97.5,70.624285 97.5,69.799407 97.5,68.974529 97.1822,68.24429 96.547768,67.609859 L 52.18896,23.249886 c -0.63443,-0.634431 -1.36467,-0.951063 -2.18954,-0.951063 -0.82488,0 -1.55395,0.316632 -2.18838,0.951063 L 3.44989,67.609859 C 2.81546,68.24429 2.5,68.974529 2.5,69.799407 c 0,0.824878 0.31546,1.555117 0.94989,2.190717 z"
   id="path3"
   style="opacity:0.5;fill:#000000;fill-opacity:1" />
</svg>