<?xml version="1.0" encoding="UTF-8" standalone="no"?>
<!-- Created with Inkscape (http://www.inkscape.org/) -->

<svg
   xmlns:dc="http://purl.org/dc/elements/1.1/"
   xmlns:cc="http://creativecommons.org/ns#"
   xmlns:rdf="http://www.w3.org/1999/02/22-rdf-syntax-ns#"
   xmlns:svg="http://www.w3.org/2000/svg"
   xmlns="http://www.w3.org/2000/svg"
   version="1.1"
   width="96.000015"
   height="48"
   viewBox="0 0 76.800016 38.399998"
   id="svg2985"
   style="fill-rule:evenodd">
  <metadata
     id="metadata2999">
    <rdf:RDF>
      <cc:Work
         rdf:about="">
        <dc:format>image/svg+xml</dc:format>
        <dc:type
           rdf:resource="http://purl.org/dc/dcmitype/StillImage" />
        <dc:title></dc:title>
      </cc:Work>
    </rdf:RDF>
  </metadata>
  <defs
     id="defs2997" />
  <g
     transform="translate(-43.454154,-55.305265)"
     id="g3019">
    <path
       d="m 120.25417,55.305263 -38.400006,0 0,38.400001 38.400006,0 0,-38.400001 z"
       id="path2991"
       style="fill:none;stroke:none" />
    <path
       d="m 89.647231,62.945264 8.5552,0 c 0.9888,0 1.956799,0.473599 2.667199,1.184 l -0.002,0.0021 c 0.0635,0.06347 0.1248,0.129066 0.184,0.196266 0.0597,-0.06827 0.12213,-0.1344 0.18613,-0.1984 l 0.002,0.0021 c 0.712,-0.711466 1.68,-1.186133 2.6656,-1.186133 l 8.5552,0 1,0 0,1 0,18.268267 0,1 -1,0 -8.5552,0 c -0.4368,0 -0.89493,0.239466 -1.25386,0.5984 -0.3584,0.358933 -0.59787,0.816533 -0.59787,1.253333 0,0.552534 -0.448,1 -1,1 -0.55253,0 -1,-0.447466 -1,-1 0,-0.439467 -0.2384,-0.897067 -0.594666,-1.253333 l -0.0037,0 c -0.358933,-0.358934 -0.816533,-0.5984 -1.253333,-0.5984 l -8.5552,0 -1,0 0,-1 0,-18.268267 0,-1 1,0 z m 12.406929,3.851733 0,14.960534 c 0.56374,-0.340267 1.2032,-0.544 1.85174,-0.544 l 7.5552,0 0,-16.268268 -7.5552,0 c -0.43947,0 -0.89707,0.237867 -1.25387,0.594134 l 0,0.0043 c -0.3584,0.3584 -0.59787,0.816533 -0.59787,1.253333 z m -2,14.960534 0,-14.960534 c 0,-0.439467 -0.238396,-0.897067 -0.594662,-1.253333 l -0.0037,0 C 99.096831,65.18473 98.639231,64.945263 98.202431,64.945263 l -7.5552,0 0,16.268268 7.5552,0 c 0.648,0 1.288,0.203733 1.851729,0.544 z"
       id="path2993"
       style="fill:#ffffff;stroke:none" />
  </g>
  <g
     transform="translate(-131.52436,-55.305265)"
     id="g3025">
    <path
       d="m 169.92437,55.305263 -38.40001,0 0,38.400001 38.40001,0 0,-38.400001 z"
       id="path2999"
       style="fill:none;stroke:none" />
    <path
       d="m 139.31743,62.945263 8.5552,0 c 0.9888,0 1.9568,0.4736 2.6672,1.184 l -0.002,0.0021 c 0.0635,0.06347 0.1248,0.129067 0.184,0.196267 0.0597,-0.06827 0.12213,-0.1344 0.18613,-0.1984 l 0.002,0.0021 c 0.712,-0.711467 1.68,-1.186133 2.6656,-1.186133 l 8.5552,0 1,0 0,1 0,18.268267 0,1 -1,0 -8.5552,0 c -0.4368,0 -0.89493,0.239466 -1.25386,0.5984 -0.3584,0.358933 -0.59787,0.816533 -0.59787,1.253333 0,0.552534 -0.448,1 -1,1 -0.55253,0 -1,-0.447466 -1,-1 0,-0.439467 -0.2384,-0.897067 -0.59467,-1.253333 l -0.004,0 c -0.35893,-0.358934 -0.81653,-0.5984 -1.25333,-0.5984 l -8.5552,0 -1,0 0,-1 0,-18.268267 0,-1 1,0 z m 12.40693,3.851734 0,14.960534 c 0.56374,-0.340267 1.2032,-0.544 1.85174,-0.544 l 7.5552,0 0,-16.268268 -7.5552,0 c -0.43947,0 -0.89707,0.237867 -1.25387,0.594134 l 0,0.0043 c -0.3584,0.3584 -0.59787,0.816533 -0.59787,1.253333 z m -2,14.960534 0,-14.960534 c 0,-0.439467 -0.2384,-0.897067 -0.59466,-1.253333 l -0.004,0 c -0.35897,-0.358934 -0.81657,-0.598401 -1.25337,-0.598401 l -7.5552,0 0,16.268268 7.5552,0 c 0.648,0 1.288,0.203733 1.85173,0.544 z"
       id="path3001"
       style="fill:#000000;stroke:none" />
  </g>
</svg>
