<?xml version="1.0" encoding="UTF-8" standalone="no"?>
<!-- Created with Inkscape (http://www.inkscape.org/) -->

<svg
   xmlns:dc="http://purl.org/dc/elements/1.1/"
   xmlns:cc="http://creativecommons.org/ns#"
   xmlns:rdf="http://www.w3.org/1999/02/22-rdf-syntax-ns#"
   xmlns:svg="http://www.w3.org/2000/svg"
   xmlns="http://www.w3.org/2000/svg"
   version="1.1"
   width="96"
   height="48"
   id="svg3882">
  <defs
     id="defs3884" />
  <metadata
     id="metadata3887">
    <rdf:RDF>
      <cc:Work
         rdf:about="">
        <dc:format>image/svg+xml</dc:format>
        <dc:type
           rdf:resource="http://purl.org/dc/dcmitype/StillImage" />
        <dc:title></dc:title>
      </cc:Work>
    </rdf:RDF>
  </metadata>
  <g
     transform="translate(-446.42857,-483.6479)"
     id="layer1">
    <path
       d="m 446.42857,483.6479 48,0 0,48 -48,0 0,-48 z"
       id="path3004"
       style="fill:none;stroke:none" />
    <path
       d="m 478.0219,498.62387 a 1.5001499,1.5001499 0 0 0 -0.0166,0.0166 1.5001499,1.5001499 0 0 0 -0.88333,2.58334 l 4.93333,4.93333 -25.9,0 a 1.5001499,1.5001499 0 0 0 -0.15,0 1.5018738,1.5018738 0 1 0 0.15,3 l 25.9,0 -4.93333,4.93333 a 1.502617,1.502617 0 1 0 2.11667,2.13334 l 7.5,-7.5 1.06666,-1.06667 -1.06666,-1.06667 -7.50003,-7.49997 a 1.5001499,1.5001499 0 0 0 -1.21667,-0.46667 z"
       id="path3006"
       style="font-size:medium;font-style:normal;font-variant:normal;font-weight:normal;font-stretch:normal;text-indent:0;text-align:start;text-decoration:none;line-height:normal;letter-spacing:normal;word-spacing:normal;text-transform:none;direction:ltr;block-progression:tb;writing-mode:lr-tb;text-anchor:start;baseline-shift:baseline;color:#000000;fill:#808080;fill-opacity:1;fill-rule:nonzero;stroke:none;stroke-width:4.5;marker:none;visibility:visible;display:inline;overflow:visible;enable-background:accumulate;font-family:Sans;-inkscape-font-specification:Sans" />
    <path
       d="m 494.42857,483.6479 48,0 0,48 -48,0 0,-48 z"
       id="path3911"
       style="fill:none;stroke:none" />
    <path
       d="m 526.0219,498.62387 a 1.5001499,1.5001499 0 0 0 -0.0166,0.0166 1.5001499,1.5001499 0 0 0 -0.88333,2.58334 l 4.93333,4.93333 -25.9,0 a 1.5001499,1.5001499 0 0 0 -0.15,0 1.5018738,1.5018738 0 1 0 0.15,3 l 25.9,0 -4.93333,4.93333 a 1.502617,1.502617 0 1 0 2.11667,2.13334 l 7.5,-7.5 1.06666,-1.06667 -1.06666,-1.06667 -7.50003,-7.49997 a 1.5001499,1.5001499 0 0 0 -1.21667,-0.46667 z"
       id="path3913"
       style="font-size:medium;font-style:normal;font-variant:normal;font-weight:normal;font-stretch:normal;text-indent:0;text-align:start;text-decoration:none;line-height:normal;letter-spacing:normal;word-spacing:normal;text-transform:none;direction:ltr;block-progression:tb;writing-mode:lr-tb;text-anchor:start;baseline-shift:baseline;color:#000000;fill:#ffffff;fill-opacity:1;fill-rule:nonzero;stroke:none;stroke-width:4.5;marker:none;visibility:visible;display:inline;overflow:visible;enable-background:accumulate;font-family:Sans;-inkscape-font-specification:Sans" />
  </g>
</svg>
