<?xml version="1.0" encoding="UTF-8" standalone="no"?>
<!-- Created with Inkscape (http://www.inkscape.org/) -->

<svg
   xmlns:dc="http://purl.org/dc/elements/1.1/"
   xmlns:cc="http://creativecommons.org/ns#"
   xmlns:rdf="http://www.w3.org/1999/02/22-rdf-syntax-ns#"
   xmlns:svg="http://www.w3.org/2000/svg"
   xmlns="http://www.w3.org/2000/svg"
   version="1.1"
   width="259"
   height="96"
   id="svg2">
  <defs
     id="defs4">
 <style
   type="text/css"
   id="style3003" />

  
 <style
   type="text/css"
   id="style3003-1" />

  </defs>
  <metadata
     id="metadata7">
    <rdf:RDF>
      <cc:Work
         rdf:about="">
        <dc:format>image/svg+xml</dc:format>
        <dc:type
           rdf:resource="http://purl.org/dc/dcmitype/StillImage" />
        <dc:title></dc:title>
      </cc:Work>
    </rdf:RDF>
  </metadata>
  <g
     transform="translate(-105.67432,-487.29928)"
     id="layer1">
    <g
       id="g3035">
      <path
         d="m 111.92067,487.29928 28.81712,0 c 3.4358,0 6.24635,2.79857 6.24635,6.21822 l 0,35.56423 c 0,3.41966 -2.81055,6.21755 -6.24635,6.21755 l -28.81712,0 c -3.43579,0 -6.24635,-2.79789 -6.24635,-6.21755 l 0,-35.56423 c 0,-3.41965 2.81056,-6.21822 6.24635,-6.21822 z m 252.75364,32.00425 -1.49465,0 0,-23.39637 1.49465,0 0,23.39637 z m -12.87986,0.30752 c -2.52525,0 -4.36523,-0.94404 -5.52533,-2.82676 l -0.10252,0 0.0411,1.26231 c 0.0412,0.73858 0.0614,1.54968 0.0614,2.43196 l 0,6.21352 -1.49465,0 0,-23.73546 1.26802,0 0.28868,2.33998 0.0877,0 c 1.12841,-1.76522 2.92724,-2.6475 5.40663,-2.6475 2.21094,0 3.90119,0.72315 5.06129,2.17547 1.16483,1.44696 1.7469,3.55529 1.7469,6.32095 0,2.68845 -0.6131,4.77194 -1.83458,6.24911 -1.22688,1.47784 -2.89149,2.21642 -5.00464,2.21642 z m -0.031,-1.29252 c 1.68012,0 2.97917,-0.62108 3.90186,-1.86795 0.92269,-1.24687 1.38133,-2.99127 1.38133,-5.22784 0,-4.81289 -1.74218,-7.21934 -5.22114,-7.21934 -1.91215,0 -3.31911,0.52373 -4.21077,1.5752 -0.89706,1.04678 -1.34559,2.7603 -1.34559,5.13116 l 0,0.48209 c 0,2.56021 0.42829,4.38653 1.28893,5.48501 0.86063,1.09243 2.2622,1.64167 4.20538,1.64167 z m -14.64227,-0.18465 c 0,-0.985 0.40199,-1.47784 1.20597,-1.47784 0.82961,0 1.24171,0.49284 1.24171,1.47784 0,0.98501 -0.4121,1.47717 -1.24171,1.47717 -0.80398,0 -1.20597,-0.49216 -1.20597,-1.47717 z m -5.19551,1.16965 -1.49465,0 0,-16.34691 1.49465,0 0,16.34691 z m -1.70576,-20.88249 c 0,-0.95949 0.3197,-1.43622 0.95371,-1.43622 0.30891,0 0.55105,0.12288 0.73181,0.37467 0.17469,0.25112 0.26237,0.60497 0.26237,1.06155 0,0.45188 -0.0877,0.80573 -0.26237,1.06759 -0.18076,0.26119 -0.4229,0.39011 -0.73181,0.39011 -0.63401,0 -0.95371,-0.48747 -0.95371,-1.4577 z m -13.28184,13.70949 8.3804,-9.17391 1.81435,0 -6.46826,6.97829 7.0247,9.36862 -1.79883,0 -6.23624,-8.25537 -2.69049,2.43734 0,5.81803 -1.49465,0 0,-23.39637 1.49465,0 0,11.72874 -0.1032,4.49463 0.0776,0 z m -6.96333,7.173 -1.49464,0 0,-16.34691 1.49464,0 0,16.34691 z m -1.70575,-20.88249 c 0,-0.95949 0.3197,-1.43622 0.95371,-1.43622 0.30891,0 0.55105,0.12288 0.73181,0.37467 0.17536,0.25112 0.26237,0.60497 0.26237,1.06155 0,0.45188 -0.087,0.80573 -0.26237,1.06759 -0.18076,0.26119 -0.4229,0.39011 -0.73181,0.39011 -0.63401,0 -0.95371,-0.48747 -0.95371,-1.4577 z m -6.57618,20.88249 0,-10.59534 c 0,-1.64167 -0.35073,-2.83684 -1.04679,-3.58617 -0.69066,-0.74395 -1.76781,-1.11862 -3.23143,-1.11862 -1.96341,0 -3.4014,0.49284 -4.30857,1.48322 -0.91257,0.985 -1.37122,2.58572 -1.37122,4.79677 l 0,9.02014 -1.49464,0 0,-16.34691 1.26802,0 0.28868,2.24732 0.0931,0 c 1.06636,-1.70345 2.96299,-2.55484 5.69463,-2.55484 3.7211,0 5.58739,1.99083 5.58739,5.9671 l 0,10.68733 -1.47914,0 z m -15.49818,0 -11.72042,0 0,-0.92323 9.74083,-14.13048 -9.02926,0 0,-1.2932 10.97783,0 0,0.92391 -9.80288,14.12981 9.8339,0 0,1.29319 z m -18.35325,0.30752 c -2.34516,0 -4.18042,-0.73858 -5.50982,-2.21105 -1.33007,-1.47247 -1.98971,-3.52977 -1.98971,-6.16182 0,-2.70926 0.68594,-4.81826 2.0666,-6.32632 1.37661,-1.50873 3.26785,-2.26276 5.65956,-2.26276 1.42247,0 2.7775,0.24642 4.07655,0.73859 l -0.40671,1.32408 c -1.41776,-0.47202 -2.65475,-0.70837 -3.70087,-0.70837 -2.00995,0 -3.53562,0.62108 -4.57162,1.85721 -1.036,1.23679 -1.5567,3.01746 -1.5567,5.34669 0,2.20098 0.5207,3.92994 1.5567,5.17681 1.036,1.24686 2.48411,1.87265 4.34972,1.87265 1.48992,0 2.87125,-0.26656 4.14939,-0.79499 l 0,1.37981 c -1.04679,0.51298 -2.42273,0.76947 -4.12309,0.76947 z m -16.89031,0 c -2.3863,0 -4.24652,-0.73321 -5.58131,-2.19561 -1.33479,-1.4624 -1.99983,-3.51432 -1.99983,-6.15174 0,-2.60654 0.64413,-4.69472 1.93238,-6.25985 1.28893,-1.56983 3.02572,-2.35475 5.21103,-2.35475 1.93238,0 3.45805,0.66675 4.57701,2.00627 1.11829,1.33415 1.67473,3.1504 1.67473,5.44875 l 0,1.19516 -11.82834,0 c 0.0209,2.25806 0.54633,3.98165 1.58233,5.17212 1.03061,1.19046 2.50974,1.78536 4.432,1.78536 0.93821,0 1.7577,-0.0665 2.46927,-0.19472 0.7109,-0.12825 1.60796,-0.41092 2.69522,-0.84132 l 0,1.3543 c -0.92741,0.40018 -1.78332,0.67211 -2.56639,0.8158 -0.78375,0.14839 -1.64978,0.22023 -2.5981,0.22023 z m -0.43773,-15.66875 c -1.58233,0 -2.85035,0.51768 -3.80879,1.55976 -0.95371,1.0414 -1.51555,2.54476 -1.67473,4.5047 l 10.14754,0 c 0,-1.90354 -0.41211,-3.38675 -1.23632,-4.45904 -0.82489,-1.0723 -1.9688,-1.60542 -3.4277,-1.60542 z m -11.15319,-1.2932 c 0.69606,0 1.44339,0.0719 2.23657,0.21017 l -0.28867,1.43151 c -0.68527,-0.16921 -1.39145,-0.25649 -2.12866,-0.25649 -1.39617,0 -2.54548,0.59019 -3.43715,1.77529 -0.89705,1.18039 -1.34558,2.67301 -1.34558,4.47918 l 0,9.01477 -1.49465,0 0,-16.34691 1.26802,0 0.14974,2.95569 0.10791,0 c 0.67516,-1.20591 1.39146,-2.04723 2.15969,-2.53469 0.76283,-0.48747 1.69024,-0.72852 2.77278,-0.72852 z m -18.85304,0 c 1.18506,0 2.21094,0.21554 3.07697,0.6466 0.86536,0.43107 1.63899,1.16965 2.32426,2.21106 l 0.0924,0 c -0.0614,-1.26231 -0.0924,-2.50381 -0.0924,-3.71442 l 0,-5.88518 1.47913,0 0,23.39637 -0.97934,0 -0.38108,-2.48836 -0.11871,0 c -1.24711,1.86258 -3.04123,2.79588 -5.3756,2.79588 -2.26288,0 -3.99426,-0.70232 -5.19012,-2.10362 -1.19585,-1.40533 -1.79883,-3.44785 -1.79883,-6.1363 0,-2.82677 0.59759,-4.9868 1.78332,-6.48008 1.18506,-1.49262 2.91173,-2.24195 5.18,-2.24195 z m 0,1.3543 c -1.79411,0 -3.13903,0.62578 -4.0408,1.88339 -0.89706,1.25694 -1.35031,3.07856 -1.35031,5.46889 0,4.64369 1.80895,6.96285 5.41674,6.96285 1.85549,0 3.21052,-0.53917 4.07655,-1.61146 0.86603,-1.07699 1.29905,-2.84758 1.29905,-5.3205 l 0,-0.25649 c 0,-2.52932 -0.42762,-4.35094 -1.27342,-5.45882 -0.84984,-1.11325 -2.22645,-1.66786 -4.12781,-1.66786 z m -10.5556,7.11124 c 0,2.6683 -0.64952,4.75112 -1.94857,6.24977 -1.29837,1.49799 -3.08709,2.24664 -5.3756,2.24664 -1.43799,0 -2.70533,-0.3431 -3.80338,-1.03603 -1.09806,-0.69293 -1.93778,-1.68263 -2.52053,-2.9812 -0.58747,-1.29252 -0.87615,-2.78581 -0.87615,-4.47918 0,-2.66764 0.64952,-4.74575 1.94857,-6.23367 1.29837,-1.48791 3.07697,-2.23187 5.34457,-2.23187 2.25209,0 4.02529,0.75403 5.30883,2.26276 1.28286,1.50806 1.92226,3.5761 1.92226,6.20278 z m -12.95742,0 c 0,2.24731 0.50047,3.99709 1.48993,5.25402 0.98946,1.25694 2.39103,1.8881 4.20538,1.8881 1.81434,0 3.21591,-0.63116 4.20605,-1.8881 0.98946,-1.25693 1.48925,-3.00671 1.48925,-5.25402 0,-2.25202 -0.50519,-4.00179 -1.50477,-5.24866 -1.00025,-1.2415 -2.40721,-1.86258 -4.22156,-1.86258 -1.80895,0 -3.2058,0.62108 -4.18987,1.85721 -0.97934,1.23679 -1.47441,2.99127 -1.47441,5.25403 z m -12.0037,8.49641 c -2.52525,0 -4.36523,-0.94404 -5.52466,-2.82676 l -0.1032,0 0.0411,1.26231 c 0.0411,0.73858 0.062,1.54968 0.062,2.43196 l 0,6.21352 -1.49465,0 0,-23.73546 1.26802,0 0.28868,2.33998 0.087,0 c 1.12908,-1.76522 2.92791,-2.6475 5.40662,-2.6475 2.21162,0 3.90187,0.72315 5.0613,2.17547 1.16482,1.44696 1.74757,3.55529 1.74757,6.32095 0,2.68845 -0.61377,4.77194 -1.83526,6.24911 -1.2262,1.47784 -2.89081,2.21642 -5.00463,2.21642 z m -0.0303,-1.29252 c 1.68012,0 2.9785,-0.62108 3.90118,-1.86795 0.92269,-1.24687 1.38134,-2.99127 1.38134,-5.22784 0,-4.81289 -1.74218,-7.21934 -5.22115,-7.21934 -1.91214,0 -3.31911,0.52373 -4.21077,1.5752 -0.89638,1.04678 -1.34491,2.7603 -1.34491,5.13116 l 0,0.48209 c 0,2.56021 0.42762,4.38653 1.28825,5.48501 0.86064,1.09243 2.26288,1.64167 4.20606,1.64167 z m -17.32805,1.29252 c -2.3863,0 -4.24652,-0.73321 -5.58199,-2.19561 -1.33479,-1.4624 -1.99915,-3.51432 -1.99915,-6.15174 0,-2.60654 0.64413,-4.69472 1.93238,-6.25985 1.28826,-1.56983 3.02571,-2.35475 5.21103,-2.35475 1.93238,0 3.45805,0.66675 4.57634,2.00627 1.11828,1.33415 1.6754,3.1504 1.6754,5.44875 l 0,1.19516 -11.82834,0 c 0.0202,2.25806 0.54633,3.98165 1.58166,5.17212 1.03128,1.19046 2.51041,1.78536 4.43267,1.78536 0.9382,0 1.7577,-0.0665 2.4686,-0.19472 0.71157,-0.12825 1.60796,-0.41092 2.69589,-0.84132 l 0,1.3543 c -0.92808,0.40018 -1.78332,0.67211 -2.56707,0.8158 -0.78307,0.14839 -1.6491,0.22023 -2.59742,0.22023 z m -0.43773,-15.66875 c -1.58233,0 -2.85035,0.51768 -3.80879,1.55976 -0.95371,1.0414 -1.51555,2.54476 -1.6754,4.5047 l 10.14821,0 c 0,-1.90354 -0.41211,-3.38675 -1.237,-4.45904 -0.82421,-1.0723 -1.9688,-1.60542 -3.42702,-1.60542 z m -40.86535,26.06065 c -5.70137,-7.59601 -9.27611,0 -16.90446,0 l 0,-38.96978 33.80961,0 0,38.96978 c -7.62836,0 -11.2031,-7.59601 -16.90515,0 z m 0,-28.95322 c -2.88474,2.50045 -6.33403,2.91003 -9.31253,2.61124 0,6.16987 -0.66773,11.06938 9.31253,16.32475 9.98027,-5.25537 9.31321,-10.15488 9.31321,-16.32475 -2.9785,0.29879 -6.42778,-0.11079 -9.31321,-2.61124 z"
         id="path2991"
         style="fill:#000000;fill-rule:evenodd;stroke:none" />
      <path
         d="m 111.92067,535.29928 28.81712,0 c 3.4358,0 6.24635,2.79857 6.24635,6.21822 l 0,35.56423 c 0,3.41966 -2.81055,6.21755 -6.24635,6.21755 l -28.81712,0 c -3.43579,0 -6.24635,-2.79789 -6.24635,-6.21755 l 0,-35.56423 c 0,-3.41965 2.81056,-6.21822 6.24635,-6.21822 z m 252.75364,32.00425 -1.49465,0 0,-23.39637 1.49465,0 0,23.39637 z m -12.87986,0.30752 c -2.52525,0 -4.36523,-0.94404 -5.52533,-2.82676 l -0.10252,0 0.0411,1.26231 c 0.0412,0.73858 0.0614,1.54968 0.0614,2.43196 l 0,6.21352 -1.49465,0 0,-23.73546 1.26802,0 0.28868,2.33998 0.0877,0 c 1.12841,-1.76522 2.92724,-2.6475 5.40663,-2.6475 2.21094,0 3.90119,0.72315 5.06129,2.17547 1.16483,1.44696 1.7469,3.55529 1.7469,6.32095 0,2.68845 -0.6131,4.77194 -1.83458,6.24911 -1.22688,1.47784 -2.89149,2.21642 -5.00464,2.21642 z m -0.031,-1.29252 c 1.68012,0 2.97917,-0.62108 3.90186,-1.86795 0.92269,-1.24687 1.38133,-2.99127 1.38133,-5.22784 0,-4.81289 -1.74218,-7.21934 -5.22114,-7.21934 -1.91215,0 -3.31911,0.52373 -4.21077,1.5752 -0.89706,1.04678 -1.34559,2.7603 -1.34559,5.13116 l 0,0.48209 c 0,2.56021 0.42829,4.38653 1.28893,5.48501 0.86063,1.09243 2.2622,1.64167 4.20538,1.64167 z m -14.64227,-0.18465 c 0,-0.985 0.40199,-1.47784 1.20597,-1.47784 0.82961,0 1.24171,0.49284 1.24171,1.47784 0,0.98501 -0.4121,1.47717 -1.24171,1.47717 -0.80398,0 -1.20597,-0.49216 -1.20597,-1.47717 z m -5.19551,1.16965 -1.49465,0 0,-16.34691 1.49465,0 0,16.34691 z m -1.70576,-20.88249 c 0,-0.95949 0.3197,-1.43622 0.95371,-1.43622 0.30891,0 0.55105,0.12288 0.73181,0.37467 0.17469,0.25112 0.26237,0.60497 0.26237,1.06155 0,0.45188 -0.0877,0.80573 -0.26237,1.06759 -0.18076,0.26119 -0.4229,0.39011 -0.73181,0.39011 -0.63401,0 -0.95371,-0.48747 -0.95371,-1.4577 z m -13.28184,13.70949 8.3804,-9.17391 1.81435,0 -6.46826,6.97829 7.0247,9.36862 -1.79883,0 -6.23624,-8.25537 -2.69049,2.43734 0,5.81803 -1.49465,0 0,-23.39637 1.49465,0 0,11.72874 -0.1032,4.49463 0.0776,0 z m -6.96333,7.173 -1.49464,0 0,-16.34691 1.49464,0 0,16.34691 z m -1.70575,-20.88249 c 0,-0.95949 0.3197,-1.43622 0.95371,-1.43622 0.30891,0 0.55105,0.12288 0.73181,0.37467 0.17536,0.25112 0.26237,0.60497 0.26237,1.06155 0,0.45188 -0.087,0.80573 -0.26237,1.06759 -0.18076,0.26119 -0.4229,0.39011 -0.73181,0.39011 -0.63401,0 -0.95371,-0.48747 -0.95371,-1.4577 z m -6.57618,20.88249 0,-10.59534 c 0,-1.64167 -0.35073,-2.83684 -1.04679,-3.58617 -0.69066,-0.74395 -1.76781,-1.11862 -3.23143,-1.11862 -1.96341,0 -3.4014,0.49284 -4.30857,1.48322 -0.91257,0.985 -1.37122,2.58572 -1.37122,4.79677 l 0,9.02014 -1.49464,0 0,-16.34691 1.26802,0 0.28868,2.24732 0.0931,0 c 1.06636,-1.70345 2.96299,-2.55484 5.69463,-2.55484 3.7211,0 5.58739,1.99083 5.58739,5.9671 l 0,10.68733 -1.47914,0 z m -15.49818,0 -11.72042,0 0,-0.92323 9.74083,-14.13048 -9.02926,0 0,-1.2932 10.97783,0 0,0.92391 -9.80288,14.12981 9.8339,0 0,1.29319 z m -18.35325,0.30752 c -2.34516,0 -4.18042,-0.73858 -5.50982,-2.21105 -1.33007,-1.47247 -1.98971,-3.52977 -1.98971,-6.16182 0,-2.70926 0.68594,-4.81826 2.0666,-6.32632 1.37661,-1.50873 3.26785,-2.26276 5.65956,-2.26276 1.42247,0 2.7775,0.24642 4.07655,0.73859 l -0.40671,1.32408 c -1.41776,-0.47202 -2.65475,-0.70837 -3.70087,-0.70837 -2.00995,0 -3.53562,0.62108 -4.57162,1.85721 -1.036,1.23679 -1.5567,3.01746 -1.5567,5.34669 0,2.20098 0.5207,3.92994 1.5567,5.17681 1.036,1.24686 2.48411,1.87265 4.34972,1.87265 1.48992,0 2.87125,-0.26656 4.14939,-0.79499 l 0,1.37981 c -1.04679,0.51298 -2.42273,0.76947 -4.12309,0.76947 z m -16.89031,0 c -2.3863,0 -4.24652,-0.73321 -5.58131,-2.19561 -1.33479,-1.4624 -1.99983,-3.51432 -1.99983,-6.15174 0,-2.60654 0.64413,-4.69472 1.93238,-6.25985 1.28893,-1.56983 3.02572,-2.35475 5.21103,-2.35475 1.93238,0 3.45805,0.66675 4.57701,2.00627 1.11829,1.33415 1.67473,3.1504 1.67473,5.44875 l 0,1.19516 -11.82834,0 c 0.0209,2.25806 0.54633,3.98165 1.58233,5.17212 1.03061,1.19046 2.50974,1.78536 4.432,1.78536 0.93821,0 1.7577,-0.0665 2.46927,-0.19472 0.7109,-0.12825 1.60796,-0.41092 2.69522,-0.84132 l 0,1.3543 c -0.92741,0.40018 -1.78332,0.67211 -2.56639,0.8158 -0.78375,0.14839 -1.64978,0.22023 -2.5981,0.22023 z m -0.43773,-15.66875 c -1.58233,0 -2.85035,0.51768 -3.80879,1.55976 -0.95371,1.0414 -1.51555,2.54476 -1.67473,4.5047 l 10.14754,0 c 0,-1.90354 -0.41211,-3.38675 -1.23632,-4.45904 -0.82489,-1.0723 -1.9688,-1.60542 -3.4277,-1.60542 z m -11.15319,-1.2932 c 0.69606,0 1.44339,0.0719 2.23657,0.21017 l -0.28867,1.43151 c -0.68527,-0.16921 -1.39145,-0.25649 -2.12866,-0.25649 -1.39617,0 -2.54548,0.59019 -3.43715,1.77529 -0.89705,1.18039 -1.34558,2.67301 -1.34558,4.47918 l 0,9.01477 -1.49465,0 0,-16.34691 1.26802,0 0.14974,2.95569 0.10791,0 c 0.67516,-1.20591 1.39146,-2.04723 2.15969,-2.53469 0.76283,-0.48747 1.69024,-0.72852 2.77278,-0.72852 z m -18.85304,0 c 1.18506,0 2.21094,0.21554 3.07697,0.6466 0.86536,0.43107 1.63899,1.16965 2.32426,2.21106 l 0.0924,0 c -0.0614,-1.26231 -0.0924,-2.50381 -0.0924,-3.71442 l 0,-5.88518 1.47913,0 0,23.39637 -0.97934,0 -0.38108,-2.48836 -0.11871,0 c -1.24711,1.86258 -3.04123,2.79588 -5.3756,2.79588 -2.26288,0 -3.99426,-0.70232 -5.19012,-2.10362 -1.19585,-1.40533 -1.79883,-3.44785 -1.79883,-6.1363 0,-2.82677 0.59759,-4.9868 1.78332,-6.48008 1.18506,-1.49262 2.91173,-2.24195 5.18,-2.24195 z m 0,1.3543 c -1.79411,0 -3.13903,0.62578 -4.0408,1.88339 -0.89706,1.25694 -1.35031,3.07856 -1.35031,5.46889 0,4.64369 1.80895,6.96285 5.41674,6.96285 1.85549,0 3.21052,-0.53917 4.07655,-1.61146 0.86603,-1.07699 1.29905,-2.84758 1.29905,-5.3205 l 0,-0.25649 c 0,-2.52932 -0.42762,-4.35094 -1.27342,-5.45882 -0.84984,-1.11325 -2.22645,-1.66786 -4.12781,-1.66786 z m -10.5556,7.11124 c 0,2.6683 -0.64952,4.75112 -1.94857,6.24977 -1.29837,1.49799 -3.08709,2.24664 -5.3756,2.24664 -1.43799,0 -2.70533,-0.3431 -3.80338,-1.03603 -1.09806,-0.69293 -1.93778,-1.68263 -2.52053,-2.9812 -0.58747,-1.29252 -0.87615,-2.78581 -0.87615,-4.47918 0,-2.66764 0.64952,-4.74575 1.94857,-6.23367 1.29837,-1.48791 3.07697,-2.23187 5.34457,-2.23187 2.25209,0 4.02529,0.75403 5.30883,2.26276 1.28286,1.50806 1.92226,3.5761 1.92226,6.20278 z m -12.95742,0 c 0,2.24731 0.50047,3.99709 1.48993,5.25402 0.98946,1.25694 2.39103,1.8881 4.20538,1.8881 1.81434,0 3.21591,-0.63116 4.20605,-1.8881 0.98946,-1.25693 1.48925,-3.00671 1.48925,-5.25402 0,-2.25202 -0.50519,-4.00179 -1.50477,-5.24866 -1.00025,-1.2415 -2.40721,-1.86258 -4.22156,-1.86258 -1.80895,0 -3.2058,0.62108 -4.18987,1.85721 -0.97934,1.23679 -1.47441,2.99127 -1.47441,5.25403 z m -12.0037,8.49641 c -2.52525,0 -4.36523,-0.94404 -5.52466,-2.82676 l -0.1032,0 0.0411,1.26231 c 0.0411,0.73858 0.062,1.54968 0.062,2.43196 l 0,6.21352 -1.49465,0 0,-23.73546 1.26802,0 0.28868,2.33998 0.087,0 c 1.12908,-1.76522 2.92791,-2.6475 5.40662,-2.6475 2.21162,0 3.90187,0.72315 5.0613,2.17547 1.16482,1.44696 1.74757,3.55529 1.74757,6.32095 0,2.68845 -0.61377,4.77194 -1.83526,6.24911 -1.2262,1.47784 -2.89081,2.21642 -5.00463,2.21642 z m -0.0303,-1.29252 c 1.68012,0 2.9785,-0.62108 3.90118,-1.86795 0.92269,-1.24687 1.38134,-2.99127 1.38134,-5.22784 0,-4.81289 -1.74218,-7.21934 -5.22115,-7.21934 -1.91214,0 -3.31911,0.52373 -4.21077,1.5752 -0.89638,1.04678 -1.34491,2.7603 -1.34491,5.13116 l 0,0.48209 c 0,2.56021 0.42762,4.38653 1.28825,5.48501 0.86064,1.09243 2.26288,1.64167 4.20606,1.64167 z m -17.32805,1.29252 c -2.3863,0 -4.24652,-0.73321 -5.58199,-2.19561 -1.33479,-1.4624 -1.99915,-3.51432 -1.99915,-6.15174 0,-2.60654 0.64413,-4.69472 1.93238,-6.25985 1.28826,-1.56983 3.02571,-2.35475 5.21103,-2.35475 1.93238,0 3.45805,0.66675 4.57634,2.00627 1.11828,1.33415 1.6754,3.1504 1.6754,5.44875 l 0,1.19516 -11.82834,0 c 0.0202,2.25806 0.54633,3.98165 1.58166,5.17212 1.03128,1.19046 2.51041,1.78536 4.43267,1.78536 0.9382,0 1.7577,-0.0665 2.4686,-0.19472 0.71157,-0.12825 1.60796,-0.41092 2.69589,-0.84132 l 0,1.3543 c -0.92808,0.40018 -1.78332,0.67211 -2.56707,0.8158 -0.78307,0.14839 -1.6491,0.22023 -2.59742,0.22023 z m -0.43773,-15.66875 c -1.58233,0 -2.85035,0.51768 -3.80879,1.55976 -0.95371,1.0414 -1.51555,2.54476 -1.6754,4.5047 l 10.14821,0 c 0,-1.90354 -0.41211,-3.38675 -1.237,-4.45904 -0.82421,-1.0723 -1.9688,-1.60542 -3.42702,-1.60542 z m -40.86535,26.06065 c -5.70137,-7.59601 -9.27611,0 -16.90446,0 l 0,-38.96978 33.80961,0 0,38.96978 c -7.62836,0 -11.2031,-7.59601 -16.90515,0 z m 0,-28.95322 c -2.88474,2.50045 -6.33403,2.91003 -9.31253,2.61124 0,6.16987 -0.66773,11.06938 9.31253,16.32475 9.98027,-5.25537 9.31321,-10.15488 9.31321,-16.32475 -2.9785,0.29879 -6.42778,-0.11079 -9.31321,-2.61124 z"
         id="path3033"
         style="fill:#ffffff;fill-rule:evenodd;stroke:none" />
    </g>
  </g>
</svg>
