<?xml version="1.0" encoding="UTF-8" standalone="no"?>
<!-- Created with Inkscape (http://www.inkscape.org/) -->

<svg
   xmlns:dc="http://purl.org/dc/elements/1.1/"
   xmlns:cc="http://creativecommons.org/ns#"
   xmlns:rdf="http://www.w3.org/1999/02/22-rdf-syntax-ns#"
   xmlns:svg="http://www.w3.org/2000/svg"
   xmlns="http://www.w3.org/2000/svg"
   version="1.1"
   width="96"
   height="48"
   viewBox="0 0 76.800004 38.399998"
   id="svg3008"
   style="fill-rule:evenodd">
  <metadata
     id="metadata3022">
    <rdf:RDF>
      <cc:Work
         rdf:about="">
        <dc:format>image/svg+xml</dc:format>
        <dc:type
           rdf:resource="http://purl.org/dc/dcmitype/StillImage" />
        <dc:title></dc:title>
      </cc:Work>
    </rdf:RDF>
  </metadata>
  <defs
     id="defs3020" />
  <g
     transform="translate(38.400001,3.5e-5)"
     id="g3051">
    <path
       d="m 7.5370003e-7,-3.6706e-5 38.40000124629997,0 0,38.400000706 -38.40000124629997,0 0,-38.400000706 z"
       id="path3014"
       style="fill:none;stroke:none" />
    <path
       d="m 24.735468,18.157297 c 0.3568,-0.1696 0.666667,-0.326933 0.896,-0.472 0.8864,-0.562133 1.536534,-1.365867 2.006934,-2.327467 -1.670934,-0.76 -2.894934,-3.158933 -2.894934,-5.3605331 0,-2.6602667 0.845334,-4.8160001 3.988267,-4.8160001 3.143467,0 3.9888,2.1557334 3.9888,4.8160001 0,2.2016001 -1.224,4.6005331 -2.894933,5.3605331 0.4704,0.9616 1.120533,1.765334 2.006933,2.327467 1.3504,0.857067 5.521067,2.131734 5.521067,3.850667 0,3.646933 0.1088,5.035733 0.1088,5.035733 l -8.446934,0 c -0.896533,-1.361066 -2.834666,-2.250666 -4.434666,-2.984533 -0.567467,-0.2608 -1.075201,-0.493333 -1.374401,-0.6832 -0.228266,-0.145067 -0.432,-0.312 -0.613866,-0.498667 0.48,-0.485866 0.898133,-1.064 1.240533,-1.697066 0.4208,-0.7792 0.732267,-1.655467 0.9024,-2.550934 z M 19.200001,11.82823 c 3.142934,0 3.988267,2.156267 3.988267,4.816534 0,2.2016 -1.224,4.6 -2.894933,5.360533 0.470933,0.9616 1.121066,1.765334 2.006933,2.327467 1.350933,0.856533 5.521067,2.1312 5.521067,3.850667 0,3.646933 0.1088,5.035733 0.1088,5.035733 l -8.730134,0 -8.730133,0 c 0,0 0.1088,-1.3888 0.1088,-5.035733 0,-1.719467 4.170133,-2.994134 5.520533,-3.850667 0.8864,-0.562133 1.536534,-1.365867 2.007467,-2.327467 -1.671467,-0.760533 -2.895467,-3.158933 -2.895467,-5.360533 0,-2.660267 0.845334,-4.816534 3.9888,-4.816534 z m -9.8154666,14.743467 -8.44693362,0 c 0,0 0.10880002,-1.3888 0.10880002,-5.035733 0,-1.718933 4.1701335,-2.9936 5.5205335,-3.850667 0.8864,-0.562133 1.5365334,-1.365867 2.0074667,-2.327467 -1.6709334,-0.76 -2.8949334,-3.158933 -2.8949334,-5.3605331 0,-2.6602667 0.8448,-4.8160001 3.9882668,-4.8160001 3.1434666,0 3.9882666,2.1557334 3.9882666,4.8160001 0,2.2016001 -1.223467,4.6005331 -2.894933,5.3605331 0.470933,0.9616 1.121066,1.765334 2.007466,2.327467 0.2288,0.145067 0.539201,0.3024 0.896001,0.472 0.170133,0.895467 0.4816,1.771734 0.9024,2.550934 0.341866,0.633066 0.760533,1.2112 1.240533,1.697066 -0.181867,0.186667 -0.386133,0.3536 -0.6144,0.498667 -0.298667,0.189867 -0.8064,0.4224 -1.373867,0.6832 -1.6,0.733867 -3.538667,1.623467 -4.4346666,2.984533 z"
       id="path3016"
       style="fill:#ffffff;stroke:none" />
  </g>
  <g
     transform="translate(-59.513506,-23.874569)"
     id="g3047">
    <path
       d="m 59.513506,23.874567 38.400002,0 0,38.400001 -38.400002,0 0,-38.400001 z"
       id="path3043"
       style="fill:none;stroke:none" />
    <path
       d="m 84.248974,42.031901 c 0.3568,-0.1696 0.666667,-0.326933 0.896,-0.472 0.8864,-0.562133 1.536534,-1.365867 2.006934,-2.327467 -1.670934,-0.76 -2.894934,-3.158933 -2.894934,-5.360533 0,-2.660267 0.845334,-4.816 3.988267,-4.816 3.143467,0 3.9888,2.155733 3.9888,4.816 0,2.2016 -1.224,4.600533 -2.894933,5.360533 0.4704,0.9616 1.120533,1.765334 2.006933,2.327467 1.3504,0.857067 5.521067,2.131734 5.521067,3.850667 0,3.646933 0.1088,5.035733 0.1088,5.035733 l -8.446934,0 c -0.896533,-1.361066 -2.834666,-2.250666 -4.434666,-2.984533 -0.567467,-0.2608 -1.075201,-0.493333 -1.374401,-0.6832 -0.228266,-0.145067 -0.432,-0.312 -0.613866,-0.498667 0.48,-0.485866 0.898133,-1.064 1.240533,-1.697066 0.4208,-0.7792 0.732267,-1.655467 0.9024,-2.550934 z m -5.535467,-6.329067 c 3.142934,0 3.988267,2.156267 3.988267,4.816534 0,2.2016 -1.224,4.6 -2.894933,5.360533 0.470933,0.9616 1.121066,1.765334 2.006933,2.327467 1.350933,0.856533 5.521067,2.1312 5.521067,3.850667 0,3.646933 0.1088,5.035733 0.1088,5.035733 l -8.730134,0 -8.730133,0 c 0,0 0.1088,-1.3888 0.1088,-5.035733 0,-1.719467 4.170133,-2.994134 5.520533,-3.850667 0.8864,-0.562133 1.536534,-1.365867 2.007467,-2.327467 -1.671467,-0.760533 -2.895467,-3.158933 -2.895467,-5.360533 0,-2.660267 0.845334,-4.816534 3.9888,-4.816534 z m -9.815467,14.743467 -8.446934,0 c 0,0 0.1088,-1.3888 0.1088,-5.035733 0,-1.718933 4.170134,-2.9936 5.520534,-3.850667 0.8864,-0.562133 1.536533,-1.365867 2.007467,-2.327467 -1.670934,-0.76 -2.894934,-3.158933 -2.894934,-5.360533 0,-2.660267 0.8448,-4.816 3.988267,-4.816 3.143467,0 3.988267,2.155733 3.988267,4.816 0,2.2016 -1.223467,4.600533 -2.894933,5.360533 0.470933,0.9616 1.121066,1.765334 2.007466,2.327467 0.2288,0.145067 0.539201,0.3024 0.896001,0.472 0.170133,0.895467 0.4816,1.771734 0.9024,2.550934 0.341866,0.633066 0.760533,1.2112 1.240533,1.697066 -0.181867,0.186667 -0.386133,0.3536 -0.6144,0.498667 -0.298667,0.189867 -0.8064,0.4224 -1.373867,0.6832 -1.6,0.733867 -3.538667,1.623467 -4.434667,2.984533 z"
       id="path3045"
       style="fill:#808080;stroke:none" />
  </g>
</svg>
