<?xml version="1.0" encoding="UTF-8" standalone="no"?>
<!-- Created with Inkscape (http://www.inkscape.org/) -->

<svg
   xmlns:dc="http://purl.org/dc/elements/1.1/"
   xmlns:cc="http://creativecommons.org/ns#"
   xmlns:rdf="http://www.w3.org/1999/02/22-rdf-syntax-ns#"
   xmlns:svg="http://www.w3.org/2000/svg"
   xmlns="http://www.w3.org/2000/svg"
   version="1.1"
   width="95.999977"
   height="48"
   viewBox="0 0 76.799986 38.399998"
   id="svg3031"
   style="fill-rule:evenodd">
  <metadata
     id="metadata3045">
    <rdf:RDF>
      <cc:Work
         rdf:about="">
        <dc:format>image/svg+xml</dc:format>
        <dc:type
           rdf:resource="http://purl.org/dc/dcmitype/StillImage" />
        <dc:title></dc:title>
      </cc:Work>
    </rdf:RDF>
  </metadata>
  <defs
     id="defs3043" />
  <g
     transform="translate(-86.620436,0.1782322)"
     id="g3087">
    <path
       d="m 125.02043,-0.17823417 -38.399994,0 0,38.40000217 38.399994,0 0,-38.40000217 z"
       id="path3037"
       style="fill:none;stroke:none" />
    <path
       d="m 97.828436,5.9332327 9.594664,0 0.90347,0 0.5888,0.6965334 6.38933,7.5552009 0.46667,0.552 0,0.7104 0,14.704534 0,1.958934 -1.95894,0 -15.983994,0 -1.958933,0 0,-1.958934 0,-22.2597351 0,-1.9589332 1.958933,0 z m 10.574404,3.1168002 0,5.4176011 4.58133,0 -4.58133,-5.4176011 z m 5.40959,7.3765341 -6.38933,0 -0.9792,0 0,-0.9792 0,-7.5552011 -8.615464,0 0,22.2597351 15.983994,0 0,-13.725334 z"
       id="path3039"
       style="fill:#808080;stroke:none" />
  </g>
  <g
     transform="translate(-4.019067,-4.0993203)"
     id="g3091">
    <path
       d="m 80.819055,4.0993183 -38.399994,0 0,38.4000017 38.399994,0 0,-38.4000017 z"
       id="path3083"
       style="fill:none;stroke:none" />
    <path
       d="m 53.627061,10.210785 9.594664,0 0.90347,0 0.5888,0.696534 6.38933,7.5552 0.46667,0.552 0,0.7104 0,14.704534 0,1.958934 -1.95894,0 -15.983994,0 -1.958933,0 0,-1.958934 0,-22.259735 0,-1.958933 1.958933,0 z m 10.574404,3.1168 0,5.417601 4.58133,0 -4.58133,-5.417601 z m 5.40959,7.376534 -6.38933,0 -0.9792,0 0,-0.9792 0,-7.555201 -8.615464,0 0,22.259735 15.983994,0 0,-13.725334 z"
       id="path3085"
       style="fill:#ffffff;stroke:none" />
  </g>
</svg>
