<?xml version="1.0" encoding="UTF-8" standalone="no"?>
<!-- Created with Inkscape (http://www.inkscape.org/) -->

<svg
   xmlns:dc="http://purl.org/dc/elements/1.1/"
   xmlns:cc="http://creativecommons.org/ns#"
   xmlns:rdf="http://www.w3.org/1999/02/22-rdf-syntax-ns#"
   xmlns:svg="http://www.w3.org/2000/svg"
   xmlns="http://www.w3.org/2000/svg"
   version="1.1"
   width="96"
   height="48"
   viewBox="0 0 76.800004 38.399998"
   id="svg3052"
   style="fill-rule:evenodd">
  <metadata
     id="metadata3066">
    <rdf:RDF>
      <cc:Work
         rdf:about="">
        <dc:format>image/svg+xml</dc:format>
        <dc:type
           rdf:resource="http://purl.org/dc/dcmitype/StillImage" />
        <dc:title></dc:title>
      </cc:Work>
    </rdf:RDF>
  </metadata>
  <defs
     id="defs3064" />
  <g
     transform="translate(38.399999,3.276435e-5)"
     id="g3117">
    <path
       d="m 3.3747e-6,-3.476435e-5 38.4000016253,0 0,38.40000076435 -38.4000016253,0 0,-38.40000076435 z"
       id="path3058"
       style="fill:none;stroke:none" />
    <path
       d="m 11.795737,15.041032 c -0.365333,0.648534 -0.648,1.3504 -0.833067,2.090134 l -2.7914664,0 0,4.1376 2.7914664,0 c 0.189867,0.759467 0.482667,1.4784 0.861867,2.141333 l -1.9658667,1.965334 2.9258667,2.925333 1.905067,-1.905067 c 0.744533,0.4672 1.565867,0.8224 2.4416,1.0416 l 0,2.791467 4.1376,0 0,-2.791467 c 0.739733,-0.185066 1.4416,-0.467733 2.090133,-0.833066 l 2.096534,2.096533 2.925333,-2.925333 -2.016533,-2.016 c 0.482667,-0.757334 0.849067,-1.595734 1.073067,-2.490667 l 2.790933,0 0,-4.1376 -2.790933,0 c -0.2192,-0.8752 -0.5744,-1.697067 -1.042134,-2.441067 l 1.9856,-1.9856 -2.925333,-2.9258668 -2.045334,2.0458668 c -0.662933,-0.3792 -1.381866,-0.671467 -2.141333,-0.861867 l 0,-2.7909332 -4.1376,0 0,2.7909332 c -0.894933,0.224 -1.733333,0.5904 -2.490134,1.073067 l -1.856533,-1.856533 -2.9258667,2.925333 1.9370667,1.936533 z m 7.404267,-1.132266 c 1.461333,0 2.784533,0.592533 3.741333,1.549866 0.957334,0.957334 1.549867,2.28 1.549867,3.741334 0,1.461333 -0.592533,2.784533 -1.549867,3.741867 -0.9568,0.9568 -2.28,1.549333 -3.741333,1.549333 -1.461333,0 -2.784533,-0.592533 -3.741867,-1.549333 -0.9568,-0.957334 -1.549333,-2.280534 -1.549333,-3.741867 0,-1.461334 0.592533,-2.784 1.549333,-3.741334 0.957334,-0.957333 2.280534,-1.549866 3.741867,-1.549866 z"
       id="path3060"
       style="fill:#ffffff;stroke:none" />
  </g>
  <g
     transform="translate(-48.199035,-0.24463237)"
     id="g3113">
    <path
       d="m 48.199035,0.24463037 38.400002,0 0,38.40000063 -38.400002,0 0,-38.40000063 z"
       id="path3109"
       style="fill:none;stroke:none" />
    <path
       d="m 59.994769,15.285697 c -0.365333,0.648534 -0.648,1.3504 -0.833067,2.090134 l -2.791467,0 0,4.1376 2.791467,0 c 0.189867,0.759467 0.482667,1.4784 0.861867,2.141333 l -1.965867,1.965334 2.925867,2.925333 1.905067,-1.905067 c 0.744533,0.4672 1.565867,0.8224 2.4416,1.0416 l 0,2.791467 4.1376,0 0,-2.791467 c 0.739733,-0.185066 1.4416,-0.467733 2.090133,-0.833066 l 2.096534,2.096533 2.925333,-2.925333 -2.016533,-2.016 c 0.482667,-0.757334 0.849067,-1.595734 1.073067,-2.490667 l 2.790933,0 0,-4.1376 -2.790933,0 c -0.2192,-0.8752 -0.5744,-1.697067 -1.042134,-2.441067 l 1.9856,-1.9856 -2.925333,-2.925867 -2.045334,2.045867 c -0.662933,-0.3792 -1.381866,-0.671467 -2.141333,-0.861867 l 0,-2.7909331 -4.1376,0 0,2.7909331 c -0.894933,0.224 -1.733333,0.5904 -2.490134,1.073067 l -1.856533,-1.856533 -2.925867,2.925333 1.937067,1.936533 z m 7.404267,-1.132266 c 1.461333,0 2.784533,0.592533 3.741333,1.549866 0.957334,0.957334 1.549867,2.28 1.549867,3.741334 0,1.461333 -0.592533,2.784533 -1.549867,3.741867 -0.9568,0.9568 -2.28,1.549333 -3.741333,1.549333 -1.461333,0 -2.784533,-0.592533 -3.741867,-1.549333 -0.9568,-0.957334 -1.549333,-2.280534 -1.549333,-3.741867 0,-1.461334 0.592533,-2.784 1.549333,-3.741334 0.957334,-0.957333 2.280534,-1.549866 3.741867,-1.549866 z"
       id="path3111"
       style="fill:#000000;stroke:none" />
  </g>
</svg>
