<?xml version="1.0" encoding="UTF-8" standalone="no"?>
<!-- Created with Inkscape (http://www.inkscape.org/) -->

<svg
   xmlns:dc="http://purl.org/dc/elements/1.1/"
   xmlns:cc="http://creativecommons.org/ns#"
   xmlns:rdf="http://www.w3.org/1999/02/22-rdf-syntax-ns#"
   xmlns:svg="http://www.w3.org/2000/svg"
   xmlns="http://www.w3.org/2000/svg"
   version="1.1"
   width="96"
   height="48"
   id="svg3939">
  <defs
     id="defs3941" />
  <metadata
     id="metadata3944">
    <rdf:RDF>
      <cc:Work
         rdf:about="">
        <dc:format>image/svg+xml</dc:format>
        <dc:type
           rdf:resource="http://purl.org/dc/dcmitype/StillImage" />
        <dc:title></dc:title>
      </cc:Work>
    </rdf:RDF>
  </metadata>
  <g
     transform="translate(-330,-529.36218)"
     id="layer1">
    <path
       d="m 378,529.36218 -48,0 0,48 48,0 0,-48 z"
       id="path3012"
       style="fill:none;stroke:none" />
    <path
       d="m 353.99403,537.71216 a 1.5001499,1.5001499 0 0 0 -0.16672,0.0166 1.5001499,1.5001499 0 0 0 -1.33334,1.51667 l 0,17.83333 -4.93333,-4.93333 a 1.5001499,1.5001499 0 0 0 -1.23328,-0.45 1.5001499,1.5001499 0 0 0 -0.88336,2.58333 l 7.3,7.28333 a 1.5001499,1.5001499 0 0 0 0.1,0.11667 l 0.1,0.1 a 1.5001499,1.5001499 0 0 0 0.11669,0.11667 l 0.93334,0.93333 0.86666,-0.86667 a 1.5001499,1.5001499 0 0 0 0.0501,-0.05 1.5001499,1.5001499 0 0 0 0.15002,-0.13333 l 0.0331,-0.0166 a 1.5001499,1.5001499 0 0 0 0.10005,-0.11667 l 7.36662,-7.36667 a 1.5026041,1.5026041 0 0 0 -2.11664,-2.13333 l -4.95003,4.93333 0,-17.83333 a 1.5001499,1.5001499 0 0 0 -1.49995,-1.53333 z m -14.53334,28.55 a 1.5001499,1.5001499 0 0 0 -0.0165,0.0166 1.5023131,1.5023131 0 1 0 0.16667,3 l 28.78336,0 a 1.5001499,1.5001499 0 1 0 0,-3 l -28.78336,0 a 1.5001499,1.5001499 0 0 0 -0.14998,-0.0166 z"
       id="path3014"
       style="font-size:medium;font-style:normal;font-variant:normal;font-weight:normal;font-stretch:normal;text-indent:0;text-align:start;text-decoration:none;line-height:normal;letter-spacing:normal;word-spacing:normal;text-transform:none;direction:ltr;block-progression:tb;writing-mode:lr-tb;text-anchor:start;baseline-shift:baseline;color:#000000;fill:#808080;fill-opacity:1;stroke:none;stroke-width:4.5;marker:none;visibility:visible;display:inline;overflow:visible;enable-background:accumulate;font-family:Sans;-inkscape-font-specification:Sans" />
    <path
       d="m 426,529.36218 -48,0 0,48 48,0 0,-48 z"
       id="path3956"
       style="fill:none;stroke:none" />
    <path
       d="m 401.99403,537.71216 a 1.5001499,1.5001499 0 0 0 -0.16672,0.0166 1.5001499,1.5001499 0 0 0 -1.33334,1.51667 l 0,17.83333 -4.93333,-4.93333 a 1.5001499,1.5001499 0 0 0 -1.23328,-0.45 1.5001499,1.5001499 0 0 0 -0.88336,2.58333 l 7.3,7.28333 a 1.5001499,1.5001499 0 0 0 0.1,0.11667 l 0.1,0.1 a 1.5001499,1.5001499 0 0 0 0.11669,0.11667 l 0.93334,0.93333 0.86666,-0.86667 a 1.5001499,1.5001499 0 0 0 0.0501,-0.05 1.5001499,1.5001499 0 0 0 0.15002,-0.13333 l 0.0331,-0.0166 a 1.5001499,1.5001499 0 0 0 0.10005,-0.11667 l 7.36662,-7.36667 a 1.5026041,1.5026041 0 0 0 -2.11664,-2.13333 l -4.95003,4.93333 0,-17.83333 a 1.5001499,1.5001499 0 0 0 -1.49995,-1.53333 z m -14.53334,28.55 a 1.5001499,1.5001499 0 0 0 -0.0165,0.0166 1.5023131,1.5023131 0 1 0 0.16667,3 l 28.78336,0 a 1.5001499,1.5001499 0 1 0 0,-3 l -28.78336,0 a 1.5001499,1.5001499 0 0 0 -0.14998,-0.0166 z"
       id="path3958"
       style="font-size:medium;font-style:normal;font-variant:normal;font-weight:normal;font-stretch:normal;text-indent:0;text-align:start;text-decoration:none;line-height:normal;letter-spacing:normal;word-spacing:normal;text-transform:none;direction:ltr;block-progression:tb;writing-mode:lr-tb;text-anchor:start;baseline-shift:baseline;color:#000000;fill:#ffffff;fill-opacity:1;stroke:none;stroke-width:4.5;marker:none;visibility:visible;display:inline;overflow:visible;enable-background:accumulate;font-family:Sans;-inkscape-font-specification:Sans" />
  </g>
</svg>
