<?xml version="1.0" encoding="UTF-8" standalone="no"?>
<!-- Created with Inkscape (http://www.inkscape.org/) -->

<svg
   xmlns:dc="http://purl.org/dc/elements/1.1/"
   xmlns:cc="http://creativecommons.org/ns#"
   xmlns:rdf="http://www.w3.org/1999/02/22-rdf-syntax-ns#"
   xmlns:svg="http://www.w3.org/2000/svg"
   xmlns="http://www.w3.org/2000/svg"
   version="1.1"
   width="96"
   height="48"
   viewBox="0 0 76.800004 38.399998"
   id="svg3098"
   style="fill-rule:evenodd">
  <metadata
     id="metadata3112">
    <rdf:RDF>
      <cc:Work
         rdf:about="">
        <dc:format>image/svg+xml</dc:format>
        <dc:type
           rdf:resource="http://purl.org/dc/dcmitype/StillImage" />
        <dc:title></dc:title>
      </cc:Work>
    </rdf:RDF>
  </metadata>
  <defs
     id="defs3110" />
  <g
     transform="translate(38.399999,3.276435e-5)"
     id="g3169">
    <path
       d="m 2.0463e-6,-3.476435e-5 38.4000009537,0 0,38.40000076435 -38.4000009537,0 0,-38.40000076435 z"
       id="path3104"
       style="fill:none;stroke:none" />
    <path
       d="m 19.200003,7.8298321 c 3.341333,0 4.24,2.2922669 4.24,5.1199999 0,2.3408 -1.3008,4.890667 -3.077334,5.6992 0.500267,1.021867 1.191467,1.876267 2.133334,2.474134 1.435733,0.9104 5.869333,2.2656 5.869333,4.093333 0,3.877334 0.115734,5.353601 0.115734,5.353601 l -9.281067,0 -9.2810673,0 c 0,0 0.1157333,-1.476267 0.1157333,-5.353601 0,-1.827733 4.4336,-3.182933 5.869334,-4.093333 0.941866,-0.597867 1.633066,-1.452267 2.133333,-2.474134 -1.776533,-0.808533 -3.077333,-3.3584 -3.077333,-5.6992 0,-2.827733 0.898666,-5.1199999 4.24,-5.1199999 z"
       id="path3106"
       style="fill:#ffffff;stroke:none" />
  </g>
  <g
     transform="translate(-46.486378,0.48936304)"
     id="g3165">
    <path
       d="m 46.486378,-0.48936504 38.400001,0 0,38.40000104 -38.400001,0 0,-38.40000104 z"
       id="path3161"
       style="fill:none;stroke:none" />
    <path
       d="m 65.686379,7.3405018 c 3.341333,0 4.24,2.2922669 4.24,5.1200002 0,2.3408 -1.3008,4.890667 -3.077334,5.6992 0.500267,1.021867 1.191467,1.876267 2.133334,2.474134 1.435733,0.9104 5.869333,2.2656 5.869333,4.093333 0,3.877334 0.115734,5.353601 0.115734,5.353601 l -9.281067,0 -9.281067,0 c 0,0 0.115733,-1.476267 0.115733,-5.353601 0,-1.827733 4.4336,-3.182933 5.869334,-4.093333 0.941866,-0.597867 1.633066,-1.452267 2.133333,-2.474134 -1.776533,-0.808533 -3.077333,-3.3584 -3.077333,-5.6992 0,-2.8277333 0.898666,-5.1200002 4.24,-5.1200002 z"
       id="path3163"
       style="fill:#000000;stroke:none" />
  </g>
</svg>
