<?xml version="1.0" encoding="UTF-8" standalone="no"?>
<!-- Created with Inkscape (http://www.inkscape.org/) -->

<svg
   xmlns:dc="http://purl.org/dc/elements/1.1/"
   xmlns:cc="http://creativecommons.org/ns#"
   xmlns:rdf="http://www.w3.org/1999/02/22-rdf-syntax-ns#"
   xmlns:svg="http://www.w3.org/2000/svg"
   xmlns="http://www.w3.org/2000/svg"
   version="1.1"
   width="96"
   height="48"
   viewBox="0 0 76.800004 38.399998"
   id="svg3119"
   style="fill-rule:evenodd">
  <metadata
     id="metadata3133">
    <rdf:RDF>
      <cc:Work
         rdf:about="">
        <dc:format>image/svg+xml</dc:format>
        <dc:type
           rdf:resource="http://purl.org/dc/dcmitype/StillImage" />
        <dc:title></dc:title>
      </cc:Work>
    </rdf:RDF>
  </metadata>
  <defs
     id="defs3131" />
  <g
     transform="translate(38.400003,3.276435e-5)"
     id="g3195">
    <path
       d="m -6.1049995e-7,-3.476435e-5 38.40000161049996,0 0,38.40000076435 -38.40000161049996,0 0,-38.40000076435 z"
       id="path3125"
       style="fill:none;stroke:none" />
    <path
       d="m 10.925866,10.925832 -5.33e-4,5.34e-4 c -1.1109333,1.110933 -1.6666667,2.567466 -1.6666667,4.024 0,1.456533 0.5557334,2.913066 1.6666667,4.024 l 5.33e-4,5.33e-4 c 1.110934,1.110934 2.567467,1.666667 4.024001,1.666667 1.457066,0 2.9136,-0.555733 4.024533,-1.666667 1.111467,-1.110933 1.6672,-2.568 1.6672,-4.024533 0,-1.456534 -0.555733,-2.9136 -1.6672,-4.024534 l 0,0 c -1.110933,-1.1109331 -2.568,-1.6666665 -4.024533,-1.6666665 -1.456001,0 -2.913067,0.5557334 -4.024001,1.6666665 l 0,0 z m 10.531201,8.834667 1.607466,1.606934 0.613867,-0.6144 7.8624,7.862933 -2.925333,2.925334 -7.8624,-7.862401 0.6144,-0.6144 -1.606934,-1.606933 c -1.424533,1.056 -3.117866,1.584 -4.810666,1.584 -2.070401,0 -4.141334,-0.789867 -5.7210673,-2.370133 l -5.334e-4,0 c -1.5797333,-1.579734 -2.3696,-3.650667 -2.3696,-5.721067 0,-2.0704 0.7898667,-4.141334 2.3696,-5.7210671 l 5.334e-4,0 5.333e-4,-5.334e-4 c 1.579733,-1.5797334 3.650667,-2.3696 5.720534,-2.3696 2.0704,0 4.141333,0.7898666 5.721066,2.3696 l 5.34e-4,5.334e-4 C 22.2512,10.809032 23.0416,12.879966 23.0416,14.950366 c 0,1.6928 -0.528533,3.3856 -1.584533,4.810133 z"
       id="path3127"
       style="fill:#ffffff;stroke:none" />
  </g>
  <g
     transform="translate(-45.997045,-0.73396264)"
     id="g3191">
    <path
       d="m 45.997045,0.73396064 38.400002,0 0,38.40000036 -38.400002,0 0,-38.40000036 z"
       id="path3187"
       style="fill:none;stroke:none" />
    <path
       d="m 56.922912,11.659827 -5.33e-4,5.34e-4 c -1.110934,1.110933 -1.666667,2.567466 -1.666667,4.024 0,1.456533 0.555733,2.913066 1.666667,4.024 l 5.33e-4,5.33e-4 c 1.110934,1.110934 2.567467,1.666667 4.024001,1.666667 1.457066,0 2.9136,-0.555733 4.024533,-1.666667 1.111467,-1.110933 1.6672,-2.568 1.6672,-4.024533 0,-1.456534 -0.555733,-2.9136 -1.6672,-4.024534 l 0,0 c -1.110933,-1.110933 -2.568,-1.6666661 -4.024533,-1.6666661 -1.456001,0 -2.913067,0.5557331 -4.024001,1.6666661 l 0,0 z m 10.531201,8.834667 1.607466,1.606934 0.613867,-0.6144 7.8624,7.862933 -2.925333,2.925334 -7.8624,-7.862401 0.6144,-0.6144 -1.606934,-1.606933 c -1.424533,1.056 -3.117866,1.584 -4.810666,1.584 -2.070401,0 -4.141334,-0.789867 -5.721068,-2.370133 l -5.33e-4,0 c -1.579733,-1.579734 -2.3696,-3.650667 -2.3696,-5.721067 0,-2.0704 0.789867,-4.141334 2.3696,-5.7210667 l 5.33e-4,0 5.34e-4,-5.334e-4 c 1.579733,-1.5797334 3.650667,-2.3696 5.720534,-2.3696 2.0704,0 4.141333,0.7898666 5.721066,2.3696 l 5.34e-4,5.334e-4 c 1.579733,1.5797327 2.370133,3.6506667 2.370133,5.7210667 0,1.6928 -0.528533,3.3856 -1.584533,4.810133 z"
       id="path3189"
       style="fill:#000000;stroke:none" />
  </g>
</svg>
