<?xml version="1.0" encoding="UTF-8" standalone="no"?>
<!-- Created with Inkscape (http://www.inkscape.org/) -->

<svg
   xmlns:dc="http://purl.org/dc/elements/1.1/"
   xmlns:cc="http://creativecommons.org/ns#"
   xmlns:rdf="http://www.w3.org/1999/02/22-rdf-syntax-ns#"
   xmlns:svg="http://www.w3.org/2000/svg"
   xmlns="http://www.w3.org/2000/svg"
   version="1.1"
   width="100"
   height="100"
   viewBox="0 0 100 100"
   id="Layer_1"
   xml:space="preserve"><metadata
   id="metadata9"><rdf:RDF><cc:Work
       rdf:about=""><dc:format>image/svg+xml</dc:format><dc:type
         rdf:resource="http://purl.org/dc/dcmitype/StillImage" /><dc:title></dc:title></cc:Work></rdf:RDF></metadata><defs
   id="defs7" />
<g
     transform="matrix(0.82813208,0,0,0.82813208,-39.437851,-10.453642)"
     id="g3"><path fill="#75348a"
       d="m 97.571,41.714 h 20.859 c 1.411,0 2.633,-0.516 3.666,-1.548 1.031,-1.031 1.547,-2.254 1.547,-3.666 V 20.857 c 0,-1.412 -0.516,-2.634 -1.549,-3.667 -1.031,-1.031 -2.254,-1.548 -3.666,-1.548 H 97.571 c -1.412,0 -2.634,0.517 -3.666,1.548 -1.032,1.032 -1.548,2.255 -1.548,3.667 V 36.5 c 0,1.412 0.516,2.635 1.548,3.666 1.032,1.032 2.254,1.548 3.666,1.548 z"
       id="path5" /><path fill="#75348a"
       d="m 132.523,111.048 c -1.031,-1.032 -2.254,-1.548 -3.666,-1.548 h -5.215 V 62.571 c 0,-1.412 -0.516,-2.634 -1.547,-3.666 -1.033,-1.032 -2.255,-1.548 -3.666,-1.548 H 87.143 c -1.412,0 -2.634,0.516 -3.666,1.548 -1.032,1.032 -1.548,2.254 -1.548,3.666 V 73 c 0,1.412 0.516,2.635 1.548,3.666 1.032,1.032 2.254,1.548 3.666,1.548 h 5.215 V 109.5 h -5.215 c -1.412,0 -2.634,0.516 -3.666,1.548 -1.032,1.032 -1.548,2.254 -1.548,3.666 v 10.429 c 0,1.412 0.516,2.635 1.548,3.668 1.032,1.03 2.254,1.547 3.666,1.547 h 41.714 c 1.412,0 2.634,-0.517 3.666,-1.547 1.031,-1.033 1.547,-2.256 1.547,-3.668 v -10.429 c 0,-1.412 -0.513,-2.634 -1.547,-3.666 z"
       id="path7" />
</g>
</svg>