<?xml version="1.0" encoding="UTF-8" standalone="no"?>
<!-- Created with Inkscape (http://www.inkscape.org/) -->

<svg
   xmlns:dc="http://purl.org/dc/elements/1.1/"
   xmlns:cc="http://creativecommons.org/ns#"
   xmlns:rdf="http://www.w3.org/1999/02/22-rdf-syntax-ns#"
   xmlns:svg="http://www.w3.org/2000/svg"
   xmlns="http://www.w3.org/2000/svg"
   version="1.1"
   width="100"
   height="100"
   viewBox="0 0 100 100"
   id="Capa_1"
   xml:space="preserve"><metadata
   id="metadata9"><rdf:RDF><cc:Work
       rdf:about=""><dc:format>image/svg+xml</dc:format><dc:type
         rdf:resource="http://purl.org/dc/dcmitype/StillImage" /><dc:title></dc:title></cc:Work></rdf:RDF></metadata><defs
   id="defs7" />

<path fill="#75348a"    d="m 96.027517,26.154615 c -0.797517,-1.06499 -1.919926,-1.882117 -3.367224,-2.45277 0.07703,1.331764 -0.01761,2.41566 -0.284268,3.25309 L 75.26263,83.259456 c -0.305296,0.988671 -0.971165,1.777785 -1.996946,2.367347 -1.027181,0.589564 -2.091472,0.884345 -3.194278,0.884345 H 17.417688 c -4.563848,0 -7.301597,-1.329665 -8.2146483,-3.993195 -0.3802166,-1.027179 -0.3613029,-1.844306 0.057431,-2.452775 0.4180008,-0.571352 1.1406153,-0.85633 2.1677963,-0.85633 h 49.573577 c 3.536666,0 5.980334,-0.656781 7.330304,-1.968941 1.351373,-1.312158 2.710445,-4.231259 4.07932,-8.7566 L 88.041846,16.798653 c 0.836032,-2.814068 0.494338,-5.286449 -1.02718,-7.4157297 -1.521518,-2.129283 -3.68931,-3.1942765 -6.50338,-3.1942765 H 37.099378 c -0.494335,0 -1.464101,0.1708219 -2.909294,0.5132415 l 0.0567,-0.1715542 C 33.181793,6.3027655 32.278549,6.1984377 31.537046,6.2166619 c -0.741507,0.019396 -1.426294,0.2380601 -2.053667,0.6567784 -0.627368,0.418735 -1.131507,0.864736 -1.511711,1.340167 -0.380216,0.47543 -0.751306,1.083897 -1.112603,1.8253977 -0.360612,0.742207 -0.665184,1.426993 -0.912352,2.054367 -0.247172,0.627368 -0.532847,1.293249 -0.855635,1.997647 -0.323477,0.70369 -0.636473,1.283452 -0.941055,1.739276 -0.228261,0.304562 -0.551053,0.70369 -0.969766,1.198025 -0.418002,0.494336 -0.760407,0.931956 -1.026481,1.31216 -0.266087,0.380216 -0.437623,0.722596 -0.513243,1.02718 -0.0756,0.341697 -0.038,0.845834 0.114138,1.511715 0.151961,0.665184 0.209347,1.149714 0.170822,1.454298 -0.15196,1.445199 -0.674985,3.279699 -1.56843,5.50491 -0.893441,2.225207 -1.702165,3.832148 -2.424762,4.820819 -0.151957,0.189743 -0.569954,0.61757 -1.254741,1.283452 -0.684792,0.665182 -1.102805,1.244942 -1.254745,1.739276 -0.151957,0.189743 -0.161759,0.722596 -0.0285,1.597139 0.133043,0.875237 0.181363,1.483003 0.142846,1.825397 -0.152647,1.293255 -0.627372,3.004524 -1.426289,5.134505 -0.798921,2.129287 -1.597139,3.879065 -2.396056,5.24794 -0.11413,0.228259 -0.436919,0.665182 -0.969766,1.312159 -0.532148,0.646976 -0.8556364,1.179125 -0.969766,1.597139 -0.075612,0.303871 -0.065809,0.836726 0.0285,1.597134 0.094525,0.760412 0.085413,1.330364 -0.0285,1.710568 C 9.471413,57.14861 8.9007425,58.889285 8.0640155,60.924043 7.2272843,62.9581 6.3716522,64.699474 5.4964114,66.143271 5.2688428,66.524177 4.9544656,66.971597 4.5553526,67.484136 4.1562656,67.99738 3.8425578,68.4441 3.6142983,68.824303 c -0.2282595,0.380909 -0.3802166,0.780018 -0.4565277,1.198032 -0.038,0.228259 0.019435,0.599365 0.1715621,1.113301 0.1519565,0.512545 0.2093458,0.921455 0.1708278,1.226737 -0.038431,0.532149 -0.1141306,1.23654 -0.2282595,2.111086 -0.1141306,0.874537 -0.1715621,1.387076 -0.1715621,1.53902 -0.8367315,2.282625 -0.7989171,4.697587 0.1141306,7.246285 1.0649951,2.96531 2.9569106,5.467096 5.6757552,7.501854 2.7195443,2.034057 5.5427203,3.050735 8.4716193,3.050735 h 52.654417 c 2.470976,0 4.800514,-0.827628 6.987211,-2.480779 2.1867,-1.654552 3.641697,-3.698412 4.363594,-6.133682 L 97.053998,33.51363 c 0.837427,-2.738448 0.495738,-5.191224 -1.026481,-7.359015 z m -60.696822,0.114138 1.19803,-3.651501 c 0.15196,-0.494337 0.465627,-0.922153 0.941054,-1.283452 0.475434,-0.360612 0.960664,-0.54195 1.455,-0.54195 h 34.684697 c 0.532148,0 0.912352,0.180678 1.140615,0.54195 0.22826,0.361303 0.266778,0.789115 0.114812,1.283452 l -1.19873,3.651501 c -0.152653,0.494333 -0.465627,0.921449 -0.941759,1.283453 -0.476128,0.360612 -0.959959,0.541244 -1.454296,0.541244 H 36.586131 c -0.532848,0 -0.913052,-0.179946 -1.141315,-0.541244 -0.228259,-0.361994 -0.266087,-0.78912 -0.114138,-1.283453 z m -4.734697,14.603897 1.198025,-3.650797 c 0.151961,-0.494337 0.465631,-0.922153 0.94106,-1.283452 0.475432,-0.361303 0.959964,-0.54195 1.455001,-0.54195 h 34.683997 c 0.532847,0 0.913051,0.179946 1.141311,0.54195 0.227568,0.361303 0.266087,0.789115 0.113446,1.283452 l -1.19803,3.650797 c -0.15196,0.494336 -0.465626,0.922153 -0.941058,1.283452 -0.476128,0.361303 -0.959961,0.541949 -1.454998,0.541949 H 31.850744 c -0.532148,0 -0.912352,-0.179945 -1.140616,-0.541949 -0.228259,-0.361303 -0.266087,-0.789116 -0.114138,-1.283452 z"
   id="path3"
    />
</svg>