<?xml version="1.0" encoding="UTF-8" standalone="no"?>
<!-- Created with Inkscape (http://www.inkscape.org/) -->

<svg
   xmlns:dc="http://purl.org/dc/elements/1.1/"
   xmlns:cc="http://creativecommons.org/ns#"
   xmlns:rdf="http://www.w3.org/1999/02/22-rdf-syntax-ns#"
   xmlns:svg="http://www.w3.org/2000/svg"
   xmlns="http://www.w3.org/2000/svg"
   version="1.1"
   width="100"
   height="100"
   viewBox="0 0 100 100"
   id="Capa_1"
   xml:space="preserve"><metadata
   id="metadata9"><rdf:RDF><cc:Work
       rdf:about=""><dc:format>image/svg+xml</dc:format><dc:type
         rdf:resource="http://purl.org/dc/dcmitype/StillImage" /><dc:title></dc:title></cc:Work></rdf:RDF></metadata><defs
   id="defs7" />
<path fill="#75348a"    d="m 97.5,39.808639 c 0,-1.408507 -1.06514,-2.283744 -3.19822,-2.626411 L 65.6432,33.014867 52.797745,7.0380581 C 52.075272,5.4774875 51.141872,4.6975526 50.00035,4.6975526 c -1.141522,0 -2.07422,0.7799349 -2.797394,2.3405055 L 34.356804,33.014867 5.696822,37.182228 C 3.565841,37.524895 2.5,38.400132 2.5,39.808639 c 0,0.799556 0.475809,1.713335 1.427428,2.740634 l 20.781447,20.210336 -4.909456,28.545759 c -0.07638,0.533271 -0.114222,0.914479 -0.114222,1.142223 0,0.799556 0.199714,1.474378 0.599142,2.02727 0.399427,0.552191 0.998569,0.827586 1.798125,0.827586 0.685333,0 1.446348,-0.227043 2.283744,-0.684633 L 49.99965,81.143089 75.63519,94.617814 c 0.80026,0.456889 1.56127,0.684633 2.28305,0.684633 0.76311,0 1.34263,-0.274694 1.74206,-0.827586 0.39873,-0.552191 0.59844,-1.227714 0.59844,-2.02727 0,-0.49473 -0.0189,-0.875237 -0.0575,-1.142223 L 75.29108,62.759609 96.01507,42.549273 c 0.99086,-0.989459 1.48489,-1.903237 1.48489,-2.740634 z"
   id="path3"  />
</svg>