<?xml version="1.0" encoding="UTF-8" standalone="no"?>
<!-- Created with Inkscape (http://www.inkscape.org/) -->

<svg
   xmlns:dc="http://purl.org/dc/elements/1.1/"
   xmlns:cc="http://creativecommons.org/ns#"
   xmlns:rdf="http://www.w3.org/1999/02/22-rdf-syntax-ns#"
   xmlns:svg="http://www.w3.org/2000/svg"
   xmlns="http://www.w3.org/2000/svg"
   version="1.1"
   width="189.09189"
   height="32"
   viewBox="0 0 151.27352 25.599999"
   id="svg2985"
   style="fill-rule:evenodd">
  <metadata
     id="metadata2999">
    <rdf:RDF>
      <cc:Work
         rdf:about="">
        <dc:format>image/svg+xml</dc:format>
        <dc:type
           rdf:resource="http://purl.org/dc/dcmitype/StillImage" />
        <dc:title></dc:title>
      </cc:Work>
    </rdf:RDF>
  </metadata>
  <defs
     id="defs2997" />
  <path
     d="m 3.368326,-3.688749e-5 15.157868,0 c 2.020913,0 3.368324,1.34741158749 3.368324,3.36832398749 l 0,18.8633529 c 0,1.684162 -1.347411,3.368324 -3.368324,3.368324 l -15.157868,0 C 1.3474136,25.599964 2.00159e-6,23.915802 2.00159e-6,22.23164 l 0,-18.8633529 C 2.00159e-6,1.3473747 1.3474136,-3.688749e-5 3.368326,-3.688749e-5 z M 133.44872,5.3768944 l 1.63699,0 c 0.73872,0 1.27932,0.1255123 1.62633,0.3761267 0.34577,0.249384 0.51845,0.628382 0.51845,1.1341228 0,0.3470046 -0.10582,0.6341243 -0.31624,0.86382 -0.21206,0.2301059 -0.5201,0.3777675 -0.92534,0.4433949 l 0,0.02502 c 0.47661,0.07096 0.82608,0.2214923 1.05044,0.4515982 0.22437,0.2296958 0.33716,0.5504495 0.33716,0.9614408 0,0.5488092 -0.18211,0.9725162 -0.54757,1.2694792 -0.36342,0.296554 -0.88064,0.444215 -1.55086,0.444215 l -1.82936,0 0,-5.969218 z m 0.41673,2.658318 1.31542,0 c 0.55988,0 0.96841,-0.093109 1.2219,-0.2797366 0.25512,-0.1866278 0.38187,-0.4782593 0.38187,-0.8753048 0,-0.398276 -0.14356,-0.6870364 -0.43068,-0.8666913 -0.28712,-0.1796549 -0.71493,-0.2690722 -1.28343,-0.2690722 l -1.20508,0 0,2.2908049 z m 0,0.3679234 0,2.5750532 1.40443,0 c 1.105,0 1.65832,-0.448727 1.65832,-1.3457708 0,-0.8195216 -0.58286,-1.2292824 -1.74733,-1.2292824 l -1.31542,0 z m 8.09021,2.9429762 -3.26373,0 0,-5.9692176 3.26373,0 0,0.3843302 -2.84699,0 0,2.257581 2.68662,0 0,0.3843302 -2.68662,0 0,2.5586462 2.84699,0 0,0.38433 z m 2.90524,0 -0.42083,0 0,-5.5762739 -1.9397,0 0,-0.3929437 4.30023,0 0,0.3929437 -1.9397,0 0,5.5762739 z m 5.11525,-2.1152512 -2.42452,0 -0.83347,2.1152512 -0.46103,0 2.3995,-5.9946482 0.2662,0 2.35069,5.9946482 -0.46965,0 -0.82772,-2.1152512 z m -2.27399,-0.3675132 2.13453,0 -0.81214,-2.1517569 c -0.0685,-0.1685803 -0.1493,-0.4023777 -0.24528,-0.7022127 -0.0738,0.2604586 -0.15341,0.4975374 -0.24118,0.7104161 l -0.83593,2.1435535 z M 32.756666,16.821895 c -1.149709,0 -2.045933,-0.354798 -2.689081,-1.062343 -0.643148,-0.707545 -0.963492,-1.700979 -0.963492,-2.977021 0,-1.261276 0.3105,-2.271527 0.931499,-3.0287022 0.620588,-0.7600468 1.457337,-1.1398651 2.509836,-1.1398651 0.931088,0 1.666114,0.3228045 2.204669,0.9708746 0.538554,0.6456087 0.806806,1.5241957 0.806806,2.6365787 l 0,0.578752 -5.697685,0 c 0.0098,1.092285 0.26292,1.926573 0.762098,2.502453 0.496307,0.57588 1.209184,0.86382 2.13535,0.86382 0.451598,0 0.846183,-0.03199 1.189085,-0.09434 0.342493,-0.06194 0.774403,-0.198522 1.298602,-0.406889 l 0,0.655453 c -0.447087,0.193601 -0.859308,0.325266 -1.236666,0.394584 -0.377357,0.07219 -0.794501,0.106645 -1.251021,0.106645 z M 32.545428,9.2394744 c -0.762098,0 -1.372842,0.2510246 -1.834695,0.7551247 -0.459391,0.5040999 -0.730104,1.2313329 -0.806806,2.1796489 l 4.888417,0 c 0,-0.921244 -0.198522,-1.638633 -0.595978,-2.1575 C 33.79932,9.4978821 33.248051,9.2394744 32.545428,9.2394744 z m 8.572983,7.5824206 c -1.216567,0 -2.102946,-0.45652 -2.661599,-1.36792 l -0.04963,0 0.01969,0.610744 c 0.0201,0.357669 0.02994,0.749793 0.02994,1.176781 l 0,3.006963 -0.71985,0 0,-11.4856073 0.610744,0 0.139048,1.1320719 0.04225,0 c 0.543476,-0.853976 1.410168,-1.2809639 2.604175,-1.2809639 1.065214,0 1.879404,0.350286 2.438057,1.0529088 0.561114,0.7001615 0.84167,1.7202575 0.84167,3.0586445 0,1.301063 -0.295323,2.308853 -0.883918,3.023781 -0.590646,0.715338 -1.39253,1.072597 -2.410575,1.072597 z m -0.01477,-0.625511 c 0.809267,0 1.434778,-0.300245 1.879403,-0.903606 0.444216,-0.603362 0.665298,-1.447494 0.665298,-2.529935 0,-2.328951 -0.83921,-3.4934261 -2.515169,-3.4934261 -0.920833,0 -1.598846,0.2534856 -2.028295,0.7620981 -0.43191,0.506561 -0.64807,1.335926 -0.64807,2.483175 l 0,0.232977 c 0,1.239126 0.205906,2.123045 0.620588,2.654216 0.414683,0.52871 1.089825,0.794501 2.026245,0.794501 z m 12.038518,-3.485633 c 0,1.290808 -0.31255,2.299009 -0.938061,3.023781 -0.625921,0.725182 -1.48728,1.087363 -2.589819,1.087363 -0.692369,0 -1.303524,-0.166119 -1.832234,-0.501229 -0.528711,-0.33511 -0.933549,-0.8146 -1.214106,-1.442571 -0.283018,-0.625921 -0.422066,-1.348232 -0.422066,-2.167344 0,-1.291218 0.31296,-2.296547 0.938471,-3.0168072 0.625921,-0.71985 1.482358,-1.0799801 2.574643,-1.0799801 1.084902,0 1.939289,0.3650521 2.557416,1.0947463 0.618128,0.730104 0.925756,1.730921 0.925756,3.002041 z m -6.241572,0 c 0,1.087364 0.241181,1.933956 0.7178,2.54224 0.476618,0.608284 1.15176,0.913451 2.025834,0.913451 0.874074,0 1.549216,-0.305167 2.025834,-0.913451 0.476619,-0.608284 0.7178,-1.454876 0.7178,-2.54224 0,-1.090234 -0.243642,-1.936827 -0.725183,-2.540189 -0.48154,-0.6004898 -1.159553,-0.9011451 -2.033217,-0.9011451 -0.871613,0 -1.544294,0.3006553 -2.018451,0.8986841 -0.472107,0.59844 -0.710417,1.447494 -0.710417,2.54265 z M 58.227053,8.6139637 c 0.571368,0 1.065214,0.1041834 1.482357,0.3129604 0.417144,0.2083669 0.78958,0.5660359 1.119767,1.0701361 l 0.04471,0 c -0.02994,-0.6107446 -0.04471,-1.2116451 -0.04471,-1.7977794 l 0,-2.8474069 0.712467,0 0,11.3211291 -0.471696,0 -0.183757,-1.204262 -0.05701,0 c -0.6009,0.901556 -1.465131,1.353154 -2.589819,1.353154 -1.089825,0 -1.924112,-0.340032 -2.499992,-1.017634 -0.57588,-0.680474 -0.866281,-1.668576 -0.866281,-2.969638 0,-1.36792 0.28794,-2.413036 0.858898,-3.1357571 0.570958,-0.7223111 1.402784,-1.0849022 2.49507,-1.0849022 z m 0,0.6554532 c -0.863821,0 -1.511891,0.3031163 -1.946262,0.9114001 -0.43232,0.608283 -0.650531,1.489331 -0.650531,2.646423 0,2.246916 0.871203,3.369144 2.609098,3.369144 0.893762,0 1.546754,-0.260869 1.963898,-0.779735 0.417144,-0.521327 0.625921,-1.377764 0.625921,-2.574233 l 0,-0.124282 c 0,-1.22395 -0.206316,-2.105407 -0.613205,-2.641911 C 59.806211,9.5376687 59.143375,9.2694169 58.227053,9.2694169 z m 9.082005,-0.6554532 c 0.33511,0 0.69524,0.034865 1.077519,0.1017224 L 68.247529,9.4084648 C 67.917342,9.3264306 67.57731,9.2845932 67.222102,9.2845932 c -0.67268,0 -1.226411,0.285479 -1.65586,0.8588978 -0.43191,0.570958 -0.64807,1.293269 -0.64807,2.167344 l 0,4.362168 -0.71985,0 0,-7.9101473 0.610744,0 0.07178,1.4302663 0.05209,0 c 0.325265,-0.5832632 0.670629,-0.990563 1.040604,-1.2264113 0.367513,-0.2358483 0.814189,-0.352747 1.335516,-0.352747 z m 5.584068,8.2079313 c -1.149709,0 -2.045933,-0.354798 -2.689081,-1.062343 -0.643148,-0.707545 -0.963492,-1.700979 -0.963492,-2.977021 0,-1.261276 0.3105,-2.271527 0.931088,-3.0287022 0.620999,-0.7600468 1.457748,-1.1398651 2.510247,-1.1398651 0.931088,0 1.666114,0.3228045 2.204669,0.9708746 0.538554,0.6456087 0.806806,1.5241957 0.806806,2.6365787 l 0,0.578752 -5.697685,0 c 0.0098,1.092285 0.26292,1.926573 0.762098,2.502453 0.496307,0.57588 1.209184,0.86382 2.13535,0.86382 0.451598,0 0.846182,-0.03199 1.189085,-0.09434 0.342493,-0.06194 0.774403,-0.198522 1.298602,-0.406889 l 0,0.655453 c -0.447087,0.193601 -0.859308,0.325266 -1.236666,0.394584 -0.377357,0.07219 -0.794501,0.106645 -1.251021,0.106645 z M 72.681888,9.2394744 c -0.762098,0 -1.372843,0.2510246 -1.834695,0.7551247 -0.459392,0.5040999 -0.730104,1.2313329 -0.807217,2.1796489 l 4.888828,0 c 0,-0.921244 -0.198522,-1.638633 -0.595978,-2.1575 C 73.93578,9.4978821 73.384511,9.2394744 72.681888,9.2394744 z m 8.346979,7.5824206 c -1.129611,0 -2.013529,-0.357259 -2.654216,-1.070136 -0.640277,-0.712467 -0.95816,-1.707952 -0.95816,-2.981533 0,-1.310906 0.330188,-2.331412 0.995485,-3.061516 0.662836,-0.7296942 1.574236,-1.0947463 2.725996,-1.0947463 0.685396,0 1.338388,0.1193597 1.963899,0.357669 L 82.905809,9.6123198 C 82.223285,9.3838546 81.627306,9.2694169 81.123206,9.2694169 c -0.968413,0 -1.70303,0.3006553 -2.202208,0.8986841 -0.499178,0.59844 -0.749792,1.460209 -0.749792,2.587359 0,1.064804 0.250614,1.901553 0.749792,2.504914 0.499178,0.603362 1.196879,0.906068 2.095564,0.906068 0.717389,0 1.382686,-0.128794 1.998763,-0.384741 l 0,0.667759 c -0.5041,0.248563 -1.167347,0.372435 -1.986458,0.372435 z m 8.841235,-0.148892 -5.646003,0 0,-0.446676 4.692356,-6.8375504 -4.349863,0 0,-0.6259209 5.288334,0 0,0.4470864 -4.722298,6.8375499 4.737474,0 0,0.625511 z m 7.465522,0 0,-5.126727 c 0,-0.794501 -0.16858,-1.372842 -0.5041,-1.7354335 -0.332649,-0.3601301 -0.851515,-0.5414256 -1.556599,-0.5414256 -0.945854,0 -1.638633,0.2383093 -2.075465,0.717389 -0.439293,0.4770291 -0.660375,1.2514321 -0.660375,2.3215681 l 0,4.364629 -0.71985,0 0,-7.9101473 0.610334,0 0.139048,1.0877734 0.04471,0 c 0.513944,-0.8244436 1.427805,-1.2366654 2.743633,-1.2366654 1.792447,0 2.691132,0.9634916 2.691132,2.8876033 l 0,5.171436 -0.712467,0 z m 3.990146,0 -0.72026,0 0,-7.9101473 0.72026,0 0,7.9101473 z M 100.50378,6.5680309 c 0,-0.4639034 0.15382,-0.6948297 0.4594,-0.6948297 0.14889,0 0.26538,0.059475 0.35233,0.1812956 0.0845,0.1214106 0.12675,0.2928621 0.12675,0.5135341 0,0.2186211 -0.0423,0.3900725 -0.12675,0.5168154 -0.087,0.1263326 -0.20344,0.1886786 -0.35233,0.1886786 -0.30558,0 -0.4594,-0.2358483 -0.4594,-0.705494 z m 4.17596,6.6341051 4.0369,-4.4392803 0.87407,0 -3.11607,3.3765273 3.38391,4.53362 -0.86628,0 -3.00409,-3.994655 -1.29614,1.179241 0,2.815414 -0.71985,0 0,-11.3211291 0.71985,0 0,5.6755361 -0.0496,2.174726 0.0373,0 z m 7.21982,3.470867 -0.71985,0 0,-7.9101473 0.71985,0 0,7.9101473 z M 111.07758,6.5680309 c 0,-0.4639034 0.15423,-0.6948297 0.45939,-0.6948297 0.1489,0 0.26579,0.059475 0.35275,0.1812956 0.0845,0.1214106 0.12633,0.2928621 0.12633,0.5135341 0,0.2186211 -0.0418,0.3900725 -0.12633,0.5168154 -0.087,0.1263326 -0.20385,0.1886786 -0.35275,0.1886786 -0.30516,0 -0.45939,-0.2358483 -0.45939,-0.705494 z m 3.32444,9.5389361 c 0,-0.476619 0.1936,-0.714928 0.58121,-0.714928 0.39951,0 0.59844,0.238309 0.59844,0.714928 0,0.476619 -0.19893,0.714928 -0.59844,0.714928 -0.38761,0 -0.58121,-0.238309 -0.58121,-0.714928 z m 7.06847,0.714928 c -1.21656,0 -2.10294,-0.45652 -2.6616,-1.36792 l -0.0496,0 0.0201,0.610744 c 0.0197,0.357669 0.0295,0.749793 0.0295,1.176781 l 0,3.006963 -0.71985,0 0,-11.4856073 0.61075,0 0.13905,1.1320719 0.0422,0 c 0.54389,-0.853976 1.41017,-1.2809639 2.60418,-1.2809639 1.06521,0 1.87981,0.350286 2.43847,1.0529088 0.5607,0.7001615 0.84167,1.7202575 0.84167,3.0586445 0,1.301063 -0.29574,2.308853 -0.88392,3.023781 -0.59106,0.715338 -1.39294,1.072597 -2.41099,1.072597 z m -0.0148,-0.625511 c 0.80927,0 1.43519,-0.300245 1.8794,-0.903606 0.44422,-0.603362 0.6653,-1.447494 0.6653,-2.529935 0,-2.328951 -0.83921,-3.4934261 -2.51517,-3.4934261 -0.92083,0 -1.59885,0.2534856 -2.0283,0.7620981 -0.43191,0.506561 -0.64807,1.335926 -0.64807,2.483175 l 0,0.232977 c 0,1.239126 0.20632,2.123045 0.621,2.654216 0.41469,0.52871 1.08983,0.794501 2.02584,0.794501 z m 6.21942,0.476619 -0.72026,0 0,-11.3211291 0.72026,0 0,11.3211291 z M 11.115635,7.410522 C 9.4314733,8.7579337 7.7473113,8.7579337 6.0631493,8.7579337 c 0,3.3683243 -0.3371606,5.7263973 5.0524857,8.7579703 5.052486,-3.031573 4.715736,-5.389236 4.715736,-8.7579703 -1.684162,0 -3.368324,0 -4.715736,-1.3474117 z m 0,15.157868 c -3.0315734,-4.041825 -5.0524857,0 -9.0947206,0 l 0,-20.5471043 17.8526916,0 0,20.5471043 c -4.042235,0 -6.063147,-4.041825 -8.757971,0 z"
     id="path2991"
     style="fill:#000000;stroke:none" />
</svg>
