<?xml version="1.0" encoding="UTF-8" standalone="no"?>
<!-- Created with Inkscape (http://www.inkscape.org/) -->

<svg
   xmlns:dc="http://purl.org/dc/elements/1.1/"
   xmlns:cc="http://creativecommons.org/ns#"
   xmlns:rdf="http://www.w3.org/1999/02/22-rdf-syntax-ns#"
   xmlns:svg="http://www.w3.org/2000/svg"
   xmlns="http://www.w3.org/2000/svg"
   version="1.1"
   width="259"
   height="48"
   viewBox="0 0 207.20001 38.399999"
   id="svg2985"
   style="fill-rule:evenodd">
  <metadata
     id="metadata2997">
    <rdf:RDF>
      <cc:Work
         rdf:about="">
        <dc:format>image/svg+xml</dc:format>
        <dc:type
           rdf:resource="http://purl.org/dc/dcmitype/StillImage" />
        <dc:title></dc:title>
      </cc:Work>
    </rdf:RDF>
  </metadata>
  <defs
     id="defs2995" />
  <g
     transform="matrix(0.53958335,0,0,0.53715311,-285.0867,-191.11854)"
     id="g2987"
     style="fill:#000000">
    <g
       id="g2989"
       style="fill:#000000">
      <path
         d="m 537.607,355.799 42.725,0 c 5.094,0 9.261,4.168 9.261,9.261 l 0,52.967 c 0,5.093 -4.167,9.26 -9.261,9.26 l -42.725,0 c -5.094,0 -9.261,-4.167 -9.261,-9.26 l 0,-52.967 c 0,-5.093 4.167,-9.261 9.261,-9.261 z m 374.739,47.665 -2.216,0 0,-34.845 2.216,0 0,34.845 z m -19.096,0.458 c -3.744,0 -6.472,-1.406 -8.192,-4.21 l -0.152,0 0.061,1.88 c 0.061,1.1 0.091,2.308 0.091,3.622 l 0,9.254 -2.216,0 0,-35.35 1.88,0 0.428,3.485 0.13,0 c 1.673,-2.629 4.34,-3.943 8.016,-3.943 3.278,0 5.784,1.077 7.504,3.24 1.727,2.155 2.59,5.295 2.59,9.414 0,4.004 -0.909,7.107 -2.72,9.307 -1.819,2.201 -4.287,3.301 -7.42,3.301 z m -0.046,-1.925 c 2.491,0 4.417,-0.925 5.785,-2.782 1.368,-1.857 2.048,-4.455 2.048,-7.786 0,-7.168 -2.583,-10.752 -7.741,-10.752 -2.835,0 -4.921,0.78 -6.243,2.346 -1.33,1.559 -1.995,4.111 -1.995,7.642 l 0,0.718 c 0,3.813 0.635,6.533 1.911,8.169 1.276,1.627 3.354,2.445 6.235,2.445 z m -21.709,-0.275 c 0,-1.467 0.596,-2.201 1.788,-2.201 1.23,0 1.841,0.734 1.841,2.201 0,1.467 -0.611,2.2 -1.841,2.2 -1.192,0 -1.788,-0.733 -1.788,-2.2 z m -7.703,1.742 -2.216,0 0,-24.346 2.216,0 0,24.346 z m -2.529,-31.101 c 0,-1.429 0.474,-2.139 1.414,-2.139 0.458,0 0.817,0.183 1.085,0.558 0.259,0.374 0.389,0.901 0.389,1.581 0,0.673 -0.13,1.2 -0.389,1.59 -0.268,0.389 -0.627,0.581 -1.085,0.581 -0.94,0 -1.414,-0.726 -1.414,-2.171 z m -19.692,20.418 12.425,-13.663 2.69,0 -9.59,10.393 10.415,13.953 -2.667,0 -9.246,-12.295 -3.989,3.63 0,8.665 -2.216,0 0,-34.845 2.216,0 0,17.468 -0.153,6.694 0.115,0 z m -10.324,10.683 -2.216,0 0,-24.346 2.216,0 0,24.346 z m -2.529,-31.101 c 0,-1.429 0.474,-2.139 1.414,-2.139 0.458,0 0.817,0.183 1.085,0.558 0.26,0.374 0.389,0.901 0.389,1.581 0,0.673 -0.129,1.2 -0.389,1.59 -0.268,0.389 -0.627,0.581 -1.085,0.581 -0.94,0 -1.414,-0.726 -1.414,-2.171 z m -9.75,31.101 0,-15.78 c 0,-2.445 -0.52,-4.225 -1.552,-5.341 -1.024,-1.108 -2.621,-1.666 -4.791,-1.666 -2.911,0 -5.043,0.734 -6.388,2.209 -1.353,1.467 -2.033,3.851 -2.033,7.144 l 0,13.434 -2.216,0 0,-24.346 1.88,0 0.428,3.347 0.138,0 c 1.581,-2.537 4.393,-3.805 8.443,-3.805 5.517,0 8.284,2.965 8.284,8.887 l 0,15.917 -2.193,0 z m -22.978,0 -17.377,0 0,-1.375 14.442,-21.045 -13.387,0 0,-1.926 16.276,0 0,1.376 -14.534,21.044 14.58,0 0,1.926 z m -27.211,0.458 c -3.477,0 -6.198,-1.1 -8.169,-3.293 -1.972,-2.193 -2.95,-5.257 -2.95,-9.177 0,-4.035 1.017,-7.176 3.064,-9.422 2.041,-2.247 4.845,-3.37 8.391,-3.37 2.109,0 4.118,0.367 6.044,1.1 l -0.603,1.972 c -2.102,-0.703 -3.936,-1.055 -5.487,-1.055 -2.98,0 -5.242,0.925 -6.778,2.766 -1.536,1.842 -2.308,4.494 -2.308,7.963 0,3.278 0.772,5.853 2.308,7.71 1.536,1.857 3.683,2.789 6.449,2.789 2.209,0 4.257,-0.397 6.152,-1.184 l 0,2.055 c -1.552,0.764 -3.592,1.146 -6.113,1.146 z m -25.042,0 c -3.538,0 -6.296,-1.092 -8.275,-3.27 -1.979,-2.178 -2.965,-5.234 -2.965,-9.162 0,-3.882 0.955,-6.992 2.865,-9.323 1.911,-2.338 4.486,-3.507 7.726,-3.507 2.865,0 5.127,0.993 6.786,2.988 1.658,1.987 2.483,4.692 2.483,8.115 l 0,1.78 -17.537,0 c 0.031,3.363 0.81,5.93 2.346,7.703 1.528,1.773 3.721,2.659 6.571,2.659 1.391,0 2.606,-0.099 3.661,-0.29 1.054,-0.191 2.384,-0.612 3.996,-1.253 l 0,2.017 c -1.375,0.596 -2.644,1.001 -3.805,1.215 -1.162,0.221 -2.446,0.328 -3.852,0.328 z m -0.649,-23.336 c -2.346,0 -4.226,0.771 -5.647,2.323 -1.414,1.551 -2.247,3.79 -2.483,6.709 l 15.045,0 c 0,-2.835 -0.611,-5.044 -1.833,-6.641 -1.223,-1.597 -2.919,-2.391 -5.082,-2.391 z m -16.536,-1.926 c 1.032,0 2.14,0.107 3.316,0.313 l -0.428,2.132 c -1.016,-0.252 -2.063,-0.382 -3.156,-0.382 -2.07,0 -3.774,0.879 -5.096,2.644 -1.33,1.758 -1.995,3.981 -1.995,6.671 l 0,13.426 -2.216,0 0,-24.346 1.88,0 0.222,4.402 0.16,0 c 1.001,-1.796 2.063,-3.049 3.202,-3.775 1.131,-0.726 2.506,-1.085 4.111,-1.085 z m -27.952,0 c 1.757,0 3.278,0.321 4.562,0.963 1.283,0.642 2.43,1.742 3.446,3.293 l 0.137,0 c -0.091,-1.88 -0.137,-3.729 -0.137,-5.532 l 0,-8.765 2.193,0 0,34.845 -1.452,0 -0.565,-3.706 -0.176,0 c -1.849,2.774 -4.509,4.164 -7.97,4.164 -3.355,0 -5.922,-1.046 -7.695,-3.133 -1.773,-2.093 -2.667,-5.135 -2.667,-9.139 0,-4.21 0.886,-7.427 2.644,-9.651 1.757,-2.223 4.317,-3.339 7.68,-3.339 z m 0,2.017 c -2.66,0 -4.654,0.932 -5.991,2.805 -1.33,1.872 -2.002,4.585 -2.002,8.145 0,6.916 2.682,10.37 8.031,10.37 2.751,0 4.76,-0.803 6.044,-2.4 1.284,-1.604 1.926,-4.241 1.926,-7.924 l 0,-0.382 c 0,-3.767 -0.634,-6.48 -1.888,-8.13 -1.26,-1.658 -3.301,-2.484 -6.12,-2.484 z m -15.65,10.591 c 0,3.974 -0.963,7.076 -2.889,9.308 -1.925,2.231 -4.577,3.346 -7.97,3.346 -2.132,0 -4.011,-0.511 -5.639,-1.543 -1.628,-1.032 -2.873,-2.506 -3.737,-4.44 -0.871,-1.925 -1.299,-4.149 -1.299,-6.671 0,-3.973 0.963,-7.068 2.889,-9.284 1.925,-2.216 4.562,-3.324 7.924,-3.324 3.339,0 5.968,1.123 7.871,3.37 1.902,2.246 2.85,5.326 2.85,9.238 z m -19.211,0 c 0,3.347 0.742,5.953 2.209,7.825 1.467,1.872 3.545,2.812 6.235,2.812 2.69,0 4.768,-0.94 6.236,-2.812 1.467,-1.872 2.208,-4.478 2.208,-7.825 0,-3.354 -0.749,-5.96 -2.231,-7.817 -1.483,-1.849 -3.569,-2.774 -6.259,-2.774 -2.682,0 -4.753,0.925 -6.212,2.766 -1.452,1.842 -2.186,4.455 -2.186,7.825 z m -17.797,12.654 c -3.744,0 -6.472,-1.406 -8.191,-4.21 l -0.153,0 0.061,1.88 c 0.061,1.1 0.092,2.308 0.092,3.622 l 0,9.254 -2.216,0 0,-35.35 1.88,0 0.428,3.485 0.129,0 c 1.674,-2.629 4.341,-3.943 8.016,-3.943 3.279,0 5.785,1.077 7.504,3.24 1.727,2.155 2.591,5.295 2.591,9.414 0,4.004 -0.91,7.107 -2.721,9.307 -1.818,2.201 -4.286,3.301 -7.42,3.301 z m -0.045,-1.925 c 2.491,0 4.416,-0.925 5.784,-2.782 1.368,-1.857 2.048,-4.455 2.048,-7.786 0,-7.168 -2.583,-10.752 -7.741,-10.752 -2.835,0 -4.921,0.78 -6.243,2.346 -1.329,1.559 -1.994,4.111 -1.994,7.642 l 0,0.718 c 0,3.813 0.634,6.533 1.91,8.169 1.276,1.627 3.355,2.445 6.236,2.445 z m -25.691,1.925 c -3.538,0 -6.296,-1.092 -8.276,-3.27 -1.979,-2.178 -2.964,-5.234 -2.964,-9.162 0,-3.882 0.955,-6.992 2.865,-9.323 1.91,-2.338 4.486,-3.507 7.726,-3.507 2.865,0 5.127,0.993 6.785,2.988 1.658,1.987 2.484,4.692 2.484,8.115 l 0,1.78 -17.537,0 c 0.03,3.363 0.81,5.93 2.345,7.703 1.529,1.773 3.722,2.659 6.572,2.659 1.391,0 2.606,-0.099 3.66,-0.29 1.055,-0.191 2.384,-0.612 3.997,-1.253 l 0,2.017 c -1.376,0.596 -2.644,1.001 -3.806,1.215 -1.161,0.221 -2.445,0.328 -3.851,0.328 z m -0.649,-23.336 c -2.346,0 -4.226,0.771 -5.647,2.323 -1.414,1.551 -2.247,3.79 -2.484,6.709 l 15.046,0 c 0,-2.835 -0.611,-5.044 -1.834,-6.641 -1.222,-1.597 -2.919,-2.391 -5.081,-2.391 z m -60.588,38.813 c -8.453,-11.313 -13.753,0 -25.063,0 l 0,-58.039 50.127,0 0,58.039 c -11.31,0 -16.61,-11.313 -25.064,0 z m 0,-43.121 c -4.277,3.724 -9.391,4.334 -13.807,3.889 0,9.189 -0.99,16.486 13.807,24.313 14.797,-7.827 13.808,-15.124 13.808,-24.313 -4.416,0.445 -9.53,-0.165 -13.808,-3.889 z"
         id="path2991"
         style="fill:#000000;stroke:none" />
    </g>
  </g>
</svg>
