<?xml version="1.0" encoding="UTF-8" standalone="no"?>
<!-- Created with Inkscape (http://www.inkscape.org/) -->

<svg
   xmlns:dc="http://purl.org/dc/elements/1.1/"
   xmlns:cc="http://creativecommons.org/ns#"
   xmlns:rdf="http://www.w3.org/1999/02/22-rdf-syntax-ns#"
   xmlns:svg="http://www.w3.org/2000/svg"
   xmlns="http://www.w3.org/2000/svg"
   version="1.1"
   width="100"
   height="100"
   viewBox="0 0 100 100"
   id="Layer_1"
   xml:space="preserve"><metadata
     id="metadata9"><rdf:RDF><cc:Work
         rdf:about=""><dc:format>image/svg+xml</dc:format><dc:type
           rdf:resource="http://purl.org/dc/dcmitype/StillImage" /><dc:title></dc:title></cc:Work></rdf:RDF></metadata><defs
     id="defs7" /><path fill="#be213a"      d="m 97.5,67.812405 c 0,3.082948 -0.846839,5.652107 -2.540568,7.707276 -1.693729,2.05536 -4.043947,3.082945 -7.050779,3.082945 -1.560478,0 -3.035379,-0.332889 -4.424582,-0.998882 -1.389202,-0.666188 -2.512016,-1.389375 -3.368389,-2.169563 -0.856373,-0.780187 -1.93157,-1.503375 -3.225656,-2.169562 -1.29409,-0.666188 -2.645214,-0.998891 -4.053486,-0.998891 -4.18668,0 -6.280048,2.359563 -6.280048,7.079085 0,1.484574 0.304475,3.672938 0.91346,6.565688 0.608988,2.892555 0.89445,5.080915 0.856368,6.565493 v 0.285388 c -0.837355,0 -1.465366,0.01986 -1.884014,0.05739 -1.29409,0.114821 -3.149556,0.332889 -5.566404,0.65629 -2.416852,0.323562 -4.614867,0.580489 -6.594049,0.770886 -1.979187,0.19 -3.844132,0.285389 -5.594952,0.285389 -2.321735,0 -4.281857,-0.50429 -5.880409,-1.512875 -1.598561,-1.00858 -2.397839,-2.597654 -2.397839,-4.767216 0,-1.408177 0.333018,-2.759358 0.999102,-4.053331 0.66608,-1.294181 1.389202,-2.369464 2.169472,-3.225652 0.780261,-0.856381 1.503384,-1.979363 2.169468,-3.368341 0.666079,-1.389375 0.999097,-2.86425 0.999097,-4.424819 0,-3.00675 -1.027645,-5.357012 -3.082935,-7.05059 -2.055287,-1.693767 -4.624397,-2.540455 -7.707329,-2.540455 -3.197114,0 -5.918487,0.865688 -8.164062,2.597455 -2.245574,1.731777 -3.368387,4.158034 -3.368387,7.279181 0,1.636768 0.285475,3.216143 0.856369,4.738721 0.570911,1.522375 1.208452,2.749848 1.91256,3.682235 0.704108,0.93239 1.341646,1.941169 1.91256,3.02575 0.570914,1.084783 0.856369,2.045863 0.856369,2.883051 0,1.712971 -0.875381,3.406544 -2.626203,5.081312 -1.408269,1.331983 -3.634831,1.99817 -6.679684,1.99817 -3.615767,0 -8.278248,-0.456808 -13.9873801,-1.370375 -0.3425571,-0.07518 -0.8659056,-0.152389 -1.5700137,-0.228 -0.704108,-0.07518 -1.227463,-0.152389 -1.5700136,-0.228389 l -0.7421875,-0.11482 c -0.038,0 -0.095155,-0.01986 -0.1712763,-0.05739 C 2.5380795,92.875585 2.5,92.856585 2.5,92.818585 V 34.356777 c 0.076121,0.03757 0.4091736,0.104889 0.9990995,0.199889 0.5899262,0.095 1.2369988,0.19 1.9411069,0.285389 0.7041041,0.095 1.1132812,0.16232 1.2274635,0.199888 5.7091321,0.913581 10.3716131,1.370375 13.9873761,1.370375 3.044853,0 5.271416,-0.666187 6.679688,-1.998368 1.750822,-1.674522 2.626204,-3.368298 2.626204,-5.081066 0,-0.837387 -0.285475,-1.798273 -0.85637,-2.883052 -0.570914,-1.084809 -1.208456,-2.09339 -1.912564,-3.025974 -0.704104,-0.932386 -1.341645,-2.159864 -1.912556,-3.682438 -0.570914,-1.522375 -0.856369,-3.101948 -0.856369,-4.738518 0,-3.120948 1.122813,-5.5472102 3.368387,-7.2791803 2.245575,-1.7315741 4.98596,-2.5976545 8.221153,-2.5976545 3.044853,0 5.594951,0.8468861 7.650242,2.5406545 2.05529,1.6937721 3.082931,4.0440333 3.082931,7.0507833 0,1.560375 -0.333018,3.035449 -0.999097,4.424426 -0.666089,1.389375 -1.389207,2.512154 -2.169472,3.368541 -0.78027,0.856386 -1.503388,1.931669 -2.169472,3.225647 -0.66608,1.294176 -0.999098,2.645158 -0.999098,4.053533 0,2.169364 0.799278,3.758438 2.397839,4.767018 1.598556,1.008784 3.558674,1.513074 5.880409,1.513074 2.435917,0 5.861397,-0.285562 10.27644,-0.856386 4.415047,-0.570989 7.517043,-0.894581 9.305889,-0.970779 v 0.11482 c -0.038,0.07518 -0.10463,0.409321 -0.199846,0.999279 -0.09517,0.589989 -0.190302,1.236978 -0.285475,1.940971 -0.09517,0.704188 -0.161759,1.113473 -0.199845,1.227473 -0.913464,5.709302 -1.370194,10.371625 -1.370194,13.987364 0,3.044945 0.666088,5.271507 1.998204,6.679882 1.67466,1.750578 3.368385,2.626159 5.081123,2.626159 0.83736,0 1.79838,-0.285562 2.883112,-0.856581 1.084736,-0.570596 2.093368,-1.208283 3.02584,-1.912471 0.932477,-0.704187 2.159942,-1.341482 3.682395,-1.912466 1.522452,-0.570989 3.101944,-0.856391 4.738582,-0.856391 3.121014,0 5.547396,1.122982 7.279151,3.368346 C 96.634092,61.894501 97.5,64.615853 97.5,67.813001 z"
     id="path3"  /></svg>