<?xml version="1.0" encoding="UTF-8" standalone="no"?>
<!-- Created with Inkscape (http://www.inkscape.org/) -->

<svg
   xmlns:dc="http://purl.org/dc/elements/1.1/"
   xmlns:cc="http://creativecommons.org/ns#"
   xmlns:rdf="http://www.w3.org/1999/02/22-rdf-syntax-ns#"
   xmlns:svg="http://www.w3.org/2000/svg"
   xmlns="http://www.w3.org/2000/svg"
   version="1.1"
   width="100"
   height="100"
   viewBox="0 0 100 100"
   id="Capa_1"
   xml:space="preserve"><metadata
   id="metadata17"><rdf:RDF><cc:Work
       rdf:about=""><dc:format>image/svg+xml</dc:format><dc:type
         rdf:resource="http://purl.org/dc/dcmitype/StillImage" /><dc:title></dc:title></cc:Work></rdf:RDF></metadata><defs
   id="defs15" />
<g
   transform="matrix(0.70073983,0,0,0.70073983,-25.679551,-1.1540076)"
   id="g3">
	<path fill="#be213a"    d="M 92.357,15.642 H 50.643 c -2.825,0 -5.269,1.033 -7.333,3.097 -2.064,2.062 -3.096,4.508 -3.096,7.332 v 31.286 c 0,2.824 1.032,5.269 3.096,7.332 2.064,2.065 4.508,3.097 7.333,3.097 h 41.714 c 2.825,0 5.269,-1.033 7.333,-3.097 2.064,-2.063 3.096,-4.508 3.096,-7.332 V 26.071 c 0,-2.824 -1.032,-5.269 -3.096,-7.332 -2.064,-2.065 -4.509,-3.097 -7.333,-3.097 z"
   id="path5" />
	<path fill="#be213a"    d="M 92.357,78.214 H 50.643 c -2.825,0 -5.269,1.033 -7.333,3.097 -2.064,2.064 -3.096,4.508 -3.096,7.332 v 31.286 c 0,2.824 1.032,5.27 3.096,7.332 2.064,2.065 4.508,3.097 7.333,3.097 h 41.714 c 2.825,0 5.269,-1.032 7.333,-3.097 2.064,-2.062 3.096,-4.508 3.096,-7.332 V 88.643 c 0,-2.824 -1.032,-5.269 -3.096,-7.332 -2.064,-2.065 -4.509,-3.097 -7.333,-3.097 z"
   id="path7" />
	<path fill="#be213a"    d="m 172.689,18.739 c -2.062,-2.065 -4.508,-3.097 -7.332,-3.097 h -41.715 c -2.824,0 -5.269,1.033 -7.332,3.097 -2.065,2.062 -3.097,4.508 -3.097,7.332 v 31.286 c 0,2.824 1.032,5.269 3.097,7.332 2.063,2.065 4.508,3.097 7.332,3.097 h 41.715 c 2.824,0 5.27,-1.033 7.332,-3.097 2.064,-2.063 3.096,-4.508 3.096,-7.332 V 26.071 c 0,-2.824 -1.031,-5.268 -3.096,-7.332 z"
   id="path9" />
	<path fill="#be213a"    d="m 165.357,78.214 h -41.715 c -2.824,0 -5.269,1.033 -7.332,3.097 -2.065,2.063 -3.097,4.508 -3.097,7.332 v 31.286 c 0,2.824 1.032,5.27 3.097,7.332 2.063,2.065 4.508,3.097 7.332,3.097 h 41.715 c 2.824,0 5.27,-1.032 7.332,-3.097 2.064,-2.062 3.096,-4.508 3.096,-7.332 V 88.643 c 0,-2.824 -1.031,-5.269 -3.096,-7.332 -2.062,-2.065 -4.507,-3.097 -7.332,-3.097 z"
   id="path11" />
</g>
</svg>