<?xml version="1.0" encoding="UTF-8" standalone="no"?>
<!-- Created with Inkscape (http://www.inkscape.org/) -->

<svg
   xmlns:dc="http://purl.org/dc/elements/1.1/"
   xmlns:cc="http://creativecommons.org/ns#"
   xmlns:rdf="http://www.w3.org/1999/02/22-rdf-syntax-ns#"
   xmlns:svg="http://www.w3.org/2000/svg"
   xmlns="http://www.w3.org/2000/svg"
   version="1.1"
   width="100"
   height="100"
   viewBox="0 0 100 100"
   id="Capa_1"
   xml:space="preserve"><metadata
   id="metadata9"><rdf:RDF><cc:Work
       rdf:about=""><dc:format>image/svg+xml</dc:format><dc:type
         rdf:resource="http://purl.org/dc/dcmitype/StillImage" /><dc:title></dc:title></cc:Work></rdf:RDF></metadata><defs
   id="defs7" />
<path fill="#d05e70"    d="M 78.402175,51.970466 C 75.413545,48.220835 72.036705,46.34707 68.268155,46.34707 V 17.115924 c 1.97887,0 3.69287,-0.723159 5.13779,-2.169475 1.44701,-1.446316 2.17087,-3.159612 2.17087,-5.1384872 0,-1.9795754 -0.72386,-3.6921709 -2.17087,-5.1384873 C 71.961025,3.2231582 70.247025,2.5 68.268155,2.5 H 31.730448 c -1.979576,0 -3.692171,0.7231582 -5.138487,2.1694745 -1.446317,1.4463164 -2.169475,3.1589119 -2.169475,5.1384873 0,1.9795752 0.723158,3.6921712 2.169475,5.1384872 1.446316,1.446316 3.159612,2.169475 5.138487,2.169475 v 29.230445 c -3.76785,0 -7.145391,1.874466 -10.133324,5.623396 -2.987933,3.749631 -4.481899,7.96385 -4.481899,12.646159 0,0.989437 0.361579,1.846435 1.084737,2.568893 0.723859,0.722457 1.580157,1.084737 2.569594,1.084737 h 23.064682 l 4.338949,27.68953 C 48.363086,96.987062 48.972024,97.5 50.000002,97.5 h 0.05816 c 0.454777,0 0.846488,-0.161169 1.170227,-0.484208 0.322338,-0.323739 0.522748,-0.714749 0.598427,-1.170927 l 2.910852,-27.575311 h 24.492076 c 0.98944,0 1.84714,-0.36228 2.5689,-1.084737 0.72385,-0.722458 1.08613,-1.579456 1.08613,-2.568893 7e-4,-4.681609 -1.49466,-8.896528 -4.4826,-12.645458 z M 44.518856,44.520255 c 0,0.532558 -0.17098,0.969817 -0.513639,1.313177 -0.342659,0.342659 -0.780618,0.513638 -1.313177,0.513638 -0.532558,0 -0.970517,-0.170979 -1.313176,-0.513638 -0.34266,-0.34266 -0.513639,-0.780619 -0.513639,-1.313177 V 18.94344 c 0,-0.532559 0.170979,-0.971219 0.513639,-1.313177 0.342659,-0.341959 0.780618,-0.513639 1.313176,-0.513639 0.532559,0 0.970518,0.17098 1.313177,0.513639 0.342659,0.342659 0.513639,0.780618 0.513639,1.313177 v 25.576815 z"
   id="path3"  />
</svg>