<?xml version="1.0" encoding="UTF-8" standalone="no"?>
<!-- Created with Inkscape (http://www.inkscape.org/) -->

<svg
   xmlns:dc="http://purl.org/dc/elements/1.1/"
   xmlns:cc="http://creativecommons.org/ns#"
   xmlns:rdf="http://www.w3.org/1999/02/22-rdf-syntax-ns#"
   xmlns:svg="http://www.w3.org/2000/svg"
   xmlns="http://www.w3.org/2000/svg"
   version="1.1"
   width="312"
   height="92"
   viewBox="0 0 249.60001 73.599997"
   id="svg3456"
   style="fill-rule:evenodd">
  <metadata
     id="metadata3532">
    <rdf:RDF>
      <cc:Work
         rdf:about="">
        <dc:format>image/svg+xml</dc:format>
        <dc:type
           rdf:resource="http://purl.org/dc/dcmitype/StillImage" />
        <dc:title></dc:title>
      </cc:Work>
    </rdf:RDF>
  </metadata>
  <defs
     id="defs3530" />
  <g
     transform="translate(0,-0.39999692)"
     id="g3377">
    <g
       transform="matrix(1.0017821,0,0,0.99459464,0,0.40003373)"
       id="g3601">
      <path
         d="m 58.853,30.60096 c -0.5,0 -0.992,0.024 -1.482,0.063 -0.837,-9.312 -8.657,-16.61 -18.185,-16.61 -2.77,0 -5.396,0.62 -7.75,1.725 -2.903,-6.358 -9.312,-10.779 -16.758,-10.779 -3.55,0 -6.864,1.009 -9.678,2.748 l 0,61.252 53.853,0 c 10.604,0 19.199,-8.596 19.199,-19.199 0,-10.605 -8.595,-19.2 -19.199,-19.2 z"
         id="path3462"
         style="fill:#3a9f6c;stroke:none" />
      <path
         d="m 23.928,33.51496 c 0,1.839 -1.49,3.329 -3.33,3.329 -1.839,0 -3.329,-1.49 -3.329,-3.329 0,-1.84 1.49,-3.33 3.329,-3.33 1.84,0 3.33,1.49 3.33,3.33 z"
         id="path3464"
         style="fill:#ffffff;stroke:none" />
      <path
         d="m 34.334,33.51496 c 0,1.839 -1.49,3.329 -3.33,3.329 -1.839,0 -3.329,-1.49 -3.329,-3.329 0,-1.84 1.49,-3.33 3.329,-3.33 1.84,0 3.33,1.49 3.33,3.33 z"
         id="path3466"
         style="fill:#ffffff;stroke:none" />
      <path
         d="m 44.74,33.51496 c 0,1.839 -1.49,3.329 -3.329,3.329 -1.84,0 -3.331,-1.49 -3.331,-3.329 0,-1.84 1.491,-3.33 3.331,-3.33 1.839,0 3.329,1.49 3.329,3.33 z"
         id="path3468"
         style="fill:#ffffff;stroke:none" />
      <path
         d="m 23.928,43.50396 c 0,1.839 -1.49,3.33 -3.33,3.33 -1.839,0 -3.329,-1.491 -3.329,-3.33 0,-1.839 1.49,-3.329 3.329,-3.329 1.84,0 3.33,1.49 3.33,3.329 z"
         id="path3470"
         style="fill:#ffffff;stroke:none" />
      <path
         d="m 34.334,43.50396 c 0,1.839 -1.49,3.33 -3.33,3.33 -1.839,0 -3.329,-1.491 -3.329,-3.33 0,-1.839 1.49,-3.329 3.329,-3.329 1.84,0 3.33,1.49 3.33,3.329 z"
         id="path3472"
         style="fill:#ffffff;stroke:none" />
      <path
         d="m 44.74,43.50396 c 0,1.839 -1.49,3.33 -3.329,3.33 -1.84,0 -3.331,-1.491 -3.331,-3.33 0,-1.839 1.491,-3.329 3.331,-3.329 1.839,0 3.329,1.49 3.329,3.329 z"
         id="path3474"
         style="fill:#ffffff;stroke:none" />
      <path
         d="m 23.928,53.49396 c 0,1.84 -1.49,3.331 -3.33,3.331 -1.839,0 -3.329,-1.491 -3.329,-3.331 0,-1.84 1.49,-3.329 3.329,-3.329 1.84,0 3.33,1.489 3.33,3.329 z"
         id="path3476"
         style="fill:#ffffff;stroke:none" />
      <path
         d="m 34.334,53.49396 c 0,1.84 -1.49,3.331 -3.33,3.331 -1.839,0 -3.329,-1.491 -3.329,-3.331 0,-1.84 1.49,-3.329 3.329,-3.329 1.84,0 3.33,1.489 3.33,3.329 z"
         id="path3478"
         style="fill:#ffffff;stroke:none" />
      <path
         d="m 44.74,53.49396 c 0,1.84 -1.49,3.331 -3.329,3.331 -1.84,0 -3.331,-1.491 -3.331,-3.331 0,-1.84 1.491,-3.329 3.331,-3.329 1.839,0 3.329,1.489 3.329,3.329 z"
         id="path3480"
         style="fill:#ffffff;stroke:none" />
      <path
         d="m 14.678,-4e-5 c -4.353,0 -8.608,1.209 -12.307,3.495 C 0.898,4.40596 0,6.01596 0,7.74796 l 0,61.252 c 0,2.762 2.239,5 5,5 l 53.853,0 c 13.344,0 24.199,-10.855 24.199,-24.199 0,-12.446 -9.443,-22.727 -21.539,-24.055 -2.829,-9.773 -11.756,-16.692 -22.327,-16.692 -1.883,0 -3.73,0.221 -5.525,0.661 -4.352,-6.014 -11.4,-9.715 -18.983,-9.715 z m 0,5 c 7.446,0 13.854,4.421 16.758,10.778 2.353,-1.104 4.979,-1.724 7.75,-1.724 9.528,0 17.347,7.298 18.184,16.61 0.491,-0.039 0.983,-0.063 1.483,-0.063 10.604,0 19.199,8.594 19.199,19.2 0,10.602 -8.595,19.199 -19.199,19.199 l -53.853,0 0,-61.252 c 2.814,-1.739 6.128,-2.748 9.678,-2.748 z"
         id="path3522"
         style="fill:#ffffff;stroke:none" />
    </g>
  </g>
  <g
     transform="translate(0.14800055,-0.39999692)"
     id="g3391">
    <g
       transform="matrix(1.0017821,0,0,0.99459464,-81.373495,0.40003373)"
       id="g3614">
      <path
         d="m 223.101,30.60096 c -0.5,0 -0.992,0.024 -1.482,0.063 -0.837,-9.312 -8.657,-16.61 -18.185,-16.61 -2.77,0 -5.396,0.62 -7.75,1.725 -2.903,-6.358 -9.312,-10.779 -16.758,-10.779 -3.55,0 -6.864,1.009 -9.678,2.748 l 0,61.252 53.853,0 c 10.604,0 19.199,-8.596 19.199,-19.199 0,-10.605 -8.595,-19.2 -19.199,-19.2 z"
         id="path3482"
         style="fill:#1b1362;stroke:none" />
      <path
         d="m 188.176,33.51496 c 0,1.839 -1.49,3.329 -3.33,3.329 -1.839,0 -3.329,-1.49 -3.329,-3.329 0,-1.84 1.49,-3.33 3.329,-3.33 1.84,0 3.33,1.49 3.33,3.33 z"
         id="path3484"
         style="fill:#ffffff;stroke:none" />
      <path
         d="m 198.582,33.51496 c 0,1.839 -1.49,3.329 -3.33,3.329 -1.839,0 -3.329,-1.49 -3.329,-3.329 0,-1.84 1.49,-3.33 3.329,-3.33 1.84,0 3.33,1.49 3.33,3.33 z"
         id="path3486"
         style="fill:#ffffff;stroke:none" />
      <path
         d="m 208.989,33.51496 c 0,1.839 -1.491,3.329 -3.329,3.329 -1.84,0 -3.331,-1.49 -3.331,-3.329 0,-1.84 1.491,-3.33 3.331,-3.33 1.838,0 3.329,1.49 3.329,3.33 z"
         id="path3488"
         style="fill:#ffffff;stroke:none" />
      <path
         d="m 188.176,43.50396 c 0,1.839 -1.49,3.33 -3.33,3.33 -1.839,0 -3.329,-1.491 -3.329,-3.33 0,-1.839 1.49,-3.329 3.329,-3.329 1.84,0 3.33,1.49 3.33,3.329 z"
         id="path3490"
         style="fill:#ffffff;stroke:none" />
      <path
         d="m 198.582,43.50396 c 0,1.839 -1.49,3.33 -3.33,3.33 -1.839,0 -3.329,-1.491 -3.329,-3.33 0,-1.839 1.49,-3.329 3.329,-3.329 1.84,0 3.33,1.49 3.33,3.329 z"
         id="path3492"
         style="fill:#ffffff;stroke:none" />
      <path
         d="m 208.989,43.50396 c 0,1.839 -1.491,3.33 -3.329,3.33 -1.84,0 -3.331,-1.491 -3.331,-3.33 0,-1.839 1.491,-3.329 3.331,-3.329 1.838,0 3.329,1.49 3.329,3.329 z"
         id="path3494"
         style="fill:#ffffff;stroke:none" />
      <path
         d="m 188.176,53.49396 c 0,1.84 -1.49,3.331 -3.33,3.331 -1.839,0 -3.329,-1.491 -3.329,-3.331 0,-1.84 1.49,-3.329 3.329,-3.329 1.84,0 3.33,1.489 3.33,3.329 z"
         id="path3496"
         style="fill:#ffffff;stroke:none" />
      <path
         d="m 198.582,53.49396 c 0,1.84 -1.49,3.331 -3.33,3.331 -1.839,0 -3.329,-1.491 -3.329,-3.331 0,-1.84 1.49,-3.329 3.329,-3.329 1.84,0 3.33,1.489 3.33,3.329 z"
         id="path3498"
         style="fill:#ffffff;stroke:none" />
      <path
         d="m 208.989,53.49396 c 0,1.84 -1.491,3.331 -3.329,3.331 -1.84,0 -3.331,-1.491 -3.331,-3.331 0,-1.84 1.491,-3.329 3.331,-3.329 1.838,0 3.329,1.489 3.329,3.329 z"
         id="path3500"
         style="fill:#ffffff;stroke:none" />
      <path
         d="m 178.811,-4e-5 c -4.353,0 -8.608,1.209 -12.307,3.495 -1.473,0.911 -2.371,2.521 -2.371,4.253 l 0,61.252 c 0,2.762 2.239,5 5,5 l 53.853,0 c 13.344,0 24.199,-10.855 24.199,-24.199 0,-12.446 -9.443,-22.727 -21.539,-24.055 -2.829,-9.773 -11.756,-16.692 -22.327,-16.692 -1.883,0 -3.73,0.221 -5.525,0.661 -4.352,-6.014 -11.4,-9.715 -18.983,-9.715 z m 0,5 c 7.446,0 13.854,4.421 16.758,10.778 2.353,-1.104 4.979,-1.724 7.75,-1.724 9.528,0 17.347,7.298 18.184,16.61 0.491,-0.039 0.983,-0.063 1.483,-0.063 10.604,0 19.199,8.594 19.199,19.2 0,10.602 -8.595,19.199 -19.199,19.199 l -53.853,0 0,-61.252 c 2.814,-1.739 6.128,-2.748 9.678,-2.748 z"
         id="path3524"
         style="fill:#ffffff;stroke:none" />
    </g>
  </g>
  <g
     transform="translate(0.29600466,-0.39999692)"
     id="g3405">
    <g
       transform="matrix(1.0018062,0,0,0.99459464,-162.24198,0.40003373)"
       id="g3627">
      <path
         d="m 386.604,30.60096 c -0.5,0 -0.99,0.024 -1.48,0.063 -0.84,-9.312 -8.66,-16.61 -18.19,-16.61 -2.77,0 -5.39,0.62 -7.75,1.725 -2.9,-6.358 -9.31,-10.779 -16.76,-10.779 -3.55,0 -6.86,1.009 -9.67,2.748 l 0,61.252 53.85,0 c 10.6,0 19.2,-8.596 19.2,-19.199 0,-10.605 -8.6,-19.2 -19.2,-19.2 z"
         id="path3502"
         style="fill:#ffffff;stroke:none" />
      <path
         d="m 351.674,33.51496 c 0,1.839 -1.49,3.329 -3.33,3.329 -1.83,0 -3.33,-1.49 -3.33,-3.329 0,-1.84 1.5,-3.33 3.33,-3.33 1.84,0 3.33,1.49 3.33,3.33 z"
         id="path3504"
         style="fill:#1b1362;stroke:none" />
      <path
         d="m 362.084,33.51496 c 0,1.839 -1.49,3.329 -3.33,3.329 -1.84,0 -3.33,-1.49 -3.33,-3.329 0,-1.84 1.49,-3.33 3.33,-3.33 1.84,0 3.33,1.49 3.33,3.33 z"
         id="path3506"
         style="fill:#1b1362;stroke:none" />
      <path
         d="m 372.494,33.51496 c 0,1.839 -1.49,3.329 -3.33,3.329 -1.84,0 -3.33,-1.49 -3.33,-3.329 0,-1.84 1.49,-3.33 3.33,-3.33 1.84,0 3.33,1.49 3.33,3.33 z"
         id="path3508"
         style="fill:#1b1362;stroke:none" />
      <path
         d="m 351.674,43.50396 c 0,1.839 -1.49,3.33 -3.33,3.33 -1.83,0 -3.33,-1.491 -3.33,-3.33 0,-1.839 1.5,-3.329 3.33,-3.329 1.84,0 3.33,1.49 3.33,3.329 z"
         id="path3510"
         style="fill:#1b1362;stroke:none" />
      <path
         d="m 362.084,43.50396 c 0,1.839 -1.49,3.33 -3.33,3.33 -1.84,0 -3.33,-1.491 -3.33,-3.33 0,-1.839 1.49,-3.329 3.33,-3.329 1.84,0 3.33,1.49 3.33,3.329 z"
         id="path3512"
         style="fill:#1b1362;stroke:none" />
      <path
         d="m 372.494,43.50396 c 0,1.839 -1.49,3.33 -3.33,3.33 -1.84,0 -3.33,-1.491 -3.33,-3.33 0,-1.839 1.49,-3.329 3.33,-3.329 1.84,0 3.33,1.49 3.33,3.329 z"
         id="path3514"
         style="fill:#1b1362;stroke:none" />
      <path
         d="m 351.674,53.49396 c 0,1.84 -1.49,3.331 -3.33,3.331 -1.83,0 -3.33,-1.491 -3.33,-3.331 0,-1.84 1.5,-3.329 3.33,-3.329 1.84,0 3.33,1.489 3.33,3.329 z"
         id="path3516"
         style="fill:#1b1362;stroke:none" />
      <path
         d="m 362.084,53.49396 c 0,1.84 -1.49,3.331 -3.33,3.331 -1.84,0 -3.33,-1.491 -3.33,-3.331 0,-1.84 1.49,-3.329 3.33,-3.329 1.84,0 3.33,1.489 3.33,3.329 z"
         id="path3518"
         style="fill:#1b1362;stroke:none" />
      <path
         d="m 372.494,53.49396 c 0,1.84 -1.49,3.331 -3.33,3.331 -1.84,0 -3.33,-1.491 -3.33,-3.331 0,-1.84 1.49,-3.329 3.33,-3.329 1.84,0 3.33,1.489 3.33,3.329 z"
         id="path3520"
         style="fill:#1b1362;stroke:none" />
      <path
         d="m 342.424,-4e-5 c -4.35,0 -8.6,1.209 -12.3,3.495 -1.48,0.911 -2.37,2.521 -2.37,4.253 l 0,61.252 c 0,2.762 2.24,5 5,5 l 53.85,0 c 13.34,0 24.2,-10.855 24.2,-24.199 0,-12.446 -9.44,-22.727 -21.54,-24.055 -2.83,-9.773 -11.76,-16.692 -22.33,-16.692 -1.88,0 -3.73,0.221 -5.52,0.661 -4.35,-6.014 -11.4,-9.715 -18.99,-9.715 z m 0,5 c 7.45,0 13.86,4.421 16.76,10.778 2.36,-1.104 4.98,-1.724 7.75,-1.724 9.53,0 17.35,7.298 18.19,16.61 0.49,-0.039 0.98,-0.063 1.48,-0.063 10.6,0 19.2,8.594 19.2,19.2 0,10.602 -8.6,19.199 -19.2,19.199 l -53.85,0 0,-61.252 c 2.81,-1.739 6.12,-2.748 9.67,-2.748 z"
         id="path3526"
         style="fill:#ffffff;stroke:none" />
    </g>
  </g>
</svg>
