<?xml version="1.0" encoding="UTF-8" standalone="no"?>
<!-- Created with Inkscape (http://www.inkscape.org/) -->

<svg
   xmlns:dc="http://purl.org/dc/elements/1.1/"
   xmlns:cc="http://creativecommons.org/ns#"
   xmlns:rdf="http://www.w3.org/1999/02/22-rdf-syntax-ns#"
   xmlns:svg="http://www.w3.org/2000/svg"
   xmlns="http://www.w3.org/2000/svg"
   xmlns:sodipodi="http://sodipodi.sourceforge.net/DTD/sodipodi-0.dtd"
   xmlns:inkscape="http://www.inkscape.org/namespaces/inkscape"
   version="1.1"
   width="80"
   height="80"
   id="svg3389"
   inkscape:version="0.48.4 r9939"
   sodipodi:docname="copyright.svg">
  <sodipodi:namedview
     pagecolor="#ffffff"
     bordercolor="#666666"
     borderopacity="1"
     objecttolerance="10"
     gridtolerance="10"
     guidetolerance="10"
     inkscape:pageopacity="0"
     inkscape:pageshadow="2"
     inkscape:window-width="640"
     inkscape:window-height="480"
     id="namedview28"
     showgrid="false"
     inkscape:zoom="1.4625"
     inkscape:cx="120"
     inkscape:cy="40"
     inkscape:window-x="0"
     inkscape:window-y="0"
     inkscape:window-maximized="0"
     inkscape:current-layer="svg3389" />
  <defs
     id="defs3391" />
  <metadata
     id="metadata3394">
    <rdf:RDF>
      <cc:Work
         rdf:about="">
        <dc:format>image/svg+xml</dc:format>
        <dc:type
           rdf:resource="http://purl.org/dc/dcmitype/StillImage" />
        <dc:title></dc:title>
      </cc:Work>
    </rdf:RDF>
  </metadata>
  <g
     transform="translate(80.39789,-315.40393)"
     id="layer1">
    <g
       id="g3515">
      <g
         id="g3507">
        <g
           transform="matrix(1.25,0,0,1.25,-744.47539,-374.59482)"
           id="g3053">
          <g
             id="g3055">
            <path
               d="m 595.262,583.999 c 0,17.673 -14.327,32 -32,32 -17.673,0 -32,-14.327 -32,-32 0,-17.672 14.327,-32 32,-32 17.673,0 32,14.328 32,32 z"
               id="path3057"
               style="fill:#415079;stroke:none"
               inkscape:connector-curvature="0" />
          </g>
          <path
             d="m 545.057,602.032 13.637,13.637 c 1.493,0.213 3.016,0.33 4.568,0.33 17.673,0 32,-14.327 32,-32 0,-1.559 -0.118,-3.091 -0.333,-4.59 l -12.945,-12.946 -21.722,-6.284 -14.563,7.688 -6.437,14.187 5.795,19.978 z"
             id="path3059"
             style="fill:#28395b;stroke:none"
             inkscape:connector-curvature="0" />
          <path
             d="m 586.45,583.999 c 0,12.806 -10.382,23.188 -23.188,23.188 -12.806,0 -23.188,-10.382 -23.188,-23.188 0,-12.805 10.382,-23.187 23.188,-23.187 12.806,0 23.188,10.382 23.188,23.187"
             id="path3061"
             style="fill:none;stroke:#ffffff;stroke-width:5.00003004;stroke-linecap:round;stroke-linejoin:round"
             inkscape:connector-curvature="0" />
          <path
             d="m 571.895,592.632 c -4.768,4.768 -12.498,4.767 -17.265,-10e-4 -4.768,-4.767 -4.769,-12.497 -10e-4,-17.265 4.768,-4.767 12.498,-4.767 17.266,0"
             id="path3063"
             style="fill:none;stroke:#ffffff;stroke-width:5.00003004;stroke-linecap:round;stroke-linejoin:round"
             inkscape:connector-curvature="0" />
        </g>
      </g>
    </g>
    <g
       transform="translate(-126.64125,0)"
       id="g3537">
      <g
         id="g3530">
        <g
           id="g3524">
          <g
             transform="matrix(1.25,0,0,1.25,-744.47539,-374.59482)"
             id="g3065">
            <path
               d="m 760.575,583.999 c 0,17.673 -14.327,32 -32,32 -17.673,0 -32,-14.327 -32,-32 0,-17.672 14.327,-32 32,-32 17.673,0 32,14.328 32,32 z"
               id="path3067"
               style="fill:#1a1362;stroke:none"
               inkscape:connector-curvature="0" />
          </g>
          <path
             d="m 195.22959,355.40394 c 0,16.0075 -12.9775,28.985 -28.98625,28.985 -16.00625,0 -28.98374,-12.9775 -28.98374,-28.985 0,-16.00625 12.97749,-28.98375 28.98374,-28.98375 16.00875,0 28.98625,12.9775 28.98625,28.98375"
             id="path3069"
             style="fill:none;stroke:#ffffff;stroke-width:6.25003767;stroke-linecap:round;stroke-linejoin:round"
             inkscape:connector-curvature="0" />
          <path
             d="m 177.03459,366.19519 c -5.95875,5.96 -15.6225,5.95875 -21.58125,-0.001 -5.95875,-5.95875 -5.96,-15.62125 0,-21.58125 5.95875,-5.95875 15.6225,-5.95875 21.58125,0"
             id="path3071"
             style="fill:none;stroke:#ffffff;stroke-width:6.25003767;stroke-linecap:round;stroke-linejoin:round"
             inkscape:connector-curvature="0" />
        </g>
      </g>
    </g>
    <g
       transform="translate(-253.28375,0)"
       id="g3558">
      <g
         id="g3551">
        <g
           id="g3545">
          <g
             transform="matrix(1.25,0,0,1.25,-744.47539,-374.59482)"
             id="g3073">
            <path
               d="m 925.889,583.999 c 0,17.673 -14.327,32 -32,32 -17.673,0 -32,-14.327 -32,-32 0,-17.672 14.327,-32 32,-32 17.673,0 32,14.328 32,32 z"
               id="path3075"
               style="fill:#ffffff;stroke:none"
               inkscape:connector-curvature="0" />
          </g>
          <path
             d="m 401.87084,355.40394 c 0,16.0075 -12.9775,28.985 -28.985,28.985 -16.0075,0 -28.985,-12.9775 -28.985,-28.985 0,-16.00625 12.9775,-28.98375 28.985,-28.98375 16.0075,0 28.985,12.9775 28.985,28.98375"
             id="path3077"
             style="fill:none;stroke:#1a1362;stroke-width:6.25003767;stroke-linecap:round;stroke-linejoin:round"
             inkscape:connector-curvature="0" />
          <path
             d="m 383.67709,366.19519 c -5.96,5.96 -15.6225,5.95875 -21.58125,-0.001 -5.96,-5.95875 -5.96125,-15.62125 -0.001,-21.58125 5.96,-5.95875 15.6225,-5.95875 21.5825,0"
             id="path3079"
             style="fill:none;stroke:#1a1362;stroke-width:6.25003767;stroke-linecap:round;stroke-linejoin:round"
             inkscape:connector-curvature="0" />
        </g>
      </g>
    </g>
  </g>
</svg>
