<?xml version="1.0" encoding="UTF-8" standalone="no"?>
<!-- Created with Inkscape (http://www.inkscape.org/) -->

<svg
   xmlns:dc="http://purl.org/dc/elements/1.1/"
   xmlns:cc="http://creativecommons.org/ns#"
   xmlns:rdf="http://www.w3.org/1999/02/22-rdf-syntax-ns#"
   xmlns:svg="http://www.w3.org/2000/svg"
   xmlns="http://www.w3.org/2000/svg"
   version="1.1"
   width="159.05222"
   height="92.999603"
   id="svg3389">
  <defs
     id="defs3391" />
  <metadata
     id="metadata3394">
    <rdf:RDF>
      <cc:Work
         rdf:about="">
        <dc:format>image/svg+xml</dc:format>
        <dc:type
           rdf:resource="http://purl.org/dc/dcmitype/StillImage" />
        <dc:title></dc:title>
      </cc:Work>
    </rdf:RDF>
  </metadata>
  <g
     transform="translate(0.51076935,0.49273094)"
     id="g3618">
    <path
       d="m 58.801861,46.00707 c 0,-22.203108 18.088215,-40.2048131 40.400842,-40.2048131 l 0,80.4096251 c -22.312627,0 -40.400842,-17.999191 -40.400842,-40.204812 z"
       id="path3025"
       style="fill:#1a1362;stroke:none" />
    <path
       d="M 72.256604,61.939483 88.269225,46.008327 72.256604,30.074657"
       id="path3027"
       style="fill:none;stroke:#ffffff;stroke-width:5.03780079;stroke-linecap:round;stroke-linejoin:round" />
    <path
       d="m 99.202703,5.8022569 0,80.4096251 c -22.312627,0 -40.400842,-17.999191 -40.400842,-40.204812 0,-22.203108 18.088215,-40.2048131 40.400842,-40.2048131 z m 0,-6.28200194 0,0 c -25.7568,0 -46.713472,20.85373304 -46.713472,46.48681504 0,25.633082 20.956672,46.486815 46.713472,46.486815 3.487097,0 6.312637,-2.811824 6.312637,-6.282003 l 0,-80.4096251 c 0,-3.4701779 -2.82554,-6.28200194 -6.312637,-6.28200194 z"
       id="path3105"
       style="fill:#ffffff;stroke:none" />
  </g>
  <g
     transform="translate(1.0414394,0.49273094)"
     id="g3613">
    <path
       d="m 111.29729,46.00707 c 0,-22.203108 18.08823,-40.2048129 40.40085,-40.2048129 l 0,80.4096249 c -22.31262,0 -40.40085,-17.999191 -40.40085,-40.204812 z"
       id="path3037"
       style="fill:#ffffff;stroke:none" />
    <path
       d="M 124.75205,61.939483 140.76467,46.008327 124.75205,30.074657"
       id="path3039"
       style="fill:none;stroke:#1a1362;stroke-width:5.03780079;stroke-linecap:round;stroke-linejoin:round" />
    <path
       d="m 151.69814,5.8022571 0,80.4096249 c -22.31262,0 -40.40085,-17.999191 -40.40085,-40.204812 0,-22.203108 18.08823,-40.2048129 40.40085,-40.2048129 z m 0,-6.28200198 0,0 c -25.7568,0 -46.71347,20.85373388 -46.71347,46.48681488 0,25.633081 20.95667,46.486815 46.71347,46.486815 3.4871,0 6.31263,-2.811825 6.31263,-6.282003 l 0,-80.4096249 c 0,-3.4701779 -2.82553,-6.28200198 -6.31263,-6.28200198 z"
       id="path3109"
       style="fill:#ffffff;stroke:none" />
  </g>
  <g
     transform="translate(-0.00685065,0.49273094)"
     id="g3623">
    <g
       transform="matrix(1.2619048,0,0,1.2567513,-670.86588,-520.09533)"
       id="g3009">
      <path
         d="m 536.635,450.449 c 0,-17.672 14.327,-32 32,-32 l 0,64 c -17.673,0 -32,-14.326 -32,-32 z"
         id="path3011"
         style="fill:#395279;stroke:none" />
      <path
         d="m 563.07,481.956 c 1.809,0.317 3.667,0.492 5.565,0.492 l 0,-26.322 -7.451,-7.451 -14.489,12.996 -0.976,2.933 17.351,17.352 z"
         id="path3013"
         style="fill:#28395b;stroke:none" />
      <path
         d="m 547.292,463.13 12.683,-12.68 -12.683,-12.682"
         id="path3015"
         style="fill:none;stroke:#ffffff;stroke-width:3.99996996;stroke-linecap:round;stroke-linejoin:round" />
    </g>
    <path
       d="m 46.697326,5.7910259 0,80.4320871 c -22.301642,0 -40.3809516,-18.004219 -40.3809516,-40.216043 0,-22.20931 18.0793096,-40.2160441 40.3809516,-40.2160441 z m 0,-6.28375684 0,0 c -25.744119,0 -46.69047535,20.85955894 -46.69047535,46.49980094 0,25.640242 20.94635635,46.499801 46.69047535,46.499801 3.485381,0 6.309525,-2.81261 6.309525,-6.283758 l 0,-80.4320871 c 0,-3.4711473 -2.824144,-6.28375684 -6.309525,-6.28375684 z"
       id="path3751"
       style="fill:#ffffff;stroke:none" />
  </g>
</svg>
