<?xml version="1.0" encoding="utf-8"?>
<!-- Generator: Adobe Illustrator 16.0.3, SVG Export Plug-In . SVG Version: 6.00 Build 0)  -->
<!DOCTYPE svg PUBLIC "-//W3C//DTD SVG 1.1//EN" "http://www.w3.org/Graphics/SVG/1.1/DTD/svg11.dtd">
<svg version="1.1" id="Warstwa_3" xmlns="http://www.w3.org/2000/svg" xmlns:xlink="http://www.w3.org/1999/xlink" x="0px" y="0px"
	 width="272px" height="68px" viewBox="0 0 272 68" enable-background="new 0 0 272 68" xml:space="preserve">
<g>
	<g>
		<ellipse fill="#1B1464" cx="101.963" cy="34.001" rx="28.963" ry="28.999"/>
		<g>
			
				<rect x="83.409" y="27.205" fill="#FFFFFF" stroke="#FFFFFF" stroke-width="0.9056" stroke-linecap="round" stroke-linejoin="round" stroke-miterlimit="10" width="5.43" height="14.5"/>
			
				<polygon fill="#FFFFFF" stroke="#FFFFFF" stroke-width="0.9056" stroke-linecap="round" stroke-linejoin="round" stroke-miterlimit="10" points="
				102.416,49.939 92.459,41.527 92.459,27.36 102.416,18.063 			"/>
			
				<path fill="none" stroke="#FFFFFF" stroke-width="1.8113" stroke-linecap="round" stroke-linejoin="round" stroke-miterlimit="10" d="
				M106.476,29.629c2.411,2.414,2.411,6.328,0,8.74"/>
			
				<path fill="none" stroke="#FFFFFF" stroke-width="1.8113" stroke-linecap="round" stroke-linejoin="round" stroke-miterlimit="10" d="
				M110.84,25.257c4.822,4.829,4.822,12.656,0,17.482"/>
			
				<path fill="none" stroke="#FFFFFF" stroke-width="1.8113" stroke-linecap="round" stroke-linejoin="round" stroke-miterlimit="10" d="
				M115.205,20.888c7.232,7.243,7.232,18.981,0,26.222"/>
		</g>
	</g>
	<g>
		<path fill="#FFFFFF" d="M102.037,5C118.034,5,131,17.983,131,33.998c0,16.017-12.966,28.998-28.963,28.998
			c-15.995,0-28.963-12.981-28.963-28.998C73.074,17.983,86.042,5,102.037,5 M102.037,0C83.31,0,68.074,15.251,68.074,33.998
			c0,18.746,15.236,33.998,33.963,33.998S136,52.744,136,33.998C136,15.251,120.764,0,102.037,0L102.037,0z"/>
	</g>
</g>
<g>
	<g>
		<circle fill="#379B68" cx="170" cy="34" r="29"/>
		<path fill="#2D8A5C" d="M197.963,41.686l-19.145-19.145l-2.906,11.686l-11.825-11.825l-3.094,22.719l16.81,16.808
			C187.583,59.201,195.275,51.482,197.963,41.686z"/>
		
			<line fill="none" stroke="#FFFFFF" stroke-width="4.5311" stroke-linecap="round" stroke-linejoin="round" stroke-miterlimit="1" x1="162.296" y1="24.031" x2="162.296" y2="43.969"/>
		
			<line fill="none" stroke="#FFFFFF" stroke-width="4.5311" stroke-linecap="round" stroke-linejoin="round" stroke-miterlimit="1" x1="177.703" y1="24.031" x2="177.703" y2="43.969"/>
	</g>
	<g>
		<path fill="#FFFFFF" d="M170,5c16.016,0,29,12.984,29,29c0,16.016-12.984,29-29,29s-29-12.984-29-29C141,17.984,153.984,5,170,5
			 M170,0c-18.748,0-34,15.252-34,34c0,18.748,15.252,34,34,34s34-15.252,34-34C204,15.252,188.748,0,170,0L170,0z"/>
	</g>
</g>
<g>
	<g>
		<ellipse fill="#1B1464" cx="237.963" cy="34" rx="28.963" ry="29"/>
		
			<line fill="none" stroke="#FFFFFF" stroke-width="4.5283" stroke-linecap="round" stroke-linejoin="round" stroke-miterlimit="1" x1="230.27" y1="24.031" x2="230.27" y2="43.969"/>
		
			<line fill="none" stroke="#FFFFFF" stroke-width="4.5283" stroke-linecap="round" stroke-linejoin="round" stroke-miterlimit="1" x1="245.656" y1="24.031" x2="245.656" y2="43.969"/>
	</g>
	<g>
		<path fill="#FFFFFF" d="M238.037,5C254.034,5,267,17.984,267,34c0,16.016-12.966,29-28.963,29c-15.995,0-28.963-12.984-28.963-29
			C209.074,17.984,222.042,5,238.037,5 M238.037,0c-18.728,0-33.963,15.252-33.963,34c0,18.748,15.235,34,33.963,34
			S272,52.748,272,34C272,15.252,256.765,0,238.037,0L238.037,0z"/>
	</g>
</g>
<g>
	<g>
		<circle fill="#788CD2" cx="34" cy="34.001" r="29"/>
		<path fill="#6982B8" d="M61.1,44.327L35.02,17.689L24.881,31.601l-3.645-3.943h-6.268v13.87l21.518,21.347
			C47.702,61.854,57.24,54.452,61.1,44.327z"/>
		<g>
			
				<rect x="15.422" y="27.205" fill="#FFFFFF" stroke="#FFFFFF" stroke-width="0.9062" stroke-linecap="round" stroke-linejoin="round" stroke-miterlimit="10" width="5.438" height="14.5"/>
			
				<polygon fill="#FFFFFF" stroke="#FFFFFF" stroke-width="0.9062" stroke-linecap="round" stroke-linejoin="round" stroke-miterlimit="10" points="
				34.453,49.939 24.484,41.527 24.484,27.36 34.453,18.063 			"/>
			
				<path fill="none" stroke="#FFFFFF" stroke-width="1.8124" stroke-linecap="round" stroke-linejoin="round" stroke-miterlimit="10" d="
				M38.519,29.629c2.414,2.414,2.414,6.328,0,8.74"/>
			
				<path fill="none" stroke="#FFFFFF" stroke-width="1.8124" stroke-linecap="round" stroke-linejoin="round" stroke-miterlimit="10" d="
				M42.889,25.257c4.829,4.829,4.829,12.656,0,17.483"/>
			
				<path fill="none" stroke="#FFFFFF" stroke-width="1.8124" stroke-linecap="round" stroke-linejoin="round" stroke-miterlimit="10" d="
				M47.259,20.888c7.241,7.243,7.241,18.981,0,26.222"/>
		</g>
	</g>
	<g>
		<path fill="#FFFFFF" d="M34,5c16.016,0,29,12.983,29,28.998c0,16.017-12.984,28.998-29,28.998S5,50.015,5,33.998
			C5,17.983,17.984,5,34,5 M34,0C15.252,0,0,15.251,0,33.998c0,18.746,15.252,33.998,34,33.998s34-15.252,34-33.998
			C68,15.251,52.748,0,34,0L34,0z"/>
	</g>
</g>
</svg>
