<?xml version="1.0" encoding="UTF-8" standalone="no"?>
<!-- Created with Inkscape (http://www.inkscape.org/) -->

<svg
   xmlns:dc="http://purl.org/dc/elements/1.1/"
   xmlns:cc="http://creativecommons.org/ns#"
   xmlns:rdf="http://www.w3.org/1999/02/22-rdf-syntax-ns#"
   xmlns:svg="http://www.w3.org/2000/svg"
   xmlns="http://www.w3.org/2000/svg"
   version="1.1"
   width="277.5"
   height="133.94875"
   viewBox="0 0 222.00001 107.15899"
   id="svg3463"
   style="fill-rule:evenodd">
  <metadata
     id="metadata3505">
    <rdf:RDF>
      <cc:Work
         rdf:about="">
        <dc:format>image/svg+xml</dc:format>
        <dc:type
           rdf:resource="http://purl.org/dc/dcmitype/StillImage" />
        <dc:title></dc:title>
      </cc:Work>
    </rdf:RDF>
  </metadata>
  <defs
     id="defs3503" />
  <g
     transform="translate(0,3.4287706e-5)"
     id="g3540">
    <path
       d="m 61.027,49.05596 c -8.992,-11.095 -12.896,-22.175 -12.896,-44.055 l -11.131,0 -11.13,0 c 0,21.88 -3.905,32.96 -12.896,44.055 -4.727,5.833 -7.974,13.023 -7.974,21.103 0,17.645 14.356,32 32,32 17.645,0 32,-14.355 32,-32 0,-8.08 -3.246,-15.27 -7.973,-21.103 z"
       id="path3469"
       style="fill:#399f6c;stroke:none" />
    <path
       d="m 37.226,43.61296 c -14.704,0 -26.666,11.963 -26.666,26.667 0,14.704 11.962,26.667 26.666,26.667 14.704,0 26.667,-11.963 26.667,-26.667 0,-14.704 -11.963,-26.667 -26.667,-26.667 z"
       id="path3471"
       style="fill:#50cc8e;stroke:none" />
    <path
       d="m 44.549,95.91596 c 9.186,-2.629 16.355,-10.065 18.602,-19.404 l -7.919,-7.916 -19.583,5.455 -16.428,-5.455 9.142,9.142 -0.413,1.578 16.599,16.6 z"
       id="path3473"
       style="fill:#399f6c;stroke:none" />
    <path
       d="m 19.221,68.50496 17.778,7.148 17.781,-7.148 -17.781,-7.148 -17.778,7.148 z"
       id="path3475"
       style="fill:#ffffff;stroke:none" />
    <path
       d="m 37.363,77.61396 c -0.116,0.046 -0.241,0.071 -0.364,0.071 -0.124,0 -0.247,-0.025 -0.364,-0.071 l -9.473,-3.808 0,3.776 c 0,2.217 4.404,4.012 9.838,4.012 5.434,0 9.839,-1.795 9.839,-4.012 l 0,-3.776 -9.476,3.808 z"
       id="path3477"
       style="fill:#ffffff;stroke:none" />
    <path
       d="m 48.131,5.00096 c 0,21.88 3.904,32.96 12.896,44.055 4.727,5.833 7.973,13.023 7.973,21.103 0,17.645 -14.355,32 -32,32 -17.644,0 -32,-14.355 -32,-32 0,-8.08 3.247,-15.27 7.974,-21.103 8.991,-11.095 12.896,-22.175 12.896,-44.055 l 11.13,0 11.131,0 z m 0,-5.001 0,0 -11.131,0 -11.13,0 c -2.762,0 -5,2.239 -5,5.001 0,22.167 -4.14,31.478 -11.781,40.907 -5.946,7.339 -9.089,15.725 -9.089,24.251 0,20.401 16.599,37 37,37 20.401,0 37,-16.599 37,-37 0,-8.527 -3.142,-16.913 -9.088,-24.251 -7.64,-9.428 -11.781,-18.739 -11.781,-40.907 0,-2.762 -2.238,-5.001 -5,-5.001 z"
       id="path3495"
       style="fill:#ffffff;stroke:none" />
  </g>
  <g
     transform="translate(-90.132,3.4287706e-5)"
     id="g3548">
    <path
       d="m 225.159,49.05596 c -8.992,-11.095 -12.896,-22.175 -12.896,-44.055 l -11.131,0 -11.13,0 c 0,21.88 -3.905,32.96 -12.896,44.055 -4.727,5.833 -7.974,13.023 -7.974,21.103 0,17.645 14.355,32 32,32 17.645,0 32,-14.355 32,-32 0,-8.08 -3.246,-15.27 -7.973,-21.103 z"
       id="path3479"
       style="fill:#1a1362;stroke:none" />
    <path
       d="m 201.358,43.61296 c -14.704,0 -26.666,11.963 -26.666,26.667 0,14.704 11.962,26.667 26.666,26.667 14.704,0 26.666,-11.963 26.666,-26.667 0,-14.704 -11.962,-26.667 -26.666,-26.667 z"
       id="path3481"
       style="fill:#ffffff;stroke:none" />
    <path
       d="m 183.353,68.50496 17.778,7.148 17.781,-7.148 -17.781,-7.148 -17.778,7.148 z"
       id="path3483"
       style="fill:#1a1362;stroke:none" />
    <path
       d="m 201.495,77.61396 c -0.116,0.046 -0.241,0.071 -0.364,0.071 -0.124,0 -0.247,-0.025 -0.364,-0.071 l -9.473,-3.808 0,3.776 c 0,2.217 4.404,4.012 9.838,4.012 5.433,0 9.839,-1.795 9.839,-4.012 l 0,-3.776 -9.476,3.808 z"
       id="path3485"
       style="fill:#1a1362;stroke:none" />
    <path
       d="m 212.263,5.00096 c 0,21.88 3.904,32.96 12.896,44.055 4.727,5.833 7.973,13.023 7.973,21.103 0,17.645 -14.355,32 -32,32 -17.645,0 -32,-14.355 -32,-32 0,-8.08 3.247,-15.27 7.974,-21.103 8.991,-11.095 12.896,-22.175 12.896,-44.055 l 11.13,0 11.131,0 z m 0,-5.001 0,0 -11.131,0 -11.13,0 c -2.762,0 -5,2.239 -5,5.001 0,22.167 -4.14,31.478 -11.781,40.907 -5.946,7.339 -9.089,15.725 -9.089,24.251 0,20.401 16.598,37 37,37 20.402,0 37,-16.599 37,-37 0,-8.527 -3.143,-16.913 -9.088,-24.251 -7.641,-9.428 -11.781,-18.739 -11.781,-40.907 0,-2.762 -2.239,-5.001 -5,-5.001 z"
       id="path3497"
       style="fill:#ffffff;stroke:none" />
  </g>
  <g
     transform="translate(-179.75,3.4287706e-5)"
     id="g3555">
    <path
       d="m 388.777,49.05596 c -8.992,-11.095 -12.896,-22.175 -12.896,-44.055 l -11.131,0 -11.13,0 c 0,21.88 -3.905,32.96 -12.896,44.055 -4.727,5.833 -7.974,13.023 -7.974,21.103 0,17.645 14.356,32 32,32 17.645,0 32,-14.355 32,-32 0,-8.08 -3.246,-15.27 -7.973,-21.103 z"
       id="path3487"
       style="fill:#ffffff;stroke:none" />
    <path
       d="m 364.976,43.61296 c -14.704,0 -26.666,11.963 -26.666,26.667 0,14.704 11.962,26.667 26.666,26.667 14.704,0 26.667,-11.963 26.667,-26.667 0,-14.704 -11.963,-26.667 -26.667,-26.667 z"
       id="path3489"
       style="fill:#1a1362;stroke:none" />
    <path
       d="m 346.971,68.50496 17.778,7.148 17.781,-7.148 -17.781,-7.148 -17.778,7.148 z"
       id="path3491"
       style="fill:#ffffff;stroke:none" />
    <path
       d="m 365.113,77.61396 c -0.116,0.046 -0.241,0.071 -0.364,0.071 -0.124,0 -0.247,-0.025 -0.364,-0.071 l -9.473,-3.808 0,3.776 c 0,2.217 4.404,4.012 9.838,4.012 5.434,0 9.839,-1.795 9.839,-4.012 l 0,-3.776 -9.476,3.808 z"
       id="path3493"
       style="fill:#ffffff;stroke:none" />
    <path
       d="m 375.881,5.00096 c 0,21.88 3.904,32.96 12.896,44.055 4.727,5.833 7.973,13.023 7.973,21.103 0,17.645 -14.355,32 -32,32 -17.644,0 -32,-14.355 -32,-32 0,-8.08 3.247,-15.27 7.974,-21.103 8.991,-11.095 12.896,-22.175 12.896,-44.055 l 11.13,0 11.131,0 z m 0,-5.001 0,0 -11.131,0 -11.13,0 c -2.761,0 -5,2.239 -5,5.001 0,22.167 -4.14,31.478 -11.781,40.907 -5.946,7.339 -9.089,15.725 -9.089,24.251 0,20.401 16.599,37 37,37 20.402,0 37,-16.599 37,-37 0,-8.527 -3.142,-16.913 -9.088,-24.251 -7.641,-9.428 -11.781,-18.739 -11.781,-40.907 0,-2.762 -2.238,-5.001 -5,-5.001 z"
       id="path3499"
       style="fill:#ffffff;stroke:none" />
  </g>
</svg>
