<?xml version="1.0" encoding="utf-8"?>
<!-- Generator: Adobe Illustrator 15.0.2, SVG Export Plug-In . SVG Version: 6.00 Build 0)  -->
<!DOCTYPE svg PUBLIC "-//W3C//DTD SVG 1.1//EN" "http://www.w3.org/Graphics/SVG/1.1/DTD/svg11.dtd">
<svg version="1.1" id="Warstwa_1" xmlns="http://www.w3.org/2000/svg" xmlns:xlink="http://www.w3.org/1999/xlink" x="0px" y="0px"
	 width="246px" height="121.945px" viewBox="0 0 246 121.945" enable-background="new 0 0 246 121.945" xml:space="preserve">
<g id="Warstwa_2">
</g>
<g>
	<path fill="#3CA06E" d="M69.908,55.504C59.089,42.156,54.393,28.824,54.393,2.5H41H27.609c0,26.324-4.698,39.655-15.517,53.004
		C6.406,62.524,2.5,71.17,2.5,80.893c0,21.229,17.271,38.5,38.5,38.5s38.5-17.271,38.5-38.5C79.5,71.17,75.595,62.524,69.908,55.504
		z"/>
	<g>
		<g>
			<path fill="#50CC8E" d="M41.271,48.956c-17.691,0-32.083,14.393-32.083,32.083c0,17.689,14.392,32.084,32.083,32.084
				c17.69,0,32.083-14.395,32.083-32.084C73.354,63.348,58.962,48.956,41.271,48.956z"/>
			<path fill="#3CA06E" d="M50.081,111.883c11.052-3.164,19.679-12.108,22.381-23.346l-9.526-9.522l-23.562,6.563l-19.766-6.563
				l11,10.998l-0.495,1.897L50.081,111.883z"/>
			<polygon fill="#FFFFFF" points="19.608,78.906 40.999,87.504 62.393,78.906 40.999,70.302 			"/>
			<g>
				<path fill="#FFFFFF" d="M41.437,89.865c-0.14,0.055-0.29,0.086-0.438,0.086c-0.149,0-0.297-0.031-0.438-0.086l-11.397-4.582
					v4.541c0,2.67,5.299,4.826,11.836,4.826s11.838-2.156,11.838-4.826v-4.541L41.437,89.865z"/>
			</g>
		</g>
	</g>
	<path fill="none" stroke="#FFFFFF" stroke-width="5" stroke-miterlimit="10" d="M69.908,55.504
		C59.089,42.156,54.393,28.824,54.393,2.5H41H27.609c0,26.324-4.698,39.655-15.517,53.004C6.406,62.524,2.5,71.17,2.5,80.893
		c0,21.229,17.271,38.5,38.5,38.5s38.5-17.271,38.5-38.5C79.5,71.17,75.595,62.524,69.908,55.504z"/>
	<path fill="#1B1464" d="M151.91,55.45c-10.818-13.35-15.516-26.681-15.516-53.005H123h-13.39c0,26.324-4.698,39.655-15.516,53.005
		c-5.688,7.02-9.594,15.667-9.594,25.389c0,21.229,17.271,38.5,38.5,38.5c21.229,0,38.5-17.271,38.5-38.5
		C161.502,71.116,157.596,62.469,151.91,55.45z"/>
	<g>
		<g>
			<path fill="#FFFFFF" d="M123.248,48.903c-17.69,0-32.083,14.393-32.083,32.083c0,17.689,14.392,32.084,32.083,32.084
				c17.689,0,32.083-14.395,32.083-32.084C155.331,63.294,140.939,48.903,123.248,48.903z"/>
			<polygon fill="#1B1464" points="101.587,78.852 122.977,87.45 144.37,78.852 122.977,70.249 			"/>
			<g>
				<path fill="#1B1464" d="M123.414,89.811c-0.14,0.056-0.29,0.086-0.438,0.086c-0.149,0-0.297-0.03-0.438-0.086l-11.397-4.582
					v4.541c0,2.67,5.299,4.827,11.836,4.827c6.537,0,11.837-2.157,11.837-4.827v-4.541L123.414,89.811z"/>
			</g>
		</g>
	</g>
	<path fill="none" stroke="#FFFFFF" stroke-width="5" stroke-miterlimit="10" d="M151.91,55.45
		c-10.818-13.35-15.516-26.681-15.516-53.005H123h-13.39c0,26.324-4.698,39.655-15.516,53.005
		c-5.688,7.02-9.594,15.667-9.594,25.389c0,21.229,17.271,38.5,38.5,38.5c21.229,0,38.5-17.271,38.5-38.5
		C161.502,71.116,157.596,62.469,151.91,55.45z"/>
	<path fill="#FFFFFF" d="M233.907,55.45C223.09,42.1,218.393,28.769,218.393,2.445H205h-13.391c0,26.324-4.697,39.655-15.519,53.005
		c-5.687,7.02-9.591,15.667-9.591,25.389c0,21.229,17.271,38.5,38.5,38.5s38.5-17.271,38.5-38.5
		C243.501,71.116,239.598,62.469,233.907,55.45z"/>
	<g>
		<g>
			<path fill="#1B1464" d="M205.271,48.903c-17.69,0-32.084,14.393-32.084,32.083c0,17.689,14.394,32.084,32.084,32.084
				c17.688,0,32.084-14.395,32.084-32.084C237.355,63.294,222.963,48.903,205.271,48.903z"/>
			<polygon fill="#FFFFFF" points="183.607,78.852 205,87.45 226.395,78.852 205,70.249 			"/>
			<g>
				<path fill="#FFFFFF" d="M205.438,89.811c-0.141,0.056-0.291,0.086-0.438,0.086c-0.148,0-0.297-0.03-0.438-0.086l-11.396-4.582
					v4.541c0,2.67,5.299,4.827,11.836,4.827s11.837-2.157,11.837-4.827v-4.541L205.438,89.811z"/>
			</g>
		</g>
	</g>
	<path fill="none" stroke="#FFFFFF" stroke-width="5" stroke-miterlimit="10" d="M233.907,55.45
		C223.09,42.1,218.393,28.769,218.393,2.445H205h-13.391c0,26.324-4.697,39.655-15.519,53.005
		c-5.687,7.02-9.591,15.667-9.591,25.389c0,21.229,17.271,38.5,38.5,38.5s38.5-17.271,38.5-38.5
		C243.501,71.116,239.598,62.469,233.907,55.45z"/>
</g>
</svg>
