<?xml version="1.0" encoding="UTF-8" standalone="no"?>
<!-- Created with Inkscape (http://www.inkscape.org/) -->

<svg
   xmlns:dc="http://purl.org/dc/elements/1.1/"
   xmlns:cc="http://creativecommons.org/ns#"
   xmlns:rdf="http://www.w3.org/1999/02/22-rdf-syntax-ns#"
   xmlns:svg="http://www.w3.org/2000/svg"
   xmlns="http://www.w3.org/2000/svg"
   version="1.1"
   width="240.00002"
   height="80.000122"
   id="svg3322">
  <defs
     id="defs3324" />
  <metadata
     id="metadata3327">
    <rdf:RDF>
      <cc:Work
         rdf:about="">
        <dc:format>image/svg+xml</dc:format>
        <dc:type
           rdf:resource="http://purl.org/dc/dcmitype/StillImage" />
        <dc:title></dc:title>
      </cc:Work>
    </rdf:RDF>
  </metadata>
  <g
     transform="translate(-254.99999,-492.36212)"
     id="layer1">
    <g
       id="g3367">
      <g
         transform="matrix(1.25,0,0,1.25,188.90999,568.803)"
         id="g3277">
        <path
           d="m 116.872,-29.152704 c 0,17.6717 -14.327,32.0000994 -32,32.0000994 -17.6729,0 -32,-14.3283994 -32,-32.0000994 0,-17.6737 14.3271,-32 32,-32 17.673,0 32,14.3263 32,32 z"
           id="path2991"
           style="fill:#778ad1;stroke:none" />
        <path
           d="m 93.0605,-45.465204 -13.1718,0.6622 -6.3975,10.1502 8.5623,8.5627 0.3331,1.1035 0.1018,15.7616998 10.9139,10.9130996 c 11.3927,-3.1447 20.2347,-12.4247994 22.7437,-24.0663994 l -23.0855,-23.087 z m -0.7745,15.205 0,0 c -4.5175,5.5197 -8.6034,2.1835 -8.6034,2.1835 0,-5.3064 4.3007,-9.6071 9.6063,-9.6071 0,0 3.5147,1.9063 -1.0029,7.4236 z"
           id="path2993"
           style="fill:#6982b8;stroke:none" />
        <path
           d="m 74.9306,-36.298304 c 0,-5.3515 4.4637,-9.788 9.8164,-9.788 5.3515,0 9.502,4.288 9.502,9.6398 0,5.3515 -3.8769,9.6395 -9.877,9.6395"
           id="path2995"
           style="fill:none;stroke:#ffffff;stroke-width:5.00003004;stroke-linecap:round;stroke-linejoin:round" />
        <path
           d="m 84.372,-26.807004 0,6.6543"
           id="path2997"
           style="fill:none;stroke:#ffffff;stroke-width:5.00003004;stroke-linecap:round;stroke-linejoin:round" />
        <path
           d="m 84.372,-11.152704 0,1.0001"
           id="path2999"
           style="fill:none;stroke:#ffffff;stroke-width:5.00003004;stroke-linecap:round;stroke-linejoin:round" />
      </g>
      <g
         transform="matrix(1.25,0,0,1.25,63.729995,568.803)"
         id="g3284">
        <path
           d="m 281.016,-29.152704 c 0,17.6717 -14.327,32.0000994 -32,32.0000994 -17.673,0 -32,-14.3283994 -32,-32.0000994 0,-17.6737 14.327,-32 32,-32 17.673,0 32,14.3263 32,32 z"
           id="path3001"
           style="fill:#1a1362;stroke:none" />
        <path
           d="m 239.075,-36.298304 c 0,-5.3515 4.463,-9.788 9.816,-9.788 5.352,0 9.502,4.288 9.502,9.6398 0,5.3515 -3.877,9.6395 -9.877,9.6395"
           id="path3003"
           style="fill:none;stroke:#ffffff;stroke-width:5.00003004;stroke-linecap:round;stroke-linejoin:round" />
        <path
           d="m 248.516,-26.807004 0,6.6543"
           id="path3005"
           style="fill:none;stroke:#ffffff;stroke-width:5.00003004;stroke-linecap:round;stroke-linejoin:round" />
        <path
           d="m 248.516,-11.152704 0,1.0001"
           id="path3007"
           style="fill:none;stroke:#ffffff;stroke-width:5.00003004;stroke-linecap:round;stroke-linejoin:round" />
      </g>
      <g
         transform="matrix(1.25,0,0,1.25,-61.269995,568.803)"
         id="g3290">
        <path
           d="m 445.016,-29.152704 c 0,17.6717 -14.327,32.0000994 -32,32.0000994 -17.673,0 -32,-14.3283994 -32,-32.0000994 0,-17.6737 14.327,-32 32,-32 17.673,0 32,14.3263 32,32 z"
           id="path3009"
           style="fill:#ffffff;stroke:none" />
        <path
           d="m 403.075,-36.298304 c 0,-5.3515 4.464,-9.788 9.816,-9.788 5.351,0 9.502,4.288 9.502,9.6398 0,5.3515 -3.877,9.6395 -9.877,9.6395"
           id="path3011"
           style="fill:none;stroke:#1a1362;stroke-width:5.00003004;stroke-linecap:round;stroke-linejoin:round" />
        <path
           d="m 412.516,-26.807004 0,6.6543"
           id="path3013"
           style="fill:none;stroke:#1a1362;stroke-width:5.00003004;stroke-linecap:round;stroke-linejoin:round" />
        <path
           d="m 412.516,-11.152704 0,1.0001"
           id="path3015"
           style="fill:none;stroke:#1a1362;stroke-width:5.00003004;stroke-linecap:round;stroke-linejoin:round" />
      </g>
    </g>
  </g>
</svg>
