<?xml version="1.0" encoding="utf-8"?>
<!-- Generator: Adobe Illustrator 16.0.3, SVG Export Plug-In . SVG Version: 6.00 Build 0)  -->
<!DOCTYPE svg PUBLIC "-//W3C//DTD SVG 1.1//EN" "http://www.w3.org/Graphics/SVG/1.1/DTD/svg11.dtd">
<svg version="1.1" id="Warstwa_1" xmlns="http://www.w3.org/2000/svg" xmlns:xlink="http://www.w3.org/1999/xlink" x="0px" y="0px"
	 width="206.997px" height="69px" viewBox="0 0 206.997 69" enable-background="new 0 0 206.997 69" xml:space="preserve">
<g>
	<circle fill="#FFFFFF" cx="34.5" cy="34.5" r="32"/>
	<path fill="#D1D3D4" d="M39.713,66.071c11.395-1.867,20.761-9.75,24.732-20.283L38.414,19.756L17.536,34.205l5.582,5.583
		l0.655,1.76l-1.999,6.584L39.713,66.071z"/>
	
		<polygon fill="#3C527A" stroke="#3C527A" stroke-width="2" stroke-linecap="round" stroke-linejoin="round" stroke-miterlimit="10" points="
		34.501,17.23 18.23,33.5 22.5,33.5 22.5,47.5 30.5,47.5 30.5,35.5 38.5,35.5 38.5,47.5 46.5,47.5 46.5,33.5 50.771,33.5 	"/>
	<circle fill="none" stroke="#FFFFFF" stroke-width="5" stroke-miterlimit="10" cx="34.5" cy="34.5" r="32"/>
</g>
<g>
	<circle fill="#1B1464" cx="103.497" cy="34.5" r="32"/>
	
		<polygon fill="#FFFFFF" stroke="#FFFFFF" stroke-width="2" stroke-linecap="round" stroke-linejoin="round" stroke-miterlimit="10" points="
		103.498,17.23 87.228,33.5 91.497,33.5 91.497,47.5 99.497,47.5 99.497,35.5 107.497,35.5 107.497,47.5 115.497,47.5 115.497,33.5 
		119.768,33.5 	"/>
	<circle fill="none" stroke="#FFFFFF" stroke-width="5" stroke-miterlimit="10" cx="103.497" cy="34.5" r="32"/>
</g>
<g>
	<circle fill="#FFFFFF" cx="172.497" cy="34.5" r="32"/>
	
		<polygon fill="#1B1464" stroke="#1B1464" stroke-width="2" stroke-linecap="round" stroke-linejoin="round" stroke-miterlimit="10" points="
		172.498,17.23 156.228,33.5 160.497,33.5 160.497,47.5 168.497,47.5 168.497,35.5 176.497,35.5 176.497,47.5 184.497,47.5 
		184.497,33.5 188.768,33.5 	"/>
	<circle fill="none" stroke="#FFFFFF" stroke-width="5" stroke-miterlimit="10" cx="172.497" cy="34.5" r="32"/>
</g>
</svg>
