<?xml version="1.0" encoding="UTF-8" standalone="no"?>
<!-- Created with Inkscape (http://www.inkscape.org/) -->

<svg
   xmlns:dc="http://purl.org/dc/elements/1.1/"
   xmlns:cc="http://creativecommons.org/ns#"
   xmlns:rdf="http://www.w3.org/1999/02/22-rdf-syntax-ns#"
   xmlns:svg="http://www.w3.org/2000/svg"
   xmlns="http://www.w3.org/2000/svg"
   version="1.1"
   width="239.99875"
   height="80"
   id="svg3389">
  <defs
     id="defs3391" />
  <metadata
     id="metadata3394">
    <rdf:RDF>
      <cc:Work
         rdf:about="">
        <dc:format>image/svg+xml</dc:format>
        <dc:type
           rdf:resource="http://purl.org/dc/dcmitype/StillImage" />
        <dc:title></dc:title>
      </cc:Work>
    </rdf:RDF>
  </metadata>
  <g
     transform="translate(-129.73187,-492.36218)"
     id="layer1">
    <g
       transform="matrix(1.25,0,0,1.25,-6.9540625,345.44049)"
       id="g3336">
      <g
         transform="translate(-408.84525,-5.0946449)"
         id="g2993">
        <path
           d="m 582.194,154.632 c 0,17.673 -14.328,32 -32,32 -17.673,0 -32,-14.327 -32,-32 0,-17.673 14.327,-32 32,-32 17.672,0 32,14.327 32,32 z"
           id="path2995"
           style="fill:#ffffff;stroke:none" />
        <path
           d="m 555.406,186.202 c 11.395,-1.867 20.761,-9.75 24.733,-20.283 l -26.031,-26.031 -20.878,14.449 5.582,5.582 0.655,1.761 -1.999,6.584 17.938,17.938 z"
           id="path2997"
           style="fill:#d1d2d2;stroke:none" />
        <path
           d="m 550.194,137.362 -16.27,16.27 4.27,0 0,14 8,0 0,-12 8,0 0,12 7.999,0 0,-14 4.271,0 -16.27,-16.27 z"
           id="path2999"
           style="fill:#395279;stroke:#395279;stroke-width:2.00012994;stroke-linejoin:round" />
      </g>
    </g>
    <g
       transform="matrix(1.25,0,0,1.25,-132.22281,345.44049)"
       id="g3347">
      <g
         id="g3342">
        <g
           transform="translate(-408.84525,-5.0946449)"
           id="g3041">
          <path
             d="m 746.408,154.632 c 0,17.673 -14.327,32 -31.999,32 -17.674,0 -32,-14.327 -32,-32 0,-17.673 14.326,-32 32,-32 17.672,0 31.999,14.327 31.999,32 z"
             id="path3043"
             style="fill:#1a1362;stroke:none" />
          <path
             d="m 714.409,137.362 -16.27,16.27 4.269,0 0,14 8,0 0,-12 8.001,0 0,12 7.999,0 0,-14 4.271,0 -16.27,-16.27 z"
             id="path3045"
             style="fill:#ffffff;stroke:#ffffff;stroke-width:2.00012994;stroke-linejoin:round" />
        </g>
      </g>
    </g>
    <g
       transform="matrix(1.25,0,0,1.25,-257.49156,345.44049)"
       id="g3358">
      <g
         id="g3353">
        <g
           transform="translate(-408.84525,-5.0946449)"
           id="g3047">
          <path
             d="m 910.623,154.632 c 0,17.673 -14.327,32 -32,32 -17.673,0 -32,-14.327 -32,-32 0,-17.673 14.327,-32 32,-32 17.673,0 32,14.327 32,32 z"
             id="path3049"
             style="fill:#ffffff;stroke:none" />
          <path
             d="m 878.624,137.362 -16.27,16.27 4.269,0 0,14 8,0 0,-12 8,0 0,12 8,0 0,-14 4.271,0 -16.27,-16.27 z"
             id="path3051"
             style="fill:#1a1362;stroke:#1a1362;stroke-width:2.00012994;stroke-linejoin:round" />
        </g>
      </g>
    </g>
  </g>
</svg>
