<?xml version="1.0" encoding="UTF-8" standalone="no"?>
<!-- Created with Inkscape (http://www.inkscape.org/) -->

<svg
   xmlns:dc="http://purl.org/dc/elements/1.1/"
   xmlns:cc="http://creativecommons.org/ns#"
   xmlns:rdf="http://www.w3.org/1999/02/22-rdf-syntax-ns#"
   xmlns:svg="http://www.w3.org/2000/svg"
   xmlns="http://www.w3.org/2000/svg"
   version="1.1"
   width="240.00002"
   height="80.000122"
   id="svg3322">
  <defs
     id="defs3324" />
  <metadata
     id="metadata3327">
    <rdf:RDF>
      <cc:Work
         rdf:about="">
        <dc:format>image/svg+xml</dc:format>
        <dc:type
           rdf:resource="http://purl.org/dc/dcmitype/StillImage" />
        <dc:title></dc:title>
      </cc:Work>
    </rdf:RDF>
  </metadata>
  <g
     transform="translate(123.26529,-21.09773)"
     id="g3436">
    <path
       d="m -43.265287,61.097792 c 0,22.09125 -17.9075,39.999998 -40,39.999998 -22.092503,0 -40.000003,-17.908748 -40.000003,-39.999998 0,-22.09125 17.9075,-40 40.000003,-40 22.0925,0 40,17.90875 40,40 z"
       id="path3081"
       style="fill:#ea562c;stroke:none" />
    <path
       d="m -75.662787,100.36654 c 16.55875,-3.187498 29.48125,-16.577498 31.96125,-33.377498 l -29.56625,-29.56625 -10.44,10.105 5.8275,5.82625 4.615,4.20125 -26.37125,18.8375 23.97375,23.973748 z"
       id="path3083"
       style="fill:#c94b2b;stroke:none" />
    <g
       transform="matrix(1.25,0,0,1.25,-983.26526,-335.01595)"
       id="g3085">
      <path
         d="m 726.9,320.904 c 0,6.464 -5.239,11.703 -11.703,11.703 -6.465,0 -11.704,-5.239 -11.704,-11.703 0,-6.463 5.239,-11.703 11.704,-11.703 6.464,0 11.703,5.24 11.703,11.703 z"
         id="path3087"
         style="fill:#ffffff;stroke:none" />
      <path
         d="m 736.504,320.904 c 0,6.464 -5.239,11.703 -11.704,11.703 -6.463,0 -11.702,-5.239 -11.702,-11.703 0,-6.463 5.239,-11.703 11.702,-11.703 6.465,0 11.704,5.24 11.704,11.703 z"
         id="path3089"
         style="fill:#ffffff;stroke:none" />
      <path
         d="m 728.044,298.268 c -0.019,-0.254 -0.221,-0.457 -0.476,-0.476 -0.377,-0.026 -0.738,-0.04 -1.081,-0.04 -2.616,0 -4.548,0.757 -5.743,2.248 -1.905,2.38 -1.185,5.716 -1.154,5.857 0.043,0.194 0.195,0.346 0.388,0.389 0.029,0.006 0.71,0.156 1.664,0.156 l 10e-4,0 c 1.389,0 3.342,-0.317 4.748,-1.827 1.298,-1.394 1.853,-3.516 1.653,-6.307 z"
         id="path3091"
         style="fill:#ffffff;stroke:none" />
    </g>
  </g>
  <g
     transform="translate(20.769055,-21.09773)"
     id="g3450">
    <path
       d="m 219.23096,61.097792 c 0,22.09125 -17.9075,39.999998 -40,39.999998 -22.0925,0 -40,-17.908748 -40,-39.999998 0,-22.09125 17.9075,-40 40,-40 22.0925,0 40,17.90875 40,40 z"
       id="path3093"
       style="fill:#ffffff;stroke:none" />
    <g
       transform="matrix(1.25,0,0,1.25,-983.26526,-335.01595)"
       id="g3095">
      <path
         d="m 934.797,309.201 c -1.713,0 -3.335,0.377 -4.801,1.038 -1.467,-0.661 -3.089,-1.038 -4.802,-1.038 -6.464,0 -11.704,5.24 -11.704,11.703 0,6.464 5.24,11.703 11.704,11.703 1.713,0 3.335,-0.377 4.802,-1.038 1.466,0.661 3.088,1.038 4.801,1.038 6.466,0 11.704,-5.239 11.704,-11.703 0,-6.463 -5.238,-11.703 -11.704,-11.703 z"
         id="path3097"
         style="fill:#27345f;stroke:none" />
      <path
         d="m 929.976,306.246 c 0.028,0.006 0.708,0.156 1.663,0.156 l 0,0 c 1.391,0 3.344,-0.317 4.749,-1.827 1.297,-1.394 1.854,-3.516 1.653,-6.307 -0.017,-0.254 -0.221,-0.457 -0.475,-0.476 -0.377,-0.026 -0.739,-0.04 -1.082,-0.04 -2.615,0 -4.547,0.757 -5.743,2.248 -1.906,2.38 -1.186,5.716 -1.154,5.857 0.044,0.194 0.195,0.346 0.389,0.389 z"
         id="path3099"
         style="fill:#27345f;stroke:none" />
    </g>
  </g>
  <g
     transform="translate(72.017794,-21.09773)"
     id="g3444">
    <path
       d="m 87.982213,61.097792 c 0,22.09125 -17.9075,39.999998 -40,39.999998 -22.0925,0 -39.9999996,-17.908748 -39.9999996,-39.999998 0,-22.09125 17.9074996,-40 39.9999996,-40 22.0925,0 40,17.90875 40,40 z"
       id="path3101"
       style="fill:#27345f;stroke:none" />
    <g
       transform="matrix(1.25,0,0,1.25,-983.26526,-335.01595)"
       id="g3103">
      <path
         d="m 829.798,309.201 c -1.713,0 -3.335,0.377 -4.801,1.038 -1.467,-0.661 -3.089,-1.038 -4.802,-1.038 -6.464,0 -11.704,5.24 -11.704,11.703 0,6.464 5.24,11.703 11.704,11.703 1.713,0 3.335,-0.377 4.802,-1.038 1.466,0.661 3.088,1.038 4.801,1.038 6.466,0 11.704,-5.239 11.704,-11.703 0,-6.463 -5.238,-11.703 -11.704,-11.703 z"
         id="path3105"
         style="fill:#ffffff;stroke:none" />
      <path
         d="m 824.977,306.246 c 0.028,0.006 0.709,0.156 1.663,0.156 l 10e-4,0 c 1.39,0 3.343,-0.317 4.748,-1.827 1.298,-1.394 1.854,-3.516 1.653,-6.307 -0.017,-0.254 -0.22,-0.457 -0.474,-0.476 -0.378,-0.026 -0.739,-0.04 -1.082,-0.04 -2.616,0 -4.548,0.757 -5.743,2.248 -1.906,2.38 -1.186,5.716 -1.155,5.857 0.044,0.194 0.196,0.346 0.389,0.389 z"
         id="path3107"
         style="fill:#ffffff;stroke:none" />
    </g>
  </g>
</svg>
