<?xml version="1.0" encoding="UTF-8" standalone="no"?>
<!-- Created with Inkscape (http://www.inkscape.org/) -->

<svg
   xmlns:dc="http://purl.org/dc/elements/1.1/"
   xmlns:cc="http://creativecommons.org/ns#"
   xmlns:rdf="http://www.w3.org/1999/02/22-rdf-syntax-ns#"
   xmlns:svg="http://www.w3.org/2000/svg"
   xmlns="http://www.w3.org/2000/svg"
   version="1.1"
   width="240.00002"
   height="80.000122"
   id="svg3322">
  <defs
     id="defs3324" />
  <metadata
     id="metadata3327">
    <rdf:RDF>
      <cc:Work
         rdf:about="">
        <dc:format>image/svg+xml</dc:format>
        <dc:type
           rdf:resource="http://purl.org/dc/dcmitype/StillImage" />
        <dc:title></dc:title>
      </cc:Work>
    </rdf:RDF>
  </metadata>
  <g
     transform="matrix(1.25,0,0,1.25,-134.22484,-161.74064)"
     id="g3236">
    <path
       d="m 171.37987,161.39256 c 0,17.673 -14.327,32 -32,32 -17.673,0 -32,-14.327 -32,-32 0,-17.673 14.327,-32 32,-32 17.673,0 32,14.327 32,32 z"
       id="path3035"
       style="fill:#30995f;stroke:none" />
    <path
       d="m 171.24487,164.25656 -12.215,-12.215 -4.557,-2.181 -5.453,-0.093 -4.263,2.291 -7.439,15.396 -15.939,-5.312 -4.452,3.765 27.14,27.14 c 14.521,-2.132 25.867,-14.017 27.178,-28.791 z"
       id="path3037"
       style="fill:#288956;stroke:none" />
    <g
       transform="translate(-580.62013,-230.49744)"
       id="g3039">
      <path
         d="m 711.788,385.342 4.85,10.628 10e-4,0 3.627,7.95 1.223,2.678 13.5,-6.159 -9.701,-21.258 -13.5,6.161 z"
         id="path3041"
         style="fill:#ffffff;stroke:none" />
      <path
         d="m 721.489,406.598 -1.223,-2.679 -3.627,-7.949 -10e-4,0 -4.85,-10.628 13.5,-6.161 9.701,21.257 -13.5,6.16 z m -17,-13.053 c 0.107,-0.048 0.19,-0.137 0.231,-0.247 0.041,-0.11 0.037,-0.231 -0.012,-0.338 l -0.262,-0.574 11.466,4.121 4.263,9.341 -16.522,-11.921 0.836,-0.382 z m -5.87,1.707 2.774,-7.429 2.327,5.102 -5.101,2.327 z m 27.29,-16.84 c -0.102,-0.222 -0.363,-0.321 -0.586,-0.218 l -14.304,6.527 c -0.106,0.048 -0.189,0.138 -0.23,0.247 -0.041,0.11 -0.037,0.232 0.012,0.338 l 4.598,10.077 -11.466,-4.12 -2.179,-4.778 c -0.074,-0.162 -0.24,-0.256 -0.417,-0.258 -0.179,0.006 -0.336,0.12 -0.399,0.287 l -3.52,9.428 c -0.063,0.167 -0.018,0.356 0.113,0.478 0.083,0.078 0.191,0.118 0.301,0.118 0.062,0 0.124,-0.013 0.183,-0.04 l 4.713,-2.149 18.283,13.193 c 0.004,0.003 0.01,0.001 0.014,0.004 0.071,0.049 0.154,0.077 0.241,0.078 0.001,0 0.003,10e-4 0.004,10e-4 l 0.01,0 c 0.072,0.002 0.14,-0.021 0.204,-0.053 l 14.274,-6.513 c 0.106,-0.048 0.189,-0.138 0.231,-0.247 0.041,-0.11 0.036,-0.232 -0.013,-0.339 l -10.067,-22.061 z"
         id="path3043"
         style="fill:#ffffff;stroke:none" />
      <path
         d="m 715.912,396.507 -11.466,-4.121 0.261,0.574 c 0.049,0.107 0.054,0.229 0.013,0.339 -0.041,0.109 -0.124,0.198 -0.231,0.247 l -0.836,0.381 16.522,11.922 -4.263,-9.342 z"
         id="path3045"
         style="fill:#ffffff;stroke:none" />
      <path
         d="m 740.92,384.4 c -0.939,-2.058 -2.623,-3.627 -4.742,-4.418 -2.118,-0.791 -4.419,-0.71 -6.477,0.23 -0.503,0.229 -0.724,0.822 -0.495,1.324 0.23,0.504 0.825,0.724 1.325,0.495 1.572,-0.717 3.329,-0.779 4.948,-0.175 1.618,0.603 2.904,1.802 3.622,3.373 1.48,3.246 0.045,7.09 -3.2,8.572 -0.502,0.229 -0.724,0.822 -0.494,1.325 0.168,0.368 0.531,0.585 0.91,0.585 0.139,0 0.28,-0.029 0.415,-0.091 4.248,-1.938 6.126,-6.971 4.188,-11.22 z"
         id="path3047"
         style="fill:#ffffff;stroke:none" />
      <path
         d="m 703.72,392.925 -2.328,-5.102 -2.774,7.429 5.102,-2.327 z"
         id="path3049"
         style="fill:#ffffff;stroke:none" />
    </g>
  </g>
  <g
     transform="matrix(1.25,0,0,1.25,-185.47233,-161.74064)"
     id="g3246">
    <path
       d="m 276.37787,161.39256 c 0,17.673 -14.327,32 -32,32 -17.673,0 -32,-14.327 -32,-32 0,-17.673 14.327,-32 32,-32 17.673,0 32,14.327 32,32 z"
       id="path3051"
       style="fill:#27345f;stroke:none" />
    <g
       transform="translate(-580.62013,-230.49744)"
       id="g3053">
      <path
         d="m 831.176,378.29 c -0.102,-0.222 -0.363,-0.321 -0.585,-0.218 l -14.305,6.527 c -0.106,0.048 -0.189,0.138 -0.23,0.247 -0.041,0.11 -0.037,0.232 0.012,0.339 l 4.598,10.076 -11.466,-4.12 -2.179,-4.778 c -0.074,-0.162 -0.24,-0.256 -0.417,-0.258 -0.179,0.006 -0.336,0.12 -0.399,0.287 l -3.52,9.428 c -0.063,0.167 -0.018,0.356 0.113,0.478 0.083,0.078 0.191,0.118 0.301,0.118 0.062,0 0.124,-0.013 0.183,-0.04 l 4.713,-2.149 18.284,13.193 c 0.003,0.003 0.009,10e-4 0.013,0.004 0.071,0.049 0.154,0.077 0.241,0.078 10e-4,0 0.003,10e-4 0.004,10e-4 l 0.01,0 c 0.072,0.002 0.14,-0.021 0.204,-0.053 l 14.274,-6.513 c 0.107,-0.048 0.19,-0.138 0.231,-0.247 0.041,-0.11 0.036,-0.232 -0.013,-0.338 L 831.176,378.29 z"
         id="path3055"
         style="fill:#ffffff;stroke:none" />
      <path
         d="m 845.919,384.4 c -0.939,-2.058 -2.623,-3.627 -4.742,-4.418 -2.118,-0.791 -4.419,-0.71 -6.477,0.23 -0.503,0.229 -0.724,0.822 -0.495,1.324 0.23,0.504 0.825,0.724 1.325,0.495 1.572,-0.717 3.329,-0.779 4.948,-0.175 1.618,0.603 2.904,1.802 3.622,3.373 1.48,3.246 0.045,7.09 -3.2,8.572 -0.502,0.229 -0.724,0.822 -0.494,1.325 0.168,0.368 0.531,0.585 0.91,0.585 0.139,0 0.28,-0.029 0.415,-0.091 4.248,-1.938 6.126,-6.971 4.188,-11.22 z"
         id="path3057"
         style="fill:#ffffff;stroke:none" />
    </g>
  </g>
  <g
     transform="matrix(1.25,0,0,1.25,-236.72107,-161.74064)"
     id="g3252">
    <path
       d="m 381.37687,161.39256 c 0,17.673 -14.327,32 -32,32 -17.673,0 -32,-14.327 -32,-32 0,-17.673 14.327,-32 32,-32 17.673,0 32,14.327 32,32 z"
       id="path3059"
       style="fill:#ffffff;stroke:none" />
    <g
       transform="translate(-580.62013,-230.49744)"
       id="g3061">
      <path
         d="m 935.906,378.412 c -0.102,-0.222 -0.363,-0.321 -0.585,-0.218 l -14.305,6.527 c -0.106,0.048 -0.189,0.138 -0.23,0.247 -0.041,0.11 -0.037,0.232 0.012,0.339 l 4.598,10.076 -11.466,-4.12 -2.179,-4.778 c -0.074,-0.162 -0.24,-0.256 -0.417,-0.258 -0.179,0.006 -0.336,0.12 -0.399,0.287 l -3.52,9.428 c -0.063,0.167 -0.018,0.356 0.113,0.478 0.083,0.078 0.191,0.118 0.301,0.118 0.062,0 0.124,-0.013 0.183,-0.04 l 4.713,-2.149 18.284,13.193 c 0.003,0.003 0.009,0.001 0.013,0.004 0.071,0.049 0.154,0.077 0.241,0.078 10e-4,0 0.003,10e-4 0.004,10e-4 l 0.01,0 c 0.072,0.002 0.14,-0.021 0.204,-0.053 l 14.274,-6.513 c 0.107,-0.048 0.19,-0.138 0.231,-0.247 0.041,-0.11 0.036,-0.232 -0.013,-0.338 l -10.067,-22.062 z"
         id="path3063"
         style="fill:#27345f;stroke:none" />
      <path
         d="m 950.917,384.4 c -0.938,-2.058 -2.623,-3.627 -4.741,-4.418 -2.119,-0.791 -4.42,-0.71 -6.478,0.23 -0.503,0.229 -0.724,0.822 -0.495,1.324 0.23,0.504 0.825,0.724 1.325,0.495 1.572,-0.717 3.329,-0.779 4.949,-0.175 1.618,0.603 2.903,1.802 3.621,3.373 1.48,3.246 0.045,7.09 -3.2,8.572 -0.501,0.229 -0.724,0.822 -0.494,1.325 0.168,0.368 0.531,0.585 0.91,0.585 0.139,0 0.28,-0.029 0.415,-0.091 4.248,-1.938 6.126,-6.971 4.188,-11.22 z"
         id="path3065"
         style="fill:#27345f;stroke:none" />
    </g>
  </g>
</svg>
