<?xml version="1.0" encoding="UTF-8" standalone="no"?>
<!-- Created with Inkscape (http://www.inkscape.org/) -->

<svg
   xmlns:dc="http://purl.org/dc/elements/1.1/"
   xmlns:cc="http://creativecommons.org/ns#"
   xmlns:rdf="http://www.w3.org/1999/02/22-rdf-syntax-ns#"
   xmlns:svg="http://www.w3.org/2000/svg"
   xmlns="http://www.w3.org/2000/svg"
   version="1.1"
   width="240"
   height="80"
   id="svg3579">
  <defs
     id="defs3581" />
  <metadata
     id="metadata3584">
    <rdf:RDF>
      <cc:Work
         rdf:about="">
        <dc:format>image/svg+xml</dc:format>
        <dc:type
           rdf:resource="http://purl.org/dc/dcmitype/StillImage" />
        <dc:title></dc:title>
      </cc:Work>
    </rdf:RDF>
  </metadata>
  <g
     transform="translate(-129.54562,-492.36218)"
     id="layer1">
    <g
       transform="matrix(1.25,0,0,1.25,-0.6266375,162.55393)"
       id="g3460">
      <path
         d="m 168.13781,295.8466 c 0,17.674 -14.327,32 -32,32 -17.674,0 -32,-14.326 -32,-32 0,-17.674 14.326,-32 32,-32 17.673,0 32,14.326 32,32 z"
         id="path2993"
         style="fill:#ee5721;stroke:none" />
      <path
         d="m 168.13781,295.8466 c 0,-0.907 -0.047,-1.804 -0.121,-2.691 l -20.59,-20.591 -3.789,7.782 -11.109,0.327 -7.064,6.306 -2.931,8.5 -0.644,11.617 1.357,11.74 8.731,8.732 c 1.363,0.176 2.749,0.278 4.16,0.278 17.673,0 32,-14.326 32,-32 z"
         id="path2995"
         style="fill:#c5491d;stroke:none" />
      <path
         d="m 139.64581,279.9296 c 8.454,0.953 14.893,8.603 7.502,19.235 -5.481,7.886 -18.755,7.599 -22.698,18.754 -4.807,-11.541 -4.424,-40.201 15.196,-37.989"
         id="path2997"
         style="fill:none;stroke:#ffffff;stroke-width:2.99991012;stroke-linecap:round;stroke-linejoin:round" />
      <path
         d="m 146.37881,273.7746 c 0,0 -1.539,9.906 -11.444,18.658 -5.292,4.808 -7.311,9.617 -7.311,9.617"
         id="path2999"
         style="fill:none;stroke:#ffffff;stroke-width:2.99991012;stroke-linecap:round;stroke-linejoin:round" />
      <path
         d="m 138.51181,288.8426 2.755,6.637"
         id="path3001"
         style="fill:none;stroke:#ffffff;stroke-width:2.99991012;stroke-linecap:round;stroke-linejoin:round" />
      <path
         d="m 134.45681,292.8736 -5.679,0"
         id="path3003"
         style="fill:none;stroke:#ffffff;stroke-width:2.99991012;stroke-linecap:round;stroke-linejoin:round" />
      <path
         d="m 129.55281,298.6536 2.976,4.934"
         id="path3005"
         style="fill:none;stroke:#ffffff;stroke-width:2.99991012;stroke-linecap:round;stroke-linejoin:round" />
    </g>
    <g
       transform="matrix(1.25,0,0,1.25,-126.08039,162.55393)"
       id="g3469">
      <path
         d="m 332.50081,295.8466 c 0,17.674 -14.326,32 -32,32 -17.673,0 -32,-14.326 -32,-32 0,-17.674 14.327,-32 32,-32 17.674,0 32,14.326 32,32 z"
         id="path3009"
         style="fill:#1a1362;stroke:none" />
      <path
         d="m 304.00981,279.9296 c 8.454,0.953 14.893,8.603 7.502,19.235 -5.481,7.886 -18.755,7.599 -22.698,18.754 -4.808,-11.541 -4.424,-40.201 15.196,-37.989"
         id="path3011"
         style="fill:none;stroke:#ffffff;stroke-width:2.99991012;stroke-linecap:round;stroke-linejoin:round" />
      <path
         d="m 310.74181,273.7746 c 0,0 -1.539,9.906 -11.444,18.658 -5.292,4.808 -7.31,9.617 -7.31,9.617"
         id="path3013"
         style="fill:none;stroke:#ffffff;stroke-width:2.99991012;stroke-linecap:round;stroke-linejoin:round" />
      <path
         d="m 302.87481,288.8426 2.756,6.637"
         id="path3015"
         style="fill:none;stroke:#ffffff;stroke-width:2.99991012;stroke-linecap:round;stroke-linejoin:round" />
      <path
         d="m 298.82081,292.8736 -5.679,0"
         id="path3017"
         style="fill:none;stroke:#ffffff;stroke-width:2.99991012;stroke-linecap:round;stroke-linejoin:round" />
      <path
         d="m 293.91681,298.6536 2.976,4.934"
         id="path3019"
         style="fill:none;stroke:#ffffff;stroke-width:2.99991012;stroke-linecap:round;stroke-linejoin:round" />
    </g>
    <g
       transform="matrix(1.25,0,0,1.25,-251.53539,162.55393)"
       id="g3477">
      <path
         d="m 496.86481,295.8466 c 0,17.674 -14.326,32 -32,32 -17.674,0 -32,-14.326 -32,-32 0,-17.674 14.326,-32 32,-32 17.674,0 32,14.326 32,32 z"
         id="path3023"
         style="fill:#ffffff;stroke:none" />
      <path
         d="m 468.37381,279.9296 c 8.454,0.953 14.893,8.603 7.502,19.235 -5.481,7.886 -18.755,7.599 -22.698,18.754 -4.808,-11.541 -4.424,-40.201 15.196,-37.989"
         id="path3025"
         style="fill:none;stroke:#1a1362;stroke-width:2.99991012;stroke-linecap:round;stroke-linejoin:round" />
      <path
         d="m 475.10581,273.7746 c 0,0 -1.539,9.906 -11.444,18.658 -5.292,4.808 -7.311,9.617 -7.311,9.617"
         id="path3027"
         style="fill:none;stroke:#1a1362;stroke-width:2.99991012;stroke-linecap:round;stroke-linejoin:round" />
      <path
         d="m 467.23881,288.8426 2.756,6.637"
         id="path3029"
         style="fill:none;stroke:#1a1362;stroke-width:2.99991012;stroke-linecap:round;stroke-linejoin:round" />
      <path
         d="m 463.18481,292.8736 -5.679,0"
         id="path3031"
         style="fill:none;stroke:#1a1362;stroke-width:2.99991012;stroke-linecap:round;stroke-linejoin:round" />
      <path
         d="m 458.27981,298.6536 2.977,4.934"
         id="path3033"
         style="fill:none;stroke:#1a1362;stroke-width:2.99991012;stroke-linecap:round;stroke-linejoin:round" />
    </g>
  </g>
</svg>
