<?xml version="1.0" encoding="utf-8"?>
<!-- Generator: Adobe Illustrator 16.0.3, SVG Export Plug-In . SVG Version: 6.00 Build 0)  -->
<!DOCTYPE svg PUBLIC "-//W3C//DTD SVG 1.1//EN" "http://www.w3.org/Graphics/SVG/1.1/DTD/svg11.dtd">
<svg version="1.1" id="Warstwa_1" xmlns="http://www.w3.org/2000/svg" xmlns:xlink="http://www.w3.org/1999/xlink" x="0px" y="0px"
	 width="222px" height="74px" viewBox="0 0 222 74" enable-background="new 0 0 222 74" xml:space="preserve">
<g>
	<g>
		<g>
			<g>
				<defs>
					<rect id="SVGID_1_" x="-0.086" width="73.875" height="70"/>
				</defs>
				<clipPath id="SVGID_2_">
					<use xlink:href="#SVGID_1_"  overflow="visible"/>
				</clipPath>
				<g clip-path="url(#SVGID_2_)">
					<path fill="#3CA06E" d="M51.38,28.601c-0.5,0-0.992,0.024-1.482,0.063c-0.837-9.313-8.656-16.61-18.185-16.61
						c-2.771,0-5.396,0.62-7.75,1.729C21.058,7.421,14.65,3,7.205,3C3.654,3,0.341,4.009-2.474,5.748V67H51.38
						c10.604,0,19.199-8.598,19.199-19.199C70.579,37.196,61.983,28.601,51.38,28.601z"/>
					<g>
						<circle fill="#FFFFFF" cx="13.125" cy="31.515" r="3.33"/>
						<circle fill="#FFFFFF" cx="23.53" cy="31.515" r="3.33"/>
						<circle fill="#FFFFFF" cx="33.936" cy="31.515" r="3.33"/>
						<circle fill="#FFFFFF" cx="13.125" cy="41.504" r="3.33"/>
						<circle fill="#FFFFFF" cx="23.53" cy="41.504" r="3.33"/>
						<circle fill="#FFFFFF" cx="33.936" cy="41.504" r="3.33"/>
						<circle fill="#FFFFFF" cx="13.125" cy="51.495" r="3.33"/>
						<circle fill="#FFFFFF" cx="23.53" cy="51.495" r="3.33"/>
						<circle fill="#FFFFFF" cx="33.936" cy="51.495" r="3.33"/>
					</g>
					<path fill="none" stroke="#FFFFFF" stroke-width="5" stroke-miterlimit="10" d="M51.38,28.601c-0.5,0-0.992,0.024-1.482,0.063
						c-0.837-9.313-8.656-16.61-18.185-16.61c-2.771,0-5.396,0.62-7.75,1.729C21.058,7.421,14.65,3,7.205,3
						C3.654,3,0.341,4.009-2.474,5.748V67H51.38c10.604,0,19.199-8.598,19.199-19.199C70.579,37.196,61.983,28.601,51.38,28.601z"/>
				</g>
			</g>
		</g>
	</g>
</g>
<g>
	<g>
		<g>
			<g>
				<defs>
					<rect id="SVGID_3_" x="74.181" width="73.874" height="70"/>
				</defs>
				<clipPath id="SVGID_4_">
					<use xlink:href="#SVGID_3_"  overflow="visible"/>
				</clipPath>
				<g clip-path="url(#SVGID_4_)">
					<path fill="#1B1464" d="M125.115,28.601c-0.5,0-0.991,0.024-1.481,0.063c-0.837-9.313-8.655-16.61-18.185-16.61
						c-2.771,0-5.396,0.62-7.75,1.729C94.795,7.421,88.386,3,80.941,3c-3.551,0-6.864,1.009-9.679,2.748V67h53.853
						c10.605,0,19.199-8.598,19.199-19.199C144.314,37.196,135.719,28.601,125.115,28.601z"/>
					<g>
						<circle fill="#FFFFFF" cx="86.861" cy="31.515" r="3.33"/>
						<circle fill="#FFFFFF" cx="97.266" cy="31.515" r="3.33"/>
						<circle fill="#FFFFFF" cx="107.673" cy="31.515" r="3.33"/>
						<circle fill="#FFFFFF" cx="86.861" cy="41.504" r="3.33"/>
						<circle fill="#FFFFFF" cx="97.266" cy="41.504" r="3.33"/>
						<circle fill="#FFFFFF" cx="107.673" cy="41.504" r="3.33"/>
						<circle fill="#FFFFFF" cx="86.861" cy="51.495" r="3.33"/>
						<circle fill="#FFFFFF" cx="97.266" cy="51.495" r="3.33"/>
						<circle fill="#FFFFFF" cx="107.673" cy="51.495" r="3.33"/>
					</g>
					<path fill="none" stroke="#FFFFFF" stroke-width="5" stroke-miterlimit="10" d="M125.115,28.601
						c-0.5,0-0.991,0.024-1.481,0.063c-0.837-9.313-8.655-16.61-18.185-16.61c-2.771,0-5.396,0.62-7.75,1.729
						C94.795,7.421,88.386,3,80.941,3c-3.551,0-6.864,1.009-9.679,2.748V67h53.853c10.605,0,19.199-8.598,19.199-19.199
						C144.314,37.196,135.719,28.601,125.115,28.601z"/>
				</g>
			</g>
		</g>
	</g>
</g>
<g>
	<g>
		<g>
			<g>
				<defs>
					<rect id="SVGID_5_" x="148.063" width="73.875" height="70"/>
				</defs>
				<clipPath id="SVGID_6_">
					<use xlink:href="#SVGID_5_"  overflow="visible"/>
				</clipPath>
				<g clip-path="url(#SVGID_6_)">
					<path fill="#FFFFFF" d="M199.527,28.601c-0.5,0-0.991,0.024-1.48,0.063c-0.838-9.313-8.656-16.61-18.186-16.61
						c-2.771,0-5.396,0.62-7.75,1.729C169.207,7.421,162.799,3,155.354,3c-3.551,0-6.863,1.009-9.68,2.748V67h53.854
						c10.605,0,19.199-8.598,19.199-19.199C218.727,37.196,210.131,28.601,199.527,28.601z"/>
					<g>
						<circle fill="#1B1464" cx="161.273" cy="31.515" r="3.33"/>
						<circle fill="#1B1464" cx="171.678" cy="31.515" r="3.33"/>
						<circle fill="#1B1464" cx="182.085" cy="31.515" r="3.33"/>
						<circle fill="#1B1464" cx="161.273" cy="41.504" r="3.33"/>
						<circle fill="#1B1464" cx="171.678" cy="41.504" r="3.33"/>
						<circle fill="#1B1464" cx="182.085" cy="41.504" r="3.33"/>
						<circle fill="#1B1464" cx="161.273" cy="51.495" r="3.33"/>
						<circle fill="#1B1464" cx="171.678" cy="51.495" r="3.33"/>
						<circle fill="#1B1464" cx="182.085" cy="51.495" r="3.33"/>
					</g>
					<path fill="none" stroke="#FFFFFF" stroke-width="5" stroke-miterlimit="10" d="M199.527,28.601c-0.5,0-0.991,0.024-1.48,0.063
						c-0.838-9.313-8.656-16.61-18.186-16.61c-2.771,0-5.396,0.62-7.75,1.729C169.207,7.421,162.799,3,155.354,3
						c-3.551,0-6.863,1.009-9.68,2.748V67h53.854c10.605,0,19.199-8.598,19.199-19.199
						C218.727,37.196,210.131,28.601,199.527,28.601z"/>
				</g>
			</g>
		</g>
	</g>
</g>
</svg>
