<?xml version="1.0" encoding="utf-8"?>
<!-- Generator: Adobe Illustrator 16.0.3, SVG Export Plug-In . SVG Version: 6.00 Build 0)  -->
<!DOCTYPE svg PUBLIC "-//W3C//DTD SVG 1.1//EN" "http://www.w3.org/Graphics/SVG/1.1/DTD/svg11.dtd">
<svg version="1.1" id="Warstwa_1" xmlns="http://www.w3.org/2000/svg" xmlns:xlink="http://www.w3.org/1999/xlink" x="0px" y="0px"
	 width="108px" height="72px" viewBox="0 0 108 72" enable-background="new 0 0 108 72" xml:space="preserve">
<g>
	<defs>
		<rect id="SVGID_1_" width="36" height="72"/>
	</defs>
	<clipPath id="SVGID_2_">
		<use xlink:href="#SVGID_1_"  overflow="visible"/>
	</clipPath>
	<g clip-path="url(#SVGID_2_)">
		<g>
			<path fill="#3C527A" d="M31.845,36.24c0-17.674-14.327-32-32-32v64C17.518,68.24,31.845,53.912,31.845,36.24z"/>
			<path fill="#293A5B" d="M31.845,36.24c0-1.893-0.174-3.742-0.489-5.545l-8.57-8.57L8.861,36.189l9.928,13.379l6.312,6.311
				C29.322,50.457,31.845,43.645,31.845,36.24z"/>
			
				<polyline fill="none" stroke="#FFFFFF" stroke-width="4" stroke-linecap="round" stroke-linejoin="round" stroke-miterlimit="10" points="
				21.188,48.92 8.506,36.24 21.188,23.559 			"/>
		</g>
		<g>
			<path fill="#FFFFFF" d="M-0.155,4.242c17.673,0,32,14.328,32,32c0,17.674-14.327,32-32,32V4.242 M-0.155,0.242
				c-2.209,0-4,1.791-4,4v64c0,2.209,1.791,4,4,4c19.851,0,36-16.149,36-36S19.695,0.242-0.155,0.242L-0.155,0.242z"/>
		</g>
	</g>
</g>
<g>
	<defs>
		<rect id="SVGID_3_" x="36.155" width="36" height="72"/>
	</defs>
	<clipPath id="SVGID_4_">
		<use xlink:href="#SVGID_3_"  overflow="visible"/>
	</clipPath>
	<g clip-path="url(#SVGID_4_)">
		<path fill="#1B1464" d="M68,36.24c0-17.674-14.327-32-32-32v64C53.673,68.24,68,53.912,68,36.24z"/>
		
			<polyline fill="none" stroke="#FFFFFF" stroke-width="4" stroke-linecap="round" stroke-linejoin="round" stroke-miterlimit="10" points="
			57.343,48.92 44.661,36.24 57.343,23.559 		"/>
		<g>
			<path fill="#FFFFFF" d="M36,4.242c17.673,0,32,14.328,32,32c0,17.674-14.327,32-32,32V4.242 M36,0.242c-2.209,0-4,1.791-4,4v64
				c0,2.209,1.791,4,4,4c19.851,0,36-16.149,36-36S55.851,0.242,36,0.242L36,0.242z"/>
		</g>
	</g>
</g>
<g>
	<defs>
		<rect id="SVGID_5_" x="72.155" width="36" height="72"/>
	</defs>
	<clipPath id="SVGID_6_">
		<use xlink:href="#SVGID_5_"  overflow="visible"/>
	</clipPath>
	<g clip-path="url(#SVGID_6_)">
		<path fill="#FFFFFF" d="M104,36.24c0-17.674-14.327-32-32-32v64C89.673,68.24,104,53.912,104,36.24z"/>
		
			<polyline fill="none" stroke="#1B1464" stroke-width="4" stroke-linecap="round" stroke-linejoin="round" stroke-miterlimit="10" points="
			93.343,48.92 80.661,36.24 93.343,23.559 		"/>
		<g>
			<path fill="#FFFFFF" d="M72,4.242c17.673,0,32,14.328,32,32c0,17.674-14.327,32-32,32V4.242 M72,0.242c-2.209,0-4,1.791-4,4v64
				c0,2.209,1.791,4,4,4c19.851,0,36-16.149,36-36S91.851,0.242,72,0.242L72,0.242z"/>
		</g>
	</g>
</g>
</svg>
