<?xml version="1.0" encoding="UTF-8" standalone="no"?>
<!-- Created with Inkscape (http://www.inkscape.org/) -->

<svg
   xmlns:dc="http://purl.org/dc/elements/1.1/"
   xmlns:cc="http://creativecommons.org/ns#"
   xmlns:rdf="http://www.w3.org/1999/02/22-rdf-syntax-ns#"
   xmlns:svg="http://www.w3.org/2000/svg"
   xmlns="http://www.w3.org/2000/svg"
   version="1.1"
   width="240.00002"
   height="80.000122"
   id="svg3322">
  <defs
     id="defs3324" />
  <metadata
     id="metadata3327">
    <rdf:RDF>
      <cc:Work
         rdf:about="">
        <dc:format>image/svg+xml</dc:format>
        <dc:type
           rdf:resource="http://purl.org/dc/dcmitype/StillImage" />
        <dc:title></dc:title>
      </cc:Work>
    </rdf:RDF>
  </metadata>
  <g
     transform="translate(93.101163,-15.281629)"
     id="g3371">
    <path
       d="m 66.898845,55.28169 c 0,22.09125 -17.90875,40 -40,40 -22.09125,0 -40,-17.90875 -40,-40 0,-22.09125 17.90875,-40 40,-40 22.09125,0 40,17.90875 40,40 z"
       id="path3067"
       style="fill:#27345f;stroke:none" />
    <path
       d="m 44.535095,40.57169 c 1.395,0 2.525,1.13 2.525,2.525 0,1.39375 -1.13,2.52375 -2.525,2.52375 -1.39375,0 -2.52375,-1.13 -2.52375,-2.52375 0,-1.395 1.13,-2.525 2.52375,-2.525 z m 9.65875,8.14375 -3.0375,-4.04875 c 0.12,-0.50375 0.19,-1.0275 0.19,-1.56875 0,-3.75625 -3.0575,-6.81375 -6.81375,-6.81375 -1.9575,0 -3.72,0.835 -4.96375,2.16125 -2.10625,-1.77875 -4.54,-3.23625 -7.28625,-4.21625 -2.57375,-0.9175 -5.2525,-1.38375 -7.96,-1.38375 -6.59375,0 -12.945,2.78125 -17.425,7.6325 -0.20875,0.22625 -0.2375,0.56625 -0.0675,0.825 0.16875,0.2575 0.49125,0.36625 0.785,0.265 4.48875,-1.58 9.39875,-1.575 13.88875,0.02625 3.08125,1.1 5.725,2.87 7.8675,5.0675 -5.06625,5.09 -13.98125,11.11875 -27.82875,11.11875 -0.27125,0 -0.51625,0.1625 -0.61999997,0.415 -0.105,0.25 -0.0463,0.54 0.14499997,0.7325 4.8675,4.86625 11.69375,7.54625 19.2225,7.54625 l 0,0 c 5.50875,0 10.8075,-1.47625 15,-4.1475 -0.105,1.95875 -0.47875,3.93375 -1.17125,5.87375 -1.59625,4.47375 -4.71125,8.29875 -8.77125,10.77125 -0.26375,0.16125 -0.38375,0.48 -0.29125,0.775 0.0888,0.28125 0.34875,0.47125 0.64125,0.47125 0.0138,0 0.0275,-0.0012 0.0413,-0.0012 9.50125,-0.575 17.70625,-6.7375 20.90375,-15.69875 1.745,-4.88875 1.755,-9.9725 0.3925,-14.60875 l 6.71,0 c 0.009,-0.0012 0.015,-0.0012 0.025,0 0.37125,0 0.67125,-0.30125 0.67125,-0.6725 0,-0.21 -0.0962,-0.39875 -0.2475,-0.52125 z"
       id="path3069"
       style="fill:#ffffff;stroke:none" />
  </g>
  <g
     transform="translate(144.34865,-15.281629)"
     id="g3366">
    <path
       d="m -64.348655,55.28169 c 0,22.09125 -17.90875,40 -39.999995,40 -22.09125,0 -40,-17.90875 -40,-40 0,-22.09125 17.90875,-40 40,-40 22.091245,0 39.999995,17.90875 39.999995,40 z"
       id="path3071"
       style="fill:#30995f;stroke:none" />
    <path
       d="m -64.363655,55.84794 -17.48625,-17.48625 -11.00625,2.65 -27.063745,-2.86625 -4.39125,3.26875 13.1,13.1 -13.815,4.93375 -5.06625,-0.455 35.163745,35.16125 c 17.36625,-4.19375 30.305,-19.71375 30.565,-38.30625 z"
       id="path3073"
       style="fill:#288956;stroke:none" />
    <path
       d="m -86.712405,40.57169 c 1.395,0 2.525,1.13 2.525,2.525 0,1.39375 -1.13,2.52375 -2.525,2.52375 -1.395,0 -2.525,-1.13 -2.525,-2.52375 0,-1.395 1.13,-2.525 2.525,-2.525 z m 9.65875,8.14375 -3.0375,-4.04875 c 0.12,-0.50375 0.19,-1.0275 0.19,-1.56875 0,-3.75625 -3.0575,-6.81375 -6.81375,-6.81375 -1.95875,0 -3.72125,0.835 -4.96375,2.16125 -2.10625,-1.77875 -4.54,-3.23625 -7.28625,-4.21625 -2.573745,-0.9175 -5.252495,-1.38375 -7.959995,-1.38375 -6.59375,0 -12.945,2.78125 -17.425,7.6325 -0.21,0.22625 -0.2375,0.56625 -0.0675,0.825 0.1675,0.2575 0.49,0.36625 0.785,0.265 4.48875,-1.58 9.39875,-1.575 13.88875,0.02625 3.08125,1.1 5.725,2.87 7.86625,5.0675 -5.06625,5.09 -13.98125,11.11875 -27.8275,11.11875 -0.27125,0 -0.51625,0.1625 -0.62,0.415 -0.10625,0.25 -0.0462,0.54 0.145,0.7325 4.8675,4.86625 11.6925,7.54625 19.2225,7.54625 l 0,0 c 5.50875,0 10.80625,-1.47625 14.999995,-4.1475 -0.105,1.95875 -0.48,3.93375 -1.17125,5.87375 -1.59625,4.47375 -4.711245,8.29875 -8.771245,10.77125 -0.26375,0.16125 -0.38375,0.48 -0.29125,0.775 0.0887,0.28125 0.34875,0.47125 0.64125,0.47125 0.0137,0 0.0275,-0.0012 0.0412,-0.0012 9.499995,-0.575 17.706245,-6.7375 20.903745,-15.69875 1.745,-4.88875 1.755,-9.9725 0.3925,-14.60875 l 6.71,0 c 0.0088,-0.0012 0.015,-0.0012 0.025,0 0.37125,0 0.67125,-0.30125 0.67125,-0.6725 0,-0.21 -0.09625,-0.39875 -0.2475,-0.52125 z"
       id="path3075"
       style="fill:#ffffff;stroke:none" />
  </g>
  <g
     transform="translate(41.852415,-15.281629)"
     id="g3375">
    <path
       d="m 198.1476,55.28169 c 0,22.09125 -17.90875,40 -40,40 -22.09125,0 -40,-17.90875 -40,-40 0,-22.09125 17.90875,-40 40,-40 22.09125,0 40,17.90875 40,40 z"
       id="path3077"
       style="fill:#ffffff;stroke:none" />
    <path
       d="m 175.78385,40.57169 c 1.395,0 2.525,1.13 2.525,2.525 0,1.39375 -1.13,2.52375 -2.525,2.52375 -1.39375,0 -2.52375,-1.13 -2.52375,-2.52375 0,-1.395 1.13,-2.525 2.52375,-2.525 z m 9.65875,8.14375 -3.0375,-4.04875 c 0.12,-0.50375 0.19,-1.0275 0.19,-1.56875 0,-3.75625 -3.0575,-6.81375 -6.81375,-6.81375 -1.9575,0 -3.72,0.835 -4.96375,2.16125 -2.10625,-1.77875 -4.54,-3.23625 -7.28625,-4.21625 -2.57375,-0.9175 -5.2525,-1.38375 -7.96,-1.38375 -6.59375,0 -12.945,2.78125 -17.425,7.6325 -0.20875,0.22625 -0.2375,0.56625 -0.0675,0.825 0.16875,0.2575 0.49125,0.36625 0.785,0.265 4.48875,-1.58 9.39875,-1.575 13.88875,0.02625 3.08125,1.1 5.725,2.87 7.8675,5.0675 -5.06625,5.09 -13.98125,11.11875 -27.82875,11.11875 -0.27125,0 -0.51625,0.1625 -0.62,0.415 -0.105,0.25 -0.0462,0.54 0.145,0.7325 4.8675,4.86625 11.69375,7.54625 19.2225,7.54625 l 0,0 c 5.50875,0 10.8075,-1.47625 15,-4.1475 -0.105,1.95875 -0.47875,3.93375 -1.17125,5.87375 -1.59625,4.47375 -4.71125,8.29875 -8.77125,10.77125 -0.26375,0.16125 -0.38375,0.48 -0.29125,0.775 0.0888,0.28125 0.34875,0.47125 0.64125,0.47125 0.0137,0 0.0275,-0.0012 0.0412,-0.0012 9.50125,-0.575 17.70625,-6.7375 20.90375,-15.69875 1.745,-4.88875 1.755,-9.9725 0.3925,-14.60875 l 6.71,0 c 0.009,-0.0012 0.015,-0.0012 0.025,0 0.37125,0 0.67125,-0.30125 0.67125,-0.6725 0,-0.21 -0.0962,-0.39875 -0.2475,-0.52125 z"
       id="path3079"
       style="fill:#27345f;stroke:none" />
  </g>
</svg>
