<?xml version="1.0" encoding="UTF-8" standalone="no"?>
<!-- Created with Inkscape (http://www.inkscape.org/) -->

<svg
   xmlns:dc="http://purl.org/dc/elements/1.1/"
   xmlns:cc="http://creativecommons.org/ns#"
   xmlns:rdf="http://www.w3.org/1999/02/22-rdf-syntax-ns#"
   xmlns:svg="http://www.w3.org/2000/svg"
   xmlns="http://www.w3.org/2000/svg"
   version="1.1"
   width="239.99998"
   height="79.997498"
   viewBox="0 0 192 63.997995"
   id="svg2985"
   style="fill-rule:evenodd">
  <metadata
     id="metadata3187">
    <rdf:RDF>
      <cc:Work
         rdf:about="">
        <dc:format>image/svg+xml</dc:format>
        <dc:type
           rdf:resource="http://purl.org/dc/dcmitype/StillImage" />
        <dc:title></dc:title>
      </cc:Work>
    </rdf:RDF>
  </metadata>
  <defs
     id="defs3185" />
  <g
     transform="translate(-104.13781,-417.63464)"
     id="g3485">
    <path
       d="m 168.13781,449.6336 c 0,17.673 -14.327,31.999 -32,31.999 -17.674,0 -32,-14.326 -32,-31.999 0,-17.673 14.326,-31.999 32,-31.999 17.673,0 32,14.326 32,31.999 z"
       id="path3037"
       style="fill:#c63977;stroke:none" />
    <path
       d="m 168.13781,449.6336 c 0,-0.713 -0.032,-1.418 -0.078,-2.12 l -14.676,-14.676 -4.596,4.615 -10.901,-10.902 -2.359,8.35 4.237,4.236 -8.655,2.943 -4.539,-4.539 -2.434,1.746 4.181,4.182 -2.875,8.706 -3.499,-3.498 -8.51,2.129 10.944,10.942 -4.584,4.635 15.222,15.22 c 0.373,0.014 0.745,0.03 1.122,0.03 17.673,0 32,-14.326 32,-31.999 z"
       id="path3039"
       style="fill:#aa2f62;stroke:none" />
    <g
       transform="translate(-112.08219,1189.5996)"
       id="g3041">
      <path
         d="m 258.724,-739.966 c 0,5.542 -4.494,10.034 -10.036,10.034 -5.541,0 -10.035,-4.492 -10.035,-10.034 0,-5.54 4.494,-10.034 10.035,-10.034 5.542,0 10.036,4.494 10.036,10.034"
         id="path3043"
         style="fill:none;stroke:#ffffff;stroke-width:2.99991012;stroke-linecap:round;stroke-linejoin:round" />
      <path
         d="m 248.688,-755.752 0,-6.445"
         id="path3045"
         style="fill:none;stroke:#ffffff;stroke-width:2.99991012;stroke-linecap:round;stroke-linejoin:round" />
      <path
         d="m 237.525,-751.129 -4.557,-4.557"
         id="path3047"
         style="fill:none;stroke:#ffffff;stroke-width:2.99991012;stroke-linecap:round;stroke-linejoin:round" />
      <path
         d="m 232.901,-739.966 -6.445,0"
         id="path3049"
         style="fill:none;stroke:#ffffff;stroke-width:2.99991012;stroke-linecap:round;stroke-linejoin:round" />
      <path
         d="m 237.525,-728.803 -4.557,4.557"
         id="path3051"
         style="fill:none;stroke:#ffffff;stroke-width:2.99991012;stroke-linecap:round;stroke-linejoin:round" />
      <path
         d="m 248.688,-724.18 0,6.446"
         id="path3053"
         style="fill:none;stroke:#ffffff;stroke-width:2.99991012;stroke-linecap:round;stroke-linejoin:round" />
      <path
         d="m 259.852,-728.803 4.557,4.557"
         id="path3055"
         style="fill:none;stroke:#ffffff;stroke-width:2.99991012;stroke-linecap:round;stroke-linejoin:round" />
      <path
         d="m 264.476,-739.966 6.445,0"
         id="path3057"
         style="fill:none;stroke:#ffffff;stroke-width:2.99991012;stroke-linecap:round;stroke-linejoin:round" />
      <path
         d="m 259.852,-751.129 4.557,-4.557"
         id="path3059"
         style="fill:none;stroke:#ffffff;stroke-width:2.99991012;stroke-linecap:round;stroke-linejoin:round" />
    </g>
  </g>
  <g
     transform="translate(-204.03281,-417.63464)"
     id="g3499">
    <path
       d="m 332.03281,449.6336 c 0,17.673 -14.327,31.999 -32,31.999 -17.674,0 -32,-14.326 -32,-31.999 0,-17.673 14.326,-31.999 32,-31.999 17.673,0 32,14.326 32,31.999 z"
       id="path3063"
       style="fill:#1a1362;stroke:none" />
    <g
       transform="translate(-112.08219,1189.5996)"
       id="g3065">
      <path
         d="m 422.619,-739.966 c 0,5.542 -4.494,10.034 -10.036,10.034 -5.541,0 -10.035,-4.492 -10.035,-10.034 0,-5.54 4.494,-10.034 10.035,-10.034 5.542,0 10.036,4.494 10.036,10.034"
         id="path3067"
         style="fill:none;stroke:#ffffff;stroke-width:2.99991012;stroke-linecap:round;stroke-linejoin:round" />
      <path
         d="m 412.583,-755.752 0,-6.445"
         id="path3069"
         style="fill:none;stroke:#ffffff;stroke-width:2.99991012;stroke-linecap:round;stroke-linejoin:round" />
      <path
         d="m 401.42,-751.129 -4.557,-4.557"
         id="path3071"
         style="fill:none;stroke:#ffffff;stroke-width:2.99991012;stroke-linecap:round;stroke-linejoin:round" />
      <path
         d="m 396.796,-739.966 -6.445,0"
         id="path3073"
         style="fill:none;stroke:#ffffff;stroke-width:2.99991012;stroke-linecap:round;stroke-linejoin:round" />
      <path
         d="m 401.42,-728.803 -4.557,4.557"
         id="path3075"
         style="fill:none;stroke:#ffffff;stroke-width:2.99991012;stroke-linecap:round;stroke-linejoin:round" />
      <path
         d="m 412.583,-724.18 0,6.446"
         id="path3077"
         style="fill:none;stroke:#ffffff;stroke-width:2.99991012;stroke-linecap:round;stroke-linejoin:round" />
      <path
         d="m 423.747,-728.803 4.557,4.557"
         id="path3079"
         style="fill:none;stroke:#ffffff;stroke-width:2.99991012;stroke-linecap:round;stroke-linejoin:round" />
      <path
         d="m 428.371,-739.966 6.445,0"
         id="path3081"
         style="fill:none;stroke:#ffffff;stroke-width:2.99991012;stroke-linecap:round;stroke-linejoin:round" />
      <path
         d="m 423.747,-751.129 4.557,-4.557"
         id="path3083"
         style="fill:none;stroke:#ffffff;stroke-width:2.99991012;stroke-linecap:round;stroke-linejoin:round" />
    </g>
  </g>
  <g
     transform="translate(-303.92781,-417.63464)"
     id="g3512">
    <path
       d="m 495.92781,449.6336 c 0,17.673 -14.327,31.999 -32,31.999 -17.674,0 -32,-14.326 -32,-31.999 0,-17.673 14.326,-31.999 32,-31.999 17.673,0 32,14.326 32,31.999 z"
       id="path3099"
       style="fill:#ffffff;stroke:none" />
    <g
       transform="translate(-112.08219,1189.5996)"
       id="g3101">
      <path
         d="m 586.514,-739.966 c 0,5.542 -4.494,10.034 -10.036,10.034 -5.541,0 -10.035,-4.492 -10.035,-10.034 0,-5.54 4.494,-10.034 10.035,-10.034 5.542,0 10.036,4.494 10.036,10.034"
         id="path3103"
         style="fill:none;stroke:#1a1362;stroke-width:2.99991012;stroke-linecap:round;stroke-linejoin:round" />
      <path
         d="m 576.478,-755.752 0,-6.445"
         id="path3105"
         style="fill:none;stroke:#1a1362;stroke-width:2.99991012;stroke-linecap:round;stroke-linejoin:round" />
      <path
         d="m 565.315,-751.129 -4.557,-4.557"
         id="path3107"
         style="fill:none;stroke:#1a1362;stroke-width:2.99991012;stroke-linecap:round;stroke-linejoin:round" />
      <path
         d="m 560.691,-739.966 -6.445,0"
         id="path3109"
         style="fill:none;stroke:#1a1362;stroke-width:2.99991012;stroke-linecap:round;stroke-linejoin:round" />
      <path
         d="m 565.315,-728.803 -4.557,4.557"
         id="path3111"
         style="fill:none;stroke:#1a1362;stroke-width:2.99991012;stroke-linecap:round;stroke-linejoin:round" />
      <path
         d="m 576.478,-724.18 0,6.446"
         id="path3113"
         style="fill:none;stroke:#1a1362;stroke-width:2.99991012;stroke-linecap:round;stroke-linejoin:round" />
      <path
         d="m 587.642,-728.803 4.557,4.557"
         id="path3115"
         style="fill:none;stroke:#1a1362;stroke-width:2.99991012;stroke-linecap:round;stroke-linejoin:round" />
      <path
         d="m 592.266,-739.966 6.445,0"
         id="path3117"
         style="fill:none;stroke:#1a1362;stroke-width:2.99991012;stroke-linecap:round;stroke-linejoin:round" />
      <path
         d="m 587.642,-751.129 4.557,-4.557"
         id="path3119"
         style="fill:none;stroke:#1a1362;stroke-width:2.99991012;stroke-linecap:round;stroke-linejoin:round" />
    </g>
  </g>
</svg>
