<?xml version="1.0" encoding="utf-8"?>
<!-- Generator: Adobe Illustrator 19.0.1, SVG Export Plug-In . SVG Version: 6.00 Build 0)  -->
<svg version="1.1" xmlns="http://www.w3.org/2000/svg" xmlns:xlink="http://www.w3.org/1999/xlink" x="0px" y="0px"
	 viewBox="0 0 340 61" style="enable-background:new 0 0 340 61;" xml:space="preserve">
<style type="text/css">
	.st0{fill:#50CC8E;}
	.st1{fill:#3CA06E;}
	.st2{fill:#FFFFFF;}
	.st3{fill:#1B1464;}
	.st4{fill:none;stroke:#FFFFFF;stroke-width:5;stroke-miterlimit:10;}
	.st5{display:none;}
	.st6{display:inline;fill:#3CA06E;}
	.st7{display:inline;fill:#50CC8E;}
	.st8{clip-path:url(#SVGID_2_);fill:#3CA06E;}
	.st9{clip-path:url(#SVGID_2_);fill:none;stroke:#FFFFFF;stroke-width:5;stroke-miterlimit:10;}
	.st10{clip-path:url(#SVGID_2_);}
	.st11{clip-path:url(#SVGID_4_);fill:#3CA06E;}
	.st12{clip-path:url(#SVGID_4_);fill:none;stroke:#FFFFFF;stroke-width:5;stroke-miterlimit:10;}
	.st13{clip-path:url(#SVGID_4_);}
	.st14{clip-path:url(#SVGID_6_);fill:#3CA06E;}
	.st15{clip-path:url(#SVGID_6_);fill:#3CA0FF;}
	.st16{clip-path:url(#SVGID_6_);fill:none;stroke:#FFFFFF;stroke-width:5;stroke-miterlimit:10;}
	.st17{clip-path:url(#SVGID_6_);}
	.st18{clip-path:url(#SVGID_8_);fill:#3CA06E;}
	.st19{clip-path:url(#SVGID_8_);fill:#3CA0FF;}
	.st20{clip-path:url(#SVGID_8_);fill:none;stroke:#FFFFFF;stroke-width:5;stroke-miterlimit:10;}
	.st21{clip-path:url(#SVGID_8_);}
	.st22{clip-path:url(#SVGID_10_);fill:#3CA06E;}
	.st23{clip-path:url(#SVGID_10_);fill:#3D71B8;}
	.st24{clip-path:url(#SVGID_10_);fill:none;stroke:#FFFFFF;stroke-width:5;stroke-miterlimit:10;}
	.st25{clip-path:url(#SVGID_10_);}
	.st26{clip-path:url(#SVGID_12_);fill:#3CA06E;}
	.st27{clip-path:url(#SVGID_12_);fill:#4171B4;}
	.st28{clip-path:url(#SVGID_12_);fill:none;stroke:#FFFFFF;stroke-width:5;stroke-miterlimit:10;}
	.st29{clip-path:url(#SVGID_12_);}
	.st30{clip-path:url(#SVGID_14_);fill:#3CA06E;}
	.st31{clip-path:url(#SVGID_14_);fill:#4171B4;}
	.st32{clip-path:url(#SVGID_14_);fill:none;stroke:#FFFFFF;stroke-width:5;stroke-miterlimit:10;}
	.st33{clip-path:url(#SVGID_14_);}
	.st34{clip-path:url(#SVGID_16_);fill:#3CA06E;}
	.st35{clip-path:url(#SVGID_16_);fill:#4171B4;}
	.st36{clip-path:url(#SVGID_16_);fill:none;stroke:#FFFFFF;stroke-width:5;stroke-miterlimit:10;}
	.st37{clip-path:url(#SVGID_16_);}
</style>
<g id="Warstwa_1">
</g>
<g id="Warstwa_2" class="st5">
</g>
<g id="Warstwa_3">
	<g>
		<path class="st1" d="M3,0v36.2C3,48.3,12.8,58,24.8,58h121.3c12.1,0,21.8-9.7,21.8-21.8V0H3z"/>
		<path class="st2" d="M165,0v36.2c0,10.7-8.2,19.8-18.9,19.8H24.9C14.2,56,5,46.9,5,36.2V0H0v36.2C0,49.6,11.4,61,24.9,61h121.3
			c13.4,0,23.9-11.4,23.9-24.8V0H165z"/>
		<path class="st2" d="M69.6,22c0.3,0,0.5,0.1,0.7,0.3c0.2,0.2,0.3,0.4,0.3,0.7c0,0.2-0.1,0.5-0.3,0.9l-5.5,7.9h5.1
			c0.2,0,0.4,0.1,0.6,0.3s0.3,0.4,0.3,0.6c0,0.3-0.1,0.5-0.3,0.7c-0.2,0.2-0.4,0.3-0.6,0.3h-6.5c-0.2,0-0.4,0-0.5-0.1
			c-0.1-0.1-0.2-0.2-0.3-0.4c-0.1-0.2-0.1-0.3-0.1-0.5c0-0.2,0.1-0.4,0.2-0.5h0l5.7-8.1h-4.7c-0.3,0-0.5-0.1-0.6-0.3
			c-0.2-0.2-0.3-0.4-0.3-0.6c0-0.3,0.1-0.5,0.3-0.7c0.2-0.2,0.4-0.3,0.6-0.3H69.6z"/>
		<path class="st2" d="M78.6,32.2c0,0.2,0,0.5,0,0.8c0,0.3,0,0.6,0,0.8c0,0.3-0.1,0.5-0.1,0.8c0,0.3-0.1,0.5-0.2,0.7
			c-0.1,0.3-0.3,0.6-0.5,0.9S77.3,36.8,77,37s-0.6,0.4-1,0.5s-0.7,0.2-1.2,0.2c-0.4,0-0.8,0-1.1-0.1c-0.4-0.1-0.7-0.2-0.9-0.4
			c-0.3-0.1-0.5-0.3-0.6-0.5C72,36.5,72,36.4,72,36.2c0-0.1,0-0.2,0.1-0.3c0-0.1,0.1-0.2,0.2-0.3c0.1-0.1,0.2-0.2,0.3-0.2
			c0.1-0.1,0.2-0.1,0.4-0.1c0.1,0,0.2,0,0.3,0.1s0.2,0.1,0.3,0.2c0.1,0.1,0.3,0.2,0.5,0.3c0.2,0.1,0.5,0.1,1,0.1
			c0.4,0,0.8-0.1,1-0.3c0.3-0.2,0.5-0.5,0.6-0.8c0.1-0.3,0.3-0.7,0.3-1.1c0.1-0.4,0.1-0.8,0.1-1.1c-0.1,0.1-0.2,0.2-0.4,0.4
			s-0.3,0.3-0.5,0.4c-0.2,0.1-0.4,0.2-0.6,0.3c-0.2,0.1-0.5,0.1-0.7,0.1c-0.6,0-1-0.1-1.4-0.3c-0.4-0.2-0.7-0.5-1-0.9
			c-0.3-0.4-0.4-0.8-0.5-1.3c-0.1-0.5-0.2-1-0.2-1.5c0-1,0.2-1.8,0.5-2.6s0.8-1.3,1.5-1.6l0,0c0.4-0.3,1-0.4,1.6-0.4
			c0.3,0,0.7,0.1,1,0.3c0.3,0.2,0.5,0.4,0.6,0.6c0-0.3,0.1-0.5,0.3-0.6s0.4-0.2,0.5-0.2c0.2,0,0.4,0.1,0.6,0.3s0.3,0.4,0.3,0.6V32.2
			z M74.9,31.9c0.3,0,0.6-0.1,0.8-0.2c0.2-0.1,0.4-0.3,0.6-0.5c0.2-0.2,0.3-0.5,0.4-0.8s0.1-0.6,0.1-0.9v-2.1
			c-0.1-0.2-0.3-0.3-0.5-0.4s-0.4-0.2-0.7-0.2c-0.4,0-0.7,0.1-0.9,0.2c-0.3,0.1-0.5,0.3-0.6,0.6s-0.3,0.6-0.4,0.9s-0.1,0.7-0.1,1.2
			c0,0.6,0.1,1.2,0.4,1.6C74.1,31.7,74.4,31.9,74.9,31.9z"/>
		<path class="st2" d="M80.4,29.2c-0.2,0-0.4-0.1-0.5-0.3c-0.2-0.2-0.2-0.4-0.2-0.6c0-0.1,0-0.3,0.1-0.4c0.1-0.1,0.2-0.2,0.3-0.3
			l1.1-0.6v-4.9c0-0.2,0.1-0.4,0.3-0.6c0.2-0.2,0.4-0.3,0.6-0.3c0.2,0,0.5,0.1,0.6,0.2c0.2,0.2,0.3,0.4,0.3,0.6v3.8l0.8-0.5
			c0.1-0.1,0.2-0.1,0.2-0.1s0.2,0,0.2,0c0.2,0,0.4,0.1,0.6,0.2s0.3,0.4,0.3,0.6c0,0.3-0.1,0.5-0.4,0.7L83,27.8v3c0,0.3,0,0.6,0,0.8
			c0,0.2,0.1,0.3,0.2,0.3c0,0,0.1,0,0.1-0.1c0.1,0,0.1-0.1,0.2-0.1c0.1,0,0.2,0,0.3,0c0.3,0,0.5,0.1,0.7,0.3
			c0.2,0.2,0.3,0.4,0.3,0.6c0,0.2-0.1,0.4-0.2,0.5c-0.1,0.1-0.2,0.3-0.4,0.3c-0.2,0.1-0.3,0.2-0.5,0.2c-0.2,0-0.4,0.1-0.6,0.1
			c-0.4,0-0.7-0.1-0.9-0.2c-0.2-0.1-0.4-0.3-0.6-0.6s-0.2-0.5-0.3-0.9c-0.1-0.3-0.1-0.7-0.1-1.1v-2c-0.1,0-0.2,0.1-0.3,0.2
			C80.8,29.2,80.6,29.2,80.4,29.2z"/>
		<path class="st2" d="M93.6,29.4c0,0.8-0.1,1.4-0.3,1.9c-0.2,0.5-0.5,1-0.8,1.3c-0.3,0.3-0.7,0.6-1.2,0.7c-0.4,0.2-0.9,0.2-1.4,0.2
			c-0.5,0-1-0.1-1.4-0.2c-0.4-0.2-0.8-0.4-1.2-0.7c-0.3-0.3-0.6-0.8-0.8-1.3c-0.2-0.5-0.3-1.2-0.3-2s0.1-1.4,0.3-2
			c0.2-0.5,0.5-1,0.8-1.3c0.3-0.3,0.7-0.6,1.2-0.7c0.4-0.2,0.9-0.2,1.4-0.2c0.5,0,1,0.1,1.4,0.2c0.4,0.2,0.8,0.4,1.2,0.7
			s0.6,0.8,0.8,1.3C93.5,28,93.6,28.7,93.6,29.4z M90,26.9c-0.2,0-0.5,0-0.7,0.1c-0.2,0.1-0.4,0.2-0.6,0.4c-0.2,0.2-0.3,0.5-0.4,0.8
			c-0.1,0.3-0.2,0.7-0.2,1.2s0.1,0.9,0.2,1.2c0.1,0.3,0.2,0.6,0.4,0.8c0.2,0.2,0.4,0.3,0.6,0.4c0.2,0.1,0.5,0.1,0.7,0.1
			c0.3,0,0.5,0,0.7-0.1c0.2-0.1,0.4-0.2,0.6-0.4c0.2-0.2,0.3-0.5,0.4-0.8c0.1-0.3,0.2-0.7,0.2-1.2s-0.1-0.9-0.2-1.2
			c-0.1-0.3-0.2-0.6-0.4-0.8c-0.2-0.2-0.4-0.3-0.6-0.4C90.4,26.9,90.2,26.9,90,26.9z"/>
		<path class="st2" d="M95.3,33.2c-0.3-0.2-0.5-0.4-0.5-0.8c0-0.2,0.1-0.4,0.2-0.5c0.1-0.2,0.3-0.2,0.5-0.2c0.2,0,0.3,0,0.4,0.1
			c0.1,0,0.3,0.1,0.4,0.2c0.1,0.1,0.3,0.1,0.4,0.2s0.3,0.1,0.5,0.1c0.3,0,0.6-0.1,0.9-0.2s0.4-0.3,0.4-0.6c0-0.1,0-0.3-0.1-0.4
			c-0.1-0.1-0.2-0.2-0.3-0.3c-0.1-0.1-0.3-0.2-0.5-0.3c-0.2-0.1-0.3-0.2-0.5-0.3c-0.3-0.1-0.5-0.3-0.8-0.4c-0.3-0.1-0.5-0.3-0.7-0.5
			s-0.4-0.4-0.5-0.7c-0.1-0.3-0.2-0.6-0.2-1c0-0.4,0.1-0.7,0.2-1c0.1-0.3,0.3-0.5,0.6-0.7c0.2-0.2,0.5-0.3,0.9-0.4
			c0.3-0.1,0.7-0.1,1.1-0.1c0.3,0,0.6,0,0.9,0.1c0.3,0.1,0.6,0.1,0.8,0.3c0.2,0.1,0.3,0.2,0.4,0.3c0.1,0.2,0.1,0.3,0.1,0.5
			c0,0.2-0.1,0.4-0.2,0.5c-0.1,0.1-0.3,0.2-0.6,0.2c-0.1,0-0.3,0-0.4-0.1c-0.1,0-0.2-0.1-0.3-0.1c-0.1-0.1-0.2-0.1-0.4-0.2
			c-0.1,0-0.3-0.1-0.5-0.1c-0.3,0-0.6,0-0.8,0.1c-0.2,0.1-0.4,0.3-0.4,0.6c0,0.1,0,0.2,0.1,0.3c0.1,0.1,0.2,0.2,0.4,0.3
			c0.1,0.1,0.3,0.2,0.5,0.3c0.2,0.1,0.3,0.2,0.5,0.3c0.3,0.1,0.5,0.3,0.8,0.4c0.3,0.1,0.5,0.3,0.7,0.5c0.2,0.2,0.4,0.4,0.5,0.7
			c0.1,0.3,0.2,0.6,0.2,1c0,0.8-0.3,1.4-0.8,1.8c-0.5,0.4-1.2,0.6-2.1,0.6c-0.3,0-0.7,0-1.1-0.1C95.9,33.5,95.6,33.3,95.3,33.2z
			 M98.1,21.3c0.2,0,0.4,0.1,0.6,0.2c0.1,0.1,0.2,0.3,0.3,0.5c0.1,0.2,0.1,0.4,0,0.5c0,0.2-0.1,0.3-0.2,0.5l-0.5,0.5l-0.5,0.5
			l-0.1,0.1c-0.1,0.1-0.2,0.2-0.3,0.2s-0.3,0.1-0.4,0.1c-0.3,0-0.6-0.1-0.7-0.4c-0.1-0.3-0.1-0.6,0.2-0.9c0,0,0,0,0.1-0.1
			c0.1-0.1,0.1-0.2,0.2-0.4l0.3-0.5c0.1-0.2,0.3-0.4,0.4-0.5C97.6,21.3,97.8,21.3,98.1,21.3z"/>
		<path class="st2" d="M114.6,31.5c0,0.2,0,0.4,0.1,0.5s0.2,0.1,0.3,0.1h0.1c0.2,0,0.4,0.1,0.6,0.2c0.1,0.1,0.2,0.3,0.2,0.5
			c0,0.3-0.1,0.5-0.2,0.6c-0.2,0.2-0.5,0.2-0.9,0.2c-0.3,0-0.7-0.1-1-0.3s-0.5-0.5-0.6-0.9c-0.2,0.3-0.4,0.6-0.8,0.8
			s-0.8,0.4-1.3,0.4c-1,0-1.7-0.3-2.2-0.8c-0.5-0.6-0.7-1.3-0.7-2.2v-4.4c0-0.1,0-0.2,0-0.4c0-0.1,0.1-0.2,0.1-0.3
			c0.1-0.1,0.2-0.2,0.3-0.2c0.1-0.1,0.3-0.1,0.5-0.1c0.3,0,0.6,0.1,0.7,0.3s0.2,0.4,0.2,0.7v3.8c0,0.7,0.1,1.2,0.2,1.5
			c0.1,0.4,0.4,0.5,0.9,0.5c0.3,0,0.6-0.1,0.8-0.2c0.2-0.2,0.4-0.3,0.5-0.6s0.2-0.5,0.3-0.8c0.1-0.3,0.1-0.6,0.1-0.9v-3.4
			c0-0.3,0.1-0.5,0.3-0.6c0.2-0.2,0.4-0.3,0.7-0.3s0.5,0.1,0.6,0.3c0.2,0.2,0.2,0.4,0.2,0.6V31.5z"/>
		<path class="st2" d="M125.7,32.5c-0.1,0.3-0.2,0.6-0.4,0.8s-0.4,0.3-0.8,0.3s-0.7-0.1-0.8-0.3c-0.2-0.2-0.3-0.5-0.4-0.8l-1.2-4.3
			l-1.1,4.3c-0.1,0.4-0.2,0.7-0.4,0.9c-0.2,0.2-0.4,0.3-0.8,0.3c-0.3,0-0.6-0.1-0.8-0.3c-0.2-0.2-0.3-0.5-0.4-0.9l-1.9-6.2
			c-0.1-0.3-0.1-0.5,0.1-0.8c0.2-0.2,0.4-0.4,0.7-0.4c0.4,0,0.7,0.2,0.9,0.7l1.5,5.7c0.1-0.4,0.2-0.9,0.4-1.4s0.2-1,0.4-1.5
			c0.1-0.5,0.2-1,0.4-1.5c0.1-0.5,0.3-0.9,0.4-1.4c0.1-0.2,0.2-0.3,0.3-0.4s0.3-0.2,0.5-0.2h0.1c0.2,0,0.4,0.1,0.5,0.2
			c0.1,0.1,0.3,0.3,0.3,0.5l1.5,5.6l1.5-5.6c0-0.2,0.1-0.4,0.3-0.5c0.1-0.1,0.3-0.2,0.5-0.2c0.3,0,0.5,0.1,0.6,0.3
			c0.2,0.2,0.2,0.4,0.3,0.7c0,0.1,0,0.1,0,0.2c0,0,0,0.1,0,0.2L125.7,32.5z"/>
		<path class="st2" d="M136.1,32c0.2,0,0.4,0.1,0.5,0.2s0.2,0.3,0.2,0.5c0,0.3-0.1,0.5-0.3,0.7c-0.2,0.2-0.5,0.3-1,0.3
			c-0.4,0-0.7-0.1-0.9-0.3c-0.3-0.2-0.5-0.5-0.6-0.8c-0.2,0.3-0.5,0.5-0.9,0.8c-0.4,0.2-0.8,0.4-1.3,0.4c-0.6,0-1-0.1-1.4-0.3
			c-0.4-0.2-0.7-0.5-1-0.9c-0.3-0.4-0.4-0.8-0.6-1.3c-0.1-0.5-0.2-1-0.2-1.5c0-1,0.2-1.8,0.5-2.6s0.8-1.3,1.5-1.6l0,0
			c0.5-0.3,1-0.4,1.6-0.4c0.3,0,0.6,0.1,1,0.3c0.3,0.2,0.5,0.4,0.6,0.6c0-0.3,0.1-0.5,0.3-0.6s0.4-0.2,0.6-0.2
			c0.2,0,0.4,0.1,0.6,0.3s0.3,0.4,0.3,0.6v5.4c0,0.2,0.1,0.4,0.2,0.4C135.8,31.9,135.9,32,136.1,32z M131.8,31.9
			c0.3,0,0.6-0.1,0.8-0.2c0.2-0.1,0.4-0.3,0.6-0.5c0.2-0.2,0.3-0.5,0.4-0.8s0.1-0.6,0.1-0.9v-2.1c-0.1-0.2-0.3-0.3-0.5-0.4
			s-0.5-0.2-0.7-0.2c-0.4,0-0.7,0.1-0.9,0.2c-0.3,0.1-0.5,0.3-0.6,0.6s-0.3,0.6-0.4,0.9s-0.1,0.7-0.1,1.2c0,0.6,0.1,1.2,0.4,1.6
			C131.1,31.7,131.4,31.9,131.8,31.9z"/>
		<path class="st2" d="M144.6,32.2c0,0.2,0,0.5,0,0.8c0,0.3,0,0.6,0,0.8c0,0.3-0.1,0.5-0.1,0.8c0,0.3-0.1,0.5-0.2,0.7
			c-0.1,0.3-0.3,0.6-0.5,0.9s-0.5,0.5-0.7,0.8s-0.6,0.4-1,0.5s-0.7,0.2-1.2,0.2c-0.4,0-0.8,0-1.1-0.1c-0.4-0.1-0.7-0.2-0.9-0.4
			c-0.3-0.1-0.5-0.3-0.6-0.5c-0.2-0.2-0.2-0.4-0.2-0.5c0-0.1,0-0.2,0.1-0.3c0-0.1,0.1-0.2,0.2-0.3c0.1-0.1,0.2-0.2,0.3-0.2
			c0.1-0.1,0.2-0.1,0.4-0.1c0.1,0,0.2,0,0.3,0.1s0.2,0.1,0.3,0.2c0.1,0.1,0.3,0.2,0.5,0.3c0.2,0.1,0.5,0.1,1,0.1
			c0.4,0,0.8-0.1,1-0.3c0.3-0.2,0.5-0.5,0.6-0.8c0.1-0.3,0.3-0.7,0.3-1.1c0.1-0.4,0.1-0.8,0.1-1.1c-0.1,0.1-0.2,0.2-0.4,0.4
			s-0.3,0.3-0.5,0.4c-0.2,0.1-0.4,0.2-0.6,0.3c-0.2,0.1-0.5,0.1-0.7,0.1c-0.6,0-1-0.1-1.4-0.3c-0.4-0.2-0.7-0.5-1-0.9
			c-0.3-0.4-0.4-0.8-0.5-1.3c-0.1-0.5-0.2-1-0.2-1.5c0-1,0.2-1.8,0.5-2.6s0.8-1.3,1.5-1.6l0,0c0.4-0.3,1-0.4,1.6-0.4
			c0.3,0,0.7,0.1,1,0.3c0.3,0.2,0.5,0.4,0.6,0.6c0-0.3,0.1-0.5,0.3-0.6s0.4-0.2,0.5-0.2c0.2,0,0.4,0.1,0.6,0.3s0.3,0.4,0.3,0.6V32.2
			z M140.9,31.9c0.3,0,0.6-0.1,0.8-0.2c0.2-0.1,0.4-0.3,0.6-0.5c0.2-0.2,0.3-0.5,0.4-0.8s0.1-0.6,0.1-0.9v-2.1
			c-0.1-0.2-0.3-0.3-0.5-0.4s-0.4-0.2-0.7-0.2c-0.4,0-0.7,0.1-0.9,0.2c-0.3,0.1-0.5,0.3-0.6,0.6s-0.3,0.6-0.4,0.9s-0.1,0.7-0.1,1.2
			c0,0.6,0.1,1.2,0.4,1.6C140.2,31.7,140.5,31.9,140.9,31.9z"/>
		<path class="st2" d="M146.7,22.8c0-0.3,0.1-0.6,0.3-0.8c0.2-0.2,0.5-0.3,0.8-0.3c0.3,0,0.6,0.1,0.8,0.3s0.3,0.5,0.3,0.8
			c0,0.3-0.1,0.6-0.3,0.8s-0.5,0.3-0.8,0.3c-0.3,0-0.6-0.1-0.8-0.3C146.8,23.4,146.7,23.1,146.7,22.8z M149,32
			c0.2,0,0.4,0.1,0.6,0.2c0.1,0.2,0.2,0.3,0.2,0.5c0,0.2,0,0.3-0.1,0.5c-0.1,0.1-0.2,0.2-0.3,0.3c-0.1,0.1-0.3,0.1-0.4,0.2
			c-0.1,0-0.3,0-0.4,0c-0.7,0-1.1-0.2-1.4-0.6c-0.3-0.4-0.4-1-0.4-1.6v-5.3c0-0.2,0.1-0.4,0.3-0.6c0.2-0.2,0.4-0.3,0.6-0.3
			c0.3,0,0.5,0.1,0.6,0.3c0.2,0.2,0.3,0.4,0.3,0.6v5.5c0,0.2,0,0.3,0,0.3c0,0,0,0.1,0.1,0.1h0.2C148.9,32,148.9,32,149,32
			C149,32,149,32,149,32z"/>
		<polygon class="st2" points="34,30.3 21,25 21,36 47,36 47,25 		"/>
		<polygon class="st2" points="21,22.6 34,27.8 47,22.6 47,18 21,18 		"/>
		<path class="st3" d="M173,0v36.2c0,12.1,9.8,21.8,21.8,21.8h121.3c12.1,0,21.8-9.7,21.8-21.8V0H173z"/>
		<path class="st2" d="M335,0v36.2c0,10.7-8.2,19.8-18.9,19.8H194.9c-10.7,0-19.9-9.1-19.9-19.8V0h-5v36.2
			c0,13.4,11.4,24.8,24.9,24.8h121.3c13.4,0,23.9-11.4,23.9-24.8V0H335z"/>
		<path class="st2" d="M239.6,22c0.3,0,0.5,0.1,0.7,0.3c0.2,0.2,0.3,0.4,0.3,0.7c0,0.2-0.1,0.5-0.3,0.9l-5.5,7.9h5.1
			c0.2,0,0.4,0.1,0.6,0.3s0.3,0.4,0.3,0.6c0,0.3-0.1,0.5-0.3,0.7c-0.2,0.2-0.4,0.3-0.6,0.3h-6.5c-0.2,0-0.4,0-0.5-0.1
			c-0.1-0.1-0.2-0.2-0.3-0.4c-0.1-0.2-0.1-0.3-0.1-0.5c0-0.2,0.1-0.4,0.2-0.5h0l5.7-8.1h-4.7c-0.3,0-0.5-0.1-0.6-0.3
			c-0.2-0.2-0.3-0.4-0.3-0.6c0-0.3,0.1-0.5,0.3-0.7c0.2-0.2,0.4-0.3,0.6-0.3H239.6z"/>
		<path class="st2" d="M248.6,32.2c0,0.2,0,0.5,0,0.8c0,0.3,0,0.6,0,0.8c0,0.3-0.1,0.5-0.1,0.8c0,0.3-0.1,0.5-0.2,0.7
			c-0.1,0.3-0.3,0.6-0.5,0.9s-0.5,0.5-0.7,0.8s-0.6,0.4-1,0.5s-0.7,0.2-1.2,0.2c-0.4,0-0.8,0-1.1-0.1c-0.4-0.1-0.7-0.2-0.9-0.4
			c-0.3-0.1-0.5-0.3-0.6-0.5c-0.2-0.2-0.2-0.4-0.2-0.5c0-0.1,0-0.2,0.1-0.3c0-0.1,0.1-0.2,0.2-0.3c0.1-0.1,0.2-0.2,0.3-0.2
			c0.1-0.1,0.2-0.1,0.4-0.1c0.1,0,0.2,0,0.3,0.1s0.2,0.1,0.3,0.2c0.1,0.1,0.3,0.2,0.5,0.3c0.2,0.1,0.5,0.1,1,0.1
			c0.4,0,0.8-0.1,1-0.3c0.3-0.2,0.5-0.5,0.6-0.8c0.1-0.3,0.3-0.7,0.3-1.1c0.1-0.4,0.1-0.8,0.1-1.1c-0.1,0.1-0.2,0.2-0.4,0.4
			s-0.3,0.3-0.5,0.4c-0.2,0.1-0.4,0.2-0.6,0.3c-0.2,0.1-0.5,0.1-0.7,0.1c-0.6,0-1-0.1-1.4-0.3c-0.4-0.2-0.7-0.5-1-0.9
			c-0.3-0.4-0.4-0.8-0.5-1.3c-0.1-0.5-0.2-1-0.2-1.5c0-1,0.2-1.8,0.5-2.6s0.8-1.3,1.5-1.6l0,0c0.4-0.3,1-0.4,1.6-0.4
			c0.3,0,0.7,0.1,1,0.3c0.3,0.2,0.5,0.4,0.6,0.6c0-0.3,0.1-0.5,0.3-0.6s0.4-0.2,0.5-0.2c0.2,0,0.4,0.1,0.6,0.3s0.3,0.4,0.3,0.6V32.2
			z M244.9,31.9c0.3,0,0.6-0.1,0.8-0.2c0.2-0.1,0.4-0.3,0.6-0.5c0.2-0.2,0.3-0.5,0.4-0.8s0.1-0.6,0.1-0.9v-2.1
			c-0.1-0.2-0.3-0.3-0.5-0.4s-0.4-0.2-0.7-0.2c-0.4,0-0.7,0.1-0.9,0.2c-0.3,0.1-0.5,0.3-0.6,0.6s-0.3,0.6-0.4,0.9s-0.1,0.7-0.1,1.2
			c0,0.6,0.1,1.2,0.4,1.6C244.1,31.7,244.4,31.9,244.9,31.9z"/>
		<path class="st2" d="M250.4,29.2c-0.2,0-0.4-0.1-0.5-0.3c-0.2-0.2-0.2-0.4-0.2-0.6c0-0.1,0-0.3,0.1-0.4c0.1-0.1,0.2-0.2,0.3-0.3
			l1.1-0.6v-4.9c0-0.2,0.1-0.4,0.3-0.6c0.2-0.2,0.4-0.3,0.6-0.3c0.2,0,0.5,0.1,0.6,0.2c0.2,0.2,0.3,0.4,0.3,0.6v3.8l0.8-0.5
			c0.1-0.1,0.2-0.1,0.2-0.1s0.2,0,0.2,0c0.2,0,0.4,0.1,0.6,0.2s0.3,0.4,0.3,0.6c0,0.3-0.1,0.5-0.4,0.7l-1.7,1.1v3c0,0.3,0,0.6,0,0.8
			c0,0.2,0.1,0.3,0.2,0.3c0,0,0.1,0,0.1-0.1c0.1,0,0.1-0.1,0.2-0.1c0.1,0,0.2,0,0.3,0c0.3,0,0.5,0.1,0.7,0.3
			c0.2,0.2,0.3,0.4,0.3,0.6c0,0.2-0.1,0.4-0.2,0.5c-0.1,0.1-0.2,0.3-0.4,0.3c-0.2,0.1-0.3,0.2-0.5,0.2c-0.2,0-0.4,0.1-0.6,0.1
			c-0.4,0-0.7-0.1-0.9-0.2c-0.2-0.1-0.4-0.3-0.6-0.6s-0.2-0.5-0.3-0.9c-0.1-0.3-0.1-0.7-0.1-1.1v-2c-0.1,0-0.2,0.1-0.3,0.2
			C250.8,29.2,250.6,29.2,250.4,29.2z"/>
		<path class="st2" d="M263.6,29.4c0,0.8-0.1,1.4-0.3,1.9c-0.2,0.5-0.5,1-0.8,1.3c-0.3,0.3-0.7,0.6-1.2,0.7
			c-0.4,0.2-0.9,0.2-1.4,0.2c-0.5,0-1-0.1-1.4-0.2c-0.4-0.2-0.8-0.4-1.2-0.7c-0.3-0.3-0.6-0.8-0.8-1.3c-0.2-0.5-0.3-1.2-0.3-2
			s0.1-1.4,0.3-2c0.2-0.5,0.5-1,0.8-1.3c0.3-0.3,0.7-0.6,1.2-0.7c0.4-0.2,0.9-0.2,1.4-0.2c0.5,0,1,0.1,1.4,0.2
			c0.4,0.2,0.8,0.4,1.2,0.7s0.6,0.8,0.8,1.3C263.5,28,263.6,28.7,263.6,29.4z M260,26.9c-0.2,0-0.5,0-0.7,0.1
			c-0.2,0.1-0.4,0.2-0.6,0.4c-0.2,0.2-0.3,0.5-0.4,0.8c-0.1,0.3-0.2,0.7-0.2,1.2s0.1,0.9,0.2,1.2c0.1,0.3,0.2,0.6,0.4,0.8
			c0.2,0.2,0.4,0.3,0.6,0.4c0.2,0.1,0.5,0.1,0.7,0.1c0.3,0,0.5,0,0.7-0.1c0.2-0.1,0.4-0.2,0.6-0.4c0.2-0.2,0.3-0.5,0.4-0.8
			c0.1-0.3,0.2-0.7,0.2-1.2s-0.1-0.9-0.2-1.2c-0.1-0.3-0.2-0.6-0.4-0.8c-0.2-0.2-0.4-0.3-0.6-0.4C260.4,26.9,260.2,26.9,260,26.9z"
			/>
		<path class="st2" d="M265.3,33.2c-0.3-0.2-0.5-0.4-0.5-0.8c0-0.2,0.1-0.4,0.2-0.5c0.1-0.2,0.3-0.2,0.5-0.2c0.2,0,0.3,0,0.4,0.1
			c0.1,0,0.3,0.1,0.4,0.2c0.1,0.1,0.3,0.1,0.4,0.2s0.3,0.1,0.5,0.1c0.3,0,0.6-0.1,0.9-0.2s0.4-0.3,0.4-0.6c0-0.1,0-0.3-0.1-0.4
			c-0.1-0.1-0.2-0.2-0.3-0.3c-0.1-0.1-0.3-0.2-0.5-0.3c-0.2-0.1-0.3-0.2-0.5-0.3c-0.3-0.1-0.5-0.3-0.8-0.4c-0.3-0.1-0.5-0.3-0.7-0.5
			s-0.4-0.4-0.5-0.7c-0.1-0.3-0.2-0.6-0.2-1c0-0.4,0.1-0.7,0.2-1c0.1-0.3,0.3-0.5,0.6-0.7c0.2-0.2,0.5-0.3,0.9-0.4
			c0.3-0.1,0.7-0.1,1.1-0.1c0.3,0,0.6,0,0.9,0.1c0.3,0.1,0.6,0.1,0.8,0.3c0.2,0.1,0.3,0.2,0.4,0.3c0.1,0.2,0.1,0.3,0.1,0.5
			c0,0.2-0.1,0.4-0.2,0.5c-0.1,0.1-0.3,0.2-0.6,0.2c-0.1,0-0.3,0-0.4-0.1c-0.1,0-0.2-0.1-0.3-0.1c-0.1-0.1-0.2-0.1-0.4-0.2
			c-0.1,0-0.3-0.1-0.5-0.1c-0.3,0-0.6,0-0.8,0.1c-0.2,0.1-0.4,0.3-0.4,0.6c0,0.1,0,0.2,0.1,0.3c0.1,0.1,0.2,0.2,0.4,0.3
			c0.1,0.1,0.3,0.2,0.5,0.3c0.2,0.1,0.3,0.2,0.5,0.3c0.3,0.1,0.5,0.3,0.8,0.4c0.3,0.1,0.5,0.3,0.7,0.5c0.2,0.2,0.4,0.4,0.5,0.7
			c0.1,0.3,0.2,0.6,0.2,1c0,0.8-0.3,1.4-0.8,1.8c-0.5,0.4-1.2,0.6-2.1,0.6c-0.3,0-0.7,0-1.1-0.1C265.9,33.5,265.6,33.3,265.3,33.2z
			 M268.1,21.3c0.2,0,0.4,0.1,0.6,0.2c0.1,0.1,0.2,0.3,0.3,0.5c0.1,0.2,0.1,0.4,0,0.5c0,0.2-0.1,0.3-0.2,0.5l-0.5,0.5l-0.5,0.5
			l-0.1,0.1c-0.1,0.1-0.2,0.2-0.3,0.2s-0.3,0.1-0.4,0.1c-0.3,0-0.6-0.1-0.7-0.4c-0.1-0.3-0.1-0.6,0.2-0.9c0,0,0,0,0.1-0.1
			c0.1-0.1,0.1-0.2,0.2-0.4l0.3-0.5c0.1-0.2,0.3-0.4,0.4-0.5C267.6,21.3,267.8,21.3,268.1,21.3z"/>
		<path class="st2" d="M284.6,31.5c0,0.2,0,0.4,0.1,0.5s0.2,0.1,0.3,0.1h0.1c0.2,0,0.4,0.1,0.6,0.2c0.1,0.1,0.2,0.3,0.2,0.5
			c0,0.3-0.1,0.5-0.2,0.6c-0.2,0.2-0.5,0.2-0.9,0.2c-0.3,0-0.7-0.1-1-0.3s-0.5-0.5-0.6-0.9c-0.2,0.3-0.4,0.6-0.8,0.8
			s-0.8,0.4-1.3,0.4c-1,0-1.7-0.3-2.2-0.8c-0.5-0.6-0.7-1.3-0.7-2.2v-4.4c0-0.1,0-0.2,0-0.4c0-0.1,0.1-0.2,0.1-0.3
			c0.1-0.1,0.2-0.2,0.3-0.2c0.1-0.1,0.3-0.1,0.5-0.1c0.3,0,0.6,0.1,0.7,0.3s0.2,0.4,0.2,0.7v3.8c0,0.7,0.1,1.2,0.2,1.5
			c0.1,0.4,0.4,0.5,0.9,0.5c0.3,0,0.6-0.1,0.8-0.2c0.2-0.2,0.4-0.3,0.5-0.6s0.2-0.5,0.3-0.8c0.1-0.3,0.1-0.6,0.1-0.9v-3.4
			c0-0.3,0.1-0.5,0.3-0.6c0.2-0.2,0.4-0.3,0.7-0.3s0.5,0.1,0.6,0.3c0.2,0.2,0.2,0.4,0.2,0.6V31.5z"/>
		<path class="st2" d="M295.7,32.5c-0.1,0.3-0.2,0.6-0.4,0.8s-0.4,0.3-0.8,0.3s-0.7-0.1-0.8-0.3c-0.2-0.2-0.3-0.5-0.4-0.8l-1.2-4.3
			l-1.1,4.3c-0.1,0.4-0.2,0.7-0.4,0.9c-0.2,0.2-0.4,0.3-0.8,0.3c-0.3,0-0.6-0.1-0.8-0.3c-0.2-0.2-0.3-0.5-0.4-0.9l-1.9-6.2
			c-0.1-0.3-0.1-0.5,0.1-0.8c0.2-0.2,0.4-0.4,0.7-0.4c0.4,0,0.7,0.2,0.9,0.7l1.5,5.7c0.1-0.4,0.2-0.9,0.4-1.4s0.2-1,0.4-1.5
			c0.1-0.5,0.2-1,0.4-1.5c0.1-0.5,0.3-0.9,0.4-1.4c0.1-0.2,0.2-0.3,0.3-0.4s0.3-0.2,0.5-0.2h0.1c0.2,0,0.4,0.1,0.5,0.2
			c0.1,0.1,0.3,0.3,0.3,0.5l1.5,5.6l1.5-5.6c0-0.2,0.1-0.4,0.3-0.5c0.1-0.1,0.3-0.2,0.5-0.2c0.3,0,0.5,0.1,0.6,0.3
			c0.2,0.2,0.2,0.4,0.3,0.7c0,0.1,0,0.1,0,0.2c0,0,0,0.1,0,0.2L295.7,32.5z"/>
		<path class="st2" d="M306.1,32c0.2,0,0.4,0.1,0.5,0.2s0.2,0.3,0.2,0.5c0,0.3-0.1,0.5-0.3,0.7c-0.2,0.2-0.5,0.3-1,0.3
			c-0.4,0-0.7-0.1-0.9-0.3c-0.3-0.2-0.5-0.5-0.6-0.8c-0.2,0.3-0.5,0.5-0.9,0.8c-0.4,0.2-0.8,0.4-1.3,0.4c-0.6,0-1-0.1-1.4-0.3
			c-0.4-0.2-0.7-0.5-1-0.9c-0.3-0.4-0.4-0.8-0.6-1.3c-0.1-0.5-0.2-1-0.2-1.5c0-1,0.2-1.8,0.5-2.6s0.8-1.3,1.5-1.6l0,0
			c0.5-0.3,1-0.4,1.6-0.4c0.3,0,0.6,0.1,1,0.3c0.3,0.2,0.5,0.4,0.6,0.6c0-0.3,0.1-0.5,0.3-0.6s0.4-0.2,0.6-0.2
			c0.2,0,0.4,0.1,0.6,0.3s0.3,0.4,0.3,0.6v5.4c0,0.2,0.1,0.4,0.2,0.4C305.8,31.9,305.9,32,306.1,32z M301.8,31.9
			c0.3,0,0.6-0.1,0.8-0.2c0.2-0.1,0.4-0.3,0.6-0.5c0.2-0.2,0.3-0.5,0.4-0.8s0.1-0.6,0.1-0.9v-2.1c-0.1-0.2-0.3-0.3-0.5-0.4
			s-0.5-0.2-0.7-0.2c-0.4,0-0.7,0.1-0.9,0.2c-0.3,0.1-0.5,0.3-0.6,0.6s-0.3,0.6-0.4,0.9s-0.1,0.7-0.1,1.2c0,0.6,0.1,1.2,0.4,1.6
			C301.1,31.7,301.4,31.9,301.8,31.9z"/>
		<path class="st2" d="M314.6,32.2c0,0.2,0,0.5,0,0.8c0,0.3,0,0.6,0,0.8c0,0.3-0.1,0.5-0.1,0.8c0,0.3-0.1,0.5-0.2,0.7
			c-0.1,0.3-0.3,0.6-0.5,0.9s-0.5,0.5-0.7,0.8s-0.6,0.4-1,0.5s-0.7,0.2-1.2,0.2c-0.4,0-0.8,0-1.1-0.1c-0.4-0.1-0.7-0.2-0.9-0.4
			c-0.3-0.1-0.5-0.3-0.6-0.5c-0.2-0.2-0.2-0.4-0.2-0.5c0-0.1,0-0.2,0.1-0.3c0-0.1,0.1-0.2,0.2-0.3c0.1-0.1,0.2-0.2,0.3-0.2
			c0.1-0.1,0.2-0.1,0.4-0.1c0.1,0,0.2,0,0.3,0.1s0.2,0.1,0.3,0.2c0.1,0.1,0.3,0.2,0.5,0.3c0.2,0.1,0.5,0.1,1,0.1
			c0.4,0,0.8-0.1,1-0.3c0.3-0.2,0.5-0.5,0.6-0.8c0.1-0.3,0.3-0.7,0.3-1.1c0.1-0.4,0.1-0.8,0.1-1.1c-0.1,0.1-0.2,0.2-0.4,0.4
			s-0.3,0.3-0.5,0.4c-0.2,0.1-0.4,0.2-0.6,0.3c-0.2,0.1-0.5,0.1-0.7,0.1c-0.6,0-1-0.1-1.4-0.3c-0.4-0.2-0.7-0.5-1-0.9
			c-0.3-0.4-0.4-0.8-0.5-1.3c-0.1-0.5-0.2-1-0.2-1.5c0-1,0.2-1.8,0.5-2.6s0.8-1.3,1.5-1.6l0,0c0.4-0.3,1-0.4,1.6-0.4
			c0.3,0,0.7,0.1,1,0.3c0.3,0.2,0.5,0.4,0.6,0.6c0-0.3,0.1-0.5,0.3-0.6s0.4-0.2,0.5-0.2c0.2,0,0.4,0.1,0.6,0.3s0.3,0.4,0.3,0.6V32.2
			z M310.9,31.9c0.3,0,0.6-0.1,0.8-0.2c0.2-0.1,0.4-0.3,0.6-0.5c0.2-0.2,0.3-0.5,0.4-0.8s0.1-0.6,0.1-0.9v-2.1
			c-0.1-0.2-0.3-0.3-0.5-0.4s-0.4-0.2-0.7-0.2c-0.4,0-0.7,0.1-0.9,0.2c-0.3,0.1-0.5,0.3-0.6,0.6s-0.3,0.6-0.4,0.9s-0.1,0.7-0.1,1.2
			c0,0.6,0.1,1.2,0.4,1.6C310.2,31.7,310.5,31.9,310.9,31.9z"/>
		<path class="st2" d="M316.7,22.8c0-0.3,0.1-0.6,0.3-0.8c0.2-0.2,0.5-0.3,0.8-0.3c0.3,0,0.6,0.1,0.8,0.3s0.3,0.5,0.3,0.8
			c0,0.3-0.1,0.6-0.3,0.8s-0.5,0.3-0.8,0.3c-0.3,0-0.6-0.1-0.8-0.3C316.8,23.4,316.7,23.1,316.7,22.8z M319,32
			c0.2,0,0.4,0.1,0.6,0.2c0.1,0.2,0.2,0.3,0.2,0.5c0,0.2,0,0.3-0.1,0.5c-0.1,0.1-0.2,0.2-0.3,0.3c-0.1,0.1-0.3,0.1-0.4,0.2
			c-0.1,0-0.3,0-0.4,0c-0.7,0-1.1-0.2-1.4-0.6c-0.3-0.4-0.4-1-0.4-1.6v-5.3c0-0.2,0.1-0.4,0.3-0.6c0.2-0.2,0.4-0.3,0.6-0.3
			c0.3,0,0.5,0.1,0.6,0.3c0.2,0.2,0.3,0.4,0.3,0.6v5.5c0,0.2,0,0.3,0,0.3c0,0,0,0.1,0.1,0.1h0.2C318.9,32,318.9,32,319,32
			C319,32,319,32,319,32z"/>
		<polygon class="st2" points="204,30.3 191,25 191,36 217,36 217,25 		"/>
		<polygon class="st2" points="191,22.6 204,27.8 217,22.6 217,18 191,18 		"/>
	</g>
</g>
</svg>
