<?xml version="1.0" standalone="no"?>
<!DOCTYPE svg PUBLIC "-//W3C//DTD SVG 1.1//EN" "http://www.w3.org/Graphics/SVG/1.1/DTD/svg11.dtd" >
<svg xmlns="http://www.w3.org/2000/svg">
<metadata></metadata>
<defs>
<font id="playfair_displayregular" horiz-adv-x="1190" >
<font-face units-per-em="2048" ascent="1638" descent="-410" />
<missing-glyph horiz-adv-x="510" />
<glyph unicode="&#xfb01;" horiz-adv-x="1268" d="M53 1012v41h164q0 277 148 415q63 61 159 97.5t224 36.5q84 0 156.5 -17t117.5 -45q70 -44 70 -113q0 -36 -18 -66.5t-48 -48.5t-65 -18t-65.5 18t-48.5 48t-18 65q0 37 18.5 67.5t49.5 47.5q-47 31 -149 31q-204 0 -291 -158q-30 -54 -43 -134.5t-13 -225.5h330 q128 0 201.5 5t138.5 19v-887q0 -57 15.5 -89t49 -45t91.5 -13v-43q-188 8 -248 8t-248 -8v43q58 0 91.5 13t49 45t15.5 89v641q0 95 -34.5 138t-121.5 43h-330v-822q0 -83 44 -115t133 -32v-43q-224 8 -269 8q-56 0 -248 -8v43q58 0 91.5 13t49 45t15.5 89v822h-164z" />
<glyph unicode="&#xfb02;" horiz-adv-x="1272" d="M53 1012v41h164q0 115 9 194.5t37.5 145.5t84.5 114q109 95 277 95q40 0 91 -7.5t89.5 -12.5t81.5 -5q103 0 184 29v-1416q0 -57 15.5 -89t49 -45t91.5 -13v-43q-188 8 -248 8t-248 -8v43q58 0 91.5 13t49 45t15.5 89v1141q0 63 -14 102.5t-42 67.5q-36 36 -91 53 t-105 17q-102 0 -162 -64q-43 -43 -57.5 -107t-14.5 -155v-192h261v-41h-261v-822q0 -83 44 -115t133 -32v-43q-224 8 -269 8q-56 0 -248 -8v43q58 0 91.5 13t49 45t15.5 89v822h-164z" />
<glyph horiz-adv-x="0" />
<glyph horiz-adv-x="682" />
<glyph unicode="&#xd;" horiz-adv-x="0" />
<glyph unicode=" "  horiz-adv-x="510" />
<glyph unicode="&#x09;" horiz-adv-x="510" />
<glyph unicode="&#xa0;" horiz-adv-x="510" />
<glyph unicode="!" horiz-adv-x="537" d="M137 102q0 35 17.5 65.5t48 48t65.5 17.5t65.5 -17.5t48 -48t17.5 -65.5t-17.5 -65t-48 -48t-65.5 -18t-65.5 18t-48 48t-17.5 65zM174 1487q0 59 26 87t68 28q41 0 67.5 -28.5t26.5 -86.5q0 -89 -23.5 -322.5t-37.5 -405.5t-14 -358h-37q0 168 -12.5 333.5t-38 414.5 t-25.5 338z" />
<glyph unicode="&#x22;" horiz-adv-x="610" d="M121 1399q0 43 21 68.5t53 27.5q32 0 52.5 -25.5t20.5 -68.5q0 -58 -6 -108t-24 -151.5t-29 -183.5h-29q-11 75 -28 175t-24 152.5t-7 113.5zM344 1399q0 43 21 68.5t53 27.5q32 0 52.5 -25.5t20.5 -68.5q0 -58 -6 -108t-24 -151.5t-29 -183.5h-29q-11 75 -28 175 t-24 152.5t-7 113.5z" />
<glyph unicode="#" horiz-adv-x="1305" d="M98 506l8 41h302l66 342h-300l6 41h302l59 303h41l-59 -303h342l59 303h41l-59 -303h300l-6 -41h-302l-66 -342h301l-9 -41h-300l-58 -299h-41l58 299h-342l-58 -299h-41l58 299h-302zM449 547h342l66 342h-342z" />
<glyph unicode="$" horiz-adv-x="1071" d="M111 -14q8 112 8 491h47q11 -175 75 -295.5t193 -156.5v665q-100 62 -166.5 119t-106.5 133t-40 176q0 103 41.5 177.5t112 117.5t159.5 55v252h41v-248l31 1q55 0 100 -9v256h41v-266q46 -15 109 -57q44 -29 69 -29q19 0 29 21.5t16 68.5h48q-11 -113 -11 -418h-47 q-9 128 -61.5 229t-151.5 142v-608q116 -73 186.5 -132.5t112 -135t41.5 -175.5q0 -109 -43.5 -189.5t-120.5 -128.5t-176 -64v-248h-41v243q-26 -2 -53 -2q-41 0 -78 4v-245h-41v251q-81 16 -162 66q-44 29 -69 29q-19 0 -29 -21.5t-16 -68.5h-47zM274 1196 q0 -83 40.5 -143t119.5 -116v483q-73 -24 -116.5 -83.5t-43.5 -140.5zM475 17q31 -5 64 -5q35 0 67 7v563q-46 32 -121 77l-10 6v-648zM475 909q-7 5 131 -81v596q-39 10 -82 10q-25 0 -49 -4v-521zM647 31q71 28 114.5 91.5t43.5 162.5q0 81 -40 144.5t-118 123.5v-522z " />
<glyph unicode="%" horiz-adv-x="1520" d="M72 1214q0 101 39.5 179.5t109 122t156.5 43.5q91 0 160 -39.5t107 -115t38 -179.5q0 -102 -39.5 -180t-108.5 -121t-157 -43q-91 0 -160 39.5t-107 115t-38 178.5zM153 -86l1198 1774l39 -27l-1198 -1774zM215 1217q0 -146 44 -222.5t122 -76.5q156 0 156 303 q0 148 -43 224.5t-121 76.5q-158 0 -158 -305zM834 305q0 101 39.5 179t109 121.5t156.5 43.5q91 0 160 -39.5t107 -115t38 -179.5q0 -101 -39.5 -179.5t-109 -121.5t-156.5 -43q-92 0 -160.5 39.5t-106.5 115t-38 179.5zM977 307q0 -146 43.5 -222.5t122.5 -76.5 q155 0 155 303q0 148 -42.5 224.5t-120.5 76.5q-158 0 -158 -305z" />
<glyph unicode="&#x26;" horiz-adv-x="1714" d="M111 481q0 135 67 228t152.5 141.5t158.5 67.5q-100 43 -153 114t-53 150q0 68 40 126.5t118 94t188 35.5q137 0 213 -62q38 -31 57 -68.5t19 -72.5q0 -49 -35 -79t-80 -30q-44 0 -75.5 28t-31.5 75q0 44 30.5 76t78.5 36q-9 27 -52 46.5t-104 19.5q-107 0 -172 -64 t-65 -180q0 -137 104 -233q71 12 127 12q38 0 60 -12t22 -35q0 -18 -15.5 -28.5t-41.5 -10.5q-30 0 -64 11t-57 21.5t-29 12.5q-266 -79 -266 -336q0 -137 72 -237t197 -152.5t280 -52.5q146 0 269 45.5t196 131t73 198.5q0 80 -43.5 164.5t-162.5 132.5q-182 -57 -236 -78 q-86 -33 -133 -75t-47 -103q0 -50 29.5 -87.5t73.5 -57t85 -19.5q35 0 76.5 12t46.5 33q-39 7 -67.5 32t-28.5 72q0 48 32 77.5t80 29.5q49 0 79 -30.5t30 -80.5q0 -55 -37 -95t-93.5 -60.5t-113.5 -20.5q-62 0 -120.5 26t-96 80t-37.5 134q0 104 70.5 177t212.5 122 q40 13 154.5 45.5t196.5 58.5t149 57q97 46 136.5 93.5t39.5 103.5q0 57 -33 104.5t-87.5 75t-117.5 27.5q-52 0 -61 -18q27 -14 42 -40.5t15 -54.5q0 -42 -34 -71t-81 -29q-44 0 -76 26.5t-32 75.5q0 50 34 82t85.5 46t105.5 14q85 0 153 -33.5t107 -96t39 -147.5 q0 -98 -53 -170.5t-141 -116.5q-72 -34 -304 -107q115 -48 169.5 -138.5t54.5 -208.5q0 -127 -75.5 -239.5t-217.5 -181.5t-332 -69q-179 0 -330.5 62.5t-242 178.5t-90.5 269z" />
<glyph unicode="'" horiz-adv-x="387" d="M121 1399q0 43 21 68.5t53 27.5q32 0 52.5 -25.5t20.5 -68.5q0 -58 -6 -108t-24 -151.5t-29 -183.5h-29q-11 75 -28 175t-24 152.5t-7 113.5z" />
<glyph unicode="(" horiz-adv-x="602" d="M90 639q0 -308 117.5 -562t333.5 -450l28 27q-167 195 -237 430.5t-70 554.5t70 554.5t237 430.5l-28 27q-216 -196 -333.5 -450t-117.5 -562z" />
<glyph unicode=")" horiz-adv-x="602" d="M33 -346q167 195 237 430.5t70 554.5t-70 554.5t-237 430.5l28 27q216 -196 333.5 -450t117.5 -562t-117.5 -562t-333.5 -450z" />
<glyph unicode="*" horiz-adv-x="1008" d="M120 877q0 47 68 88q30 17 68 29.5t113.5 32t122.5 33.5q-44 13 -120.5 33t-116 33t-69.5 29q-65 39 -65 88q0 18 10 35q16 32 56 32q33 0 75 -24q31 -18 62 -46t85.5 -83.5t88.5 -87.5q-10 43 -31 119.5t-30 118t-9 75.5q0 57 22 84t54 27q31 0 52.5 -27t21.5 -84 q0 -35 -8.5 -75.5t-29 -115t-32.5 -120.5q34 32 89.5 88t86 84t59.5 45q42 23 73 23q44 0 63 -35q9 -16 9 -31q0 -49 -69 -88q-30 -17 -68 -29.5t-113.5 -32t-122.5 -33.5q45 -13 121.5 -33.5t115.5 -33t69 -28.5q66 -38 66 -88q0 -18 -10 -35q-18 -32 -57 -32q-33 0 -75 24 q-31 18 -62.5 46t-86 83t-86.5 86q12 -46 32.5 -122t29.5 -116.5t10 -73.5q-1 -57 -24 -83.5t-56 -26.5q-30 0 -51 26t-21 84q0 35 8.5 75.5t29 115.5t32.5 121q-34 -32 -89.5 -88.5t-86.5 -84t-60 -44.5q-40 -23 -73 -23q-43 0 -62 35q-9 16 -9 31z" />
<glyph unicode="+" horiz-adv-x="1202" d="M88 696v62h477v483h74v-483h475v-62h-475v-481h-74v481h-477z" />
<glyph unicode="," horiz-adv-x="535" d="M127 102q0 56 38 93.5t93 37.5q79 0 121 -65q35 -54 35 -135q0 -103 -52.5 -184.5t-158.5 -131.5l-19 37q64 27 110 84.5t46 116.5q0 25 -6 43q-35 -27 -76 -27q-56 0 -93.5 35.5t-37.5 95.5z" />
<glyph unicode="-" horiz-adv-x="1022" d="M141 492v118h740v-118h-740z" />
<glyph unicode="." horiz-adv-x="516" d="M127 102q0 35 17.5 65.5t48 48t65.5 17.5t65.5 -17.5t48 -48t17.5 -65.5t-17.5 -65t-48 -48t-65.5 -18t-65.5 18t-48 48t-17.5 65z" />
<glyph unicode="/" horiz-adv-x="762" d="M70 -29l557 1508h67l-557 -1508h-67z" />
<glyph unicode="0" horiz-adv-x="1229" d="M106 512q0 162 64.5 292t182.5 204.5t272 74.5q143 0 255.5 -67t176 -189t63.5 -282q0 -163 -65.5 -294t-183 -205.5t-269.5 -74.5q-142 0 -255 67t-177 189.5t-64 284.5zM305 518q0 -176 42 -290.5t113.5 -167t160.5 -52.5q88 0 156.5 63.5t106.5 183.5t38 284 q0 175 -42 289t-113.5 166.5t-160.5 52.5q-88 0 -156.5 -63t-106.5 -182.5t-38 -283.5z" />
<glyph unicode="1" horiz-adv-x="758" d="M96 928v45q150 3 247.5 26.5t174.5 77.5v-866q0 -66 19.5 -102t62 -51t115.5 -15v-43q-224 8 -283 8q-63 0 -315 -8v43q109 0 163 36.5t54 131.5v496q0 99 -20.5 145t-69 61t-148.5 15z" />
<glyph unicode="2" horiz-adv-x="981" d="M96 827q54 112 153 184t251 72q143 0 225 -67.5t82 -190.5q0 -121 -80 -223t-232 -239.5t-202 -204.5h416q56 0 83 9.5t38 30.5t16 64h35q0 -188 8 -272q-46 10 -305 10h-480v35q34 37 183 176.5t235 277.5t86 291q0 221 -205 221q-167 0 -274 -192z" />
<glyph unicode="3" horiz-adv-x="924" d="M76 -272q145 3 274 59.5t209 162.5t80 251q0 79 -26.5 142.5t-76 101t-114.5 42.5q-9 -4 -32 -13t-38 -13t-26 -4q-33 0 -33 26q0 18 15 28.5t38 10.5q13 0 34 -3.5t38 -4.5q80 61 118.5 137t38.5 158q0 94 -46.5 139t-131.5 45q-86 0 -156 -45.5t-116 -136.5l-35 16 q118 256 375 256q85 0 152 -28t105 -81t38 -124q0 -76 -42.5 -143t-112 -116.5t-150.5 -78.5q100 -2 186 -37t139.5 -104t53.5 -170q0 -149 -113 -265.5t-289.5 -180.5t-355.5 -64v37z" />
<glyph unicode="4" horiz-adv-x="1012" d="M35 111v43l665 929h33v-835h25q56 0 83 9.5t38 30.5t16 64h35q0 -172 8 -252q-35 9 -205 10v-399h-164v400h-534zM156 248h413v584z" />
<glyph unicode="5" horiz-adv-x="850" d="M92 -266q125 1 235 54t178 158t68 253q0 130 -67 202t-191 72q-50 0 -85 -8t-83 -27l-20 13l39 610q41 -8 110 -8h232q56 0 83 9.5t37.5 30.5t16.5 64h39q0 -208 8 -299q-44 10 -284 10h-218l-24 -395q56 29 110 45.5t130 16.5q120 0 201 -40.5t121 -112t40 -163.5 q0 -152 -99.5 -271t-256.5 -185t-320 -66v37z" />
<glyph unicode="6" horiz-adv-x="1059" d="M113 553q0 287 109 486t267.5 305t317.5 137l8 -41q-125 -40 -224.5 -110.5t-175.5 -216.5t-97 -384q46 87 129 127.5t165 40.5q98 0 182.5 -53t135.5 -154t51 -239q0 -149 -60.5 -258t-163 -165.5t-227.5 -56.5q-130 0 -223.5 68.5t-143.5 199.5t-50 314zM311 557 q0 -203 34.5 -324.5t88.5 -171t117 -49.5q64 0 116 44t83.5 139t31.5 241q0 208 -61 305t-160 97q-72 0 -142.5 -42.5t-104.5 -134.5q-3 -50 -3 -104z" />
<glyph unicode="7" horiz-adv-x="831" d="M55 1063q46 -10 305 -10h455v-43q-30 -71 -135.5 -273t-163 -382.5t-55.5 -391.5q0 -36 4 -89.5t4 -72.5q0 -46 -26.5 -75t-69.5 -29q-45 0 -68.5 33t-23.5 82q0 225 87.5 426t205 395t147.5 248h-485q-56 0 -83.5 -9.5t-38 -30.5t-16.5 -65h-35q0 202 -8 287z" />
<glyph unicode="8" horiz-adv-x="1065" d="M106 315q0 142 90 253t239 184q-82 66 -137 123t-89.5 128t-34.5 156q0 94 49.5 166.5t135 113t190.5 40.5q94 0 171 -32.5t122 -96t45 -152.5q0 -110 -67.5 -202t-192.5 -176q113 -82 177.5 -139t110.5 -137t46 -182q0 -115 -57 -204t-158 -138t-228 -49 q-112 0 -205.5 39t-150 116.5t-56.5 188.5zM287 346q0 -145 59 -241.5t184 -96.5q70 0 128.5 31.5t93 92t34.5 144.5q0 95 -44 173t-104.5 134.5t-171.5 144.5q-179 -131 -179 -382zM334 1223q0 -81 34.5 -147t89.5 -118.5t138 -114.5q127 121 127 328q0 124 -51.5 197.5 t-145.5 73.5q-54 0 -98 -27t-69 -76.5t-25 -115.5z" />
<glyph unicode="9" horiz-adv-x="1042" d="M76 604q0 149 60.5 257.5t163 165t226.5 56.5q130 0 224 -63.5t144 -185t50 -291.5q0 -261 -109.5 -443t-268.5 -279.5t-316 -123.5l-8 41q117 33 211.5 90.5t170 174t105.5 304.5q-49 -77 -128 -113t-157 -36q-97 0 -181.5 53t-135.5 154t-51 239zM274 618 q0 -208 61.5 -304.5t160.5 -96.5q69 0 137 38.5t104 122.5q8 76 8 161q0 187 -34.5 299.5t-88 158t-116.5 45.5q-64 0 -116.5 -44t-84 -139t-31.5 -241z" />
<glyph unicode=":" horiz-adv-x="545" d="M141 102q0 35 17.5 65.5t48 48t65.5 17.5t65.5 -17.5t48 -48t17.5 -65.5t-17.5 -65t-48 -48t-65.5 -18t-65.5 18t-48 48t-17.5 65zM141 950q0 35 17.5 65.5t48 48t65.5 17.5t65.5 -17.5t48 -48t17.5 -65.5t-17.5 -65t-48 -48t-65.5 -18t-65.5 18t-48 48t-17.5 65z" />
<glyph unicode=";" horiz-adv-x="584" d="M150 102q0 56 38 93.5t93 37.5q79 0 121 -65q35 -54 35 -135q0 -103 -52.5 -184.5t-158.5 -131.5l-19 37q64 27 110 84.5t46 116.5q0 25 -6 43q-35 -27 -76 -27q-56 0 -93.5 35.5t-37.5 95.5zM164 950q0 35 17.5 65.5t48 48t65.5 17.5t65.5 -17.5t48 -48t17.5 -65.5 t-17.5 -65t-48 -48t-65.5 -18t-65.5 18t-48 48t-17.5 65z" />
<glyph unicode="&#x3c;" horiz-adv-x="1245" d="M61 727l998 465l35 -74l-838 -391l838 -391l-35 -74z" />
<glyph unicode="=" horiz-adv-x="1325" d="M150 553v61h1026v-61h-1026zM150 840v61h1026v-61h-1026z" />
<glyph unicode="&#x3e;" horiz-adv-x="1245" d="M151 336l35 -74l998 465l-998 465l-35 -74l838 -391z" />
<glyph unicode="?" horiz-adv-x="940" d="M66 1380q0 83 96 148q108 74 278 74q128 0 225 -44.5t151 -128t54 -196.5q0 -168 -123 -284t-337 -171v-299h-41v318q130 48 200 108.5t94.5 130t24.5 158.5q0 186 -76.5 276.5t-210.5 90.5q-59 0 -113.5 -17t-86.5 -57q39 -8 62.5 -35.5t23.5 -69.5q0 -50 -32.5 -80 t-80.5 -30q-47 0 -77.5 30.5t-30.5 77.5zM260 102q0 35 17.5 65.5t48 48t65.5 17.5t65.5 -17.5t48 -48t17.5 -65.5t-17.5 -65t-48 -48t-65.5 -18t-65.5 18t-48 48t-17.5 65z" />
<glyph unicode="@" horiz-adv-x="1798" d="M100 293q0 273 133.5 522t361 401t495.5 152q185 0 328.5 -59.5t227 -185.5t83.5 -318q0 -219 -91 -390.5t-230 -266.5t-273 -95q-148 0 -148 133q0 33 7 66t14.5 56.5t9.5 31.5v2q-58 -149 -134 -219t-182 -70q-110 0 -160 67.5t-50 180.5q0 152 73 311t187 263t227 104 q125 0 148 -109l16 80q117 0 184 29l-172 -752q-13 -42 -13 -70q0 -29 14.5 -41t45.5 -12q87 0 203 86.5t199.5 246.5t83.5 370q0 182 -79.5 299t-213.5 171t-303 54q-247 0 -466.5 -142.5t-352 -381t-132.5 -510.5q0 -204 78 -336t216 -193t321 -61q236 0 422 111l14 -27 q-79 -56 -192.5 -88.5t-245.5 -32.5q-196 0 -342.5 66.5t-229 206t-82.5 350.5zM666 313q0 -198 106 -198q52 0 106 53t102.5 153t81.5 235l51 249q-4 67 -35.5 97t-90.5 30q-85 0 -159 -93t-118 -237.5t-44 -288.5z" />
<glyph unicode="A" horiz-adv-x="1290" d="M-14 0v41q102 23 161 178l482 1241h33l499 -1288q50 -127 142 -131v-41q-84 6 -220 6q-175 0 -262 -6v41q78 3 111.5 19t33.5 57q0 35 -24 96l-126 336h-494l-84 -217q-41 -104 -41 -168q0 -65 43.5 -93t134.5 -30v-41q-117 6 -236 6q-92 0 -153 -6zM337 590h464 l-229 611z" />
<glyph unicode="B" horiz-adv-x="1276" d="M86 0v41q74 3 107.5 16t46 48t12.5 112v1016q0 77 -12.5 112t-46 48t-107.5 16v41q85 -6 250 -6q80 0 176.5 2t132.5 2q140 0 237 -40.5t146 -113t49 -168.5q0 -118 -74.5 -212t-236.5 -144v-4q226 -30 322 -129.5t96 -239.5q0 -116 -59.5 -206t-170.5 -140.5t-262 -50.5 q-41 0 -144 3t-208 3q-168 0 -254 -6zM442 217q0 -74 12 -109t44 -48t98 -13q383 0 383 359q0 161 -87.5 245t-277.5 84h-172v-518zM442 770h138q167 0 234 91t67 243q0 154 -68 229.5t-219 75.5q-64 0 -96 -14.5t-44 -51.5t-12 -110v-463z" />
<glyph unicode="C" horiz-adv-x="1409" d="M109 713q0 226 83 400t231 270t337 96q122 0 208.5 -35t168.5 -98q22 -18 40 -18q42 0 52 122h47q-8 -133 -8 -471h-47q-15 92 -27.5 143t-29.5 86.5t-46 73.5q-62 80 -157 120t-205 40q-133 0 -233 -88t-155 -251t-55 -382q0 -223 60 -383t165 -243t238 -83 q102 0 199 39t151 117q42 56 60 121.5t35 202.5h47q0 -353 8 -492h-47q-5 64 -16.5 92.5t-33.5 28.5q-16 0 -42 -17q-61 -43 -112.5 -70.5t-117.5 -45t-149 -17.5q-195 0 -341.5 88t-227 255.5t-80.5 398.5z" />
<glyph unicode="D" horiz-adv-x="1481" d="M86 0v41q74 3 107.5 16t46 48t12.5 112v1016q0 77 -12.5 112t-46 48t-107.5 16v41q110 -7 200 -7l50 1q282 6 309 6q362 0 542.5 -181t180.5 -528q0 -223 -87.5 -390.5t-254.5 -259t-399 -91.5q-28 0 -133.5 3t-153.5 3q-168 0 -254 -6zM442 213q0 -74 12 -110.5 t44.5 -51t97.5 -14.5q218 0 342 79t174.5 230.5t50.5 386.5q0 236 -55 384.5t-179.5 222t-334.5 73.5q-64 0 -96 -14.5t-44 -51.5t-12 -110v-1024z" />
<glyph unicode="E" horiz-adv-x="1247" d="M86 0v41q74 3 107.5 16t46 48t12.5 112v1016q0 77 -12.5 112t-46 48t-107.5 16v41q201 -6 594 -6q301 0 428 6q-14 -134 -14 -242q0 -80 6 -127h-47q-15 133 -37.5 198t-76 94.5t-161.5 29.5h-170q-74 0 -107.5 -12t-46 -46.5t-12.5 -111.5v-483h136q103 0 137 61.5 t42 125.5t11 83h47q-7 -101 -7 -193l1 -98q0 -104 12 -291h-47q-2 14 -11.5 99t-55.5 128.5t-129 43.5h-136v-492q0 -77 12.5 -111.5t46 -46.5t107.5 -12h150q128 0 194.5 34t96 109t45.5 220h47q-6 -55 -6 -148q0 -116 14 -262q-139 6 -469 6q-393 0 -594 -6z" />
<glyph unicode="F" horiz-adv-x="1165" d="M86 0v41q74 3 107.5 16t46 48t12.5 112v1016q0 77 -12.5 112t-46 48t-107.5 16v41q201 -6 594 -6q301 0 428 6q-14 -146 -14 -262q0 -103 6 -168h-47q-16 159 -41 235.5t-86.5 112t-188.5 35.5h-129q-74 0 -107.5 -12t-46 -46.5t-12.5 -111.5v-504h150q103 0 137 61.5 t42 125.5t11 83h47q-7 -100 -7 -193l1 -97q0 -108 13 -291h-48q-2 14 -11.5 99t-55.5 128t-129 43h-150v-471q0 -77 16 -112t58 -48t133 -16v-41q-106 6 -301 6q-176 0 -262 -6z" />
<glyph unicode="G" horiz-adv-x="1440" d="M111 700q0 235 84.5 411.5t234.5 272t340 95.5q83 0 147.5 -17.5t112 -44.5t109.5 -71q26 -21 41 -21q39 0 51 125h47q-8 -133 -8 -471h-47q-18 110 -39 180.5t-64 122.5q-60 74 -155 117t-199 43q-135 0 -237 -88t-158 -250.5t-56 -380.5q0 -246 52.5 -403t160 -232.5 t275.5 -75.5q123 0 213 64q37 25 48 48t11 64v197q0 85 -16 124.5t-58 54t-133 18.5v41q101 -7 289 -7q144 0 213 7v-41q-48 -4 -68.5 -16.5t-28 -46.5t-7.5 -113v-406h-41q-2 42 -17 79.5t-39 37.5q-13 0 -25 -6.5t-42 -28.5q-72 -55 -148.5 -83t-171.5 -28q-210 0 -361 87 t-230.5 251t-79.5 391z" />
<glyph unicode="H" horiz-adv-x="1550" d="M86 0v41q74 3 107.5 16t46 48t12.5 112v1016q0 77 -12.5 112t-46 48t-107.5 16v41q85 -6 262 -6q166 0 260 6v-41q-74 -3 -107.5 -16t-46 -48t-12.5 -112v-483h666v483q0 77 -12.5 112t-46 48t-107.5 16v41q96 -6 260 -6q176 0 262 6v-41q-74 -3 -107.5 -16t-46 -48 t-12.5 -112v-1016q0 -77 12.5 -112t46 -48t107.5 -16v-41q-85 6 -262 6q-164 0 -260 -6v41q74 3 107.5 16t46 48t12.5 112v492h-666v-492q0 -77 12.5 -112t46 -48t107.5 -16v-41q-94 6 -260 6q-176 0 -262 -6z" />
<glyph unicode="I" horiz-adv-x="694" d="M86 0v41q74 3 107.5 16t46 48t12.5 112v1016q0 77 -12.5 112t-46 48t-107.5 16v41q85 -6 262 -6q166 0 260 6v-41q-74 -3 -107.5 -16t-46 -48t-12.5 -112v-1016q0 -77 12.5 -112t46 -48t107.5 -16v-41q-94 6 -260 6q-176 0 -262 -6z" />
<glyph unicode="J" horiz-adv-x="668" d="M-307 -207q0 48 30.5 78.5t77.5 30.5q49 0 81 -30t32 -81q0 -43 -23 -69.5t-63 -34.5q18 -18 56.5 -25.5t74.5 -7.5q89 0 153.5 46t92.5 128q21 64 28 159.5t7 309.5v936q0 77 -12.5 112t-46 48t-107.5 16v41q85 -6 262 -6q164 0 260 6v-41q-74 -3 -107.5 -16t-46 -48 t-12.5 -112v-750q0 -174 -6.5 -308.5t-28.5 -225.5q-23 -96 -81 -171.5t-147.5 -119t-203.5 -43.5q-100 0 -172 37q-98 51 -98 141z" />
<glyph unicode="K" horiz-adv-x="1341" d="M86 0v41q74 3 107.5 16t46 48t12.5 112v1016q0 77 -12.5 112t-46 48t-107.5 16v41q85 -6 262 -6q166 0 260 6v-41q-74 -3 -107.5 -16t-46 -48t-12.5 -112v-459q149 6 234 115l196 250q105 133 105 196q0 71 -127 74v41q117 -6 235 -6q114 0 175 6v-41q-68 -10 -127.5 -44 t-114.5 -105l-334 -428l475 -666q34 -52 76 -81t104 -44v-41q-97 6 -245 6q-111 0 -211 -6v41q48 2 71 12t23 31q0 19 -21 49l-299 451q-41 63 -71 93t-61.5 41.5t-82.5 14.5v-516q0 -77 12.5 -112t46 -48t107.5 -16v-41q-94 6 -260 6q-176 0 -262 -6z" />
<glyph unicode="L" horiz-adv-x="1204" d="M86 0v41q74 3 107.5 16t46 48t12.5 112v1016q0 77 -12.5 112t-46 48t-107.5 16v41q85 -6 262 -6q166 0 260 6v-41q-74 -3 -107.5 -16t-46 -48t-12.5 -112v-1016q0 -77 12.5 -111.5t46 -46.5t107.5 -12h150q128 0 194.5 36t96 115t45.5 232h47q-6 -64 -6 -168 q0 -116 14 -262q-139 6 -469 6q-393 0 -594 -6z" />
<glyph unicode="M" horiz-adv-x="1784" d="M86 0v41q71 3 105.5 20.5t47.5 57.5t13 119v995q0 77 -12.5 112t-46 48t-107.5 16v41q67 -6 190 -6q108 0 175 6l450 -1188l440 1182h97q164 0 260 6v-41q-74 -3 -107.5 -16t-46 -48t-12.5 -112v-1016q0 -77 12.5 -112t46 -48t107.5 -16v-41q-96 6 -260 6q-176 0 -262 -6 v41q74 3 107 16t45.5 48t12.5 112v1096l-493 -1323h-33l-516 1329v-1081q0 -79 14 -119t52.5 -57.5t119.5 -20.5v-41q-73 6 -209 6q-122 0 -190 -6z" />
<glyph unicode="N" horiz-adv-x="1446" d="M86 0v41q71 3 105.5 20.5t47.5 57.5t13 119v995q0 77 -12.5 112t-46 48t-107.5 16v41q67 -6 190 -6q92 0 160 6l723 -1114v876q0 79 -13.5 119t-52.5 57.5t-120 20.5v41q73 -6 209 -6q122 0 190 6v-41q-71 -3 -105.5 -20.5t-47.5 -57.5t-13 -119v-1222h-47l-860 1329 v-1081q0 -79 14 -119t52.5 -57.5t119.5 -20.5v-41q-73 6 -209 6q-122 0 -190 -6z" />
<glyph unicode="O" horiz-adv-x="1518" d="M109 713q0 226 83 400t231 270t337 96q195 0 341.5 -88t227 -255.5t80.5 -398.5q0 -226 -83 -400t-231 -270t-337 -96q-195 0 -341.5 88t-227 255.5t-80.5 398.5zM313 721q0 -213 60 -375t163.5 -250t229.5 -88q131 0 230.5 91.5t153.5 255t54 374.5q0 213 -60 375 t-163 250t-229 88q-131 0 -231 -91.5t-154 -255t-54 -374.5z" />
<glyph unicode="P" horiz-adv-x="1198" d="M86 0v41q74 3 107.5 16t46 48t12.5 112v1016q0 77 -12.5 112t-46 48t-107.5 16v41q85 -6 250 -6q80 0 176.5 2t132.5 2q161 0 272 -50.5t166.5 -141.5t55.5 -212q0 -112 -50 -216t-170.5 -173t-318.5 -69h-158v-369q0 -77 16 -112t58 -48t133 -16v-41q-106 6 -301 6 q-176 0 -262 -6zM442 627h138q200 0 277 107t77 288q0 132 -34 217t-108.5 127.5t-197.5 42.5q-64 0 -96 -14.5t-44 -51.5t-12 -110v-606z" />
<glyph unicode="Q" horiz-adv-x="1518" d="M109 713q0 226 83 400t231 270t337 96q195 0 341.5 -88t227 -255.5t80.5 -398.5q0 -213 -74 -380t-207 -267t-305 -116v-1q-50 -6 -88 -18.5t-102.5 -40t-112.5 -41.5q225 -45 384.5 -71.5t264.5 -26.5q146 0 231 42.5t132 135.5l31 -12q-46 -157 -129 -234 q-102 -92 -277 -92q-95 0 -183.5 28.5t-236.5 93.5t-239 95q-14 4 -26.5 7.5t-22.5 6.5q-90 -30 -170 -30q-95 0 -95 41q0 43 111 43q74 0 154 -17q39 10 71 23t81.5 35.5t78.5 33.5q-173 17 -302 109.5t-199 253t-70 375.5zM313 721q0 -213 60 -375t163.5 -250t229.5 -88 q131 0 230.5 91.5t153.5 255t54 374.5q0 213 -60 375t-163 250t-229 88q-131 0 -231 -91.5t-154 -255t-54 -374.5z" />
<glyph unicode="R" horiz-adv-x="1327" d="M86 0v41q74 3 107.5 16t46 48t12.5 112v1016q0 77 -12.5 112t-46 48t-107.5 16v41q86 -6 250 -6q80 0 176.5 2t132.5 2q160 0 271 -46.5t167 -127t56 -182.5q0 -80 -37.5 -161.5t-127 -146t-233.5 -86.5l25 -4q92 -15 147 -45.5t87.5 -83.5t52.5 -141l51 -209 q13 -63 26.5 -98.5t32 -52.5t46.5 -17q34 0 56 17.5t56 60.5l31 -23q-48 -69 -95 -100t-124 -31q-84 0 -138 49t-82 173l-45 204q-24 107 -45.5 164.5t-65 92t-120.5 34.5h-195v-471q0 -77 12.5 -112t46 -48t107.5 -16v-41q-94 6 -260 6q-176 0 -262 -6zM442 729h138 q138 0 216 44t108 118t30 178q0 168 -80 254t-260 86q-64 0 -96 -14.5t-44 -51.5t-12 -110v-504z" />
<glyph unicode="S" horiz-adv-x="1106" d="M129 -14q8 112 8 491h47q14 -208 102 -336.5t271 -128.5q70 0 130.5 29t98 90.5t37.5 153.5q0 79 -38.5 141.5t-104.5 114.5t-176 118q-122 73 -196 131t-121.5 138.5t-47.5 189.5q0 116 52.5 196t140 119.5t192.5 39.5q63 0 108.5 -10.5t75.5 -26t66 -39.5 q46 -29 70 -29q19 0 29 21.5t16 68.5h47q-10 -120 -10 -418h-47q-8 105 -45.5 194t-110 144.5t-180.5 55.5q-72 0 -129 -30t-89 -84t-32 -124q0 -111 67 -179t156.5 -122.5t120.5 -73.5q129 -81 204 -140.5t120 -138t45 -182.5q0 -126 -58 -213.5t-156.5 -131.5t-220.5 -44 q-98 0 -161 20.5t-119 55.5q-46 29 -70 29q-19 0 -29 -21.5t-16 -68.5h-47z" />
<glyph unicode="T" horiz-adv-x="1272" d="M59 1450q170 -6 578 -6q405 0 575 6q-14 -146 -14 -262q0 -103 6 -168h-47q-16 159 -40.5 235.5t-86 112t-188.5 35.5h-111v-1165q0 -85 16 -124.5t58 -54.5t133 -18v-41q-108 6 -301 6q-205 0 -303 -6v41q91 3 133 18t58 54.5t16 124.5v1165h-111q-127 0 -188.5 -35.5 t-86 -112t-40.5 -235.5h-47q6 65 6 168q0 120 -15 262z" />
<glyph unicode="U" horiz-adv-x="1397" d="M55 1409v41q87 -6 262 -6q165 0 261 6v-41q-74 -3 -107.5 -16t-46 -48t-12.5 -112v-678q0 -164 22 -272t92.5 -174t208.5 -66q217 0 305 139t88 391v639q0 76 -17.5 117t-57 59t-111.5 21v41q74 -6 209 -6q123 0 190 6v-41q-71 -3 -105.5 -20.5t-47 -57.5t-12.5 -119 v-616q0 -147 -19.5 -252.5t-64.5 -181.5q-52 -88 -151.5 -139.5t-223.5 -51.5q-225 0 -344 111q-61 57 -93.5 120.5t-45.5 153.5t-13 234v643q0 77 -12.5 112t-46 48t-107.5 16z" />
<glyph unicode="V" horiz-adv-x="1290" d="M-12 1409v41q83 -6 219 -6q176 0 262 6v-41q-78 -3 -111.5 -19t-33.5 -57q0 -34 24 -96l371 -984l334 865q41 106 41 167q0 65 -44 93.5t-135 30.5v41q117 -6 236 -6q92 0 154 6v-41q-103 -23 -162 -178l-481 -1241h-17h-16l-500 1288q-50 127 -141 131z" />
<glyph unicode="W" horiz-adv-x="1853" d="M-14 1409v41q82 -6 219 -6q147 0 221 6v-41q-54 -4 -77 -20t-23 -51q0 -33 22 -101l300 -913l248 793l-54 161q-42 127 -121 131v41q74 -6 199 -6q175 0 262 6v-41q-53 -2 -81 -7.5t-43.5 -20.5t-15.5 -45q0 -34 21 -99l294 -911l253 792q33 104 33 165q0 68 -41.5 96 t-133.5 30v41q117 -6 236 -6q92 0 154 6v-41q-114 -25 -162 -178l-387 -1241h-17h-16l-356 1055l-326 -1055h-16h-17l-434 1288q-44 126 -141 131z" />
<glyph unicode="X" horiz-adv-x="1298" d="M33 0v41q61 9 116.5 55t114.5 133l309 461l-401 615q-26 41 -45 61.5t-40 29.5t-52 11v43q140 -8 176 -8q137 0 289 8v-43q-137 0 -137 -45q0 -16 18 -45l319 -488l201 301q89 133 89 197q0 43 -39.5 61.5t-119.5 20.5v41q117 -6 236 -6q112 0 174 6v-41 q-62 -9 -117.5 -55.5t-113.5 -132.5l-287 -428l424 -648q26 -41 45 -61.5t40 -29.5t52 -11v-43q-140 8 -176 8q-69 0 -289 -8v43q80 0 113 7t33 26q0 15 -15 37l-350 536l-221 -330q-78 -116 -78 -180q0 -52 46.5 -74t135.5 -24v-41q-116 6 -276 6q-113 0 -174 -6z" />
<glyph unicode="Y" horiz-adv-x="1210" d="M-6 1407v43q80 -6 180 -6q199 0 287 6v-43q-144 0 -144 -79q0 -30 21 -71l341 -653l261 520q56 113 56 176q0 58 -45 82.5t-136 26.5v41q117 -6 236 -6q92 0 153 6v-41q-41 -9 -80 -51.5t-84 -130.5l-321 -637v-373q0 -77 12.5 -112t46 -48t107.5 -16v-41q-96 6 -260 6 q-176 0 -263 -6v41q74 3 107.5 16t46 48t12.5 112v309l-415 766q-38 69 -65.5 92t-53.5 23z" />
<glyph unicode="Z" horiz-adv-x="1217" d="M86 0v41l854 1362h-430q-128 0 -194.5 -36t-96 -115t-45.5 -232h-47q6 65 6 168q0 116 -14 262q151 -6 510 -6q348 0 497 6v-41l-847 -1362h432q128 0 194.5 36t96 115t45.5 232h47q-7 -75 -7 -168q0 -106 15 -262q-152 6 -510 6q-350 0 -506 -6z" />
<glyph unicode="[" horiz-adv-x="606" d="M188 -371v1952h351v-39h-166v-1874h166v-39h-351z" />
<glyph unicode="\" horiz-adv-x="762" d="M68 1479l557 -1508h67l-557 1508h-67z" />
<glyph unicode="]" horiz-adv-x="606" d="M67 -332v-39h351v1952h-351v-39h166v-1874h-166z" />
<glyph unicode="^" horiz-adv-x="1098" d="M147 688q131 63 233 169t150 224h37q49 -118 151 -224t232 -169l-16 -29q-124 45 -240 112t-186 134q-58 -67 -151.5 -134t-192.5 -112z" />
<glyph unicode="_" horiz-adv-x="1210" d="M141 -235h928v-82h-928v82z" />
<glyph unicode="`" horiz-adv-x="457" d="M42 1608q0 34 28 57q19 15 44 15q44 0 79 -46q29 -38 65 -107.5t70.5 -134t87.5 -147.5l-23 -18q-56 59 -102.5 102.5t-118.5 107t-102 101.5q-28 37 -28 70z" />
<glyph unicode="a" horiz-adv-x="1020" d="M80 215q0 78 38 133t107 96.5t185 90.5q20 8 98 40t112.5 64t34.5 70v127q0 119 -49.5 162.5t-140.5 43.5q-145 0 -203 -73q41 -10 68.5 -43.5t27.5 -81.5q0 -52 -32.5 -81.5t-87.5 -29.5q-52 0 -81.5 35t-29.5 92q0 80 96 146q50 33 123.5 55t163.5 22q84 0 148 -20.5 t100 -56.5q47 -48 64.5 -111.5t17.5 -175.5v-569q0 -51 14.5 -74t48.5 -23q25 0 46 11t46 32l23 -35q-36 -27 -60 -42t-55 -24t-72 -9q-99 0 -137.5 49.5t-38.5 132.5q-60 -99 -144 -140.5t-171 -41.5q-71 0 -130 24.5t-94.5 76t-35.5 128.5zM260 248q0 -89 45 -134.5 t119 -45.5q136 0 231 155v402q-15 -23 -50 -43t-146 -74q-59 -28 -100 -57.5t-70 -79.5t-29 -123z" />
<glyph unicode="b" horiz-adv-x="1153" d="M8 1538v43q65 -6 127 -6q132 0 213 29v-740q46 104 130 161.5t190 57.5q114 0 201.5 -62.5t137.5 -188t50 -306.5q0 -177 -61.5 -302.5t-165.5 -189t-230 -63.5q-75 0 -146 30.5t-124 89.5l-146 -124l-34 15q14 50 14 118v1258q0 95 -34.5 137.5t-121.5 42.5zM348 120 q48 -50 109.5 -76t126.5 -26q138 0 206 124.5t68 383.5q0 250 -61.5 373t-188.5 123q-55 0 -107 -29.5t-92.5 -87t-60.5 -138.5v-647z" />
<glyph unicode="c" horiz-adv-x="995" d="M94 514q0 166 60.5 295.5t169.5 201.5t247 72t238 -65q96 -65 96 -158q0 -54 -30.5 -84.5t-77.5 -30.5q-48 0 -80.5 27.5t-32.5 75.5q0 44 24.5 73.5t61.5 39.5q-20 37 -73 61.5t-111 24.5q-75 0 -141 -48t-109 -160t-43 -294q0 -255 82 -370.5t213 -115.5q87 0 166.5 51 t130.5 160l39 -14q-23 -73 -71 -137.5t-125.5 -106t-180.5 -41.5q-128 0 -231 66t-162.5 189t-59.5 288z" />
<glyph unicode="d" d="M98 526v6q0 175 62 299q63 126 168.5 189t232.5 63q78 0 143.5 -29.5t102.5 -91.5v398q0 95 -34.5 137.5t-121.5 42.5v43q65 -6 127 -6q132 0 213 29v-1383q0 -95 34.5 -137.5t121.5 -42.5v-43q-65 6 -127 6q-132 0 -213 -29v182q-38 -92 -111.5 -140t-179.5 -48 q-130 0 -224 62t-144 186q-50 122 -50 300v7zM297 526v-7q-1 -241 69 -363q70 -124 209 -123q53 0 100 27t82 80.5t50 128.5v609q-57 158 -229 158q-83 0 -146 -56q-64 -58 -100 -172q-35 -111 -35 -273v-9z" />
<glyph unicode="e" horiz-adv-x="1036" d="M94 502q0 178 57 309t161.5 201.5t244.5 70.5q184 0 283.5 -111.5t99.5 -338.5h-640q-7 -53 -7 -131q0 -135 44.5 -236t116.5 -155t152 -54q206 0 301 205l41 -16q-24 -72 -76.5 -134.5t-131 -101.5t-175.5 -39q-146 0 -252.5 66.5t-162.5 187t-56 277.5zM297 672h446 q1 16 1 32q0 83 -18 155q-21 85 -66 135t-111 50q-63 0 -116 -40.5t-89.5 -124t-46.5 -207.5z" />
<glyph unicode="f" horiz-adv-x="680" d="M53 1012v41h164q0 122 10 203.5t32.5 138.5t62.5 104q40 48 104 75.5t139 27.5q105 0 178 -56q64 -52 64 -127q0 -47 -30.5 -77.5t-78.5 -30.5q-47 0 -79.5 30t-32.5 80q0 42 23.5 69.5t62.5 35.5q-6 19 -33 32t-68 13q-91 0 -133 -76q-23 -41 -30 -122.5t-7 -266.5v-53 h220v-41h-220v-801q0 -95 54 -131.5t163 -36.5v-43q-252 8 -315 8q-50 0 -242 -8v43q58 0 91.5 13t49 45t15.5 89v822h-164z" />
<glyph unicode="g" horiz-adv-x="1061" d="M39 -197q0 70 73.5 135.5t183.5 114.5h-7q-78 0 -141.5 33t-63.5 123q0 70 58 133t198 126q-90 35 -140 108t-50 184q0 162 103.5 242.5t274.5 80.5q80 0 145 -18q20 114 72 182q55 68 140 68q51 0 79.5 -30t28.5 -77q0 -42 -28 -70t-70 -28q-52 0 -75 31.5t-34 97.5 q-30 -27 -55 -100q-15 -45 -21 -85q93 -34 145 -107.5t52 -186.5q0 -109 -49 -181.5t-134 -107.5t-196 -35q-83 0 -151 19q-83 -44 -127.5 -81.5t-44.5 -80.5q0 -34 23 -51t75 -17h481q107 0 173.5 -45t66.5 -145q0 -98 -63.5 -195t-193 -161t-316.5 -64q-107 0 -201.5 21.5 t-152.5 64t-58 102.5zM207 -154q0 -66 44 -110t113 -65t142 -21q91 0 178 32.5t143 98t56 158.5q0 40 -13.5 64.5t-47.5 37t-95 12.5h-381q-66 -34 -102.5 -91t-36.5 -116zM342 760q0 -156 47.5 -221.5t138.5 -65.5q92 0 139.5 65t47.5 222t-47.5 222t-139.5 65 q-91 0 -138.5 -65.5t-47.5 -221.5z" />
<glyph unicode="h" horiz-adv-x="1204" d="M41 0v43q58 0 91.5 13t49 45t15.5 89v1168q0 95 -34.5 137.5t-121.5 42.5v43q65 -6 127 -6q132 0 213 29v-766q51 130 142.5 187.5t205.5 57.5q143 0 217 -77q39 -42 55.5 -103.5t16.5 -165.5v-547q0 -57 15.5 -89t49 -45t91.5 -13v-43q-192 8 -246 8q-58 0 -230 -8v43 q51 0 80 13t42.5 45t13.5 89v592q0 74 -12 124t-48.5 81t-105.5 31q-83 0 -148.5 -47.5t-102 -132t-36.5 -191.5v-457q0 -57 13.5 -89t42 -45t79.5 -13v-43q-172 8 -229 8q-58 0 -246 -8z" />
<glyph unicode="i" horiz-adv-x="600" d="M59 0v43q58 0 91.5 13t49 45t15.5 89v641q0 95 -34.5 138t-121.5 43v43q64 -6 127 -6q130 0 213 28v-887q0 -57 15.5 -89t49 -45t91.5 -13v-43q-188 8 -248 8t-248 -8zM162 1436q0 35 17.5 65t48 48t65.5 18t65 -18t48 -48t18 -65t-18 -65.5t-48 -48t-65 -17.5 t-65.5 17.5t-48 48t-17.5 65.5z" />
<glyph unicode="j" horiz-adv-x="547" d="M-131 -260q0 47 29.5 76.5t76.5 29.5q49 0 78 -25t29 -75q0 -70 -78 -98q12 -2 35 -2q71 0 115 47q47 59 47 174v964q0 95 -34.5 138t-121.5 43v43q64 -6 127 -6q130 0 213 28v-841q0 -167 -22.5 -291.5t-86.5 -204.5q-47 -61 -113.5 -93t-133.5 -32q-72 0 -115 31 q-45 34 -45 94zM141 1425q0 35 18 65.5t48 48t65 17.5t65.5 -17.5t48 -48t17.5 -65.5t-17.5 -65t-48 -48t-65.5 -18t-65 18t-48 48t-18 65z" />
<glyph unicode="k" horiz-adv-x="1126" d="M41 0v43q58 0 91.5 13t49 45t15.5 89v1170q0 95 -34.5 137.5t-121.5 42.5v43q65 -6 127 -6q132 0 213 29v-1017q60 8 100 27.5t76 57.5l152 157q65 68 65 113q0 36 -41 53t-110 17v41q142 -8 231 -8q96 0 178 8v-41q-100 -9 -184 -96l-249 -262l370 -506q38 -52 69 -76.5 t74 -30.5v-43q-124 8 -166 8q-55 0 -227 -8v43q29 0 46 11t17 28q0 14 -12 31l-235 344q-37 52 -68 70t-86 20v-357q0 -57 13.5 -89t42 -45t79.5 -13v-43q-172 8 -227 8q-60 0 -248 -8z" />
<glyph unicode="l" horiz-adv-x="586" d="M45 0v43q58 0 91.5 13t49 45t15.5 89v1170q0 95 -34.5 137.5t-121.5 42.5v43q64 -6 127 -6q132 0 213 29v-1416q0 -57 15.5 -89t49 -45t91.5 -13v-43q-188 8 -248 8t-248 -8z" />
<glyph unicode="m" horiz-adv-x="1819" d="M59 0v43q58 0 91.5 13t49 45t15.5 89v641q0 95 -34.5 138t-121.5 43v43q64 -6 127 -6q130 0 213 28v-241q50 126 140 186.5t196 60.5q139 0 213 -77q51 -56 63 -165q51 129 141 185.5t200 56.5q139 0 213 -77q37 -41 52 -104.5t15 -164.5v-547q0 -57 15.5 -89t49 -45 t91.5 -13v-43q-188 8 -246 8q-57 0 -229 -8v43q51 0 79.5 13t42 45t13.5 89v592q0 78 -9 126.5t-43 79t-104 30.5q-78 0 -141 -49t-99 -134t-36 -188v-457q0 -57 15.5 -89t48.5 -45t91 -13v-43q-188 8 -245 8q-58 0 -230 -8v43q51 0 80 13t42 45t13 89v592q0 78 -9 126.5 t-43 79t-103 30.5q-79 0 -142 -49.5t-99 -135t-36 -188.5v-455q0 -57 13.5 -89t42.5 -45t80 -13v-43q-172 8 -230 8t-246 -8z" />
<glyph unicode="n" horiz-adv-x="1223" d="M59 0v43q58 0 91.5 13t49 45t15.5 89v641q0 95 -34.5 138t-121.5 43v43q64 -6 127 -6q130 0 213 28v-241q51 130 142.5 188.5t206.5 58.5q143 0 217 -77q38 -42 54.5 -103.5t16.5 -165.5v-547q0 -57 15.5 -89t49 -45t91.5 -13v-43q-188 8 -246 8q-57 0 -229 -8v43 q51 0 79.5 13t42 45t13.5 89v592q0 74 -11.5 124t-48 81t-106.5 31q-84 0 -149.5 -49t-101.5 -134.5t-36 -189.5v-455q0 -57 13.5 -89t42.5 -45t80 -13v-43q-172 8 -230 8t-246 -8z" />
<glyph unicode="o" horiz-adv-x="1122" d="M96 526q0 190 60.5 314.5t165 183.5t239.5 59t239.5 -59t165 -183.5t60.5 -314.5t-60.5 -314t-165 -182.5t-239.5 -58.5t-239.5 58.5t-165 182.5t-60.5 314zM295 526q0 -263 71.5 -388.5t194.5 -125.5t194.5 125.5t71.5 388.5q0 264 -71.5 390t-194.5 126t-194.5 -126 t-71.5 -390z" />
<glyph unicode="p" d="M45 1012v43q64 -6 127 -6q130 0 213 28v-216q46 106 132 164t196 58q109 0 195.5 -59t136 -174t49.5 -275q0 -157 -50 -294.5t-155.5 -223.5t-263.5 -86q-78 0 -141.5 30.5t-98.5 80.5v-262q0 -83 49 -115.5t148 -32.5v-43q-26 1 -116.5 5t-178.5 4q-65 0 -134 -4t-87 -5 v43q75 0 105 27.5t30 99.5v1032q0 95 -34.5 138t-121.5 43zM385 150q30 -61 85 -96.5t132 -35.5q293 0 293 529q0 475 -238 475q-93 0 -166.5 -66.5t-105.5 -192.5v-613z" />
<glyph unicode="q" horiz-adv-x="1153" d="M96 526q0 181 57.5 306.5t156.5 188t225 62.5q104 0 174 -35.5t114 -113.5q109 115 146 153l35 -14q-15 -50 -15 -119v-1155q0 -72 30 -99.5t105 -27.5v-43q-18 1 -87 5t-134 4q-88 0 -178.5 -4t-116.5 -5v43q99 0 148 32.5t49 115.5v353q-41 -97 -116.5 -149.5 t-170.5 -52.5q-120 0 -215.5 62t-151 187t-55.5 306zM295 526q0 -245 72.5 -369t210.5 -124q76 0 138.5 61.5t88.5 175.5v629q-78 137 -254 137q-124 0 -190 -127.5t-66 -382.5z" />
<glyph unicode="r" horiz-adv-x="911" d="M59 0v43q58 0 91.5 13t49 45t15.5 89v641q0 95 -34.5 138t-121.5 43v43q64 -6 127 -6q130 0 213 28v-256q23 64 66.5 124t103.5 99t127 39q54 0 96.5 -21.5t66.5 -58.5t24 -81q0 -54 -32 -91.5t-85 -37.5q-45 0 -77 28.5t-32 77.5q0 67 70 111q-14 20 -43 20 q-81 0 -146 -62t-102 -153t-37 -170v-434q0 -95 54 -131.5t163 -36.5v-43q-252 8 -315 8q-54 0 -242 -8z" />
<glyph unicode="s" horiz-adv-x="913" d="M113 -14q8 117 8 409h47q15 -127 43 -209t86 -128t156 -46q45 0 86.5 19.5t68.5 63t27 112.5q0 56 -28.5 100.5t-74.5 80t-129 87.5q-101 64 -154.5 105t-90.5 100t-37 139q0 87 41 146.5t109.5 88.5t152.5 29q72 0 129.5 -23t93.5 -52q22 -17 36 -17q36 0 46 90h47 q-8 -100 -8 -348h-47q-22 135 -87 223t-192 88q-74 0 -121 -41.5t-47 -115.5q0 -71 48.5 -118.5t117 -90.5t97.5 -62q94 -61 151.5 -108.5t93 -109t35.5 -140.5q0 -91 -47.5 -155.5t-127.5 -98t-175 -33.5q-91 0 -162 29q-40 20 -84 55q-8 8 -19 8q-30 0 -42 -77h-47z" />
<glyph unicode="t" horiz-adv-x="725" d="M8 1012v41h197v313q115 3 184 29v-342h303v-41h-303v-793q0 -93 33 -133.5t98 -40.5q64 0 109 51t76 168l40 -10q-50 -283 -266 -283q-69 0 -114 16.5t-80 51.5q-44 45 -62 110.5t-18 176.5v686h-197z" />
<glyph unicode="u" d="M33 1012v43q64 -6 127 -6q129 0 213 28v-805q0 -78 9 -126t43 -78.5t103 -30.5q79 0 142 49t99 134t36 188v423q0 95 -34.5 138t-121.5 43v43q64 -6 127 -6q130 0 213 28v-856q0 -95 34.5 -137.5t121.5 -42.5v-43q-64 6 -127 6q-132 0 -213 -29v242q-50 -126 -139.5 -186 t-196.5 -60q-138 0 -213 78q-37 40 -52.5 104t-15.5 164v514q0 95 -34 138t-121 43z" />
<glyph unicode="v" horiz-adv-x="1001" d="M-4 1012v43q106 -8 180 -8q157 0 266 8v-43q-51 0 -79.5 -3.5t-47 -18.5t-18.5 -48q0 -34 22 -90l252 -623l226 592q22 56 22 95q0 47 -36 70t-115 28v41q106 -6 172 -6q90 0 155 6v-41q-41 -5 -73 -37t-60 -107l-336 -880h-34l-377 907q-30 71 -59.5 93t-59.5 22z" />
<glyph unicode="w" horiz-adv-x="1577" d="M0 1012v43q86 -13 180 -13q91 0 266 13v-43q-67 0 -99.5 -8t-42.5 -45q-2 -9 -2 -21q0 -36 22 -98l205 -589l294 812h47l314 -829l192 587q19 60 19 93q0 49 -35.5 72t-116.5 28v41q108 -6 172 -6q91 0 156 6v-41q-43 -5 -76 -37t-57 -107l-297 -880h-35l-325 824 l-292 -824h-34l-336 907q-28 72 -58 93.5t-61 21.5z" />
<glyph unicode="x" horiz-adv-x="1063" d="M43 0v41q40 5 82 37t98 106l236 311l-285 414q-28 41 -47 61.5t-36.5 29.5t-43.5 12v43q108 -8 146 -8q69 0 241 8v-43q-33 0 -56.5 -12.5t-23.5 -33.5q0 -12 8 -24l219 -319l142 198q62 87 62 129q0 29 -28 44.5t-89 19.5v41q106 -6 172 -6q90 0 155 6v-41 q-83 -10 -180 -144l-207 -286l301 -439q36 -52 62 -73.5t65 -28.5v-43q-104 8 -145 8q-70 0 -242 -8v43q33 0 57 13t24 33q0 10 -9 24l-233 340l-150 -195q-57 -73 -57 -123q0 -84 151 -94v-41q-108 6 -233 6q-91 0 -156 -6z" />
<glyph unicode="y" horiz-adv-x="1032" d="M-8 1012v43q96 -13 201 -13q88 0 266 13v-43q-50 0 -78 -3.5t-46.5 -19t-18.5 -48.5q0 -37 26 -101l247 -612l226 593q22 60 22 94q0 48 -36.5 71t-116.5 28v41q108 -6 172 -6q91 0 156 6v-41q-41 -5 -73 -37t-60 -107l-336 -880l-70 -178q-39 -101 -88 -144 q-58 -53 -160 -53q-61 0 -100 32.5t-39 90.5q0 49 29 78.5t80 29.5q45 0 74.5 -25t29.5 -71q0 -61 -55 -92q4 -2 12 -2q113 0 174 160l73 187l-372 894q-35 71 -69.5 93t-69.5 22z" />
<glyph unicode="z" horiz-adv-x="975" d="M78 -10l592 1034h-226q-92 0 -151 -33t-91.5 -105.5t-41.5 -191.5h-47q0 271 -9 369q161 -8 381 -8q196 0 414 10l-592 -1034h225q126 0 199 78.5t86 250.5h47q0 -267 8 -368q-160 8 -380 8q-196 0 -414 -10z" />
<glyph unicode="{" horiz-adv-x="623" d="M55 594v37h11q63 4 96 48t46 147.5t13 301.5q0 183 33 285t107.5 145.5t207.5 43.5v-39q-72 -2 -104.5 -31t-45.5 -117.5t-13 -286.5q0 -174 -39.5 -280t-103 -158t-150.5 -78q87 -26 150.5 -78t103 -158.5t39.5 -279.5q0 -205 13 -295t45.5 -118t104.5 -29v-39 q-134 0 -208 42.5t-107 145.5t-33 293q0 197 -13 300.5t-46 148t-96 49.5h-11z" />
<glyph unicode="|" horiz-adv-x="455" d="M186 -399v2156h82v-2156h-82z" />
<glyph unicode="}" horiz-adv-x="623" d="M54 -346v-39q134 0 208 42.5t107 145.5t33 293q0 197 13 300.5t46 148t96 49.5h11v37h-11q-63 4 -96 48t-46 147.5t-13 301.5q0 183 -33 285t-107.5 145.5t-207.5 43.5v-39q72 -2 104.5 -31t45.5 -117.5t13 -286.5q0 -174 39.5 -280t103 -158t150.5 -78 q-87 -26 -150.5 -78t-103 -158.5t-39.5 -279.5q0 -205 -13 -295t-45.5 -118t-104.5 -29z" />
<glyph unicode="~" horiz-adv-x="1329" d="M152 530q8 66 48.5 115.5t103.5 76t136 26.5q68 0 127 -20.5t180 -79t214 -58.5q134 0 184 119l35 -11q-8 -66 -49 -115t-104 -75.5t-136 -26.5q-68 0 -127 20.5t-180 79t-213 58.5q-135 0 -185 -119z" />
<glyph unicode="&#xa1;" horiz-adv-x="510" d="M125 952q0 35 17.5 65.5t48 48t65.5 17.5t65.5 -17.5t48 -48t17.5 -65.5t-17.5 -65t-48 -48t-65.5 -18t-65.5 18t-48 48t-17.5 65zM160 -270q0 75 24 273.5t38 344t14 303.5h36q0 -142 12.5 -282t38 -352t25.5 -287q0 -59 -26 -87t-68 -28q-41 0 -67.5 28.5t-26.5 86.5z " />
<glyph unicode="&#xa2;" horiz-adv-x="971" d="M69 514q0 156 54 280.5t151.5 199t223.5 87.5v369h45v-367h3q138 0 238 -65q96 -65 96 -158q0 -54 -30.5 -84.5t-77.5 -30.5q-48 0 -80.5 27.5t-32.5 75.5q0 44 24.5 73.5t61.5 39.5q-20 37 -73 61.5t-111 24.5l-18 -1v-986l20 -1q87 0 166.5 51t130.5 160l39 -14 q-22 -70 -67.5 -133t-118.5 -105t-170 -47v-342h-45v343q-122 6 -219.5 73.5t-153.5 188t-56 280.5zM268 545q0 -221 62.5 -337t167.5 -141v971q-100 -28 -165 -147t-65 -346z" />
<glyph unicode="&#xa3;" horiz-adv-x="1233" d="M72 -8q0 19 27.5 50.5t70.5 61.5t86 46q14 66 18.5 144.5t4.5 233.5v80h-158v41h158v164h-158v41h158v45q0 608 454 608q121 0 193 -55q61 -49 61 -113q0 -43 -28.5 -71.5t-67.5 -28.5q-37 0 -65.5 26t-28.5 66q0 34 17.5 59t49.5 37q-4 20 -43.5 35t-83.5 15 q-122 0 -180.5 -71t-73 -177t-14.5 -277v-98h297v-41h-297v-164h297v-41h-298q-4 -122 -35.5 -217.5t-96.5 -210.5q87 41 176 41q69 0 158.5 -30.5t143 -46t118.5 -15.5q69 0 104 33.5t35 83.5q0 69 -47 114.5t-127 61.5l8 33q69 -11 128.5 -44t96.5 -87t37 -125 q0 -59 -25.5 -111.5t-76 -84.5t-121.5 -32q-66 0 -124.5 25t-148.5 79.5t-141 71.5q-43 17 -100 17q-58 0 -113 -21q-47 -81 -103 -126.5t-110 -45.5q-16 0 -24 4t-8 17z" />
<glyph unicode="&#xa4;" horiz-adv-x="1096" d="M158 283l88 88q-86 105 -86 243q0 139 88 246l-90 90l57 58l90 -90q107 86 244 86q136 0 244 -89l92 93l57 -58l-92 -92q86 -109 86 -244q0 -138 -86 -243l90 -88l-57 -60l-90 90q-110 -86 -244 -86q-139 0 -244 84l-88 -88zM244 614q0 -84 41.5 -155.5t111.5 -113.5 t152 -42t151.5 42t110.5 113.5t41 155.5q0 83 -41 155t-111 115.5t-151 43.5q-82 0 -152.5 -43t-111.5 -115t-41 -156z" />
<glyph unicode="&#xa5;" horiz-adv-x="1325" d="M55 1407v43q79 -6 180 -6q199 0 287 6v-43q-144 0 -144 -79q0 -30 21 -71l340 -651h2l260 518q56 113 56 176q0 58 -45 82.5t-136 26.5v41q117 -6 236 -6q91 0 153 6v-41q-41 -9 -80 -51.5t-84 -130.5l-313 -621h279v-41h-287v-164h287v-41h-287v-143q0 -77 12.5 -112 t46 -48t107.5 -16v-41q-96 6 -260 6q-176 0 -263 -6v41q74 3 107.5 16t46 48t12.5 112v143h-286v41h286v125l-21 39h-265v41h243l-372 686q-38 69 -65.5 92t-53.5 23z" />
<glyph unicode="&#xa6;" horiz-adv-x="459" d="M188 -399v1067h82v-1067h-82zM188 786v971h82v-971h-82z" />
<glyph unicode="&#xa7;" horiz-adv-x="1040" d="M84 639q0 224 235 354q-71 65 -108 133.5t-37 153.5q0 94 44.5 167.5t126.5 114t190 40.5q92 0 182 -35q73 -31 115 -81t42 -104q0 -47 -29 -78.5t-79 -31.5q-47 0 -80 30t-33 78q0 38 21.5 68t66.5 41q-19 39 -79 56.5t-119 17.5q-80 0 -130.5 -30t-73 -76t-22.5 -97 q0 -75 47.5 -140t105.5 -109.5t187 -133.5q109 -75 172 -131.5t96 -121t33 -146.5q0 -220 -240 -350q74 -66 112 -135.5t38 -155.5q0 -95 -44.5 -168t-126 -113.5t-189.5 -40.5q-98 0 -182 35q-74 31 -116 80.5t-42 103.5q0 47 29 79t79 32q48 0 80.5 -30.5t32.5 -78.5 q0 -38 -21.5 -67.5t-66.5 -40.5q17 -39 78 -56.5t123 -17.5q78 0 128 30t72.5 76t22.5 97q0 75 -47.5 139.5t-105.5 109.5t-187 134q-109 75 -172 131.5t-96 121t-33 146.5zM195 741q0 -64 38.5 -121.5t98 -106t157.5 -116.5q150 -102 207 -150q77 43 114.5 102.5 t37.5 125.5q0 64 -38.5 121.5t-99 107t-157.5 115.5q-152 104 -208 151q-75 -41 -112.5 -101.5t-37.5 -127.5z" />
<glyph unicode="&#xa8;" horiz-adv-x="799" d="M63 1403q0 31 16 58.5t43.5 44t59.5 16.5q31 0 58.5 -16.5t44 -44t16.5 -58.5q0 -32 -16.5 -59.5t-43.5 -43.5t-59 -16q-49 0 -84 35t-35 84zM498 1403q0 31 16 58.5t43 44t59 16.5q31 0 58.5 -16.5t44 -44t16.5 -58.5q0 -32 -16.5 -59.5t-43.5 -43.5t-59 -16 q-49 0 -83.5 35t-34.5 84z" />
<glyph unicode="&#xa9;" horiz-adv-x="1831" d="M100 786q0 222 109.5 409.5t297 297t408.5 109.5q222 0 409.5 -109.5t297 -297t109.5 -409.5q0 -221 -109.5 -408.5t-297 -297t-409.5 -109.5q-221 0 -408.5 109.5t-297 297t-109.5 408.5zM182 786q0 -203 98.5 -375t267 -273t367.5 -101q200 0 368.5 101t267 273 t98.5 375q0 204 -98.5 376t-267 273t-368.5 101q-199 0 -367.5 -101t-267 -273t-98.5 -376zM471 774q0 166 60.5 295.5t169.5 201.5t249 72q70 0 135 -18t111 -53q86 -60 86 -152q0 -53 -30.5 -83.5t-77.5 -30.5q-48 0 -80.5 30t-32.5 80q0 42 23 69t63 36q-20 37 -73 61.5 t-111 24.5q-101 0 -177 -80q-116 -128 -116 -428q0 -169 39.5 -276t105 -155.5t148.5 -48.5q89 0 168.5 51t130.5 160l38 -14q-22 -73 -70 -137.5t-125 -106t-179 -41.5q-129 0 -232.5 66t-163 189t-59.5 288z" />
<glyph unicode="&#xaa;" horiz-adv-x="948" d="M117 897q0 56 32.5 95t87 66.5t146.5 61.5q80 30 122 55t42 60v37q0 89 -35 128.5t-104 39.5q-85 0 -152 -43q30 -9 50 -34.5t20 -62.5q0 -39 -27 -64.5t-63 -25.5q-45 0 -72 25.5t-27 67.5q0 81 99 129q99 47 225 47q132 0 191 -61.5t59 -198.5v-334q0 -43 11.5 -59.5 t39.5 -16.5q49 0 84 35l22 -31q-80 -76 -184 -76q-73 0 -103.5 24.5t-33.5 72.5q-100 -97 -240 -97q-49 0 -92 17.5t-70.5 53.5t-27.5 89zM285 934q0 -56 31 -90.5t81 -34.5q77 0 150 65v297q-8 -17 -31.5 -32.5t-83.5 -42.5q-77 -35 -112 -72t-35 -90z" />
<glyph unicode="&#xab;" horiz-adv-x="1028" d="M66 526v2q158 88 270.5 223.5t200.5 331.5l34 -14q-71 -191 -155 -313.5t-197 -220.5q110 -96 194.5 -225.5t157.5 -323.5l-34 -15q-88 196 -200.5 332t-270.5 223zM424 526v2q158 88 270.5 223.5t200.5 331.5l35 -14q-72 -191 -155.5 -313.5t-196.5 -220.5 q110 -96 194.5 -225t157.5 -324l-35 -15q-88 196 -200.5 332t-270.5 223z" />
<glyph unicode="&#xac;" horiz-adv-x="1343" d="M168 696v62h1026v-420h-74v358h-952z" />
<glyph unicode="&#xad;" horiz-adv-x="1022" />
<glyph unicode="&#xae;" horiz-adv-x="1389" d="M123 1030q0 155 77 286.5t208 208.5t286 77t286.5 -77t208.5 -208.5t77 -286.5t-77 -286t-208.5 -208t-286.5 -77t-286 77t-208 208t-77 286zM209 1030q0 -136 65 -252.5t176.5 -185t243.5 -68.5q133 0 244.5 68.5t176.5 185t65 252.5q0 137 -65 253t-176.5 184.5 t-244.5 68.5t-244 -68.5t-176 -184.5t-65 -253zM438 721v31q21 2 30.5 7.5t13 20.5t3.5 47v449q0 33 -3.5 48.5t-13 21.5t-30.5 8v30q25 -2 99 -2q67 0 111 1t65 1q115 0 176 -42t61 -119q0 -139 -198 -174q81 -9 115.5 -37t45.5 -82l25 -117q2 -8 6 -28.5t11.5 -30 t19.5 -9.5q15 0 24 17l21 -14q-12 -24 -33.5 -33.5t-56.5 -9.5q-52 0 -77 19.5t-36 63.5l-35 152q-9 40 -23 58.5t-48.5 26.5t-108.5 9v-207q0 -32 3.5 -47t13 -20.5t30.5 -7.5v-31q-20 0 -46.5 1t-57.5 1q-35 0 -62 -1t-45 -1zM602 1067h49q101 0 136.5 35t35.5 100 q0 79 -32.5 115.5t-110.5 36.5q-34 0 -50 -5.5t-22 -19.5t-6 -43v-219z" />
<glyph unicode="&#xaf;" horiz-adv-x="741" d="M51 1407v51h639v-51h-639z" />
<glyph unicode="&#xb0;" horiz-adv-x="682" d="M92 1434q0 73 34 129t91 86t123 30q67 0 124.5 -30t91.5 -86t34 -129q0 -75 -34 -131t-91.5 -86.5t-124.5 -30.5q-66 0 -123 30.5t-91 87t-34 130.5zM143 1432q0 -68 29 -116t74 -71.5t94 -23.5t94.5 23.5t75 71.5t29.5 116q0 66 -29.5 114.5t-75.5 73.5t-94 25 t-93.5 -25t-74.5 -73.5t-29 -114.5z" />
<glyph unicode="&#xb1;" horiz-adv-x="1313" d="M129 696v62h477v483h74v-483h475v-62h-475v-481h-74v481h-477zM150 0v62h1026v-62h-1026z" />
<glyph unicode="&#xb2;" horiz-adv-x="692" d="M72 897v41q23 20 130 100t168.5 160.5t61.5 167.5q0 111 -133 111q-124 0 -195 -111l-30 16q38 71 109.5 117.5t172.5 46.5q93 0 149 -39t56 -114q0 -78 -53 -138t-149.5 -134t-129.5 -109h271q31 0 49 7.5t27 21.5t20 40l35 -6q-28 -104 -31 -184q-25 6 -78 6h-450z" />
<glyph unicode="&#xb3;" horiz-adv-x="664" d="M57 1384q38 71 110 117.5t177 46.5q94 0 150.5 -39t56.5 -110q0 -68 -52.5 -118.5t-138.5 -74.5q64 -1 118.5 -22.5t87 -63t32.5 -98.5q0 -91 -79 -161.5t-202.5 -109t-250.5 -38.5v35q105 3 199 40.5t151 99t57 134.5q0 70 -40.5 114.5t-108.5 47.5l-26 -13t-27 -12 t-21 -4q-33 0 -33 25q0 19 23 24.5t67 3.5q62 26 88.5 68t26.5 84q0 54 -38 86.5t-101 32.5q-61 0 -111.5 -28t-83.5 -83z" />
<glyph unicode="&#xb4;" horiz-adv-x="457" d="M41 1245q44 69 75 125t75 141t73 123q35 46 78 46q25 0 45 -15q28 -23 28 -57q0 -33 -28 -70q-30 -38 -89 -89.5t-113 -100.5t-122 -121z" />
<glyph unicode="&#xb6;" horiz-adv-x="1321" d="M72 737q0 210 87.5 372t253 252.5t392.5 90.5q58 0 160.5 -3.5t148.5 -3.5q72 0 123 5v-39q-65 -3 -99 -18.5t-46.5 -44t-12.5 -76.5v-1426q0 -77 12.5 -112t46 -48t107.5 -16v-41q-94 6 -260 6q-204 0 -303 -6v41q87 3 130.5 21.5t60 58.5t16.5 117v106 q-429 0 -623 205.5t-194 558.5zM254 719q0 -4 82 -11t213.5 -12.5t277.5 -5.5q2 -153 14.5 -288t27.5 -219.5t22 -84.5v1245q-7 0 -22 -87t-27.5 -223t-14.5 -283q-144 0 -275 -6t-214.5 -14t-83.5 -11z" />
<glyph unicode="&#xb7;" horiz-adv-x="541" d="M139 548q0 35 17.5 65.5t48 48t65.5 17.5t65.5 -17.5t48 -48t17.5 -65.5t-17.5 -65t-48 -48t-65.5 -18t-65.5 18t-48 48t-17.5 65z" />
<glyph unicode="&#xb8;" horiz-adv-x="467" d="M20 -362l9 36q42 -6 77 -6q74 0 129.5 21.5t55.5 70.5q0 58 -86 58q-59 0 -101 -15l70 209h55l-53 -159q61 14 121 14q58 0 91.5 -25.5t33.5 -70.5q0 -54 -35.5 -89t-88.5 -51t-108 -16q-105 0 -170 23z" />
<glyph unicode="&#xb9;" horiz-adv-x="539" d="M70 1436v43q105 2 172.5 16t122.5 47v-504q0 -40 13.5 -61.5t42.5 -30t81 -8.5v-43q-78 4 -199 4q-133 0 -219 -4v43q76 0 114 21.5t38 78.5v265q0 59 -14.5 87t-48 37t-103.5 9z" />
<glyph unicode="&#xba;" horiz-adv-x="930" d="M102 1108q0 117 51.5 201t135 127t176.5 43t176 -43t134.5 -127t51.5 -201t-51.5 -201t-134.5 -127t-176 -43t-176.5 43t-135 127t-51.5 201zM272 1108q0 -114 25.5 -189t69 -110t98.5 -35q54 0 97.5 35t69 110t25.5 189t-25.5 189t-69 110t-97.5 35q-55 0 -98.5 -35 t-69 -110t-25.5 -189z" />
<glyph unicode="&#xbb;" horiz-adv-x="1026" d="M98 -16q72 191 155.5 313t197.5 221q-110 96 -194.5 225t-158.5 324l35 14q88 -196 200.5 -331.5t270.5 -223.5v-2q-158 -88 -270.5 -223.5t-200.5 -331.5zM457 -16q71 190 154.5 312.5t197.5 221.5q-110 96 -194.5 225.5t-157.5 323.5l35 14q87 -196 199.5 -331.5 t271.5 -223.5v-2q-159 -88 -271.5 -223.5t-199.5 -331.5z" />
<glyph unicode="&#xbc;" horiz-adv-x="1419" d="M103 1436v43q105 2 172.5 16t122.5 47v-504q0 -40 13.5 -61.5t42.5 -30t81 -8.5v-43q-78 4 -199 4q-133 0 -219 -4v43q76 0 114 21.5t38 78.5v265q0 59 -14.5 87t-48 37t-103.5 9zM131 -86l1198 1774l39 -27l-1198 -1774zM613 37v43l469 541h43v-500h16q32 0 49.5 7.5 t26.5 21t20 40.5l35 -6q-25 -86 -29 -153q-24 6 -77 6h-41v-240h-115v240h-397zM694 121h316v367z" />
<glyph unicode="&#xbd;" horiz-adv-x="1434" d="M98 -86l1198 1774l39 -27l-1198 -1774zM119 1436v43q105 2 172.5 16t122.5 47v-504q0 -40 13.5 -61.5t42.5 -30t81 -8.5v-43q-78 4 -199 4q-133 0 -219 -4v43q76 0 114 21.5t38 78.5v265q0 59 -14.5 87t-48 37t-103.5 9zM795 2v41q23 20 130 100t168.5 160.5t61.5 167.5 q0 111 -133 111q-124 0 -195 -111l-30 16q38 71 109.5 117.5t172.5 46.5q93 0 149 -39t56 -114q0 -78 -53 -138t-149.5 -134t-129.5 -109h271q31 0 49 7.5t27 21.5t20 40l35 -6q-28 -104 -31 -184q-25 6 -78 6h-450z" />
<glyph unicode="&#xbe;" horiz-adv-x="1524" d="M104 1384q38 71 110 117.5t177 46.5q94 0 150.5 -39t56.5 -110q0 -68 -52.5 -118.5t-138.5 -74.5q64 -1 118.5 -22.5t87 -63t32.5 -98.5q0 -91 -79 -161.5t-202.5 -109t-250.5 -38.5v35q105 3 199 40.5t151 99t57 134.5q0 70 -40.5 114.5t-108.5 47.5l-26 -13t-27 -12 t-21 -4q-33 0 -33 25q0 19 23 24.5t67 3.5q62 26 88.5 68t26.5 84q0 54 -38 86.5t-101 32.5q-61 0 -111.5 -28t-83.5 -83zM227 -86l1198 1774l39 -27l-1198 -1774zM709 37v43l469 541h43v-500h16q32 0 49.5 7.5t26.5 21t20 40.5l35 -6q-25 -86 -29 -153q-24 6 -77 6h-41 v-240h-115v240h-397zM790 121h316v367z" />
<glyph unicode="&#xbf;" horiz-adv-x="928" d="M63 -37q0 161 124.5 273t336.5 161v258h41v-276q-130 -45 -200 -102.5t-94.5 -123.5t-24.5 -151q0 -176 76 -261t210 -85q143 0 201 53q-40 8 -63 34.5t-23 70.5q0 50 32.5 80t80.5 30q47 0 77.5 -30.5t30.5 -77.5q0 -85 -96 -142q-101 -59 -278 -59q-128 0 -225.5 42 t-151.5 120.5t-54 185.5zM412 954q0 35 17.5 65.5t48 48t65.5 17.5t65.5 -17.5t48 -48t17.5 -65.5t-17.5 -65t-48 -48t-65.5 -18t-65.5 18t-48 48t-17.5 65z" />
<glyph unicode="&#xc0;" horiz-adv-x="1290" d="M-14 0v41q102 23 161 178l482 1241h33l499 -1288q50 -127 142 -131v-41q-84 6 -220 6q-175 0 -262 -6v41q78 3 111.5 19t33.5 57q0 35 -24 96l-126 336h-494l-84 -217q-41 -104 -41 -168q0 -65 43.5 -93t134.5 -30v-41q-117 6 -236 6q-92 0 -153 -6zM290 1844q0 19 11 38 q23 34 63 34q31 0 62 -20q41 -26 98.5 -79t112 -101t133.5 -108l-14 -27q-75 38 -134.5 63.5t-148 59.5t-129.5 59q-54 36 -54 81zM337 590h464l-229 611z" />
<glyph unicode="&#xc1;" horiz-adv-x="1290" d="M-14 0v41q102 23 161 178l482 1241h33l499 -1288q50 -127 142 -131v-41q-84 6 -220 6q-175 0 -262 -6v41q78 3 111.5 19t33.5 57q0 35 -24 96l-126 336h-494l-84 -217q-41 -104 -41 -168q0 -65 43.5 -93t134.5 -30v-41q-117 6 -236 6q-92 0 -153 -6zM337 590h464 l-229 611zM508 1608q65 50 113.5 91.5t119 106t111.5 90.5q31 20 62 20q40 0 63 -34q11 -19 11 -38q0 -45 -54 -81q-41 -25 -113.5 -53t-141 -56t-157.5 -73z" />
<glyph unicode="&#xc2;" horiz-adv-x="1290" d="M-14 0v41q102 23 161 178l482 1241h33l499 -1288q50 -127 142 -131v-41q-84 6 -220 6q-175 0 -262 -6v41q78 3 111.5 19t33.5 57q0 35 -24 96l-126 336h-494l-84 -217q-41 -104 -41 -168q0 -65 43.5 -93t134.5 -30v-41q-117 6 -236 6q-92 0 -153 -6zM232 1606 q131 45 232.5 117.5t150.5 152.5h37q48 -80 149.5 -152.5t233.5 -117.5l-11 -29q-124 26 -243 65.5t-189 77.5q-58 -38 -154.5 -77.5t-195.5 -65.5zM337 590h464l-229 611z" />
<glyph unicode="&#xc3;" horiz-adv-x="1290" d="M-14 0v41q102 23 161 178l482 1241h33l499 -1288q50 -127 142 -131v-41q-84 6 -220 6q-175 0 -262 -6v41q78 3 111.5 19t33.5 57q0 35 -24 96l-126 336h-494l-84 -217q-41 -104 -41 -168q0 -65 43.5 -93t134.5 -30v-41q-117 6 -236 6q-92 0 -153 -6zM240 1630 q6 66 38 115t82 75.5t107 26.5q51 0 96.5 -20t138.5 -78.5t163 -58.5q95 0 127 114l30 -6q-6 -66 -38 -115t-81.5 -75.5t-107.5 -26.5q-51 0 -96 20.5t-138.5 79t-162.5 58.5q-96 0 -127 -115zM337 590h464l-229 611z" />
<glyph unicode="&#xc4;" horiz-adv-x="1290" d="M-14 0v41q102 23 161 178l482 1241h33l499 -1288q50 -127 142 -131v-41q-84 6 -220 6q-175 0 -262 -6v41q78 3 111.5 19t33.5 57q0 35 -24 96l-126 336h-494l-84 -217q-41 -104 -41 -168q0 -65 43.5 -93t134.5 -30v-41q-117 6 -236 6q-92 0 -153 -6zM297 1700 q0 31 16 58.5t43.5 44t59.5 16.5q31 0 58.5 -16.5t44 -44t16.5 -58.5q0 -32 -16.5 -59.5t-44 -43.5t-58.5 -16q-49 0 -84 35t-35 84zM337 590h464l-229 611zM731 1700q0 31 16 58.5t43.5 44t59.5 16.5q31 0 58.5 -16.5t44 -44t16.5 -58.5q0 -32 -16.5 -59.5t-43.5 -43.5 t-59 -16q-49 0 -84 35t-35 84z" />
<glyph unicode="&#xc5;" horiz-adv-x="1290" d="M-14 0v41q102 23 161 178l482 1241h33l499 -1288q50 -127 142 -131v-41q-84 6 -220 6q-175 0 -262 -6v41q78 3 111.5 19t33.5 57q0 35 -24 96l-126 336h-494l-84 -217q-41 -104 -41 -168q0 -65 43.5 -93t134.5 -30v-41q-117 6 -236 6q-92 0 -153 -6zM337 590h464 l-229 611zM437 1708q0 56 27 98t72 65t97 23q54 0 99.5 -23t72.5 -65t27 -98q0 -57 -27 -99.5t-72.5 -65.5t-99.5 -23q-53 0 -97.5 23t-71.5 65.5t-27 99.5zM494 1706q0 -46 20.5 -78t52.5 -48.5t66 -16.5q36 0 68.5 16.5t53 48.5t20.5 78q0 45 -20.5 78t-53.5 50t-68 17 q-34 0 -66 -17t-52.5 -50t-20.5 -78z" />
<glyph unicode="&#xc6;" horiz-adv-x="1749" d="M-20 0v41q33 1 66 31t75 100l718 1184q-15 28 -48 39t-101 14v41q86 -3 203 -4l82 135h49l-82 -136q83 -1 154.5 -1h126.5q272 0 387 6q-15 -131 -15 -242q0 -84 7 -127h-48q-11 132 -28.5 197.5t-59 95t-125.5 29.5h-129q-74 0 -107 -12t-45.5 -46.5t-12.5 -111.5v-483 h149q81 0 108 51.5t33 105.5t9 72h47q-8 -104 -8 -171l1 -79q0 -74 13 -250h-47q-1 12 -9 84t-45 109t-102 37h-149v-492q0 -77 12.5 -111.5t45.5 -46.5t107 -12h150q99 0 144 33t60.5 102t28.5 228h47q-6 -56 -6 -148q0 -120 15 -262q-127 6 -428 6q-322 0 -492 -6v41 q57 3 82 16t34 47.5t9 112.5v492h-358l-299 -496q-38 -65 -38 -100q0 -36 35 -52.5t107 -19.5v-41q-62 6 -186 6q-86 0 -137 -6zM523 750h333v483q0 39 -3 65z" />
<glyph unicode="&#xc7;" horiz-adv-x="1409" d="M109 713q0 226 83 400t231 270t337 96q122 0 208.5 -35t168.5 -98q22 -18 40 -18q42 0 52 122h47q-8 -133 -8 -471h-47q-15 92 -27.5 143t-29.5 86.5t-46 73.5q-62 80 -157 120t-205 40q-133 0 -233 -88t-155 -251t-55 -382q0 -223 60 -383t165 -243t238 -83 q102 0 199 39t151 117q42 56 60 121.5t35 202.5h47q0 -353 8 -492h-47q-5 64 -16.5 92.5t-33.5 28.5q-16 0 -42 -17q-61 -43 -112.5 -70.5t-117.5 -45t-149 -17.5q-195 0 -341.5 88t-227 255.5t-80.5 398.5zM580 -362l8 36q42 -6 78 -6q74 0 129 21.5t55 70.5q0 58 -86 58 q-58 0 -100 -15l69 207h56l-54 -157q61 14 121 14q58 0 91.5 -25.5t33.5 -70.5q0 -54 -35.5 -89t-88.5 -51t-107 -16q-105 0 -170 23z" />
<glyph unicode="&#xc8;" horiz-adv-x="1247" d="M86 0v41q74 3 107.5 16t46 48t12.5 112v1016q0 77 -12.5 112t-46 48t-107.5 16v41q201 -6 594 -6q301 0 428 6q-14 -134 -14 -242q0 -80 6 -127h-47q-15 133 -37.5 198t-76 94.5t-161.5 29.5h-170q-74 0 -107.5 -12t-46 -46.5t-12.5 -111.5v-483h136q103 0 137 61.5 t42 125.5t11 83h47q-7 -101 -7 -193l1 -98q0 -104 12 -291h-47q-2 14 -11.5 99t-55.5 128.5t-129 43.5h-136v-492q0 -77 12.5 -111.5t46 -46.5t107.5 -12h150q128 0 194.5 34t96 109t45.5 220h47q-6 -55 -6 -148q0 -116 14 -262q-139 6 -469 6q-393 0 -594 -6zM284 1844 q0 19 11 38q23 34 63 34q31 0 62 -20q41 -26 98.5 -79t112 -101t133.5 -108l-14 -27q-75 38 -134.5 63.5t-148 59.5t-129.5 59q-54 36 -54 81z" />
<glyph unicode="&#xc9;" horiz-adv-x="1247" d="M86 0v41q74 3 107.5 16t46 48t12.5 112v1016q0 77 -12.5 112t-46 48t-107.5 16v41q201 -6 594 -6q301 0 428 6q-14 -134 -14 -242q0 -80 6 -127h-47q-15 133 -37.5 198t-76 94.5t-161.5 29.5h-170q-74 0 -107.5 -12t-46 -46.5t-12.5 -111.5v-483h136q103 0 137 61.5 t42 125.5t11 83h47q-7 -101 -7 -193l1 -98q0 -104 12 -291h-47q-2 14 -11.5 99t-55.5 128.5t-129 43.5h-136v-492q0 -77 12.5 -111.5t46 -46.5t107.5 -12h150q128 0 194.5 34t96 109t45.5 220h47q-6 -55 -6 -148q0 -116 14 -262q-139 6 -469 6q-393 0 -594 -6zM502 1608 q65 50 113.5 91.5t119 106t111.5 90.5q31 20 62 20q40 0 63 -34q11 -19 11 -38q0 -45 -54 -81q-41 -25 -113.5 -53t-141 -56t-157.5 -73z" />
<glyph unicode="&#xca;" horiz-adv-x="1247" d="M86 0v41q74 3 107.5 16t46 48t12.5 112v1016q0 77 -12.5 112t-46 48t-107.5 16v41q201 -6 594 -6q301 0 428 6q-14 -134 -14 -242q0 -80 6 -127h-47q-15 133 -37.5 198t-76 94.5t-161.5 29.5h-170q-74 0 -107.5 -12t-46 -46.5t-12.5 -111.5v-483h136q103 0 137 61.5 t42 125.5t11 83h47q-7 -101 -7 -193l1 -98q0 -104 12 -291h-47q-2 14 -11.5 99t-55.5 128.5t-129 43.5h-136v-492q0 -77 12.5 -111.5t46 -46.5t107.5 -12h150q128 0 194.5 34t96 109t45.5 220h47q-6 -55 -6 -148q0 -116 14 -262q-139 6 -469 6q-393 0 -594 -6zM226 1606 q131 45 232.5 117.5t150.5 152.5h37q48 -80 149.5 -152.5t233.5 -117.5l-11 -29q-124 26 -243 65.5t-189 77.5q-58 -38 -154.5 -77.5t-195.5 -65.5z" />
<glyph unicode="&#xcb;" horiz-adv-x="1247" d="M86 0v41q74 3 107.5 16t46 48t12.5 112v1016q0 77 -12.5 112t-46 48t-107.5 16v41q201 -6 594 -6q301 0 428 6q-14 -134 -14 -242q0 -80 6 -127h-47q-15 133 -37.5 198t-76 94.5t-161.5 29.5h-170q-74 0 -107.5 -12t-46 -46.5t-12.5 -111.5v-483h136q103 0 137 61.5 t42 125.5t11 83h47q-7 -101 -7 -193l1 -98q0 -104 12 -291h-47q-2 14 -11.5 99t-55.5 128.5t-129 43.5h-136v-492q0 -77 12.5 -111.5t46 -46.5t107.5 -12h150q128 0 194.5 34t96 109t45.5 220h47q-6 -55 -6 -148q0 -116 14 -262q-139 6 -469 6q-393 0 -594 -6zM291 1700 q0 31 16 58.5t43.5 44t59.5 16.5q31 0 58.5 -16.5t44 -44t16.5 -58.5q0 -32 -16.5 -59.5t-44 -43.5t-58.5 -16q-49 0 -84 35t-35 84zM725 1700q0 31 16 58.5t43.5 44t59.5 16.5q31 0 58.5 -16.5t44 -44t16.5 -58.5q0 -32 -16.5 -59.5t-43.5 -43.5t-59 -16q-49 0 -84 35 t-35 84z" />
<glyph unicode="&#xcc;" horiz-adv-x="694" d="M5 1844q0 19 11 38q23 34 63 34q31 0 62 -20q41 -26 98.5 -79t112 -101t133.5 -108l-14 -27q-75 38 -134.5 63.5t-148 59.5t-129.5 59q-54 36 -54 81zM86 0v41q74 3 107.5 16t46 48t12.5 112v1016q0 77 -12.5 112t-46 48t-107.5 16v41q85 -6 262 -6q166 0 260 6v-41 q-74 -3 -107.5 -16t-46 -48t-12.5 -112v-1016q0 -77 12.5 -112t46 -48t107.5 -16v-41q-94 6 -260 6q-176 0 -262 -6z" />
<glyph unicode="&#xcd;" horiz-adv-x="694" d="M86 0v41q74 3 107.5 16t46 48t12.5 112v1016q0 77 -12.5 112t-46 48t-107.5 16v41q85 -6 262 -6q166 0 260 6v-41q-74 -3 -107.5 -16t-46 -48t-12.5 -112v-1016q0 -77 12.5 -112t46 -48t107.5 -16v-41q-94 6 -260 6q-176 0 -262 -6zM223 1608q65 50 113.5 91.5t119 106 t111.5 90.5q31 20 62 20q40 0 63 -34q11 -19 11 -38q0 -45 -54 -81q-41 -25 -113.5 -53t-141 -56t-157.5 -73z" />
<glyph unicode="&#xce;" horiz-adv-x="694" d="M-53 1606q131 45 232.5 117.5t150.5 152.5h37q48 -80 149.5 -152.5t233.5 -117.5l-11 -29q-124 26 -243 65.5t-189 77.5q-58 -38 -154.5 -77.5t-195.5 -65.5zM86 0v41q74 3 107.5 16t46 48t12.5 112v1016q0 77 -12.5 112t-46 48t-107.5 16v41q85 -6 262 -6q166 0 260 6 v-41q-74 -3 -107.5 -16t-46 -48t-12.5 -112v-1016q0 -77 12.5 -112t46 -48t107.5 -16v-41q-94 6 -260 6q-176 0 -262 -6z" />
<glyph unicode="&#xcf;" horiz-adv-x="694" d="M12 1700q0 31 16 58.5t43.5 44t59.5 16.5q31 0 58.5 -16.5t44 -44t16.5 -58.5q0 -32 -16.5 -59.5t-44 -43.5t-58.5 -16q-49 0 -84 35t-35 84zM86 0v41q74 3 107.5 16t46 48t12.5 112v1016q0 77 -12.5 112t-46 48t-107.5 16v41q85 -6 262 -6q166 0 260 6v-41 q-74 -3 -107.5 -16t-46 -48t-12.5 -112v-1016q0 -77 12.5 -112t46 -48t107.5 -16v-41q-94 6 -260 6q-176 0 -262 -6zM446 1700q0 31 16 58.5t43.5 44t59.5 16.5q31 0 58.5 -16.5t44 -44t16.5 -58.5q0 -32 -16.5 -59.5t-43.5 -43.5t-59 -16q-49 0 -84 35t-35 84z" />
<glyph unicode="&#xd0;" horiz-adv-x="1483" d="M88 0v41q74 3 107.5 16t46 48t12.5 112v492h-166v41h166v483q0 77 -12.5 112t-46 48t-107.5 16v41q110 -7 200 -7l50 1q282 6 309 6q362 0 542.5 -181t180.5 -528q0 -223 -87.5 -390.5t-254.5 -259t-399 -91.5q-28 0 -133.5 3t-153.5 3q-168 0 -254 -6zM444 213 q0 -74 12 -110.5t44.5 -51t97.5 -14.5q218 0 342 79t174.5 230.5t50.5 386.5q0 236 -55 384.5t-179.5 222t-334.5 73.5q-64 0 -96 -14.5t-44 -51.5t-12 -110v-487h285v-41h-285v-496z" />
<glyph unicode="&#xd1;" horiz-adv-x="1446" d="M86 0v41q71 3 105.5 20.5t47.5 57.5t13 119v995q0 77 -12.5 112t-46 48t-107.5 16v41q67 -6 190 -6q92 0 160 6l723 -1114v876q0 79 -13.5 119t-52.5 57.5t-120 20.5v41q73 -6 209 -6q122 0 190 6v-41q-71 -3 -105.5 -20.5t-47.5 -57.5t-13 -119v-1222h-47l-860 1329 v-1081q0 -79 14 -119t52.5 -57.5t119.5 -20.5v-41q-73 6 -209 6q-122 0 -190 -6zM373 1630q6 66 38 115t82 75.5t107 26.5q51 0 96.5 -20t138.5 -78.5t163 -58.5q95 0 127 114l30 -6q-6 -66 -38 -115t-81.5 -75.5t-107.5 -26.5q-51 0 -96 20.5t-138.5 79t-162.5 58.5 q-96 0 -127 -115z" />
<glyph unicode="&#xd2;" horiz-adv-x="1518" d="M109 713q0 226 83 400t231 270t337 96q195 0 341.5 -88t227 -255.5t80.5 -398.5q0 -226 -83 -400t-231 -270t-337 -96q-195 0 -341.5 88t-227 255.5t-80.5 398.5zM313 721q0 -213 60 -375t163.5 -250t229.5 -88q131 0 230.5 91.5t153.5 255t54 374.5q0 213 -60 375 t-163 250t-229 88q-131 0 -231 -91.5t-154 -255t-54 -374.5zM413 1844q0 19 11 38q23 34 63 34q31 0 62 -20q41 -26 98.5 -79t112 -101t133.5 -108l-14 -27q-75 38 -134.5 63.5t-148 59.5t-129.5 59q-54 36 -54 81z" />
<glyph unicode="&#xd3;" horiz-adv-x="1518" d="M109 713q0 226 83 400t231 270t337 96q195 0 341.5 -88t227 -255.5t80.5 -398.5q0 -226 -83 -400t-231 -270t-337 -96q-195 0 -341.5 88t-227 255.5t-80.5 398.5zM313 721q0 -213 60 -375t163.5 -250t229.5 -88q131 0 230.5 91.5t153.5 255t54 374.5q0 213 -60 375 t-163 250t-229 88q-131 0 -231 -91.5t-154 -255t-54 -374.5zM631 1608q65 50 113.5 91.5t119 106t111.5 90.5q31 20 62 20q40 0 63 -34q11 -19 11 -38q0 -45 -54 -81q-41 -25 -113.5 -53t-141 -56t-157.5 -73z" />
<glyph unicode="&#xd4;" horiz-adv-x="1518" d="M109 713q0 226 83 400t231 270t337 96q195 0 341.5 -88t227 -255.5t80.5 -398.5q0 -226 -83 -400t-231 -270t-337 -96q-195 0 -341.5 88t-227 255.5t-80.5 398.5zM313 721q0 -213 60 -375t163.5 -250t229.5 -88q131 0 230.5 91.5t153.5 255t54 374.5q0 213 -60 375 t-163 250t-229 88q-131 0 -231 -91.5t-154 -255t-54 -374.5zM355 1606q131 45 232.5 117.5t150.5 152.5h37q48 -80 149.5 -152.5t233.5 -117.5l-11 -29q-124 26 -243 65.5t-189 77.5q-58 -38 -154.5 -77.5t-195.5 -65.5z" />
<glyph unicode="&#xd5;" horiz-adv-x="1518" d="M109 713q0 226 83 400t231 270t337 96q195 0 341.5 -88t227 -255.5t80.5 -398.5q0 -226 -83 -400t-231 -270t-337 -96q-195 0 -341.5 88t-227 255.5t-80.5 398.5zM313 721q0 -213 60 -375t163.5 -250t229.5 -88q131 0 230.5 91.5t153.5 255t54 374.5q0 213 -60 375 t-163 250t-229 88q-131 0 -231 -91.5t-154 -255t-54 -374.5zM363 1630q6 66 38 115t82 75.5t107 26.5q51 0 96.5 -20t138.5 -78.5t163 -58.5q95 0 127 114l30 -6q-6 -66 -38 -115t-81.5 -75.5t-107.5 -26.5q-51 0 -96 20.5t-138.5 79t-162.5 58.5q-96 0 -127 -115z" />
<glyph unicode="&#xd6;" horiz-adv-x="1518" d="M109 713q0 226 83 400t231 270t337 96q195 0 341.5 -88t227 -255.5t80.5 -398.5q0 -226 -83 -400t-231 -270t-337 -96q-195 0 -341.5 88t-227 255.5t-80.5 398.5zM313 721q0 -213 60 -375t163.5 -250t229.5 -88q131 0 230.5 91.5t153.5 255t54 374.5q0 213 -60 375 t-163 250t-229 88q-131 0 -231 -91.5t-154 -255t-54 -374.5zM420 1700q0 31 16 58.5t43.5 44t59.5 16.5q31 0 58.5 -16.5t44 -44t16.5 -58.5q0 -32 -16.5 -59.5t-44 -43.5t-58.5 -16q-49 0 -84 35t-35 84zM854 1700q0 31 16 58.5t43.5 44t59.5 16.5q31 0 58.5 -16.5t44 -44 t16.5 -58.5q0 -32 -16.5 -59.5t-43.5 -43.5t-59 -16q-49 0 -84 35t-35 84z" />
<glyph unicode="&#xd7;" horiz-adv-x="1044" d="M121 1085l45 45l358 -358l355 354l45 -45l-355 -352l355 -354l-45 -45l-355 354l-356 -356l-45 45l356 354z" />
<glyph unicode="&#xd8;" horiz-adv-x="1518" d="M109 713q0 226 83 400t231 270t337 96q235 0 398 -127l159 231l39 -27l-161 -236q103 -96 158.5 -244t55.5 -339q0 -226 -83 -400t-231 -270t-337 -96q-235 0 -398 127l-167 -248l-43 29l172 252q-103 97 -158 244.5t-55 337.5zM313 721q0 -280 103 -472l657 999 q-61 93 -143.5 143.5t-177.5 50.5q-131 0 -231 -91.5t-154 -255t-54 -374.5zM446 200q61 -93 143.5 -142.5t176.5 -49.5q131 0 230.5 91.5t153.5 255t54 374.5q0 280 -103 472z" />
<glyph unicode="&#xd9;" horiz-adv-x="1397" d="M55 1409v41q87 -6 262 -6q165 0 261 6v-41q-74 -3 -107.5 -16t-46 -48t-12.5 -112v-678q0 -164 22 -272t92.5 -174t208.5 -66q217 0 305 139t88 391v639q0 76 -17.5 117t-57 59t-111.5 21v41q74 -6 209 -6q123 0 190 6v-41q-71 -3 -105.5 -20.5t-47 -57.5t-12.5 -119 v-616q0 -147 -19.5 -252.5t-64.5 -181.5q-52 -88 -151.5 -139.5t-223.5 -51.5q-225 0 -344 111q-61 57 -93.5 120.5t-45.5 153.5t-13 234v643q0 77 -12.5 112t-46 48t-107.5 16zM378 1844q0 19 11 38q23 34 63 34q31 0 62 -20q41 -26 98.5 -79t112 -101t133.5 -108l-14 -27 q-75 38 -134.5 63.5t-148 59.5t-129.5 59q-54 36 -54 81z" />
<glyph unicode="&#xda;" horiz-adv-x="1397" d="M55 1409v41q87 -6 262 -6q165 0 261 6v-41q-74 -3 -107.5 -16t-46 -48t-12.5 -112v-678q0 -164 22 -272t92.5 -174t208.5 -66q217 0 305 139t88 391v639q0 76 -17.5 117t-57 59t-111.5 21v41q74 -6 209 -6q123 0 190 6v-41q-71 -3 -105.5 -20.5t-47 -57.5t-12.5 -119 v-616q0 -147 -19.5 -252.5t-64.5 -181.5q-52 -88 -151.5 -139.5t-223.5 -51.5q-225 0 -344 111q-61 57 -93.5 120.5t-45.5 153.5t-13 234v643q0 77 -12.5 112t-46 48t-107.5 16zM596 1608q65 50 113.5 91.5t119 106t111.5 90.5q31 20 62 20q40 0 63 -34q11 -19 11 -38 q0 -45 -54 -81q-41 -25 -113.5 -53t-141 -56t-157.5 -73z" />
<glyph unicode="&#xdb;" horiz-adv-x="1397" d="M55 1409v41q87 -6 262 -6q165 0 261 6v-41q-74 -3 -107.5 -16t-46 -48t-12.5 -112v-678q0 -164 22 -272t92.5 -174t208.5 -66q217 0 305 139t88 391v639q0 76 -17.5 117t-57 59t-111.5 21v41q74 -6 209 -6q123 0 190 6v-41q-71 -3 -105.5 -20.5t-47 -57.5t-12.5 -119 v-616q0 -147 -19.5 -252.5t-64.5 -181.5q-52 -88 -151.5 -139.5t-223.5 -51.5q-225 0 -344 111q-61 57 -93.5 120.5t-45.5 153.5t-13 234v643q0 77 -12.5 112t-46 48t-107.5 16zM320 1606q131 45 232.5 117.5t150.5 152.5h37q48 -80 149.5 -152.5t233.5 -117.5l-11 -29 q-124 26 -243 65.5t-189 77.5q-58 -38 -154.5 -77.5t-195.5 -65.5z" />
<glyph unicode="&#xdc;" horiz-adv-x="1397" d="M55 1409v41q87 -6 262 -6q165 0 261 6v-41q-74 -3 -107.5 -16t-46 -48t-12.5 -112v-678q0 -164 22 -272t92.5 -174t208.5 -66q217 0 305 139t88 391v639q0 76 -17.5 117t-57 59t-111.5 21v41q74 -6 209 -6q123 0 190 6v-41q-71 -3 -105.5 -20.5t-47 -57.5t-12.5 -119 v-616q0 -147 -19.5 -252.5t-64.5 -181.5q-52 -88 -151.5 -139.5t-223.5 -51.5q-225 0 -344 111q-61 57 -93.5 120.5t-45.5 153.5t-13 234v643q0 77 -12.5 112t-46 48t-107.5 16zM385 1700q0 31 16 58.5t43.5 44t59.5 16.5q31 0 58.5 -16.5t44 -44t16.5 -58.5 q0 -32 -16.5 -59.5t-44 -43.5t-58.5 -16q-49 0 -84 35t-35 84zM819 1700q0 31 16 58.5t43.5 44t59.5 16.5q31 0 58.5 -16.5t44 -44t16.5 -58.5q0 -32 -16.5 -59.5t-43.5 -43.5t-59 -16q-49 0 -84 35t-35 84z" />
<glyph unicode="&#xdd;" horiz-adv-x="1210" d="M-6 1407v43q80 -6 180 -6q199 0 287 6v-43q-144 0 -144 -79q0 -30 21 -71l341 -653l261 520q56 113 56 176q0 58 -45 82.5t-136 26.5v41q117 -6 236 -6q92 0 153 6v-41q-41 -9 -80 -51.5t-84 -130.5l-321 -637v-373q0 -77 12.5 -112t46 -48t107.5 -16v-41q-96 6 -260 6 q-176 0 -263 -6v41q74 3 107.5 16t46 48t12.5 112v309l-415 766q-38 69 -65.5 92t-53.5 23zM498 1608q65 50 113.5 91.5t119 106t111.5 90.5q31 20 62 20q40 0 63 -34q11 -19 11 -38q0 -45 -54 -81q-41 -25 -113.5 -53t-141 -56t-157.5 -73z" />
<glyph unicode="&#xde;" horiz-adv-x="1188" d="M86 0v41q74 3 107.5 16t46 48t12.5 112v1016q0 77 -12.5 112t-46 48t-107.5 16v41q86 -6 262 -6q166 0 260 6v-41q-74 -3 -107.5 -16t-46 -48t-12.5 -112v-91q216 3 189 3q160 0 271 -52t166.5 -142.5t55.5 -205.5q0 -116 -49.5 -220.5t-170 -173t-318.5 -68.5h-144v-66 q0 -77 12.5 -112t46 -48t107.5 -16v-41q-94 6 -260 6q-176 0 -262 -6zM442 324h123q201 0 278 110t77 299q0 188 -79.5 280.5t-260.5 92.5q-47 0 -138 -2v-780z" />
<glyph unicode="&#xdf;" horiz-adv-x="1196" d="M43 0v43q87 0 121.5 42.5t34.5 137.5v879q0 262 107 381t296 119q175 0 269 -78t94 -215q0 -98 -59.5 -185.5t-141 -148.5t-148.5 -88q134 -31 246.5 -105t180 -183.5t67.5 -240.5q0 -116 -51 -204t-136 -135.5t-184 -47.5q-59 0 -116.5 19.5t-95.5 59.5t-38 97 q0 50 28.5 80.5t78.5 30.5q47 0 78 -27t31 -73q0 -79 -89 -107q7 -19 38 -34t69 -15q52 0 98.5 31.5t76.5 102.5t30 183q0 120 -37 232.5t-114 197t-189 119.5q-49 -30 -76 -30q-16 0 -28.5 9t-12.5 25q0 18 12 28.5t35 10.5q31 0 74 -16q101 78 144.5 174t43.5 231 q0 131 -51 201t-149 70q-78 0 -137.5 -62t-59.5 -231v-1301q-81 29 -213 29q-62 0 -127 -6z" />
<glyph unicode="&#xe0;" horiz-adv-x="1020" d="M80 215q0 78 38 133t107 96.5t185 90.5q20 8 98 40t112.5 64t34.5 70v127q0 119 -49.5 162.5t-140.5 43.5q-145 0 -203 -73q41 -10 68.5 -43.5t27.5 -81.5q0 -52 -32.5 -81.5t-87.5 -29.5q-52 0 -81.5 35t-29.5 92q0 80 96 146q50 33 123.5 55t163.5 22q84 0 148 -20.5 t100 -56.5q47 -48 64.5 -111.5t17.5 -175.5v-569q0 -51 14.5 -74t48.5 -23q25 0 46 11t46 32l23 -35q-36 -27 -60 -42t-55 -24t-72 -9q-99 0 -137.5 49.5t-38.5 132.5q-60 -99 -144 -140.5t-171 -41.5q-71 0 -130 24.5t-94.5 76t-35.5 128.5zM224 1608q0 34 28 57 q19 15 44 15q44 0 79 -46q29 -38 65 -107.5t70.5 -134t87.5 -147.5l-23 -18q-56 59 -102.5 102.5t-118.5 107t-102 101.5q-28 37 -28 70zM260 248q0 -89 45 -134.5t119 -45.5q136 0 231 155v402q-15 -23 -50 -43t-146 -74q-59 -28 -100 -57.5t-70 -79.5t-29 -123z" />
<glyph unicode="&#xe1;" horiz-adv-x="1020" d="M80 215q0 78 38 133t107 96.5t185 90.5q20 8 98 40t112.5 64t34.5 70v127q0 119 -49.5 162.5t-140.5 43.5q-145 0 -203 -73q41 -10 68.5 -43.5t27.5 -81.5q0 -52 -32.5 -81.5t-87.5 -29.5q-52 0 -81.5 35t-29.5 92q0 80 96 146q50 33 123.5 55t163.5 22q84 0 148 -20.5 t100 -56.5q47 -48 64.5 -111.5t17.5 -175.5v-569q0 -51 14.5 -74t48.5 -23q25 0 46 11t46 32l23 -35q-36 -27 -60 -42t-55 -24t-72 -9q-99 0 -137.5 49.5t-38.5 132.5q-60 -99 -144 -140.5t-171 -41.5q-71 0 -130 24.5t-94.5 76t-35.5 128.5zM260 248q0 -89 45 -134.5 t119 -45.5q136 0 231 155v402q-15 -23 -50 -43t-146 -74q-59 -28 -100 -57.5t-70 -79.5t-29 -123zM377 1245q44 69 75 125t75 141t73 123q35 46 78 46q25 0 45 -15q28 -23 28 -57q0 -33 -28 -70q-30 -38 -89 -89.5t-113 -100.5t-122 -121z" />
<glyph unicode="&#xe2;" horiz-adv-x="1020" d="M80 215q0 78 38 133t107 96.5t185 90.5q20 8 98 40t112.5 64t34.5 70v127q0 119 -49.5 162.5t-140.5 43.5q-145 0 -203 -73q41 -10 68.5 -43.5t27.5 -81.5q0 -52 -32.5 -81.5t-87.5 -29.5q-52 0 -81.5 35t-29.5 92q0 80 96 146q50 33 123.5 55t163.5 22q84 0 148 -20.5 t100 -56.5q47 -48 64.5 -111.5t17.5 -175.5v-569q0 -51 14.5 -74t48.5 -23q25 0 46 11t46 32l23 -35q-36 -27 -60 -42t-55 -24t-72 -9q-99 0 -137.5 49.5t-38.5 132.5q-60 -99 -144 -140.5t-171 -41.5q-71 0 -130 24.5t-94.5 76t-35.5 128.5zM143 1290q117 58 208.5 153 t133.5 199h37q42 -104 133.5 -199t208.5 -153l-16 -28q-111 38 -216 93.5t-169 110.5q-52 -55 -134.5 -110.5t-168.5 -93.5zM260 248q0 -89 45 -134.5t119 -45.5q136 0 231 155v402q-15 -23 -50 -43t-146 -74q-59 -28 -100 -57.5t-70 -79.5t-29 -123z" />
<glyph unicode="&#xe3;" horiz-adv-x="1020" d="M80 215q0 78 38 133t107 96.5t185 90.5q20 8 98 40t112.5 64t34.5 70v127q0 119 -49.5 162.5t-140.5 43.5q-145 0 -203 -73q41 -10 68.5 -43.5t27.5 -81.5q0 -52 -32.5 -81.5t-87.5 -29.5q-52 0 -81.5 35t-29.5 92q0 80 96 146q50 33 123.5 55t163.5 22q84 0 148 -20.5 t100 -56.5q47 -48 64.5 -111.5t17.5 -175.5v-569q0 -51 14.5 -74t48.5 -23q25 0 46 11t46 32l23 -35q-36 -27 -60 -42t-55 -24t-72 -9q-99 0 -137.5 49.5t-38.5 132.5q-60 -99 -144 -140.5t-171 -41.5q-71 0 -130 24.5t-94.5 76t-35.5 128.5zM109 1362q31 108 95.5 159.5 t148.5 51.5q51 0 88 -18.5t101 -67.5t120 -49q93 0 158 108l29 -14q-31 -108 -95.5 -159.5t-146.5 -51.5q-53 0 -90.5 19t-101.5 68.5t-119 49.5q-91 0 -158 -110zM260 248q0 -89 45 -134.5t119 -45.5q136 0 231 155v402q-15 -23 -50 -43t-146 -74q-59 -28 -100 -57.5 t-70 -79.5t-29 -123z" />
<glyph unicode="&#xe4;" horiz-adv-x="1020" d="M80 215q0 78 38 133t107 96.5t185 90.5q20 8 98 40t112.5 64t34.5 70v127q0 119 -49.5 162.5t-140.5 43.5q-145 0 -203 -73q41 -10 68.5 -43.5t27.5 -81.5q0 -52 -32.5 -81.5t-87.5 -29.5q-52 0 -81.5 35t-29.5 92q0 80 96 146q50 33 123.5 55t163.5 22q84 0 148 -20.5 t100 -56.5q47 -48 64.5 -111.5t17.5 -175.5v-569q0 -51 14.5 -74t48.5 -23q25 0 46 11t46 32l23 -35q-36 -27 -60 -42t-55 -24t-72 -9q-99 0 -137.5 49.5t-38.5 132.5q-60 -99 -144 -140.5t-171 -41.5q-71 0 -130 24.5t-94.5 76t-35.5 128.5zM170 1403q0 31 16 58.5t43.5 44 t59.5 16.5q31 0 58.5 -16.5t44 -44t16.5 -58.5q0 -32 -16.5 -59.5t-43.5 -43.5t-59 -16q-49 0 -84 35t-35 84zM260 248q0 -89 45 -134.5t119 -45.5q136 0 231 155v402q-15 -23 -50 -43t-146 -74q-59 -28 -100 -57.5t-70 -79.5t-29 -123zM605 1403q0 31 16 58.5t43 44 t59 16.5q31 0 58.5 -16.5t44 -44t16.5 -58.5q0 -32 -16.5 -59.5t-43.5 -43.5t-59 -16q-49 0 -83.5 35t-34.5 84z" />
<glyph unicode="&#xe5;" horiz-adv-x="1020" d="M80 215q0 78 38 133t107 96.5t185 90.5q20 8 98 40t112.5 64t34.5 70v127q0 119 -49.5 162.5t-140.5 43.5q-145 0 -203 -73q41 -10 68.5 -43.5t27.5 -81.5q0 -52 -32.5 -81.5t-87.5 -29.5q-52 0 -81.5 35t-29.5 92q0 80 96 146q50 33 123.5 55t163.5 22q84 0 148 -20.5 t100 -56.5q47 -48 64.5 -111.5t17.5 -175.5v-569q0 -51 14.5 -74t48.5 -23q25 0 46 11t46 32l23 -35q-36 -27 -60 -42t-55 -24t-72 -9q-99 0 -137.5 49.5t-38.5 132.5q-60 -99 -144 -140.5t-171 -41.5q-71 0 -130 24.5t-94.5 76t-35.5 128.5zM260 248q0 -89 45 -134.5 t119 -45.5q136 0 231 155v402q-15 -23 -50 -43t-146 -74q-59 -28 -100 -57.5t-70 -79.5t-29 -123zM308 1434q0 55 27 97.5t72 65.5t97 23q54 0 99.5 -23t72.5 -65.5t27 -97.5q0 -57 -27 -100t-72.5 -66t-99.5 -23q-53 0 -97.5 23t-71.5 66t-27 100zM365 1432 q0 -46 20.5 -78.5t52.5 -49t66 -16.5q36 0 68.5 16.5t53 49t20.5 78.5q0 45 -20.5 78t-53.5 50t-68 17q-34 0 -66 -17t-52.5 -50t-20.5 -78z" />
<glyph unicode="&#xe6;" horiz-adv-x="1520" d="M84 197q0 83 38 142.5t105.5 102.5t175.5 90q21 9 100.5 43.5t112.5 65.5t33 68v127q0 206 -200 206q-57 0 -111 -16.5t-86 -56.5q40 -9 63 -36t23 -69q0 -50 -32.5 -80t-80.5 -30q-47 0 -77.5 30.5t-30.5 77.5q0 82 96 148q107 73 281 73q102 0 173.5 -29.5 t112.5 -100.5q107 130 289 130q174 0 268.5 -111.5t94.5 -338.5h-596q-7 -51 -7 -131q0 -135 40.5 -236t107 -155t141.5 -54q85 0 150 47.5t110 157.5l41 -16q-22 -72 -68.5 -134.5t-116.5 -101.5t-157 -39q-140 0 -236.5 67.5t-143.5 194.5q-115 -262 -351 -262 q-69 0 -128.5 23.5t-96.5 74t-37 128.5zM264 231q0 -94 46 -136t114 -42q142 0 225 170v402q-36 -42 -166 -105q-107 -52 -163 -118.5t-56 -170.5zM832 672h403q3 103 -15.5 187.5t-59 134.5t-99.5 50q-58 0 -106 -40t-80.5 -123.5t-42.5 -208.5z" />
<glyph unicode="&#xe7;" horiz-adv-x="995" d="M94 514q0 166 60.5 295.5t169.5 201.5t247 72t238 -65q96 -65 96 -158q0 -54 -30.5 -84.5t-77.5 -30.5q-48 0 -80.5 27.5t-32.5 75.5q0 44 24.5 73.5t61.5 39.5q-20 37 -73 61.5t-111 24.5q-75 0 -141 -48t-109 -160t-43 -294q0 -255 82 -370.5t213 -115.5q87 0 166.5 51 t130.5 160l39 -14q-23 -73 -71 -137.5t-125.5 -106t-180.5 -41.5q-128 0 -231 66t-162.5 189t-59.5 288zM333 -362l9 36q42 -6 77 -6q74 0 129.5 21.5t55.5 70.5q0 58 -86 58q-59 0 -101 -15l70 209h55l-53 -159q61 14 121 14q58 0 91.5 -25.5t33.5 -70.5q0 -54 -35.5 -89 t-88.5 -51t-108 -16q-105 0 -170 23z" />
<glyph unicode="&#xe8;" horiz-adv-x="1036" d="M94 502q0 178 57 309t161.5 201.5t244.5 70.5q184 0 283.5 -111.5t99.5 -338.5h-640q-7 -53 -7 -131q0 -135 44.5 -236t116.5 -155t152 -54q206 0 301 205l41 -16q-24 -72 -76.5 -134.5t-131 -101.5t-175.5 -39q-146 0 -252.5 66.5t-162.5 187t-56 277.5zM275 1608 q0 34 28 57q19 15 44 15q44 0 79 -46q29 -38 65 -107.5t70.5 -134t87.5 -147.5l-23 -18q-56 59 -102.5 102.5t-118.5 107t-102 101.5q-28 37 -28 70zM297 672h446q4 102 -17 187t-66 135t-111 50q-63 0 -116 -40.5t-89.5 -124t-46.5 -207.5z" />
<glyph unicode="&#xe9;" horiz-adv-x="1036" d="M94 502q0 178 57 309t161.5 201.5t244.5 70.5q184 0 283.5 -111.5t99.5 -338.5h-640q-7 -53 -7 -131q0 -135 44.5 -236t116.5 -155t152 -54q206 0 301 205l41 -16q-24 -72 -76.5 -134.5t-131 -101.5t-175.5 -39q-146 0 -252.5 66.5t-162.5 187t-56 277.5zM297 672h446 q4 102 -17 187t-66 135t-111 50q-63 0 -116 -40.5t-89.5 -124t-46.5 -207.5zM428 1245q44 69 75 125t75 141t73 123q35 46 78 46q25 0 45 -15q28 -23 28 -57q0 -33 -28 -70q-30 -38 -89 -89.5t-113 -100.5t-122 -121z" />
<glyph unicode="&#xea;" horiz-adv-x="1036" d="M94 502q0 178 57 309t161.5 201.5t244.5 70.5q184 0 283.5 -111.5t99.5 -338.5h-640q-7 -53 -7 -131q0 -135 44.5 -236t116.5 -155t152 -54q206 0 301 205l41 -16q-24 -72 -76.5 -134.5t-131 -101.5t-175.5 -39q-146 0 -252.5 66.5t-162.5 187t-56 277.5zM194 1290 q117 58 208.5 153t133.5 199h37q42 -104 133.5 -199t208.5 -153l-16 -28q-111 38 -216 93.5t-169 110.5q-52 -55 -134.5 -110.5t-168.5 -93.5zM297 672h446q4 102 -17 187t-66 135t-111 50q-63 0 -116 -40.5t-89.5 -124t-46.5 -207.5z" />
<glyph unicode="&#xeb;" horiz-adv-x="1036" d="M94 502q0 178 57 309t161.5 201.5t244.5 70.5q184 0 283.5 -111.5t99.5 -338.5h-640q-7 -53 -7 -131q0 -135 44.5 -236t116.5 -155t152 -54q206 0 301 205l41 -16q-24 -72 -76.5 -134.5t-131 -101.5t-175.5 -39q-146 0 -252.5 66.5t-162.5 187t-56 277.5zM221 1403 q0 31 16 58.5t43.5 44t59.5 16.5q31 0 58.5 -16.5t44 -44t16.5 -58.5q0 -32 -16.5 -59.5t-43.5 -43.5t-59 -16q-49 0 -84 35t-35 84zM297 672h446q4 102 -17 187t-66 135t-111 50q-63 0 -116 -40.5t-89.5 -124t-46.5 -207.5zM656 1403q0 31 16 58.5t43 44t59 16.5 q31 0 58.5 -16.5t44 -44t16.5 -58.5q0 -32 -16.5 -59.5t-43.5 -43.5t-59 -16q-49 0 -83.5 35t-34.5 84z" />
<glyph unicode="&#xec;" horiz-adv-x="600" d="M9 1608q0 34 28 57q19 15 44 15q44 0 79 -46q29 -38 65 -107.5t70.5 -134t87.5 -147.5l-23 -18q-56 59 -102.5 102.5t-118.5 107t-102 101.5q-28 37 -28 70zM59 0v43q58 0 91.5 13t49 45t15.5 89v641q0 95 -34.5 138t-121.5 43v43q64 -6 127 -6q130 0 213 28v-887 q0 -57 15.5 -89t49 -45t91.5 -13v-43q-188 8 -248 8t-248 -8z" />
<glyph unicode="&#xed;" horiz-adv-x="600" d="M59 0v43q58 0 91.5 13t49 45t15.5 89v641q0 95 -34.5 138t-121.5 43v43q64 -6 127 -6q130 0 213 28v-887q0 -57 15.5 -89t49 -45t91.5 -13v-43q-188 8 -248 8t-248 -8zM162 1245q44 69 75 125t75 141t73 123q35 46 78 46q25 0 45 -15q28 -23 28 -57q0 -33 -28 -70 q-30 -38 -89 -89.5t-113 -100.5t-122 -121z" />
<glyph unicode="&#xee;" horiz-adv-x="600" d="M-72 1290q117 58 208.5 153t133.5 199h37q42 -104 133.5 -199t208.5 -153l-16 -28q-111 38 -216 93.5t-169 110.5q-52 -55 -134.5 -110.5t-168.5 -93.5zM59 0v43q58 0 91.5 13t49 45t15.5 89v641q0 95 -34.5 138t-121.5 43v43q64 -6 127 -6q130 0 213 28v-887 q0 -57 15.5 -89t49 -45t91.5 -13v-43q-188 8 -248 8t-248 -8z" />
<glyph unicode="&#xef;" horiz-adv-x="600" d="M-45 1403q0 31 16 58.5t43.5 44t59.5 16.5q31 0 58.5 -16.5t44 -44t16.5 -58.5q0 -32 -16.5 -59.5t-43.5 -43.5t-59 -16q-49 0 -84 35t-35 84zM59 0v43q58 0 91.5 13t49 45t15.5 89v641q0 95 -34.5 138t-121.5 43v43q64 -6 127 -6q130 0 213 28v-887q0 -57 15.5 -89 t49 -45t91.5 -13v-43q-188 8 -248 8t-248 -8zM390 1403q0 31 16 58.5t43 44t59 16.5q31 0 58.5 -16.5t44 -44t16.5 -58.5q0 -32 -16.5 -59.5t-43.5 -43.5t-59 -16q-49 0 -83.5 35t-34.5 84z" />
<glyph unicode="&#xf0;" horiz-adv-x="1135" d="M94 522q0 141 52 270t153 210t242 81q166 0 245 -106q-59 243 -218 396l-369 -181l-19 37l356 173q-100 86 -270 165l17 35q183 -72 319 -168l289 141l18 -37l-270 -131q381 -289 381 -789q0 -211 -65 -357t-171 -218t-231 -72q-136 0 -239.5 62.5t-161.5 186t-58 302.5z M293 518q0 -176 33.5 -289t90 -165t126.5 -52q123 0 202.5 140t79.5 466q0 68 -4 131q-20 168 -93 229.5t-173 61.5q-119 0 -190.5 -124t-71.5 -398z" />
<glyph unicode="&#xf1;" horiz-adv-x="1223" d="M59 0v43q58 0 91.5 13t49 45t15.5 89v641q0 95 -34.5 138t-121.5 43v43q64 -6 127 -6q130 0 213 28v-241q51 130 142.5 188.5t206.5 58.5q143 0 217 -77q38 -42 54.5 -103.5t16.5 -165.5v-547q0 -57 15.5 -89t49 -45t91.5 -13v-43q-188 8 -246 8q-57 0 -229 -8v43 q51 0 79.5 13t42 45t13.5 89v592q0 74 -11.5 124t-48 81t-106.5 31q-84 0 -149.5 -49t-101.5 -134.5t-36 -189.5v-455q0 -57 13.5 -89t42.5 -45t80 -13v-43q-172 8 -230 8t-246 -8zM232 1362q31 108 95.5 159.5t148.5 51.5q51 0 88 -18.5t101 -67.5t120 -49q93 0 158 108 l29 -14q-31 -108 -95.5 -159.5t-146.5 -51.5q-53 0 -90.5 19t-101.5 68.5t-119 49.5q-91 0 -158 -110z" />
<glyph unicode="&#xf2;" horiz-adv-x="1122" d="M96 526q0 190 60.5 314.5t165 183.5t239.5 59t239.5 -59t165 -183.5t60.5 -314.5t-60.5 -314t-165 -182.5t-239.5 -58.5t-239.5 58.5t-165 182.5t-60.5 314zM287 1608q0 34 28 57q19 15 44 15q44 0 79 -46q29 -38 65 -107.5t70.5 -134t87.5 -147.5l-23 -18 q-56 59 -102.5 102.5t-118.5 107t-102 101.5q-28 37 -28 70zM295 526q0 -263 71.5 -388.5t194.5 -125.5t194.5 125.5t71.5 388.5q0 264 -71.5 390t-194.5 126t-194.5 -126t-71.5 -390z" />
<glyph unicode="&#xf3;" horiz-adv-x="1122" d="M96 526q0 190 60.5 314.5t165 183.5t239.5 59t239.5 -59t165 -183.5t60.5 -314.5t-60.5 -314t-165 -182.5t-239.5 -58.5t-239.5 58.5t-165 182.5t-60.5 314zM295 526q0 -263 71.5 -388.5t194.5 -125.5t194.5 125.5t71.5 388.5q0 264 -71.5 390t-194.5 126t-194.5 -126 t-71.5 -390zM440 1245q44 69 75 125t75 141t73 123q35 46 78 46q25 0 45 -15q28 -23 28 -57q0 -33 -28 -70q-30 -38 -89 -89.5t-113 -100.5t-122 -121z" />
<glyph unicode="&#xf4;" horiz-adv-x="1122" d="M96 526q0 190 60.5 314.5t165 183.5t239.5 59t239.5 -59t165 -183.5t60.5 -314.5t-60.5 -314t-165 -182.5t-239.5 -58.5t-239.5 58.5t-165 182.5t-60.5 314zM206 1290q117 58 208.5 153t133.5 199h37q42 -104 133.5 -199t208.5 -153l-16 -28q-111 38 -216 93.5 t-169 110.5q-52 -55 -134.5 -110.5t-168.5 -93.5zM295 526q0 -263 71.5 -388.5t194.5 -125.5t194.5 125.5t71.5 388.5q0 264 -71.5 390t-194.5 126t-194.5 -126t-71.5 -390z" />
<glyph unicode="&#xf5;" horiz-adv-x="1122" d="M96 526q0 190 60.5 314.5t165 183.5t239.5 59t239.5 -59t165 -183.5t60.5 -314.5t-60.5 -314t-165 -182.5t-239.5 -58.5t-239.5 58.5t-165 182.5t-60.5 314zM172 1362q31 108 95.5 159.5t148.5 51.5q51 0 88 -18.5t101 -67.5t120 -49q93 0 158 108l29 -14 q-31 -108 -95.5 -159.5t-146.5 -51.5q-53 0 -90.5 19t-101.5 68.5t-119 49.5q-91 0 -158 -110zM295 526q0 -263 71.5 -388.5t194.5 -125.5t194.5 125.5t71.5 388.5q0 264 -71.5 390t-194.5 126t-194.5 -126t-71.5 -390z" />
<glyph unicode="&#xf6;" horiz-adv-x="1122" d="M96 526q0 190 60.5 314.5t165 183.5t239.5 59t239.5 -59t165 -183.5t60.5 -314.5t-60.5 -314t-165 -182.5t-239.5 -58.5t-239.5 58.5t-165 182.5t-60.5 314zM233 1403q0 31 16 58.5t43.5 44t59.5 16.5q31 0 58.5 -16.5t44 -44t16.5 -58.5q0 -32 -16.5 -59.5t-43.5 -43.5 t-59 -16q-49 0 -84 35t-35 84zM295 526q0 -263 71.5 -388.5t194.5 -125.5t194.5 125.5t71.5 388.5q0 264 -71.5 390t-194.5 126t-194.5 -126t-71.5 -390zM668 1403q0 31 16 58.5t43 44t59 16.5q31 0 58.5 -16.5t44 -44t16.5 -58.5q0 -32 -16.5 -59.5t-43.5 -43.5t-59 -16 q-49 0 -83.5 35t-34.5 84z" />
<glyph unicode="&#xf7;" horiz-adv-x="1329" d="M150 696v62h1026v-62h-1026zM551 432q0 47 33.5 80t79.5 33q47 0 80.5 -33t33.5 -80t-33.5 -81t-80.5 -34q-46 0 -79.5 34t-33.5 81zM551 1022q0 46 33.5 79.5t79.5 33.5q47 0 80.5 -33.5t33.5 -79.5q0 -48 -33 -80.5t-81 -32.5q-47 0 -80 32.5t-33 80.5z" />
<glyph unicode="&#xf8;" horiz-adv-x="1120" d="M90 -121l148 215q-142 145 -142 432q0 190 60.5 314.5t165 183.5t239.5 59q174 0 289 -93l145 212l39 -26l-148 -219q140 -145 140 -431q0 -190 -60.5 -314t-165 -182.5t-239.5 -58.5q-170 0 -285 89l-143 -210zM295 526q0 -192 41 -315l431 683q-68 148 -206 148 q-123 0 -194.5 -126t-71.5 -390zM359 153q68 -141 202 -141q123 0 194.5 125.5t71.5 388.5q0 189 -39 311z" />
<glyph unicode="&#xf9;" d="M33 1012v43q64 -6 127 -6q129 0 213 28v-805q0 -78 9 -126t43 -78.5t103 -30.5q79 0 142 49t99 134t36 188v423q0 95 -34.5 138t-121.5 43v43q64 -6 127 -6q130 0 213 28v-856q0 -95 34.5 -137.5t121.5 -42.5v-43q-64 6 -127 6q-132 0 -213 -29v242q-50 -126 -139.5 -186 t-196.5 -60q-138 0 -213 78q-37 40 -52.5 104t-15.5 164v514q0 95 -34 138t-121 43zM293 1608q0 34 28 57q19 15 44 15q44 0 79 -46q29 -38 65 -107.5t70.5 -134t87.5 -147.5l-23 -18q-56 59 -102.5 102.5t-118.5 107t-102 101.5q-28 37 -28 70z" />
<glyph unicode="&#xfa;" d="M33 1012v43q64 -6 127 -6q129 0 213 28v-805q0 -78 9 -126t43 -78.5t103 -30.5q79 0 142 49t99 134t36 188v423q0 95 -34.5 138t-121.5 43v43q64 -6 127 -6q130 0 213 28v-856q0 -95 34.5 -137.5t121.5 -42.5v-43q-64 6 -127 6q-132 0 -213 -29v242q-50 -126 -139.5 -186 t-196.5 -60q-138 0 -213 78q-37 40 -52.5 104t-15.5 164v514q0 95 -34 138t-121 43zM446 1245q44 69 75 125t75 141t73 123q35 46 78 46q25 0 45 -15q28 -23 28 -57q0 -33 -28 -70q-30 -38 -89 -89.5t-113 -100.5t-122 -121z" />
<glyph unicode="&#xfb;" d="M33 1012v43q64 -6 127 -6q129 0 213 28v-805q0 -78 9 -126t43 -78.5t103 -30.5q79 0 142 49t99 134t36 188v423q0 95 -34.5 138t-121.5 43v43q64 -6 127 -6q130 0 213 28v-856q0 -95 34.5 -137.5t121.5 -42.5v-43q-64 6 -127 6q-132 0 -213 -29v242q-50 -126 -139.5 -186 t-196.5 -60q-138 0 -213 78q-37 40 -52.5 104t-15.5 164v514q0 95 -34 138t-121 43zM212 1290q117 58 208.5 153t133.5 199h37q42 -104 133.5 -199t208.5 -153l-16 -28q-111 38 -216 93.5t-169 110.5q-52 -55 -134.5 -110.5t-168.5 -93.5z" />
<glyph unicode="&#xfc;" d="M33 1012v43q64 -6 127 -6q129 0 213 28v-805q0 -78 9 -126t43 -78.5t103 -30.5q79 0 142 49t99 134t36 188v423q0 95 -34.5 138t-121.5 43v43q64 -6 127 -6q130 0 213 28v-856q0 -95 34.5 -137.5t121.5 -42.5v-43q-64 6 -127 6q-132 0 -213 -29v242q-50 -126 -139.5 -186 t-196.5 -60q-138 0 -213 78q-37 40 -52.5 104t-15.5 164v514q0 95 -34 138t-121 43zM239 1403q0 31 16 58.5t43.5 44t59.5 16.5q31 0 58.5 -16.5t44 -44t16.5 -58.5q0 -32 -16.5 -59.5t-43.5 -43.5t-59 -16q-49 0 -84 35t-35 84zM674 1403q0 31 16 58.5t43 44t59 16.5 q31 0 58.5 -16.5t44 -44t16.5 -58.5q0 -32 -16.5 -59.5t-43.5 -43.5t-59 -16q-49 0 -83.5 35t-34.5 84z" />
<glyph unicode="&#xfd;" horiz-adv-x="1032" d="M-8 1012v43q96 -13 201 -13q88 0 266 13v-43q-50 0 -78 -3.5t-46.5 -19t-18.5 -48.5q0 -37 26 -101l247 -612l226 593q22 60 22 94q0 48 -36.5 71t-116.5 28v41q108 -6 172 -6q91 0 156 6v-41q-41 -5 -73 -37t-60 -107l-336 -880l-70 -178q-39 -101 -88 -144 q-58 -53 -160 -53q-61 0 -100 32.5t-39 90.5q0 49 29 78.5t80 29.5q45 0 74.5 -25t29.5 -71q0 -61 -55 -92q4 -2 12 -2q113 0 174 160l73 187l-372 894q-35 71 -69.5 93t-69.5 22zM393 1245q44 69 75 125t75 141t73 123q35 46 78 46q25 0 45 -15q28 -23 28 -57 q0 -33 -28 -70q-30 -38 -89 -89.5t-113 -100.5t-122 -121z" />
<glyph unicode="&#xfe;" horiz-adv-x="1145" d="M0 1538v43q65 -6 127 -6q132 0 213 29v-743q46 106 132 164t196 58q109 0 195.5 -59t136 -174t49.5 -275q0 -157 -50 -294.5t-155.5 -223.5t-263.5 -86q-78 0 -141.5 30.5t-98.5 80.5v-262q0 -83 49 -115.5t148 -32.5v-43q-26 1 -117 5t-178 4q-65 0 -134.5 -4t-87.5 -5 v43q51 0 80 11.5t42.5 39t13.5 76.5v1559q0 95 -34.5 137.5t-121.5 42.5zM340 150q30 -61 84.5 -96.5t132.5 -35.5q293 0 293 529q0 475 -238 475q-93 0 -166.5 -66.5t-105.5 -192.5v-613z" />
<glyph unicode="&#xff;" horiz-adv-x="1032" d="M-8 1012v43q96 -13 201 -13q88 0 266 13v-43q-50 0 -78 -3.5t-46.5 -19t-18.5 -48.5q0 -37 26 -101l247 -612l226 593q22 60 22 94q0 48 -36.5 71t-116.5 28v41q108 -6 172 -6q91 0 156 6v-41q-41 -5 -73 -37t-60 -107l-336 -880l-70 -178q-39 -101 -88 -144 q-58 -53 -160 -53q-61 0 -100 32.5t-39 90.5q0 49 29 78.5t80 29.5q45 0 74.5 -25t29.5 -71q0 -61 -55 -92q4 -2 12 -2q113 0 174 160l73 187l-372 894q-35 71 -69.5 93t-69.5 22zM186 1403q0 31 16 58.5t43.5 44t59.5 16.5q31 0 58.5 -16.5t44 -44t16.5 -58.5 q0 -32 -16.5 -59.5t-43.5 -43.5t-59 -16q-49 0 -84 35t-35 84zM621 1403q0 31 16 58.5t43 44t59 16.5q31 0 58.5 -16.5t44 -44t16.5 -58.5q0 -32 -16.5 -59.5t-43.5 -43.5t-59 -16q-49 0 -83.5 35t-34.5 84z" />
<glyph unicode="&#x100;" horiz-adv-x="1290" d="M-14 0v41q102 23 161 178l482 1241h33l499 -1288q50 -127 142 -131v-41q-84 6 -220 6q-175 0 -262 -6v41q78 3 111.5 19t33.5 57q0 35 -24 96l-126 336h-494l-84 -217q-41 -104 -41 -168q0 -65 43.5 -93t134.5 -30v-41q-117 6 -236 6q-92 0 -153 -6zM272 1677v52h721v-52 h-721zM337 590h464l-229 611z" />
<glyph unicode="&#x101;" horiz-adv-x="1020" d="M80 215q0 78 38 133t107 96.5t185 90.5q20 8 98 40t112.5 64t34.5 70v127q0 119 -49.5 162.5t-140.5 43.5q-145 0 -203 -73q41 -10 68.5 -43.5t27.5 -81.5q0 -52 -32.5 -81.5t-87.5 -29.5q-52 0 -81.5 35t-29.5 92q0 80 96 146q50 33 123.5 55t163.5 22q84 0 148 -20.5 t100 -56.5q47 -48 64.5 -111.5t17.5 -175.5v-569q0 -51 14.5 -74t48.5 -23q25 0 46 11t46 32l23 -35q-36 -27 -60 -42t-55 -24t-72 -9q-99 0 -137.5 49.5t-38.5 132.5q-60 -99 -144 -140.5t-171 -41.5q-71 0 -130 24.5t-94.5 76t-35.5 128.5zM178 1407v51h639v-51h-639z M260 248q0 -89 45 -134.5t119 -45.5q136 0 231 155v402q-15 -23 -50 -43t-146 -74q-59 -28 -100 -57.5t-70 -79.5t-29 -123z" />
<glyph unicode="&#x102;" horiz-adv-x="1290" d="M-14 0v41q102 23 161 178l482 1241h33l499 -1288q50 -127 142 -131v-41q-84 6 -220 6q-175 0 -262 -6v41q78 3 111.5 19t33.5 57q0 35 -24 96l-126 336h-494l-84 -217q-41 -104 -41 -168q0 -65 43.5 -93t134.5 -30v-41q-117 6 -236 6q-92 0 -153 -6zM225 1839l27 21 q56 -55 151 -93t230 -38q134 0 230 38.5t153 94.5l24 -23q-59 -97 -162 -167t-245 -70t-245 70t-163 167zM337 590h464l-229 611z" />
<glyph unicode="&#x103;" horiz-adv-x="1020" d="M80 215q0 78 38 133t107 96.5t185 90.5q20 8 98 40t112.5 64t34.5 70v127q0 119 -49.5 162.5t-140.5 43.5q-145 0 -203 -73q41 -10 68.5 -43.5t27.5 -81.5q0 -52 -32.5 -81.5t-87.5 -29.5q-52 0 -81.5 35t-29.5 92q0 80 96 146q50 33 123.5 55t163.5 22q84 0 148 -20.5 t100 -56.5q47 -48 64.5 -111.5t17.5 -175.5v-569q0 -51 14.5 -74t48.5 -23q25 0 46 11t46 32l23 -35q-36 -27 -60 -42t-55 -24t-72 -9q-99 0 -137.5 49.5t-38.5 132.5q-60 -99 -144 -140.5t-171 -41.5q-71 0 -130 24.5t-94.5 76t-35.5 128.5zM136 1595l34 19 q120 -197 332 -197q120 0 201 56.5t131 140.5l35 -19q-51 -122 -144.5 -210.5t-222.5 -88.5q-128 0 -221.5 88.5t-144.5 210.5zM260 248q0 -89 45 -134.5t119 -45.5q136 0 231 155v402q-15 -23 -50 -43t-146 -74q-59 -28 -100 -57.5t-70 -79.5t-29 -123z" />
<glyph unicode="&#x104;" horiz-adv-x="1290" d="M-14 0v41q102 23 161 178l482 1241h33l499 -1288q50 -127 142 -131v-41q-84 6 -220 6q-175 0 -262 -6v41q78 3 111.5 19t33.5 57q0 35 -24 96l-126 336h-494l-84 -217q-41 -104 -41 -168q0 -65 43.5 -93t134.5 -30v-41q-117 6 -236 6q-92 0 -153 -6zM337 590h464 l-229 611zM917 -252q0 80 73.5 147t209.5 111h78q-111 -30 -161 -86t-50 -117q0 -41 23.5 -65.5t64.5 -24.5q37 0 70.5 19.5t54.5 48.5l30 -27q-91 -139 -231 -139q-73 0 -117.5 36.5t-44.5 96.5z" />
<glyph unicode="&#x105;" horiz-adv-x="1020" d="M80 215q0 78 38 133t107 96.5t185 90.5q20 8 98 40t112.5 64t34.5 70v127q0 119 -49.5 162.5t-140.5 43.5q-145 0 -203 -73q41 -10 68.5 -43.5t27.5 -81.5q0 -52 -32.5 -81.5t-87.5 -29.5q-52 0 -81.5 35t-29.5 92q0 80 96 146q50 33 123.5 55t163.5 22q84 0 148 -20.5 t100 -56.5q47 -48 64.5 -111.5t17.5 -175.5v-569q0 -51 14.5 -74t48.5 -23q25 0 46 11t46 32l23 -35q-36 -27 -60 -42t-55 -24t-72 -9q-99 0 -137.5 49.5t-38.5 132.5q-60 -99 -144 -140.5t-171 -41.5q-71 0 -130 24.5t-94.5 76t-35.5 128.5zM260 248q0 -89 45 -134.5 t119 -45.5q136 0 231 155v402q-15 -23 -50 -43t-146 -74q-59 -28 -100 -57.5t-70 -79.5t-29 -123zM582 -252q0 80 73.5 147t209.5 111h65q-5 -5 -20 -10q-178 -76 -178 -193q0 -41 23.5 -65.5t64.5 -24.5q37 0 70.5 19.5t54.5 48.5l30 -27q-91 -139 -231 -139 q-73 0 -117.5 36.5t-44.5 96.5z" />
<glyph unicode="&#x106;" horiz-adv-x="1409" d="M109 713q0 226 83 400t231 270t337 96q122 0 208.5 -35t168.5 -98q22 -18 40 -18q42 0 52 122h47q-8 -133 -8 -471h-47q-15 92 -27.5 143t-29.5 86.5t-46 73.5q-62 80 -157 120t-205 40q-133 0 -233 -88t-155 -251t-55 -382q0 -223 60 -383t165 -243t238 -83 q102 0 199 39t151 117q42 56 60 121.5t35 202.5h47q0 -353 8 -492h-47q-5 64 -16.5 92.5t-33.5 28.5q-16 0 -42 -17q-61 -43 -112.5 -70.5t-117.5 -45t-149 -17.5q-195 0 -341.5 88t-227 255.5t-80.5 398.5zM620 1608q65 50 113.5 91.5t119 106t111.5 90.5q31 20 62 20 q40 0 63 -34q11 -19 11 -38q0 -45 -54 -81q-41 -25 -113.5 -53t-141 -56t-157.5 -73z" />
<glyph unicode="&#x107;" horiz-adv-x="995" d="M94 514q0 166 60.5 295.5t169.5 201.5t247 72t238 -65q96 -65 96 -158q0 -54 -30.5 -84.5t-77.5 -30.5q-48 0 -80.5 27.5t-32.5 75.5q0 44 24.5 73.5t61.5 39.5q-20 37 -73 61.5t-111 24.5q-75 0 -141 -48t-109 -160t-43 -294q0 -255 82 -370.5t213 -115.5q87 0 166.5 51 t130.5 160l39 -14q-23 -73 -71 -137.5t-125.5 -106t-180.5 -41.5q-128 0 -231 66t-162.5 189t-59.5 288zM412 1245q44 69 75 125t75 141t73 123q35 46 78 46q25 0 45 -15q28 -23 28 -57q0 -33 -28 -70q-30 -38 -89 -89.5t-113 -100.5t-122 -121z" />
<glyph unicode="&#x108;" horiz-adv-x="1409" d="M109 713q0 226 83 400t231 270t337 96q122 0 208.5 -35t168.5 -98q22 -18 40 -18q42 0 52 122h47q-8 -133 -8 -471h-47q-15 92 -27.5 143t-29.5 86.5t-46 73.5q-62 80 -157 120t-205 40q-133 0 -233 -88t-155 -251t-55 -382q0 -223 60 -383t165 -243t238 -83 q102 0 199 39t151 117q42 56 60 121.5t35 202.5h47q0 -353 8 -492h-47q-5 64 -16.5 92.5t-33.5 28.5q-16 0 -42 -17q-61 -43 -112.5 -70.5t-117.5 -45t-149 -17.5q-195 0 -341.5 88t-227 255.5t-80.5 398.5zM344 1606q131 45 232.5 117.5t150.5 152.5h37 q48 -80 149.5 -152.5t233.5 -117.5l-11 -29q-124 26 -243 65.5t-189 77.5q-58 -38 -154.5 -77.5t-195.5 -65.5z" />
<glyph unicode="&#x109;" horiz-adv-x="995" d="M94 514q0 166 60.5 295.5t169.5 201.5t247 72t238 -65q96 -65 96 -158q0 -54 -30.5 -84.5t-77.5 -30.5q-48 0 -80.5 27.5t-32.5 75.5q0 44 24.5 73.5t61.5 39.5q-20 37 -73 61.5t-111 24.5q-75 0 -141 -48t-109 -160t-43 -294q0 -255 82 -370.5t213 -115.5q87 0 166.5 51 t130.5 160l39 -14q-23 -73 -71 -137.5t-125.5 -106t-180.5 -41.5q-128 0 -231 66t-162.5 189t-59.5 288zM178 1290q117 58 208.5 153t133.5 199h37q42 -104 133.5 -199t208.5 -153l-16 -28q-111 38 -216 93.5t-169 110.5q-52 -55 -134.5 -110.5t-168.5 -93.5z" />
<glyph unicode="&#x10a;" horiz-adv-x="1409" d="M109 713q0 226 83 400t231 270t337 96q122 0 208.5 -35t168.5 -98q22 -18 40 -18q42 0 52 122h47q-8 -133 -8 -471h-47q-15 92 -27.5 143t-29.5 86.5t-46 73.5q-62 80 -157 120t-205 40q-133 0 -233 -88t-155 -251t-55 -382q0 -223 60 -383t165 -243t238 -83 q102 0 199 39t151 117q42 56 60 121.5t35 202.5h47q0 -353 8 -492h-47q-5 64 -16.5 92.5t-33.5 28.5q-16 0 -42 -17q-61 -43 -112.5 -70.5t-117.5 -45t-149 -17.5q-195 0 -341.5 88t-227 255.5t-80.5 398.5zM641 1712q0 35 17.5 65.5t48 48t65.5 17.5t65 -17.5t48 -48 t18 -65.5t-18 -65.5t-48 -48t-65 -17.5t-65.5 17.5t-48 48t-17.5 65.5z" />
<glyph unicode="&#x10b;" horiz-adv-x="995" d="M94 514q0 166 60.5 295.5t169.5 201.5t247 72t238 -65q96 -65 96 -158q0 -54 -30.5 -84.5t-77.5 -30.5q-48 0 -80.5 27.5t-32.5 75.5q0 44 24.5 73.5t61.5 39.5q-20 37 -73 61.5t-111 24.5q-75 0 -141 -48t-109 -160t-43 -294q0 -255 82 -370.5t213 -115.5q87 0 166.5 51 t130.5 160l39 -14q-23 -73 -71 -137.5t-125.5 -106t-180.5 -41.5q-128 0 -231 66t-162.5 189t-59.5 288zM437 1436q0 35 17.5 65t48 48t65.5 18t65 -18t48 -48t18 -65t-18 -65.5t-48 -48t-65 -17.5t-65.5 17.5t-48 48t-17.5 65.5z" />
<glyph unicode="&#x10c;" horiz-adv-x="1409" d="M109 713q0 226 83 400t231 270t337 96q122 0 208.5 -35t168.5 -98q22 -18 40 -18q42 0 52 122h47q-8 -133 -8 -471h-47q-15 92 -27.5 143t-29.5 86.5t-46 73.5q-62 80 -157 120t-205 40q-133 0 -233 -88t-155 -251t-55 -382q0 -223 60 -383t165 -243t238 -83 q102 0 199 39t151 117q42 56 60 121.5t35 202.5h47q0 -353 8 -492h-47q-5 64 -16.5 92.5t-33.5 28.5q-16 0 -42 -17q-61 -43 -112.5 -70.5t-117.5 -45t-149 -17.5q-195 0 -341.5 88t-227 255.5t-80.5 398.5zM338 1868l10 28q122 -25 241.5 -65t190.5 -78q59 38 155.5 78 t194.5 65l11 -28q-132 -46 -233.5 -118.5t-149.5 -152.5h-37q-49 80 -150.5 152.5t-232.5 118.5z" />
<glyph unicode="&#x10d;" horiz-adv-x="995" d="M94 514q0 166 60.5 295.5t169.5 201.5t247 72t238 -65q96 -65 96 -158q0 -54 -30.5 -84.5t-77.5 -30.5q-48 0 -80.5 27.5t-32.5 75.5q0 44 24.5 73.5t61.5 39.5q-20 37 -73 61.5t-111 24.5q-75 0 -141 -48t-109 -160t-43 -294q0 -255 82 -370.5t213 -115.5q87 0 166.5 51 t130.5 160l39 -14q-23 -73 -71 -137.5t-125.5 -106t-180.5 -41.5q-128 0 -231 66t-162.5 189t-59.5 288zM158 1614l17 28q111 -38 216 -94t169 -110q52 55 134.5 110.5t168.5 93.5l16 -28q-117 -58 -208.5 -153t-133.5 -199h-37q-42 104 -133.5 199t-208.5 153z" />
<glyph unicode="&#x10e;" horiz-adv-x="1481" d="M86 0v41q74 3 107.5 16t46 48t12.5 112v1016q0 77 -12.5 112t-46 48t-107.5 16v41q110 -7 200 -7l50 1q282 6 309 6q362 0 542.5 -181t180.5 -528q0 -223 -87.5 -390.5t-254.5 -259t-399 -91.5q-28 0 -133.5 3t-153.5 3q-168 0 -254 -6zM238 1868l10 28 q122 -25 241.5 -65t190.5 -78q59 38 155.5 78t194.5 65l11 -28q-132 -46 -233.5 -118.5t-149.5 -152.5h-37q-49 80 -150.5 152.5t-232.5 118.5zM442 213q0 -74 12 -110.5t44.5 -51t97.5 -14.5q218 0 342 79t174.5 230.5t50.5 386.5q0 236 -55 384.5t-179.5 222t-334.5 73.5 q-64 0 -96 -14.5t-44 -51.5t-12 -110v-1024z" />
<glyph unicode="&#x10f;" d="M98 526q-1 179 62 305t168.5 189t232.5 63q78 0 143.5 -29.5t102.5 -91.5v398q0 95 -34.5 137.5t-121.5 42.5v43q65 -6 127 -6q132 0 213 29v-1383q0 -95 34.5 -137.5t121.5 -42.5v-43q-65 6 -127 6q-132 0 -213 -29v182q-38 -92 -111.5 -140t-179.5 -48q-130 0 -224 62 t-144.5 186t-49.5 307zM297 526q-1 -246 69.5 -369.5t208.5 -123.5q53 0 100 27t82 80.5t50 128.5v609q-57 158 -229 158q-83 0 -146.5 -56.5t-99.5 -171t-35 -282.5zM1112 1161q41 237 41 297q0 43 -8.5 62.5t-32.5 19.5v43q12 -1 33 -1q61 0 122 24q4 -11 7.5 -38t3.5 -46 q0 -54 -30.5 -131.5t-107.5 -237.5z" />
<glyph unicode="&#x110;" horiz-adv-x="1483" d="M88 0v41q74 3 107.5 16t46 48t12.5 112v492h-166v41h166v483q0 77 -12.5 112t-46 48t-107.5 16v41q110 -7 200 -7l50 1q282 6 309 6q362 0 542.5 -181t180.5 -528q0 -223 -87.5 -390.5t-254.5 -259t-399 -91.5q-28 0 -133.5 3t-153.5 3q-168 0 -254 -6zM444 213 q0 -74 12 -110.5t44.5 -51t97.5 -14.5q218 0 342 79t174.5 230.5t50.5 386.5q0 236 -55 384.5t-179.5 222t-334.5 73.5q-64 0 -96 -14.5t-44 -51.5t-12 -110v-487h285v-41h-285v-496z" />
<glyph unicode="&#x111;" d="M98 526q-1 179 62 305t168.5 189t232.5 63q78 0 143 -29.5t103 -91.5v283h-365v41h365v74q0 95 -34.5 137.5t-121.5 42.5v43q65 -6 127 -6q132 0 213 29v-320h176v-41h-176v-1022q0 -95 34.5 -137.5t121.5 -42.5v-43q-64 6 -127 6q-132 0 -213 -29v182 q-38 -92 -111.5 -140t-179.5 -48q-130 0 -224 62t-144.5 186t-49.5 307zM297 526q-1 -246 69.5 -369.5t208.5 -123.5q52 0 99.5 27t82 80.5t50.5 128.5v609q-57 158 -229 158q-83 0 -146.5 -56.5t-99.5 -171t-35 -282.5z" />
<glyph unicode="&#x112;" horiz-adv-x="1247" d="M86 0v41q74 3 107.5 16t46 48t12.5 112v1016q0 77 -12.5 112t-46 48t-107.5 16v41q201 -6 594 -6q301 0 428 6q-14 -134 -14 -242q0 -80 6 -127h-47q-15 133 -37.5 198t-76 94.5t-161.5 29.5h-170q-74 0 -107.5 -12t-46 -46.5t-12.5 -111.5v-483h136q103 0 137 61.5 t42 125.5t11 83h47q-7 -101 -7 -193l1 -98q0 -104 12 -291h-47q-2 14 -11.5 99t-55.5 128.5t-129 43.5h-136v-492q0 -77 12.5 -111.5t46 -46.5t107.5 -12h150q128 0 194.5 34t96 109t45.5 220h47q-6 -55 -6 -148q0 -116 14 -262q-139 6 -469 6q-393 0 -594 -6zM266 1677v52 h721v-52h-721z" />
<glyph unicode="&#x113;" horiz-adv-x="1036" d="M94 502q0 178 57 309t161.5 201.5t244.5 70.5q184 0 283.5 -111.5t99.5 -338.5h-640q-7 -53 -7 -131q0 -135 44.5 -236t116.5 -155t152 -54q206 0 301 205l41 -16q-24 -72 -76.5 -134.5t-131 -101.5t-175.5 -39q-146 0 -252.5 66.5t-162.5 187t-56 277.5zM229 1407v51 h639v-51h-639zM297 672h446q4 102 -17 187t-66 135t-111 50q-63 0 -116 -40.5t-89.5 -124t-46.5 -207.5z" />
<glyph unicode="&#x114;" horiz-adv-x="1247" d="M86 0v41q74 3 107.5 16t46 48t12.5 112v1016q0 77 -12.5 112t-46 48t-107.5 16v41q201 -6 594 -6q301 0 428 6q-14 -134 -14 -242q0 -80 6 -127h-47q-15 133 -37.5 198t-76 94.5t-161.5 29.5h-170q-74 0 -107.5 -12t-46 -46.5t-12.5 -111.5v-483h136q103 0 137 61.5 t42 125.5t11 83h47q-7 -101 -7 -193l1 -98q0 -104 12 -291h-47q-2 14 -11.5 99t-55.5 128.5t-129 43.5h-136v-492q0 -77 12.5 -111.5t46 -46.5t107.5 -12h150q128 0 194.5 34t96 109t45.5 220h47q-6 -55 -6 -148q0 -116 14 -262q-139 6 -469 6q-393 0 -594 -6zM219 1839 l27 21q56 -55 151 -93t230 -38q134 0 230 38.5t153 94.5l24 -23q-59 -97 -162 -167t-245 -70t-245 70t-163 167z" />
<glyph unicode="&#x115;" horiz-adv-x="1036" d="M94 502q0 178 57 309t161.5 201.5t244.5 70.5q184 0 283.5 -111.5t99.5 -338.5h-640q-7 -53 -7 -131q0 -135 44.5 -236t116.5 -155t152 -54q206 0 301 205l41 -16q-24 -72 -76.5 -134.5t-131 -101.5t-175.5 -39q-146 0 -252.5 66.5t-162.5 187t-56 277.5zM187 1595l34 19 q120 -197 332 -197q120 0 201 56.5t131 140.5l35 -19q-51 -122 -144.5 -210.5t-222.5 -88.5q-128 0 -221.5 88.5t-144.5 210.5zM297 672h446q4 102 -17 187t-66 135t-111 50q-63 0 -116 -40.5t-89.5 -124t-46.5 -207.5z" />
<glyph unicode="&#x116;" horiz-adv-x="1247" d="M86 0v41q74 3 107.5 16t46 48t12.5 112v1016q0 77 -12.5 112t-46 48t-107.5 16v41q201 -6 594 -6q301 0 428 6q-14 -134 -14 -242q0 -80 6 -127h-47q-15 133 -37.5 198t-76 94.5t-161.5 29.5h-170q-74 0 -107.5 -12t-46 -46.5t-12.5 -111.5v-483h136q103 0 137 61.5 t42 125.5t11 83h47q-7 -101 -7 -193l1 -98q0 -104 12 -291h-47q-2 14 -11.5 99t-55.5 128.5t-129 43.5h-136v-492q0 -77 12.5 -111.5t46 -46.5t107.5 -12h150q128 0 194.5 34t96 109t45.5 220h47q-6 -55 -6 -148q0 -116 14 -262q-139 6 -469 6q-393 0 -594 -6zM523 1712 q0 35 17.5 65.5t48 48t65.5 17.5t65 -17.5t48 -48t18 -65.5t-18 -65.5t-48 -48t-65 -17.5t-65.5 17.5t-48 48t-17.5 65.5z" />
<glyph unicode="&#x117;" horiz-adv-x="1036" d="M94 502q0 178 57 309t161.5 201.5t244.5 70.5q184 0 283.5 -111.5t99.5 -338.5h-640q-7 -53 -7 -131q0 -135 44.5 -236t116.5 -155t152 -54q206 0 301 205l41 -16q-24 -72 -76.5 -134.5t-131 -101.5t-175.5 -39q-146 0 -252.5 66.5t-162.5 187t-56 277.5zM297 672h446 q4 102 -17 187t-66 135t-111 50q-63 0 -116 -40.5t-89.5 -124t-46.5 -207.5zM424 1436q0 35 17.5 65t48 48t65.5 18t65 -18t48 -48t18 -65t-18 -65.5t-48 -48t-65 -17.5t-65.5 17.5t-48 48t-17.5 65.5z" />
<glyph unicode="&#x118;" horiz-adv-x="1247" d="M86 0v41q74 3 107.5 16t46 48t12.5 112v1016q0 77 -12.5 112t-46 48t-107.5 16v41q201 -6 594 -6q301 0 428 6q-14 -134 -14 -242q0 -80 6 -127h-47q-15 133 -37.5 198t-76 94.5t-161.5 29.5h-170q-74 0 -107.5 -12t-46 -46.5t-12.5 -111.5v-483h136q103 0 137 61.5 t42 125.5t11 83h47q-7 -101 -7 -193l1 -98q0 -104 12 -291h-47q-2 14 -11.5 99t-55.5 128.5t-129 43.5h-136v-492q0 -77 12.5 -111.5t46 -46.5t107.5 -12h150q128 0 194.5 34t96 109t45.5 220h47q-6 -55 -6 -148q0 -116 14 -262q-139 6 -469 6q-393 0 -594 -6zM788 -252 q0 80 73.5 147t209.5 111h78q-111 -30 -161 -86t-50 -117q0 -41 23.5 -65.5t64.5 -24.5q37 0 70.5 19.5t54.5 48.5l30 -27q-91 -139 -231 -139q-73 0 -117.5 36.5t-44.5 96.5z" />
<glyph unicode="&#x119;" horiz-adv-x="1036" d="M94 502q0 178 57 309t161.5 201.5t244.5 70.5q184 0 283.5 -111.5t99.5 -338.5h-640q-7 -53 -7 -131q0 -135 44.5 -236t116.5 -155t152 -54q206 0 301 205l41 -16q-24 -72 -76.5 -134.5t-131 -101.5t-175.5 -39q-146 0 -252.5 66.5t-162.5 187t-56 277.5zM297 672h446 q4 102 -17 187t-66 135t-111 50q-63 0 -116 -40.5t-89.5 -124t-46.5 -207.5zM379 -252q0 80 73.5 147t209.5 111h65q-5 -5 -20 -10q-178 -76 -178 -193q0 -41 23.5 -65.5t64.5 -24.5q37 0 70.5 19.5t54.5 48.5l30 -27q-91 -139 -231 -139q-73 0 -117.5 36.5t-44.5 96.5z" />
<glyph unicode="&#x11a;" horiz-adv-x="1247" d="M86 0v41q74 3 107.5 16t46 48t12.5 112v1016q0 77 -12.5 112t-46 48t-107.5 16v41q201 -6 594 -6q301 0 428 6q-14 -134 -14 -242q0 -80 6 -127h-47q-15 133 -37.5 198t-76 94.5t-161.5 29.5h-170q-74 0 -107.5 -12t-46 -46.5t-12.5 -111.5v-483h136q103 0 137 61.5 t42 125.5t11 83h47q-7 -101 -7 -193l1 -98q0 -104 12 -291h-47q-2 14 -11.5 99t-55.5 128.5t-129 43.5h-136v-492q0 -77 12.5 -111.5t46 -46.5t107.5 -12h150q128 0 194.5 34t96 109t45.5 220h47q-6 -55 -6 -148q0 -116 14 -262q-139 6 -469 6q-393 0 -594 -6zM220 1868 l10 28q122 -25 241.5 -65t190.5 -78q59 38 155.5 78t194.5 65l11 -28q-132 -46 -233.5 -118.5t-149.5 -152.5h-37q-49 80 -150.5 152.5t-232.5 118.5z" />
<glyph unicode="&#x11b;" horiz-adv-x="1036" d="M94 502q0 178 57 309t161.5 201.5t244.5 70.5q184 0 283.5 -111.5t99.5 -338.5h-640q-7 -53 -7 -131q0 -135 44.5 -236t116.5 -155t152 -54q206 0 301 205l41 -16q-24 -72 -76.5 -134.5t-131 -101.5t-175.5 -39q-146 0 -252.5 66.5t-162.5 187t-56 277.5zM174 1614l17 28 q111 -38 216 -94t169 -110q52 55 134.5 110.5t168.5 93.5l16 -28q-117 -58 -208.5 -153t-133.5 -199h-37q-42 104 -133.5 199t-208.5 153zM297 672h446q4 102 -17 187t-66 135t-111 50q-63 0 -116 -40.5t-89.5 -124t-46.5 -207.5z" />
<glyph unicode="&#x11c;" horiz-adv-x="1440" d="M111 700q0 235 84.5 411.5t234.5 272t340 95.5q83 0 147.5 -17.5t112 -44.5t109.5 -71q26 -21 41 -21q39 0 51 125h47q-8 -133 -8 -471h-47q-18 110 -39 180.5t-64 122.5q-60 74 -155 117t-199 43q-135 0 -237 -88t-158 -250.5t-56 -380.5q0 -246 52.5 -403t160 -232.5 t275.5 -75.5q123 0 213 64q37 25 48 48t11 64v197q0 85 -16 124.5t-58 54t-133 18.5v41q101 -7 289 -7q144 0 213 7v-41q-48 -4 -68.5 -16.5t-28 -46.5t-7.5 -113v-406h-41q-2 42 -17 79.5t-39 37.5q-13 0 -25 -6.5t-42 -28.5q-72 -55 -148.5 -83t-171.5 -28q-210 0 -361 87 t-230.5 251t-79.5 391zM338 1606q131 45 232.5 117.5t150.5 152.5h37q48 -80 149.5 -152.5t233.5 -117.5l-11 -29q-124 26 -243 65.5t-189 77.5q-58 -38 -154.5 -77.5t-195.5 -65.5z" />
<glyph unicode="&#x11d;" horiz-adv-x="1034" d="M55 -205q0 140 257 254h-7q-75 0 -140 34.5t-65 123.5q0 68 51 128t172 127q-97 34 -151.5 108.5t-54.5 189.5q0 161 104 242t275 81q79 0 145 -17q17 92 64 161q26 41 63.5 68.5t83.5 27.5q47 0 78 -30.5t31 -78.5t-30 -80t-81 -32q-43 0 -71.5 25.5t-33.5 70.5 q-19 -7 -43 -59q-17 -44 -25 -85q93 -34 145 -107.5t52 -186.5q0 -109 -48.5 -181.5t-133.5 -107.5t-196 -35q-72 0 -133 15q-54 -34 -81.5 -55t-44 -46t-16.5 -57q0 -43 27 -55.5t88 -12.5h424q239 0 239 -196q0 -100 -63.5 -195.5t-191.5 -157t-310 -61.5q-100 0 -187 22 t-139.5 63t-52.5 95zM135 1290q117 58 208.5 153t133.5 199h37q23 -83 78.5 -161.5t124.5 -128.5l-21 -29q-66 26 -132 65t-109 78q-52 -55 -134.5 -110.5t-168.5 -93.5zM223 -160q0 -62 38.5 -105t98.5 -64t125 -21q93 0 184.5 35t150.5 101.5t59 156.5q0 56 -34 81 t-122 25h-357q-68 -35 -105.5 -90.5t-37.5 -118.5zM309 760q0 -157 47.5 -222t139.5 -65q91 0 138.5 65.5t47.5 221.5t-47.5 221.5t-138.5 65.5q-92 0 -139.5 -65t-47.5 -222z" />
<glyph unicode="&#x11e;" horiz-adv-x="1440" d="M111 700q0 235 84.5 411.5t234.5 272t340 95.5q83 0 147.5 -17.5t112 -44.5t109.5 -71q26 -21 41 -21q39 0 51 125h47q-8 -133 -8 -471h-47q-18 110 -39 180.5t-64 122.5q-60 74 -155 117t-199 43q-135 0 -237 -88t-158 -250.5t-56 -380.5q0 -246 52.5 -403t160 -232.5 t275.5 -75.5q123 0 213 64q37 25 48 48t11 64v197q0 85 -16 124.5t-58 54t-133 18.5v41q101 -7 289 -7q144 0 213 7v-41q-48 -4 -68.5 -16.5t-28 -46.5t-7.5 -113v-406h-41q-2 42 -17 79.5t-39 37.5q-13 0 -25 -6.5t-42 -28.5q-72 -55 -148.5 -83t-171.5 -28q-210 0 -361 87 t-230.5 251t-79.5 391zM331 1839l27 21q56 -55 151 -93t230 -38q134 0 230 38.5t153 94.5l24 -23q-59 -97 -162 -167t-245 -70t-245 70t-163 167z" />
<glyph unicode="&#x11f;" horiz-adv-x="1034" d="M55 -205q0 140 257 254h-7q-75 0 -140 34.5t-65 123.5q0 68 51 128t172 127q-97 34 -151.5 108.5t-54.5 189.5q0 161 104 242t275 81q79 0 145 -17q17 92 64 161q26 41 63.5 68.5t83.5 27.5q47 0 78 -30.5t31 -78.5t-30 -80t-81 -32q-43 0 -71.5 25.5t-33.5 70.5 q-19 -7 -43 -59q-17 -44 -25 -85q93 -34 145 -107.5t52 -186.5q0 -109 -48.5 -181.5t-133.5 -107.5t-196 -35q-72 0 -133 15q-54 -34 -81.5 -55t-44 -46t-16.5 -57q0 -43 27 -55.5t88 -12.5h424q239 0 239 -196q0 -100 -63.5 -195.5t-191.5 -157t-310 -61.5q-100 0 -187 22 t-139.5 63t-52.5 95zM127 1595l34 19q120 -197 332 -197q120 0 201 56.5t131 140.5l35 -19q-51 -122 -144.5 -210.5t-222.5 -88.5q-128 0 -221.5 88.5t-144.5 210.5zM223 -160q0 -62 38.5 -105t98.5 -64t125 -21q93 0 184.5 35t150.5 101.5t59 156.5q0 56 -34 81t-122 25 h-357q-68 -35 -105.5 -90.5t-37.5 -118.5zM309 760q0 -157 47.5 -222t139.5 -65q91 0 138.5 65.5t47.5 221.5t-47.5 221.5t-138.5 65.5q-92 0 -139.5 -65t-47.5 -222z" />
<glyph unicode="&#x120;" horiz-adv-x="1440" d="M111 700q0 235 84.5 411.5t234.5 272t340 95.5q83 0 147.5 -17.5t112 -44.5t109.5 -71q26 -21 41 -21q39 0 51 125h47q-8 -133 -8 -471h-47q-18 110 -39 180.5t-64 122.5q-60 74 -155 117t-199 43q-135 0 -237 -88t-158 -250.5t-56 -380.5q0 -246 52.5 -403t160 -232.5 t275.5 -75.5q123 0 213 64q37 25 48 48t11 64v197q0 85 -16 124.5t-58 54t-133 18.5v41q101 -7 289 -7q144 0 213 7v-41q-48 -4 -68.5 -16.5t-28 -46.5t-7.5 -113v-406h-41q-2 42 -17 79.5t-39 37.5q-13 0 -25 -6.5t-42 -28.5q-72 -55 -148.5 -83t-171.5 -28q-210 0 -361 87 t-230.5 251t-79.5 391zM635 1712q0 35 17.5 65.5t48 48t65.5 17.5t65 -17.5t48 -48t18 -65.5t-18 -65.5t-48 -48t-65 -17.5t-65.5 17.5t-48 48t-17.5 65.5z" />
<glyph unicode="&#x121;" horiz-adv-x="1034" d="M55 -205q0 140 257 254h-7q-75 0 -140 34.5t-65 123.5q0 68 51 128t172 127q-97 34 -151.5 108.5t-54.5 189.5q0 161 104 242t275 81q79 0 145 -17q17 92 64 161q26 41 63.5 68.5t83.5 27.5q47 0 78 -30.5t31 -78.5t-30 -80t-81 -32q-43 0 -71.5 25.5t-33.5 70.5 q-19 -7 -43 -59q-17 -44 -25 -85q93 -34 145 -107.5t52 -186.5q0 -109 -48.5 -181.5t-133.5 -107.5t-196 -35q-72 0 -133 15q-54 -34 -81.5 -55t-44 -46t-16.5 -57q0 -43 27 -55.5t88 -12.5h424q239 0 239 -196q0 -100 -63.5 -195.5t-191.5 -157t-310 -61.5q-100 0 -187 22 t-139.5 63t-52.5 95zM223 -160q0 -62 38.5 -105t98.5 -64t125 -21q93 0 184.5 35t150.5 101.5t59 156.5q0 56 -34 81t-122 25h-357q-68 -35 -105.5 -90.5t-37.5 -118.5zM309 760q0 -157 47.5 -222t139.5 -65q91 0 138.5 65.5t47.5 221.5t-47.5 221.5t-138.5 65.5 q-92 0 -139.5 -65t-47.5 -222zM365 1436q0 35 17.5 65t48 48t65.5 18t65 -18t48 -48t18 -65t-18 -65.5t-48 -48t-65 -17.5t-65.5 17.5t-48 48t-17.5 65.5z" />
<glyph unicode="&#x122;" horiz-adv-x="1440" d="M111 700q0 235 84.5 411.5t234.5 272t340 95.5q83 0 147.5 -17.5t112 -44.5t109.5 -71q26 -21 41 -21q39 0 51 125h47q-8 -133 -8 -471h-47q-18 110 -39 180.5t-64 122.5q-60 74 -155 117t-199 43q-135 0 -237 -88t-158 -250.5t-56 -380.5q0 -246 52.5 -403t160 -232.5 t275.5 -75.5q123 0 213 64q37 25 48 48t11 64v197q0 85 -16 124.5t-58 54t-133 18.5v41q101 -7 289 -7q144 0 213 7v-41q-48 -4 -68.5 -16.5t-28 -46.5t-7.5 -113v-406h-41q-2 42 -17 79.5t-39 37.5q-13 0 -25 -6.5t-42 -28.5q-72 -55 -148.5 -83t-171.5 -28q-210 0 -361 87 t-230.5 251t-79.5 391zM645 -250q0 46 33.5 77.5t81.5 31.5q59 0 96 -41.5t37 -102.5q0 -77 -36.5 -125.5t-131.5 -83.5l-14 37q53 16 90 50t37 79q-37 -32 -86 -32q-47 0 -77 29t-30 81z" />
<glyph unicode="&#x123;" horiz-adv-x="1034" d="M55 -205q0 140 257 254h-7q-75 0 -140 34.5t-65 123.5q0 68 51 128t172 127q-97 34 -151.5 108.5t-54.5 189.5q0 161 104 242t275 81q79 0 145 -17q17 92 64 161q26 41 63.5 68.5t83.5 27.5q47 0 78 -30.5t31 -78.5t-30 -80t-81 -32q-43 0 -71.5 25.5t-33.5 70.5 q-19 -7 -43 -59q-17 -44 -25 -85q93 -34 145 -107.5t52 -186.5q0 -109 -48.5 -181.5t-133.5 -107.5t-196 -35q-72 0 -133 15q-54 -34 -81.5 -55t-44 -46t-16.5 -57q0 -43 27 -55.5t88 -12.5h424q239 0 239 -196q0 -100 -63.5 -195.5t-191.5 -157t-310 -61.5q-100 0 -187 22 t-139.5 63t-52.5 95zM223 -160q0 -62 38.5 -105t98.5 -64t125 -21q93 0 184.5 35t150.5 101.5t59 156.5q0 56 -34 81t-122 25h-357q-68 -35 -105.5 -90.5t-37.5 -118.5zM309 760q0 -157 47.5 -222t139.5 -65q91 0 138.5 65.5t47.5 221.5t-47.5 221.5t-138.5 65.5 q-92 0 -139.5 -65t-47.5 -222zM371 1463q0 77 36.5 125.5t131.5 83.5l14 -37q-53 -16 -90.5 -50t-36.5 -79q37 32 86 32q47 0 77 -29t30 -81q0 -46 -33.5 -77.5t-81.5 -31.5q-59 0 -96 41.5t-37 102.5z" />
<glyph unicode="&#x124;" horiz-adv-x="1550" d="M86 0v41q74 3 107.5 16t46 48t12.5 112v1016q0 77 -12.5 112t-46 48t-107.5 16v41q85 -6 262 -6q166 0 260 6v-41q-74 -3 -107.5 -16t-46 -48t-12.5 -112v-483h666v483q0 77 -12.5 112t-46 48t-107.5 16v41q96 -6 260 -6q176 0 262 6v-41q-74 -3 -107.5 -16t-46 -48 t-12.5 -112v-1016q0 -77 12.5 -112t46 -48t107.5 -16v-41q-85 6 -262 6q-164 0 -260 -6v41q74 3 107.5 16t46 48t12.5 112v492h-666v-492q0 -77 12.5 -112t46 -48t107.5 -16v-41q-94 6 -260 6q-176 0 -262 -6zM379 1606q131 45 232.5 117.5t150.5 152.5h37 q48 -80 149.5 -152.5t233.5 -117.5l-11 -29q-124 26 -243 65.5t-189 77.5q-58 -38 -154.5 -77.5t-195.5 -65.5z" />
<glyph unicode="&#x125;" horiz-adv-x="1204" d="M41 0v43q58 0 91.5 13t49 45t15.5 89v1168q0 95 -34.5 137.5t-121.5 42.5v43q65 -6 127 -6q132 0 213 29v-766q51 130 142.5 187.5t205.5 57.5q143 0 217 -77q39 -42 55.5 -103.5t16.5 -165.5v-547q0 -57 15.5 -89t49 -45t91.5 -13v-43q-192 8 -246 8q-58 0 -230 -8v43 q51 0 80 13t42.5 45t13.5 89v592q0 74 -12 124t-48.5 81t-105.5 31q-83 0 -148.5 -47.5t-102 -132t-36.5 -191.5v-457q0 -57 13.5 -89t42 -45t79.5 -13v-43q-172 8 -229 8q-58 0 -246 -8zM176 1737q131 45 232.5 117.5t150.5 152.5h37q48 -80 149.5 -152.5t233.5 -117.5 l-11 -29q-124 26 -243 65.5t-189 77.5q-58 -38 -154.5 -77.5t-195.5 -65.5z" />
<glyph unicode="&#x126;" horiz-adv-x="1550" d="M86 0v41q74 3 107.5 16t46 48t12.5 112v834h-166v41h166v141q0 77 -12.5 112t-46 48t-107.5 16v41q85 -6 262 -6q166 0 260 6v-41q-74 -3 -107.5 -16t-46 -48t-12.5 -112v-141h666v141q0 77 -12.5 112t-46 48t-107.5 16v41q96 -6 260 -6q176 0 262 6v-41 q-74 -3 -107.5 -16t-46 -48t-12.5 -112v-141h166v-41h-166v-834q0 -77 12.5 -112t46 -48t107.5 -16v-41q-85 6 -262 6q-164 0 -260 -6v41q74 3 107.5 16t46 48t12.5 112v492h-666v-492q0 -77 12.5 -112t46 -48t107.5 -16v-41q-94 6 -260 6q-176 0 -262 -6zM442 750h666v301 h-666v-301z" />
<glyph unicode="&#x127;" horiz-adv-x="1204" d="M20 1245v41h177v72q0 95 -34.5 137.5t-121.5 42.5v43q65 -6 127 -6q132 0 213 29v-318h364v-41h-364v-407q51 130 142.5 187.5t205.5 57.5q143 0 217 -77q39 -42 55.5 -103.5t16.5 -165.5v-547q0 -57 15.5 -89t49 -45t91.5 -13v-43q-192 8 -246 8q-58 0 -230 -8v43 q51 0 80 13t42.5 45t13.5 89v592q0 74 -12 124t-48.5 81t-105.5 31q-83 0 -148.5 -47.5t-102 -132t-36.5 -191.5v-457q0 -57 13.5 -89t42 -45t79.5 -13v-43q-172 8 -229 8q-58 0 -246 -8v43q58 0 91.5 13t49 45t15.5 89v1055h-177z" />
<glyph unicode="&#x128;" horiz-adv-x="694" d="M-45 1630q6 66 38 115t82 75.5t107 26.5q51 0 96.5 -20t138.5 -78.5t163 -58.5q95 0 127 114l30 -6q-6 -66 -38 -115t-81.5 -75.5t-107.5 -26.5q-51 0 -96 20.5t-138.5 79t-162.5 58.5q-96 0 -127 -115zM86 0v41q74 3 107.5 16t46 48t12.5 112v1016q0 77 -12.5 112 t-46 48t-107.5 16v41q85 -6 262 -6q166 0 260 6v-41q-74 -3 -107.5 -16t-46 -48t-12.5 -112v-1016q0 -77 12.5 -112t46 -48t107.5 -16v-41q-94 6 -260 6q-176 0 -262 -6z" />
<glyph unicode="&#x129;" horiz-adv-x="600" d="M-106 1362q31 108 95.5 159.5t148.5 51.5q51 0 88 -18.5t101 -67.5t120 -49q93 0 158 108l29 -14q-31 -108 -95.5 -159.5t-146.5 -51.5q-53 0 -90.5 19t-101.5 68.5t-119 49.5q-91 0 -158 -110zM59 0v43q58 0 91.5 13t49 45t15.5 89v641q0 95 -34.5 138t-121.5 43v43 q64 -6 127 -6q130 0 213 28v-887q0 -57 15.5 -89t49 -45t91.5 -13v-43q-188 8 -248 8t-248 -8z" />
<glyph unicode="&#x12a;" horiz-adv-x="694" d="M-13 1677v52h721v-52h-721zM86 0v41q74 3 107.5 16t46 48t12.5 112v1016q0 77 -12.5 112t-46 48t-107.5 16v41q85 -6 262 -6q166 0 260 6v-41q-74 -3 -107.5 -16t-46 -48t-12.5 -112v-1016q0 -77 12.5 -112t46 -48t107.5 -16v-41q-94 6 -260 6q-176 0 -262 -6z" />
<glyph unicode="&#x12b;" horiz-adv-x="600" d="M-23 1407v51h598v-51h-598zM59 0v43q58 0 91.5 13t49 45t15.5 89v641q0 95 -34.5 138t-121.5 43v43q64 -6 127 -6q130 0 213 28v-887q0 -57 15.5 -89t49 -45t91.5 -13v-43q-188 8 -248 8t-248 -8z" />
<glyph unicode="&#x12c;" horiz-adv-x="694" d="M-60 1839l27 21q56 -55 151 -93t230 -38q134 0 230 38.5t153 94.5l24 -23q-59 -97 -162 -167t-245 -70t-245 70t-163 167zM86 0v41q74 3 107.5 16t46 48t12.5 112v1016q0 77 -12.5 112t-46 48t-107.5 16v41q85 -6 262 -6q166 0 260 6v-41q-74 -3 -107.5 -16t-46 -48 t-12.5 -112v-1016q0 -77 12.5 -112t46 -48t107.5 -16v-41q-94 6 -260 6q-176 0 -262 -6z" />
<glyph unicode="&#x12d;" horiz-adv-x="600" d="M-79 1595l34 19q120 -197 332 -197q120 0 201 56.5t131 140.5l35 -19q-51 -122 -144.5 -210.5t-222.5 -88.5q-128 0 -221.5 88.5t-144.5 210.5zM59 0v43q58 0 91.5 13t49 45t15.5 89v641q0 95 -34.5 138t-121.5 43v43q64 -6 127 -6q130 0 213 28v-887q0 -57 15.5 -89 t49 -45t91.5 -13v-43q-188 8 -248 8t-248 -8z" />
<glyph unicode="&#x12e;" horiz-adv-x="694" d="M86 0v41q74 3 107.5 16t46 48t12.5 112v1016q0 77 -12.5 112t-46 48t-107.5 16v41q85 -6 262 -6q166 0 260 6v-41q-74 -3 -107.5 -16t-46 -48t-12.5 -112v-1016q0 -77 12.5 -112t46 -48t107.5 -16v-41q-94 6 -260 6q-176 0 -262 -6zM247 -252q0 80 73.5 147t209.5 111h78 q-111 -30 -161 -86t-50 -117q0 -41 23.5 -65.5t64.5 -24.5q37 0 70.5 19.5t54.5 48.5l30 -27q-91 -139 -231 -139q-73 0 -117.5 36.5t-44.5 96.5z" />
<glyph unicode="&#x12f;" horiz-adv-x="600" d="M59 0v43q58 0 91.5 13t49 45t15.5 89v641q0 95 -34.5 138t-121.5 43v43q64 -6 127 -6q130 0 213 28v-887q0 -57 15.5 -89t49 -45t91.5 -13v-43q-188 8 -248 8t-248 -8zM158 1436q0 35 17.5 65t48 48t65.5 18t65 -18t48 -48t18 -65t-18 -65.5t-48 -48t-65 -17.5 t-65.5 17.5t-48 48t-17.5 65.5zM185 -252q0 80 73.5 147t209.5 111h65q-5 -5 -20 -10q-178 -76 -178 -193q0 -41 23.5 -65.5t64.5 -24.5q37 0 70.5 19.5t54.5 48.5l30 -27q-91 -139 -231 -139q-73 0 -117.5 36.5t-44.5 96.5z" />
<glyph unicode="&#x130;" horiz-adv-x="694" d="M86 0v41q74 3 107.5 16t46 48t12.5 112v1016q0 77 -12.5 112t-46 48t-107.5 16v41q85 -6 262 -6q166 0 260 6v-41q-74 -3 -107.5 -16t-46 -48t-12.5 -112v-1016q0 -77 12.5 -112t46 -48t107.5 -16v-41q-94 6 -260 6q-176 0 -262 -6zM217 1833q0 35 17.5 65t48 48t65.5 18 t65 -18t48 -48t18 -65t-18 -65.5t-48 -48t-65 -17.5t-65.5 17.5t-48 48t-17.5 65.5z" />
<glyph unicode="&#x131;" horiz-adv-x="600" d="M59 0v43q58 0 91.5 13t49 45t15.5 89v641q0 95 -34.5 138t-121.5 43v43q64 -6 127 -6q130 0 213 28v-887q0 -57 15.5 -89t49 -45t91.5 -13v-43q-188 8 -248 8t-248 -8z" />
<glyph unicode="&#x132;" horiz-adv-x="1325" d="M86 0v41q74 3 107.5 16t46 48t12.5 112v1016q0 77 -12.5 112t-46 48t-107.5 16v41q85 -6 262 -6q166 0 260 6v-41q-74 -3 -107.5 -16t-46 -48t-12.5 -112v-1016q0 -77 12.5 -112t46 -48t107.5 -16v-41q-94 6 -260 6q-176 0 -262 -6zM350 -207q0 48 30.5 78.5t77.5 30.5 q49 0 81 -30t32 -81q0 -43 -23 -69.5t-63 -34.5q18 -18 56.5 -25.5t74.5 -7.5q89 0 153.5 46t92.5 128q21 64 28 159.5t7 309.5v936q0 77 -12.5 112t-46 48t-107.5 16v41q85 -6 262 -6q164 0 260 6v-41q-74 -3 -107.5 -16t-46 -48t-12.5 -112v-750q0 -174 -6.5 -308.5 t-28.5 -225.5q-23 -96 -81 -171.5t-147.5 -119t-203.5 -43.5q-100 0 -172 37q-98 51 -98 141z" />
<glyph unicode="&#x133;" horiz-adv-x="1151" d="M33 1012v43q64 -6 127 -6q129 0 213 28v-805q0 -78 9 -126t43 -78.5t103 -30.5q83 0 146 48.5t97 133t34 189.5v423q0 95 -34.5 138t-121.5 43v43q64 -6 127 -6q130 0 213 28v-841q0 -186 -28.5 -321.5t-104 -217.5t-209.5 -82q-81 0 -123.5 30t-42.5 85q0 45 27 72.5 t74 27.5q42 0 69 -24t27 -66q0 -63 -70 -92q13 -2 35 -2q59 0 94.5 26.5t51.5 83t16 150.5v325q-38 -122 -124.5 -191t-211.5 -69q-138 0 -213 78q-37 40 -52.5 104t-15.5 164v514q0 95 -34 138t-121 43zM121 1436q0 35 17.5 65t48 48t65.5 18t65 -18t48 -48t18 -65 t-18 -65.5t-48 -48t-65 -17.5t-65.5 17.5t-48 48t-17.5 65.5zM744 1436q0 35 17.5 65t48 48t65.5 18t65 -18t48 -48t18 -65t-18 -65.5t-48 -48t-65 -17.5t-65.5 17.5t-48 48t-17.5 65.5z" />
<glyph unicode="&#x134;" horiz-adv-x="668" d="M-307 -207q0 48 30.5 78.5t77.5 30.5q49 0 81 -30t32 -81q0 -43 -23 -69.5t-63 -34.5q18 -18 56.5 -25.5t74.5 -7.5q89 0 153.5 46t92.5 128q21 64 28 159.5t7 309.5v936q0 77 -12.5 112t-46 48t-107.5 16v41q85 -6 262 -6q164 0 260 6v-41q-74 -3 -107.5 -16t-46 -48 t-12.5 -112v-750q0 -174 -6.5 -308.5t-28.5 -225.5q-23 -96 -81 -171.5t-147.5 -119t-203.5 -43.5q-100 0 -172 37q-98 51 -98 141zM-65 1606q131 45 232.5 117.5t150.5 152.5h37q48 -80 149.5 -152.5t233.5 -117.5l-11 -29q-124 26 -243 65.5t-189 77.5 q-58 -38 -154.5 -77.5t-195.5 -65.5z" />
<glyph unicode="&#x135;" horiz-adv-x="547" d="M-131 -260q0 47 29.5 76.5t76.5 29.5q49 0 78 -25t29 -75q0 -70 -78 -98q12 -2 35 -2q71 0 115 47q47 59 47 174v964q0 95 -34.5 138t-121.5 43v43q64 -6 127 -6q130 0 213 28v-841q0 -167 -22.5 -291.5t-86.5 -204.5q-47 -61 -113.5 -93t-133.5 -32q-72 0 -115 31 q-45 34 -45 94zM-87 1290q117 58 208.5 153t133.5 199h37q42 -104 133.5 -199t208.5 -153l-16 -28q-111 38 -216 93.5t-169 110.5q-52 -55 -134.5 -110.5t-168.5 -93.5z" />
<glyph unicode="&#x136;" horiz-adv-x="1341" d="M86 0v41q74 3 107.5 16t46 48t12.5 112v1016q0 77 -12.5 112t-46 48t-107.5 16v41q85 -6 262 -6q166 0 260 6v-41q-74 -3 -107.5 -16t-46 -48t-12.5 -112v-459q149 6 234 115l196 250q105 133 105 196q0 71 -127 74v41q117 -6 235 -6q114 0 175 6v-41q-68 -10 -127.5 -44 t-114.5 -105l-334 -428l475 -666q34 -52 76 -81t104 -44v-41q-97 6 -245 6q-111 0 -211 -6v41q48 2 71 12t23 31q0 19 -21 49l-299 451q-41 63 -71 93t-61.5 41.5t-82.5 14.5v-516q0 -77 12.5 -112t46 -48t107.5 -16v-41q-94 6 -260 6q-176 0 -262 -6zM582 -250 q0 46 33.5 77.5t81.5 31.5q59 0 96 -41.5t37 -102.5q0 -77 -36.5 -125.5t-131.5 -83.5l-14 37q53 16 90 50t37 79q-37 -32 -86 -32q-47 0 -77 29t-30 81z" />
<glyph unicode="&#x137;" horiz-adv-x="1126" d="M16 -250q0 46 33.5 77.5t81.5 31.5q59 0 96 -41.5t37 -102.5q0 -77 -36.5 -125.5t-131.5 -83.5l-14 37q53 16 90.5 50t36.5 79q-37 -32 -86 -32q-47 0 -77 29t-30 81zM41 0v43q58 0 91.5 13t49 45t15.5 89v1170q0 95 -34.5 137.5t-121.5 42.5v43q65 -6 127 -6 q132 0 213 29v-1017q60 8 100 27.5t76 57.5l152 157q65 68 65 113q0 36 -41 53t-110 17v41q142 -8 231 -8q96 0 178 8v-41q-100 -9 -184 -96l-249 -262l370 -506q38 -52 69 -76.5t74 -30.5v-43q-124 8 -166 8q-55 0 -227 -8v43q29 0 46 11t17 28q0 14 -12 31l-235 344 q-37 52 -68 70t-86 20v-357q0 -57 13.5 -89t42 -45t79.5 -13v-43q-172 8 -227 8q-60 0 -248 -8z" />
<glyph unicode="&#x138;" horiz-adv-x="1153" d="M59 0v43q58 0 91.5 13t49 45t15.5 89v641q0 95 -34.5 138t-121.5 43v43q64 -6 127 -6q130 0 213 28v-535q53 9 87 30t73 61l244 268q29 32 29 58t-28 40.5t-81 14.5v41q108 -6 211 -6q84 0 137 6v-41q-57 -5 -96.5 -23.5t-87.5 -72.5l-299 -328l397 -434 q46 -51 79.5 -79.5t65.5 -33.5v-43q-120 8 -165 8q-56 0 -228 -8v43q30 0 47.5 11t17.5 29q0 16 -14 30l-274 303q-33 41 -60 61t-55 23v-310q0 -57 13.5 -89t42.5 -45t80 -13v-43q-172 8 -228 8q-60 0 -248 -8z" />
<glyph unicode="&#x139;" horiz-adv-x="1204" d="M86 0v41q74 3 107.5 16t46 48t12.5 112v1016q0 77 -12.5 112t-46 48t-107.5 16v41q85 -6 262 -6q166 0 260 6v-41q-74 -3 -107.5 -16t-46 -48t-12.5 -112v-1016q0 -77 12.5 -111.5t46 -46.5t107.5 -12h150q128 0 194.5 36t96 115t45.5 232h47q-6 -64 -6 -168 q0 -116 14 -262q-139 6 -469 6q-393 0 -594 -6zM223 1608q65 50 113.5 91.5t119 106t111.5 90.5q31 20 62 20q40 0 63 -34q11 -19 11 -38q0 -45 -54 -81q-41 -25 -113.5 -53t-141 -56t-157.5 -73z" />
<glyph unicode="&#x13a;" horiz-adv-x="586" d="M45 0v43q58 0 91.5 13t49 45t15.5 89v1170q0 95 -34.5 137.5t-121.5 42.5v43q64 -6 127 -6q132 0 213 29v-1416q0 -57 15.5 -89t49 -45t91.5 -13v-43q-188 8 -248 8t-248 -8zM168 1739q65 50 113.5 91.5t119 106t111.5 90.5q31 20 62 20q40 0 63 -34q11 -19 11 -38 q0 -45 -54 -81q-41 -25 -113.5 -53t-141 -56t-157.5 -73z" />
<glyph unicode="&#x13b;" horiz-adv-x="1204" d="M86 0v41q74 3 107.5 16t46 48t12.5 112v1016q0 77 -12.5 112t-46 48t-107.5 16v41q85 -6 262 -6q166 0 260 6v-41q-74 -3 -107.5 -16t-46 -48t-12.5 -112v-1016q0 -77 12.5 -111.5t46 -46.5t107.5 -12h150q128 0 194.5 36t96 115t45.5 232h47q-6 -64 -6 -168 q0 -116 14 -262q-139 6 -469 6q-393 0 -594 -6zM553 -250q0 46 33.5 77.5t81.5 31.5q59 0 96 -41.5t37 -102.5q0 -77 -36.5 -125.5t-131.5 -83.5l-14 37q53 16 90 50t37 79q-37 -32 -86 -32q-47 0 -77 29t-30 81z" />
<glyph unicode="&#x13c;" horiz-adv-x="586" d="M-266 -250q0 46 33.5 77.5t81.5 31.5q59 0 96 -41.5t37 -102.5q0 -77 -36.5 -125.5t-131.5 -83.5l-14 37q53 16 90.5 50t36.5 79q-37 -32 -86 -32q-47 0 -77 29t-30 81zM45 0v43q58 0 91.5 13t49 45t15.5 89v1170q0 95 -34.5 137.5t-121.5 42.5v43q64 -6 127 -6 q132 0 213 29v-1416q0 -57 15.5 -89t49 -45t91.5 -13v-43q-188 8 -248 8t-248 -8z" />
<glyph unicode="&#x13d;" horiz-adv-x="1204" d="M86 0v41q74 3 107.5 16t46 48t12.5 112v1016q0 77 -12.5 112t-46 48t-107.5 16v41q85 -6 262 -6q166 0 260 6v-41q-74 -3 -107.5 -16t-46 -48t-12.5 -112v-1016q0 -77 12.5 -111.5t46 -46.5t107.5 -12h150q128 0 194.5 36t96 115t45.5 232h47q-6 -64 -6 -168 q0 -116 14 -262q-139 6 -469 6q-393 0 -594 -6zM680 1407v43q43 -4 84 -4q69 0 133 16q10 -23 10 -73q0 -42 -20.5 -98t-53 -118.5t-104.5 -193.5l-29 8q41 260 41 338q0 43 -12.5 62.5t-48.5 19.5z" />
<glyph unicode="&#x13e;" horiz-adv-x="586" d="M45 0v43q58 0 91.5 13t49 45t15.5 89v1170q0 95 -34.5 137.5t-121.5 42.5v43q64 -6 127 -6q132 0 213 29v-1416q0 -57 15.5 -89t49 -45t91.5 -13v-43q-188 8 -248 8t-248 -8zM512 1161q41 237 41 297q0 43 -8.5 62.5t-32.5 19.5v43q12 -1 33 -1q61 0 122 24 q4 -11 7.5 -38t3.5 -46q0 -54 -30.5 -131.5t-107.5 -237.5z" />
<glyph unicode="&#x13f;" horiz-adv-x="1268" d="M86 0v41q74 3 107.5 16t46 48t12.5 112v1016q0 77 -12.5 112t-46 48t-107.5 16v41q85 -6 262 -6q166 0 260 6v-41q-74 -3 -107.5 -16t-46 -48t-12.5 -112v-1016q0 -77 12.5 -111.5t46 -46.5t107.5 -12h150q128 0 194.5 36t96 115t45.5 232h47q-6 -64 -6 -168 q0 -116 14 -262q-139 6 -469 6q-393 0 -594 -6zM950 729q0 35 17.5 65.5t48 48t65.5 17.5t65.5 -17.5t48 -48t17.5 -65.5t-17.5 -65t-48 -48t-65.5 -18t-65.5 18t-48 48t-17.5 65z" />
<glyph unicode="&#x140;" horiz-adv-x="872" d="M45 0v43q58 0 91.5 13t49 45t15.5 89v1170q0 95 -34.5 137.5t-121.5 42.5v43q64 -6 127 -6q132 0 213 29v-1416q0 -57 15.5 -89t49 -45t91.5 -13v-43q-188 8 -248 8t-248 -8zM598 604q0 35 17.5 65.5t48 48t65.5 17.5t65.5 -17.5t48 -48t17.5 -65.5t-17.5 -65t-48 -48 t-65.5 -18t-65.5 18t-48 48t-17.5 65z" />
<glyph unicode="&#x141;" horiz-adv-x="1204" d="M86 0v41q74 3 107.5 16t46 48t12.5 112v309l-166 -96v47l166 96v660q0 77 -12.5 112t-46 48t-107.5 16v41q85 -6 262 -6q166 0 260 6v-41q-74 -3 -107.5 -16t-46 -48t-12.5 -112v-570l527 306v-47l-527 -306v-399q0 -77 12.5 -111.5t46 -46.5t107.5 -12h150 q128 0 194.5 36t96 115t45.5 232h47q-6 -64 -6 -168q0 -116 14 -262q-139 6 -469 6q-393 0 -594 -6z" />
<glyph unicode="&#x142;" horiz-adv-x="586" d="M-31 479v62l232 201v618q0 95 -34.5 137.5t-121.5 42.5v43q64 -6 127 -6q132 0 213 29v-724l231 201v-61l-231 -202v-630q0 -57 15.5 -89t49 -45t91.5 -13v-43q-188 8 -248 8t-248 -8v43q58 0 91.5 13t49 45t15.5 89v490z" />
<glyph unicode="&#x143;" horiz-adv-x="1446" d="M86 0v41q71 3 105.5 20.5t47.5 57.5t13 119v995q0 77 -12.5 112t-46 48t-107.5 16v41q67 -6 190 -6q92 0 160 6l723 -1114v876q0 79 -13.5 119t-52.5 57.5t-120 20.5v41q73 -6 209 -6q122 0 190 6v-41q-71 -3 -105.5 -20.5t-47.5 -57.5t-13 -119v-1222h-47l-860 1329 v-1081q0 -79 14 -119t52.5 -57.5t119.5 -20.5v-41q-73 6 -209 6q-122 0 -190 -6zM641 1608q65 50 113.5 91.5t119 106t111.5 90.5q31 20 62 20q40 0 63 -34q11 -19 11 -38q0 -45 -54 -81q-41 -25 -113.5 -53t-141 -56t-157.5 -73z" />
<glyph unicode="&#x144;" horiz-adv-x="1223" d="M59 0v43q58 0 91.5 13t49 45t15.5 89v641q0 95 -34.5 138t-121.5 43v43q64 -6 127 -6q130 0 213 28v-241q51 130 142.5 188.5t206.5 58.5q143 0 217 -77q38 -42 54.5 -103.5t16.5 -165.5v-547q0 -57 15.5 -89t49 -45t91.5 -13v-43q-188 8 -246 8q-57 0 -229 -8v43 q51 0 79.5 13t42 45t13.5 89v592q0 74 -11.5 124t-48 81t-106.5 31q-84 0 -149.5 -49t-101.5 -134.5t-36 -189.5v-455q0 -57 13.5 -89t42.5 -45t80 -13v-43q-172 8 -230 8t-246 -8zM500 1245q44 69 75 125t75 141t73 123q35 46 78 46q25 0 45 -15q28 -23 28 -57 q0 -33 -28 -70q-30 -38 -89 -89.5t-113 -100.5t-122 -121z" />
<glyph unicode="&#x145;" horiz-adv-x="1446" d="M86 0v41q71 3 105.5 20.5t47.5 57.5t13 119v995q0 77 -12.5 112t-46 48t-107.5 16v41q67 -6 190 -6q92 0 160 6l723 -1114v876q0 79 -13.5 119t-52.5 57.5t-120 20.5v41q73 -6 209 -6q122 0 190 6v-41q-71 -3 -105.5 -20.5t-47.5 -57.5t-13 -119v-1222h-47l-860 1329 v-1081q0 -79 14 -119t52.5 -57.5t119.5 -20.5v-41q-73 6 -209 6q-122 0 -190 -6zM625 -250q0 46 33.5 77.5t81.5 31.5q59 0 96 -41.5t37 -102.5q0 -77 -36.5 -125.5t-131.5 -83.5l-14 37q53 16 90 50t37 79q-37 -32 -86 -32q-47 0 -77 29t-30 81z" />
<glyph unicode="&#x146;" horiz-adv-x="1223" d="M59 0v43q58 0 91.5 13t49 45t15.5 89v641q0 95 -34.5 138t-121.5 43v43q64 -6 127 -6q130 0 213 28v-241q51 130 142.5 188.5t206.5 58.5q143 0 217 -77q38 -42 54.5 -103.5t16.5 -165.5v-547q0 -57 15.5 -89t49 -45t91.5 -13v-43q-188 8 -246 8q-57 0 -229 -8v43 q51 0 79.5 13t42 45t13.5 89v592q0 74 -11.5 124t-48 81t-106.5 31q-84 0 -149.5 -49t-101.5 -134.5t-36 -189.5v-455q0 -57 13.5 -89t42.5 -45t80 -13v-43q-172 8 -230 8t-246 -8zM88 -250q0 46 33.5 77.5t81.5 31.5q59 0 96 -41.5t37 -102.5q0 -77 -36.5 -125.5 t-131.5 -83.5l-14 37q53 16 90.5 50t36.5 79q-37 -32 -86 -32q-47 0 -77 29t-30 81z" />
<glyph unicode="&#x147;" horiz-adv-x="1446" d="M86 0v41q71 3 105.5 20.5t47.5 57.5t13 119v995q0 77 -12.5 112t-46 48t-107.5 16v41q67 -6 190 -6q92 0 160 6l723 -1114v876q0 79 -13.5 119t-52.5 57.5t-120 20.5v41q73 -6 209 -6q122 0 190 6v-41q-71 -3 -105.5 -20.5t-47.5 -57.5t-13 -119v-1222h-47l-860 1329 v-1081q0 -79 14 -119t52.5 -57.5t119.5 -20.5v-41q-73 6 -209 6q-122 0 -190 -6zM359 1868l10 28q122 -25 241.5 -65t190.5 -78q59 38 155.5 78t194.5 65l11 -28q-132 -46 -233.5 -118.5t-149.5 -152.5h-37q-49 80 -150.5 152.5t-232.5 118.5z" />
<glyph unicode="&#x148;" horiz-adv-x="1223" d="M59 0v43q58 0 91.5 13t49 45t15.5 89v641q0 95 -34.5 138t-121.5 43v43q64 -6 127 -6q130 0 213 28v-241q51 130 142.5 188.5t206.5 58.5q143 0 217 -77q38 -42 54.5 -103.5t16.5 -165.5v-547q0 -57 15.5 -89t49 -45t91.5 -13v-43q-188 8 -246 8q-57 0 -229 -8v43 q51 0 79.5 13t42 45t13.5 89v592q0 74 -11.5 124t-48 81t-106.5 31q-84 0 -149.5 -49t-101.5 -134.5t-36 -189.5v-455q0 -57 13.5 -89t42.5 -45t80 -13v-43q-172 8 -230 8t-246 -8zM246 1614l17 28q111 -38 216 -94t169 -110q52 55 134.5 110.5t168.5 93.5l16 -28 q-117 -58 -208.5 -153t-133.5 -199h-37q-42 104 -133.5 199t-208.5 153z" />
<glyph unicode="&#x149;" horiz-adv-x="1223" d="M-66 1425q0 56 38 93.5t93 37.5q79 0 121 -65q35 -54 35 -135q0 -103 -52.5 -184.5t-158.5 -131.5l-19 37q64 27 110 84.5t46 116.5q0 25 -6 43q-35 -27 -76 -27q-56 0 -93.5 35.5t-37.5 95.5zM59 0v43q58 0 91.5 13t49 45t15.5 89v641q0 95 -34.5 138t-121.5 43v43 q64 -6 127 -6q130 0 213 28v-241q51 130 142.5 188.5t206.5 58.5q143 0 217 -77q38 -42 54.5 -103.5t16.5 -165.5v-547q0 -57 15.5 -89t49 -45t91.5 -13v-43q-188 8 -246 8q-57 0 -229 -8v43q51 0 79.5 13t42 45t13.5 89v592q0 74 -11.5 124t-48 81t-106.5 31 q-84 0 -149.5 -49t-101.5 -134.5t-36 -189.5v-455q0 -57 13.5 -89t42.5 -45t80 -13v-43q-172 8 -230 8t-246 -8z" />
<glyph unicode="&#x14a;" horiz-adv-x="1444" d="M86 0v41q74 3 107.5 16t46 48t12.5 112v1016q0 77 -12.5 112t-46 48t-107.5 16v41q67 -6 190 -6q113 0 189 6l694 -1073v856q0 77 -12.5 112t-46 48t-107.5 16v41q74 -6 189 -6q123 0 190 6v-41q-74 -3 -107.5 -16t-46 -48t-12.5 -112v-1047q0 -224 -37.5 -350 t-101 -173.5t-152.5 -47.5q-79 0 -131.5 31t-52.5 96q0 46 27.5 74t68.5 28q42 0 72.5 -28t30.5 -68q0 -27 -15 -53.5t-38 -40.5q24 -4 47 -4q205 0 231 346l-856 1323v-1102q0 -77 12.5 -112t46 -48t107.5 -16v-41q-74 6 -189 6q-122 0 -190 -6z" />
<glyph unicode="&#x14b;" horiz-adv-x="1186" d="M59 0v43q58 0 91.5 13t49 45t15.5 89v641q0 95 -34.5 138t-121.5 43v43q64 -6 127 -6q130 0 213 28v-241q51 130 142.5 187.5t206.5 57.5q143 0 217 -77q38 -42 54.5 -103.5t16.5 -165.5v-499q0 -167 -22.5 -291.5t-85.5 -204.5q-48 -61 -114.5 -93t-133.5 -32t-102 31 t-35 78q0 42 26 69t70 27q41 0 66.5 -26.5t25.5 -65.5q0 -48 -33 -82q79 9 113 51q22 25 31 65q10 48 10 105v913q0 74 -11.5 124t-48 81t-106.5 31q-84 0 -149.5 -49t-101.5 -133.5t-36 -188.5v-455q0 -57 13.5 -89t42.5 -45t80 -13v-43q-172 8 -230 8t-246 -8z" />
<glyph unicode="&#x14c;" horiz-adv-x="1518" d="M109 713q0 226 83 400t231 270t337 96q195 0 341.5 -88t227 -255.5t80.5 -398.5q0 -226 -83 -400t-231 -270t-337 -96q-195 0 -341.5 88t-227 255.5t-80.5 398.5zM313 721q0 -213 60 -375t163.5 -250t229.5 -88q131 0 230.5 91.5t153.5 255t54 374.5q0 213 -60 375 t-163 250t-229 88q-131 0 -231 -91.5t-154 -255t-54 -374.5zM395 1677v52h721v-52h-721z" />
<glyph unicode="&#x14d;" horiz-adv-x="1122" d="M96 526q0 190 60.5 314.5t165 183.5t239.5 59t239.5 -59t165 -183.5t60.5 -314.5t-60.5 -314t-165 -182.5t-239.5 -58.5t-239.5 58.5t-165 182.5t-60.5 314zM241 1407v51h639v-51h-639zM295 526q0 -263 71.5 -388.5t194.5 -125.5t194.5 125.5t71.5 388.5q0 264 -71.5 390 t-194.5 126t-194.5 -126t-71.5 -390z" />
<glyph unicode="&#x14e;" horiz-adv-x="1518" d="M109 713q0 226 83 400t231 270t337 96q195 0 341.5 -88t227 -255.5t80.5 -398.5q0 -226 -83 -400t-231 -270t-337 -96q-195 0 -341.5 88t-227 255.5t-80.5 398.5zM313 721q0 -213 60 -375t163.5 -250t229.5 -88q131 0 230.5 91.5t153.5 255t54 374.5q0 213 -60 375 t-163 250t-229 88q-131 0 -231 -91.5t-154 -255t-54 -374.5zM348 1839l27 21q56 -55 151 -93t230 -38q134 0 230 38.5t153 94.5l24 -23q-59 -97 -162 -167t-245 -70t-245 70t-163 167z" />
<glyph unicode="&#x14f;" horiz-adv-x="1122" d="M96 526q0 190 60.5 314.5t165 183.5t239.5 59t239.5 -59t165 -183.5t60.5 -314.5t-60.5 -314t-165 -182.5t-239.5 -58.5t-239.5 58.5t-165 182.5t-60.5 314zM199 1595l34 19q120 -197 332 -197q120 0 201 56.5t131 140.5l35 -19q-51 -122 -144.5 -210.5t-222.5 -88.5 q-128 0 -221.5 88.5t-144.5 210.5zM295 526q0 -263 71.5 -388.5t194.5 -125.5t194.5 125.5t71.5 388.5q0 264 -71.5 390t-194.5 126t-194.5 -126t-71.5 -390z" />
<glyph unicode="&#x150;" horiz-adv-x="1518" d="M109 713q0 226 83 400t231 270t337 96q195 0 341.5 -88t227 -255.5t80.5 -398.5q0 -226 -83 -400t-231 -270t-337 -96q-195 0 -341.5 88t-227 255.5t-80.5 398.5zM313 721q0 -213 60 -375t163.5 -250t229.5 -88q131 0 230.5 91.5t153.5 255t54 374.5q0 213 -60 375 t-163 250t-229 88q-131 0 -231 -91.5t-154 -255t-54 -374.5zM453 1606q47 47 95.5 111t79.5 103.5t64 67.5q34 30 69 30t56 -26q19 -21 19 -47q0 -41 -43 -78q-28 -22 -62 -41.5t-119 -62.5t-141 -82zM836 1606q47 47 95.5 111t79.5 103.5t64 67.5q34 30 69 30t56 -26 q19 -21 19 -47q0 -41 -43 -78q-28 -22 -62 -41.5t-119 -62.5t-141 -82z" />
<glyph unicode="&#x151;" horiz-adv-x="1122" d="M96 526q0 190 60.5 314.5t165 183.5t239.5 59t239.5 -59t165 -183.5t60.5 -314.5t-60.5 -314t-165 -182.5t-239.5 -58.5t-239.5 58.5t-165 182.5t-60.5 314zM295 526q0 -263 71.5 -388.5t194.5 -125.5t194.5 125.5t71.5 388.5q0 264 -71.5 390t-194.5 126t-194.5 -126 t-71.5 -390zM296 1245q44 69 75 125t75 141t73 123q35 46 79 46q25 0 44 -15q28 -23 28 -57q0 -33 -28 -70q-30 -38 -89 -90t-112.5 -100.5t-121.5 -120.5zM661 1245q44 69 75 125t75 141t73 123q35 46 78 46q26 0 45 -15q28 -23 28 -57q0 -33 -28 -70q-30 -38 -89 -89.5 t-113 -100.5t-122 -121z" />
<glyph unicode="&#x152;" horiz-adv-x="1901" d="M109 713q0 226 83 400t231 270t337 96q95 0 180 -31q164 -4 434 -4q273 0 387 6q-14 -134 -14 -242q0 -80 6 -127h-47q-15 133 -37.5 198t-75.5 94.5t-161 29.5h-68q-74 0 -107.5 -12t-46 -46.5t-12.5 -111.5v-483h88q102 0 136.5 52t43 106t11.5 71h47q-7 -83 -7 -159 l1 -91q0 -88 12 -250h-47q-2 13 -12 85t-56 108.5t-129 36.5h-88v-492q0 -77 12.5 -111.5t46 -46.5t107.5 -12h47q128 0 194.5 34t96 109t45.5 220h47q-6 -55 -6 -148q0 -116 14 -262q-127 6 -428 6q-287 0 -448 -4q-84 -31 -168 -31q-195 0 -341.5 88t-227 255.5 t-80.5 398.5zM313 721q0 -213 60 -375t163.5 -250t229.5 -88q57 0 113 22.5t92.5 69.5t36.5 117v1016q0 106 -71.5 157.5t-184.5 51.5q-131 0 -231 -91.5t-154 -255t-54 -374.5z" />
<glyph unicode="&#x153;" horiz-adv-x="1710" d="M98 526q0 190 58 314t158 182.5t229 58.5q117 0 208.5 -59.5t141.5 -181.5q54 117 146 180t212 63q175 0 269 -111.5t94 -338.5h-620q-7 -53 -7 -131q0 -135 44.5 -236t116.5 -155t152 -54q92 0 162 47.5t119 157.5l41 -16q-23 -72 -72.5 -134.5t-124 -101.5t-165.5 -39 q-128 0 -222.5 61t-147.5 172q-51 -118 -141.5 -175.5t-205.5 -57.5q-129 0 -229 58.5t-158 183t-58 313.5zM297 526q0 -263 66 -388.5t180 -125.5q113 0 179 125.5t66 388.5t-66 388.5t-179 125.5q-114 0 -180 -125t-66 -389zM991 672h426q3 103 -15.5 187.5t-59 134.5 t-99.5 50q-63 0 -116 -40t-89 -123.5t-47 -208.5z" />
<glyph unicode="&#x154;" horiz-adv-x="1327" d="M86 0v41q74 3 107.5 16t46 48t12.5 112v1016q0 77 -12.5 112t-46 48t-107.5 16v41q86 -6 250 -6q80 0 176.5 2t132.5 2q160 0 271 -46.5t167 -127t56 -182.5q0 -80 -37.5 -161.5t-127 -146t-233.5 -86.5l25 -4q92 -15 147 -45.5t87.5 -83.5t52.5 -141l51 -209 q13 -63 26.5 -98.5t32 -52.5t46.5 -17q34 0 56 17.5t56 60.5l31 -23q-48 -69 -95 -100t-124 -31q-84 0 -138 49t-82 173l-45 204q-24 107 -45.5 164.5t-65 92t-120.5 34.5h-195v-471q0 -77 12.5 -112t46 -48t107.5 -16v-41q-94 6 -260 6q-176 0 -262 -6zM442 729h138 q138 0 216 44t108 118t30 178q0 168 -80 254t-260 86q-64 0 -96 -14.5t-44 -51.5t-12 -110v-504zM481 1608q65 50 113.5 91.5t119 106t111.5 90.5q31 20 62 20q40 0 63 -34q11 -19 11 -38q0 -45 -54 -81q-41 -25 -113.5 -53t-141 -56t-157.5 -73z" />
<glyph unicode="&#x155;" horiz-adv-x="911" d="M59 0v43q58 0 91.5 13t49 45t15.5 89v641q0 95 -34.5 138t-121.5 43v43q64 -6 127 -6q130 0 213 28v-256q23 64 66.5 124t103.5 99t127 39q54 0 96.5 -21.5t66.5 -58.5t24 -81q0 -54 -32 -91.5t-85 -37.5q-45 0 -77 28.5t-32 77.5q0 67 70 111q-14 20 -43 20 q-81 0 -146 -62t-102 -153t-37 -170v-434q0 -95 54 -131.5t163 -36.5v-43q-252 8 -315 8q-54 0 -242 -8zM356 1245q44 69 75 125t75 141t73 123q35 46 78 46q25 0 45 -15q28 -23 28 -57q0 -33 -28 -70q-30 -38 -89 -89.5t-113 -100.5t-122 -121z" />
<glyph unicode="&#x156;" horiz-adv-x="1327" d="M86 0v41q74 3 107.5 16t46 48t12.5 112v1016q0 77 -12.5 112t-46 48t-107.5 16v41q86 -6 250 -6q80 0 176.5 2t132.5 2q160 0 271 -46.5t167 -127t56 -182.5q0 -80 -37.5 -161.5t-127 -146t-233.5 -86.5l25 -4q92 -15 147 -45.5t87.5 -83.5t52.5 -141l51 -209 q13 -63 26.5 -98.5t32 -52.5t46.5 -17q34 0 56 17.5t56 60.5l31 -23q-48 -69 -95 -100t-124 -31q-84 0 -138 49t-82 173l-45 204q-24 107 -45.5 164.5t-65 92t-120.5 34.5h-195v-471q0 -77 12.5 -112t46 -48t107.5 -16v-41q-94 6 -260 6q-176 0 -262 -6zM442 729h138 q138 0 216 44t108 118t30 178q0 168 -80 254t-260 86q-64 0 -96 -14.5t-44 -51.5t-12 -110v-504zM563 -250q0 46 33.5 77.5t81.5 31.5q59 0 96 -41.5t37 -102.5q0 -77 -36.5 -125.5t-131.5 -83.5l-14 37q53 16 90 50t37 79q-37 -32 -86 -32q-47 0 -77 29t-30 81z" />
<glyph unicode="&#x157;" horiz-adv-x="911" d="M-213 -250q0 46 33.5 77.5t81.5 31.5q59 0 96 -41.5t37 -102.5q0 -77 -36.5 -125.5t-131.5 -83.5l-14 37q53 16 90.5 50t36.5 79q-37 -32 -86 -32q-47 0 -77 29t-30 81zM59 0v43q58 0 91.5 13t49 45t15.5 89v641q0 95 -34.5 138t-121.5 43v43q64 -6 127 -6q130 0 213 28 v-256q23 64 66.5 124t103.5 99t127 39q54 0 96.5 -21.5t66.5 -58.5t24 -81q0 -54 -32 -91.5t-85 -37.5q-45 0 -77 28.5t-32 77.5q0 67 70 111q-14 20 -43 20q-81 0 -146 -62t-102 -153t-37 -170v-434q0 -95 54 -131.5t163 -36.5v-43q-252 8 -315 8q-54 0 -242 -8z" />
<glyph unicode="&#x158;" horiz-adv-x="1327" d="M86 0v41q74 3 107.5 16t46 48t12.5 112v1016q0 77 -12.5 112t-46 48t-107.5 16v41q86 -6 250 -6q80 0 176.5 2t132.5 2q160 0 271 -46.5t167 -127t56 -182.5q0 -80 -37.5 -161.5t-127 -146t-233.5 -86.5l25 -4q92 -15 147 -45.5t87.5 -83.5t52.5 -141l51 -209 q13 -63 26.5 -98.5t32 -52.5t46.5 -17q34 0 56 17.5t56 60.5l31 -23q-48 -69 -95 -100t-124 -31q-84 0 -138 49t-82 173l-45 204q-24 107 -45.5 164.5t-65 92t-120.5 34.5h-195v-471q0 -77 12.5 -112t46 -48t107.5 -16v-41q-94 6 -260 6q-176 0 -262 -6zM199 1868l10 28 q122 -25 241.5 -65t190.5 -78q59 38 155.5 78t194.5 65l11 -28q-132 -46 -233.5 -118.5t-149.5 -152.5h-37q-49 80 -150.5 152.5t-232.5 118.5zM442 729h138q138 0 216 44t108 118t30 178q0 168 -80 254t-260 86q-64 0 -96 -14.5t-44 -51.5t-12 -110v-504z" />
<glyph unicode="&#x159;" horiz-adv-x="911" d="M59 0v43q58 0 91.5 13t49 45t15.5 89v641q0 95 -34.5 138t-121.5 43v43q64 -6 127 -6q130 0 213 28v-256q23 64 66.5 124t103.5 99t127 39q54 0 96.5 -21.5t66.5 -58.5t24 -81q0 -54 -32 -91.5t-85 -37.5q-45 0 -77 28.5t-32 77.5q0 67 70 111q-14 20 -43 20 q-81 0 -146 -62t-102 -153t-37 -170v-434q0 -95 54 -131.5t163 -36.5v-43q-252 8 -315 8q-54 0 -242 -8zM102 1614l17 28q111 -38 216 -94t169 -110q52 55 134.5 110.5t168.5 93.5l16 -28q-117 -58 -208.5 -153t-133.5 -199h-37q-42 104 -133.5 199t-208.5 153z" />
<glyph unicode="&#x15a;" horiz-adv-x="1106" d="M129 -14q8 112 8 491h47q14 -208 102 -336.5t271 -128.5q70 0 130.5 29t98 90.5t37.5 153.5q0 79 -38.5 141.5t-104.5 114.5t-176 118q-122 73 -196 131t-121.5 138.5t-47.5 189.5q0 116 52.5 196t140 119.5t192.5 39.5q63 0 108.5 -10.5t75.5 -26t66 -39.5 q46 -29 70 -29q19 0 29 21.5t16 68.5h47q-10 -120 -10 -418h-47q-8 105 -45.5 194t-110 144.5t-180.5 55.5q-72 0 -129 -30t-89 -84t-32 -124q0 -111 67 -179t156.5 -122.5t120.5 -73.5q129 -81 204 -140.5t120 -138t45 -182.5q0 -126 -58 -213.5t-156.5 -131.5t-220.5 -44 q-98 0 -161 20.5t-119 55.5q-46 29 -70 29q-19 0 -29 -21.5t-16 -68.5h-47zM438 1608q65 50 113.5 91.5t119 106t111.5 90.5q31 20 62 20q40 0 63 -34q11 -19 11 -38q0 -45 -54 -81q-41 -25 -113.5 -53t-141 -56t-157.5 -73z" />
<glyph unicode="&#x15b;" horiz-adv-x="913" d="M113 -14q8 117 8 409h47q15 -127 43 -209t86 -128t156 -46q45 0 86.5 19.5t68.5 63t27 112.5q0 56 -28.5 100.5t-74.5 80t-129 87.5q-101 64 -154.5 105t-90.5 100t-37 139q0 87 41 146.5t109.5 88.5t152.5 29q72 0 129.5 -23t93.5 -52q22 -17 36 -17q36 0 46 90h47 q-8 -100 -8 -348h-47q-22 135 -87 223t-192 88q-74 0 -121 -41.5t-47 -115.5q0 -71 48.5 -118.5t117 -90.5t97.5 -62q94 -61 151.5 -108.5t93 -109t35.5 -140.5q0 -91 -47.5 -155.5t-127.5 -98t-175 -33.5q-91 0 -162 29q-40 20 -84 55q-8 8 -19 8q-30 0 -42 -77h-47z M340 1245q44 69 75 125t75 141t73 123q35 46 78 46q25 0 45 -15q28 -23 28 -57q0 -33 -28 -70q-30 -38 -89 -89.5t-113 -100.5t-122 -121z" />
<glyph unicode="&#x15c;" horiz-adv-x="1106" d="M129 -14q8 112 8 491h47q14 -208 102 -336.5t271 -128.5q70 0 130.5 29t98 90.5t37.5 153.5q0 79 -38.5 141.5t-104.5 114.5t-176 118q-122 73 -196 131t-121.5 138.5t-47.5 189.5q0 116 52.5 196t140 119.5t192.5 39.5q63 0 108.5 -10.5t75.5 -26t66 -39.5 q46 -29 70 -29q19 0 29 21.5t16 68.5h47q-10 -120 -10 -418h-47q-8 105 -45.5 194t-110 144.5t-180.5 55.5q-72 0 -129 -30t-89 -84t-32 -124q0 -111 67 -179t156.5 -122.5t120.5 -73.5q129 -81 204 -140.5t120 -138t45 -182.5q0 -126 -58 -213.5t-156.5 -131.5t-220.5 -44 q-98 0 -161 20.5t-119 55.5q-46 29 -70 29q-19 0 -29 -21.5t-16 -68.5h-47zM162 1606q131 45 232.5 117.5t150.5 152.5h37q48 -80 149.5 -152.5t233.5 -117.5l-11 -29q-124 26 -243 65.5t-189 77.5q-58 -38 -154.5 -77.5t-195.5 -65.5z" />
<glyph unicode="&#x15d;" horiz-adv-x="913" d="M106 1290q117 58 208.5 153t133.5 199h37q42 -104 133.5 -199t208.5 -153l-16 -28q-111 38 -216 93.5t-169 110.5q-52 -55 -134.5 -110.5t-168.5 -93.5zM113 -14q8 117 8 409h47q15 -127 43 -209t86 -128t156 -46q45 0 86.5 19.5t68.5 63t27 112.5q0 56 -28.5 100.5 t-74.5 80t-129 87.5q-101 64 -154.5 105t-90.5 100t-37 139q0 87 41 146.5t109.5 88.5t152.5 29q72 0 129.5 -23t93.5 -52q22 -17 36 -17q36 0 46 90h47q-8 -100 -8 -348h-47q-22 135 -87 223t-192 88q-74 0 -121 -41.5t-47 -115.5q0 -71 48.5 -118.5t117 -90.5t97.5 -62 q94 -61 151.5 -108.5t93 -109t35.5 -140.5q0 -91 -47.5 -155.5t-127.5 -98t-175 -33.5q-91 0 -162 29q-40 20 -84 55q-8 8 -19 8q-30 0 -42 -77h-47z" />
<glyph unicode="&#x15e;" horiz-adv-x="1106" d="M129 -14q8 112 8 491h47q14 -208 102 -336.5t271 -128.5q70 0 130.5 29t98 90.5t37.5 153.5q0 79 -38.5 141.5t-104.5 114.5t-176 118q-122 73 -196 131t-121.5 138.5t-47.5 189.5q0 116 52.5 196t140 119.5t192.5 39.5q63 0 108.5 -10.5t75.5 -26t66 -39.5 q46 -29 70 -29q19 0 29 21.5t16 68.5h47q-10 -120 -10 -418h-47q-8 105 -45.5 194t-110 144.5t-180.5 55.5q-72 0 -129 -30t-89 -84t-32 -124q0 -111 67 -179t156.5 -122.5t120.5 -73.5q129 -81 204 -140.5t120 -138t45 -182.5q0 -126 -58 -213.5t-156.5 -131.5t-220.5 -44 q-98 0 -161 20.5t-119 55.5q-46 29 -70 29q-19 0 -29 -21.5t-16 -68.5h-47zM400 -362l8 36q42 -6 78 -6q74 0 129 21.5t55 70.5q0 58 -86 58q-58 0 -100 -15l69 207h56l-54 -157q61 14 121 14q58 0 91.5 -25.5t33.5 -70.5q0 -54 -35.5 -89t-88.5 -51t-107 -16 q-105 0 -170 23z" />
<glyph unicode="&#x15f;" horiz-adv-x="913" d="M113 -14q8 117 8 409h47q15 -127 43 -209t86 -128t156 -46q45 0 86.5 19.5t68.5 63t27 112.5q0 56 -28.5 100.5t-74.5 80t-129 87.5q-101 64 -154.5 105t-90.5 100t-37 139q0 87 41 146.5t109.5 88.5t152.5 29q72 0 129.5 -23t93.5 -52q22 -17 36 -17q36 0 46 90h47 q-8 -100 -8 -348h-47q-22 135 -87 223t-192 88q-74 0 -121 -41.5t-47 -115.5q0 -71 48.5 -118.5t117 -90.5t97.5 -62q94 -61 151.5 -108.5t93 -109t35.5 -140.5q0 -91 -47.5 -155.5t-127.5 -98t-175 -33.5q-91 0 -162 29q-40 20 -84 55q-8 8 -19 8q-30 0 -42 -77h-47z M251 -362l9 36q42 -6 77 -6q74 0 129.5 21.5t55.5 70.5q0 58 -86 58q-59 0 -101 -15l70 209h55l-53 -159q61 14 121 14q58 0 91.5 -25.5t33.5 -70.5q0 -54 -35.5 -89t-88.5 -51t-108 -16q-105 0 -170 23z" />
<glyph unicode="&#x160;" horiz-adv-x="1106" d="M129 -14q8 112 8 491h47q14 -208 102 -336.5t271 -128.5q70 0 130.5 29t98 90.5t37.5 153.5q0 79 -38.5 141.5t-104.5 114.5t-176 118q-122 73 -196 131t-121.5 138.5t-47.5 189.5q0 116 52.5 196t140 119.5t192.5 39.5q63 0 108.5 -10.5t75.5 -26t66 -39.5 q46 -29 70 -29q19 0 29 21.5t16 68.5h47q-10 -120 -10 -418h-47q-8 105 -45.5 194t-110 144.5t-180.5 55.5q-72 0 -129 -30t-89 -84t-32 -124q0 -111 67 -179t156.5 -122.5t120.5 -73.5q129 -81 204 -140.5t120 -138t45 -182.5q0 -126 -58 -213.5t-156.5 -131.5t-220.5 -44 q-98 0 -161 20.5t-119 55.5q-46 29 -70 29q-19 0 -29 -21.5t-16 -68.5h-47zM156 1868l10 28q122 -25 241.5 -65t190.5 -78q59 38 155.5 78t194.5 65l11 -28q-132 -46 -233.5 -118.5t-149.5 -152.5h-37q-49 80 -150.5 152.5t-232.5 118.5z" />
<glyph unicode="&#x161;" horiz-adv-x="913" d="M86 1614l17 28q111 -38 216 -94t169 -110q52 55 134.5 110.5t168.5 93.5l16 -28q-117 -58 -208.5 -153t-133.5 -199h-37q-42 104 -133.5 199t-208.5 153zM113 -14q8 117 8 409h47q15 -127 43 -209t86 -128t156 -46q45 0 86.5 19.5t68.5 63t27 112.5q0 56 -28.5 100.5 t-74.5 80t-129 87.5q-101 64 -154.5 105t-90.5 100t-37 139q0 87 41 146.5t109.5 88.5t152.5 29q72 0 129.5 -23t93.5 -52q22 -17 36 -17q36 0 46 90h47q-8 -100 -8 -348h-47q-22 135 -87 223t-192 88q-74 0 -121 -41.5t-47 -115.5q0 -71 48.5 -118.5t117 -90.5t97.5 -62 q94 -61 151.5 -108.5t93 -109t35.5 -140.5q0 -91 -47.5 -155.5t-127.5 -98t-175 -33.5q-91 0 -162 29q-40 20 -84 55q-8 8 -19 8q-30 0 -42 -77h-47z" />
<glyph unicode="&#x162;" horiz-adv-x="1272" d="M59 1450q170 -6 578 -6q405 0 575 6q-14 -146 -14 -262q0 -103 6 -168h-47q-16 159 -40.5 235.5t-86 112t-188.5 35.5h-111v-1165q0 -85 16 -124.5t58 -54.5t133 -18v-41q-108 6 -301 6q-205 0 -303 -6v41q91 3 133 18t58 54.5t16 124.5v1165h-111q-127 0 -188.5 -35.5 t-86 -112t-40.5 -235.5h-47q6 65 6 168q0 120 -15 262zM451 -362l8 36q42 -6 78 -6q74 0 129 21.5t55 70.5q0 58 -86 58q-58 0 -100 -15l69 207h56l-54 -157q61 14 121 14q58 0 91.5 -25.5t33.5 -70.5q0 -54 -35.5 -89t-88.5 -51t-107 -16q-105 0 -170 23z" />
<glyph unicode="&#x163;" horiz-adv-x="725" d="M8 1012v41h197v313q115 3 184 29v-342h303v-41h-303v-793q0 -93 33 -133.5t98 -40.5q64 0 109 51t76 168l40 -10q-50 -283 -266 -283q-69 0 -114 16.5t-80 51.5q-44 45 -62 110.5t-18 176.5v686h-197zM263 -362l9 36q42 -6 77 -6q74 0 129.5 21.5t55.5 70.5q0 58 -86 58 q-59 0 -101 -15l70 209h55l-53 -159q61 14 121 14q58 0 91.5 -25.5t33.5 -70.5q0 -54 -35.5 -89t-88.5 -51t-108 -16q-105 0 -170 23z" />
<glyph unicode="&#x164;" horiz-adv-x="1272" d="M59 1450q170 -6 578 -6q405 0 575 6q-14 -146 -14 -262q0 -103 6 -168h-47q-16 159 -40.5 235.5t-86 112t-188.5 35.5h-111v-1165q0 -85 16 -124.5t58 -54.5t133 -18v-41q-108 6 -301 6q-205 0 -303 -6v41q91 3 133 18t58 54.5t16 124.5v1165h-111q-127 0 -188.5 -35.5 t-86 -112t-40.5 -235.5h-47q6 65 6 168q0 120 -15 262zM230 1868l10 28q122 -25 241.5 -65t190.5 -78q59 38 155.5 78t194.5 65l11 -28q-132 -46 -233.5 -118.5t-149.5 -152.5h-37q-49 80 -150.5 152.5t-232.5 118.5z" />
<glyph unicode="&#x165;" horiz-adv-x="725" d="M8 1012v41h197v313q115 3 184 29v-342h303v-41h-303v-793q0 -93 33 -133.5t98 -40.5q64 0 109 51t76 168l40 -10q-50 -283 -266 -283q-69 0 -114 16.5t-80 51.5q-44 45 -62 110.5t-18 176.5v686h-197zM529 1159q41 237 41 297q0 43 -8.5 62.5t-32.5 19.5v43q12 -1 33 -1 q61 0 122 24q4 -11 7.5 -38t3.5 -46q0 -54 -30.5 -131.5t-107.5 -237.5z" />
<glyph unicode="&#x166;" horiz-adv-x="1284" d="M63 1450q170 -6 578 -6q405 0 575 6q-14 -146 -14 -262q0 -103 6 -168h-47q-16 159 -40.5 235.5t-86 112t-188.5 35.5h-111v-653h328v-41h-328v-471q0 -85 16 -124.5t58 -54.5t133 -18v-41q-108 6 -301 6q-205 0 -303 -6v41q91 3 133 18t58 54.5t16 124.5v471h-330v41 h330v653h-111q-127 0 -188.5 -35.5t-86 -112t-40.5 -235.5h-47q6 65 6 168q0 120 -15 262z" />
<glyph unicode="&#x167;" horiz-adv-x="770" d="M14 821v41h197v150h-197v41h197v313q115 3 184 29v-342h303v-41h-303v-150h303v-41h-303v-602q0 -93 33 -133.5t98 -40.5q64 0 109 51t76 168l40 -10q-50 -283 -266 -283q-69 0 -114 16.5t-80 51.5q-44 45 -62 110.5t-18 176.5v495h-197z" />
<glyph unicode="&#x168;" horiz-adv-x="1397" d="M55 1409v41q87 -6 262 -6q165 0 261 6v-41q-74 -3 -107.5 -16t-46 -48t-12.5 -112v-678q0 -164 22 -272t92.5 -174t208.5 -66q217 0 305 139t88 391v639q0 76 -17.5 117t-57 59t-111.5 21v41q74 -6 209 -6q123 0 190 6v-41q-71 -3 -105.5 -20.5t-47 -57.5t-12.5 -119 v-616q0 -147 -19.5 -252.5t-64.5 -181.5q-52 -88 -151.5 -139.5t-223.5 -51.5q-225 0 -344 111q-61 57 -93.5 120.5t-45.5 153.5t-13 234v643q0 77 -12.5 112t-46 48t-107.5 16zM328 1630q6 66 38 115t82 75.5t107 26.5q51 0 96.5 -20t138.5 -78.5t163 -58.5q95 0 127 114 l30 -6q-6 -66 -38 -115t-81.5 -75.5t-107.5 -26.5q-51 0 -96 20.5t-138.5 79t-162.5 58.5q-96 0 -127 -115z" />
<glyph unicode="&#x169;" d="M33 1012v43q64 -6 127 -6q129 0 213 28v-805q0 -78 9 -126t43 -78.5t103 -30.5q79 0 142 49t99 134t36 188v423q0 95 -34.5 138t-121.5 43v43q64 -6 127 -6q130 0 213 28v-856q0 -95 34.5 -137.5t121.5 -42.5v-43q-64 6 -127 6q-132 0 -213 -29v242q-50 -126 -139.5 -186 t-196.5 -60q-138 0 -213 78q-37 40 -52.5 104t-15.5 164v514q0 95 -34 138t-121 43zM178 1362q31 108 95.5 159.5t148.5 51.5q51 0 88 -18.5t101 -67.5t120 -49q93 0 158 108l29 -14q-31 -108 -95.5 -159.5t-146.5 -51.5q-53 0 -90.5 19t-101.5 68.5t-119 49.5 q-91 0 -158 -110z" />
<glyph unicode="&#x16a;" horiz-adv-x="1397" d="M55 1409v41q87 -6 262 -6q165 0 261 6v-41q-74 -3 -107.5 -16t-46 -48t-12.5 -112v-678q0 -164 22 -272t92.5 -174t208.5 -66q217 0 305 139t88 391v639q0 76 -17.5 117t-57 59t-111.5 21v41q74 -6 209 -6q123 0 190 6v-41q-71 -3 -105.5 -20.5t-47 -57.5t-12.5 -119 v-616q0 -147 -19.5 -252.5t-64.5 -181.5q-52 -88 -151.5 -139.5t-223.5 -51.5q-225 0 -344 111q-61 57 -93.5 120.5t-45.5 153.5t-13 234v643q0 77 -12.5 112t-46 48t-107.5 16zM360 1677v52h721v-52h-721z" />
<glyph unicode="&#x16b;" d="M33 1012v43q64 -6 127 -6q129 0 213 28v-805q0 -78 9 -126t43 -78.5t103 -30.5q79 0 142 49t99 134t36 188v423q0 95 -34.5 138t-121.5 43v43q64 -6 127 -6q130 0 213 28v-856q0 -95 34.5 -137.5t121.5 -42.5v-43q-64 6 -127 6q-132 0 -213 -29v242q-50 -126 -139.5 -186 t-196.5 -60q-138 0 -213 78q-37 40 -52.5 104t-15.5 164v514q0 95 -34 138t-121 43zM247 1407v51h639v-51h-639z" />
<glyph unicode="&#x16c;" horiz-adv-x="1397" d="M55 1409v41q87 -6 262 -6q165 0 261 6v-41q-74 -3 -107.5 -16t-46 -48t-12.5 -112v-678q0 -164 22 -272t92.5 -174t208.5 -66q217 0 305 139t88 391v639q0 76 -17.5 117t-57 59t-111.5 21v41q74 -6 209 -6q123 0 190 6v-41q-71 -3 -105.5 -20.5t-47 -57.5t-12.5 -119 v-616q0 -147 -19.5 -252.5t-64.5 -181.5q-52 -88 -151.5 -139.5t-223.5 -51.5q-225 0 -344 111q-61 57 -93.5 120.5t-45.5 153.5t-13 234v643q0 77 -12.5 112t-46 48t-107.5 16zM313 1839l27 21q56 -55 151 -93t230 -38q134 0 230 38.5t153 94.5l24 -23q-59 -97 -162 -167 t-245 -70t-245 70t-163 167z" />
<glyph unicode="&#x16d;" d="M33 1012v43q64 -6 127 -6q129 0 213 28v-805q0 -78 9 -126t43 -78.5t103 -30.5q79 0 142 49t99 134t36 188v423q0 95 -34.5 138t-121.5 43v43q64 -6 127 -6q130 0 213 28v-856q0 -95 34.5 -137.5t121.5 -42.5v-43q-64 6 -127 6q-132 0 -213 -29v242q-50 -126 -139.5 -186 t-196.5 -60q-138 0 -213 78q-37 40 -52.5 104t-15.5 164v514q0 95 -34 138t-121 43zM205 1595l34 19q120 -197 332 -197q120 0 201 56.5t131 140.5l35 -19q-51 -122 -144.5 -210.5t-222.5 -88.5q-128 0 -221.5 88.5t-144.5 210.5z" />
<glyph unicode="&#x16e;" horiz-adv-x="1397" d="M55 1409v41q87 -6 262 -6q165 0 261 6v-41q-74 -3 -107.5 -16t-46 -48t-12.5 -112v-678q0 -164 22 -272t92.5 -174t208.5 -66q217 0 305 139t88 391v639q0 76 -17.5 117t-57 59t-111.5 21v41q74 -6 209 -6q123 0 190 6v-41q-71 -3 -105.5 -20.5t-47 -57.5t-12.5 -119 v-616q0 -147 -19.5 -252.5t-64.5 -181.5q-52 -88 -151.5 -139.5t-223.5 -51.5q-225 0 -344 111q-61 57 -93.5 120.5t-45.5 153.5t-13 234v643q0 77 -12.5 112t-46 48t-107.5 16zM525 1831q0 55 27 97.5t72 65.5t97 23q54 0 99.5 -23t72.5 -65.5t27 -97.5q0 -57 -27 -100 t-72.5 -66t-99.5 -23q-53 0 -97.5 23t-71.5 66t-27 100zM582 1829q0 -46 20.5 -78.5t52.5 -49t66 -16.5q36 0 68.5 16.5t53 49t20.5 78.5q0 45 -20.5 78t-53.5 50t-68 17q-34 0 -66 -17t-52.5 -50t-20.5 -78z" />
<glyph unicode="&#x16f;" d="M33 1012v43q64 -6 127 -6q129 0 213 28v-805q0 -78 9 -126t43 -78.5t103 -30.5q79 0 142 49t99 134t36 188v423q0 95 -34.5 138t-121.5 43v43q64 -6 127 -6q130 0 213 28v-856q0 -95 34.5 -137.5t121.5 -42.5v-43q-64 6 -127 6q-132 0 -213 -29v242q-50 -126 -139.5 -186 t-196.5 -60q-138 0 -213 78q-37 40 -52.5 104t-15.5 164v514q0 95 -34 138t-121 43zM377 1434q0 55 27 97.5t72 65.5t97 23q54 0 99.5 -23t72.5 -65.5t27 -97.5q0 -57 -27 -100t-72.5 -66t-99.5 -23q-53 0 -97.5 23t-71.5 66t-27 100zM434 1432q0 -46 20.5 -78.5t52.5 -49 t66 -16.5q36 0 68.5 16.5t53 49t20.5 78.5q0 45 -20.5 78t-53.5 50t-68 17q-34 0 -66 -17t-52.5 -50t-20.5 -78z" />
<glyph unicode="&#x170;" horiz-adv-x="1397" d="M55 1409v41q87 -6 262 -6q165 0 261 6v-41q-74 -3 -107.5 -16t-46 -48t-12.5 -112v-678q0 -164 22 -272t92.5 -174t208.5 -66q217 0 305 139t88 391v639q0 76 -17.5 117t-57 59t-111.5 21v41q74 -6 209 -6q123 0 190 6v-41q-71 -3 -105.5 -20.5t-47 -57.5t-12.5 -119 v-616q0 -147 -19.5 -252.5t-64.5 -181.5q-52 -88 -151.5 -139.5t-223.5 -51.5q-225 0 -344 111q-61 57 -93.5 120.5t-45.5 153.5t-13 234v643q0 77 -12.5 112t-46 48t-107.5 16zM418 1606q47 47 95.5 111t79.5 103.5t64 67.5q34 30 69 30t56 -26q19 -21 19 -47 q0 -41 -43 -78q-28 -22 -62 -41.5t-119 -62.5t-141 -82zM801 1606q47 47 95.5 111t79.5 103.5t64 67.5q34 30 69 30t56 -26q19 -21 19 -47q0 -41 -43 -78q-28 -22 -62 -41.5t-119 -62.5t-141 -82z" />
<glyph unicode="&#x171;" d="M33 1012v43q64 -6 127 -6q129 0 213 28v-805q0 -78 9 -126t43 -78.5t103 -30.5q79 0 142 49t99 134t36 188v423q0 95 -34.5 138t-121.5 43v43q64 -6 127 -6q130 0 213 28v-856q0 -95 34.5 -137.5t121.5 -42.5v-43q-64 6 -127 6q-132 0 -213 -29v242q-50 -126 -139.5 -186 t-196.5 -60q-138 0 -213 78q-37 40 -52.5 104t-15.5 164v514q0 95 -34 138t-121 43zM302 1245q44 69 75 125t75 141t73 123q35 46 79 46q25 0 44 -15q28 -23 28 -57q0 -33 -28 -70q-30 -38 -89 -90t-112.5 -100.5t-121.5 -120.5zM667 1245q44 69 75 125t75 141t73 123 q35 46 78 46q26 0 45 -15q28 -23 28 -57q0 -33 -28 -70q-30 -38 -89 -89.5t-113 -100.5t-122 -121z" />
<glyph unicode="&#x172;" horiz-adv-x="1397" d="M55 1409v41q87 -6 262 -6q165 0 261 6v-41q-74 -3 -107.5 -16t-46 -48t-12.5 -112v-678q0 -164 22 -272t92.5 -174t208.5 -66q217 0 305 139t88 391v639q0 76 -17.5 117t-57 59t-111.5 21v41q74 -6 209 -6q123 0 190 6v-41q-71 -3 -105.5 -20.5t-47 -57.5t-12.5 -119 v-616q0 -147 -19.5 -252.5t-64.5 -181.5q-52 -88 -151.5 -139.5t-223.5 -51.5q-225 0 -344 111q-61 57 -93.5 120.5t-45.5 153.5t-13 234v643q0 77 -12.5 112t-46 48t-107.5 16zM540 -252q0 80 73.5 147t209.5 111h78q-111 -30 -161 -86t-50 -117q0 -41 23.5 -65.5 t64.5 -24.5q37 0 70.5 19.5t54.5 48.5l30 -27q-91 -139 -231 -139q-73 0 -117.5 36.5t-44.5 96.5z" />
<glyph unicode="&#x173;" d="M33 1012v43q64 -6 127 -6q129 0 213 28v-805q0 -78 9 -126t43 -78.5t103 -30.5q79 0 142 49t99 134t36 188v423q0 95 -34.5 138t-121.5 43v43q64 -6 127 -6q130 0 213 28v-856q0 -95 34.5 -137.5t121.5 -42.5v-43q-64 6 -127 6q-132 0 -213 -29v242q-50 -126 -139.5 -186 t-196.5 -60q-138 0 -213 78q-37 40 -52.5 104t-15.5 164v514q0 95 -34 138t-121 43zM770 -252q0 80 73.5 147t209.5 111h65q-5 -5 -20 -10q-178 -76 -178 -193q0 -41 23.5 -65.5t64.5 -24.5q37 0 70.5 19.5t54.5 48.5l30 -27q-91 -139 -231 -139q-73 0 -117.5 36.5 t-44.5 96.5z" />
<glyph unicode="&#x174;" horiz-adv-x="1853" d="M-14 1409v41q82 -6 219 -6q147 0 221 6v-41q-54 -4 -77 -20t-23 -51q0 -33 22 -101l300 -913l248 793l-54 161q-42 127 -121 131v41q74 -6 199 -6q175 0 262 6v-41q-53 -2 -81 -7.5t-43.5 -20.5t-15.5 -45q0 -34 21 -99l294 -911l253 792q33 104 33 165q0 68 -41.5 96 t-133.5 30v41q117 -6 236 -6q92 0 154 6v-41q-114 -25 -162 -178l-387 -1241h-17h-16l-356 1055l-326 -1055h-16h-17l-434 1288q-44 126 -141 131zM549 1606q131 45 232.5 117.5t150.5 152.5h37q48 -80 149.5 -152.5t233.5 -117.5l-11 -29q-124 26 -243 65.5t-189 77.5 q-58 -38 -154.5 -77.5t-195.5 -65.5z" />
<glyph unicode="&#x175;" horiz-adv-x="1577" d="M0 1012v43q86 -13 180 -13q91 0 266 13v-43q-67 0 -99.5 -8t-42 -45t19.5 -119l205 -589l294 812h47l314 -829l192 587q19 60 19 93q0 49 -35.5 72t-116.5 28v41q108 -6 172 -6q91 0 156 6v-41q-43 -5 -76 -37t-57 -107l-297 -880h-35l-325 824l-292 -824h-34l-336 907 q-28 72 -58 93.5t-61 21.5zM481 1290q117 58 208.5 153t133.5 199h37q42 -104 133.5 -199t208.5 -153l-16 -28q-111 38 -216 93.5t-169 110.5q-52 -55 -134.5 -110.5t-168.5 -93.5z" />
<glyph unicode="&#x176;" horiz-adv-x="1210" d="M-6 1407v43q80 -6 180 -6q199 0 287 6v-43q-144 0 -144 -79q0 -30 21 -71l341 -653l261 520q56 113 56 176q0 58 -45 82.5t-136 26.5v41q117 -6 236 -6q92 0 153 6v-41q-41 -9 -80 -51.5t-84 -130.5l-321 -637v-373q0 -77 12.5 -112t46 -48t107.5 -16v-41q-96 6 -260 6 q-176 0 -263 -6v41q74 3 107.5 16t46 48t12.5 112v309l-415 766q-38 69 -65.5 92t-53.5 23zM222 1606q131 45 232.5 117.5t150.5 152.5h37q48 -80 149.5 -152.5t233.5 -117.5l-11 -29q-124 26 -243 65.5t-189 77.5q-58 -38 -154.5 -77.5t-195.5 -65.5z" />
<glyph unicode="&#x177;" horiz-adv-x="1032" d="M-8 1012v43q96 -13 201 -13q88 0 266 13v-43q-50 0 -78 -3.5t-46.5 -19t-18.5 -48.5q0 -37 26 -101l247 -612l226 593q22 60 22 94q0 48 -36.5 71t-116.5 28v41q108 -6 172 -6q91 0 156 6v-41q-41 -5 -73 -37t-60 -107l-336 -880l-70 -178q-39 -101 -88 -144 q-58 -53 -160 -53q-61 0 -100 32.5t-39 90.5q0 49 29 78.5t80 29.5q45 0 74.5 -25t29.5 -71q0 -61 -55 -92q4 -2 12 -2q113 0 174 160l73 187l-372 894q-35 71 -69.5 93t-69.5 22zM159 1290q117 58 208.5 153t133.5 199h37q42 -104 133.5 -199t208.5 -153l-16 -28 q-111 38 -216 93.5t-169 110.5q-52 -55 -134.5 -110.5t-168.5 -93.5z" />
<glyph unicode="&#x178;" horiz-adv-x="1210" d="M-6 1407v43q80 -6 180 -6q199 0 287 6v-43q-144 0 -144 -79q0 -30 21 -71l341 -653l261 520q56 113 56 176q0 58 -45 82.5t-136 26.5v41q117 -6 236 -6q92 0 153 6v-41q-41 -9 -80 -51.5t-84 -130.5l-321 -637v-373q0 -77 12.5 -112t46 -48t107.5 -16v-41q-96 6 -260 6 q-176 0 -263 -6v41q74 3 107.5 16t46 48t12.5 112v309l-415 766q-38 69 -65.5 92t-53.5 23zM287 1700q0 31 16 58.5t43.5 44t59.5 16.5q31 0 58.5 -16.5t44 -44t16.5 -58.5q0 -32 -16.5 -59.5t-44 -43.5t-58.5 -16q-49 0 -84 35t-35 84zM721 1700q0 31 16 58.5t43.5 44 t59.5 16.5q31 0 58.5 -16.5t44 -44t16.5 -58.5q0 -32 -16.5 -59.5t-43.5 -43.5t-59 -16q-49 0 -84 35t-35 84z" />
<glyph unicode="&#x179;" horiz-adv-x="1217" d="M86 0v41l854 1362h-430q-128 0 -194.5 -36t-96 -115t-45.5 -232h-47q6 65 6 168q0 116 -14 262q151 -6 510 -6q348 0 497 6v-41l-847 -1362h432q128 0 194.5 36t96 115t45.5 232h47q-7 -75 -7 -168q0 -106 15 -262q-152 6 -510 6q-350 0 -506 -6zM479 1608 q65 50 113.5 91.5t119 106t111.5 90.5q31 20 62 20q40 0 63 -34q11 -19 11 -38q0 -45 -54 -81q-41 -25 -113.5 -53t-141 -56t-157.5 -73z" />
<glyph unicode="&#x17a;" horiz-adv-x="975" d="M78 -10l592 1034h-226q-92 0 -151 -33t-91.5 -105.5t-41.5 -191.5h-47q0 271 -9 369q161 -8 381 -8q196 0 414 10l-592 -1034h225q126 0 199 78.5t86 250.5h47q0 -267 8 -368q-160 8 -380 8q-196 0 -414 -10zM393 1245q44 69 75 125t75 141t73 123q35 46 78 46 q25 0 45 -15q28 -23 28 -57q0 -33 -28 -70q-30 -38 -89 -89.5t-113 -100.5t-122 -121z" />
<glyph unicode="&#x17b;" horiz-adv-x="1217" d="M86 0v41l854 1362h-430q-128 0 -194.5 -36t-96 -115t-45.5 -232h-47q6 65 6 168q0 116 -14 262q151 -6 510 -6q348 0 497 6v-41l-847 -1362h432q128 0 194.5 36t96 115t45.5 232h47q-7 -75 -7 -168q0 -106 15 -262q-152 6 -510 6q-350 0 -506 -6zM473 1833q0 35 17.5 65 t48 48t65.5 18t65 -18t48 -48t18 -65t-18 -65.5t-48 -48t-65 -17.5t-65.5 17.5t-48 48t-17.5 65.5z" />
<glyph unicode="&#x17c;" horiz-adv-x="975" d="M78 -10l592 1034h-226q-92 0 -151 -33t-91.5 -105.5t-41.5 -191.5h-47q0 271 -9 369q161 -8 381 -8q196 0 414 10l-592 -1034h225q126 0 199 78.5t86 250.5h47q0 -267 8 -368q-160 8 -380 8q-196 0 -414 -10zM389 1436q0 35 17.5 65t48 48t65.5 18t65 -18t48 -48t18 -65 t-18 -65.5t-48 -48t-65 -17.5t-65.5 17.5t-48 48t-17.5 65.5z" />
<glyph unicode="&#x17d;" horiz-adv-x="1217" d="M86 0v41l854 1362h-430q-128 0 -194.5 -36t-96 -115t-45.5 -232h-47q6 65 6 168q0 116 -14 262q151 -6 510 -6q348 0 497 6v-41l-847 -1362h432q128 0 194.5 36t96 115t45.5 232h47q-7 -75 -7 -168q0 -106 15 -262q-152 6 -510 6q-350 0 -506 -6zM197 1868l10 28 q122 -25 241.5 -65t190.5 -78q59 38 155.5 78t194.5 65l11 -28q-132 -46 -233.5 -118.5t-149.5 -152.5h-37q-49 80 -150.5 152.5t-232.5 118.5z" />
<glyph unicode="&#x17e;" horiz-adv-x="975" d="M78 -10l592 1034h-226q-92 0 -151 -33t-91.5 -105.5t-41.5 -191.5h-47q0 271 -9 369q161 -8 381 -8q196 0 414 10l-592 -1034h225q126 0 199 78.5t86 250.5h47q0 -267 8 -368q-160 8 -380 8q-196 0 -414 -10zM139 1614l17 28q111 -38 216 -94t169 -110q52 55 134.5 110.5 t168.5 93.5l16 -28q-117 -58 -208.5 -153t-133.5 -199h-37q-42 104 -133.5 199t-208.5 153z" />
<glyph unicode="&#x192;" horiz-adv-x="940" d="M10 -276q0 42 26 69t70 27q41 0 67 -26.5t26 -65.5q0 -48 -33 -82q77 9 110 49q24 26 33 67q10 48 10 105v1145h-245v41h245v2q0 122 10 203t32.5 137.5t62.5 103.5q40 48 104.5 75.5t139.5 27.5q71 0 126 -25t85 -66.5t30 -91.5q0 -44 -28.5 -74t-75.5 -30 q-50 0 -80.5 27t-30.5 75q0 36 22.5 63.5t65.5 41.5q-6 19 -36.5 34t-71.5 15q-46 0 -80 -20.5t-53 -55.5q-17 -30 -25 -79.5t-10 -127.5t-2 -233v-2h342v-41h-342v-776q0 -166 -23 -291t-86 -205q-47 -61 -114 -93t-134 -32t-102 31t-35 78z" />
<glyph unicode="&#x2c6;" horiz-adv-x="823" d="M51 1290q117 58 208.5 153t133.5 199h37q42 -104 133.5 -199t208.5 -153l-16 -28q-111 38 -216 93.5t-169 110.5q-52 -55 -134.5 -110.5t-168.5 -93.5z" />
<glyph unicode="&#x2da;" horiz-adv-x="539" d="M72 1434q0 55 27 97.5t72 65.5t97 23q54 0 99.5 -23t72.5 -65.5t27 -97.5q0 -57 -27 -100t-72.5 -66t-99.5 -23q-53 0 -97.5 23t-71.5 66t-27 100zM129 1432q0 -46 20.5 -78.5t52.5 -49t66 -16.5q36 0 68.5 16.5t53 49t20.5 78.5q0 45 -20.5 78t-53.5 50t-68 17 q-34 0 -66 -17t-52.5 -50t-20.5 -78z" />
<glyph unicode="&#x2dc;" horiz-adv-x="842" d="M51 1362q31 108 95.5 159.5t148.5 51.5q51 0 88 -18.5t101 -67.5t120 -49q93 0 158 108l29 -14q-31 -108 -95.5 -159.5t-146.5 -51.5q-53 0 -90.5 19t-101.5 68.5t-119 49.5q-91 0 -158 -110z" />
<glyph unicode="&#x3a9;" horiz-adv-x="1462" d="M141 967q0 160 68.5 275t200.5 176t321 61t321 -61t200.5 -176t68.5 -275q0 -165 -61.5 -293t-196 -318.5t-197.5 -308.5h99q101 0 161 32.5t91 106t43 203.5h47q-7 -65 -7 -147q0 -98 15 -242q-60 6 -209 6q-50 0 -136.5 -2.5t-154.5 -3.5v33q114 170 207.5 400.5 t93.5 492.5q0 253 -90 384.5t-295 131.5q-204 0 -294.5 -131.5t-90.5 -384.5q0 -262 93.5 -492.5t207.5 -400.5v-33q-68 1 -154.5 3.5t-136.5 2.5q-149 0 -209 -6q15 131 15 242q0 92 -6 147h47q11 -130 42 -203.5t91 -106t162 -32.5h98q-63 119 -198 310t-196 318.5 t-61 291.5z" />
<glyph unicode="&#x3c0;" horiz-adv-x="1235" d="M51 608q37 148 97 244.5t162 148.5t261 52h590v-172h-358l-62 -537q-2 -24 -2 -34q0 -120 103 -120q83 0 138.5 62.5t94.5 206.5l39 -8q-33 -172 -107 -326t-200 -154q-129 0 -129 184q0 45 6 91l80 635h-223q-56 -556 -166 -830q-15 -36 -46 -58t-73 -22q-40 0 -62 21.5 t-22 56.5q0 25 11.5 49.5t34 54t48.5 60.5q59 75 104.5 155t83.5 208.5t51 304.5h-77q-91 0 -150.5 -21t-106.5 -81.5t-85 -178.5z" />
<glyph unicode="&#x401;" horiz-adv-x="1247" d="M86 0v41q74 3 107.5 16t46 48t12.5 112v1016q0 77 -12.5 112t-46 48t-107.5 16v41q201 -6 594 -6q301 0 428 6q-14 -134 -14 -242q0 -80 6 -127h-47q-15 133 -37.5 198t-76 94.5t-161.5 29.5h-170q-74 0 -107.5 -12t-46 -46.5t-12.5 -111.5v-483h136q103 0 137 61.5 t42 125.5t11 83h47q-7 -101 -7 -193l1 -98q0 -104 12 -291h-47q-2 14 -11.5 99t-55.5 128.5t-129 43.5h-136v-492q0 -77 12.5 -111.5t46 -46.5t107.5 -12h150q128 0 194.5 34t96 109t45.5 220h47q-6 -55 -6 -148q0 -116 14 -262q-139 6 -469 6q-393 0 -594 -6zM291 1700 q0 31 16 58.5t43.5 44t59.5 16.5q31 0 58.5 -16.5t44 -44t16.5 -58.5q0 -32 -16.5 -59.5t-44 -43.5t-58.5 -16q-49 0 -84 35t-35 84zM725 1700q0 31 16 58.5t43.5 44t59.5 16.5q31 0 58.5 -16.5t44 -44t16.5 -58.5q0 -32 -16.5 -59.5t-43.5 -43.5t-59 -16q-49 0 -84 35 t-35 84z" />
<glyph unicode="&#x402;" horiz-adv-x="1599" d="M59 1450q170 -6 578 -6q405 0 575 6q-14 -146 -14 -262q0 -103 6 -168h-47q-16 159 -40.5 235.5t-86 112t-188.5 35.5h-111v-688q62 59 161.5 98t211.5 39q127 0 223 -48t150.5 -144.5t54.5 -239.5q0 -151 -60.5 -252t-159 -149t-214.5 -48q-68 0 -128.5 19.5t-98 59 t-37.5 97.5q0 50 28 80.5t78 30.5q47 0 78 -27t31 -73q0 -79 -88 -107q6 -19 37.5 -34t74.5 -15q133 0 196.5 100t63.5 299q0 123 -24 206t-90.5 131t-186.5 48q-91 0 -174 -32t-127 -82v-695q-99 29 -270 29q-62 0 -127 -6v41q91 3 133 18t58 54.5t16 124.5v1165h-111 q-127 0 -188.5 -35.5t-86 -112t-40.5 -235.5h-47q6 65 6 168q0 120 -15 262z" />
<glyph unicode="&#x403;" horiz-adv-x="1081" d="M86 0v41q74 3 107.5 16t46 48t12.5 112v1016q0 77 -12.5 112t-46 48t-107.5 16v41q201 -6 594 -6q244 0 346 6q-14 -146 -14 -262q0 -103 6 -168h-47q-16 159 -41 235.5t-86.5 112t-188.5 35.5h-47q-74 0 -107.5 -12t-46 -46.5t-12.5 -111.5v-1016q0 -77 16 -112t58 -48 t133 -16v-41q-106 6 -301 6q-176 0 -262 -6zM391 1608q65 50 113.5 91.5t119 106t111.5 90.5q31 20 62 20q40 0 63 -34q11 -19 11 -38q0 -45 -54 -81q-41 -25 -113.5 -53t-141 -56t-157.5 -73z" />
<glyph unicode="&#x404;" horiz-adv-x="1415" d="M109 713q0 226 83 400t231 270t337 96q122 0 208.5 -35t168.5 -98q23 -18 40 -18q42 0 52 122h47q-8 -133 -8 -471h-47q-15 92 -27.5 143t-29.5 86.5t-46 73.5q-62 80 -157 120t-205 40q-133 0 -233 -88t-155 -251t-55 -382v-10q36 82 105.5 125t156.5 43q65 0 118.5 -22 t159.5 -84t191 -62q62 0 111.5 30t71.5 93l33 -15q-30 -110 -112 -168.5t-190 -58.5q-67 0 -120.5 21.5t-158.5 84t-194 62.5q-119 0 -171 -103q9 -203 70.5 -348.5t163 -221t228.5 -75.5q102 0 199 39t151 117q42 56 60 121.5t35 202.5h47q0 -353 8 -492h-47 q-5 64 -16.5 92.5t-33.5 28.5q-16 0 -42 -17q-61 -43 -112.5 -70.5t-117.5 -45t-149 -17.5q-195 0 -341.5 88t-227 255.5t-80.5 398.5z" />
<glyph unicode="&#x405;" horiz-adv-x="1106" d="M129 -14q8 112 8 491h47q14 -208 102 -336.5t271 -128.5q70 0 130.5 29t98 90.5t37.5 153.5q0 79 -38.5 141.5t-104.5 114.5t-176 118q-122 73 -196 131t-121.5 138.5t-47.5 189.5q0 116 52.5 196t140 119.5t192.5 39.5q63 0 108.5 -10.5t75.5 -26t66 -39.5 q46 -29 70 -29q19 0 29 21.5t16 68.5h47q-10 -120 -10 -418h-47q-8 105 -45.5 194t-110 144.5t-180.5 55.5q-72 0 -129 -30t-89 -84t-32 -124q0 -111 67 -179t156.5 -122.5t120.5 -73.5q129 -81 204 -140.5t120 -138t45 -182.5q0 -126 -58 -213.5t-156.5 -131.5t-220.5 -44 q-98 0 -161 20.5t-119 55.5q-46 29 -70 29q-19 0 -29 -21.5t-16 -68.5h-47z" />
<glyph unicode="&#x406;" horiz-adv-x="694" d="M86 0v41q74 3 107.5 16t46 48t12.5 112v1016q0 77 -12.5 112t-46 48t-107.5 16v41q85 -6 262 -6q166 0 260 6v-41q-74 -3 -107.5 -16t-46 -48t-12.5 -112v-1016q0 -77 12.5 -112t46 -48t107.5 -16v-41q-94 6 -260 6q-176 0 -262 -6z" />
<glyph unicode="&#x407;" horiz-adv-x="694" d="M12 1700q0 31 16 58.5t43.5 44t59.5 16.5q31 0 58.5 -16.5t44 -44t16.5 -58.5q0 -32 -16.5 -59.5t-44 -43.5t-58.5 -16q-49 0 -84 35t-35 84zM86 0v41q74 3 107.5 16t46 48t12.5 112v1016q0 77 -12.5 112t-46 48t-107.5 16v41q85 -6 262 -6q166 0 260 6v-41 q-74 -3 -107.5 -16t-46 -48t-12.5 -112v-1016q0 -77 12.5 -112t46 -48t107.5 -16v-41q-94 6 -260 6q-176 0 -262 -6zM446 1700q0 31 16 58.5t43.5 44t59.5 16.5q31 0 58.5 -16.5t44 -44t16.5 -58.5q0 -32 -16.5 -59.5t-43.5 -43.5t-59 -16q-49 0 -84 35t-35 84z" />
<glyph unicode="&#x408;" horiz-adv-x="668" d="M-307 -207q0 48 30.5 78.5t77.5 30.5q49 0 81 -30t32 -81q0 -43 -23 -69.5t-63 -34.5q18 -18 56.5 -25.5t74.5 -7.5q89 0 153.5 46t92.5 128q21 64 28 159.5t7 309.5v936q0 77 -12.5 112t-46 48t-107.5 16v41q85 -6 262 -6q164 0 260 6v-41q-74 -3 -107.5 -16t-46 -48 t-12.5 -112v-750q0 -174 -6.5 -308.5t-28.5 -225.5q-23 -96 -81 -171.5t-147.5 -119t-203.5 -43.5q-100 0 -172 37q-98 51 -98 141z" />
<glyph unicode="&#x409;" horiz-adv-x="1901" d="M-6 111q0 53 34 84.5t87 31.5q45 0 74.5 -24.5t29.5 -65.5q0 -43 -21 -70.5t-67 -54.5q19 -2 49 -2q147 0 224.5 174t105.5 412t51 637q1 11 -7 24.5t-44 48.5t-115 103v41q87 -6 211 -6q31 0 91 3t89 3q51 0 142.5 -3t150.5 -3q159 0 244 6v-41q-74 -3 -107.5 -16 t-46 -48t-12.5 -112v-473q103 2 189 2q160 0 271 -47.5t166.5 -131.5t55.5 -192q0 -103 -47.5 -189.5t-162.5 -142.5t-306 -59h-2h-21q-44 0 -111 5l-128 1q-194 0 -301 -6v41q91 3 133 16t58 48t16 112v1016q0 77 -12.5 113.5t-47 49.5t-106.5 13h-27q-73 0 -105 -13.5 t-43 -47t-18 -115.5q-5 -62 -31 -444.5t-122 -600t-275 -217.5q-77 0 -131.5 34.5t-54.5 105.5zM1157 217q0 -76 12 -111t44.5 -48t102.5 -17q125 4 195 50t96.5 120.5t26.5 177.5q0 116 -34.5 189t-113 109t-210.5 36l-119 -1v-505z" />
<glyph unicode="&#x40a;" horiz-adv-x="2042" d="M86 0v41q74 3 107.5 16t46 48t12.5 112v1016q0 77 -12.5 112t-46 48t-107.5 16v41q85 -6 262 -6q166 0 260 6v-41q-74 -3 -107.5 -16t-46 -48t-12.5 -112v-483h666v483q0 77 -12.5 112t-46 48t-107.5 16v41q96 -6 260 -6q176 0 262 6v-41q-74 -3 -107.5 -16t-46 -48 t-12.5 -112v-474q134 3 189 3q160 0 271 -47.5t166.5 -131t55.5 -192.5q0 -103 -47.5 -189.5t-162.5 -142.5t-306 -59h-2h-20q-44 0 -112 5l-128 1q-164 0 -260 -6v41q74 3 107.5 16t46 48t12.5 112v492h-666v-492q0 -77 12.5 -112t46 -48t107.5 -16v-41q-94 6 -260 6 q-176 0 -262 -6zM1298 217q0 -76 12 -111t44.5 -48t102.5 -17q125 4 195.5 49.5t97 120.5t26.5 178q0 115 -35 188.5t-113.5 109.5t-210.5 36l-119 -1v-505z" />
<glyph unicode="&#x40b;" horiz-adv-x="1710" d="M59 1450q170 -6 578 -6q405 0 575 6q-14 -146 -14 -262q0 -103 6 -168h-47q-16 159 -40.5 235.5t-86 112t-188.5 35.5h-111v-731q67 82 186 131t246 49q164 0 269 -68q61 -40 87.5 -107.5t26.5 -170.5v-316q0 -57 15.5 -89t49 -45t91.5 -13v-43q-188 8 -252 8 q-57 0 -229 -8v43q51 0 79.5 13t42 45t13.5 89v361q0 74 -17 123.5t-71 80.5t-158 31q-122 0 -223 -47t-156 -121v-380q0 -85 16 -124.5t58 -54.5t133 -18v-41q-108 6 -301 6q-205 0 -303 -6v41q91 3 133 18t58 54.5t16 124.5v1165h-111q-127 0 -188.5 -35.5t-86 -112 t-40.5 -235.5h-47q6 65 6 168q0 120 -15 262z" />
<glyph unicode="&#x40c;" horiz-adv-x="1389" d="M86 0v41q74 3 107.5 16t46 48t12.5 112v1016q0 77 -12.5 112t-46 48t-107.5 16v41q85 -6 262 -6q165 0 260 6v-41q-74 -3 -107.5 -16t-46 -48t-12.5 -112v-463q105 2 182.5 26.5t125.5 80.5q38 45 59.5 102.5t53.5 188t77 200.5q67 111 195 111q73 0 106 -33.5t33 -85.5 q0 -53 -32 -87t-85 -34q-57 0 -86 32t-29 80q0 23 1 35.5t1 16.5l-4 -2l-4 -2q-33 -15 -57 -45q-44 -57 -76 -186t-59.5 -206.5t-93.5 -136.5q-40 -35 -105 -56q161 -8 264 -73t140 -223l59 -258q16 -68 27.5 -102t28 -50t44.5 -16q35 0 57 17.5t56 60.5l31 -23 q-31 -44 -59 -71.5t-67 -43.5t-93 -16q-82 0 -136.5 47.5t-83.5 174.5l-57 253q-24 105 -48 161t-77.5 90t-152.5 34h-136v-514q0 -77 12.5 -112t46 -48t107.5 -16v-41q-95 6 -260 6q-177 0 -262 -6zM594 1608q65 50 113.5 91.5t119 106t111.5 90.5q31 20 62 20q40 0 63 -34 q11 -19 11 -38q0 -45 -54 -81q-41 -25 -113.5 -53t-141 -56t-157.5 -73z" />
<glyph unicode="&#x40e;" horiz-adv-x="1325" d="M-4 1407v43q79 -6 180 -6q199 0 287 6v-43q-144 0 -144 -79q0 -32 21 -71l417 -778l322 645q56 113 56 176q0 58 -45 82.5t-136 26.5v41q117 -6 236 -6q93 0 153 6v-41q-41 -9 -79.5 -51.5t-83.5 -130.5l-449 -894l-82 -165q-46 -94 -90 -137q-30 -30 -71.5 -45 t-81.5 -15q-64 0 -104 32.5t-40 90.5q0 49 31 79t78 30q45 0 74.5 -25.5t29.5 -71.5q0 -30 -15.5 -54t-39.5 -38q4 -2 12 -2q54 0 96 39.5t80 118.5l56 114l-549 1008q-38 69 -65.5 92t-53.5 23zM264 1819q0 51 30 81.5t79 30.5t80.5 -29.5t31.5 -80.5q0 -42 -23.5 -69.5 t-62.5 -35.5q43 -40 123 -57t160 -17t159.5 17t122.5 57q-39 8 -62.5 35.5t-23.5 69.5q0 50 32.5 80t80.5 30t78.5 -30.5t30.5 -81.5q0 -43 -23.5 -76t-75.5 -64q-127 -77 -319 -77q-191 0 -320 77q-51 31 -74.5 64t-23.5 76z" />
<glyph unicode="&#x40f;" horiz-adv-x="1550" d="M86 0v41q74 3 107.5 16t46 48t12.5 112v1016q0 77 -12.5 112t-46 48t-107.5 16v41q85 -6 262 -6q166 0 260 6v-41q-74 -3 -107.5 -16t-46 -48t-12.5 -112v-1016q0 -77 12.5 -113.5t47 -49.5t106.5 -13h334q72 0 106.5 13t47 49.5t12.5 113.5v1016q0 77 -12.5 112t-46 48 t-107.5 16v41q96 -6 260 -6q176 0 262 6v-41q-74 -3 -107.5 -16t-46 -48t-12.5 -112v-1016q0 -77 12.5 -112t46 -48t107.5 -16v-41q-85 6 -262 6q-70 0 -165 -2h3q-91 0 -136.5 -32t-65 -99t-31.5 -201h-47q-13 134 -32 201t-65 99t-137 32h1q-105 2 -179 2q-176 0 -262 -6z " />
<glyph unicode="&#x410;" horiz-adv-x="1290" d="M-14 0v41q102 23 161 178l482 1241h33l499 -1288q50 -127 142 -131v-41q-84 6 -220 6q-175 0 -262 -6v41q78 3 111.5 19t33.5 57q0 35 -24 96l-126 336h-494l-84 -217q-41 -104 -41 -168q0 -65 43.5 -93t134.5 -30v-41q-117 6 -236 6q-92 0 -153 -6zM337 590h464 l-229 611z" />
<glyph unicode="&#x411;" horiz-adv-x="1221" d="M86 0v41q74 3 107.5 16t46 48t12.5 112v1016q0 77 -12.5 112t-46 48t-107.5 16v41q201 -6 594 -6q258 0 367 6q-15 -131 -15 -242q0 -80 6 -127h-47q-14 133 -36.5 198t-76 94.5t-161.5 29.5h-109q-74 0 -107.5 -12t-46 -46.5t-12.5 -111.5v-374q216 3 189 3 q161 0 271.5 -54.5t166 -151.5t55.5 -224q0 -117 -49 -213.5t-169 -157.5t-320 -61q-31 0 -106 3t-152 3q-156 0 -242 -6zM442 217q0 -76 10 -112t38.5 -50t89.5 -14q133 0 208 50t103.5 135t28.5 204q0 137 -35 223t-113.5 128t-210.5 42l-119 -2v-604z" />
<glyph unicode="&#x412;" horiz-adv-x="1276" d="M86 0v41q74 3 107.5 16t46 48t12.5 112v1016q0 77 -12.5 112t-46 48t-107.5 16v41q85 -6 250 -6q80 0 176.5 2t132.5 2q140 0 237 -40.5t146 -113t49 -168.5q0 -118 -74.5 -212t-236.5 -144v-4q226 -30 322 -129.5t96 -239.5q0 -116 -59.5 -206t-170.5 -140.5t-262 -50.5 q-41 0 -144 3t-208 3q-168 0 -254 -6zM442 217q0 -74 12 -109t44 -48t98 -13q383 0 383 359q0 161 -87.5 245t-277.5 84h-172v-518zM442 770h138q167 0 234 91t67 243q0 154 -68 229.5t-219 75.5q-64 0 -96 -14.5t-44 -51.5t-12 -110v-463z" />
<glyph unicode="&#x413;" horiz-adv-x="1081" d="M86 0v41q74 3 107.5 16t46 48t12.5 112v1016q0 77 -12.5 112t-46 48t-107.5 16v41q201 -6 594 -6q244 0 346 6q-14 -146 -14 -262q0 -103 6 -168h-47q-16 159 -41 235.5t-86.5 112t-188.5 35.5h-47q-74 0 -107.5 -12t-46 -46.5t-12.5 -111.5v-1016q0 -77 16 -112t58 -48 t133 -16v-41q-106 6 -301 6q-176 0 -262 -6z" />
<glyph unicode="&#x414;" horiz-adv-x="1288" d="M6 41h37q146 0 223.5 170.5t106 403t51.5 618.5q1 15 1 41q0 55 -14 82.5t-49 38.5t-104 14v41q86 -6 211 -6q31 0 91 3t89 3q51 0 142 -3t151 -3q157 0 244 6v-41q-74 -3 -107.5 -16t-46 -48t-12.5 -112v-1016q0 -77 12.5 -113.5t47 -49.5t106.5 -13h63 q-14 -134 -14 -242q0 -81 6 -127h-47q-15 134 -37.5 200t-76 97t-160.5 31h-584q-107 0 -161 -31t-76.5 -97t-37.5 -200h-47q6 46 6 127q0 108 -14 242zM181 41h483q72 0 106 13t46.5 49.5t12.5 113.5v1016q0 77 -12.5 113.5t-46.5 49.5t-106 13h-27q-73 0 -104.5 -13.5 t-42.5 -47t-19 -115.5q-6 -64 -28.5 -381.5t-84 -527t-177.5 -283.5z" />
<glyph unicode="&#x415;" horiz-adv-x="1247" d="M86 0v41q74 3 107.5 16t46 48t12.5 112v1016q0 77 -12.5 112t-46 48t-107.5 16v41q201 -6 594 -6q301 0 428 6q-14 -134 -14 -242q0 -80 6 -127h-47q-15 133 -37.5 198t-76 94.5t-161.5 29.5h-170q-74 0 -107.5 -12t-46 -46.5t-12.5 -111.5v-483h136q103 0 137 61.5 t42 125.5t11 83h47q-7 -101 -7 -193l1 -98q0 -104 12 -291h-47q-2 14 -11.5 99t-55.5 128.5t-129 43.5h-136v-492q0 -77 12.5 -111.5t46 -46.5t107.5 -12h150q128 0 194.5 34t96 109t45.5 220h47q-6 -55 -6 -148q0 -116 14 -262q-139 6 -469 6q-393 0 -594 -6z" />
<glyph unicode="&#x416;" horiz-adv-x="1997" d="M43 102l31 23q34 -43 56 -60.5t56 -17.5q28 0 45 16t28.5 50t27.5 102l63 258q32 152 122.5 218t229.5 76q-66 22 -108 60q-48 44 -73.5 118.5t-55 220t-62.5 188.5q-23 30 -57 45l-8 4q0 -3 1 -12.5t1 -20.5q0 -59 -32 -93t-87 -34q-53 0 -86 32.5t-33 84.5t35.5 85.5 t112.5 33.5q129 0 190 -111q39 -68 64.5 -190.5t41.5 -186.5t50 -108q85 -108 303 -113v463q0 77 -12.5 112t-46 48t-107.5 16v41q85 -6 262 -6q165 0 260 6v-41q-74 -3 -107.5 -16t-46 -48t-12.5 -112v-463q219 5 304 113q28 36 44 90.5t44 190.5t67 204q63 111 191 111 q76 0 111.5 -33.5t35.5 -85.5q0 -53 -32.5 -85t-86.5 -32q-55 0 -86.5 34t-31.5 93q0 11 1 20.5t1 12.5l-9 -4q-35 -16 -57 -45q-33 -43 -60.5 -178.5t-51 -217.5t-78.5 -131q-42 -38 -108 -59q146 -11 240 -76.5t128 -218.5l59 -258q16 -68 27.5 -102t28.5 -50t45 -16 q34 0 56 17.5t56 60.5l31 -23q-46 -66 -93 -98.5t-126 -32.5q-82 0 -136 47.5t-83 174.5l-58 253q-23 105 -45 161t-71.5 90t-141.5 34h-115v-514q0 -77 12.5 -112t46 -48t107.5 -16v-41q-95 6 -260 6q-177 0 -262 -6v41q74 3 107.5 16t46 48t12.5 112v514h-115 q-91 0 -140.5 -34t-72 -90t-45.5 -161l-57 -253q-29 -127 -83.5 -174.5t-135.5 -47.5q-73 0 -119.5 33t-87.5 98z" />
<glyph unicode="&#x417;" horiz-adv-x="1124" d="M72 190q0 48 30.5 78.5t77.5 30.5q49 0 81 -30t32 -81q0 -42 -23.5 -69t-62.5 -35q14 -20 56 -38t99 -29t115 -11q118 0 197.5 46.5t118 129t38.5 189.5q0 108 -37.5 192.5t-110.5 134t-175 52.5q-49 -27 -88 -27q-43 0 -43 35q0 15 12 24t31 9q27 0 90 -13 q92 31 144.5 80t75 120t22.5 171q0 145 -53.5 218t-174.5 73q-99 0 -170.5 -56t-110 -145.5t-44.5 -191.5h-47q0 287 -11 417h47q8 -49 17.5 -69.5t30.5 -20.5t67 29q8 5 43.5 27.5t86.5 35.5t116 13q121 0 213 -37.5t143 -107t51 -162.5q0 -108 -62.5 -191t-157 -135.5 t-195.5 -77.5q123 -2 236.5 -45.5t185 -128t71.5 -203.5q0 -131 -78 -226t-206.5 -144.5t-278.5 -49.5q-182 0 -303 74q-96 61 -96 145z" />
<glyph unicode="&#x418;" horiz-adv-x="1591" d="M86 0v41q74 3 107.5 16t46 48t12.5 112v1016q0 77 -12.5 112t-46 48t-107.5 16v41q85 -6 262 -6q165 0 260 6v-41q-74 -3 -107.5 -16t-46 -48t-12.5 -112v-970l706 1002q-2 61 -16 90t-47 40t-102 14v41q96 -6 260 -6q176 0 262 6v-41q-74 -3 -107.5 -16t-46 -48 t-12.5 -112v-1016q0 -77 12.5 -112t46 -48t107.5 -16v-41q-86 6 -262 6q-164 0 -260 -6v41q74 3 107.5 16t46 48t12.5 112v969l-707 -1000q3 -62 17 -91t47 -40t102 -14v-41q-95 6 -260 6q-177 0 -262 -6z" />
<glyph unicode="&#x419;" horiz-adv-x="1591" d="M86 0v41q74 3 107.5 16t46 48t12.5 112v1016q0 77 -12.5 112t-46 48t-107.5 16v41q85 -6 262 -6q165 0 260 6v-41q-74 -3 -107.5 -16t-46 -48t-12.5 -112v-970l706 1002q-2 61 -16 90t-47 40t-102 14v41q96 -6 260 -6q176 0 262 6v-41q-74 -3 -107.5 -16t-46 -48 t-12.5 -112v-1016q0 -77 12.5 -112t46 -48t107.5 -16v-41q-86 6 -262 6q-164 0 -260 -6v41q74 3 107.5 16t46 48t12.5 112v969l-707 -1000q3 -62 17 -91t47 -40t102 -14v-41q-95 6 -260 6q-177 0 -262 -6zM379 1819q0 51 30 81.5t79 30.5t80.5 -29.5t31.5 -80.5 q0 -42 -23.5 -69.5t-62.5 -35.5q43 -40 123 -57t160 -17t159.5 17t122.5 57q-39 8 -62.5 35.5t-23.5 69.5q0 50 32.5 80t80.5 30t78.5 -30.5t30.5 -81.5q0 -43 -23.5 -76t-75.5 -64q-127 -77 -319 -77q-191 0 -320 77q-51 31 -74.5 64t-23.5 76z" />
<glyph unicode="&#x41a;" horiz-adv-x="1389" d="M86 0v41q74 3 107.5 16t46 48t12.5 112v1016q0 77 -12.5 112t-46 48t-107.5 16v41q85 -6 262 -6q165 0 260 6v-41q-74 -3 -107.5 -16t-46 -48t-12.5 -112v-463q105 2 182.5 26.5t125.5 80.5q38 45 59.5 102.5t53.5 188t77 200.5q67 111 195 111q73 0 106 -33.5t33 -85.5 q0 -53 -32 -87t-85 -34q-57 0 -86 32t-29 80q0 23 1 35.5t1 16.5l-4 -2l-4 -2q-33 -15 -57 -45q-44 -57 -76 -186t-59.5 -206.5t-93.5 -136.5q-40 -35 -105 -56q161 -8 264 -73t140 -223l59 -258q16 -68 27.5 -102t28 -50t44.5 -16q35 0 57 17.5t56 60.5l31 -23 q-31 -44 -59 -71.5t-67 -43.5t-93 -16q-82 0 -136.5 47.5t-83.5 174.5l-57 253q-24 105 -48 161t-77.5 90t-152.5 34h-136v-514q0 -77 12.5 -112t46 -48t107.5 -16v-41q-95 6 -260 6q-177 0 -262 -6z" />
<glyph unicode="&#x41b;" horiz-adv-x="1409" d="M-6 111q0 53 34 84.5t87 31.5q45 0 74.5 -24.5t29.5 -65.5q0 -43 -21 -70.5t-67 -54.5q19 -2 49 -2q147 0 224.5 174t105.5 412t51 637q2 34 2 46q0 52 -14.5 78.5t-49.5 37.5t-104 14v41q87 -6 211 -6q31 0 91 3t89 3q51 0 142.5 -3t150.5 -3q159 0 244 6v-41 q-74 -3 -107.5 -16t-46 -48t-12.5 -112v-1016q0 -77 12.5 -112t46 -48t107.5 -16v-41q-85 6 -262 6q-194 0 -301 -6v41q91 3 133 16t58 48t16 112v1016q0 77 -12.5 113.5t-47 49.5t-106.5 13h-27q-73 0 -105 -13.5t-43 -47t-18 -115.5q-5 -62 -31 -444.5t-122 -600 t-275 -217.5q-77 0 -131.5 34.5t-54.5 105.5z" />
<glyph unicode="&#x41c;" horiz-adv-x="1784" d="M86 0v41q71 3 105.5 20.5t47.5 57.5t13 119v995q0 77 -12.5 112t-46 48t-107.5 16v41q67 -6 190 -6q108 0 175 6l450 -1188l440 1182h97q164 0 260 6v-41q-74 -3 -107.5 -16t-46 -48t-12.5 -112v-1016q0 -77 12.5 -112t46 -48t107.5 -16v-41q-96 6 -260 6q-176 0 -262 -6 v41q74 3 107 16t45.5 48t12.5 112v1096l-493 -1323h-33l-516 1329v-1081q0 -79 14 -119t52.5 -57.5t119.5 -20.5v-41q-73 6 -209 6q-122 0 -190 -6z" />
<glyph unicode="&#x41d;" horiz-adv-x="1550" d="M86 0v41q74 3 107.5 16t46 48t12.5 112v1016q0 77 -12.5 112t-46 48t-107.5 16v41q85 -6 262 -6q166 0 260 6v-41q-74 -3 -107.5 -16t-46 -48t-12.5 -112v-483h666v483q0 77 -12.5 112t-46 48t-107.5 16v41q96 -6 260 -6q176 0 262 6v-41q-74 -3 -107.5 -16t-46 -48 t-12.5 -112v-1016q0 -77 12.5 -112t46 -48t107.5 -16v-41q-85 6 -262 6q-164 0 -260 -6v41q74 3 107.5 16t46 48t12.5 112v492h-666v-492q0 -77 12.5 -112t46 -48t107.5 -16v-41q-94 6 -260 6q-176 0 -262 -6z" />
<glyph unicode="&#x41e;" horiz-adv-x="1518" d="M109 713q0 226 83 400t231 270t337 96q195 0 341.5 -88t227 -255.5t80.5 -398.5q0 -226 -83 -400t-231 -270t-337 -96q-195 0 -341.5 88t-227 255.5t-80.5 398.5zM313 721q0 -213 60 -375t163.5 -250t229.5 -88q131 0 230.5 91.5t153.5 255t54 374.5q0 213 -60 375 t-163 250t-229 88q-131 0 -231 -91.5t-154 -255t-54 -374.5z" />
<glyph unicode="&#x41f;" horiz-adv-x="1550" d="M86 0v41q74 3 107.5 16t46 48t12.5 112v1016q0 77 -12.5 112t-46 48t-107.5 16v41q85 -6 262 -6q90 0 239 3t191 3t188 -3t236 -3q176 0 262 6v-41q-74 -3 -107.5 -16t-46 -48t-12.5 -112v-1016q0 -77 12.5 -112t46 -48t107.5 -16v-41q-85 6 -262 6q-164 0 -260 -6v41 q74 3 107.5 16t46 48t12.5 112v1016q0 77 -12.5 113.5t-47 49.5t-106.5 13h-334q-72 0 -106.5 -13t-47 -49.5t-12.5 -113.5v-1016q0 -77 12.5 -112t46 -48t107.5 -16v-41q-94 6 -260 6q-176 0 -262 -6z" />
<glyph unicode="&#x420;" horiz-adv-x="1198" d="M86 0v41q74 3 107.5 16t46 48t12.5 112v1016q0 77 -12.5 112t-46 48t-107.5 16v41q85 -6 250 -6q80 0 176.5 2t132.5 2q161 0 272 -50.5t166.5 -141.5t55.5 -212q0 -112 -50 -216t-170.5 -173t-318.5 -69h-158v-369q0 -77 16 -112t58 -48t133 -16v-41q-106 6 -301 6 q-176 0 -262 -6zM442 627h138q200 0 277 107t77 288q0 132 -34 217t-108.5 127.5t-197.5 42.5q-64 0 -96 -14.5t-44 -51.5t-12 -110v-606z" />
<glyph unicode="&#x421;" horiz-adv-x="1409" d="M109 713q0 226 83 400t231 270t337 96q122 0 208.5 -35t168.5 -98q22 -18 40 -18q42 0 52 122h47q-8 -133 -8 -471h-47q-15 92 -27.5 143t-29.5 86.5t-46 73.5q-62 80 -157 120t-205 40q-133 0 -233 -88t-155 -251t-55 -382q0 -223 60 -383t165 -243t238 -83 q102 0 199 39t151 117q42 56 60 121.5t35 202.5h47q0 -353 8 -492h-47q-5 64 -16.5 92.5t-33.5 28.5q-16 0 -42 -17q-61 -43 -112.5 -70.5t-117.5 -45t-149 -17.5q-195 0 -341.5 88t-227 255.5t-80.5 398.5z" />
<glyph unicode="&#x422;" horiz-adv-x="1272" d="M59 1450q170 -6 578 -6q405 0 575 6q-14 -146 -14 -262q0 -103 6 -168h-47q-16 159 -40.5 235.5t-86 112t-188.5 35.5h-111v-1165q0 -85 16 -124.5t58 -54.5t133 -18v-41q-108 6 -301 6q-205 0 -303 -6v41q91 3 133 18t58 54.5t16 124.5v1165h-111q-127 0 -188.5 -35.5 t-86 -112t-40.5 -235.5h-47q6 65 6 168q0 120 -15 262z" />
<glyph unicode="&#x423;" horiz-adv-x="1325" d="M-4 1407v43q79 -6 180 -6q199 0 287 6v-43q-144 0 -144 -79q0 -32 21 -71l417 -778l322 645q56 113 56 176q0 58 -45 82.5t-136 26.5v41q117 -6 236 -6q93 0 153 6v-41q-41 -9 -79.5 -51.5t-83.5 -130.5l-449 -894l-82 -165q-46 -94 -90 -137q-30 -30 -71.5 -45 t-81.5 -15q-64 0 -104 32.5t-40 90.5q0 49 31 79t78 30q45 0 74.5 -25.5t29.5 -71.5q0 -30 -15.5 -54t-39.5 -38q4 -2 12 -2q54 0 96 39.5t80 118.5l56 114l-549 1008q-38 69 -65.5 92t-53.5 23z" />
<glyph unicode="&#x424;" horiz-adv-x="1739" d="M55 733q0 160 90.5 286.5t254 202.5t376.5 90v72q0 78 -12.5 113t-45.5 47.5t-108 16.5v41q81 -7 262 -7q171 0 261 7v-41q-75 -4 -108 -17t-45.5 -48t-12.5 -112v-72q218 -13 379 -84t249 -196t88 -295q0 -165 -89.5 -295.5t-252 -209t-374.5 -93.5v-73q0 -78 12.5 -113 t45.5 -47.5t108 -16.5v-41q-90 7 -261 7q-181 0 -262 -7v41q75 4 108 17t45.5 48t12.5 112v72q-219 13 -381.5 86.5t-251 203t-88.5 305.5zM260 741q0 -154 66 -275t182.5 -195t267.5 -93v1096q-156 -16 -272.5 -88t-180 -187t-63.5 -258zM967 177q155 17 270.5 91.5 t178.5 193.5t63 267t-65.5 264.5t-181.5 187.5t-265 90v-1094z" />
<glyph unicode="&#x425;" horiz-adv-x="1298" d="M33 0v41q61 9 116.5 55t114.5 133l309 461l-401 615q-26 41 -45 61.5t-40 29.5t-52 11v43q140 -8 176 -8q137 0 289 8v-43q-137 0 -137 -45q0 -16 18 -45l319 -488l201 301q89 133 89 197q0 43 -39.5 61.5t-119.5 20.5v41q117 -6 236 -6q112 0 174 6v-41 q-62 -9 -117.5 -55.5t-113.5 -132.5l-287 -428l424 -648q26 -41 45 -61.5t40 -29.5t52 -11v-43q-140 8 -176 8q-69 0 -289 -8v43q80 0 113 7t33 26q0 15 -15 37l-350 536l-221 -330q-78 -116 -78 -180q0 -52 46.5 -74t135.5 -24v-41q-116 6 -276 6q-113 0 -174 -6z" />
<glyph unicode="&#x426;" horiz-adv-x="1567" d="M86 0v41q74 3 107.5 16t46 48t12.5 112v1016q0 77 -12.5 112t-46 48t-107.5 16v41q85 -6 262 -6q166 0 260 6v-41q-74 -3 -107.5 -16t-46 -48t-12.5 -112v-1016q0 -77 12.5 -113.5t47 -49.5t106.5 -13h334q72 0 106.5 13t47 49.5t12.5 113.5v1016q0 77 -12.5 112t-46 48 t-107.5 16v41q96 -6 260 -6q176 0 262 6v-41q-74 -3 -107.5 -16t-46 -48t-12.5 -112v-1016q0 -77 12.5 -113.5t47 -49.5t106.5 -13h64q-15 -144 -15 -242q0 -73 7 -127h-47q-15 134 -37.5 200t-76.5 97t-161 31h-420q-42 0 -191 3t-239 3q-176 0 -262 -6z" />
<glyph unicode="&#x427;" horiz-adv-x="1378" d="M35 1407v43q188 -8 252 -8q57 0 229 8v-43q-51 0 -79.5 -13t-42 -45t-13.5 -89v-422q0 -75 16.5 -125t68 -80.5t150.5 -30.5q203 0 320 68v563q0 77 -12.5 112t-46 48t-107.5 16v41q85 -6 262 -6q166 0 260 6v-41q-74 -3 -107.5 -16t-46 -48t-12.5 -112v-1016 q0 -77 12.5 -112t46 -48t107.5 -16v-41q-85 6 -262 6q-193 0 -301 -6v41q91 3 133 16t58 48t16 112v418q-63 -38 -173.5 -68t-211.5 -30q-168 0 -262 71q-56 43 -77.5 104t-21.5 171v377q0 57 -15.5 89t-48.5 45t-91 13z" />
<glyph unicode="&#x428;" horiz-adv-x="1960" d="M86 0v41q74 3 107.5 16t46 48t12.5 112v1016q0 77 -12.5 112t-46 48t-107.5 16v41q85 -6 262 -6q150 0 240 6v-41q-65 -3 -94.5 -16t-40.5 -48t-11 -112v-1016q0 -77 12.5 -113.5t47 -49.5t106.5 -13h111q72 0 106.5 13t47 49.5t12.5 113.5v1016q0 77 -10.5 112t-40 48 t-95.5 16v41q90 -6 240 -6q161 0 242 6v-41q-66 -3 -95.5 -16t-40 -48t-10.5 -112v-1016q0 -77 12.5 -113.5t47 -49.5t106.5 -13h111q72 0 106.5 13t47 49.5t12.5 113.5v1016q0 77 -10.5 112t-40 48t-95.5 16v41q90 -6 240 -6q176 0 262 6v-41q-74 -3 -107.5 -16t-46 -48 t-12.5 -112v-1016q0 -77 12.5 -112t46 -48t107.5 -16v-41q-85 6 -262 6q-54 0 -161 -3t-153 -3q-73 0 -177.5 3t-137.5 3q-34 0 -141.5 -3t-182.5 -3q-48 0 -153.5 3t-157.5 3q-176 0 -262 -6z" />
<glyph unicode="&#x429;" horiz-adv-x="1976" d="M86 0v41q74 3 107.5 16t46 48t12.5 112v1016q0 77 -12.5 112t-46 48t-107.5 16v41q85 -6 262 -6q150 0 240 6v-41q-65 -3 -94.5 -16t-40.5 -48t-11 -112v-1016q0 -77 12.5 -113.5t47 -49.5t106.5 -13h111q72 0 106.5 13t47 49.5t12.5 113.5v1016q0 77 -10.5 112t-40 48 t-95.5 16v41q90 -6 240 -6q161 0 242 6v-41q-66 -3 -95.5 -16t-40 -48t-10.5 -112v-1016q0 -77 12.5 -113.5t47 -49.5t106.5 -13h111q72 0 106.5 13t47 49.5t12.5 113.5v1016q0 77 -10.5 112t-40 48t-95.5 16v41q90 -6 240 -6q176 0 262 6v-41q-74 -3 -107.5 -16t-46 -48 t-12.5 -112v-1016q0 -77 12.5 -113.5t47 -49.5t106.5 -13h63q-14 -134 -14 -242q0 -81 6 -127h-47q-15 134 -37.5 200t-76 97t-160.5 31h-310q-73 0 -177.5 3t-137.5 3q-34 0 -141.5 -3t-182.5 -3q-48 0 -153.5 3t-157.5 3q-176 0 -262 -6z" />
<glyph unicode="&#x42a;" horiz-adv-x="1495" d="M57 1450q176 -6 598 -6q195 0 301 6v-41q-91 -3 -132.5 -16t-57.5 -48t-16 -112v-374q214 3 188 3q161 0 272 -52t166.5 -144t55.5 -213q0 -113 -50 -215t-170.5 -170t-318.5 -68q-29 0 -107.5 3t-130.5 3q-175 0 -262 -6v41q74 3 107.5 16t46 48t12.5 112v1186h-131 q-127 0 -188.5 -35.5t-86 -112t-40.5 -235.5h-47q6 65 6 168q0 120 -15 262zM750 217q0 -79 10 -114.5t39 -48.5t94 -13q189 0 261.5 104.5t72.5 284.5q0 199 -79.5 296t-260.5 97q-47 0 -137 -2v-604z" />
<glyph unicode="&#x42b;" horiz-adv-x="1882" d="M86 0v41q74 3 107.5 16t46 48t12.5 112v1016q0 77 -12.5 112t-46 48t-107.5 16v41q85 -6 262 -6q166 0 260 6v-41q-74 -3 -107.5 -16t-46 -48t-12.5 -112v-1016q0 -77 12.5 -112t46 -48t107.5 -16v-41q-94 6 -260 6q-176 0 -262 -6zM780 0v41q74 3 107.5 16t46 48 t12.5 112v1016q0 77 -12.5 112t-46 48t-107.5 16v41q85 -6 262 -6q194 0 301 6v-41q-91 -3 -133 -16t-58 -48t-16 -112v-374q216 3 189 3q161 0 271.5 -52t166 -144t55.5 -213q0 -113 -49.5 -215t-170 -170t-318.5 -68q-29 0 -107.5 3t-130.5 3q-176 0 -262 -6zM1136 217 q0 -78 10 -114t39.5 -49t94.5 -13q189 0 261.5 104.5t72.5 284.5q0 199 -79.5 296t-260.5 97q-47 0 -138 -2v-604z" />
<glyph unicode="&#x42c;" horiz-adv-x="1188" d="M86 0v41q74 3 107.5 16t46 48t12.5 112v1016q0 77 -12.5 112t-46 48t-107.5 16v41q85 -6 262 -6q194 0 301 6v-41q-91 -3 -133 -16t-58 -48t-16 -112v-374q216 3 189 3q161 0 271.5 -52t166 -144t55.5 -213q0 -113 -49.5 -215t-170 -170t-318.5 -68q-29 0 -107.5 3 t-130.5 3q-176 0 -262 -6zM442 217q0 -78 10 -114t39.5 -49t94.5 -13q189 0 261.5 104.5t72.5 284.5q0 199 -79.5 296t-260.5 97q-47 0 -138 -2v-604z" />
<glyph unicode="&#x42d;" horiz-adv-x="1417" d="M141 0q9 156 9 492h47q16 -136 34 -202t60 -122q55 -78 151.5 -117t198.5 -39q133 0 238 83t165 243t60 383l-1 42q-35 -83 -105 -127t-158 -44q-65 0 -118.5 22t-159.5 84t-191 62q-62 0 -111.5 -30.5t-71.5 -92.5l-32 14q30 110 111.5 169t189.5 59q67 0 120.5 -22 t159 -84t193.5 -62q120 0 171 103q-11 193 -68.5 334.5t-152.5 217.5t-218 76q-111 0 -206 -40t-157 -120q-29 -38 -46 -74t-29 -87t-27 -142h-47q0 321 -9 471h47q12 -122 53 -122q17 0 40 18q82 63 168 98t208 35q189 0 337.5 -96t231.5 -270t83 -400q0 -231 -80.5 -398.5 t-227.5 -255.5t-342 -88q-83 0 -149 17.5t-117.5 45t-111.5 70.5q-26 17 -43 17q-21 0 -32.5 -28.5t-17.5 -92.5h-47z" />
<glyph unicode="&#x42e;" horiz-adv-x="2073" d="M86 0v41q74 3 107.5 16t46 48t12.5 112v1016q0 77 -12.5 112t-46 48t-107.5 16v41q85 -6 262 -6q166 0 260 6v-41q-74 -3 -107.5 -16t-46 -48t-12.5 -112v-492h260q6 218 87.5 385.5t223 260t320.5 92.5q189 0 331 -88t220 -255.5t78 -398.5q0 -226 -80.5 -400t-224 -270 t-326.5 -96q-187 0 -328 86.5t-220 251t-81 391.5h-260v-483q0 -77 12.5 -112t46 -48t107.5 -16v-41q-94 6 -260 6q-176 0 -262 -6zM907 721q0 -213 57.5 -375t156 -250t218.5 -88q125 0 220 91.5t146.5 255t51.5 374.5q0 213 -57.5 375t-156 250t-218.5 88 q-125 0 -220 -91.5t-146.5 -255t-51.5 -374.5z" />
<glyph unicode="&#x42f;" horiz-adv-x="1337" d="M-25 102l31 23q34 -43 56.5 -60.5t55.5 -17.5q28 0 45.5 17t29.5 52t26 99l47 209q20 87 54 140t91.5 84t149.5 46l27 4q-142 22 -229 83t-123.5 142t-36.5 169q0 102 55.5 182.5t166.5 127t271 46.5q36 0 132.5 -2t176.5 -2q164 0 250 6v-41q-74 -3 -107.5 -16t-46 -48 t-12.5 -112v-1016q0 -77 12.5 -112t46 -48t107.5 -16v-41q-86 6 -262 6q-164 0 -260 -6v41q74 3 107.5 16t46 48t12.5 112v471h-205q-77 0 -120.5 -34.5t-65 -92t-45.5 -164.5l-45 -204q-28 -124 -82 -173t-137 -49q-78 0 -125 31t-95 100zM403 1083q0 -111 30 -188 t108 -121.5t217 -44.5h137v504q0 73 -12 110t-44 51.5t-96 14.5q-178 0 -259 -84t-81 -242z" />
<glyph unicode="&#x430;" horiz-adv-x="1020" d="M80 215q0 78 38 133t107 96.5t185 90.5q20 8 98 40t112.5 64t34.5 70v127q0 119 -49.5 162.5t-140.5 43.5q-145 0 -203 -73q41 -10 68.5 -43.5t27.5 -81.5q0 -52 -32.5 -81.5t-87.5 -29.5q-52 0 -81.5 35t-29.5 92q0 80 96 146q50 33 123.5 55t163.5 22q84 0 148 -20.5 t100 -56.5q47 -48 64.5 -111.5t17.5 -175.5v-569q0 -51 14.5 -74t48.5 -23q25 0 46 11t46 32l23 -35q-36 -27 -60 -42t-55 -24t-72 -9q-99 0 -137.5 49.5t-38.5 132.5q-60 -99 -144 -140.5t-171 -41.5q-71 0 -130 24.5t-94.5 76t-35.5 128.5zM260 248q0 -89 45 -134.5 t119 -45.5q136 0 231 155v402q-15 -23 -50 -43t-146 -74q-59 -28 -100 -57.5t-70 -79.5t-29 -123z" />
<glyph unicode="&#x431;" horiz-adv-x="1149" d="M129 569q0 198 38.5 393t133.5 322q39 53 94 88.5t142 57.5q60 15 142.5 25.5t123.5 17.5q66 10 106.5 23.5t71 40t53.5 73.5l31 -8q-43 -135 -113 -199q-41 -36 -85.5 -54t-121.5 -30q-20 -3 -58 -8t-72.5 -11.5t-75.5 -17.5q-118 -29 -187 -83.5t-110.5 -169 t-61.5 -322.5q50 202 163 289t263 87q155 0 255 -75.5t146 -197.5t46 -267q0 -173 -61.5 -303t-169.5 -199.5t-242 -69.5q-139 0 -240 68t-156 202t-55 328zM324 567q0 -301 76.5 -428t191.5 -127q149 0 205.5 157.5t56.5 358.5q0 273 -67.5 392.5t-190.5 119.5 q-69 0 -131.5 -54t-101.5 -161t-39 -258z" />
<glyph unicode="&#x432;" horiz-adv-x="1118" d="M59 0v43q58 0 91.5 13t49 45t15.5 89v672q0 58 -15.5 89.5t-49 45t-91.5 13.5v43q19 -1 97.5 -5t144.5 -4q53 0 143.5 4.5t124.5 4.5q214 0 307 -65t93 -183q0 -61 -34.5 -113t-104 -89.5t-170.5 -53.5q197 -10 285.5 -73.5t88.5 -178.5q0 -134 -110 -215.5t-349 -81.5 q-40 0 -131 4t-143 4q-54 0 -242 -8zM399 190q0 -58 14.5 -89.5t48 -44.5t93.5 -13q159 0 223 68.5t64 183.5q0 123 -68 174t-190 51h-185v-330zM399 555h82q121 2 185.5 27t89 74t24.5 132q0 70 -19 118t-69.5 76t-142.5 28q-56 0 -88.5 -14t-47 -46t-14.5 -88v-307z" />
<glyph unicode="&#x433;" horiz-adv-x="952" d="M59 0v43q58 0 91.5 13t49 45t15.5 89v672q0 58 -15.5 89.5t-49 45t-91.5 13.5v43q19 -1 98 -5t148 -4q46 0 137 4.5t129 4.5h320q-14 -136 -14 -238q0 -80 6 -127h-47q-12 133 -29.5 198.5t-59 95.5t-124.5 30h-88q-51 0 -80 -13.5t-42.5 -46t-13.5 -90.5v-651 q0 -95 54 -131.5t163 -36.5v-43q-252 8 -315 8q-54 0 -242 -8z" />
<glyph unicode="&#x434;" horiz-adv-x="1073" d="M14 43h39q60 0 104 44.5t68 109.5q47 122 73 288.5t42 376.5l1 20q0 71 -39.5 99.5t-123.5 28.5v43q8 -1 46.5 -5t92.5 -4q33 0 106 4.5t112 4.5q36 0 105.5 -4.5t117.5 -4.5q72 0 150 4t98 5v-43q-58 0 -91.5 -13.5t-49 -45t-15.5 -89.5v-672q0 -60 14 -90.5t52 -43.5 t112 -13q-14 -134 -14 -238q0 -81 6 -127h-47q-12 134 -29.5 200.5t-59 98t-124.5 31.5q-54 0 -184.5 -4t-292.5 -4q-84 0 -125.5 -29.5t-59 -95t-28.5 -197.5h-47q6 46 6 127q0 107 -15 238zM156 43h374q51 0 80 13t42.5 45t13.5 89v672q0 58 -13.5 90t-42.5 45t-80 13h-18 q-50 0 -77 -13t-40 -44.5t-18 -90.5q-20 -231 -44.5 -393t-74.5 -283q-44 -104 -102 -143z" />
<glyph unicode="&#x435;" horiz-adv-x="1036" d="M94 502q0 178 57 309t161.5 201.5t244.5 70.5q184 0 283.5 -111.5t99.5 -338.5h-640q-7 -53 -7 -131q0 -135 44.5 -236t116.5 -155t152 -54q206 0 301 205l41 -16q-24 -72 -76.5 -134.5t-131 -101.5t-175.5 -39q-146 0 -252.5 66.5t-162.5 187t-56 277.5zM297 672h446 q4 102 -17 187t-66 135t-111 50q-63 0 -116 -40.5t-89.5 -124t-46.5 -207.5z" />
<glyph unicode="&#x436;" horiz-adv-x="1722" d="M49 0v43q60 6 90.5 31.5t55.5 81.5q13 31 35 94.5t37.5 102.5t35.5 71q81 135 302 141q-52 17 -86.5 50t-54.5 72t-44 101q-44 117 -66 161.5t-53 58.5v-15q0 -59 -32 -95t-87 -36q-49 0 -78.5 30.5t-29.5 78.5t32 80t99 32q74 0 120.5 -38t69.5 -88t51 -134 q31 -90 63 -141t92 -82.5t165 -38.5v301q0 58 -13.5 90t-42 45t-79.5 13v43q17 -1 88.5 -5t140.5 -4q63 0 135.5 4t89.5 5v-43q-51 0 -79.5 -13t-42 -45t-13.5 -90v-301q105 7 165.5 38.5t92.5 83t62 140.5q29 85 52 134.5t69.5 87.5t119.5 38q68 0 99.5 -32t31.5 -80 t-29 -78.5t-79 -30.5q-55 0 -87 36t-32 95v15q-21 -10 -38.5 -36t-32 -61t-48.5 -123q-24 -61 -44 -100.5t-54 -72.5t-86 -50q112 -2 190.5 -35t124.5 -106q19 -30 34.5 -68t38 -103t36.5 -97q25 -56 55 -81.5t90 -31.5v-43q-120 8 -174 8q-47 0 -219 -8v43q55 0 55 60 q0 21 -4 38q-19 103 -38.5 167t-57.5 118q-29 41 -63 62.5t-87.5 30.5t-142.5 7v-336q0 -57 13.5 -89t42 -45t79.5 -13v-43q-172 8 -225 8q-57 0 -229 -8v43q51 0 79.5 13t42 45t13.5 89v336q-89 2 -142.5 -7t-87.5 -30.5t-63 -62.5q-38 -54 -57.5 -118t-38.5 -167 q-4 -26 -4 -37q0 -61 55 -61v-43q-172 8 -219 8q-52 0 -160 -8z" />
<glyph unicode="&#x437;" horiz-adv-x="956" d="M72 188q0 49 30.5 80t77.5 31q49 0 81 -30t32 -81q0 -42 -23.5 -69t-62.5 -35q12 -20 48 -38t84.5 -29t94.5 -11q81 0 137.5 34t85.5 94.5t29 139.5q0 76 -26 137.5t-74.5 97t-114.5 36.5q-49 -27 -86 -27q-45 0 -45 35q0 33 47 33q32 0 86 -13q160 47 160 246 q0 104 -40.5 164.5t-119.5 60.5q-75 0 -143 -45t-109.5 -126t-38.5 -183h-47q3 69 3 126q0 126 -13 251h47q6 -47 16 -68.5t29 -21.5q18 0 70 35q51 33 101 52t126 19q91 0 159 -30t105 -84.5t37 -124.5q-1 -114 -92.5 -182.5t-218.5 -98.5q173 -6 271.5 -75t98.5 -197 q0 -95 -60.5 -168t-162 -112.5t-219.5 -39.5q-154 0 -264 74q-96 65 -96 143z" />
<glyph unicode="&#x438;" horiz-adv-x="1282" d="M59 0v43q58 0 91.5 13t49 45t15.5 89v672q0 58 -15.5 89.5t-49 45t-91.5 13.5v43q19 -1 98 -5t148 -4q70 0 141.5 4t88.5 5v-43q-51 0 -80 -13t-42.5 -45t-13.5 -90v-648l484 667q-3 73 -33.5 101t-101.5 28v43q17 -1 88.5 -5t140.5 -4t148 4t98 5v-43q-58 0 -91.5 -13.5 t-49 -45t-15.5 -89.5v-672q0 -57 15.5 -89t49 -45t91.5 -13v-43q-188 8 -246 8q-57 0 -229 -8v43q51 0 79.5 13t42 45t13.5 89v624l-482 -666q7 -59 37.5 -82t96.5 -23v-43q-172 8 -230 8t-246 -8z" />
<glyph unicode="&#x439;" horiz-adv-x="1282" d="M59 0v43q58 0 91.5 13t49 45t15.5 89v672q0 58 -15.5 89.5t-49 45t-91.5 13.5v43q19 -1 98 -5t148 -4q70 0 141.5 4t88.5 5v-43q-51 0 -80 -13t-42.5 -45t-13.5 -90v-648l484 667q-3 73 -33.5 101t-101.5 28v43q17 -1 88.5 -5t140.5 -4t148 4t98 5v-43q-58 0 -91.5 -13.5 t-49 -45t-15.5 -89.5v-672q0 -57 15.5 -89t49 -45t91.5 -13v-43q-188 8 -246 8q-57 0 -229 -8v43q51 0 79.5 13t42 45t13.5 89v624l-482 -666q7 -59 37.5 -82t96.5 -23v-43q-172 8 -230 8t-246 -8zM260 1518q0 47 30.5 77.5t78.5 30.5q47 0 79.5 -30t32.5 -80 q0 -42 -23.5 -69.5t-62.5 -35.5q37 -40 105 -57t137 -17t136.5 17t104.5 57q-39 8 -62.5 35.5t-23.5 69.5q0 50 32.5 80t80.5 30t78.5 -30.5t30.5 -77.5q0 -83 -97 -148q-108 -74 -280 -74q-171 0 -281 74q-96 66 -96 148z" />
<glyph unicode="&#x43a;" horiz-adv-x="1171" d="M59 0v43q58 0 91.5 13t49 45t15.5 89v672q0 58 -15.5 89.5t-49 45t-91.5 13.5v43q18 -1 96 -5t154 -4q63 0 136 4t90 5v-43q-51 0 -80 -13t-42.5 -45t-13.5 -90v-301q105 7 165.5 38.5t92.5 83t62 140.5q29 85 52 134.5t69.5 87.5t120.5 38q67 0 99 -32t32 -80 t-29.5 -78.5t-79.5 -30.5q-55 0 -87 36t-32 95v15q-21 -10 -38.5 -36t-32 -61t-48.5 -123q-24 -61 -44 -100.5t-54 -72.5t-86 -50q112 -2 190.5 -35t125.5 -106q19 -30 34 -67.5t37.5 -103t36.5 -97.5q25 -56 55.5 -81.5t89.5 -31.5v-43q-120 8 -174 8q-47 0 -219 -8v43 q56 0 56 59q0 16 -5 39q-20 105 -38.5 168.5t-57.5 116.5q-29 41 -63 62.5t-87.5 30.5t-142.5 7v-336q0 -57 13.5 -89t42.5 -45t80 -13v-43q-172 8 -226 8q-62 0 -250 -8z" />
<glyph unicode="&#x43b;" horiz-adv-x="1196" d="M14 96q0 48 30.5 77.5t78.5 29.5q46 0 75 -25.5t29 -73.5q0 -71 -77 -100q4 -2 20 -2q109 0 186 195q47 119 73 286t42 379l1 20q0 71 -39.5 99.5t-123.5 28.5v43q8 -1 47 -5t93 -4q32 0 105 4.5t112 4.5q36 0 105.5 -4.5t117.5 -4.5q72 0 151 4t97 5v-43 q-58 0 -91.5 -13.5t-49 -45t-15.5 -89.5v-672q0 -57 15.5 -89t49 -45t91.5 -13v-43q-188 8 -242 8q-59 0 -295 -8v43q99 0 148 32t49 115v672q0 58 -13.5 90t-42 45t-79.5 13h-19q-50 0 -77 -13t-40 -44.5t-18 -90.5q-19 -223 -44.5 -388t-74.5 -288q-88 -215 -227 -215 q-64 0 -106 32.5t-42 92.5z" />
<glyph unicode="&#x43c;" horiz-adv-x="1454" d="M57 0v41q74 3 107.5 16t46 48t12.5 112v621q0 77 -12.5 112t-46 48t-107.5 16v41q67 -6 191 -6q89 0 158 6l312 -829l329 823h96q155 0 254 6v-41q-74 -3 -107.5 -16t-46 -48t-12.5 -112v-621q0 -77 12.5 -112t46 -48t107.5 -16v-41q-96 6 -254 6q-176 0 -262 -6v41 q74 3 107.5 16t46 48t12.5 112v719l-381 -946h-33l-365 934v-707q0 -77 12.5 -112t46 -48t107.5 -16v-41q-73 6 -186 6q-123 0 -191 -6z" />
<glyph unicode="&#x43d;" horiz-adv-x="1251" d="M59 0v43q58 0 91.5 13t49 45t15.5 89v672q0 58 -15.5 89.5t-49 45t-91.5 13.5v43q19 -1 98 -5t148 -4q70 0 141.5 4t88.5 5v-43q-51 0 -80 -13t-42.5 -45t-13.5 -90v-299h453v299q0 58 -13.5 90t-42 45t-79.5 13v43q17 -1 88.5 -5t140.5 -4t148 4t98 5v-43 q-58 0 -91.5 -13.5t-49 -45t-15.5 -89.5v-672q0 -57 15.5 -89t49 -45t91.5 -13v-43q-188 8 -246 8q-57 0 -229 -8v43q51 0 79.5 13t42 45t13.5 89v332h-453v-332q0 -57 13.5 -89t42.5 -45t80 -13v-43q-172 8 -230 8t-246 -8z" />
<glyph unicode="&#x43e;" horiz-adv-x="1122" d="M96 526q0 190 60.5 314.5t165 183.5t239.5 59t239.5 -59t165 -183.5t60.5 -314.5t-60.5 -314t-165 -182.5t-239.5 -58.5t-239.5 58.5t-165 182.5t-60.5 314zM295 526q0 -263 71.5 -388.5t194.5 -125.5t194.5 125.5t71.5 388.5q0 264 -71.5 390t-194.5 126t-194.5 -126 t-71.5 -390z" />
<glyph unicode="&#x43f;" horiz-adv-x="1251" d="M59 0v43q58 0 91.5 13t49 45t15.5 89v672q0 58 -15.5 89.5t-49 45t-91.5 13.5v43q19 -1 98 -5t148 -4t175 4.5t157 4.5q50 0 145 -4.5t164 -4.5t148 4t98 5v-43q-58 0 -91.5 -13.5t-49 -45t-15.5 -89.5v-672q0 -57 15.5 -89t49 -45t91.5 -13v-43q-188 8 -246 8 q-57 0 -229 -8v43q51 0 79.5 13t42 45t13.5 89v672q0 58 -13.5 90t-42 45t-79.5 13h-182q-51 0 -80 -13t-42.5 -45t-13.5 -90v-672q0 -57 13.5 -89t42.5 -45t80 -13v-43q-172 8 -230 8t-246 -8z" />
<glyph unicode="&#x440;" d="M45 1012v43q64 -6 127 -6q130 0 213 28v-216q46 106 132 164t196 58q109 0 195.5 -59t136 -174t49.5 -275q0 -157 -50 -294.5t-155.5 -223.5t-263.5 -86q-78 0 -141.5 30.5t-98.5 80.5v-262q0 -83 49 -115.5t148 -32.5v-43q-26 1 -116.5 5t-178.5 4q-65 0 -134 -4t-87 -5 v43q75 0 105 27.5t30 99.5v1032q0 95 -34.5 138t-121.5 43zM385 150q30 -61 85 -96.5t132 -35.5q293 0 293 529q0 475 -238 475q-93 0 -166.5 -66.5t-105.5 -192.5v-613z" />
<glyph unicode="&#x441;" horiz-adv-x="995" d="M94 514q0 166 60.5 295.5t169.5 201.5t247 72t238 -65q96 -65 96 -158q0 -54 -30.5 -84.5t-77.5 -30.5q-48 0 -80.5 27.5t-32.5 75.5q0 44 24.5 73.5t61.5 39.5q-20 37 -73 61.5t-111 24.5q-75 0 -141 -48t-109 -160t-43 -294q0 -255 82 -370.5t213 -115.5q87 0 166.5 51 t130.5 160l39 -14q-23 -73 -71 -137.5t-125.5 -106t-180.5 -41.5q-128 0 -231 66t-162.5 189t-59.5 288z" />
<glyph unicode="&#x442;" horiz-adv-x="1135" d="M66 1051h196q70 0 160.5 -2t142.5 -2q53 0 157.5 3t149.5 3h197q-14 -136 -14 -238q0 -80 6 -127h-47q-10 138 -42 207.5t-86.5 93t-146.5 23.5h-80v-801q0 -95 54 -131.5t164 -36.5v-43q-256 8 -310 8q-97 0 -190.5 -3.5t-118.5 -4.5v43q109 0 163 36.5t54 131.5v801 h-100q-91 0 -140.5 -23.5t-76.5 -93t-37 -209.5h-47q6 47 6 127q0 102 -14 238z" />
<glyph unicode="&#x443;" horiz-adv-x="1032" d="M-8 1012v43q96 -13 201 -13q88 0 266 13v-43q-50 0 -78 -3.5t-46.5 -19t-18.5 -48.5q0 -37 26 -101l247 -612l226 593q22 60 22 94q0 48 -36.5 71t-116.5 28v41q108 -6 172 -6q91 0 156 6v-41q-41 -5 -73 -37t-60 -107l-336 -880l-70 -178q-39 -101 -88 -144 q-58 -53 -160 -53q-61 0 -100 32.5t-39 90.5q0 49 29 78.5t80 29.5q45 0 74.5 -25t29.5 -71q0 -61 -55 -92q4 -2 12 -2q113 0 174 160l73 187l-372 894q-35 71 -69.5 93t-69.5 22z" />
<glyph unicode="&#x444;" horiz-adv-x="1673" d="M98 526q0 180 55.5 305.5t151.5 188.5t215 63q77 0 132 -25t93 -78v249q0 95 -34 137.5t-121 42.5v43q65 -6 127 -6q130 0 213 29v-529q44 66 112.5 101.5t149.5 35.5q112 0 199 -58t136.5 -174t49.5 -284q0 -154 -47 -289.5t-151 -221t-265 -85.5q-111 0 -184 72v-223 q0 -83 38 -115.5t117 -32.5v-43q-23 1 -97.5 5t-149.5 4q-76 0 -150.5 -4t-97.5 -5v43q79 0 117 32.5t38 115.5v275q-39 -60 -99 -92t-132 -32q-120 0 -214 62.5t-148 187.5t-54 305zM297 526q0 -493 276 -493q52 0 98 32t74 93v752q-67 126 -208 126q-115 0 -177.5 -127.5 t-62.5 -382.5zM930 95q34 -38 78.5 -57.5t89.5 -19.5q155 0 217.5 140.5t62.5 406.5q0 457 -245 457q-61 0 -115.5 -35.5t-87.5 -102.5v-789z" />
<glyph unicode="&#x445;" horiz-adv-x="1063" d="M43 0v41q40 5 82 37t98 106l236 311l-285 414q-28 41 -47 61.5t-36.5 29.5t-43.5 12v43q108 -8 146 -8q69 0 241 8v-43q-33 0 -56.5 -12.5t-23.5 -33.5q0 -12 8 -24l219 -319l142 198q62 87 62 129q0 29 -28 44.5t-89 19.5v41q106 -6 172 -6q90 0 155 6v-41 q-83 -10 -180 -144l-207 -286l301 -439q36 -52 62 -73.5t65 -28.5v-43q-104 8 -145 8q-70 0 -242 -8v43q33 0 57 13t24 33q0 10 -9 24l-233 340l-150 -195q-57 -73 -57 -123q0 -84 151 -94v-41q-108 6 -233 6q-91 0 -156 -6z" />
<glyph unicode="&#x446;" horiz-adv-x="1260" d="M59 0v43q58 0 91.5 13t49 45t15.5 89v672q0 58 -15.5 89.5t-49 45t-91.5 13.5v43q19 -1 98 -5t148 -4q70 0 141.5 4t88.5 5v-43q-51 0 -80 -13t-42.5 -45t-13.5 -90v-672q0 -57 13.5 -89t42.5 -45t80 -13h182q51 0 79.5 13t42 45t13.5 89v672q0 58 -13.5 90t-42 45 t-79.5 13v43q17 -1 88.5 -5t140.5 -4t148 4t98 5v-43q-58 0 -91.5 -13.5t-49 -45t-15.5 -89.5v-672q0 -60 14 -90.5t52 -43.5t112 -13q-14 -134 -14 -242q0 -81 6 -127h-47q-14 134 -36.5 202t-76.5 100t-161 32q-56 0 -131.5 -4t-116.5 -4q-51 0 -157 4t-175 4 q-58 0 -246 -8z" />
<glyph unicode="&#x447;" horiz-adv-x="1204" d="M33 1010v43q19 -1 97.5 -5t148.5 -4q69 0 140.5 4t88.5 5v-43q-51 0 -79.5 -13t-42 -45t-13.5 -90v-200q0 -83 9.5 -131t45 -76.5t109.5 -28.5q164 0 268 59v377q0 58 -13.5 90t-42 45t-79.5 13v43q17 -1 88.5 -5t140.5 -4t148 4t98 5v-43q-58 0 -91.5 -13.5t-49 -45 t-15.5 -89.5v-672q0 -57 15.5 -89t49 -45t91.5 -13v-43q-188 8 -242 8q-63 0 -315 -8v43q109 0 163 36.5t54 131.5v231q-57 -30 -150 -56t-178 -26q-150 0 -221 78q-37 41 -52.5 105t-15.5 164v155q0 58 -15.5 89.5t-48.5 45t-91 13.5z" />
<glyph unicode="&#x448;" horiz-adv-x="1708" d="M59 0v43q58 0 91.5 13t49 45t15.5 89v672q0 58 -15.5 89.5t-49 45t-91.5 13.5v43q19 -1 98 -5t148 -4q63 0 128.5 4t80.5 5v-43q-43 0 -68 -13t-36 -45t-11 -90v-672q0 -57 13.5 -89t42.5 -45t80 -13h92q51 0 79.5 13t42 45t13.5 89v672q0 58 -11 90t-36 45t-68 13v43 q15 -1 80.5 -5t128.5 -4q57 0 123.5 4t81.5 5v-43q-43 0 -68 -13t-36 -45t-11 -90v-672q0 -57 13.5 -89t42 -45t79.5 -13h93q51 0 79.5 13t42 45t13.5 89v672q0 58 -11 90t-36 45t-68 13v43q15 -1 80.5 -5t128.5 -4q69 0 148 4t98 5v-43q-58 0 -91.5 -13.5t-49 -45 t-15.5 -89.5v-672q0 -57 15.5 -89t49 -45t91.5 -13v-43q-188 8 -246 8q-53 0 -144.5 -4t-128.5 -4q-46 0 -139.5 4t-140.5 4q-44 0 -134.5 -4t-135.5 -4q-40 0 -130.5 4t-144.5 4q-58 0 -246 -8z" />
<glyph unicode="&#x449;" horiz-adv-x="1708" d="M59 0v43q58 0 91.5 13t49 45t15.5 89v672q0 58 -15.5 89.5t-49 45t-91.5 13.5v43q19 -1 98 -5t148 -4q63 0 128.5 4t80.5 5v-43q-43 0 -68 -13t-36 -45t-11 -90v-672q0 -57 13.5 -89t42.5 -45t80 -13h92q51 0 79.5 13t42 45t13.5 89v672q0 58 -11 90t-36 45t-68 13v43 q15 -1 80.5 -5t128.5 -4q57 0 123.5 4t81.5 5v-43q-43 0 -68 -13t-36 -45t-11 -90v-672q0 -57 13.5 -89t42 -45t79.5 -13h93q51 0 79.5 13t42 45t13.5 89v672q0 58 -11 90t-36 45t-68 13v43q15 -1 80.5 -5t128.5 -4q69 0 148 4t98 5v-43q-58 0 -91.5 -13.5t-49 -45 t-15.5 -89.5v-672q0 -57 15.5 -89t49 -45t91.5 -13q-15 -131 -15 -242q0 -81 6 -127h-47q-14 134 -36.5 202t-76.5 100t-161 32q-36 0 -100 -4t-89 -4q-46 0 -139.5 4t-140.5 4q-44 0 -134.5 -4t-135.5 -4q-40 0 -130.5 4t-144.5 4q-58 0 -246 -8z" />
<glyph unicode="&#x44a;" horiz-adv-x="1370" d="M63 1053h213q82 0 187 -4.5t145 -4.5q69 0 148 4t98 5v-43q-58 0 -91.5 -13.5t-49 -45t-15.5 -89.5v-248h203q212 0 312 -79t100 -213q0 -82 -44.5 -155.5t-144 -120t-254.5 -46.5q-34 0 -124.5 4t-141.5 4q-55 0 -287 -8v43q99 0 148 32t49 115v674q0 60 -10.5 91 t-39 44t-85.5 13h-47q-83 0 -125 -30t-59.5 -95.5t-28.5 -198.5h-47q6 47 6 127q0 106 -15 238zM698 190q0 -56 14.5 -87.5t47 -45.5t88.5 -14q152 0 212 72.5t60 193.5q0 95 -34.5 154.5t-109.5 88t-196 28.5h-82v-390z" />
<glyph unicode="&#x44b;" horiz-adv-x="1552" d="M55 0v43q58 0 91.5 13t49 45t15.5 89v672q0 58 -13.5 90t-42 45t-79.5 13v43q17 -1 88.5 -5t140.5 -4t148 4t98 5v-43q-58 0 -91.5 -13.5t-49 -45t-15.5 -89.5v-248h142q212 0 311.5 -79t99.5 -213q0 -83 -44.5 -156t-143.5 -119.5t-254 -46.5q-27 0 -98.5 4t-110.5 4 q-54 0 -242 -8zM395 190q0 -82 19.5 -114.5t68.5 -32.5q152 0 212.5 72.5t60.5 193.5q0 95 -35 154.5t-109.5 88t-195.5 28.5h-21v-390zM1022 0v43q51 0 79.5 13t42 45t13.5 89v672q0 58 -13.5 90t-42 45t-79.5 13v43q17 -1 89.5 -5t135.5 -4q70 0 141.5 4t88.5 5v-43 q-51 0 -80 -13t-42.5 -45t-13.5 -90v-672q0 -57 15.5 -89t49 -45t91.5 -13v-43q-188 8 -250 8q-53 0 -225 -8z" />
<glyph unicode="&#x44c;" horiz-adv-x="1067" d="M55 0v43q58 0 91.5 13t49 45t15.5 89v672q0 58 -13.5 90t-42 45t-79.5 13v43q17 -1 88.5 -5t140.5 -4t148 4t98 5v-43q-58 0 -91.5 -13.5t-49 -45t-15.5 -89.5v-248h203q212 0 312 -79t100 -213q0 -82 -44.5 -155.5t-144 -120t-254.5 -46.5q-35 0 -126.5 4t-143.5 4 q-54 0 -242 -8zM395 190q0 -56 14.5 -87.5t47 -45.5t88.5 -14q152 0 212 72.5t60 193.5q0 95 -34.5 154.5t-109.5 88t-196 28.5h-82v-390z" />
</font>
</defs>
</svg>
