<?xml version="1.0" encoding="utf-8"?>
<!-- Generator: Adobe Illustrator 19.0.1, SVG Export Plug-In . SVG Version: 6.00 Build 0)  -->
<svg version="1.1" xmlns="http://www.w3.org/2000/svg" xmlns:xlink="http://www.w3.org/1999/xlink" x="0px" y="0px"
	 viewBox="0 0 185.6 92.8" style="enable-background:new 0 0 185.6 92.8;" xml:space="preserve">
<style type="text/css">
	.st0{fill:#2E3192;}
	.st1{fill:#FFFFFF;}
	.st2{fill:#F26E25;}
	.st3{fill:#6EA1D4;}
	.st4{fill:#7DC178;}
	.st5{fill:#CA2127;}
	.st6{fill:#E16826;}
	.st7{fill:#4B85C5;}
	.st8{fill:#5B955C;}
	.st9{fill:#9E1D21;}
</style>
<g id="Layer_1">
</g>
<g id="Layer_2">
</g>
<g id="Layer_3">
	<g>
		<g>
			<g id="g6226_4_" transform="matrix(0.09062452,0,0,0.09062452,5.0725801,5.0404446)">
				<g id="_x33_56._Play_4_">
					<g id="g6229_4_">
						<path id="path6231_2_" class="st3" d="M455.7-22.5c165.4,0,326.4,85.9,415,239.4c132.2,229,53.7,521.7-175.2,654
							c-75.4,43.5-157.7,64.2-238.9,64.2c-165.4,0-326.4-85.9-415-239.5c-132.2-229-53.8-521.8,175.2-654
							C292.1-1.8,374.4-22.5,455.7-22.5 M455.7-55.6c-89.3,0-177.7,23.7-255.5,68.7C81.8,81.4-2.9,191.8-38.3,323.9
							c-35.4,132.1-17.2,270,51.2,388.4c91.2,157.9,261.2,256,443.7,256c89.3,0,177.7-23.7,255.5-68.7
							c118.4-68.4,203.1-178.8,238.5-310.8c35.4-132.1,17.2-270-51.1-388.4C808.2,42.5,638.2-55.6,455.7-55.6L455.7-55.6z"/>
					</g>
				</g>
			</g>
			<path class="st7" d="M76.5,29C66.9,12.4,45.7,6.8,29.1,16.3C12.5,25.9,6.8,47.1,16.3,63.7c4.8,8.3,12.5,13.9,21.1,16.2
				c0.2-3.4,0.3-7.1,0.3-10.8c0.3-20.2,0.3-20.2,0.3-20.2s0.2,2.3,0.5,6.2c0.2-2.8,1.1-10.4,4.4-15.7c4.2-6.6,15-12,15.9-12.5
				s1.3-0.5,1.3-0.5s0.5,1.3,0.2,3.5c-0.3,2.2-1.1,10.8-4.2,14.8c-3.1,4-5,5.8-8.6,7.8c-3.6,2-7.3,3.2-7.3,3.2l-1.7,0.5
				c0.3,5.8,0.6,14.6,0.1,24c8.2,1.8,17.1,0.7,24.9-3.8C80.4,66.9,86,45.6,76.5,29z M36.8,63.3l-1-0.1c0,0-2-0.9-4-2
				s-2.9-1.9-4.4-3.8c-1.5-1.9-1.5-5.7-1.6-6.7s0.3-1.5,0.3-1.5s0.2,0.1,0.7,0.3c0.5,0.2,6.3,3,8.3,6.1
				C37.1,58.8,36.8,63.3,36.8,63.3z"/>
		</g>
		<path class="st3" d="M179.4,23.2C166.6,1,138.2-6.6,116,6.2C93.8,19,86.2,47.4,99,69.6c6.4,11.1,16.7,18.6,28.2,21.6
			c0.2-4.6,0.4-9.4,0.5-14.4c0.5-27,0.5-27,0.5-27s0.3,3.1,0.6,8.3c0.3-3.8,1.4-13.9,5.9-21c5.6-8.9,20.1-16.1,21.2-16.6
			c1.2-0.6,1.7-0.7,1.7-0.7s0.7,1.8,0.3,4.6c-0.3,2.9-1.5,14.5-5.6,19.8c-4.1,5.4-6.7,7.7-11.5,10.4c-4.8,2.7-9.8,4.3-9.8,4.3
			l-2.2,0.7c0.4,7.8,0.8,19.5,0.2,32.1c10.9,2.4,22.8,1,33.3-5.1C184.6,73.8,192.2,45.4,179.4,23.2z M126.3,69l-1.3-0.1
			c0,0-2.7-1.3-5.3-2.6c-2.6-1.4-3.9-2.5-5.9-5c-2-2.5-2.1-7.7-2.1-8.9s0.4-2,0.4-2s0.3,0.1,0.9,0.4c0.6,0.3,8.4,4.1,11.1,8.2
			C126.8,63,126.3,69,126.3,69z"/>
	</g>
</g>
</svg>
