<?xml version="1.0" encoding="utf-8"?>
<!-- Generator: Adobe Illustrator 19.0.1, SVG Export Plug-In . SVG Version: 6.00 Build 0)  -->
<svg version="1.1" xmlns="http://www.w3.org/2000/svg" xmlns:xlink="http://www.w3.org/1999/xlink" x="0px" y="0px"
	 viewBox="0 0 185.6 92.8" style="enable-background:new 0 0 185.6 92.8;" xml:space="preserve">
<style type="text/css">
	.st0{fill:#2E3192;}
	.st1{fill:#FFFFFF;}
	.st2{fill:#F26E25;}
	.st3{fill:#6EA1D4;}
	.st4{fill:#7DC178;}
	.st5{fill:#CA2127;}
	.st6{fill:#E16826;}
	.st7{fill:#4B85C5;}
	.st8{fill:#5B955C;}
	.st9{fill:#9E1D21;}
</style>
<g id="Layer_1">
</g>
<g id="Layer_2">
</g>
<g id="Layer_3">
	<g>
		<g>
			<g id="g6226_2_" transform="matrix(0.09062452,0,0,0.09062452,5.0725801,5.0404446)">
				<g id="_x33_56._Play_2_">
					<g id="g6229_2_">
						<path id="path6231_1_" class="st4" d="M455.7-22.5c165.4,0,326.4,85.9,415,239.4c132.2,229,53.7,521.7-175.2,654
							c-75.4,43.5-157.7,64.2-238.9,64.2c-165.4,0-326.4-85.9-415-239.5c-132.2-229-53.8-521.8,175.2-654
							C292.1-1.8,374.4-22.5,455.7-22.5 M455.7-55.6c-89.3,0-177.7,23.7-255.5,68.7C81.8,81.4-2.9,191.8-38.3,323.9
							c-35.4,132.1-17.2,270,51.2,388.4c91.2,157.9,261.2,256,443.7,256c89.3,0,177.7-23.7,255.5-68.7
							c118.4-68.4,203.1-178.8,238.5-310.8c35.4-132.1,17.2-270-51.1-388.4C808.2,42.5,638.2-55.6,455.7-55.6L455.7-55.6z"/>
					</g>
				</g>
			</g>
			<path class="st8" d="M76.5,29C66.9,12.4,45.7,6.8,29.1,16.3C12.5,25.9,6.8,47.2,16.3,63.8c5.4,9.4,14.5,15.3,24.4,16.9
				c0.7-2.2,2.9-8.7,3.5-12.4c0.7-4.5-0.6-11.1-0.6-11.1s-1.1,0-2.1-0.2c-1-0.2-1.9-0.9-1.9-0.9s-1.3,0.5-4.6,1.4s-5.8-0.1-10-2.4
				s-8.6-12.6-8.6-12.6s4.9,1,10.9,1.1c6,0.1,7.7,1.4,10.7,5.2s2.1,6.8,2.1,6.8s0.9,0.4,1.9,0.4c1,0,1.5-0.4,1.5-0.4
				s-0.3-2.1-1.9-6.8c-1.6-4.7-3.5-8-3.5-8s-0.8,0.2-2.1,0c-1.3-0.1-4.3-0.7-8.9-3.5c-4.6-2.8-4.9-6.7-4.9-6.7s0.4-0.3,1.3-0.4
				c1-0.1,5.5,0.1,9.2,3.3c3.8,3.2,5,5.6,5,5.6s0-3.2,1.2-6.4s3.5-4.6,3.5-4.6s0.4,0.6,0.4,2s-0.3,3.5-1.4,6.4
				c-1.1,2.9-3.1,4.1-3.1,4.1s0.4,0.3,1.5,1.6c1,1.3,1.8,2.8,3.7,7.1c1.9,4.3,2.7,8.2,3,13.1l-0.1,7.2c0,0,1.7-0.7,2.7-1.6
				c1-0.9,1.5-2.2,1.5-2.2s-2.4-5.1-2.6-8.6s0.1-5.4,3.8-10.3s10.6-7.8,13.1-9.7c2.5-1.8,5.5-4.8,5.5-4.8s0.3,6,0,14
				c-0.3,8-3.8,13.3-7.9,17c-4.1,3.8-10.8,3-10.8,3s-0.9,1.7-2.2,3C48,71,46,71.6,46,71.6s-0.2,1.7-0.7,5.2
				c-0.2,1.7-0.6,3.2-0.9,4.3c6.5,0.4,13.2-1.1,19.3-4.6C80.4,66.9,86,45.6,76.5,29z"/>
		</g>
		<path class="st4" d="M179.4,23.2C166.6,1,138.2-6.6,116,6.2C93.8,19,86.2,47.4,99,69.6c7.2,12.5,19.4,20.4,32.6,22.6
			c1-2.9,3.9-11.7,4.6-16.6c0.9-6-0.8-14.8-0.8-14.8s-1.5,0-2.8-0.2c-1.3-0.3-2.5-1.1-2.5-1.1s-1.7,0.7-6.2,1.9
			c-4.5,1.2-7.8-0.1-13.3-3.3c-5.5-3.2-11.5-16.9-11.5-16.9s6.6,1.4,14.6,1.5c8,0.1,10.4,1.9,14.3,7c3.9,5.1,2.9,9.1,2.9,9.1
			s1.2,0.5,2.6,0.5c1.4,0,2-0.5,2-0.5s-0.4-2.8-2.6-9.1c-2.2-6.3-4.7-10.7-4.7-10.7s-1,0.2-2.8,0c-1.8-0.2-5.7-0.9-11.8-4.6
			c-6.1-3.7-6.6-9-6.6-9s0.5-0.4,1.8-0.5c1.3-0.1,7.3,0.2,12.3,4.4c5,4.2,6.7,7.5,6.7,7.5s0-4.2,1.6-8.6c1.6-4.3,4.6-6.1,4.6-6.1
			s0.5,0.8,0.5,2.7s-0.4,4.7-1.9,8.6c-1.5,3.8-4.1,5.4-4.1,5.4s0.6,0.4,2,2.2c1.4,1.8,2.4,3.7,4.9,9.5c2.6,5.7,3.6,10.9,3.9,17.6
			l-0.2,9.7c0,0,2.3-1,3.6-2.2c1.4-1.2,2-3,2-3s-3.2-6.8-3.5-11.4s0.2-7.2,5.1-13.7s14.2-10.5,17.6-12.9c3.4-2.5,7.3-6.4,7.3-6.4
			s0.4,8.1,0,18.7c-0.4,10.6-5,17.7-10.6,22.8c-5.5,5-14.5,3.9-14.5,3.9s-1.2,2.3-3,4c-1.8,1.8-4.4,2.6-4.4,2.6s-0.3,2.3-0.9,6.9
			c-0.3,2.3-0.8,4.3-1.2,5.8c8.7,0.5,17.7-1.4,25.8-6.1C184.6,73.8,192.2,45.4,179.4,23.2z"/>
	</g>
</g>
</svg>
