<?xml version="1.0" encoding="utf-8"?>
<!-- Generator: Adobe Illustrator 19.0.1, SVG Export Plug-In . SVG Version: 6.00 Build 0)  -->
<svg version="1.1" xmlns="http://www.w3.org/2000/svg" xmlns:xlink="http://www.w3.org/1999/xlink" x="0px" y="0px"
	 viewBox="0 0 185.6 92.8" style="enable-background:new 0 0 185.6 92.8;" xml:space="preserve">
<style type="text/css">
	.st0{fill:#2E3192;}
	.st1{fill:#FFFFFF;}
	.st2{fill:#F26E25;}
	.st3{fill:#6EA1D4;}
	.st4{fill:#7DC178;}
	.st5{fill:#CA2127;}
	.st6{fill:#E16826;}
	.st7{fill:#4B85C5;}
	.st8{fill:#5B955C;}
	.st9{fill:#9E1D21;}
</style>
<g id="Layer_1">
</g>
<g id="Layer_2">
</g>
<g id="Layer_3">
	<g>
		<g>
			<g id="g6226_1_" transform="matrix(0.09062452,0,0,0.09062452,5.0725801,5.0404446)">
				<g id="_x33_56._Play_1_">
					<g id="g6229_1_">
						<path id="path6231_16_" class="st5" d="M455.7-22.4c165.4,0,326.4,85.9,415,239.4c132.2,229,53.7,521.7-175.2,654
							c-75.4,43.5-157.7,64.2-238.9,64.2c-165.4,0-326.4-85.9-415-239.5c-132.2-229-53.8-521.8,175.2-654
							C292.1-1.7,374.4-22.4,455.7-22.4 M455.7-55.5c-89.3,0-177.7,23.7-255.5,68.7C81.8,81.6-2.9,191.9-38.3,324
							C-73.7,456-55.5,594,12.8,712.4c91.2,157.9,261.2,256,443.7,256c89.3,0,177.7-23.7,255.5-68.7
							C830.4,831.4,915.1,721,950.5,588.9c35.4-132.1,17.2-270-51.1-388.4C808.2,42.6,638.2-55.5,455.7-55.5L455.7-55.5z"/>
					</g>
				</g>
			</g>
			<path class="st9" d="M76.5,29.1C66.9,12.5,45.7,6.8,29.1,16.4C12.5,25.9,6.8,47.2,16.3,63.8c6.2,10.8,17.3,16.9,28.9,17.3V69.4
				c-1.5-1.1-3-2.3-4.3-3.3c-1.6,0.2-9.4,0.7-16.5-6.3c-8-7.9-5.5-19.1-5.5-19.1s6.9-1.6,16.1,6.5c7.1,6.3,7,14.1,6.6,17.3
				c1.1,0.9,2.4,1.9,3.7,2.9v-5.2c-2-1.9-5-5.8-5.4-12.3c-0.5-9.5,7.5-15.2,7.5-15.2s5.3,2.9,6.4,13.3c0.8,7.4-3,12.1-5.3,14.2v5.4
				l4.1-2.9c-0.5-2.6-1.3-11.2,6.4-18.1c9.2-8.1,16.1-6.5,16.1-6.5s2.5,11.2-5.5,19.1c-6.1,6-12.8,6.5-15.5,6.4l-5.6,4v11.4
				c5.2-0.3,10.5-1.8,15.3-4.6C80.4,66.9,86,45.7,76.5,29.1z M38.6,46.4c0,0-6,0.5-10.8-5.2c-4.8-5.7-2.5-13-2.5-13
				s4.7-0.6,10.3,5.4C41.3,39.5,38.6,46.4,38.6,46.4z M42.8,37.3c0,0-4.4,0-7.6-4.5s-1-9.7-1-9.7s3.5-0.2,7.2,4.5
				C45.2,32.4,42.8,37.3,42.8,37.3z M49.4,32.1c-1.3,1.7-2.8,2.6-2.8,2.6s-3.7-2.5-3.8-7.8c-0.1-5.4,4.8-8.3,4.8-8.3s3,1.8,3.4,7.7
				c0,0.7,0,1.3-0.1,1.9c0.1-0.2,0.3-0.4,0.4-0.6c3.8-4.7,7.2-4.5,7.2-4.5s2.1,5.2-1,9.7c-3.2,4.5-7.6,4.5-7.6,4.5
				S49,34.9,49.4,32.1z M65,41.1c-4.8,5.7-10.8,5.2-10.8,5.2s-2.6-6.9,3-12.9S67.5,28,67.5,28S69.8,35.3,65,41.1z"/>
		</g>
		<path class="st5" d="M179.4,23.2C166.6,1,138.2-6.6,116,6.2C93.8,19,86.2,47.4,99,69.6c8.3,14.4,23.2,22.6,38.6,23.2V77.2
			c-2-1.5-4-3-5.7-4.4c-2.2,0.3-12.6,0.9-22.1-8.5c-10.7-10.5-7.4-25.5-7.4-25.5s9.2-2.1,21.6,8.7c9.5,8.4,9.3,18.8,8.8,23.1
			c1.5,1.2,3.1,2.5,4.9,3.9v-6.9c-2.6-2.5-6.7-7.8-7.2-16.4c-0.7-12.8,10-20.3,10-20.3s7,3.9,8.5,17.8c1.1,9.9-4,16.2-7.1,19v7.2
			l5.5-3.9c-0.6-3.5-1.8-15,8.6-24.2c12.3-10.9,21.6-8.7,21.6-8.7s3.3,15-7.4,25.5c-8.2,8.1-17,8.7-20.8,8.6l-7.5,5.3v15.3
			c7-0.4,14-2.4,20.5-6.1C184.6,73.8,192.2,45.4,179.4,23.2z M128.8,46.5c0,0-8,0.7-14.5-7c-6.4-7.7-3.3-17.4-3.3-17.4
			s6.3-0.8,13.8,7.2C132.4,37.2,128.8,46.5,128.8,46.5z M134.4,34.2c0,0-5.9,0-10.2-6c-4.3-6-1.4-13-1.4-13s4.6-0.2,9.7,6.1
			C137.6,27.6,134.4,34.2,134.4,34.2z M143.2,27.2c-1.7,2.3-3.7,3.4-3.7,3.4s-5-3.3-5-10.5c-0.1-7.2,6.4-11.1,6.4-11.1
			s4,2.4,4.6,10.2c0.1,0.9,0,1.8-0.1,2.6c0.2-0.3,0.4-0.5,0.6-0.8c5-6.3,9.7-6.1,9.7-6.1s2.9,7-1.4,13c-4.3,6-10.2,6-10.2,6
			S142.6,31.1,143.2,27.2z M164.1,39.3c-6.4,7.7-14.5,7-14.5,7s-3.5-9.3,4-17.3s13.8-7.2,13.8-7.2S170.6,31.6,164.1,39.3z"/>
	</g>
</g>
</svg>
